<svg xmlns="http://www.w3.org/2000/svg" width="210" height="116" viewBox="0 0 210 116"><path d="M100.53,71.36C63.39,67.32,64.77,31,70.35,21.84,70.54,36.59,81.7,61.61,100.53,71.36Z" fill="#90c320"/><path d="M100.53,71.36C63.39,67.32,64.77,31,70.35,21.84,70.54,36.59,81.7,61.61,100.53,71.36Z" fill="#90c320"/><path d="M101.42,65.39c-29.63-22.77-9.52-53,0-58C93.89,20.11,90.39,47.27,101.42,65.39Z" fill="#90c320"/><path d="M110.66,71.36c37.14-4,35.76-40.35,30.18-49.49C140.64,36.59,129.48,61.61,110.66,71.36Z" fill="#90c320"/><path d="M110.66,71.36c37.14-4,35.76-40.35,30.18-49.49C140.64,36.59,129.48,61.61,110.66,71.36Z" fill="#90c320"/><path d="M109.79,65.39c29.64-22.77,9.53-53,0-58C117.3,20.11,120.79,47.27,109.79,65.39Z" fill="#90c320"/><path d="M44.34,101.31a13.28,13.28,0,0,0,7.95,2.57c4.21,0,4.65-2.15,4.65-2.92s-.67-3.11-7.15-3.11a6.75,6.75,0,0,1-7.15-7c0-5.19,4-7.27,9-7.27a12.59,12.59,0,0,1,8.75,3.3l-2.88,3a8.45,8.45,0,0,0-6.35-2.24c-1.51,0-4,.45-4,2.85,0,1.41.45,3,5.74,3,6.19,0,8.37,4,8.37,7.56,0,3.73-2.63,7.06-9,7.06S43.7,105.9,42,104.84Z" fill="#00394a" stroke="#132344" stroke-miterlimit="10"/><path d="M69.29,98c0,3.81,4.39,6.09,7.95,6.09a7.61,7.61,0,0,0,6.13-2.57l3.14,3.4a13.17,13.17,0,0,1-9.07,3.21c-8.18,0-13.57-4.71-13.57-11.74s4.91-12.54,12.19-12.54c6.89,0,11.8,6.16,11.8,10.84,0,.87.06,2.73,0,3.15ZM83.4,93.74c.07-2.69-3.21-5.77-7.31-5.77a6.43,6.43,0,0,0-6.67,5.77Z" fill="#00394a" stroke="#132344" stroke-miterlimit="10"/><path d="M95.72,98c0,3.81,4.39,6.09,8,6.09a7.6,7.6,0,0,0,6.12-2.57l3.15,3.4a13.21,13.21,0,0,1-9.08,3.21c-8.18,0-13.56-4.71-13.56-11.74s4.9-12.54,12.18-12.54c6.9,0,11.8,6.16,11.8,10.84,0,.87.07,2.73,0,3.15Zm14.07-4.27c.07-2.69-3.2-5.77-7.31-5.77a6.44,6.44,0,0,0-6.67,5.77Z" fill="#00394a" stroke="#132344" stroke-miterlimit="10"/><path d="M122.75,98c0,3.81,4.39,6.09,7.95,6.09a7.61,7.61,0,0,0,6.13-2.57l3.14,3.4a13.17,13.17,0,0,1-9.07,3.21c-8.18,0-13.57-4.71-13.57-11.74s4.91-12.54,12.19-12.54c6.89,0,11.8,6.16,11.8,10.84,0,.87.06,2.73,0,3.15Zm14.11-4.27c.06-2.69-3.21-5.77-7.31-5.77a6.43,6.43,0,0,0-6.67,5.77Z" fill="#00394a" stroke="#132344" stroke-miterlimit="10"/><path d="M167.81,78.51l-5.13,2.15v7.47h-.1c-1.15-1.76-4.07-3.46-8-3.46-6.26,0-11.17,4.77-11.1,12,0,6.64,4.58,11.45,10.77,11.45,4.21,0,7-1.34,8.41-3.78l.19,4.2H168Zm-12.51,25a6.9,6.9,0,1,1,6.9-6.89A6.88,6.88,0,0,1,155.3,103.52Z" fill="#00394a" stroke="#132344" stroke-miterlimit="10"/><rect width="210" height="116" fill="none"/></svg>