<svg xmlns="http://www.w3.org/2000/svg" viewBox="0 0 419.28 491.79"><title>beagleboard-compatible</title><path d="M193.48,329.36c-2,.67-101.32-17.8-177.54,36.11C-.5,379.58,2.83,391.11,2.83,391.11S-9.59,418,17.58,428.4c13.48,31.86,59.49,41.34,59.49,41.34s24.73,19.79,35.88,9.9c16.26,11.8,45.53,1.43,45.53,1.43s42.62,25.46,73.15-2.09c32,16.67,61.52-3.19,61.52-3.19s45.21-3,53.31-21.73c24.85-2.77,41.6-25.63,41.6-25.63s72.85-47.82-4-79.94C301.53,324,193.48,329.36,193.48,329.36Z" fill="#f2f1ef"/><path d="M221,441.81a3.84,3.84,0,1,1,3.83,3.84A3.82,3.82,0,0,1,221,441.81Zm.52,0a3.31,3.31,0,1,0,6.61,0,3.31,3.31,0,0,0-6.61,0Zm3.22.47H224V444h-.58v-4.39h1.79a1.32,1.32,0,0,1,1.39,1.34,1.29,1.29,0,0,1-1.12,1.3l1.18,1.75h-.73Zm-.79-2.13v1.59h1.21a.78.78,0,0,0,.8-.77.8.8,0,0,0-.8-.82Z" fill="#231f20"/><path d="M375.9,163.72c6.89-37.59-25.31-67.57-74.27-84.36C288.46,32.74,258.65,5,215,5,189.71,5,167.19,15,152.74,30.42c-32.45,2-32.69,40.19-61,94.81-22.17,42.76-4.73,87,48.78,93.94-8.36,19.33-12.71,41.73-13.11,64.35-27.15-31.09-19.71-63.22-34.87-62.38-19,1.05,5.31,68.41,39.05,106a167.44,167.44,0,0,0,5,18.2c-11.77,4.08-24.11,16.28-24.11,30.43,0,16.09,11,17.59,25.34,17.73a25.64,25.64,0,0,0-.75,5.65,13.15,13.15,0,0,0,5.09,10.9c3.6,2.73,8.71,4.11,15.84,4.38,1.05,0,2.08.05,3.07.05h.07c15.08,0,25.45-4.22,32-10.18a26.87,26.87,0,0,0,9.15-19.62,19.43,19.43,0,0,0-.53-4.61,24.51,24.51,0,0,1-.45-2.58,213,213,0,0,1,36.61-.22,25.93,25.93,0,0,1-.48,2.8,17.68,17.68,0,0,0-.5,4.25c0,6.23,2.84,13.79,9.64,19.82s17.46,10.34,32.76,10.34h.05c1,0,2,0,3.07-.05,7-.27,11.94-1.58,15.48-4.2a12.59,12.59,0,0,0,5-10.56,25.47,25.47,0,0,0-.89-6.17c14.57-.1,25.89-1.43,25.89-17.73,0-14.15-12.33-26.35-24.1-30.43,12.48-38.79,11.46-83.92-2.18-119.76l-.82-.53a126.45,126.45,0,0,0,37.95-13.71c4.76,7.67,9.42,15.15,20.42,13.58,16.57-2.37,23.55-27.16,9.35-41.74A59.88,59.88,0,0,0,375.9,163.72Z" fill="#fff" stroke="#231f20" stroke-width="8"/><path d="M378.43,161.18c6.89-37.58-25.3-67.57-74.26-84.36C291,30.21,261.18,2.5,217.57,2.5c-25.32,0-47.84,9.94-62.3,25.39-32.45,2-32.68,40.18-61,94.8-22.18,42.76-4.73,87.05,48.77,93.94-8.35,19.33-12.7,41.74-13.11,64.35-27.14-31.08-19.7-63.21-34.87-62.37-19,1,5.31,68.41,39.06,106a167.44,167.44,0,0,0,5,18.2C127.35,346.91,115,359.11,115,373.26c0,16.09,11,17.6,25.33,17.73a25.78,25.78,0,0,0-.74,5.66,13.15,13.15,0,0,0,5.08,10.89c3.6,2.73,8.71,4.11,15.85,4.38,1.05,0,2.07.05,3.07.05h.07c15.08,0,25.45-4.21,32-10.18a26.88,26.88,0,0,0,9.15-19.61,19,19,0,0,0-.54-4.62,24.83,24.83,0,0,1-.44-2.57,212.87,212.87,0,0,1,36.6-.23,28.38,28.38,0,0,1-.47,2.8,17.21,17.21,0,0,0-.5,4.26c0,6.22,2.84,13.78,9.64,19.82S266.58,412,281.88,412h0c1,0,2,0,3.07-.06,7-.26,11.94-1.57,15.48-4.19a12.65,12.65,0,0,0,5-10.56,25.47,25.47,0,0,0-.89-6.17c14.56-.11,25.89-1.44,25.89-17.74,0-14.15-12.34-26.35-24.11-30.42,12.49-38.8,11.46-83.93-2.17-119.76l-.82-.53a126.49,126.49,0,0,0,37.94-13.72c4.77,7.68,9.43,15.15,20.43,13.58,16.56-2.37,23.55-27.16,9.34-41.73A59.48,59.48,0,0,0,378.43,161.18Z" fill="#fff" stroke="#231f20" stroke-width="5"/><path d="M306.41,342.84c5-2.54,25.38,7.6,24.11,30.42S301.36,391,301.36,391l-12.67-29.16s-5.07-55.77-3.81-84.93-19-49.44-19-49.44a160.33,160.33,0,0,1,20.28-1.26c11.41,0,18.08-3.15,18.08-3.15s9.81,12,11.08,52.58S301.36,345.37,306.41,342.84Z" fill="#a97f2c"/><path d="M278.55,28.46c11.4,11.41,27.62,51.28,27.62,51.28s-28.49-2.89-40.72-14.41c-7-6.62-39.82-60.77-39.82-60.77C235.77,4.56,267.14,17.05,278.55,28.46Z" fill="#a97f2c"/><path d="M217.56,2.5s39.33,59.37,38.89,80.73c-.63,31.31-55.18,24-19.74,110,8.88,21.55-11.41,39.29-40.56,34.22-13.29-2.3-38,3.81-38,43.1s-2.54,91.27-2.54,91.27L144.18,391s-27.89,3.8-27.89-12.68,3.44-22.13,14.85-31,3-22.7,3-22.7-39.37-56.58-40.64-65.46,13.94-20.28,13.94-20.28,18.42,38.55,22.52,42.09,2.84-49.69,10.44-57.3S151.78,32.27,151.78,32.27,157.85,10.77,217.56,2.5Z" fill="#a97f2c"/><path d="M207.56,160.34C156.42,169.45,131,224.59,129.93,281c-27.14-31.08-19.7-63.21-34.87-62.37-19,1,5.31,68.41,39.06,106a167.44,167.44,0,0,0,5,18.2C127.35,346.91,115,359.11,115,373.26c0,17.5,13,17.75,29.15,17.75a27.87,27.87,0,0,0,20.09-8.74c37-10.28,77.52-11.54,117,0A27.87,27.87,0,0,0,301.36,391c16.1,0,29.16-.25,29.16-17.75,0-14.15-12.34-26.35-24.11-30.42,12.49-38.8,11.46-83.93-2.17-119.76" fill="none" stroke="#231f20" stroke-width="5"/><path d="M159.39,265.51s-1.27,82.4-3.81,96.34-30.42,45.64,5.07,46.9,43.1-20.28,40.57-30.42-5.07-86.2-5.07-86.2" fill="#fff"/><path d="M163.61,412c-1,0-2,0-3.07-.05h0c-7.14-.27-12.25-1.65-15.85-4.38h0a13.15,13.15,0,0,1-5.08-10.89h0c0-6.48,3.11-13.21,6.13-19.59h0c3-6.3,6.16-12.36,6.73-15.78h0c.57-3.08,1.14-10.91,1.61-20.52h0c.47-9.65.87-21.24,1.19-32.4h0c.63-22.32.95-16.28.95-25.64a51.19,51.19,0,0,1,3.17-17.21s3.16,6.39,3.16,17.31c0,8-.71,29.1-2.14,58.25h0c-.48,9.76-1,17.46-1.71,21.35h0c-1,5.2-4.29,11.13-7.25,17.38h0c-3,6.16-5.56,12.52-5.51,16.85h0c.06,2.7.71,4.34,2.61,5.86h0c1.95,1.53,5.78,2.86,12.21,3.08h0c1,0,1.92.05,2.85.05h0c14,0,22.62-3.83,27.81-8.54h0a20.59,20.59,0,0,0,7.07-14.92h0a12.68,12.68,0,0,0-.35-3.08h0c-.75-3.13-1.33-9.64-1.95-18.3h0c-.59-8.6-1.15-19.07-1.62-29.22h0c-1-20.31-.69-15.6-.69-23.82a60.18,60.18,0,0,1,2.27-15.63s4.07,8.72,4.07,17.75-.55-7.17,0,6.72h0c.58,13.89,1.38,31,2.27,43.76h0c.57,8.46,1.26,15.26,1.77,17.2h0a19,19,0,0,1,.54,4.62h0a26.88,26.88,0,0,1-9.15,19.61h0c-6.55,6-16.92,10.18-32,10.18h-.07Z" fill="#231f20"/><path d="M284.88,265.51s1.27,82.4,3.81,96.34,31.69,45.64-3.81,46.9-44.37-20.28-41.83-30.42,5.07-86.2,5.07-86.2" fill="#fff"/><path d="M249.12,401.64c-6.8-6-9.64-13.6-9.64-19.82h0a17.71,17.71,0,0,1,.49-4.26h0c.52-1.94,1.21-8.74,1.78-17.2h0c.59-8.51,1.15-18.95,1.62-29.08h0c.95-20.26,1.58-17.07,1.58-24.52S248.83,292,248.83,292a48.68,48.68,0,0,1,2.46,15c0,8.19-1.43,28.06-3.22,53.83h0c-.61,8.66-1.19,15.17-1.95,18.3h0a11.44,11.44,0,0,0-.31,2.72h0c0,4.31,2.05,10.24,7.51,15.07h0c5.46,4.83,14.43,8.73,28.6,8.75h0q1.4,0,2.85-.06h0c6.26-.2,10-1.48,11.9-2.93h0c1.85-1.45,2.45-2.94,2.51-5.48h0c.07-4.27-2.69-10.74-5.9-17h0c-3.17-6.37-6.68-12.41-7.71-17.74h0c-.7-3.89-1.23-11.59-1.71-21.35h0c-.48-9.72-.88-21.34-1.19-32.53h0c-.64-22.37-1-24.82-1-32.75a120.75,120.75,0,0,1,1.22-15.9s5.12,9,5.12,15.9.18,1.24.53,16.45h0c.36,15.21.89,34,1.61,48.52h0c.46,9.61,1,17.44,1.61,20.52h0c.56,3.42,3.88,9.63,7.14,16h0c3.23,6.5,6.51,13.3,6.58,19.87h0a12.65,12.65,0,0,1-5,10.56h0c-3.54,2.62-8.52,3.93-15.48,4.19h0c-1,0-2.07.06-3.07.06h0c-15.3,0-26-4.32-32.76-10.34Z" fill="#231f20"/><path d="M238.31,222.53c68.86,12.62,131.6-14.84,140.12-61.35,6.89-37.58-25.3-67.57-74.26-84.36C291,30.21,261.18,2.5,217.57,2.5s-79,29.46-79,65.81" fill="none" stroke="#231f20" stroke-width="5"/><path d="M382,125.81c2.11,12.38-8.71,24.56-24.17,27.2s-29.71-5.26-31.82-17.64,8.71-24.55,24.17-27.19S379.89,113.43,382,125.81Z" fill="#231f20" stroke="#231f20" stroke-width="4"/><path d="M207.86,122c27.71,73.42-14.68,95.6-49.87,95.6-65.12,0-87.86-48.38-63.72-94.91,29.09-56.11,28.52-94.9,63.72-94.9S189.37,73,207.86,122Z" fill="#a97f2c"/><path d="M207.86,122c27.71,73.42-14.68,95.6-49.87,95.6-65.12,0-87.86-48.38-63.72-94.91,29.09-56.11,28.52-94.9,63.72-94.9S189.37,73,207.86,122Z" fill="none" stroke="#000" stroke-width="5"/><path d="M370.43,112.35c1.19,3.13-6.07,8.79-16.22,12.64s-19.34,4.42-20.53,1.28,6.08-8.79,16.22-12.64S369.24,109.21,370.43,112.35Z" fill="#fff"/><ellipse cx="221.83" cy="72.33" rx="14.85" ry="10.11" fill="#231f20" stroke="#231f20" stroke-width="4"/><path d="M301.07,62.15c0,5.93-3.38,10.75-11.51,10.75s-14.72-4.82-14.72-10.75,6.59-10.75,14.72-10.75S301.07,56.21,301.07,62.15Z" fill="#231f20"/><path d="M220.86,67.85c0,2.09-2.1,3.78-4.69,3.78s-4.7-1.69-4.7-3.78,2.1-3.79,4.7-3.79S220.86,65.76,220.86,67.85Z" fill="#fff"/><path d="M287.5,59.45a4,4,0,1,1-4-3.44A3.74,3.74,0,0,1,287.5,59.45Z" fill="#fff"/><path d="M282,211.06c41.92,13,94.09-.14,95.92-52.91,0,0,1-11.31-1.8-5.88-12.67,24.51-42.28,35.57-89.31,41.53-6.63.84-20.78.95-21.65,7.19C264.72,204.32,269,207,282,211.06Z" fill="#231f20"/><path d="M364.91,175.64c19.25,12.82,14.09,41.42-3.49,44.94-19.65,3.95-20.34-22.67-37-25.85,0,0,16.74-3.48,25.78-8.22A59.41,59.41,0,0,0,364.91,175.64Z" fill="#f26322" stroke="#231f20" stroke-width="5"/><path d="M352.22,188.59s13.66,7.49,15,26.41c0,0-3.69-11.35-6.7-15.37Z" fill="#a74624"/><path d="M205.15,147.73s13.31,66.55-68.45,55.14c0,0,30.42-15.21,41.83-24.72S205.15,147.73,205.15,147.73Z" fill="#886327"/><path d="M34.59,376.63a2.41,2.41,0,1,1,3.52,3.3l-4.4,4.69a6.23,6.23,0,0,1,5.77,1.6c2.9,2.71,3.51,7.58-.4,11.76l0,0c-3.92,4.18-8.77,3.92-11.71,1.17a6.51,6.51,0,0,1-2.12-5.5l0,0a2.42,2.42,0,1,1-3.5-3.33Zm.92,18.1,0-.05c2-2.08,1.85-4.76.21-6.3s-4.3-1.44-6.25.63l-.05.05c-1.94,2.08-1.87,4.74-.22,6.28S33.54,396.83,35.51,394.73Z" fill="#a97f2c"/><path d="M43,412.58a8.54,8.54,0,0,1-1.54-12.46l0-.05c3-3.86,8.22-4.9,12.12-1.85A8.08,8.08,0,0,1,55,409.77a2.2,2.2,0,0,1-3.21.45l-7.53-5.88a4,4,0,0,0,1.2,5.21,5.58,5.58,0,0,0,3.41,1.2,1.79,1.79,0,0,1,1.17.42,1.86,1.86,0,0,1,.29,2.67,1.94,1.94,0,0,1-1.39.74A8.75,8.75,0,0,1,43,412.58Zm8.8-6.2c1.11-1.89,1-3.83-.58-5.08s-3.49-.9-5.15.6Z" fill="#a97f2c"/><path d="M55.06,415.11l0-.05c2.06-3.13,5.37-3,8.73-.8a11.89,11.89,0,0,1,3.09,2.88l.16-.24c1.11-1.69.69-3.3-1.33-4.63a10.91,10.91,0,0,0-3-1.43,2.26,2.26,0,0,1-.66-.28,2,2,0,0,1-.57-2.76,2,2,0,0,1,2.12-.86,14.84,14.84,0,0,1,5,2.24c2.2,1.45,3.4,3.09,3.74,4.77a7.53,7.53,0,0,1-1.48,5.58l-4.29,6.52a2.33,2.33,0,0,1-3.25.65,2.16,2.16,0,0,1-.83-2.95l0,0a6.52,6.52,0,0,1-5.49-1C54.37,420.94,53.19,417.94,55.06,415.11Zm9.87,5.16.47-.72a7.41,7.41,0,0,0-2.21-2.23c-1.73-1.13-3.25-1.14-4.09.14l0,.06c-.72,1.09-.24,2.33,1.06,3.18C62,421.94,64,421.74,64.93,420.27Z" fill="#a97f2c"/><path d="M69.26,434.79a2,2,0,0,1,2.38-3.11,1.92,1.92,0,0,1,.62.52,11,11,0,0,0,3.64,3.15c2.89,1.58,5,.92,6.5-1.78l.4-.73a6.64,6.64,0,0,1-6.22-.21c-3.48-1.9-5.24-6.18-2.8-10.64l0-.06c2.45-4.49,7-5.28,10.46-3.4a6.83,6.83,0,0,1,3.6,4.87l0,0a2.41,2.41,0,1,1,4.22,2.34l-5.29,9.69c-1.47,2.7-3.18,4.32-5.12,4.9-2.16.64-4.65.09-7.55-1.49A16.14,16.14,0,0,1,69.26,434.79Zm16-6.53,0-.05a4.15,4.15,0,0,0-7.27-4l0,.06a3.9,3.9,0,0,0,1.72,5.46A4,4,0,0,0,85.29,428.26Z" fill="#a97f2c"/><path d="M98.83,421.93a2.41,2.41,0,1,1,4.37,2l-8,17.12a2.41,2.41,0,1,1-4.37-2Z" fill="#a97f2c"/><path d="M106.45,448.68a8.53,8.53,0,0,1-5-11.51l0-.06c1.81-4.55,6.51-7,11.12-5.2a8.08,8.08,0,0,1,4.56,10.7,2.22,2.22,0,0,1-3,1.34l-8.88-3.53a4,4,0,0,0,2.63,4.66,5.55,5.55,0,0,0,3.61.19,1.76,1.76,0,0,1,1.23.08,1.85,1.85,0,0,1,1,2.47,1.92,1.92,0,0,1-1.13,1.11A8.72,8.72,0,0,1,106.45,448.68Zm6.69-8.43c.54-2.12-.1-4-2-4.71s-3.61.12-4.77,2Z" fill="#a97f2c"/><path d="M124.46,432.58a2.42,2.42,0,1,1,4.62,1.41l-1.88,6.15a6.25,6.25,0,0,1,5.88-1.11c3.8,1.16,6.49,5.26,4.82,10.74l0,.06c-1.67,5.48-6.14,7.39-10,6.21a6.51,6.51,0,0,1-4.32-4v0a2.41,2.41,0,1,1-4.61-1.44Zm8.81,15.84v-.06c.84-2.72-.43-5.09-2.59-5.75s-4.5.6-5.33,3.33l0,.06c-.83,2.72.41,5.07,2.56,5.73S132.42,451.17,133.27,448.42Z" fill="#a97f2c"/><path d="M140.94,450.69l0-.06a9.21,9.21,0,0,1,18,3.85v.06a9.21,9.21,0,0,1-18-3.85Zm13.34,2.9,0-.06a4.55,4.55,0,0,0-3.37-5.58,4.38,4.38,0,0,0-5.31,3.63v.06a4.54,4.54,0,0,0,3.37,5.58A4.37,4.37,0,0,0,154.28,453.59Z" fill="#a97f2c"/><path d="M161.27,458.58v-.06c.51-3.71,3.55-5,7.54-4.48a12.11,12.11,0,0,1,4,1.26l0-.28c.28-2-.79-3.28-3.18-3.61a11.05,11.05,0,0,0-3.37,0,2,2,0,0,1-.71,0,2,2,0,0,1-1.71-2.24,2,2,0,0,1,1.55-1.69,14.73,14.73,0,0,1,5.5-.14c2.61.36,4.4,1.32,5.43,2.69a7.5,7.5,0,0,1,1.07,5.67l-1.07,7.73a2.32,2.32,0,0,1-2.64,2,2.16,2.16,0,0,1-2-2.31v0a6.51,6.51,0,0,1-5.39,1.45C163.16,464.14,160.81,461.94,161.27,458.58Zm11.13.41.12-.86a7.5,7.5,0,0,0-3-1.05c-2.05-.29-3.42.36-3.63,1.89V459c-.18,1.3.78,2.21,2.33,2.42C170.48,461.76,172.16,460.73,172.4,459Z" fill="#a97f2c"/><path d="M182.21,451.18a2.41,2.41,0,1,1,4.81.37l-.06.77c.83-1.61,2.08-3.05,3.51-2.94a2.21,2.21,0,0,1,2.16,2.54,2.24,2.24,0,0,1-2,2.13c-2.48.38-4,2.16-4.25,5.61l-.35,4.53a2.41,2.41,0,1,1-4.81-.37Z" fill="#a97f2c"/><path d="M211.9,465.07a2.42,2.42,0,1,1-4.83-.07v-.22a6.27,6.27,0,0,1-5.34,2.71c-4-.06-7.7-3.25-7.62-9v-.06c.09-5.73,3.85-8.81,7.88-8.75a6.49,6.49,0,0,1,5.26,2.63l.09-6.2a2.42,2.42,0,1,1,4.83.06Zm-13-6.55v.06c0,2.85,1.83,4.77,4.08,4.8s4.16-1.83,4.2-4.68v-.06c0-2.85-1.8-4.77-4-4.8S199,455.64,199,458.52Z" fill="#a97f2c"/><path d="M225.49,458.23v-.06a8.78,8.78,0,0,1,8-9.74,8.53,8.53,0,0,1,6,1.36,2.18,2.18,0,0,1-1.06,4,2.28,2.28,0,0,1-1.43-.34,4.59,4.59,0,0,0-3.11-.8c-2.4.23-3.9,2.53-3.66,5v.07c.25,2.61,2.13,4.55,4.75,4.3a4.84,4.84,0,0,0,3.05-1.48,2.32,2.32,0,0,1,1.25-.57,2,2,0,0,1,2.22,1.88,2,2,0,0,1-.54,1.59,8.34,8.34,0,0,1-5.8,2.78A8.73,8.73,0,0,1,225.49,458.23Z" fill="#a97f2c"/><path d="M243.44,456.48v-.07a9,9,0,0,1,7.62-10.35,8.87,8.87,0,0,1,10.52,7.21l0,.06a9.22,9.22,0,0,1-18.15,3.15Zm13.46-2.29v-.06a4.54,4.54,0,0,0-5.2-3.92,4.37,4.37,0,0,0-3.57,5.34v.07a4.54,4.54,0,0,0,5.2,3.92A4.38,4.38,0,0,0,256.9,454.19Z" fill="#a97f2c"/><path d="M263.85,446.51a2.41,2.41,0,1,1,4.65-1.28l.05.19a6.05,6.05,0,0,1,4.12-4,5.08,5.08,0,0,1,5.34,1.35,7,7,0,0,1,4.67-4.1c3.46-.95,6.12.58,7.21,4.56l2.36,8.61a2.42,2.42,0,1,1-4.66,1.28l-1.93-7.07c-.61-2.22-1.91-3.09-3.65-2.62s-2.51,1.92-1.9,4.14l1.94,7.07a2.42,2.42,0,1,1-4.66,1.28l-1.93-7.07c-.61-2.23-1.9-3.1-3.65-2.62s-2.5,1.91-1.9,4.14l1.94,7.06a2.42,2.42,0,1,1-4.66,1.28Z" fill="#a97f2c"/><path d="M292.68,438.16a2.41,2.41,0,1,1,4.5-1.74l.08.21a6.24,6.24,0,0,1,3.94-4.51c3.7-1.43,8.35.13,10.42,5.47l0,.06c2.07,5.34-.26,9.61-4,11.06a6.52,6.52,0,0,1-5.87-.47L303.6,453a2.41,2.41,0,1,1-4.5,1.74Zm14.46,1.23,0-.06c-1-2.65-3.49-3.73-5.59-2.91s-3.16,3.25-2.14,5.9l0,.06c1,2.66,3.45,3.74,5.55,2.93S308.18,442.08,307.14,439.39Z" fill="#a97f2c"/><path d="M315.94,439.69l0-.06c-1.63-3.37.16-6.15,3.79-7.91a12.07,12.07,0,0,1,4.05-1.17l-.13-.26c-.87-1.81-2.47-2.28-4.65-1.24a11.09,11.09,0,0,0-2.79,1.89,2,2,0,0,1-.57.42,2,2,0,0,1-2.66-.92,2,2,0,0,1,.35-2.27,14.77,14.77,0,0,1,4.49-3.16c2.38-1.15,4.4-1.35,6-.78a7.53,7.53,0,0,1,4,4.13l3.4,7a2.32,2.32,0,0,1-1.1,3.12,2.17,2.17,0,0,1-3-.8v0a6.53,6.53,0,0,1-3.68,4.19C320.59,443.27,317.41,442.74,315.94,439.69Zm9.48-5.83-.37-.77a7.36,7.36,0,0,0-3.05.76c-1.86.9-2.64,2.2-2,3.58l0,.06c.57,1.18,1.88,1.4,3.28.72C325.36,437.23,326.19,435.45,325.42,433.86Z" fill="#a97f2c"/><path d="M334.75,430.35l-4-7.08-.14.08a2.08,2.08,0,0,1-2-3.62l.13-.08-1.05-1.86a2.41,2.41,0,1,1,4.2-2.38l1.06,1.87,1.85-1a2.08,2.08,0,0,1,2,3.62l-1.85,1,3.61,6.38a1.4,1.4,0,0,0,2.17.68c.14-.08.4-.26.48-.31a2,2,0,0,1,2.73.77,2,2,0,0,1-.17,2.2,7.05,7.05,0,0,1-2.17,1.77C339,433.85,336.7,433.8,334.75,430.35Z" fill="#a97f2c"/><path d="M337,410.08c-.75-1.19-.21-2.55,1.07-3.36s2.75-.71,3.5.49l0,.05a2.73,2.73,0,0,1-4.56,2.87Zm3.62,5.21a2.41,2.41,0,1,1,4.08-2.57l6.75,10.73A2.41,2.41,0,1,1,347.4,426Z" fill="#a97f2c"/><path d="M344.9,405.36a2.41,2.41,0,1,1,3.9-2.83l3.78,5.21a6.24,6.24,0,0,1,2.66-5.37c3.21-2.33,8.11-2,11.47,2.63l0,.06c3.36,4.63,2.2,9.35-1.07,11.72a6.52,6.52,0,0,1-5.79,1v0a2.41,2.41,0,1,1-3.92,2.81Zm18,2.53,0-.05c-1.68-2.31-4.33-2.72-6.15-1.4s-2.23,3.95-.56,6.26l0,.05c1.68,2.31,4.3,2.74,6.13,1.41S364.53,410.22,362.85,407.89Z" fill="#a97f2c"/><path d="M361.81,392.69a2.41,2.41,0,1,1,3.71-3.09l12.08,14.52a2.41,2.41,0,1,1-3.72,3.08Z" fill="#a97f2c"/><path d="M389.32,397.1a8.54,8.54,0,0,1-12.55-.34l0,0c-3.37-3.56-3.62-8.87,0-12.27a8.07,8.07,0,0,1,11.62.37,2.2,2.2,0,0,1,0,3.24l-6.95,6.57a4,4,0,0,0,5.34-.42,5.52,5.52,0,0,0,1.7-3.19,1.78,1.78,0,0,1,.59-1.09,1.85,1.85,0,0,1,2.68.11,1.94,1.94,0,0,1,.53,1.49A8.85,8.85,0,0,1,389.32,397.1Zm-4.82-9.63c-1.7-1.39-3.63-1.58-5.11-.19s-1.41,3.32-.17,5.19Z" fill="#a97f2c"/><path d="M34.59,376.63a2.41,2.41,0,1,1,3.52,3.3l-4.4,4.69a6.23,6.23,0,0,1,5.77,1.6c2.9,2.71,3.51,7.58-.4,11.76l0,0c-3.92,4.18-8.77,3.92-11.71,1.17a6.51,6.51,0,0,1-2.12-5.5l0,0a2.42,2.42,0,1,1-3.5-3.33Zm.92,18.1,0-.05c2-2.08,1.85-4.76.21-6.3s-4.3-1.44-6.25.63l-.05.05c-1.94,2.08-1.87,4.74-.22,6.28S33.54,396.83,35.51,394.73Z" fill="#231f20"/><path d="M43,412.58a8.54,8.54,0,0,1-1.54-12.46l0-.05c3-3.86,8.22-4.9,12.12-1.85A8.08,8.08,0,0,1,55,409.77a2.2,2.2,0,0,1-3.21.45l-7.53-5.88a4,4,0,0,0,1.2,5.21,5.58,5.58,0,0,0,3.41,1.2,1.79,1.79,0,0,1,1.17.42,1.86,1.86,0,0,1,.29,2.67,1.94,1.94,0,0,1-1.39.74A8.75,8.75,0,0,1,43,412.58Zm8.8-6.2c1.11-1.89,1-3.83-.58-5.08s-3.49-.9-5.15.6Z" fill="#231f20"/><path d="M55.06,415.11l0-.05c2.06-3.13,5.37-3,8.73-.8a11.89,11.89,0,0,1,3.09,2.88l.16-.24c1.11-1.69.69-3.3-1.33-4.63a10.91,10.91,0,0,0-3-1.43,2.26,2.26,0,0,1-.66-.28,2,2,0,0,1-.57-2.76,2,2,0,0,1,2.12-.86,14.84,14.84,0,0,1,5,2.24c2.2,1.45,3.4,3.09,3.74,4.77a7.53,7.53,0,0,1-1.48,5.58l-4.29,6.52a2.33,2.33,0,0,1-3.25.65,2.16,2.16,0,0,1-.83-2.95l0,0a6.52,6.52,0,0,1-5.49-1C54.37,420.94,53.19,417.94,55.06,415.11Zm9.87,5.16.47-.72a7.41,7.41,0,0,0-2.21-2.23c-1.73-1.13-3.25-1.14-4.09.14l0,.06c-.72,1.09-.24,2.33,1.06,3.18C62,421.94,64,421.74,64.93,420.27Z" fill="#231f20"/><path d="M69.26,434.79a2,2,0,0,1,2.38-3.11,1.92,1.92,0,0,1,.62.52,11,11,0,0,0,3.64,3.15c2.89,1.58,5,.92,6.5-1.78l.4-.73a6.64,6.64,0,0,1-6.22-.21c-3.48-1.9-5.24-6.18-2.8-10.64l0-.06c2.45-4.49,7-5.28,10.46-3.4a6.83,6.83,0,0,1,3.6,4.87l0,0a2.41,2.41,0,1,1,4.22,2.34l-5.29,9.69c-1.47,2.7-3.18,4.32-5.12,4.9-2.16.64-4.65.09-7.55-1.49A16.14,16.14,0,0,1,69.26,434.79Zm16-6.53,0-.05a4.15,4.15,0,0,0-7.27-4l0,.06a3.9,3.9,0,0,0,1.72,5.46A4,4,0,0,0,85.29,428.26Z" fill="#231f20"/><path d="M98.83,421.93a2.41,2.41,0,1,1,4.37,2l-8,17.12a2.41,2.41,0,1,1-4.37-2Z" fill="#231f20"/><path d="M106.45,448.68a8.53,8.53,0,0,1-5-11.51l0-.06c1.81-4.55,6.51-7,11.12-5.2a8.08,8.08,0,0,1,4.56,10.7,2.22,2.22,0,0,1-3,1.34l-8.88-3.53a4,4,0,0,0,2.63,4.66,5.55,5.55,0,0,0,3.61.19,1.76,1.76,0,0,1,1.23.08,1.85,1.85,0,0,1,1,2.47,1.92,1.92,0,0,1-1.13,1.11A8.72,8.72,0,0,1,106.45,448.68Zm6.69-8.43c.54-2.12-.1-4-2-4.71s-3.61.12-4.77,2Z" fill="#231f20"/><path d="M124.46,432.58a2.42,2.42,0,1,1,4.62,1.41l-1.88,6.15a6.25,6.25,0,0,1,5.88-1.11c3.8,1.16,6.49,5.26,4.82,10.74l0,.06c-1.67,5.48-6.14,7.39-10,6.21a6.51,6.51,0,0,1-4.32-4v0a2.41,2.41,0,1,1-4.61-1.44Zm8.81,15.84v-.06c.84-2.72-.43-5.09-2.59-5.75s-4.5.6-5.33,3.33l0,.06c-.83,2.72.41,5.07,2.56,5.73S132.42,451.17,133.27,448.42Z" fill="#231f20"/><path d="M140.94,450.69l0-.06a9.21,9.21,0,0,1,18,3.85v.06a9.21,9.21,0,0,1-18-3.85Zm13.34,2.9,0-.06a4.55,4.55,0,0,0-3.37-5.58,4.38,4.38,0,0,0-5.31,3.63v.06a4.54,4.54,0,0,0,3.37,5.58A4.37,4.37,0,0,0,154.28,453.59Z" fill="#231f20"/><path d="M161.27,458.58v-.06c.51-3.71,3.55-5,7.54-4.48a12.11,12.11,0,0,1,4,1.26l0-.28c.28-2-.79-3.28-3.18-3.61a11.05,11.05,0,0,0-3.37,0,2,2,0,0,1-.71,0,2,2,0,0,1-1.71-2.24,2,2,0,0,1,1.55-1.69,14.73,14.73,0,0,1,5.5-.14c2.61.36,4.4,1.32,5.43,2.69a7.5,7.5,0,0,1,1.07,5.67l-1.07,7.73a2.32,2.32,0,0,1-2.64,2,2.16,2.16,0,0,1-2-2.31v0a6.51,6.51,0,0,1-5.39,1.45C163.16,464.14,160.81,461.94,161.27,458.58Zm11.13.41.12-.86a7.5,7.5,0,0,0-3-1.05c-2.05-.29-3.42.36-3.63,1.89V459c-.18,1.3.78,2.21,2.33,2.42C170.48,461.76,172.16,460.73,172.4,459Z" fill="#231f20"/><path d="M182.21,451.18a2.41,2.41,0,1,1,4.81.37l-.06.77c.83-1.61,2.08-3.05,3.51-2.94a2.21,2.21,0,0,1,2.16,2.54,2.24,2.24,0,0,1-2,2.13c-2.48.38-4,2.16-4.25,5.61l-.35,4.53a2.41,2.41,0,1,1-4.81-.37Z" fill="#231f20"/><path d="M211.9,465.07a2.42,2.42,0,1,1-4.83-.07v-.22a6.27,6.27,0,0,1-5.34,2.71c-4-.06-7.7-3.25-7.62-9v-.06c.09-5.73,3.85-8.81,7.88-8.75a6.49,6.49,0,0,1,5.26,2.63l.09-6.2a2.42,2.42,0,1,1,4.83.06Zm-13-6.55v.06c0,2.85,1.83,4.77,4.08,4.8s4.16-1.83,4.2-4.68v-.06c0-2.85-1.8-4.77-4-4.8S199,455.64,199,458.52Z" fill="#231f20"/><path d="M225.49,458.23v-.06a8.78,8.78,0,0,1,8-9.74,8.53,8.53,0,0,1,6,1.36,2.18,2.18,0,0,1-1.06,4,2.28,2.28,0,0,1-1.43-.34,4.59,4.59,0,0,0-3.11-.8c-2.4.23-3.9,2.53-3.66,5v.07c.25,2.61,2.13,4.55,4.75,4.3a4.84,4.84,0,0,0,3.05-1.48,2.32,2.32,0,0,1,1.25-.57,2,2,0,0,1,2.22,1.88,2,2,0,0,1-.54,1.59,8.34,8.34,0,0,1-5.8,2.78A8.73,8.73,0,0,1,225.49,458.23Z" fill="#231f20"/><path d="M243.44,456.48v-.07a9,9,0,0,1,7.62-10.35,8.87,8.87,0,0,1,10.52,7.21l0,.06a9.22,9.22,0,0,1-18.15,3.15Zm13.46-2.29v-.06a4.54,4.54,0,0,0-5.2-3.92,4.37,4.37,0,0,0-3.57,5.34v.07a4.54,4.54,0,0,0,5.2,3.92A4.38,4.38,0,0,0,256.9,454.19Z" fill="#231f20"/><path d="M263.85,446.51a2.41,2.41,0,1,1,4.65-1.28l.05.19a6.05,6.05,0,0,1,4.12-4,5.08,5.08,0,0,1,5.34,1.35,7,7,0,0,1,4.67-4.1c3.46-.95,6.12.58,7.21,4.56l2.36,8.61a2.42,2.42,0,1,1-4.66,1.28l-1.93-7.07c-.61-2.22-1.91-3.09-3.65-2.62s-2.51,1.92-1.9,4.14l1.94,7.07a2.42,2.42,0,1,1-4.66,1.28l-1.93-7.07c-.61-2.23-1.9-3.1-3.65-2.62s-2.5,1.91-1.9,4.14l1.94,7.06a2.42,2.42,0,1,1-4.66,1.28Z" fill="#231f20"/><path d="M292.68,438.16a2.41,2.41,0,1,1,4.5-1.74l.08.21a6.24,6.24,0,0,1,3.94-4.51c3.7-1.43,8.35.13,10.42,5.47l0,.06c2.07,5.34-.26,9.61-4,11.06a6.52,6.52,0,0,1-5.87-.47L303.6,453a2.41,2.41,0,1,1-4.5,1.74Zm14.46,1.23,0-.06c-1-2.65-3.49-3.73-5.59-2.91s-3.16,3.25-2.14,5.9l0,.06c1,2.66,3.45,3.74,5.55,2.93S308.18,442.08,307.14,439.39Z" fill="#231f20"/><path d="M315.94,439.69l0-.06c-1.63-3.37.16-6.15,3.79-7.91a12.07,12.07,0,0,1,4.05-1.17l-.13-.26c-.87-1.81-2.47-2.28-4.65-1.24a11.09,11.09,0,0,0-2.79,1.89,2,2,0,0,1-.57.42,2,2,0,0,1-2.66-.92,2,2,0,0,1,.35-2.27,14.77,14.77,0,0,1,4.49-3.16c2.38-1.15,4.4-1.35,6-.78a7.53,7.53,0,0,1,4,4.13l3.4,7a2.32,2.32,0,0,1-1.1,3.12,2.17,2.17,0,0,1-3-.8v0a6.53,6.53,0,0,1-3.68,4.19C320.59,443.27,317.41,442.74,315.94,439.69Zm9.48-5.83-.37-.77a7.36,7.36,0,0,0-3.05.76c-1.86.9-2.64,2.2-2,3.58l0,.06c.57,1.18,1.88,1.4,3.28.72C325.36,437.23,326.19,435.45,325.42,433.86Z" fill="#231f20"/><path d="M334.75,430.35l-4-7.08-.14.08a2.08,2.08,0,0,1-2-3.62l.13-.08-1.05-1.86a2.41,2.41,0,1,1,4.2-2.38l1.06,1.87,1.85-1a2.08,2.08,0,0,1,2,3.62l-1.85,1,3.61,6.38a1.4,1.4,0,0,0,2.17.68c.14-.08.4-.26.48-.31a2,2,0,0,1,2.73.77,2,2,0,0,1-.17,2.2,7.05,7.05,0,0,1-2.17,1.77C339,433.85,336.7,433.8,334.75,430.35Z" fill="#231f20"/><path d="M337,410.08c-.75-1.19-.21-2.55,1.07-3.36s2.75-.71,3.5.49l0,.05a2.73,2.73,0,0,1-4.56,2.87Zm3.62,5.21a2.41,2.41,0,1,1,4.08-2.57l6.75,10.73A2.41,2.41,0,1,1,347.4,426Z" fill="#231f20"/><path d="M344.9,405.36a2.41,2.41,0,1,1,3.9-2.83l3.78,5.21a6.24,6.24,0,0,1,2.66-5.37c3.21-2.33,8.11-2,11.47,2.63l0,.06c3.36,4.63,2.2,9.35-1.07,11.72a6.52,6.52,0,0,1-5.79,1v0a2.41,2.41,0,1,1-3.92,2.81Zm18,2.53,0-.05c-1.68-2.31-4.33-2.72-6.15-1.4s-2.23,3.95-.56,6.26l0,.05c1.68,2.31,4.3,2.74,6.13,1.41S364.53,410.22,362.85,407.89Z" fill="#231f20"/><path d="M361.81,392.69a2.41,2.41,0,1,1,3.71-3.09l12.08,14.52a2.41,2.41,0,1,1-3.72,3.08Z" fill="#231f20"/><path d="M389.32,397.1a8.54,8.54,0,0,1-12.55-.34l0,0c-3.37-3.56-3.62-8.87,0-12.27a8.07,8.07,0,0,1,11.62.37,2.2,2.2,0,0,1,0,3.24l-6.95,6.57a4,4,0,0,0,5.34-.42,5.52,5.52,0,0,0,1.7-3.19,1.78,1.78,0,0,1,.59-1.09,1.85,1.85,0,0,1,2.68.11,1.94,1.94,0,0,1,.53,1.49A8.85,8.85,0,0,1,389.32,397.1Zm-4.82-9.63c-1.7-1.39-3.63-1.58-5.11-.19s-1.41,3.32-.17,5.19Z" fill="#231f20"/><path d="M34.59,376.63a2.41,2.41,0,1,1,3.52,3.3l-4.4,4.69a6.23,6.23,0,0,1,5.77,1.6c2.9,2.71,3.51,7.58-.4,11.76l0,0c-3.92,4.18-8.77,3.92-11.71,1.17a6.51,6.51,0,0,1-2.12-5.5l0,0a2.42,2.42,0,1,1-3.5-3.33Zm.92,18.1,0-.05c2-2.08,1.85-4.76.21-6.3s-4.3-1.44-6.25.63l-.05.05c-1.94,2.08-1.87,4.74-.22,6.28S33.54,396.83,35.51,394.73Z" fill="none" stroke="#231f20" stroke-width="6"/><path d="M43,412.58a8.54,8.54,0,0,1-1.54-12.46l0-.05c3-3.86,8.22-4.9,12.12-1.85A8.08,8.08,0,0,1,55,409.77a2.2,2.2,0,0,1-3.21.45l-7.53-5.88a4,4,0,0,0,1.2,5.21,5.58,5.58,0,0,0,3.41,1.2,1.79,1.79,0,0,1,1.17.42,1.86,1.86,0,0,1,.29,2.67,1.94,1.94,0,0,1-1.39.74A8.75,8.75,0,0,1,43,412.58Zm8.8-6.2c1.11-1.89,1-3.83-.58-5.08s-3.49-.9-5.15.6Z" fill="none" stroke="#231f20" stroke-width="6"/><path d="M55.06,415.11l0-.05c2.06-3.13,5.37-3,8.73-.8a11.89,11.89,0,0,1,3.09,2.88l.16-.24c1.11-1.69.69-3.3-1.33-4.63a10.91,10.91,0,0,0-3-1.43,2.26,2.26,0,0,1-.66-.28,2,2,0,0,1-.57-2.76,2,2,0,0,1,2.12-.86,14.84,14.84,0,0,1,5,2.24c2.2,1.45,3.4,3.09,3.74,4.77a7.53,7.53,0,0,1-1.48,5.58l-4.29,6.52a2.33,2.33,0,0,1-3.25.65,2.16,2.16,0,0,1-.83-2.95l0,0a6.52,6.52,0,0,1-5.49-1C54.37,420.94,53.19,417.94,55.06,415.11Zm9.87,5.16.47-.72a7.41,7.41,0,0,0-2.21-2.23c-1.73-1.13-3.25-1.14-4.09.14l0,.06c-.72,1.09-.24,2.33,1.06,3.18C62,421.94,64,421.74,64.93,420.27Z" fill="none" stroke="#231f20" stroke-width="6"/><path d="M69.26,434.79a2,2,0,0,1,2.38-3.11,1.92,1.92,0,0,1,.62.52,11,11,0,0,0,3.64,3.15c2.89,1.58,5,.92,6.5-1.78l.4-.73a6.64,6.64,0,0,1-6.22-.21c-3.48-1.9-5.24-6.18-2.8-10.64l0-.06c2.45-4.49,7-5.28,10.46-3.4a6.83,6.83,0,0,1,3.6,4.87l0,0a2.41,2.41,0,1,1,4.22,2.34l-5.29,9.69c-1.47,2.7-3.18,4.32-5.12,4.9-2.16.64-4.65.09-7.55-1.49A16.14,16.14,0,0,1,69.26,434.79Zm16-6.53,0-.05a4.15,4.15,0,0,0-7.27-4l0,.06a3.9,3.9,0,0,0,1.72,5.46A4,4,0,0,0,85.29,428.26Z" fill="none" stroke="#231f20" stroke-width="6"/><path d="M98.83,421.93a2.41,2.41,0,1,1,4.37,2l-8,17.12a2.41,2.41,0,1,1-4.37-2Z" fill="none" stroke="#231f20" stroke-width="6"/><path d="M106.45,448.68a8.53,8.53,0,0,1-5-11.51l0-.06c1.81-4.55,6.51-7,11.12-5.2a8.08,8.08,0,0,1,4.56,10.7,2.22,2.22,0,0,1-3,1.34l-8.88-3.53a4,4,0,0,0,2.63,4.66,5.55,5.55,0,0,0,3.61.19,1.76,1.76,0,0,1,1.23.08,1.85,1.85,0,0,1,1,2.47,1.92,1.92,0,0,1-1.13,1.11A8.72,8.72,0,0,1,106.45,448.68Zm6.69-8.43c.54-2.12-.1-4-2-4.71s-3.61.12-4.77,2Z" fill="none" stroke="#231f20" stroke-width="6"/><path d="M124.46,432.58a2.42,2.42,0,1,1,4.62,1.41l-1.88,6.15a6.25,6.25,0,0,1,5.88-1.11c3.8,1.16,6.49,5.26,4.82,10.74l0,.06c-1.67,5.48-6.14,7.39-10,6.21a6.51,6.51,0,0,1-4.32-4v0a2.41,2.41,0,1,1-4.61-1.44Zm8.81,15.84v-.06c.84-2.72-.43-5.09-2.59-5.75s-4.5.6-5.33,3.33l0,.06c-.83,2.72.41,5.07,2.56,5.73S132.42,451.17,133.27,448.42Z" fill="none" stroke="#231f20" stroke-width="6"/><path d="M140.94,450.69l0-.06a9.21,9.21,0,0,1,18,3.85v.06a9.21,9.21,0,0,1-18-3.85Zm13.34,2.9,0-.06a4.55,4.55,0,0,0-3.37-5.58,4.38,4.38,0,0,0-5.31,3.63v.06a4.54,4.54,0,0,0,3.37,5.58A4.37,4.37,0,0,0,154.28,453.59Z" fill="none" stroke="#231f20" stroke-width="6"/><path d="M161.27,458.58v-.06c.51-3.71,3.55-5,7.54-4.48a12.11,12.11,0,0,1,4,1.26l0-.28c.28-2-.79-3.28-3.18-3.61a11.05,11.05,0,0,0-3.37,0,2,2,0,0,1-.71,0,2,2,0,0,1-1.71-2.24,2,2,0,0,1,1.55-1.69,14.73,14.73,0,0,1,5.5-.14c2.61.36,4.4,1.32,5.43,2.69a7.5,7.5,0,0,1,1.07,5.67l-1.07,7.73a2.32,2.32,0,0,1-2.64,2,2.16,2.16,0,0,1-2-2.31v0a6.51,6.51,0,0,1-5.39,1.45C163.16,464.14,160.81,461.94,161.27,458.58Zm11.13.41.12-.86a7.5,7.5,0,0,0-3-1.05c-2.05-.29-3.42.36-3.63,1.89V459c-.18,1.3.78,2.21,2.33,2.42C170.48,461.76,172.16,460.73,172.4,459Z" fill="none" stroke="#231f20" stroke-width="6"/><path d="M182.21,451.18a2.41,2.41,0,1,1,4.81.37l-.06.77c.83-1.61,2.08-3.05,3.51-2.94a2.21,2.21,0,0,1,2.16,2.54,2.24,2.24,0,0,1-2,2.13c-2.48.38-4,2.16-4.25,5.61l-.35,4.53a2.41,2.41,0,1,1-4.81-.37Z" fill="none" stroke="#231f20" stroke-width="6"/><path d="M211.9,465.07a2.42,2.42,0,1,1-4.83-.07v-.22a6.27,6.27,0,0,1-5.34,2.71c-4-.06-7.7-3.25-7.62-9v-.06c.09-5.73,3.85-8.81,7.88-8.75a6.49,6.49,0,0,1,5.26,2.63l.09-6.2a2.42,2.42,0,1,1,4.83.06Zm-13-6.55v.06c0,2.85,1.83,4.77,4.08,4.8s4.16-1.83,4.2-4.68v-.06c0-2.85-1.8-4.77-4-4.8S199,455.64,199,458.52Z" fill="none" stroke="#231f20" stroke-width="6"/><path d="M225.49,458.23v-.06a8.78,8.78,0,0,1,8-9.74,8.53,8.53,0,0,1,6,1.36,2.18,2.18,0,0,1-1.06,4,2.28,2.28,0,0,1-1.43-.34,4.59,4.59,0,0,0-3.11-.8c-2.4.23-3.9,2.53-3.66,5v.07c.25,2.61,2.13,4.55,4.75,4.3a4.84,4.84,0,0,0,3.05-1.48,2.32,2.32,0,0,1,1.25-.57,2,2,0,0,1,2.22,1.88,2,2,0,0,1-.54,1.59,8.34,8.34,0,0,1-5.8,2.78A8.73,8.73,0,0,1,225.49,458.23Z" fill="none" stroke="#231f20" stroke-width="6"/><path d="M243.44,456.48v-.07a9,9,0,0,1,7.62-10.35,8.87,8.87,0,0,1,10.52,7.21l0,.06a9.22,9.22,0,0,1-18.15,3.15Zm13.46-2.29v-.06a4.54,4.54,0,0,0-5.2-3.92,4.37,4.37,0,0,0-3.57,5.34v.07a4.54,4.54,0,0,0,5.2,3.92A4.38,4.38,0,0,0,256.9,454.19Z" fill="none" stroke="#231f20" stroke-width="6"/><path d="M263.85,446.51a2.41,2.41,0,1,1,4.65-1.28l.05.19a6.05,6.05,0,0,1,4.12-4,5.08,5.08,0,0,1,5.34,1.35,7,7,0,0,1,4.67-4.1c3.46-.95,6.12.58,7.21,4.56l2.36,8.61a2.42,2.42,0,1,1-4.66,1.28l-1.93-7.07c-.61-2.22-1.91-3.09-3.65-2.62s-2.51,1.92-1.9,4.14l1.94,7.07a2.42,2.42,0,1,1-4.66,1.28l-1.93-7.07c-.61-2.23-1.9-3.1-3.65-2.62s-2.5,1.91-1.9,4.14l1.94,7.06a2.42,2.42,0,1,1-4.66,1.28Z" fill="none" stroke="#231f20" stroke-width="6"/><path d="M292.68,438.16a2.41,2.41,0,1,1,4.5-1.74l.08.21a6.24,6.24,0,0,1,3.94-4.51c3.7-1.43,8.35.13,10.42,5.47l0,.06c2.07,5.34-.26,9.61-4,11.06a6.52,6.52,0,0,1-5.87-.47L303.6,453a2.41,2.41,0,1,1-4.5,1.74Zm14.46,1.23,0-.06c-1-2.65-3.49-3.73-5.59-2.91s-3.16,3.25-2.14,5.9l0,.06c1,2.66,3.45,3.74,5.55,2.93S308.18,442.08,307.14,439.39Z" fill="none" stroke="#231f20" stroke-width="6"/><path d="M315.94,439.69l0-.06c-1.63-3.37.16-6.15,3.79-7.91a12.07,12.07,0,0,1,4.05-1.17l-.13-.26c-.87-1.81-2.47-2.28-4.65-1.24a11.09,11.09,0,0,0-2.79,1.89,2,2,0,0,1-.57.42,2,2,0,0,1-2.66-.92,2,2,0,0,1,.35-2.27,14.77,14.77,0,0,1,4.49-3.16c2.38-1.15,4.4-1.35,6-.78a7.53,7.53,0,0,1,4,4.13l3.4,7a2.32,2.32,0,0,1-1.1,3.12,2.17,2.17,0,0,1-3-.8v0a6.53,6.53,0,0,1-3.68,4.19C320.59,443.27,317.41,442.74,315.94,439.69Zm9.48-5.83-.37-.77a7.36,7.36,0,0,0-3.05.76c-1.86.9-2.64,2.2-2,3.58l0,.06c.57,1.18,1.88,1.4,3.28.72C325.36,437.23,326.19,435.45,325.42,433.86Z" fill="none" stroke="#231f20" stroke-width="6"/><path d="M334.75,430.35l-4-7.08-.14.08a2.08,2.08,0,0,1-2-3.62l.13-.08-1.05-1.86a2.41,2.41,0,1,1,4.2-2.38l1.06,1.87,1.85-1a2.08,2.08,0,0,1,2,3.62l-1.85,1,3.61,6.38a1.4,1.4,0,0,0,2.17.68c.14-.08.4-.26.48-.31a2,2,0,0,1,2.73.77,2,2,0,0,1-.17,2.2,7.05,7.05,0,0,1-2.17,1.77C339,433.85,336.7,433.8,334.75,430.35Z" fill="none" stroke="#231f20" stroke-width="6"/><path d="M337,410.08c-.75-1.19-.21-2.55,1.07-3.36s2.75-.71,3.5.49l0,.05a2.73,2.73,0,0,1-4.56,2.87Zm3.62,5.21a2.41,2.41,0,1,1,4.08-2.57l6.75,10.73A2.41,2.41,0,1,1,347.4,426Z" fill="none" stroke="#231f20" stroke-width="6"/><path d="M344.9,405.36a2.41,2.41,0,1,1,3.9-2.83l3.78,5.21a6.24,6.24,0,0,1,2.66-5.37c3.21-2.33,8.11-2,11.47,2.63l0,.06c3.36,4.63,2.2,9.35-1.07,11.72a6.52,6.52,0,0,1-5.79,1v0a2.41,2.41,0,1,1-3.92,2.81Zm18,2.53,0-.05c-1.68-2.31-4.33-2.72-6.15-1.4s-2.23,3.95-.56,6.26l0,.05c1.68,2.31,4.3,2.74,6.13,1.41S364.53,410.22,362.85,407.89Z" fill="none" stroke="#231f20" stroke-width="6"/><path d="M361.81,392.69a2.41,2.41,0,1,1,3.71-3.09l12.08,14.52a2.41,2.41,0,1,1-3.72,3.08Z" fill="none" stroke="#231f20" stroke-width="6"/><path d="M389.32,397.1a8.54,8.54,0,0,1-12.55-.34l0,0c-3.37-3.56-3.62-8.87,0-12.27a8.07,8.07,0,0,1,11.62.37,2.2,2.2,0,0,1,0,3.24l-6.95,6.57a4,4,0,0,0,5.34-.42,5.52,5.52,0,0,0,1.7-3.19,1.78,1.78,0,0,1,.59-1.09,1.85,1.85,0,0,1,2.68.11,1.94,1.94,0,0,1,.53,1.49A8.85,8.85,0,0,1,389.32,397.1Zm-4.82-9.63c-1.7-1.39-3.63-1.58-5.11-.19s-1.41,3.32-.17,5.19Z" fill="none" stroke="#231f20" stroke-width="6"/><path d="M34.59,376.63a2.41,2.41,0,1,1,3.52,3.3l-4.4,4.69a6.23,6.23,0,0,1,5.77,1.6c2.9,2.71,3.51,7.58-.4,11.76l0,0c-3.92,4.18-8.77,3.92-11.71,1.17a6.51,6.51,0,0,1-2.12-5.5l0,0a2.42,2.42,0,1,1-3.5-3.33Zm.92,18.1,0-.05c2-2.08,1.85-4.76.21-6.3s-4.3-1.44-6.25.63l-.05.05c-1.94,2.08-1.87,4.74-.22,6.28S33.54,396.83,35.51,394.73Z" fill="#a97f2c"/><path d="M43,412.58a8.54,8.54,0,0,1-1.54-12.46l0-.05c3-3.86,8.22-4.9,12.12-1.85A8.08,8.08,0,0,1,55,409.77a2.2,2.2,0,0,1-3.21.45l-7.53-5.88a4,4,0,0,0,1.2,5.21,5.58,5.58,0,0,0,3.41,1.2,1.79,1.79,0,0,1,1.17.42,1.86,1.86,0,0,1,.29,2.67,1.94,1.94,0,0,1-1.39.74A8.75,8.75,0,0,1,43,412.58Zm8.8-6.2c1.11-1.89,1-3.83-.58-5.08s-3.49-.9-5.15.6Z" fill="#a97f2c"/><path d="M55.06,415.11l0-.05c2.06-3.13,5.37-3,8.73-.8a11.89,11.89,0,0,1,3.09,2.88l.16-.24c1.11-1.69.69-3.3-1.33-4.63a10.91,10.91,0,0,0-3-1.43,2.26,2.26,0,0,1-.66-.28,2,2,0,0,1-.57-2.76,2,2,0,0,1,2.12-.86,14.84,14.84,0,0,1,5,2.24c2.2,1.45,3.4,3.09,3.74,4.77a7.53,7.53,0,0,1-1.48,5.58l-4.29,6.52a2.33,2.33,0,0,1-3.25.65,2.16,2.16,0,0,1-.83-2.95l0,0a6.52,6.52,0,0,1-5.49-1C54.37,420.94,53.19,417.94,55.06,415.11Zm9.87,5.16.47-.72a7.41,7.41,0,0,0-2.21-2.23c-1.73-1.13-3.25-1.14-4.09.14l0,.06c-.72,1.09-.24,2.33,1.06,3.18C62,421.94,64,421.74,64.93,420.27Z" fill="#a97f2c"/><path d="M69.26,434.79a2,2,0,0,1,2.38-3.11,1.92,1.92,0,0,1,.62.52,11,11,0,0,0,3.64,3.15c2.89,1.58,5,.92,6.5-1.78l.4-.73a6.64,6.64,0,0,1-6.22-.21c-3.48-1.9-5.24-6.18-2.8-10.64l0-.06c2.45-4.49,7-5.28,10.46-3.4a6.83,6.83,0,0,1,3.6,4.87l0,0a2.41,2.41,0,1,1,4.22,2.34l-5.29,9.69c-1.47,2.7-3.18,4.32-5.12,4.9-2.16.64-4.65.09-7.55-1.49A16.14,16.14,0,0,1,69.26,434.79Zm16-6.53,0-.05a4.15,4.15,0,0,0-7.27-4l0,.06a3.9,3.9,0,0,0,1.72,5.46A4,4,0,0,0,85.29,428.26Z" fill="#a97f2c"/><path d="M98.83,421.93a2.41,2.41,0,1,1,4.37,2l-8,17.12a2.41,2.41,0,1,1-4.37-2Z" fill="#a97f2c"/><path d="M106.45,448.68a8.53,8.53,0,0,1-5-11.51l0-.06c1.81-4.55,6.51-7,11.12-5.2a8.08,8.08,0,0,1,4.56,10.7,2.22,2.22,0,0,1-3,1.34l-8.88-3.53a4,4,0,0,0,2.63,4.66,5.55,5.55,0,0,0,3.61.19,1.76,1.76,0,0,1,1.23.08,1.85,1.85,0,0,1,1,2.47,1.92,1.92,0,0,1-1.13,1.11A8.72,8.72,0,0,1,106.45,448.68Zm6.69-8.43c.54-2.12-.1-4-2-4.71s-3.61.12-4.77,2Z" fill="#a97f2c"/><path d="M124.46,432.58a2.42,2.42,0,1,1,4.62,1.41l-1.88,6.15a6.25,6.25,0,0,1,5.88-1.11c3.8,1.16,6.49,5.26,4.82,10.74l0,.06c-1.67,5.48-6.14,7.39-10,6.21a6.51,6.51,0,0,1-4.32-4v0a2.41,2.41,0,1,1-4.61-1.44Zm8.81,15.84v-.06c.84-2.72-.43-5.09-2.59-5.75s-4.5.6-5.33,3.33l0,.06c-.83,2.72.41,5.07,2.56,5.73S132.42,451.17,133.27,448.42Z" fill="#f26322"/><path d="M140.94,450.69l0-.06a9.21,9.21,0,0,1,18,3.85v.06a9.21,9.21,0,0,1-18-3.85Zm13.34,2.9,0-.06a4.55,4.55,0,0,0-3.37-5.58,4.38,4.38,0,0,0-5.31,3.63v.06a4.54,4.54,0,0,0,3.37,5.58A4.37,4.37,0,0,0,154.28,453.59Z" fill="#f26322"/><path d="M161.27,458.58v-.06c.51-3.71,3.55-5,7.54-4.48a12.11,12.11,0,0,1,4,1.26l0-.28c.28-2-.79-3.28-3.18-3.61a11.05,11.05,0,0,0-3.37,0,2,2,0,0,1-.71,0,2,2,0,0,1-1.71-2.24,2,2,0,0,1,1.55-1.69,14.73,14.73,0,0,1,5.5-.14c2.61.36,4.4,1.32,5.43,2.69a7.5,7.5,0,0,1,1.07,5.67l-1.07,7.73a2.32,2.32,0,0,1-2.64,2,2.16,2.16,0,0,1-2-2.31v0a6.51,6.51,0,0,1-5.39,1.45C163.16,464.14,160.81,461.94,161.27,458.58Zm11.13.41.12-.86a7.5,7.5,0,0,0-3-1.05c-2.05-.29-3.42.36-3.63,1.89V459c-.18,1.3.78,2.21,2.33,2.42C170.48,461.76,172.16,460.73,172.4,459Z" fill="#f26322"/><path d="M182.21,451.18a2.41,2.41,0,1,1,4.81.37l-.06.77c.83-1.61,2.08-3.05,3.51-2.94a2.21,2.21,0,0,1,2.16,2.54,2.24,2.24,0,0,1-2,2.13c-2.48.38-4,2.16-4.25,5.61l-.35,4.53a2.41,2.41,0,1,1-4.81-.37Z" fill="#f26322"/><path d="M211.9,465.07a2.42,2.42,0,1,1-4.83-.07v-.22a6.27,6.27,0,0,1-5.34,2.71c-4-.06-7.7-3.25-7.62-9v-.06c.09-5.73,3.85-8.81,7.88-8.75a6.49,6.49,0,0,1,5.26,2.63l.09-6.2a2.42,2.42,0,1,1,4.83.06Zm-13-6.55v.06c0,2.85,1.83,4.77,4.08,4.8s4.16-1.83,4.2-4.68v-.06c0-2.85-1.8-4.77-4-4.8S199,455.64,199,458.52Z" fill="#f26322"/><path d="M225.49,458.23v-.06a8.78,8.78,0,0,1,8-9.74,8.53,8.53,0,0,1,6,1.36,2.18,2.18,0,0,1-1.06,4,2.28,2.28,0,0,1-1.43-.34,4.59,4.59,0,0,0-3.11-.8c-2.4.23-3.9,2.53-3.66,5v.07c.25,2.61,2.13,4.55,4.75,4.3a4.84,4.84,0,0,0,3.05-1.48,2.32,2.32,0,0,1,1.25-.57,2,2,0,0,1,2.22,1.88,2,2,0,0,1-.54,1.59,8.34,8.34,0,0,1-5.8,2.78A8.73,8.73,0,0,1,225.49,458.23Z" fill="#f26322"/><path d="M243.44,456.48v-.07a9,9,0,0,1,7.62-10.35,8.87,8.87,0,0,1,10.52,7.21l0,.06a9.22,9.22,0,0,1-18.15,3.15Zm13.46-2.29v-.06a4.54,4.54,0,0,0-5.2-3.92,4.37,4.37,0,0,0-3.57,5.34v.07a4.54,4.54,0,0,0,5.2,3.92A4.38,4.38,0,0,0,256.9,454.19Z" fill="#f26322"/><path d="M263.85,446.51a2.41,2.41,0,1,1,4.65-1.28l.05.19a6.05,6.05,0,0,1,4.12-4,5.08,5.08,0,0,1,5.34,1.35,7,7,0,0,1,4.67-4.1c3.46-.95,6.12.58,7.21,4.56l2.36,8.61a2.42,2.42,0,1,1-4.66,1.28l-1.93-7.07c-.61-2.22-1.91-3.09-3.65-2.62s-2.51,1.92-1.9,4.14l1.94,7.07a2.42,2.42,0,1,1-4.66,1.28l-1.93-7.07c-.61-2.23-1.9-3.1-3.65-2.62s-2.5,1.91-1.9,4.14l1.94,7.06a2.42,2.42,0,1,1-4.66,1.28Z" fill="#f26322"/><path d="M292.68,438.16a2.41,2.41,0,1,1,4.5-1.74l.08.21a6.24,6.24,0,0,1,3.94-4.51c3.7-1.43,8.35.13,10.42,5.47l0,.06c2.07,5.34-.26,9.61-4,11.06a6.52,6.52,0,0,1-5.87-.47L303.6,453a2.41,2.41,0,1,1-4.5,1.74Zm14.46,1.23,0-.06c-1-2.65-3.49-3.73-5.59-2.91s-3.16,3.25-2.14,5.9l0,.06c1,2.66,3.45,3.74,5.55,2.93S308.18,442.08,307.14,439.39Z" fill="#f26322"/><path d="M315.94,439.69l0-.06c-1.63-3.37.16-6.15,3.79-7.91a12.07,12.07,0,0,1,4.05-1.17l-.13-.26c-.87-1.81-2.47-2.28-4.65-1.24a11.09,11.09,0,0,0-2.79,1.89,2,2,0,0,1-.57.42,2,2,0,0,1-2.66-.92,2,2,0,0,1,.35-2.27,14.77,14.77,0,0,1,4.49-3.16c2.38-1.15,4.4-1.35,6-.78a7.53,7.53,0,0,1,4,4.13l3.4,7a2.32,2.32,0,0,1-1.1,3.12,2.17,2.17,0,0,1-3-.8v0a6.53,6.53,0,0,1-3.68,4.19C320.59,443.27,317.41,442.74,315.94,439.69Zm9.48-5.83-.37-.77a7.36,7.36,0,0,0-3.05.76c-1.86.9-2.64,2.2-2,3.58l0,.06c.57,1.18,1.88,1.4,3.28.72C325.36,437.23,326.19,435.45,325.42,433.86Z" fill="#f26322"/><path d="M334.75,430.35l-4-7.08-.14.08a2.08,2.08,0,0,1-2-3.62l.13-.08-1.05-1.86a2.41,2.41,0,1,1,4.2-2.38l1.06,1.87,1.85-1a2.08,2.08,0,0,1,2,3.62l-1.85,1,3.61,6.38a1.4,1.4,0,0,0,2.17.68c.14-.08.4-.26.48-.31a2,2,0,0,1,2.73.77,2,2,0,0,1-.17,2.2,7.05,7.05,0,0,1-2.17,1.77C339,433.85,336.7,433.8,334.75,430.35Z" fill="#f26322"/><path d="M337,410.08c-.75-1.19-.21-2.55,1.07-3.36s2.75-.71,3.5.49l0,.05a2.73,2.73,0,0,1-4.56,2.87Zm3.62,5.21a2.41,2.41,0,1,1,4.08-2.57l6.75,10.73A2.41,2.41,0,1,1,347.4,426Z" fill="#f26322"/><path d="M344.9,405.36a2.41,2.41,0,1,1,3.9-2.83l3.78,5.21a6.24,6.24,0,0,1,2.66-5.37c3.21-2.33,8.11-2,11.47,2.63l0,.06c3.36,4.63,2.2,9.35-1.07,11.72a6.52,6.52,0,0,1-5.79,1v0a2.41,2.41,0,1,1-3.92,2.81Zm18,2.53,0-.05c-1.68-2.31-4.33-2.72-6.15-1.4s-2.23,3.95-.56,6.26l0,.05c1.68,2.31,4.3,2.74,6.13,1.41S364.53,410.22,362.85,407.89Z" fill="#f26322"/><path d="M361.81,392.69a2.41,2.41,0,1,1,3.71-3.09l12.08,14.52a2.41,2.41,0,1,1-3.72,3.08Z" fill="#f26322"/><path d="M389.32,397.1a8.54,8.54,0,0,1-12.55-.34l0,0c-3.37-3.56-3.62-8.87,0-12.27a8.07,8.07,0,0,1,11.62.37,2.2,2.2,0,0,1,0,3.24l-6.95,6.57a4,4,0,0,0,5.34-.42,5.52,5.52,0,0,0,1.7-3.19,1.78,1.78,0,0,1,.59-1.09,1.85,1.85,0,0,1,2.68.11,1.94,1.94,0,0,1,.53,1.49A8.85,8.85,0,0,1,389.32,397.1Zm-4.82-9.63c-1.7-1.39-3.63-1.58-5.11-.19s-1.41,3.32-.17,5.19Z" fill="#f26322"/></svg>