<svg xmlns="http://www.w3.org/2000/svg" viewBox="0 0 61 61"><path d="M54.5,33.5a14.82,14.82,0,0,0-9-3,15,15,0,0,0-15,15,14.82,14.82,0,0,0,3,9H3.5a3,3,0,0,1-3-3V3.5a3,3,0,0,1,3-3H41.27a3,3,0,0,1,2.1.87L53.63,11.63a3,3,0,0,1,.87,2.1Z" fill="#f26322" stroke="#221b38" stroke-linecap="round" stroke-linejoin="round"/><path d="M30.8,42.5H12.5" fill="none" stroke="#221b38" stroke-linecap="round" stroke-linejoin="round" stroke-width="2"/><path d="M12.5,27.5h30" fill="none" stroke="#221b38" stroke-linecap="round" stroke-linejoin="round" stroke-width="2"/><path d="M12.5,12.5h15" fill="none" stroke="#221b38" stroke-linecap="round" stroke-linejoin="round" stroke-width="2"/><path d="M45.5,60.5a15,15,0,1,0-15-15A15,15,0,0,0,45.5,60.5Z" fill="#aa5137" stroke="#221b38" stroke-linecap="round" stroke-linejoin="round"/><path d="M38.3,43.55,43.7,49l9-9" fill="none" stroke="#221b38" stroke-miterlimit="10" stroke-width="2"/><path d="M39.5.5v15h15V13.73a3,3,0,0,0-.87-2.1L43.37,1.37A3,3,0,0,0,41.27.5Z" fill="#aa5137" stroke="#221b38" stroke-linecap="round" stroke-linejoin="round"/></svg>