<svg xmlns="http://www.w3.org/2000/svg" viewBox="0 0 42 42"><circle cx="21" cy="21" r="20" fill="#0e1131"/><path d="M21,5.4a16,16,0,0,0-5.06,31.18c.8.14,1.09-.35,1.09-.77s0-1.39,0-2.73c-4.45,1-5.39-2.14-5.39-2.14A4.2,4.2,0,0,0,9.85,28.6c-1.46-1,.11-1,.11-1a3.36,3.36,0,0,1,2.45,1.65,3.41,3.41,0,0,0,4.65,1.33,3.42,3.42,0,0,1,1-2.14c-3.55-.41-7.29-1.78-7.29-7.91a6.17,6.17,0,0,1,1.65-4.29A5.7,5.7,0,0,1,12.6,12s1.34-.43,4.4,1.64a15.12,15.12,0,0,1,8,0C28.06,11.6,29.4,12,29.4,12a5.75,5.75,0,0,1,.16,4.24,6.13,6.13,0,0,1,1.65,4.29c0,6.15-3.74,7.5-7.31,7.89a3.81,3.81,0,0,1,1.09,3c0,2.14,0,3.86,0,4.39s.29.92,1.1.77A16,16,0,0,0,21,5.4Z" fill="#fff" fill-rule="evenodd"/></svg>