<svg xmlns="http://www.w3.org/2000/svg" viewBox="0 0 42 42"><circle cx="21" cy="21" r="20" fill="#14477b"/><path d="M15.24,23.78c-.24,1.31-1.18,7.4-1.46,9.12,0,.13-.07.17-.21.17H8.5a.83.83,0,0,1-.83-.94l4-25.31A1.38,1.38,0,0,1,13,5.67c10.37,0,11.24-.25,13.89.77C31,8,31.37,11.85,29.9,16S25,22.08,20.37,22.14c-3,0-4.73-.48-5.13,1.64ZM32,14c-.12-.09-.17-.12-.2.09a17.17,17.17,0,0,1-.6,2.29c-2.72,7.74-10.24,7.07-13.92,7.07a.69.69,0,0,0-.74.64C15,33.63,14.66,35.63,14.66,35.63a.71.71,0,0,0,.72.87H19.7a1.22,1.22,0,0,0,1.18-1c.05-.37-.07.41,1-6.21.32-1.5,1-1.34,2-1.34,4.83,0,8.6-2,9.72-7.65C34,17.92,33.9,15.43,32,14Z" fill="#fff"/></svg>