<svg xmlns="http://www.w3.org/2000/svg" width="49.09" height="49.09" viewBox="0 0 49.09 49.09"><path d="M27.27,49.09A21.82,21.82,0,1,0,5.45,27.27,21.82,21.82,0,0,0,27.27,49.09Z" fill="#f26322"/><path d="M22.91,44.73A21.82,21.82,0,1,0,1.09,22.91,21.82,21.82,0,0,0,22.91,44.73Z" fill="none" stroke="#4f4f51" stroke-linecap="round" stroke-linejoin="round" stroke-width="2.18"/><path d="M43.27,42.09a17.47,17.47,0,0,0-32,0,21.77,21.77,0,0,0,32,0Z" fill="#f26322"/><path d="M38.9,37.72a17.46,17.46,0,0,0-32,0,21.74,21.74,0,0,0,32,0Z" fill="none" stroke="#4f4f51" stroke-linecap="round" stroke-miterlimit="10" stroke-width="2.18"/><path d="M27.27,31.64a8.73,8.73,0,1,0-8.72-8.73A8.73,8.73,0,0,0,27.27,31.64Z" fill="#f26322"/><path d="M22.91,27.27a8.73,8.73,0,1,0-8.73-8.72A8.72,8.72,0,0,0,22.91,27.27Z" fill="none" stroke="#4f4f51" stroke-linecap="round" stroke-miterlimit="10" stroke-width="2.18"/></svg>