<svg xmlns="http://www.w3.org/2000/svg" xml:space="preserve" id="Layer_1" x="0" y="0" style="enable-background:new 0 0 500 500" version="1.1" viewBox="0 0 500 500"><style>.st0{fill:#263238}.st1{fill:#f5f5f5}.st2{fill:#f26322}.st3{opacity:.4}.st4{fill:#e0e0e0}.st5{opacity:.2}.st6{fill:#fafafa}.st7{fill:#455a64}.st8{fill:#ebebeb}.st9{fill:#fff}.st10{opacity:.3}.st11{fill:#b78876}.st12{fill:#aa6550}</style><path id="freepik--Floor--inject-46" d="M454.5 477.5c0 .1-93.2.3-208.1.3s-208.1-.1-208.1-.3 93.1-.3 208.1-.3 208.1.1 208.1.3z" class="st0"/><g id="freepik--big-books--inject-46"><path d="M332.3 294.6h43.8v52.1h-43.8z" class="st1"/><path d="M135.7 291.2h198.1V350H135.7z" class="st2"/><path d="M377.5 296.1h-49v-4.9h49c1.4 0 2.5 1.1 2.5 2.4-.1 1.4-1.2 2.5-2.5 2.5zm0 53.9h-49v-4.9h49c1.4 0 2.5 1.1 2.5 2.5-.1 1.3-1.2 2.4-2.5 2.4z" class="st2"/><path d="M294.8 291.2h23.4V350h-23.4zm-141.5 0h23.4V350h-23.4z" class="st3"/><path d="M376.1 303.2c0 .1-9.5.3-21.2.3s-21.2-.1-21.2-.3 9.5-.2 21.2-.2 21.2.1 21.2.2zm0 7.8c0 .1-9.5.3-21.2.3s-21.2-.1-21.2-.3 9.5-.3 21.2-.3 21.2.2 21.2.3zm0 9.6c0 .1-9.5.3-21.2.3s-21.2-.1-21.2-.3 9.5-.3 21.2-.3 21.2.2 21.2.3zm0 9.7c0 .1-9.5.3-21.2.3s-21.2-.1-21.2-.3 9.5-.3 21.2-.3 21.2.1 21.2.3zm0 9.6c0 .1-9.5.3-21.2.3s-21.2-.1-21.2-.3 9.5-.3 21.2-.3 21.2.2 21.2.3z" class="st4"/><path d="M193.1 315.4h89.1V326h-89.1z" class="st5"/><path d="M331.2 351.1h44.5v31.8h-44.5z" class="st6"/><path d="M142.2 350h189.4v34.1H142.2z" class="st7"/><path d="M330.3 352.3h47.9c.6 0 1.1-.5 1.1-1.1 0-.6-.5-1.2-1.1-1.2h-47.9v2.3zm0 29.5h47.9c.6 0 1.1.5 1.1 1.1 0 .6-.5 1.1-1.1 1.1h-47.9v-2.2z" class="st7"/><path d="M375.7 357.2c0 .1-9.9.3-22 .3s-22-.1-22-.3 9.9-.3 22-.3 22 .1 22 .3zm0 6c0 .1-9.9.3-22 .3s-22-.1-22-.3 9.9-.3 22-.3 22 .1 22 .3zm0 6c0 .1-9.9.3-22 .3s-22-.1-22-.3 9.9-.3 22-.3 22 .1 22 .3zm0 6c0 .1-9.9.3-22 .3s-22-.1-22-.3 9.9-.3 22-.3 22 .2 22 .3z" class="st4"/><path d="M171.8 362.2h130.6v8.9H171.8z" class="st0"/><path d="M337 387.1h45.4v86.1H337z" class="st8"/><path d="M123.7 384.1H337v93.3H123.7z" class="st2"/><path d="M386 477.4h-54.8v-6H386c1.7 0 3 1.3 3 3s-1.3 3-3 3zm-54.8-93.3H386c1.7 0 3 1.3 3 3s-1.3 3-3 3h-54.8v-6z" class="st2"/><g class="st3"><path d="m291.1 384.1-44.8 93.3h37.9l42.5-93.3z" class="st9"/></g><g class="st3"><path d="m220.4 384.1-44.9 93.3h37.9l42.5-93.3z" class="st9"/></g><path d="M382.5 398.6c0 .1-10.2.3-22.7.3s-22.7-.1-22.7-.3 10.2-.3 22.7-.3 22.7.2 22.7.3zm0 11.1c0 .1-10.2.3-22.7.3s-22.7-.1-22.7-.3 10.2-.3 22.7-.3 22.7.1 22.7.3zm0 11c0 .1-10.2.3-22.7.3s-22.7-.1-22.7-.3 10.2-.3 22.7-.3 22.7.2 22.7.3zm0 11.1c0 .1-10.2.3-22.7.3s-22.7-.1-22.7-.3 10.2-.3 22.7-.3 22.7.1 22.7.3zm0 11c0 .1-10.2.3-22.7.3s-22.7-.1-22.7-.3 10.2-.3 22.7-.3 22.7.1 22.7.3zm0 11c0 .1-10.2.3-22.7.3s-22.8-.1-22.8-.3 10.2-.3 22.7-.3 22.8.2 22.8.3zm0 11.1c0 .1-10.2.3-22.7.3s-22.8-.2-22.8-.3 10.2-.3 22.7-.3 22.8.1 22.8.3z" class="st4"/></g><g id="freepik--Character--inject-46"><path d="M355.4 133.3 341.5 111c-.2-.4-.7-.5-1.1-.3-.1.1-.2.1-.3.3l-13.7 23.6 29-1.3z" class="st2"/><path d="M355.4 133.3 341.5 111c-.2-.4-.7-.5-1.1-.3-.1.1-.2.1-.3.3l-13.7 23.6 29-1.3z" class="st10"/><path d="m341.5 112 13 21.2-3.3-.5-21.3-3.4 8-16.6z" class="st8"/><path d="m342.9 153.6 12.5-20.4-32.5-6c-1.1-.2-2.1.3-2.7 1.2l-18.3 31c-.4.8-.2 1.7.6 2.2.2.1.3.2.5.2l30.5 5.4 9.4-13.6z" class="st2"/><path d="m334.2 113.3 18 19.5-26.1-4.9z" class="st8"/><path d="M326.1 127.9c0-.1.1-.2.1-.3l.4-.8 1.6-3c1.4-2.6 3.4-6.3 5.8-10.6l.1-.3.2.2 11.7 12.7 6.3 6.8-.4.3c-4.1-5.8-7.7-10.8-10.2-14.5l-2.9-4.2-.8-1.1c-.1-.1-.2-.3-.2-.4 0 0 .1.1.3.4l.8 1.1 3 4.1 10.4 14.4-.4.3-6.3-6.8-11.7-12.7h.4c-2.5 4.3-4.5 8-6 10.5l-1.7 2.9-.5.8v.2z" class="st0"/><g class="st10"><path d="M326.4 136.4c-.3.4-10.9 18.1-10.9 18.1l17.3 3.2 11.5-18.4-17.9-2.9z" class="st9"/></g><path d="m196 438.8 9.5-12.5.5-.6 16.2 12.1-15 16.5.6 16.7c8.4 2.2 9.6 6.4 9.6 6.4H200l-15.9-30.5 11.9-8.1z" class="st7"/><path d="m184.1 446.9 15.9 30.5h17.4c-.5-1-1.1-1.9-2-2.6l-14.2-.7-14.6-28.8-2.5 1.6z" class="st8"/><path d="M207.6 463.4c-.1.2-1.1-.4-2.5-.4s-2.3.6-2.5.4.8-1.2 2.5-1.2 2.7 1 2.5 1.2zm-.2-4.2c-.2.1-.9-.9-2.3-1.2s-2.5.4-2.6.2.1-.4.6-.6c.7-.3 1.4-.4 2.1-.3.7.1 1.4.5 1.9 1.1.3.4.3.8.3.8zm.1-5.3c-.2.1-.8-.9-2-1.3s-2.3 0-2.4-.2.2-.3.7-.5c.6-.2 1.4-.2 2 0 .6.2 1.2.7 1.6 1.2.1.4.2.8.1.8zm4.6-4.1c-.2.1-.7-.9-1.8-1.6s-2.2-.8-2.2-1 1.3-.5 2.6.4 1.6 2.1 1.4 2.2zm2.3-3.6c-.1.1-.7-.6-1.5-1.8l-1.5-2.1c-.3-.4-.6-.9-.8-1.4-.1-.4-.1-.7.1-1.1.2-.4.6-.6 1.1-.5.6.1 1.2.4 1.6.9.4.3.8.8 1.1 1.2.5.8.8 1.6.9 2.5.2.8 0 1.7-.4 2.4 0-.8-.1-1.5-.1-2.3-.2-1.3-.9-2.4-1.9-3.2-.3-.3-.8-.5-1.2-.6-.1 0-.3 0-.3.1-.1.2-.1.3 0 .5.2.4.4.8.7 1.2.4.7.9 1.5 1.3 2.2.3.5.7 1.2.9 2z" class="st0"/><path d="M215 446.7c-.1 0 0-.9.9-2 1.3-1.4 3.4-1.8 5.2-.9.2.2.3.4.3.6 0 .2-.1.4-.2.5-.2.2-.4.4-.6.5-.4.3-.8.5-1.2.7-.7.3-1.5.6-2.3.6-.7.2-1.5.1-2.1-.2.7-.2 1.4-.3 2.1-.3.7-.2 1.4-.4 2.1-.7.4-.2.8-.4 1.1-.7.2-.1.3-.2.4-.4.1-.2.1-.1 0-.2-.2-.1-.3-.2-.5-.2s-.4-.1-.6-.1c-.4 0-.8 0-1.2.1-.7.2-1.3.5-1.9 1-1.1 1-1.4 1.8-1.5 1.7z" class="st0"/><path d="M198 446.4c0 1.1-.9 2.1-2.1 2.1-1.1 0-2.1-.9-2.1-2.1 0-1.1.9-2.1 2.1-2.1 1.2 0 2.1.9 2.1 2.1z" class="st8"/><path d="m220.7 439.5-3.3 3.6-14.1-13.9 2-2.6z" class="st10"/><path d="m264.1 445.1-1.8 21.2s20.9 7.1 21 11.1l-41.2-.2 1.4-33.1 20.6 1z" class="st7"/><path d="M249.7 463.9c-.8.2-1.4 1-1.2 1.9.2.8 1 1.4 1.8 1.3.9-.2 1.5-1.1 1.3-2-.3-.9-1.2-1.3-2.1-1.1m-7.4 13.2.1-3.3 39 .9s2.1 1.7 2 2.6l-41.1-.2z" class="st8"/><path d="M263 466.1c0 .2-1 .2-2 .9s-1.6 1.4-1.8 1.3.2-1.2 1.4-1.9 2.5-.5 2.4-.3zm4.2 2c0 .2-.9.5-1.6 1.3s-1 1.7-1.2 1.7-.3-1.2.6-2.2 2.2-1 2.2-.8zm2.2 5.3c-.2 0-.4-1 .1-2.1s1.5-1.5 1.6-1.3-.5.7-1 1.6-.5 1.8-.7 1.8zm-6.5-12.2c-.1.2-1-.1-2.1-.1s-2 .3-2.1.2.8-.9 2.1-.9 2.2.7 2.1.8zm.2-4.2c-.7.1-1.4.1-2.1-.1-.7-.2-1.4-.4-2.1-.8-.4-.2-.8-.4-1.2-.7-.2-.1-.4-.3-.6-.5-.2-.3-.2-.8 0-1.1.2-.3.6-.4.9-.4.3 0 .5.1.8.1.4.1.9.3 1.3.5.7.4 1.3.8 1.9 1.3.9.9 1.2 1.7 1.1 1.7s-.5-.6-1.5-1.4c-.5-.4-1.1-.8-1.8-1.1-.4-.2-.8-.3-1.2-.4-.4-.1-.8-.1-.9 0s0 .1 0 .2l.4.4c.3.2.7.5 1.1.7.6.4 1.3.6 2 .9.7.2 1.3.4 1.9.7z" class="st0"/><path d="M262.9 457.2c-.1 0-.4-.7-.5-2 0-.8.1-1.5.4-2.2l.6-1.2c.3-.5.8-.9 1.4-1 .4 0 .7.3.8.6.1.2.2.5.2.8 0 .5 0 .9-.1 1.4-.2.8-.5 1.5-1 2.1-.9 1-1.7 1.2-1.7 1.2s.7-.5 1.3-1.5c.4-.6.6-1.2.8-1.9.1-.4.1-.8 0-1.2 0-.4-.2-.8-.4-.8s-.6.3-.8.6c-.2.3-.4.7-.6 1.1-.3.6-.4 1.3-.5 2 0 1.3.2 2 .1 2z" class="st0"/><path d="M347.6 160.3c.4-1.2.4-2.5-.1-3.6-1.7-4-5.7-13-7.1-12.8-1.3.2-2.2 2.7-.8 5.4l-4.7-4c-.6-.5-1.4-.4-1.9.1-.3.3-.4.7-.3 1.1.1.6.3 1.2.6 1.8 1.5 3.1 5.5 6 5.5 6l-8.2.1s-1.5 2.1 1.3 3.6c.6.3 1.3.5 2 .6l4.2.4s-7.7 8.5-7.9 9.3c-.4 1.3-.6 2.6-.7 3.9l-14.7 16.4 3.9 24.9 26.6-46 2.3-7.2z" class="st11"/><path d="M345.5 156.6c-.1.1-.3-.3-.9-.8-.8-.6-1.7-.9-2.6-1.1-1-.1-1.9-.2-2.9-.2-.4.1-.8 0-1.2-.1 0-.1.5-.2 1.2-.3 1-.2 2-.2 3 0s2 .6 2.7 1.3c.6.7.7 1.2.7 1.2zm.1-2.6c-1.2-.6-2.3-1.4-3.3-2.3-1.1-.8-2.1-1.7-3-2.7 1.2.6 2.3 1.4 3.3 2.3 1.1.8 2.1 1.7 3 2.7z" class="st12"/><path d="M273.1 276.6c.2 0 1 49 1.3 71.1.1 7-1.7 13.8-5.2 19.8l-47.9 84.1-27.5-22.9 44.4-75.1-16.2-79.2 32.4-27.9 18.7 30.1z" class="st0"/><path d="M296.4 266.6c-.1 2.8-26 184.5-26 184.5l-32-2.3 11.7-183.4 46.3 1.2z" class="st0"/><path d="M269.5 279.3s0 .2.1.5.1.8.1 1.4c.1 1.3.3 3.1.5 5.4.4 4.7.9 11.5 1.6 19.8s1.4 18.4 2.2 29.5c.2 2.8.4 5.6.6 8.5.1 1.5.2 2.9.2 4.4 0 1.5-.2 3-.4 4.5-.5 3.1-1.5 6-2.8 8.8-.7 1.4-1.5 2.8-2.2 4.2l-2.3 4.2-32.1 57.3c-4.1 7.3-7.5 13.2-9.8 17.3-1.2 2-2.1 3.6-2.7 4.7l-.7 1.2-.3.4s.1-.1.2-.4l.7-1.2 2.6-4.8 9.6-17.4c8.2-14.7 19.5-35 31.9-57.4.8-1.4 1.5-2.8 2.3-4.2s1.6-2.7 2.2-4.1c1.3-2.8 2.2-5.7 2.8-8.7.2-1.5.4-2.9.4-4.4.1-1.5-.1-2.9-.1-4.4-.2-2.9-.4-5.7-.5-8.5-.8-11.1-1.5-21.1-2.1-29.5s-1.1-15.1-1.4-19.9c-.1-2.3-.3-4.1-.4-5.4 0-.6-.1-1.1-.1-1.4s-.1-.4-.1-.4z" class="st7"/><path d="M247.7 365.3c-.2 0-.4 0-.6-.1-.6-.1-1.1-.4-1.7-.6-3.6-1.8-6.2-5.2-6.9-9.2-.1-.6-.1-1.2-.1-1.8 0-.4 0-.6.1-.6s.1.9.4 2.4c.9 3.8 3.3 7 6.7 8.9 1.2.6 2.1.9 2.1 1z" class="st7"/><path d="M251.3 359.8c-.8.1-1.6.1-2.3 0-1.9-.3-3.7-.9-5.3-1.8-1.6-1-3.1-2.2-4.2-3.7-.5-.6-.9-1.3-1.1-2 .1 0 .5.7 1.4 1.8 2.4 2.8 5.7 4.7 9.3 5.4 1.3.2 2.2.2 2.2.3zM228.7 282s.2.3.8.5c.8.3 1.7.2 2.4-.2 1.1-.7 2.2-1.4 3.1-2.2 1.1-.9 2.4-2 3.6-3.1 2.1-2 4.1-4.1 5.9-6.4 1.4-1.7 2.2-2.9 2.2-2.8-.1.3-.3.6-.5.9-.3.5-.8 1.3-1.5 2.2-1.7 2.4-3.7 4.6-5.8 6.6-1.2 1.2-2.5 2.2-3.7 3.1-1 .8-2.1 1.6-3.3 2.2-.8.4-1.8.4-2.7 0-.4-.4-.5-.8-.5-.8zm17.9-1.5c-.3 1-.7 1.9-1.3 2.8-1.1 2.2-2.7 4.2-4.6 5.9-2 1.7-4.4 2.6-7 2.7-.8 0-1.5-.1-2.3-.3-.3-.1-.5-.2-.8-.3 1 .2 2 .3 3 .3 2.4-.2 4.8-1.1 6.6-2.7 1.8-1.6 3.4-3.5 4.6-5.7.6-1 1.2-1.9 1.8-2.7z" class="st7"/><path d="M296.4 266.6s-24.7 11.5-33.6 7.6-14.7-13.1-21.1-11-16.2 4-19.6 13.1c-1.4-1.6-2.2-3.6-2.1-5.8 0-3.6 3-8.4 3-8.4l-4-41.3.2-69.4s6.9-10.2 25.5-9.6l25.7 3.7s13.1 4 16.8 10.7 2.1 54.5 2.1 54.5 8.1 46.4 8.1 50c.2 2-.2 4-1 5.9" class="st2"/><path d="m311 187.7-10.6 9.5-13.1-40.9-11 24.6 4.4 40c.7 6.4 5.4 11.7 11.6 13.2 4.9 1.2 10-.1 13.8-3.4l11.2-9.6c1.6-1.4 2.4-3.5 2-5.6l-4.2-26.3c-.2-1.4-1.5-2.3-2.9-2.1-.4.1-.8.3-1.2.6z" class="st2"/><path d="M230.6 176.6c0 .9-4.9 45.6-4.9 45.6l20.9 45.2c-2 4.3-5.9 8.1-10.2 11.9 0 0-5.3-4.9-5.6-15.3 0 0-23.7-27.9-26.2-35.2s4.3-57.4 4.3-57.4l21.7 5.2z" class="st11"/><path d="M283.7 184.4c-.1.3-.2.6-.4.9-.3.6-.8 1.4-1.4 2.4-.7 1.2-1.4 2.3-2.1 3.5-.5.7-1.1 1.2-1.8 1.7-.8.5-1.7.7-2.6.8-1.7 0-3.4-.5-4.8-1.5-1.1-.8-2.1-1.9-2.8-3-.5-.7-1-1.5-1.5-2.3-.2-.3-.3-.6-.4-.9.1-.1.8 1.2 2.2 3 .8 1.1 1.7 2 2.8 2.8 1.3.9 2.9 1.4 4.5 1.4.8 0 1.6-.3 2.3-.7.7-.4 1.2-.9 1.7-1.5.9-1.2 1.6-2.4 2.2-3.4s1.1-1.8 1.5-2.3c.2-.4.4-.6.6-.9zm15.4 37.1c-.2-.3-.3-.6-.4-.9-.3-.8-.6-1.7-.8-2.6-1.4-5.8-1.1-12 .9-17.6.3-.8.7-1.7 1-2.5.1-.3.3-.6.5-.9.1 0-.5 1.3-1.2 3.5-.9 2.8-1.4 5.7-1.6 8.7-.1 2.9.1 5.9.7 8.8.5 2.1 1 3.5.9 3.5z" class="st0"/><path d="M304.7 213.3c-.5-.7-1-1.4-1.3-2.1-1.8-3.6-2.9-7.6-3.1-11.6-.1-.8-.1-1.7 0-2.5.2.8.3 1.6.3 2.5.2 2 .6 3.9 1.1 5.9.5 1.9 1.2 3.8 2 5.6.4.6.7 1.4 1 2.2zM283 192.8s.1.1.2.4c.2.4.4.9.5 1.3.5 1.7.8 3.4.7 5.2-.1 2.6-1.2 5.2-2.9 7.1-1 1.2-2.3 2.1-3.8 2.7-1.6.6-3.3.8-5 .4-1.7-.3-3.2-1.1-4.4-2.4-1-1.2-1.8-2.6-2.1-4.1-.3-1.4-.5-2.7-.6-4.1-.1-1.3-.2-2.5-.3-3.6-.1-2.1-.3-3.9-.4-5.2 0-.6 0-1-.1-1.4v-.5c0 .2.1.3.1.5 0 .4.1.9.2 1.4.1 1.3.3 3.1.5 5.2.1 1.1.2 2.3.4 3.6.1 1.3.3 2.7.6 4 .3 1.5 1 2.8 2 3.9 1.1 1.1 2.6 1.9 4.1 2.2 1.6.3 3.2.2 4.7-.4 1.4-.5 2.6-1.4 3.6-2.5 1.7-1.9 2.7-4.3 2.9-6.9.1-1.7 0-3.5-.5-5.1-.2-1-.4-1.7-.4-1.7z" class="st0"/><path d="M232.4 236.7c.4-3.3 1.2-6.4 2.4-9.5 1.4-3.8 3.3-7.6 3.4-11.6-.1-2.6-.5-5.1-1.3-7.5l-7.3-26.3c-.3 6.8-.6 13.6-.8 20.4-.2 1.7 0 3.3.8 4.8 1.1 1.8 3.3 2.5 4.5 4.2 1 1.3 1.2 3 .7 4.5s-1.9 1.9-3.4 2.2c-.7.2-1.4.3-2.1.4-1 .2-2.6-.1-3 .9-1.2 2.4.1 3.8.6 4.9 2.1 5.3 5.6 12.6 5.5 12.6" class="st5"/><path d="M223.5 148S202 158.9 199 216.9c-.2 3.4 2.4 6.3 5.8 6.5.5 0 1 0 1.5-.1 8.8-1.7 22.2-4.3 22.1-4.6-.1-.5 5-51.1 5-51.1l-9.9-19.6z" class="st2"/><path d="M233 166.7v3c0 1.9-.2 4.7-.4 8.2s-.6 7.6-1.1 12.1c-.2 2.3-.5 4.6-.8 7.1-.1 1.2-.3 2.5-.5 3.8s-.5 2.6-.7 3.8c-.1.6-.1 1.2 0 1.9.1.6.4 1.1.9 1.6.8.9 2 1.4 3 2.3.9.9 1.5 2.1 1.6 3.4.1.6.1 1.2 0 1.8 0 1.3-1.1 2.4-2.4 2.4l-1.6.3-3.1.6-5.5 1.1-8 1.7-1.3.2-.5.1h-.1v-.1h.3c.3-.1.5-.1.8-.1-.2.1-.5.2-.7.2h-.3v-.1h.1l.5-.1 1.2-.3 8-1.8 5.5-1.2 3.1-.6 1.6-.3c.5 0 .9-.2 1.3-.5.6-.9.8-2.1.6-3.1-.2-1.2-.7-2.2-1.5-3.1-.9-.8-2.1-1.3-3-2.3-.5-.5-.8-1.1-1-1.8-.1-.7-.1-1.4 0-2.1.2-1.3.6-2.6.7-3.8s.3-2.5.5-3.8c.3-2.5.6-4.8.8-7.1.5-4.5.9-8.6 1.2-12.1s.4-6.2.6-8.2l.1-2.2c0-.4 0-.6.1-.9z" class="st0"/><path d="M224.2 202.3c0 .2-.1.5-.1.7-.1.3-.1.5-.3.8-.1.3-.3.7-.5 1-.4.8-1 1.6-1.6 2.3-.8.9-1.7 1.6-2.7 2.2-1 .6-2.1 1.1-3.2 1.4-.9.3-1.9.4-2.8.4h-1.1c-.3 0-.5-.1-.8-.1-.2 0-.5-.1-.7-.2 0-.1 1 .1 2.6 0 .9-.1 1.8-.2 2.7-.5 1.1-.3 2.1-.8 3.1-1.4.9-.6 1.8-1.3 2.6-2.1.6-.7 1.2-1.4 1.7-2.2.7-1.4 1-2.3 1.1-2.3z" class="st0"/><path d="M247.4 254.1c10 5.9 22.3 7.4 33.8 5.6 1.9-.2 3.8-.7 5.5-1.6 1.7-.9 3-2.5 3.4-4.4.4-1.9-.6-3.9-2.5-4.7-1.8-.6-3.8.4-5.5 1.2-10.9 5.5-23.5 6.7-35.3 3.6" class="st5"/><path d="M294 255c-.1.1-.3.2-.4.3-.3.2-.7.5-1.3.9-1.7 1-3.4 1.8-5.2 2.5-6.1 2-12.5 2.6-18.9 1.7-6.3-.9-12.5-2.6-18.4-4.9-2.3-.9-4.1-1.6-5.4-2.1l-1.4-.6c-.2-.1-.3-.1-.5-.2.2 0 .4.1.5.1l1.5.5 5.4 1.9c5.9 2.2 12.1 3.8 18.3 4.8 6.3.9 12.7.4 18.7-1.5 1.8-.6 3.6-1.4 5.3-2.3 1.1-.7 1.8-1.1 1.8-1.1z" class="st0"/><path d="M293.4 234.3c3-3 3-8.4 2.4-12.6s-2.2-8.2-2.8-12.5c-.5-4-.1-8.1-.3-12.1s-1-8.3-3.7-11.3c-1.5 16.2 0 32.7 4.4 48.5M265 190.4c-.5 2.7 0 5.4-.2 8.2-.3 2.7-.3 5.5 0 8.2.3 2.7 1.6 5.3 3.6 7.2 2 1.9 5 2.5 7.6 1.5 2.5-1.2 4.1-3.9 3.8-6.7-1.8.9-3.8 1.3-5.8 1.1-2-.2-3.9-1.1-5.3-2.5-1.9-2.3-2.9-5.2-2.9-8.1-.2-3.1-.6-6.1-.8-8.9" class="st5"/><path d="M231.6 182.9c-.3.1-.7.2-1.1.2-.7.1-1.7.3-3 .4-3.3.4-6.6.4-9.9 0-3.3-.5-6.5-1.8-9.1-3.9-.8-.6-1.5-1.4-2.1-2.2l-.6-.9c.9 1 1.8 2 2.9 2.9 2.6 2 5.7 3.2 8.9 3.7 3.3.4 6.5.5 9.8.1l3-.2c.5-.2.8-.2 1.2-.1zm-1.4 7.6c-.3.2-.7.3-1.1.4-.4.1-.8.2-1.3.3-.5.1-1.1.2-1.7.3-1.5.2-3 .3-4.6.3-1.9 0-3.7-.3-5.6-.6-1.8-.4-3.6-1-5.3-1.7-1.4-.6-2.7-1.3-4-2.1-.6-.3-1-.7-1.4-1-.4-.3-.7-.5-1-.8-.3-.2-.6-.5-.8-.8.1-.1 1.3 1 3.5 2.3 1.3.8 2.6 1.4 4 2 3.4 1.4 7 2.2 10.7 2.3 1.5 0 3 0 4.5-.2 2.5-.3 4.1-.8 4.1-.7zm34-1.2c0 .1-7.3.1-16.2-.2s-16.2-.5-16.2-.7 7.2-.1 16.2.2c9 .2 16.2.5 16.2.7zm1 8.1c-.4.2-.9.3-1.3.4-.9.2-2.1.5-3.7.8-4.1.8-8.3 1.2-12.4 1.2-4.2 0-8.4-.3-12.5-1-1.6-.3-2.9-.5-3.7-.8-.5-.1-.9-.2-1.3-.4.5 0 .9.1 1.4.2.9.2 2.1.4 3.7.6 8.2 1.2 16.6 1.1 24.8-.3 1.6-.3 2.8-.5 3.7-.7h1.3zm18.8-1.5c-.1.3-.2.5-.3.7-.4.6-.9 1.2-1.5 1.7-2 1.5-4.5 2.2-7 1.9-2.4-.3-4.7-1.2-6.8-2.4-.9-.5-1.7-1-2.5-1.7.9.4 1.8.8 2.7 1.4 2.1 1.1 4.4 1.9 6.7 2.2 2.4.3 4.7-.3 6.7-1.7.8-.6 1.4-1.3 2-2.1zm4.5-6.2c-.8.4-1.7.7-2.6.8-.9.3-1.8.4-2.7.3.8-.4 1.7-.7 2.6-.8.9-.2 1.8-.3 2.7-.3zm9.7.4c-1.4 1-3 1.8-4.6 2.3-1.6.7-3.3 1.1-5 1.2 0-.1 2.2-.8 4.9-1.7s4.6-2 4.7-1.8zm-3.2-9.6c-1 .4-2 .7-3.1.9-1 .4-2 .7-3.1.8 1.9-1.2 4-1.8 6.2-1.7z" class="st6"/><path d="M289.5 176.8v.6l-.1 1.7c-.1.7-.1 1.6-.2 2.7s-.2 2.2-.2 3.5c-.2 2.6-.2 5.7-.3 9.2s.1 7.3.4 11.2.7 7.8 1.1 11.2 1 6.5 1.5 9.1c.2 1.3.5 2.4.7 3.5s.4 1.9.6 2.6.3 1.2.4 1.6c.1.2.1.4.1.6-.1-.2-.1-.4-.2-.6l-.5-1.6c-.2-.7-.4-1.6-.6-2.6s-.5-2.2-.8-3.4c-.5-2.6-1.1-5.6-1.6-9.1s-.9-7.2-1.1-11.2-.3-7.8-.3-11.3.2-6.6.4-9.2c.1-1.3.2-2.5.3-3.5s.2-1.9.3-2.6.2-1.2.2-1.7c-.1-.3-.1-.5-.1-.7z" class="st0"/><path d="M267.7 188.6c3.1 2 6.9 2.2 10.2.8.4-.2.8-.3 1.2-.4.4-.1.9.1 1.1.4.2.6.1 1.2-.3 1.6-1.6 1.9-4.1 2.7-6.5 2-2.3-.7-4.3-2.2-5.5-4.3" class="st5"/><path d="M249 103.1c-.6-2.3-1-4.6-1.1-6.9-.2-2.4.4-4.7 1.6-6.8 1.2-2.1 3.4-3.4 5.8-3.5 1.4 0 2.9.5 4.3.2 1.6-.3 2.9-1.6 4.4-2.5 2.2-1.4 4.8-2.1 7.5-1.9 1.4.1 2.7.5 3.8 1.3 1.1.8 1.8 2.1 1.8 3.5 1.7-.3 3.4-.4 5.1-.3 1.7.1 3.3.9 4.4 2.2 1.1 1.3 1.2 3.3.3 4.7 1.6-.4 3.3.4 3.9 1.9.6 1.5.2 3.3-1 4.4-1.4 1.2-3.2 1.8-5.1 1.8-1.7 0-3.3-.3-4.9-1" class="st0"/><path d="M254.6 156.1c6.4 1.5 12.7-2.5 14.2-8.8.1-.5.2-1 .2-1.5.4-3.8.7-7 .8-7.5 0 0 9.6.2 11.3-9.1s3.9-31 3.9-31c-10-6.5-22.7-7.1-33.2-1.6l-1.6.8-4.7 46c-.7 5.9 3.2 11.4 9.1 12.7z" class="st11"/><path d="M269.8 138.1c-4.3-.7-8.3-2.6-11.5-5.6 0 0 1.7 7.2 11.1 8l.4-2.4z" class="st12"/><path d="M249.6 107.2c-.1-.1-6.1-3-7 3.4s5.7 6 5.7 5.8 1.3-9.2 1.3-9.2z" class="st11"/><path d="M246.8 113.7s-.1.1-.3.1c-.3.1-.6 0-.8-.1-.8-.7-1.1-1.7-.9-2.7.1-.6.2-1.1.5-1.6.2-.4.6-.7 1-.7.3 0 .5.1.6.4.1.2 0 .3 0 .3s.1-.1.1-.4c0-.2-.1-.3-.2-.4-.2-.2-.4-.2-.6-.2-.5 0-1 .3-1.3.8-.4.5-.6 1.1-.6 1.7-.2 1.2.3 2.3 1.2 3 .3.2.7.2 1.1 0 .1 0 .2-.1.2-.2z" class="st12"/><path d="M280.3 112.4c-.1.7-.8 1.2-1.5 1.1-.7-.1-1.2-.7-1.2-1.4.1-.7.8-1.2 1.5-1.1.7.1 1.2.7 1.2 1.4zm.6-1.4c-.2.2-1.1-.8-2.5-1s-2.6.3-2.7.1.2-.4.7-.6c.7-.3 1.5-.4 2.2-.3.8.1 1.5.5 2 1 .3.4.4.7.3.8zm-14.5-1c-.1.7-.8 1.2-1.5 1.1-.7-.1-1.2-.7-1.2-1.4.1-.7.8-1.2 1.5-1.1.7 0 1.3.7 1.2 1.4z" class="st0"/><path d="M266.8 108.8c-.2.2-1.1-.8-2.5-1s-2.6.3-2.7.1.2-.4.7-.6c.7-.3 1.5-.4 2.2-.3.7.1 1.4.5 2 1 .3.4.4.7.3.8zm3.3 11.5c.8-.1 1.6-.1 2.4 0 .4 0 .7 0 .8-.2.1-.4.1-.8 0-1.1-.2-1-.4-1.9-.6-3-.8-4.2-1.3-7.7-1.2-7.7s1 3.4 1.8 7.6c.2 1 .4 2 .5 3 .1.5.1 1-.1 1.5-.2.2-.4.4-.7.4h-.6c-.7-.1-1.5-.3-2.3-.5zm-4.4.3c.2 0 0 1.6 1.1 2.9s2.8 1.4 2.8 1.7-.4.2-1.1.1c-.9-.1-1.7-.6-2.4-1.3-.6-.7-.9-1.5-.8-2.4.1-.7.3-1.1.4-1zm15.1-12.2c-.3.3-1.2-.2-2.4-.4s-2.2-.2-2.4-.6c-.1-.2.1-.5.6-.7 1.3-.5 2.9-.2 3.9.8.4.4.4.7.3.9zm-15-5.1c-.2.2-.5 0-1-.2-.6-.2-1.1-.4-1.7-.6-.6-.1-1.2-.2-1.8-.2-.5 0-.9 0-1-.2s.1-.6.7-.9c1.6-.8 3.5-.3 4.6 1 .4.5.4.9.2 1.1z" class="st0"/><path d="M284.9 101.1c-4.7.4-9.4-.6-13.5-3.1-4.5-2.7-9.9-4.2-11.1-3.4s-1.9 5.7-6.6 6.7c0 0-.4 9.2-4 8.6s-.3-14.7-.3-14.7l9.3-3.7 9.9-1.1 9.2.7 8.3 3.2-1.2 6.8z" class="st0"/></g><g id="freepik--Books--inject-46"><path d="m137 213 1.9 2.5s9.6-15.4 20.7-16.9c.6.3 1.4.3 2-.1l3.6-2.1c.8-.5 1.2-1.4 1-2.2 0 0 5.4-9.5 16.8-11l4.2-.8-28.6-26.4-44.7 18.2L137 213z" class="st2"/><path d="m132.2 210.9 3.4 4.5s7.8-17.6 27.2-18.9l-19.1-19.8c0 .2-13.8 28.8-11.5 34.2z" class="st8"/><path d="M106.1 179.3s7.4-23.9 32-15.2l24.9 32.5s-25.5-4.6-31.5 16.4l-25.4-33.7z" class="st1"/><path d="M162.9 196.6s7.7-18.8 24.4-16.5l-24.4-28.4-24 13.5 24 31.4z" class="st8"/><path d="M138 164.2s-2.8-14.2 8.2-20.4l7.2-3.7 25.1 28.2s-17.4 9.5-15.7 28.5L138 164.2z" class="st1"/><path d="M162.9 196.6c-.4-.4-.7-.8-1-1.2-.7-.9-1.6-2-2.7-3.4-2.3-3-5.4-7-8.8-11.4l-8.8-11.4-2.7-3.4c-.4-.4-.7-.8-.9-1.3.4.4.8.8 1.1 1.2.7.8 1.6 1.9 2.8 3.3 2.4 2.8 5.5 6.8 8.9 11.3s6.5 8.5 8.7 11.5l2.6 3.5c.2.4.5.9.8 1.3zm-9-48.3c-1 .4-1.9.8-2.9 1.3-2.2 1.3-4.1 3.1-5.6 5.2-1.5 2-2.7 4.4-3.3 6.9-.4 1.9-.4 3.1-.5 3.1-.1-.3-.1-.6-.1-.9 0-.8 0-1.6.2-2.4.5-2.6 1.6-5 3.2-7.1 1.5-2.1 3.5-3.9 5.8-5.2.7-.4 1.4-.7 2.2-.9.4.1.7 0 1 0zm12.4 11.9c0 .1-1.1.6-2.8 1.8-1 .7-1.9 1.5-2.7 2.3-1 1.1-1.9 2.2-2.7 3.4-.8 1.2-1.4 2.6-1.9 3.9-.4 1.1-.7 2.3-.9 3.4-.3 2-.3 3.3-.4 3.3-.1-.3-.1-.6-.1-.9v-1.1c0-.5 0-.9.1-1.4.2-1.2.4-2.4.8-3.6.5-1.4 1.1-2.7 1.9-4 .8-1.3 1.7-2.4 2.8-3.5.9-.9 1.8-1.6 2.8-2.3.4-.3.8-.5 1.2-.7.3-.2.7-.3 1-.5.4.1.6 0 .9-.1zm4 3.4c0 .1-1.2.7-3 2-1 .8-2 1.6-2.9 2.6-1.1 1.2-2.1 2.4-3 3.7-.9 1.3-1.6 2.7-2.3 4.2-.5 1.2-.9 2.4-1.2 3.7-.5 2.2-.4 3.6-.5 3.6-.1-.3-.1-.7-.1-1v-1.1c0-.5.1-1 .2-1.5.2-1.3.6-2.6 1.1-3.8.6-1.5 1.4-2.9 2.3-4.3.9-1.3 1.9-2.6 3.1-3.8.9-.9 1.9-1.8 3-2.5.4-.3.8-.6 1.3-.8.3-.2.7-.4 1-.5.3-.3.7-.4 1-.5zm2.5 3.2c0 .1-1.2.6-3 2-1 .8-2 1.7-2.9 2.7-1.1 1.2-2 2.5-2.9 3.8-.8 1.4-1.6 2.8-2.2 4.3-.5 1.2-.9 2.5-1.1 3.7-.4 2.2-.4 3.6-.5 3.6-.1-.3-.1-.7-.1-1v-1.1c0-.5.1-1 .2-1.5.2-1.3.5-2.6 1-3.9.6-1.5 1.3-3 2.2-4.4.9-1.4 1.9-2.7 3-3.9.9-1 1.9-1.9 3-2.6.4-.3.8-.6 1.3-.8.3-.2.7-.4 1-.5.4-.2.7-.3 1-.4zm-20.7 24.6c0 .1-1.4-.4-3.7-.6-3-.2-6 .2-8.8 1.3-2.8 1.2-5.2 2.9-7.1 5.2-1.5 1.8-2.1 3-2.2 3 .1-.3.2-.6.4-.9.4-.8.9-1.6 1.5-2.3 3.9-4.9 10-7.4 16.2-6.6.9.1 1.8.3 2.7.6.4 0 .7.1 1 .3z" class="st0"/><path d="M148.8 187.3c0 .1-1.4-.4-3.7-.6-6-.6-12 1.9-15.9 6.5-1.5 1.8-2.1 3.1-2.2 3 .1-.3.2-.6.4-.9.4-.8.9-1.6 1.5-2.3 3.9-4.9 10-7.4 16.2-6.6.9.1 1.8.3 2.7.6.4 0 .7.1 1 .3z" class="st0"/><path d="M145.5 183.2c0 .1-1.4-.4-3.7-.6-6-.6-12 1.9-15.9 6.5-1.5 1.8-2.1 3-2.2 3 .1-.3.2-.6.4-.9.4-.8 1-1.6 1.5-2.3 3.9-4.9 10-7.4 16.2-6.6.9.1 1.8.3 2.7.6.4 0 .7.1 1 .3z" class="st0"/><path d="M142.2 179.1c0 .1-1.4-.4-3.7-.6-6.1-.6-12 1.9-15.9 6.5-1.5 1.8-2.1 3-2.2 3 .1-.3.2-.6.4-.9.4-.8.9-1.6 1.5-2.3 3.9-4.9 10-7.4 16.2-6.6.9.1 1.8.3 2.7.6.4 0 .7.1 1 .3z" class="st0"/><path d="M138.9 175c0 .1-1.4-.4-3.7-.6-6-.6-12 1.9-15.9 6.5-1.5 1.7-2.1 3-2.2 3 .1-.3.2-.6.4-.9.4-.8.9-1.6 1.5-2.3 3.9-4.9 10-7.5 16.2-6.7.9.1 1.8.3 2.7.6.4.1.7.2 1 .4z" class="st0"/><path d="M135.6 170.9c0 .1-1.4-.4-3.7-.6-6.1-.6-12 1.9-15.9 6.5-1.5 1.7-2.1 3-2.2 3 .1-.3.2-.6.4-.9.4-.8.9-1.6 1.5-2.3 3.9-4.9 10.1-7.5 16.3-6.7.9.1 1.8.3 2.7.6.3.1.6.2.9.4z" class="st0"/><path d="m144.8 165.8 6.9 7.6s2.1-10.5 11.5-14.5l-7.2-7.7c-6.3 2.5-10.5 8.1-11.2 14.6z" class="st8"/><path d="m169.4 88.8-1 2.2s14.1 1.2 19.2 8.3c0 .6.3 1.1.8 1.4l2.7 1.8c.6.4 1.4.3 1.9-.1 5.5.5 10.5 3.3 13.7 7.7l2.1 2.6 9.1-30.3L188 58.8l-18.6 30z" class="st2"/><path d="m169.1 84.7-1.9 4s15-.9 22.8 12.1l6.9-20.3s-24.8.7-27.8 4.2z" class="st8"/><path d="M181.7 55.3s19.2-3.4 22 16.7L190 100.8s-5.9-19.3-22.6-15.9l14.3-29.6z" class="st1"/><path d="M190 100.8s15.8-1.4 20.2 11l11-27.1-18-11.7-13.2 27.8z" class="st8"/><path d="M203.6 72s8.9-7 17.1-1.6l5.2 3.6-10.5 27.5s-12.8-8.6-25.3-.7L203.6 72z" class="st1"/><path d="M190 100.8c.1-.4.3-.8.5-1.2.4-.8.8-1.9 1.4-3.1l4.7-10.2 4.8-10.2 1.4-3.1c.2-.4.4-.8.6-1.1-.1.4-.2.8-.4 1.2-.3.8-.7 1.8-1.3 3.2-1.1 2.7-2.8 6.3-4.6 10.3s-3.6 7.6-4.9 10.1c-.6 1.3-1.2 2.3-1.6 3-.1.4-.3.8-.6 1.1zm30.7-24c-.1.1-.8-.5-2.3-1.2-3.7-1.9-8-2.2-12-1-1.5.5-2.4 1-2.4.9s.2-.2.6-.4c.6-.3 1.1-.6 1.7-.8 2-.7 4.1-1 6.3-.8 2.1.2 4.2.8 6.1 1.8.6.3 1.1.7 1.6 1.1.2.2.4.3.4.4zm-.8 3.3c-.1.1-.9-.5-2.3-1.2-3.7-1.9-8-2.2-12-1-1.5.5-2.4 1-2.4.9s.2-.2.6-.4c.6-.3 1.1-.6 1.7-.8 2-.7 4.1-1 6.3-.8 2.1.2 4.2.8 6.1 1.8.6.3 1.1.7 1.6 1.1l.4.4zm-1.5 3.3c-.1.1-.8-.5-2.3-1.2-1.9-.9-3.9-1.5-5.9-1.6-2.1-.2-4.1.1-6.1.7-1.5.5-2.4 1-2.4.9s.2-.2.6-.4c.6-.3 1.1-.6 1.7-.8 2-.7 4.1-1 6.3-.8 2.1.2 4.2.8 6.1 1.8.6.3 1.1.7 1.6 1.1.2.1.4.2.4.3zm-1 3.3c-.1.1-.9-.5-2.3-1.2-3.7-1.9-8-2.2-12-1-1.5.5-2.4 1-2.4.9s.2-.2.6-.4c.6-.3 1.1-.6 1.7-.8 2-.7 4.1-1 6.3-.8 2.1.2 4.2.8 6.1 1.8.6.3 1.1.7 1.6 1.1.3.2.5.4.4.4zm-.9 3.5c-.1.1-.8-.5-2.3-1.2-1.9-.9-3.9-1.5-5.9-1.6-2.1-.2-4.1.1-6.1.7-1.5.5-2.4 1-2.4.9s.2-.2.6-.4c.6-.3 1.1-.6 1.7-.8 2-.7 4.1-1 6.3-.8 2.1.2 4.2.8 6 1.8.6.3 1.1.7 1.6 1.1.4.1.5.3.5.3zm-.9 4c-.1.1-.9-.6-2.5-1.3-.9-.4-1.9-.8-2.8-1.1-1.2-.3-2.4-.6-3.6-.7-1.2-.1-2.5-.2-3.7-.1-1 .1-2 .2-3 .5-1.7.4-2.6 1-2.7.9.2-.2.4-.3.6-.4.3-.2.5-.3.8-.4.4-.2.7-.3 1.1-.4 1-.3 2-.5 3-.6 1.3-.1 2.5-.1 3.8.1 1.3.2 2.5.4 3.7.8 1 .3 1.9.7 2.9 1.2.3.2.7.4 1 .6.3.2.5.3.7.5.5.2.7.4.7.4zm-1.3 2.9c-.1.1-.9-.6-2.5-1.3-.9-.4-1.9-.7-2.9-1-1.2-.3-2.4-.5-3.7-.6-1.2-.1-2.5-.1-3.7 0-1 .1-2 .3-3 .6-1.7.4-2.6 1-2.7.9s.2-.2.6-.4c.3-.2.5-.3.8-.4.4-.2.7-.3 1.1-.4 1-.3 2-.5 3-.7 1.3-.1 2.5-.2 3.8-.1 1.3.1 2.5.3 3.8.7 1 .3 2 .7 2.9 1.2.3.2.7.4 1 .6.3.2.5.3.7.5.6.2.8.4.8.4zm-24.5-5.6c-.1 0-.3-1.1-.9-2.8-.9-2.1-2.3-4-4-5.6-1.8-1.5-3.9-2.6-6.1-3.1-1.7-.4-2.9-.4-2.9-.5.3-.1.5-.1.8-.1.7 0 1.4.1 2.1.2 4.8.9 8.8 4.3 10.4 8.9.3.7.4 1.4.6 2.1v.9z" class="st0"/><path d="M191.5 87.7c-.1 0-.3-1.1-.9-2.8-1.8-4.4-5.6-7.6-10.2-8.7-1.7-.4-2.9-.4-2.9-.5.3-.1.5-.1.8-.1.7 0 1.4.1 2.1.2 4.8.9 8.8 4.3 10.4 8.9.3.7.4 1.4.6 2.1.1.4.1.7.1.9z" class="st0"/><path d="M193.1 84c-.1 0-.3-1.1-1-2.8-1.8-4.4-5.6-7.6-10.1-8.7-1.7-.4-2.9-.4-2.9-.5.3-.1.5-.1.8-.1.7 0 1.4.1 2.1.2 2.4.5 4.6 1.5 6.4 3.1 1.8 1.6 3.2 3.6 4.1 5.8l.6 2.1c0 .4.1.6 0 .9zm1.7-3.8c-.1 0-.3-1.1-1-2.8-1.8-4.4-5.6-7.6-10.2-8.7-1.7-.4-2.9-.4-2.9-.5.3-.1.5-.1.8-.1.7 0 1.4.1 2.1.2 4.8.9 8.8 4.3 10.4 8.9l.6 2.1c.2.4.2.7.2.9z" class="st0"/><path d="M196.5 76.5c-.1 0-.3-1.1-1-2.8-1.8-4.4-5.6-7.6-10.2-8.7-1.7-.4-2.9-.4-2.9-.5.3-.1.5-.1.8-.1.7 0 1.4.1 2.1.2 4.8.9 8.8 4.3 10.4 8.9l.6 2.1c.1.3.2.6.2.9z" class="st0"/><path d="M198.1 72.7c-.1 0-.3-1.1-.9-2.7-1.8-4.4-5.6-7.6-10.2-8.7-1.7-.4-2.9-.4-2.9-.5.3-.1.5-.1.8-.1.7 0 1.4.1 2.1.2 4.8.9 8.8 4.3 10.4 8.9.3.7.4 1.4.6 2.1.1.3.2.6.1.8z" class="st0"/><path d="m354.3 183.7-1.7 2.7s17.7 3.9 22.9 13.9c-.1.7.2 1.4.8 1.9l3.2 2.7c.7.6 1.7.6 2.5.2 0 0 10.8 1.9 16 12.2l2.1 3.7 16.9-37-33.7-35-29 34.7z" class="st2"/><path d="m354.7 178.6-3.1 4.7s19.2 1.5 26.9 19.4l12.3-24.6c-.2 0-31.8-3.5-36.1.5z" class="st8"/><path d="M375.8 143.3s25-1 25 25.1l-22.4 34.2s-4.2-25.5-25.9-24.2l23.3-35.1z" class="st1"/><path d="M378.4 202.7s20.3 1 23.7 17.6l18.7-32.5-20.8-18.2-21.6 33.1z" class="st8"/><path d="M400.7 168.4s12.5-7.4 22 .9l5.9 5.5-18.2 33.2s-14.7-13.2-32.1-5.3l22.4-34.3z" class="st1"/><path d="M378.4 202.7c.2-.5.5-1 .8-1.4l2.3-3.7c2.1-3.2 4.8-7.4 7.8-12.1l7.8-12.1 2.3-3.7c.3-.5.6-.9.9-1.3-.2.5-.4 1-.7 1.4-.5.9-1.3 2.2-2.2 3.8-1.9 3.2-4.6 7.5-7.7 12.2s-5.9 9-8 12l-2.5 3.6c-.2.4-.5.9-.8 1.3zm43.1-25.2c-.1.1-1-.9-2.6-2-1-.7-2-1.3-3.1-1.8-1.3-.6-2.7-1.1-4.1-1.4-1.4-.3-2.9-.5-4.3-.5-1.2 0-2.4.1-3.6.3-2 .4-3.2.8-3.2.7.2-.2.5-.3.8-.4.3-.1.7-.3 1-.4.4-.1.9-.3 1.4-.4 1.2-.3 2.4-.4 3.6-.4 1.5 0 3 .2 4.5.5s2.9.8 4.2 1.4c1.1.5 2.1 1.2 3.1 1.9.4.3.8.6 1.1.9.3.2.5.5.8.7 0 .4.2.6.4.9zm-1.6 4c-.1.1-1-.9-2.6-2-1-.7-2-1.3-3.1-1.8-2.7-1.2-5.6-1.8-8.5-1.9-1.2 0-2.4.1-3.6.3-2 .4-3.2.8-3.2.7.3-.2.5-.3.8-.4.3-.1.7-.3 1-.4.4-.1.9-.3 1.4-.4 1.2-.3 2.4-.4 3.6-.4 1.5 0 3 .1 4.5.4 1.5.3 2.9.8 4.2 1.5 1.1.5 2.1 1.2 3.1 1.9.4.3.7.6 1.1.9.3.2.5.5.8.7.2.5.3.7.5.9zm-2.5 4c-.1.1-1-.9-2.6-2-1-.7-2-1.3-3.1-1.8-1.3-.6-2.7-1.1-4.1-1.4-1.4-.3-2.9-.5-4.3-.5-1.2 0-2.4.1-3.6.3-2 .4-3.2.8-3.2.7.2-.2.5-.3.8-.4.3-.1.7-.3 1-.4.4-.1.9-.3 1.4-.4 1.2-.3 2.4-.4 3.6-.4 1.5 0 3 .1 4.5.4 1.5.3 2.9.8 4.2 1.5 1.1.5 2.1 1.2 3.1 1.9.4.3.7.6 1.1.9.3.2.5.5.8.7.2.6.5.8.4.9zm-37.7 5.3c-.1 0-.1-1.4-.7-3.7-1.5-5.9-5.8-10.7-11.5-12.8-2.1-.8-3.6-1-3.6-1.1.3 0 .7 0 1 .1.9.1 1.8.4 2.7.7 5.9 2 10.4 7 11.7 13.1.2.9.3 1.8.4 2.7.1.3.1.6 0 1z" class="st0"/><path d="M382.5 186.3c-.1 0-.1-1.4-.7-3.7-1.5-5.9-5.8-10.7-11.4-12.8-2.1-.8-3.6-1-3.6-1.1.3 0 .7 0 1 .1.9.1 1.8.4 2.7.7 5.9 2 10.3 7 11.7 13.1.2.9.3 1.8.4 2.7 0 .3 0 .6-.1 1z" class="st0"/><path d="M385.3 181.8c-.1 0-.1-1.4-.7-3.7-1.5-5.9-5.8-10.7-11.4-12.8-2.1-.8-3.6-1-3.6-1.1.3 0 .7 0 1 .1.9.1 1.8.4 2.7.7 5.9 2 10.4 7 11.7 13.1.2.9.3 1.8.4 2.7 0 .3 0 .7-.1 1z" class="st0"/><path d="M388 177.3c-.1 0-.1-1.4-.7-3.7-1.5-5.9-5.8-10.7-11.4-12.8-2.1-.8-3.6-1-3.6-1.1.3 0 .7 0 1 .1.9.1 1.8.4 2.7.7 5.9 2 10.3 7 11.7 13.1.2.9.3 1.8.4 2.7 0 .4 0 .7-.1 1z" class="st0"/><path d="M390.8 172.9c-.1 0-.1-1.4-.7-3.7-1.5-5.9-5.8-10.7-11.4-12.8-2.1-.8-3.6-1-3.6-1.1.3 0 .7 0 1 .1.9.1 1.8.4 2.7.7 5.9 2 10.3 7 11.7 13.1.2.9.3 1.8.4 2.7 0 .3 0 .6-.1 1z" class="st0"/><path d="M393.6 168.4c-.1 0-.1-1.4-.7-3.7-1.5-5.9-5.8-10.7-11.4-12.8-2.1-.8-3.6-1-3.6-1.1.3 0 .7 0 1 .1.9.1 1.8.4 2.7.7 5.9 2 10.3 7 11.7 13.1.2.9.3 1.8.4 2.7 0 .3-.1.7-.1 1z" class="st0"/><path d="m395.6 185.5-6.5 9.4s10-1.2 18.7 4.4l6-10.1s-9.2-7.3-18.2-3.7" class="st8"/></g></svg>
