<svg xmlns="http://www.w3.org/2000/svg" viewBox="0 0 750 500"><path d="M726.91 467.18c0 .15-157.57.26-351.89.26s-351.93-.11-351.93-.26 157.53-.26 351.93-.26 351.89.08 351.89.26z" fill="#263238"/><path fill="#455a64" d="M415.36 86.13h125.29v161.82H415.36z"/><path d="M540.65 86.13a2.85 2.85 0 01-.34.43l-1.08 1.22-4.23 4.64h-.08c-10.89.11-32.3.19-56.86.19s-46-.08-56.87-.19h-.13l-4.23-4.64-1.08-1.22a2.19 2.19 0 01-.34-.43 2.33 2.33 0 01.41.37l1.14 1.15 4.36 4.52h-.13c10.81-.17 32.24-.24 56.81-.24s46 .08 56.86.19h-.13l4.36-4.52 1.14-1.15a2.33 2.33 0 01.42-.32zM415.36 248a2.39 2.39 0 01.34-.44l1.08-1.21 4.23-4.64h.13c10.89-.11 32.29-.19 56.86-.19s46 .08 56.87.19h.13l4.23 4.64 1.08 1.21a3.18 3.18 0 01.34.44 3 3 0 01-.41-.37l-1.14-1.15-4.36-4.53.13.06c-10.89.11-32.29.19-56.87.19s-46-.08-56.86-.19l.13-.06-4.36 4.53-1.14 1.15a3 3 0 01-.41.37z" fill="#263238"/><path fill="#fff" d="M421.14 92.29h113.73v149.49H421.14z"/><path d="M438.93 198.07c3.39-3.23 8.38-4.14 13.05-4s9.3 1.1 14 1c7.47-.09 14.92-2.85 22.28-1.58 2.35.41 4.74 1.23 7.07.73 2.05-.44 3.77-1.83 5.77-2.43 5.19-1.55 11 2.51 16 .39v33.37h-78.17z" fill="#f26322"/><path d="M440.51 199.41c-.2 0-.37-19.77-.37-44.15s.17-44.14.37-44.14.36 19.76.36 44.14-.16 44.15-.36 44.15zM444.07 199.41c-.21 0-.37-19.77-.37-44.15s.16-44.14.37-44.14.36 19.76.36 44.14-.16 44.15-.36 44.15zM447.62 199.41c-.2 0-.36-19.77-.36-44.15s.16-44.14.36-44.14.37 19.76.37 44.14-.17 44.15-.37 44.15zM451.18 199.41c-.2 0-.36-19.77-.36-44.15s.16-44.14.36-44.14.36 19.76.36 44.14-.16 44.15-.36 44.15zM454.74 199.41c-.2 0-.37-19.77-.37-44.15s.17-44.14.37-44.14.36 19.76.36 44.14-.16 44.15-.36 44.15zM458.3 199.41c-.21 0-.37-19.77-.37-44.15s.16-44.14.37-44.14.36 19.76.36 44.14-.16 44.15-.36 44.15zM461.85 199.41c-.2 0-.36-19.77-.36-44.15s.16-44.14.36-44.14.37 19.76.37 44.14-.17 44.15-.37 44.15zM465.41 199.41c-.2 0-.36-19.77-.36-44.15s.16-44.14.36-44.14.36 19.76.36 44.14-.16 44.15-.36 44.15zM469 199.41c-.2 0-.36-19.77-.36-44.15s.16-44.14.36-44.14.36 19.76.36 44.14-.19 44.15-.36 44.15zM472.53 199.41c-.2 0-.37-19.77-.37-44.15s.17-44.14.37-44.14.36 19.76.36 44.14-.16 44.15-.36 44.15zM476.08 199.41c-.2 0-.36-19.77-.36-44.15s.16-44.14.36-44.14.37 19.76.37 44.14-.17 44.15-.37 44.15zM479.64 199.41c-.2 0-.36-19.77-.36-44.15s.16-44.14.36-44.14.36 19.76.36 44.14-.16 44.15-.36 44.15zM483.2 199.41c-.2 0-.36-19.77-.36-44.15s.16-44.14.36-44.14.36 19.76.36 44.14-.16 44.15-.36 44.15zM486.76 199.41c-.2 0-.37-19.77-.37-44.15s.17-44.14.37-44.14.36 19.76.36 44.14-.12 44.15-.36 44.15zM490.31 199.41c-.2 0-.36-19.77-.36-44.15s.16-44.14.36-44.14.37 19.76.37 44.14-.17 44.15-.37 44.15zM493.87 199.41c-.2 0-.36-19.77-.36-44.15s.16-44.14.36-44.14.36 19.76.36 44.14-.16 44.15-.36 44.15zM497.43 199.41c-.2 0-.36-19.77-.36-44.15s.16-44.14.36-44.14.36 19.76.36 44.14-.16 44.15-.36 44.15zM501 199.41c-.2 0-.37-19.77-.37-44.15s.17-44.14.37-44.14.36 19.76.36 44.14-.17 44.15-.36 44.15zM504.54 199.41c-.2 0-.36-19.77-.36-44.15s.16-44.14.36-44.14.37 19.76.37 44.14-.17 44.15-.37 44.15zM508.1 199.41c-.2 0-.36-19.77-.36-44.15s.16-44.14.36-44.14.36 19.76.36 44.14-.16 44.15-.36 44.15zM511.66 199.41c-.2 0-.36-19.77-.36-44.15s.16-44.14.36-44.14.36 19.76.36 44.14-.16 44.15-.36 44.15zM515.22 199.41c-.2 0-.37-19.77-.37-44.15s.17-44.14.37-44.14.36 19.76.36 44.14-.16 44.15-.36 44.15z" fill="#263238"/><g><path d="M729.75 430.25c-1.9-29-6.41-58.67-8.29-87.66-1.24-19.1-9.29-31.27-32-33.81-17.53-1.95-54.36 55.73-64.06 70.46-43.09-8.32-74.11 23.41-98.71 48.12-7.37 7.4-14.66 18.82-8.7 27.39 3.58 5.16 13.76 13.25 17.35 12.43 1.26-.28 159.61.06 159.61.06 11.57-.2 23.71-3.21 30.48-12.58 4.99-6.84 4.87-15.99 4.32-24.41z" fill="#455a64"/><path d="M529.15 435.72L516.88 464l-34.79-16.05c1.73-3.23 22.81-1.6 22.81-1.6l7.62-18.22z" fill="#f26322"/><path d="M516.36 449.77a1.58 1.58 0 01.23 2.08 1.5 1.5 0 01-2.05.25 1.64 1.64 0 01-.24-2.2 1.55 1.55 0 012.16 0M516.88 464l1.39-2.92-34-14.16s-1.86 0-2.18 1.15zM504.42 445.88c-.07.18.74.64 1.32 1.58s.7 1.85.89 1.85.39-1.09-.34-2.21-1.84-1.39-1.87-1.22zM500.07 445.71c-.11.15.49.77.74 1.76s.06 1.82.23 1.89.73-.84.4-2.06-1.29-1.75-1.37-1.59zM496 449.12c.13.11.76-.63.76-1.76s-.64-1.87-.77-1.76.12.83.11 1.76-.27 1.64-.1 1.76zM506.62 441.92c0 .19.88.32 1.81.82s1.54 1.16 1.7 1.06-.29-1.05-1.39-1.63-2.15-.42-2.12-.25zM509.35 438.18c0 .07.59.48 1.75.79a8.18 8.18 0 002.08.28 7.61 7.61 0 001.24-.07 2.42 2.42 0 00.72-.16.82.82 0 00.49-.87 1 1 0 00-.56-.73 2.48 2.48 0 00-.7-.21 6.11 6.11 0 00-1.25-.13 6.79 6.79 0 00-2.1.31c-1.15.38-1.72.88-1.67.94s.69-.26 1.79-.49a7.37 7.37 0 012-.16 7.76 7.76 0 011.14.15c.42.07.73.22.75.42s0 .11-.13.18a2 2 0 01-.52.12 9.56 9.56 0 01-1.17.1 10.77 10.77 0 01-2-.13 11.84 11.84 0 00-1.86-.34z" fill="#e0e0e0"/><path d="M509.46 438.52c.05.06.66-.4 1.23-1.47a6.4 6.4 0 00.65-2 6.51 6.51 0 000-1.26 1.58 1.58 0 00-.71-1.39.89.89 0 00-.95.15 2.37 2.37 0 00-.47.56 4.11 4.11 0 00-.54 1.17 4.28 4.28 0 00-.09 2.14c.26 1.22.88 1.75.92 1.7s-.34-.66-.47-1.77a4.62 4.62 0 01.21-1.89 3.69 3.69 0 01.5-1c.22-.35.5-.58.62-.48a1.09 1.09 0 01.34.85 6.2 6.2 0 010 1.14 6.87 6.87 0 01-.46 1.9c-.39 1.03-.86 1.58-.78 1.65z" fill="#e0e0e0"/><path d="M617 364.72c-1.47.69-74.36-1.44-76.2 1.1-2.64 3.66-35.92 74.44-35.92 74.44l19.83 10.39 31.88-56.42 79.85-.17s9-.47 10.13-12.05z" fill="#263238"/><path d="M521.85 411.34l-7.56 23.55-34.95-13.28c1.47-3.26 22.1-3.1 22.1-3.1l4.31-12.69z" fill="#f26322"/><path d="M512.83 421.11a1.52 1.52 0 01.36 2 1.47 1.47 0 01-2 .38 1.61 1.61 0 01-.38-2.12 1.52 1.52 0 012.11-.17M514.29 434.89l1.15-2.94-34.1-11.49s-1.81.1-2 1.26zM500.94 418.12c-.06.17.77.57 1.4 1.44s.8 1.76 1 1.75.3-1.09-.48-2.13-1.86-1.18-1.92-1.06zM496.7 418.24c-.1.15.53.72.83 1.67s.18 1.77.36 1.82.65-.86.24-2-1.37-1.65-1.43-1.49zM493 421.84c.14.1.7-.67.62-1.77s-.74-1.78-.87-1.66.18.8.24 1.71-.2 1.64.01 1.72zM502.81 414.12c0 .18.89.24 1.83.67s1.58 1 1.72.91-.35-1-1.46-1.49-2.12-.21-2.09-.09zM505.22 410.29a3.51 3.51 0 001.76.65 8.52 8.52 0 002 .14 8.74 8.74 0 001.21-.16 2.21 2.21 0 00.69-.21.81.81 0 00.42-.88 1 1 0 00-.6-.67 2.43 2.43 0 00-.69-.16 7.36 7.36 0 00-1.23 0 6.55 6.55 0 00-2 .45c-1.1.44-1.61 1-1.57 1s.66-.3 1.72-.61a7.25 7.25 0 011.89-.28 6.13 6.13 0 011.12.07c.41 0 .73.16.76.36s0 .1-.11.18a1.83 1.83 0 01-.51.15 7.66 7.66 0 01-1.12.18 10.51 10.51 0 01-1.94 0 11.83 11.83 0 00-1.8-.21z" fill="#e0e0e0"/><path d="M505.35 410.62s.62-.44 1.11-1.52a6.37 6.37 0 00.49-2 6.46 6.46 0 00-.05-1.23 1.53 1.53 0 00-.78-1.31.88.88 0 00-.91.21 2.41 2.41 0 00-.43.58 4.21 4.21 0 00-.45 1.17 4.42 4.42 0 00.06 2.1c.34 1.16 1 1.64 1 1.58a15.11 15.11 0 01-.57-1.68 4.4 4.4 0 01.07-1.86 3.94 3.94 0 01.42-1c.2-.35.45-.6.57-.51a1.08 1.08 0 01.4.81 6.08 6.08 0 01.07 1.11 6.69 6.69 0 01-.32 1.88c-.34 1.05-.76 1.6-.68 1.67z" fill="#e0e0e0"/><path d="M523.14 421.31l-22.55-8.12 20.88-65a15.5 15.5 0 0117.77-9.26L607 354.21l1.21 10.48-65.62 1.13z" fill="#263238"/><path d="M500.59 413.19s.14 0 .41.12l1.18.4 4.5 1.58 16.52 5.87-.2.1 15.85-43.86 2.33-6.41a10.63 10.63 0 012-2.71 10.12 10.12 0 012.82-1.88 10.36 10.36 0 013.18-.82c1.1-.06 2.13 0 3.19-.06l12.06-.15 20.24-.22 13.53-.12h4.6a1.84 1.84 0 01.32 0h-1.26l-3.66.09-13.52.24-20.25.32-12.06.17c-1 0-2.12 0-3.16.07a10 10 0 00-3.05.79 9.58 9.58 0 00-4.62 4.38c-.74 2-1.52 4.21-2.32 6.41-6.14 16.87-11.75 32.27-16 43.82v.15l-.15-.05-16.46-6-4.48-1.65-1.17-.45z" fill="#455a64"/><path d="M523.14 421.31c-1.41-.49-2.62-1-4-1.45-.32.68-.39 1.49-.72 2.17l-.46 1.48c1.12.49 2.56.95 3.72 1.33a4.51 4.51 0 003.73-.4c1.06-.73 1.56-2.21 2-3.44l4.84-14.56a130.8 130.8 0 006.11-26.52c-5.44 13.33-10.58 27.79-15.22 41.39z" opacity=".3"/><path d="M618.44 251.15a2.47 2.47 0 01.89-1.44 6.16 6.16 0 013.79-.94 16.09 16.09 0 001.55-5 3.26 3.26 0 01-1.79-.51l-.29-.09c-1.27-.58-1.4-2.48-.59-3.63a7.25 7.25 0 013.47-2.24 12.63 12.63 0 00-2.69 1c-.92.29-2.21 0-2.32-1a2.14 2.14 0 01.15-.86l.54-1.69a1.84 1.84 0 01.74-1.18 4.68 4.68 0 011-.24c1.07-.29 1.63-1.59 2.7-1.89a4.91 4.91 0 012.39.36c.8.18 1.85 0 2.09-.75a7.69 7.69 0 01-2.72-2.3 2.62 2.62 0 01.26-3.3 3.87 3.87 0 012.69-.55c1.05 0 2.35.28 2.63 1.29a2.74 2.74 0 013.35 2.14L639 228c-.76-.81-1.83-1.3-2.48-2.2s-.53-2.51.55-2.74c.4-.09.83 0 1.21-.11s.49-.35.78-.36a1 1 0 01.59.23l5.7 3.72c-.52-1.2-1-2.39-1.54-3.59s-.85-2.62.14-3.3 2.35.29 2.55 1.44a1.84 1.84 0 012.25 1.7 1.88 1.88 0 012.21 2.87 5.3 5.3 0 012.71.81 1.64 1.64 0 012.64-1.13 2.91 2.91 0 01.42-1.62 1 1 0 011.47-.17 1.91 1.91 0 013.1-1.86l.94-1.14a2.49 2.49 0 012.42 1.26c.4.88-.27 2.14-1.23 2.06.68 0 .52 1.06.13 1.61l-1.65 2.3a2.1 2.1 0 012.62-.23 1.64 1.64 0 012.36 0 1.33 1.33 0 012.38.4c.16-.44.77-.46 1.24-.41a3 3 0 011.88.65c.49.47.48 1.46-.15 1.69.58-.32 1.32.32 1.33 1a2.37 2.37 0 01-.95 1.67 5.94 5.94 0 00-1.36 1.43 2.82 2.82 0 011.91-.4 7.24 7.24 0 013.45.69c.2-.47.85-.49 1.35-.39a8.1 8.1 0 014.11 2.24c.53.53 1 1.33.64 2a2.05 2.05 0 01-.76.67l-3.66 2.27a9.9 9.9 0 015 3.54c.73.43 1.66.47 2.32 1s.61 1.92-.23 1.92a1.54 1.54 0 01.44 1.8 1.34 1.34 0 01-.57.63 2 2 0 01-.4.46 3 3 0 01-1 .51 1.93 1.93 0 01-1.64.76 7.61 7.61 0 011.74 2.06 3.25 3.25 0 010 3.35c0 .06-.09.1-.13.15a1.57 1.57 0 01-.7 1 1.36 1.36 0 01.13.89 3.57 3.57 0 01.8 6.26c-.84.6-2.4.49-2.48-.54a2.79 2.79 0 01-2.11 1.54 2.7 2.7 0 01-1.41 3.71 2.87 2.87 0 01-.9 4.69 2.2 2.2 0 11-4.15 1.44 4.68 4.68 0 01-1.65 2.06 1.62 1.62 0 01-2.28-.59 3 3 0 01-4.43 1.44 2 2 0 01-3.88.34l-5-.05a17.66 17.66 0 01-3.33-.24 9 9 0 01-3.84-1.78 3.15 3.15 0 00-1.17-.71 3.2 3.2 0 00-1.54.24 8.17 8.17 0 01-7.75-1.83 4.23 4.23 0 00-1-.82 3.72 3.72 0 00-1.49-.2 14.65 14.65 0 01-3.66-.53 3.89 3.89 0 01-2.59-1.7c-.48-.94.09-2.4 1.15-2.39a2.3 2.3 0 00-.56-1.91 1.37 1.37 0 00-1.86-.08 1 1 0 00.45 1.61c-1.14.79-2.91-.32-2.94-1.7a2.73 2.73 0 012.73-2.55 6.25 6.25 0 01-.08-3 2.24 2.24 0 01-3.05.34 3.87 3.87 0 01-2.5 1.8 2.31 2.31 0 01-2.56-1.4 1.67 1.67 0 011.59-2.14 2 2 0 011.77-2.88 3.07 3.07 0 011.89-3.29 1.64 1.64 0 01-2.32-.9c-.65 1-2.21.76-3.24.16a2.18 2.18 0 01-1.43-2.38z" fill="#263238"/><path d="M618.44 251.15a1.4 1.4 0 00-.06.41 1.78 1.78 0 00.38 1.16 3.92 3.92 0 001.68 1.15 3.43 3.43 0 001.31.22 1.63 1.63 0 001.33-.7H623a1.7 1.7 0 002.42.94l-.07-.13a3.17 3.17 0 00-2 3.37l.09-.1a1.91 1.91 0 00-1.73.93 2 2 0 00-.13 2.09l.1-.15a1.68 1.68 0 00-1.68 1.26 1.83 1.83 0 00.85 2.09 2.7 2.7 0 002.43.23 4.34 4.34 0 002-1.68h-.18a2.36 2.36 0 003.23-.36l-.22-.1a6.45 6.45 0 00.07 3.11l.13-.17a3.08 3.08 0 00-1.88.7 2.57 2.57 0 00-1 1.82 2.14 2.14 0 001 1.87 1.93 1.93 0 002.16.11l.32-.22h-.38a.79.79 0 01-.56-1 .87.87 0 01.95-.7 1.36 1.36 0 011.15.7 2.34 2.34 0 01.26 1.46l.15-.14a1.32 1.32 0 00-1 .47 2 2 0 00-.45 1 1.9 1.9 0 00.14 1.1 2.6 2.6 0 00.67.87 5.34 5.34 0 001.95.94 14.76 14.76 0 002.12.44c1.42.3 3.07-.28 4 1a8.2 8.2 0 004.07 2.09 8.12 8.12 0 002.36.14 12.41 12.41 0 002.32-.5 1.35 1.35 0 011 .11 7.87 7.87 0 01.94.7 9.63 9.63 0 002.15 1.2 13.24 13.24 0 004.92.71l5.06.05-.18-.16a2.14 2.14 0 004.26-.38l-.31.16a3.21 3.21 0 004.74-1.53h-.37a1.47 1.47 0 001.07.89 2.15 2.15 0 001.43-.16 4.75 4.75 0 001.78-2.17h-.36a2.4 2.4 0 104.53-1.58l-.13.27a3.08 3.08 0 001-5l-.06.35a2.9 2.9 0 001.52-4l-.15.31a3 3 0 002.27-1.65l-.4-.07a1.07 1.07 0 00.33.69 1.42 1.42 0 00.66.35 2.39 2.39 0 001.4-.12 3.54 3.54 0 001.81-2.1 3.66 3.66 0 00-.15-2.81 3.84 3.84 0 00-2.09-2l.14.25a1.55 1.55 0 00-.15-1l-.08.27a1.79 1.79 0 00.8-1.14v.09a3.2 3.2 0 00.41-3.19 6.94 6.94 0 00-2-2.67l-.17.37a2.12 2.12 0 001.83-.84l-.11.08a2.7 2.7 0 001.5-1.06l-.06.06a1.62 1.62 0 00.79-1.31 1.78 1.78 0 00-.65-1.47l-.14.39a.83.83 0 00.69-.35 1.34 1.34 0 00.22-.68 1.58 1.58 0 00-.54-1.28 15.83 15.83 0 00-2.35-1l.07.05a10.25 10.25 0 00-5.11-3.62v.39l1.67-1 1.27-.78a11.34 11.34 0 001.28-.85 1.32 1.32 0 00.41-.77 1.58 1.58 0 00-.14-.84 3.57 3.57 0 00-1-1.24 8.32 8.32 0 00-2.55-1.62 9 9 0 00-1.45-.43 2.44 2.44 0 00-.81 0 1 1 0 00-.73.53l.31-.1a6.1 6.1 0 00-2.78-.68c-.47 0-.92-.05-1.4 0a2.32 2.32 0 00-1.43.46l.33.26c.41-.81 1.41-1.24 2-2.14a1.62 1.62 0 00.19-1.61 1.41 1.41 0 00-.6-.61 1 1 0 00-.91 0l.18.39a1 1 0 00.58-.63 1.42 1.42 0 000-.79 1.36 1.36 0 00-.4-.68 2 2 0 00-.64-.39 5.36 5.36 0 00-1.39-.28 2.32 2.32 0 00-.74 0 .86.86 0 00-.66.53h.41a1.54 1.54 0 00-2.78-.47h.35a1.83 1.83 0 00-2.68 0h.28a2.32 2.32 0 00-2.89.24l.32.28 1.4-1.95a2.66 2.66 0 00.58-1.12 1.46 1.46 0 000-.69.58.58 0 00-.22-.35.61.61 0 00-.41-.13v.42a1.44 1.44 0 001.35-.84 1.75 1.75 0 00.07-1.56 2.74 2.74 0 00-2.6-1.34h-.09l-.06.08-.94 1.13h.29a2.12 2.12 0 00-3.43 2.07l.36-.17a1 1 0 00-1-.32 1.29 1.29 0 00-.83.51 3 3 0 00-.45 1.71l.35-.13a1.7 1.7 0 00-1.89-.26 1.72 1.72 0 00-1.1 1.53l.31-.17a5.52 5.52 0 00-2.82-.84l.16.32a2.08 2.08 0 00-2.44-3.17l.27.18a2 2 0 00-2.5-1.89l.24.15a2.27 2.27 0 00-.77-1.29 1.92 1.92 0 00-1.41-.51 1.49 1.49 0 00-1.2.9 2.58 2.58 0 00-.12 1.45 11.91 11.91 0 00.94 2.57l1 2.44.27-.23-3.52-2.29-1.65-1.26a4.3 4.3 0 00-.93-.54.84.84 0 00-.61.1c-.17.09-.3.19-.42.25a2.71 2.71 0 01-.93.07 1.33 1.33 0 00-1 .49 2.18 2.18 0 00-.2 2.05 3.84 3.84 0 001.31 1.53 12.33 12.33 0 011.45 1.2l.11-.29-2.7.28.18.14a2.89 2.89 0 00-3.56-2.27l.21.11a1.86 1.86 0 00-1.38-1.2 6.54 6.54 0 00-1.74-.22 5 5 0 00-1.72.19 2.1 2.1 0 00-1.29 1.15 3.13 3.13 0 00.56 3.17 8.9 8.9 0 002.48 1.93l-.06-.16a1.09 1.09 0 01-.94.68 2.79 2.79 0 01-1.28-.1 9 9 0 00-1.31-.33 1.94 1.94 0 00-1.33.26c-.78.47-1.24 1.25-1.95 1.58a9.93 9.93 0 01-1.17.3 1.59 1.59 0 00-.8 1l-.71 2.22a1.37 1.37 0 00.09 1.18 1.57 1.57 0 001 .64 2.49 2.49 0 001.12 0 5.26 5.26 0 001-.37 5.2 5.2 0 011.86-.66v-.2a12.64 12.64 0 00-2.22 1.06 4.15 4.15 0 00-1.55 1.65 3.07 3.07 0 00-.15 2.08 1.87 1.87 0 001.34 1.34 3.25 3.25 0 001.83.51l-.08-.08a16.05 16.05 0 01-1.52 5 9.25 9.25 0 00-2.53.31 3.46 3.46 0 00-1.53.89 2.5 2.5 0 00-.55.9 1.17 1.17 0 00-.07.33 2.49 2.49 0 01.66-1.19 3.57 3.57 0 011.51-.85 9.6 9.6 0 012.51-.28 16.18 16.18 0 001.58-5v-.09h-.09a3 3 0 01-1.74-.5 1.71 1.71 0 01-1.22-1.23 2.87 2.87 0 01.15-2 4 4 0 011.49-1.56 12.55 12.55 0 012.18-1l.63-.24h-.67a5.63 5.63 0 00-2 .66 4.29 4.29 0 01-1 .36 2.3 2.3 0 01-1 0 1.34 1.34 0 01-.83-.53 1.14 1.14 0 01-.06-1l.71-2.2a1.32 1.32 0 01.66-.84 9.87 9.87 0 001.19-.3c.81-.39 1.27-1.18 2-1.59a3 3 0 012.44.1 2.86 2.86 0 001.4.12 1.39 1.39 0 001.16-.88v-.11l-.1-.05a8.93 8.93 0 01-2.4-1.87 2.86 2.86 0 01-.51-2.87 1.83 1.83 0 011.11-1A4.81 4.81 0 01630 225a6.5 6.5 0 011.65.22 1.51 1.51 0 011.15 1v.16h.16a2.56 2.56 0 013.13 2v.15h.15l2.7-.27h.34l-.23-.25a12.31 12.31 0 00-1.49-1.23 3.47 3.47 0 01-1.19-1.38 1.84 1.84 0 01.15-1.71.92.92 0 01.73-.35 2.88 2.88 0 001.06-.11c.35-.17.58-.4.81-.32a4.65 4.65 0 01.82.49l1.72 1.12 3.52 2.3.51.34-.24-.57c-.35-.8-.7-1.62-1.05-2.44a11.29 11.29 0 01-.9-2.49 2.22 2.22 0 01.08-1.23 1.15 1.15 0 01.9-.67 1.85 1.85 0 011.76 1.49v.21l.2-.06a1.67 1.67 0 012 1.52v.29l.27-.11a1.68 1.68 0 012 2.57l-.23.31h.39a5.15 5.15 0 012.61.78l.32.2v-.37a1.44 1.44 0 012.3-1l.32.32v-.46a2.68 2.68 0 01.36-1.49c.26-.37.92-.51 1.16-.18l.57.76-.21-.93a1.71 1.71 0 012.76-1.67l.16.14.14-.16.94-1.14-.16.08a2.3 2.3 0 012.21 1.1c.37.71-.19 1.87-1 1.8v.42c.14 0 .19 0 .23.18a1 1 0 010 .48 2.4 2.4 0 01-.51 1c-.47.64-.93 1.29-1.4 1.94l.31.28a1.93 1.93 0 012.35-.22l.16.12.12-.14a1.43 1.43 0 012.05 0l.21.26.14-.3a1.11 1.11 0 012 .33l.1 1.07.32-1c.08-.27.55-.33 1-.29a5.2 5.2 0 011.27.25 1.2 1.2 0 01.79.79.73.73 0 01-.33.9l.18.39c.3-.18.74.07.92.43a1.2 1.2 0 01-.17 1.18c-.48.78-1.49 1.2-2 2.18l-.51.94.84-.67c.63-.5 1.63-.34 2.53-.32a5.65 5.65 0 012.58.63l.22.12.09-.22c.11-.31.63-.36 1.06-.27a7.21 7.21 0 011.37.41 7.73 7.73 0 012.42 1.52 3.14 3.14 0 01.84 1.1.91.91 0 01-.17 1.12 11.36 11.36 0 01-1.2.8l-1.27.79-1.68 1-.41.25.46.14a9.77 9.77 0 014.89 3.47c.8.45 1.7.5 2.29 1a1.11 1.11 0 01.37.92c0 .35-.19.63-.46.62h-.69l.55.42a1.36 1.36 0 01.49 1.11 1.19 1.19 0 01-.59 1 2.3 2.3 0 01-1.26.89h-.07v.05a1.7 1.7 0 01-1.45.67l-.65-.06.49.44a6.38 6.38 0 011.91 2.5 2.72 2.72 0 01-.32 2.75v.06a1.38 1.38 0 01-.6.88l-.17.1.09.18a1.18 1.18 0 01.11.75v.18l.17.06a3.45 3.45 0 011.64 1.76 3.26 3.26 0 01.13 2.49 3.18 3.18 0 01-1.56 1.84 2 2 0 01-1.15.1.78.78 0 01-.67-.66v-.83l-.35.75a2.57 2.57 0 01-2 1.42h-.31l.16.27a2.5 2.5 0 01-1.3 3.41l-.36.11.3.25a2.51 2.51 0 01.72 2.46 2.47 2.47 0 01-1.55 1.88l-.21.06.07.2a2.06 2.06 0 01-1.3 2.56 2.08 2.08 0 01-2.46-1.25l-.15-.45-.22.42a4.34 4.34 0 01-1.62 2 1.4 1.4 0 01-1.94-.51l-.19-.57-.18.58a2.72 2.72 0 01-1.83 1.66 2.69 2.69 0 01-2.31-.32l-.32-.24v.4a1.82 1.82 0 01-1.68 1.8 1.86 1.86 0 01-1.82-1.49v-.16h-.16l-5.06-.05a12.51 12.51 0 01-4.79-.67 9.29 9.29 0 01-2.07-1.15 7.94 7.94 0 00-1-.73 1.79 1.79 0 00-1.28-.14 11.88 11.88 0 01-2.27.5 8.06 8.06 0 01-6.16-2.13 4.31 4.31 0 00-.9-.72 2.61 2.61 0 00-1.14-.27 17 17 0 01-2.16-.13 14.46 14.46 0 01-2.08-.42 4.89 4.89 0 01-1.82-.88 1.77 1.77 0 01-.71-1.67 1.27 1.27 0 011.14-1.2h.14v-.14a2.61 2.61 0 00-.3-1.64 1.68 1.68 0 00-1.4-.85 1.2 1.2 0 00-1.26 1 1.08 1.08 0 00.82 1.27l-.06-.26a1.65 1.65 0 01-1.84-.11 1.86 1.86 0 01-.88-1.62 2.62 2.62 0 012.59-2.26h.18l-.05-.17a6.09 6.09 0 01-.08-3l.12-.54-.35.44a2.13 2.13 0 01-2.88.33l-.1-.09-.07.12a4.05 4.05 0 01-1.85 1.59 2.43 2.43 0 01-2.23-.19 1.63 1.63 0 01-.77-1.85 1.47 1.47 0 011.46-1.14h.2l-.1-.18a1.9 1.9 0 011.68-2.74h.11v-.11a3 3 0 011.83-3.21l-.06-.13a1.56 1.56 0 01-2.22-.85v-.13l-.07.12a1.56 1.56 0 01-1.24.66 3.26 3.26 0 01-1.27-.21 3.79 3.79 0 01-1.66-1.1 1.76 1.76 0 01-.4-1.12c-.02-.22.02-.36.01-.36z" fill="#455a64"/><path d="M641 288c.08-2.66.14-4.76.12-4.76s-9.09-1.31-9.31-10.38c-.1-4.37.42-13.41 1-21.58a16.9 16.9 0 0116.66-15.74h.88c9.44.44 14.34 8.71 13.64 18.13l-1 34.51-5.38 13.13c-5.36 5.87-16.94-5.35-16.63-13.3z" fill="#c78976"/><path d="M641.08 283.18a21.86 21.86 0 0011.76-3.63s-2.71 6.95-11.77 6.24z" fill="#8b5d54"/><path d="M636.3 259.3a1.29 1.29 0 001.27 1.29 1.24 1.24 0 001.32-1.18 1.3 1.3 0 00-1.27-1.29 1.24 1.24 0 00-1.32 1.18zM634.73 255c.16.17 1.13-.57 2.53-.58s2.42.67 2.57.5-.09-.38-.54-.7a3.57 3.57 0 00-2.06-.61 3.37 3.37 0 00-2 .68c-.44.29-.58.6-.5.71zM648.6 260a1.29 1.29 0 001.26 1.29 1.23 1.23 0 001.32-1.18 1.29 1.29 0 00-1.26-1.29 1.23 1.23 0 00-1.32 1.18zM648.39 255.37c.16.16 1.13-.57 2.53-.59s2.42.68 2.57.5-.09-.38-.54-.69a3.54 3.54 0 00-2.07-.61 3.42 3.42 0 00-2 .67c-.43.35-.57.64-.49.72zM643.51 266.13a9 9 0 00-2.27-.38c-.35 0-.69-.1-.75-.34a1.84 1.84 0 01.22-1.06c.33-.86.67-1.77 1-2.72a47.68 47.68 0 002.29-7.12c-.16 0-1.44 3-2.85 6.92l-1 2.74a2 2 0 00-.17 1.4.9.9 0 00.59.51 2.38 2.38 0 00.61.08 8.73 8.73 0 002.33-.03zM648 250.66c.14.38 1.53.18 3.17.37s3 .61 3.18.27c.09-.17-.14-.52-.68-.88a5.56 5.56 0 00-4.83-.49c-.6.25-.9.55-.84.73zM635.24 250.27c.24.32 1.2 0 2.36 0s2.13.23 2.36-.1c.1-.16-.05-.47-.48-.78a3.33 3.33 0 00-1.91-.54 3.29 3.29 0 00-1.89.62c-.41.32-.55.64-.44.8z" fill="#263238"/><path d="M642.17 269.72a5.48 5.48 0 00.68 1.52 2 2 0 001.36.89 1.78 1.78 0 001.54-.75 2.79 2.79 0 00.5-1.68c0-.54-.21-1.19-.74-1.28a1.4 1.4 0 00-.66.11l-2.86 1" fill="#8b5d54"/><path d="M643.17 272.08a3.76 3.76 0 001.51-.11 2.15 2.15 0 001.18-1 2.29 2.29 0 00.13-1.84 2.22 2.22 0 00-.23-.43c-.1-.12-.08-.11-.2-.1a4 4 0 00-.46.15l-.47.17-1.64.55a4.7 4.7 0 01-1.55.38 5.73 5.73 0 011.43-.72c.45-.19 1-.41 1.6-.64l.46-.19c.17-.06.3-.12.52-.18a.62.62 0 01.42 0 .87.87 0 01.3.26 2.57 2.57 0 01.09 2.79 2.41 2.41 0 01-1.48 1.08 2.34 2.34 0 01-1.22 0c-.27-.04-.4-.14-.39-.17zM630.42 243.69a10.37 10.37 0 01.2-1.36 4.15 4.15 0 011.21-1.7c1.73-1.7 3.55-3.45 5.73-4 1.33-.34 2.72-.21 4.05-.54a25.13 25.13 0 002.42-.88 19.83 19.83 0 0110.28-.55 16.33 16.33 0 015.52 1.79 19.64 19.64 0 014.95 4.5 30.31 30.31 0 015.51 8.88 14.7 14.7 0 01.79 8.38c-.65 2.79-2.63 5.3-5.05 5.69l-.84-1.15-1.34-1.7c.22.68 0 .63-.57 1a1.16 1.16 0 01-1.6-.59c-.49.55-1.44-.14-1.24-.89-.56.26-1.21-.53-1-1.2-.65.19-.93-.85-1.21-1.56a8.55 8.55 0 00-.55-1.09 7 7 0 01-.72-3.86 6.87 6.87 0 01-.87-3.79c0-.84-.07-1.68-.1-2.52l-.42-.62a1.35 1.35 0 01-1 1.22 2.9 2.9 0 01-1.51-.15l-1.46-.41-1 .19a3.77 3.77 0 01-.48 2.41 2.3 2.3 0 01-1 1.28.71.71 0 01-.92-.84.78.78 0 01-1.19-.29 2.55 2.55 0 01-.21-1.56 6.58 6.58 0 011.49-3.51l-2.78 2.21a1.3 1.3 0 01-.67.34.68.68 0 01-.79.69 1.73 1.73 0 01-.9-.72c-.58-.72-1.15-1.9-.53-2.6a.56.56 0 01-.18-.84l-3.12 2c.31-.15.59.33.5.71a1.62 1.62 0 01-.68.82 2.29 2.29 0 01.22 1.42c.57-.43 1.29.51 1.06 1.25a1.68 1.68 0 01-1.66 1.09 1.16 1.16 0 01-1.23-1c-.66.08-1.21-.86-.92-1.57-.49.28-.83-.59-.8-1.23a9.16 9.16 0 01.73-3.23.16.16 0 01-.24 0 .19.19 0 010-.13l-1.86 3.65a9.56 9.56 0 00-1.18 3.28c0 .48-.16 1.14-.57 1.15a.72.72 0 01-.31-.11 6 6 0 01-2.39-3.3 4.46 4.46 0 01-.29-1.45 19.12 19.12 0 01.72-3.01z" fill="#263238"/><path d="M643.34 242.42a1.42 1.42 0 01-.32-.75 1 1 0 01.33-.82 1.05 1.05 0 011.09-.18l.22.1-.08-.24a1.12 1.12 0 01.4-1.21 1.1 1.1 0 011.39.17l.19-.16a.59.59 0 01-.06-.14.65.65 0 01.13-.52.75.75 0 01.48-.25 1.33 1.33 0 01.56.07 1.46 1.46 0 00.61.2c.27 0 .41-.22.55-.29a2 2 0 01.46-.23 2.12 2.12 0 01.91-.13 2.44 2.44 0 011.28.42c.26.19.38.33.4.32a1.17 1.17 0 00-.34-.4 2.43 2.43 0 00-1.33-.52 2.33 2.33 0 00-1 .11 2.15 2.15 0 00-.51.24c-.17.1-.3.24-.44.24a1.49 1.49 0 01-.51-.18 1.54 1.54 0 00-.68-.1 1 1 0 00-.64.34.88.88 0 00-.19.74.7.7 0 00.11.23l.2-.16a1.35 1.35 0 00-1.72-.2 1.32 1.32 0 00-.46 1.49l.14-.14a1.22 1.22 0 00-1.29.25 1.16 1.16 0 00-.07 1.56c.11.11.18.15.19.14zM637 243.5a1.75 1.75 0 01-.42-.74 1.26 1.26 0 01.14-.94 1.3 1.3 0 011-.63h.18l-.11-.14a1.58 1.58 0 01-.31-1.4.82.82 0 01.55-.52.65.65 0 01.73.16l.65.82-.44-.95a1.32 1.32 0 010-1.1 1.2 1.2 0 01.93-.66 1.31 1.31 0 01.83.15l.28.17-.1-.31c-.13-.44.35-.91.79-.93a2.17 2.17 0 011.29.45l.23.15v-.27a.89.89 0 01.38-.86 1.7 1.7 0 01.88-.31 4.57 4.57 0 011.6.17 8.56 8.56 0 011.31.6 1.29 1.29 0 00-.3-.24 4.16 4.16 0 00-1-.49 4.33 4.33 0 00-1.66-.23 1.83 1.83 0 00-1 .33 1.16 1.16 0 00-.48 1.08l.18-.12a2.32 2.32 0 00-1.44-.5 1.16 1.16 0 00-.77.38.89.89 0 00-.24.86l.19-.14a1.51 1.51 0 00-1-.19 1.43 1.43 0 00-1.11.81 1.52 1.52 0 000 1.3l.2-.12a.9.9 0 00-1-.24 1.12 1.12 0 00-.69.67 1.79 1.79 0 00.37 1.6l.07-.16a1.47 1.47 0 00-1.16.74 1.33 1.33 0 00-.11 1 1.24 1.24 0 00.33.57c.12.15.23.19.23.18zM623.43 243.51a.93.93 0 01.38-.66 1.21 1.21 0 01.86-.23 3.65 3.65 0 011.17.39l.13.06v-.15a1.1 1.1 0 011-1 3.2 3.2 0 011.76.44l.75.36-.63-.55a.9.9 0 01.18-1.28 2 2 0 011.59-.23h.08l.49.09-.39-.31a1 1 0 01.2-1.44 1.46 1.46 0 011.59.29l.48.45-.3-.58a2.17 2.17 0 01.2-2.2 2 2 0 011.56-.82 2.26 2.26 0 011.16.26c.25.13.37.24.38.22l-.08-.09a1.85 1.85 0 00-.26-.2 2.31 2.31 0 00-1.21-.33 2.17 2.17 0 00-1.71.84 2.37 2.37 0 00-.25 2.42l.19-.14a1.7 1.7 0 00-1.87-.34 1.24 1.24 0 00-.62.87 1.09 1.09 0 00.34 1l.11-.23h-.08a2.21 2.21 0 00-1.79.29 1.23 1.23 0 00-.45.79 1 1 0 00.26.85l.13-.2a3.34 3.34 0 00-1.88-.43 1.28 1.28 0 00-1.12 1.2l.13-.09a3.62 3.62 0 00-1.23-.36 1.31 1.31 0 00-.93.29 1 1 0 00-.33.53c-.02.15 0 .22.01.22zM631.57 231.32a.84.84 0 00.32.15 4.2 4.2 0 001 .13 2.87 2.87 0 011.39.34.9.9 0 01.44.65.65.65 0 01-.32.71l.16.14c.08-.32.5-.49.88-.67a4.28 4.28 0 011.22-.41 1.52 1.52 0 011.18.29 1 1 0 01.43 1l-.06.31.25-.19a2.79 2.79 0 011.7-.53 3.13 3.13 0 011.39.32 4.29 4.29 0 011 .78 1.12 1.12 0 00-.19-.29 2.66 2.66 0 00-.77-.62 3.11 3.11 0 00-1.45-.39 2.91 2.91 0 00-1.84.54l.18.12a1.23 1.23 0 00-.51-1.22 1.79 1.79 0 00-1.37-.34 4.45 4.45 0 00-1.29.43 4.63 4.63 0 00-.58.31.94.94 0 00-.42.53l-.06.24.22-.1a.88.88 0 00.45-1 1.09 1.09 0 00-.55-.79 2.92 2.92 0 00-1.49-.31 4.7 4.7 0 01-1-.07c-.19-.03-.3-.07-.31-.06zM644.45 227.56a4 4 0 01.65.15 1.64 1.64 0 01.6.46 1.36 1.36 0 01.33.88v.13h.13a.84.84 0 01.88.6 2.57 2.57 0 01-.07 1.39l-.12.48.34-.37v-.06a1.07 1.07 0 01.9-.29 1.22 1.22 0 01.79.43 2 2 0 01.38 1.53 3.62 3.62 0 01-.38 1.06 2.47 2.47 0 00-.19.39 1.36 1.36 0 00.31-.34 3 3 0 00.46-1.08 2 2 0 00-.37-1.71 1.41 1.41 0 00-2.05-.17l-.07.08.22.11a2.61 2.61 0 000-1.54 1 1 0 00-1.15-.72l.13.11a1.53 1.53 0 00-.41-1 1.58 1.58 0 00-.68-.45 1.42 1.42 0 00-.52-.08zM654.79 236.15a.81.81 0 00.34-.05 2 2 0 00.8-.47 2.24 2.24 0 00.68-1.21 1.2 1.2 0 01.23-.68c.16-.16.47-.24.69-.52a1.28 1.28 0 00-.18-1.73v.19a4.15 4.15 0 001.2-1.4 1.69 1.69 0 00.23-.68s-.12.24-.35.61a4.44 4.44 0 01-1.22 1.28l-.13.09.13.1a1 1 0 01.12 1.38c-.15.21-.43.28-.67.51a1.44 1.44 0 00-.28.81 2.1 2.1 0 01-.57 1.12 3.34 3.34 0 01-1.02.65zM657.84 238.64a.51.51 0 00.2.05 4.05 4.05 0 00.61 0 3.47 3.47 0 002-.9h-.17a2.15 2.15 0 001.42.91 2.19 2.19 0 00.95 0 1.38 1.38 0 00.85-.56 3.25 3.25 0 00.13-.35.49.49 0 01.18-.22 1.43 1.43 0 01.6-.21 2 2 0 00.67-.21.7.7 0 00.41-.59l-.17.1a2.29 2.29 0 001.54.17 2.47 2.47 0 001.06-.55 1.84 1.84 0 00.47-.61.59.59 0 00.09-.26 3.34 3.34 0 01-.65.77 2.37 2.37 0 01-1 .46 2.09 2.09 0 01-1.39-.18l-.16-.09v.18a.47.47 0 01-.29.39 1.83 1.83 0 01-.6.18 1.81 1.81 0 00-.71.24.77.77 0 00-.26.33 2.38 2.38 0 01-.12.33 1.17 1.17 0 01-.7.44 2 2 0 01-.84 0 2 2 0 01-1.28-.79l-.07-.1-.09.09a3.41 3.41 0 01-1.82.92c-.57.07-.86.03-.86.06zM677.06 248.09v-.08a1.83 1.83 0 00.07-.26 2.55 2.55 0 000-1 5.88 5.88 0 00-.55-1.47 6.83 6.83 0 00-.49-.85 1.67 1.67 0 00-.41-.38.71.71 0 00-.62 0l.15.12a1.68 1.68 0 00-2.61-1.69l.2.11a1.16 1.16 0 00-.39-1 1.08 1.08 0 00-1.06-.22 1.14 1.14 0 00-.53.33l.22.1a.74.74 0 00-.21-.61 1 1 0 00-.55-.29 2.3 2.3 0 00-1.1.18l.14.07a1.76 1.76 0 00-1-.86 2.51 2.51 0 00-1.24-.1 6.25 6.25 0 00-2 .78l.13.12a.46.46 0 000-.44.72.72 0 00-.29-.26 1.22 1.22 0 00-.66-.16 3.8 3.8 0 00-1 .21 2.92 2.92 0 00-.59.29.71.71 0 00-.19.14s.28-.16.81-.33a3.84 3.84 0 011-.17 1.13 1.13 0 01.58.16c.19.1.33.3.23.48l-.16.26.28-.14a6.41 6.41 0 011.93-.73 2.4 2.4 0 011.12.11 1.57 1.57 0 01.89.75v.09h.11a2.12 2.12 0 011-.17c.29 0 .6.33.55.61l-.08.44.3-.33a.93.93 0 01.41-.26.83.83 0 01.82.17.91.91 0 01.31.77v.27l.22-.16a1.49 1.49 0 011.68 0 1.52 1.52 0 01.58 1.43v.21l.19-.09c.28-.14.59.11.78.35a5.29 5.29 0 01.49.81 6.15 6.15 0 01.59 1.42 3.45 3.45 0 01-.05 1.27zM675 255.35a.67.67 0 00.14-.15 3.07 3.07 0 00.34-.48 1.75 1.75 0 00.28-.91 1.31 1.31 0 00-.14-.59 1 1 0 00-.51-.47v.14a1.18 1.18 0 00-1.1-1.91l.1.19a1 1 0 00.06-1.13 1.43 1.43 0 00-1-.59h-.56a.48.48 0 01-.32-.33 2.55 2.55 0 00-.28-.58 1.09 1.09 0 00-.57-.37 5.79 5.79 0 00-1.34-.15 1.5 1.5 0 01-1.06-.41 5.75 5.75 0 01-.3-.51 1.26 1.26 0 00-.48-.44 1.33 1.33 0 00-1.18 0l.13.17a1 1 0 000-1.17 1.4 1.4 0 00-.9-.55 4.43 4.43 0 00-1.66.07 5 5 0 00-1 .31 1 1 0 00-.33.17 13.76 13.76 0 011.38-.36 4.48 4.48 0 011.6 0 1.27 1.27 0 01.78.48.81.81 0 010 .93l-.3.37.43-.21a1.13 1.13 0 011 0 .88.88 0 01.38.36c.1.15.18.35.32.53a1.39 1.39 0 00.57.39 3.06 3.06 0 00.66.12 6.71 6.71 0 011.29.14.84.84 0 01.44.29 1.94 1.94 0 01.25.52.72.72 0 00.49.47 3.27 3.27 0 00.59.05 1.16 1.16 0 01.86.48.7.7 0 010 .84l-.22.24.32-.05a1 1 0 011 .53 1 1 0 01-.11 1.05l-.08.1h.12a1 1 0 01.57.9 1.78 1.78 0 01-.22.85c-.27.43-.44.66-.44.67zM675.8 269s.09 0 .25-.06a1.71 1.71 0 00.62-.4 1.86 1.86 0 00.51-1 1.89 1.89 0 00-.4-1.45v.13a3.45 3.45 0 00.77-1.2 1.39 1.39 0 000-.81 1.06 1.06 0 00-.54-.67v.22a1.44 1.44 0 00.74-1.26 1.62 1.62 0 00-.19-.84 1.34 1.34 0 00-.6-.58c-.24-.13-.34-.25-.32-.49a2 2 0 00-.11-.76 2.46 2.46 0 00-.85-1.08c-.32-.28-.61-.54-.89-.76a4.19 4.19 0 00-1.48-.86 2 2 0 00-.46-.08h-.16s.22 0 .59.15a4.55 4.55 0 011.39.9l.87.78a2.42 2.42 0 01.77 1 1.87 1.87 0 01.09.68.61.61 0 00.1.42 1 1 0 00.33.28 1.31 1.31 0 01.07 2.25l-.23.11.23.11a1 1 0 01.41 1.2 3.32 3.32 0 01-.7 1.12v.14a1.77 1.77 0 01.39 1.3 1.68 1.68 0 01-.43 1 2.66 2.66 0 01-.77.51zM654.65 246.79a1.8 1.8 0 00.78-.24 2 2 0 00.72-.53 1.38 1.38 0 00.34-1.07.77.77 0 00-.08-.27l-.06.17a1.23 1.23 0 00.69-.78 1.13 1.13 0 00-.09-.83c-.25-.43-.57-.5-.57-.47a1.85 1.85 0 01.41.54 1 1 0 010 .69 1 1 0 01-.57.61h-.11v.12a.73.73 0 01.06.21 1.23 1.23 0 01-.27.89 2.33 2.33 0 01-.63.52 3.66 3.66 0 00-.62.44zM649 243.57a1.55 1.55 0 01-.09-.94 1 1 0 01.66-.74 1.14 1.14 0 011.19.3l.14.16.06-.21a2 2 0 01.35-.72 1 1 0 01.67-.4c.41 0 .83.39.69.72l.23.07a2 2 0 01.8-1.2 1.84 1.84 0 011.12-.32 3 3 0 011 .28.71.71 0 00-.24-.19 1.92 1.92 0 00-.8-.25 2 2 0 00-1.24.3 2.16 2.16 0 00-.92 1.33l.24.07a.74.74 0 00-.19-.76 1 1 0 00-.74-.3 1.24 1.24 0 00-.86.49 2.38 2.38 0 00-.38.81h.2a1.34 1.34 0 00-1.43-.33 1.21 1.21 0 00-.74.9 1.29 1.29 0 00.08.75c.14.12.2.19.2.18z" fill="#455a64"/><path d="M663.26 260.34c.16-.07 6.21-1.92 6.09 4.28s-6.33 4.8-6.34 4.62.25-8.9.25-8.9z" fill="#c78976"/><path d="M665 266.93s.11.08.29.16a1.08 1.08 0 00.81 0 2.7 2.7 0 001.29-2.38 3.54 3.54 0 00-.28-1.55 1.25 1.25 0 00-.79-.85.55.55 0 00-.65.29c-.08.17 0 .29-.08.3s-.13-.1-.07-.36a.65.65 0 01.25-.38.8.8 0 01.6-.15 1.52 1.52 0 011.11 1 3.72 3.72 0 01.34 1.73 2.82 2.82 0 01-1.63 2.65 1.16 1.16 0 01-1-.18c-.19-.13-.26-.27-.19-.28z" fill="#8b5d54"/><path d="M603.22 364.8l-2.32-13.34h.14l34.14-10.52s8.47-33.9 10.14-38c2.06-5 9.52-10.7 12.28-10.33 4.79.65 14.77-1.27 8.85 23.49-2.29 9.58-8.2 26.24-12.15 37a14.59 14.59 0 01-12.88 9.53z" fill="#f26322"/><path d="M664 285.84l-23.76 4.32c-.61.7-10.08 16.28-12.15 20.84S619 340.25 619 340.25l-15.86 15.09 7.68 11.6a25.49 25.49 0 0010.08 8.82c7.26 3.52 16.59 7.72 19.8 7.72a18.67 18.67 0 006-1.23h.05v-.05c.26-.49 23.37-49.81 24.81-64.86a51.84 51.84 0 00-7.56-31.5z" fill="#f26322"/><path d="M558 302.68c.34 8.12 3.54 42.51 3.54 42.51l34 19.53 2.51-2.47-33.4-19.67-3.28-40.1a1.7 1.7 0 00-1.74-1.56 1.71 1.71 0 00-1.63 1.76z" fill="#e0e0e0"/><path d="M558 302.68a1.11 1.11 0 010-.21 1.44 1.44 0 01.15-.61 1.72 1.72 0 01.7-.76 1.75 1.75 0 011.42-.14 1.78 1.78 0 011.17 1.33c.07.67.12 1.38.19 2.16.14 1.55.29 3.32.46 5.31.67 8 1.63 19.29 2.76 32.8l-.09-.14 33.42 19.65.23.14-.19.19-.41.39c-.7.7-1.41 1.39-2.1 2.07l-.11.11-.14-.08-34-19.55h-.08v-.09c-1.16-12.74-2.06-23.37-2.63-30.81-.29-3.72-.49-6.65-.6-8.65-.07-1-.1-1.76-.11-2.28v-.79a.55.55 0 010 .2v.59c0 .53.1 1.29.17 2.27.16 2 .39 4.93.69 8.64.64 7.44 1.59 18.06 2.79 30.79l-.09-.14 34 19.51h-.25l2.1-2.07.41-.4v.33l-33.39-19.69-.09-.05v-.1c-1.08-13.51-2-24.84-2.61-32.82-.16-2-.29-3.76-.41-5.31-.07-.77-.11-1.5-.17-2.14a1.65 1.65 0 00-2.4-1.15 1.69 1.69 0 00-.7.71 2.16 2.16 0 00-.09.79z" fill="#263238"/><path d="M564.7 342.6c.06.1-.67.66-1.55 1.36a7.23 7.23 0 01-1.69 1.2c-.08-.08.53-.81 1.43-1.52a4.41 4.41 0 011.81-1.04z" fill="#263238"/><path d="M601.26 353.05l-8.79-6.73-14 3.36s.2 1.23 2 1.83l3.79-.6-7 4.79a3.85 3.85 0 002.7 2.7 7 7 0 013.5 2.5l3.59 3.79h9.59l6.5-.65-1.91-11z" fill="#c78976"/><path d="M666.45 316.09c-2.29 9.58-8.2 26.24-12.15 37a14.59 14.59 0 01-12.88 9.53l-38.2 2.16-2.32-13.34h.14l34.14-10.52s8.47-33.9 10.14-38" fill="none"/><path d="M645.32 302.93s-.06.23-.21.68-.34 1.11-.61 2c-.5 1.75-1.21 4.33-2.08 7.64-1.75 6.62-4.19 16.15-7.07 27.73v.09h-.09l-34.16 10.56h-.14l.16-.23c.74 4.27 1.52 8.76 2.32 13.33l-.21-.17 2.72-.15 35.55-2a14.46 14.46 0 0012.14-8.18c.5-1.08.88-2.22 1.29-3.32s.8-2.19 1.18-3.25q1.15-3.18 2.19-6.11c2.76-7.8 4.86-14.16 6.2-18.59.68-2.21 1.16-3.94 1.48-5.12.16-.58.27-1 .36-1.34s.13-.45.13-.45 0 .16-.09.46-.18.77-.32 1.35c-.3 1.18-.75 2.92-1.41 5.14-1.29 4.45-3.35 10.83-6.07 18.64q-1 2.94-2.17 6.13c-.38 1.06-.77 2.15-1.17 3.25s-.78 2.24-1.3 3.36a14.8 14.8 0 01-12.41 8.41l-35.55 2-2.73.16h-.18v-.18c-.79-4.58-1.57-9.07-2.31-13.34v-.2h.34l34.15-10.48-.11.12c2.92-11.58 5.41-21.09 7.21-27.7.9-3.3 1.64-5.87 2.17-7.62.29-.86.48-1.53.66-2s.14-.62.14-.62zM665.82 302.11a7.77 7.77 0 00-1.76-2.91 11.42 11.42 0 00-7.44-3.13 11.57 11.57 0 00-4.42.86 12.69 12.69 0 00-3.21 1.86 20.87 20.87 0 00-2.43 2.45 3.5 3.5 0 01.49-.8 11.14 11.14 0 011.75-1.88 12.2 12.2 0 017.83-2.9 11.26 11.26 0 017.64 3.34 6.14 6.14 0 011.35 2.19 3.42 3.42 0 01.17.67.77.77 0 01.03.25z" fill="#263238"/><path d="M696.86 324.72c-1.8-4.72-4.6-9.87-9.54-11a15.14 15.14 0 00-15.14 6c-10.49 15.38-16.91 32.48-21.43 50.69a47.44 47.44 0 00-18.67 8.14 64.26 64.26 0 00-6.37 5.24 158.49 158.49 0 00-28.81-2.25c-9.49.23-26.66 5-35 9.59s-14.53 7.17-20.38 14.69c-8.53 11-19.22 21.86-20.48 49.61l185.69-17.26v-48.91c-.99-21.84-2.08-44.11-9.87-64.54z" fill="#455a64"/><path d="M633.18 423.93a7.84 7.84 0 01.25-1.55c.1-.5.22-1.1.32-1.81s.25-1.52.32-2.42a48 48 0 00.29-6.32 51.84 51.84 0 00-.77-7.7 53 53 0 00-2-7.48 50.68 50.68 0 00-2.5-5.81c-.39-.82-.82-1.51-1.16-2.14s-.67-1.16-.94-1.59a8.7 8.7 0 01-.78-1.36 10.13 10.13 0 01.95 1.25c.3.41.65.93 1 1.55s.82 1.31 1.23 2.12a45.29 45.29 0 012.63 5.82 49.77 49.77 0 012.08 7.51 49 49 0 01.74 7.79 44.07 44.07 0 01-.4 6.37c-.09.9-.28 1.71-.41 2.42s-.27 1.31-.4 1.8a10.2 10.2 0 01-.45 1.55zM680.76 400.64a10.28 10.28 0 01-.79-1.44c-.23-.47-.52-1.05-.89-1.71s-.75-1.41-1.24-2.22c-.94-1.64-2.15-3.52-3.6-5.55a67.24 67.24 0 00-11-11.9c-1.91-1.6-3.69-3-5.25-4-.76-.56-1.49-1-2.11-1.42s-1.18-.76-1.63-1a11.38 11.38 0 01-1.38-.9 10.22 10.22 0 011.48.73c.47.24 1 .55 1.68.95s1.39.82 2.17 1.36a61.4 61.4 0 015.35 4 69.1 69.1 0 015.92 5.62 66.7 66.7 0 015.12 6.36 58.63 58.63 0 013.53 5.65c.48.82.84 1.6 1.18 2.27s.61 1.26.82 1.75a9.27 9.27 0 01.64 1.45zM691.4 312.46a3.39 3.39 0 01-.71.25c-.47.17-1.18.32-2 .65a36.48 36.48 0 00-7.1 3.36 44.37 44.37 0 00-9 7.31 57.25 57.25 0 00-8.44 11.47c-4.93 8.9-7.46 17.84-9.24 24.24-.87 3.22-1.53 5.84-2 7.64l-.55 2.08a3.86 3.86 0 01-.23.72 5.36 5.36 0 01.13-.74l.45-2.1c.41-1.83 1-4.46 1.85-7.69s1.89-7.07 3.34-11.25a82.05 82.05 0 015.8-13.15 56 56 0 018.55-11.55 43.82 43.82 0 019.2-7.3 34.92 34.92 0 017.22-3.23c.88-.31 1.61-.43 2.08-.56a4.29 4.29 0 01.65-.15zM562.92 465a4.34 4.34 0 01-1.18.11 14.72 14.72 0 01-3.22-.36 15.73 15.73 0 01-12.43-15.56 13.81 13.81 0 01.37-3.22 4.28 4.28 0 01.36-1.13 27.7 27.7 0 00-.36 4.35 15.92 15.92 0 0012.15 15.2 26.62 26.62 0 004.31.61zM549 463.34a10.27 10.27 0 01-2.47-1.31 28.55 28.55 0 01-9.28-9.73 10.84 10.84 0 01-1.19-2.53 23.14 23.14 0 011.51 2.34 36.06 36.06 0 004.12 5.25 36.54 36.54 0 005 4.37 23.46 23.46 0 012.31 1.61z" fill="#263238"/></g><g><path d="M382.65 397.25c.13.08-5.91 10.75-13.49 23.83s-13.81 23.65-13.94 23.57 5.92-10.74 13.49-23.83 13.82-23.64 13.94-23.57z" fill="#263238"/><path d="M394.68 440.36s-.15-.13-.38-.41l-1-1.25-3.71-4.61c-3.14-3.88-7.56-9.18-12.63-14.87s-9.83-10.67-13.33-14.24l-4.16-4.21-1.12-1.15a3 3 0 01-.37-.43 2.41 2.41 0 01.44.35l1.19 1.09c1 .94 2.49 2.34 4.28 4.09 3.57 3.5 8.38 8.46 13.46 14.16s9.46 11 12.53 15c1.53 2 2.76 3.58 3.58 4.71l.94 1.31a2.69 2.69 0 01.28.46zM353.15 449.59c-.14.11-1.74-2.95-4.21-7.9s-5.8-11.84-9.44-19.46-6.89-14.55-9.23-19.57l-2.73-6-.72-1.63a3.17 3.17 0 01-.22-.58 2.39 2.39 0 01.32.54l.8 1.59 2.89 5.88L340 422l9.3 19.53c1.17 2.45 2.13 4.46 2.83 5.91.31.66.57 1.19.77 1.61a6 6 0 00.25.54z" fill="#263238"/><path d="M353.15 399.45a3.09 3.09 0 01-.33.5c-.27.36-.61.82-1 1.39-.9 1.19-2.23 2.9-3.91 5-3.35 4.16-8.15 9.78-13.51 15.92s-10.21 11.74-13.63 15.8l-4 4.87-1.1 1.32a3.21 3.21 0 01-.41.44 2.39 2.39 0 01.33-.5l1-1.39c.9-1.19 2.23-2.9 3.91-5 3.35-4.17 8.15-9.79 13.51-15.93s10.19-11.72 13.61-15.82l4-4.87 1.1-1.32a3.21 3.21 0 01.43-.41z" fill="#263238"/><path d="M326.6 388.16c-.17 1.84-23.24 79-23.24 79h5.5L333.35 390z" fill="#455a64"/><path d="M326.6 388.16a3.93 3.93 0 01.43.1l1.3.32 5.05 1.28h.1v.1c-3.95 12.78-13.33 42.54-24.32 77.2v.07l-.06.18h-6l.1-.33 16.72-56c2.11-7.09 3.81-12.82 5-16.8l1.78-6.14s0 .15-.08.43-.13.66-.27 1.18c-.28 1.05-.69 2.6-1.24 4.59-1.11 4-2.76 9.72-4.84 16.84-4.14 14.25-10 34-16.56 56.06l-.25-.34h5.5l-.25.18v-.07c11-34.65 20.5-64.38 24.63-77.1l.07.13-5-1.39-1.31-.37c-.34-.06-.5-.12-.5-.12z" fill="#263238"/><path d="M352.44 386.1c.33 1.82-1.25 81.08-1.25 81.08h5.71l2.45-81.18z" fill="#455a64"/><path d="M352.44 386.1a2.23 2.23 0 01.44 0h1.32l5.15-.12h.11v.02c-.3 13.29-1.18 44.34-2.27 80.51v.91h-6.23v-.26c.44-22.69.84-42.95 1.13-57.56.13-7.28.23-13.16.31-17.24 0-3.82.06-5.64.07-6.28v6.28c0 4.06-.05 9.94-.15 17.24-.18 14.6-.52 34.87-1 57.57l-.26-.27h5.71l-.26.25v-.65c1.09-36.18 2.1-67.23 2.59-80.5l.1.1h-6.91z" fill="#263238"/><path d="M382.65 389.07c.18 1.84 22.69 78.11 22.69 78.11h-5.47L375.12 390z" fill="#455a64"/><path d="M382.65 389.07l-.5.08-1.46.2-5.55.72.08-.14c4.22 12.84 13.68 42.17 24.61 76.29.1.3.19.6.28.88l-.24-.18h5.47l-.25.34c-6.43-21.85-12.13-41.37-16.17-55.44-2-7-3.63-12.72-4.71-16.64-.55-2-.95-3.49-1.21-4.52-.14-.52-.21-.9-.27-1.17l-.08-.42c.18.61.69 2.37 1.74 6.06 1.16 3.93 2.81 9.58 4.87 16.59 4.15 14.06 9.9 33.56 16.33 55.39l.1.33h-6l-.06-.18-.29-.88C388.4 432.26 379.06 402.89 375 390v-.12h.13l5.63-.61 1.44-.15z" fill="#263238"/><path d="M287.35 327.82c.35.91 16 45.9 24.95 57.29s21.25 16.38 36 16.94c13.79.53 57.08-8.31 57.08-8.31s9.76-15.71 10.37-17.25-8.31-42.2-12.32-47.44-34.19-2-42.2-7.62-21.52-18.25-29.23-19.79-51.88 7.36-44.65 26.18z" fill="#f5f5f5"/><path d="M287.35 327.82s-.11-.3-.31-.9a11.24 11.24 0 01-.52-2.74 11 11 0 01.79-4.46 15.86 15.86 0 013.63-5c3.39-3.25 8.5-6 14.7-8.36a88.58 88.58 0 0110.16-3.05 76.71 76.71 0 0111.74-1.93 28.17 28.17 0 013.19-.06 10.44 10.44 0 013.19.7 31.5 31.5 0 016 3.08 137 137 0 0111.45 8.38l5.87 4.62c1 .78 2 1.55 3 2.31a12.92 12.92 0 003.28 1.93 23.42 23.42 0 003.75 1.08c1.28.28 2.59.49 3.92.67 2.65.35 5.36.58 8.1.77 5.49.4 11.14.54 16.88 1.32a29.1 29.1 0 014.28.9 10.06 10.06 0 012.07.86 4.32 4.32 0 011.6 1.66 51.47 51.47 0 013.17 8.37c1.75 5.74 3.25 11.65 4.69 17.68s2.81 12.15 3.86 18.43c.07.49.15 1 .2 1.45a6.23 6.23 0 010 .76 2.09 2.09 0 01-.27.78c-.47.85-.95 1.68-1.44 2.5l-2.93 4.88-5.8 9.44-.06.09h-.11c-11.18 2.24-22.08 4.22-32.62 5.86-5.26.79-10.44 1.51-15.53 2-1.27.11-2.54.26-3.8.31s-2.52.15-3.77.13a59.83 59.83 0 01-14.47-1.88 47.73 47.73 0 01-6.61-2.3 41.82 41.82 0 01-11.23-7.19 40.36 40.36 0 01-7.86-9.58c-2-3.42-3.66-6.87-5.22-10.15-3-6.59-5.52-12.64-7.63-18s-3.83-9.93-5.22-13.69-2.44-6.69-3.13-8.68l-.78-2.26c-.17-.51-.25-.77-.25-.77s.11.25.3.76l.82 2.24c.74 2 1.82 4.89 3.21 8.64s3.18 8.35 5.31 13.66 4.63 11.36 7.68 17.93c1.57 3.26 3.2 6.7 5.24 10.09a39.88 39.88 0 007.81 9.48 41.33 41.33 0 0011.12 7.09 48.31 48.31 0 006.6 2.33 59.24 59.24 0 007 1.35 57.23 57.23 0 007.33.49c1.24 0 2.49-.06 3.74-.14s2.52-.19 3.79-.3c5.07-.5 10.24-1.22 15.5-2 10.52-1.64 21.42-3.62 32.59-5.86l-.17.11c1.89-3.06 3.82-6.22 5.8-9.43 1-1.61 1.94-3.24 2.93-4.87.48-.82 1-1.65 1.41-2.49.09-.19.25-.43.22-.56s0-.44 0-.68c0-.47-.12-.94-.19-1.42-1-6.24-2.44-12.38-3.85-18.39s-2.94-11.93-4.68-17.65a50.19 50.19 0 00-3.12-8.27 3.83 3.83 0 00-1.41-1.47 9.75 9.75 0 00-2-.82 28.79 28.79 0 00-4.2-.89c-5.7-.77-11.35-.92-16.84-1.33-2.75-.19-5.47-.43-8.13-.78-1.34-.18-2.66-.4-4-.68a22.93 22.93 0 01-3.82-1.12 13.61 13.61 0 01-3.38-2c-1-.76-2.05-1.54-3.05-2.32-2-1.57-3.94-3.11-5.85-4.64-3.85-3-7.57-5.94-11.4-8.37a31.09 31.09 0 00-5.88-3.06 13.6 13.6 0 00-6.22-.63 77.6 77.6 0 00-11.69 1.88 87.75 87.75 0 00-10.14 3c-6.19 2.27-11.28 5-14.66 8.23a15.38 15.38 0 00-3.62 4.92 10.82 10.82 0 00-.83 4.39 10.22 10.22 0 00.47 2.73c.22.58.3.89.3.89z" fill="#263238"/><path d="M338.5 282.53s7.23.39 11.82 9 15.73 30.05 15.73 30.05l34.77 22.37-8.4 9.18s-34-12.63-35.4-14.63-9.69-28.41-9.69-28.41l-9.86-26.74" fill="#455a64"/><path d="M303.29 276.59l-3.55 5.41-8.57 5.16 16.65 42.1 3.18 12.31s3 7.75 8.76 9.88 43-7 43-7l-9-22.88s0-13.07-.64-17.37-14.69-21.66-14.69-21.66l-8.81-2.35-4.64-4z" fill="#455a64"/><path d="M292.41 286.59s-10.11 4.85-7.73 16.19c1.88 8.93 12.48 33.42 18.08 38.11 9 7.54 16.61-.28 16.61-.28.17-.49 5.62-15.27 5.62-15.27l-17.33-11.6z" fill="#455a64"/><path d="M307.46 313c-.14.07-1.82-2.82-4-6.34-1.08-1.77-2-3.41-2.62-4.61a8.6 8.6 0 01-.91-2c.13-.07 1.81 2.83 4 6.35 1.09 1.76 2 3.4 2.63 4.61a9.48 9.48 0 01.9 1.99zM329 298.7s-.61-.47-1.71-1.28a28 28 0 00-5-2.88l.29-.17c-.09 2-.18 4.25-.29 6.72v.52l-.38-.35-5.32-4.7c-4.49-4-8.53-7.63-11.45-10.28l-3.42-3.16a8.84 8.84 0 01-1.21-1.21 10.42 10.42 0 011.39 1.09l3.54 3c3 2.58 7.06 6.18 11.55 10.17l5.29 4.73-.41.17c.14-2.47.27-4.75.38-6.72v-.3l.27.13a24.78 24.78 0 014.94 3.06c.53.43.93.79 1.2 1.05s.4.39.34.41zM329.71 280.46a24.18 24.18 0 011.27 3.26c.72 2 1.69 4.86 2.72 8l.84 2.53.15.48-.47-.15a8.59 8.59 0 01-3.55-2.28l.37-.15c0 1.56-.08 2.84-.13 3.74a6.24 6.24 0 01-.13 1.4 6.48 6.48 0 01-.11-1.41c0-.89-.05-2.18-.06-3.73v-.53l.37.38a8.26 8.26 0 003.39 2.09l-.32.32-.84-2.52c-1-3.13-1.95-6-2.58-8a23.49 23.49 0 01-.92-3.43zM307.12 343.34a13.74 13.74 0 002.18.42 11.26 11.26 0 005.87-1.18 12 12 0 005.73-6.68c1.18-3.26 2.48-6.85 3.85-10.65l.1.31-1.85-1.17-15.9-10.23.3-.09c-1.6 3.3-2.91 6-3.86 8l-1.08 2.18a5.42 5.42 0 01-.42.75 4.37 4.37 0 01.31-.8l1-2.23c.91-2 2.17-4.71 3.69-8l.1-.21.2.12 16 10.14 1.83 1.17.18.12-.07.19c-1.39 3.79-2.71 7.37-3.9 10.63a12.21 12.21 0 01-6 6.83 10.9 10.9 0 01-6.05 1.06 7.68 7.68 0 01-1.63-.37 1.65 1.65 0 01-.58-.31zM361.83 340s-.09-.13-.21-.4-.3-.71-.51-1.19l-1.83-4.41-6.08-15.24v-.05-6.26c0-2.15-.1-4-.22-5.88a28.74 28.74 0 00-.68-5.37 25.92 25.92 0 00-2.22-4.37 114.5 114.5 0 00-2.29-3.66c-1.43-2.22-2.63-4-3.46-5.22l-.94-1.42a4.16 4.16 0 01-.31-.51s.15.14.39.45l1 1.36c.88 1.19 2.12 2.93 3.6 5.13.74 1.1 1.53 2.32 2.35 3.65a26.37 26.37 0 012.31 4.44 29.42 29.42 0 01.73 5.49c.13 1.9.19 3.88.23 5.9s0 4.26 0 6.28v-.1l5.92 15.3 1.69 4.51c.17.49.31.89.43 1.22a2.38 2.38 0 01.1.35zM334.05 331.55c-.07-.05.64-1.12 1.62-2.91a42.36 42.36 0 003.15-7.34 42.88 42.88 0 001.7-7.8c.24-2 .28-3.31.37-3.31a3.2 3.2 0 01.07.89 23.06 23.06 0 01-.08 2.45 35.11 35.11 0 01-4.88 15.29 24 24 0 01-1.35 2c-.36.5-.57.75-.6.73z" fill="#263238"/><path d="M430.59 435.73l-1 19.9s19.9 7.67 20.08 11.36l-38.65-.5.24-31.06z" fill="#455a64"/><path d="M417.69 453.8a1.58 1.58 0 00-1.11 1.79 1.52 1.52 0 001.76 1.12 1.66 1.66 0 001.17-1.9 1.56 1.56 0 00-2-1" fill="#e0e0e0"/><path d="M411 467.31v-3l37.16.71s1.71.77 1.5 2zM430.25 455.44c0 .19-.95.26-1.89.86s-1.44 1.38-1.61 1.3.12-1.16 1.27-1.86 2.27-.47 2.23-.3zM434.28 457.17c0 .18-.78.49-1.43 1.28s-.85 1.63-1 1.62-.3-1.08.53-2 1.9-1.07 1.9-.9zM436.52 462.05c-.17 0-.42-.91.08-1.94s1.38-1.42 1.46-1.27-.47.71-.87 1.56-.48 1.6-.67 1.65zM430 450.88c-.08.17-.94-.1-2 0s-1.91.38-2 .22.71-.83 2-.88 2.06.51 2 .66z" fill="#263238"/><path d="M443.16 391.4l7.66 18.38s21.26-1.61 23 1.65l-35.11 16.14-13.11-28.16z" fill="#455a64"/><path d="M439.27 413.25a1.57 1.57 0 00-.24 2.1 1.51 1.51 0 002.07.25 1.67 1.67 0 00.24-2.22 1.59 1.59 0 00-2.19 0" fill="#e0e0e0"/><path d="M439 428.32l-1.27-2.73 33.87-15.31s1.87 0 2.2 1.15zM451.31 409.34c.07.18-.75.65-1.34 1.59s-.71 1.87-.9 1.87-.39-1.1.35-2.23 1.85-1.4 1.89-1.23zM455.69 409.17c.12.15-.49.79-.74 1.78s-.06 1.84-.24 1.91-.73-.85-.39-2.08 1.29-1.78 1.37-1.61zM459.81 412.62c-.14.11-.77-.64-.76-1.78s.64-1.88.78-1.77-.13.84-.13 1.77.3 1.69.11 1.78zM449.1 405.35c0 .19-.9.31-1.84.82s-1.55 1.17-1.71 1.06.29-1.05 1.41-1.64 2.16-.42 2.14-.24zM301.12 233.8a11.37 11.37 0 0120.16-6.64c2.72 3.33 3.68 8.3 7.49 10.3 2.6 1.38 5.9.93 8.47 2.37 5.44 3.07 4.54 12.5 10.19 15.17a25.79 25.79 0 01-9.55 7.22 7.19 7.19 0 00-2.61-3.11c1.28 2.08.55 4.93-1.07 6.76a15.72 15.72 0 01-6.22 3.74c-5.48 2.16-11.24 3.92-17.13 3.81s-12-2.31-15.65-6.9a12.76 12.76 0 00-3-3.26c-1.39-.83-3.1-.85-4.68-1.2a11.28 11.28 0 01-8.51-9.22c3.68-1 5.52-5.1 6.34-8.83s1.25-7.84 3.89-10.59a8.36 8.36 0 0113.12 1.33" fill="#263238"/><path d="M294 243.77l-.79-3.11 17.91-7.94c5.64-2 13.25 2.37 15 8.08C328 247.15 330 255 330.4 260c.73 10-6.4 13-6.4 13l2.66 11.85 3 13.05-25.87-20.08z" fill="#ffbe9d"/><path d="M324.42 249.33a1.26 1.26 0 01-.9 1.53A1.22 1.22 0 01322 250a1.28 1.28 0 01.9-1.53 1.21 1.21 0 011.52.86zM325 245.39c-.11.2-1.22-.28-2.55 0s-2.16 1.21-2.34 1.08 0-.39.36-.8a3.49 3.49 0 011.82-1.06 3.36 3.36 0 012.08.17c.44.22.63.52.63.61zM312.58 252.25a1.26 1.26 0 01-.9 1.53 1.23 1.23 0 01-1.54-.82 1.27 1.27 0 01.9-1.53 1.21 1.21 0 011.54.82zM311.9 248.7c-.11.2-1.22-.27-2.55 0s-2.16 1.21-2.34 1.08 0-.38.35-.79a3.51 3.51 0 011.83-1.07 3.36 3.36 0 012.08.17c.48.26.73.52.63.61zM319.06 257.47a8.73 8.73 0 012.07-.9c.34-.11.64-.26.65-.5a1.8 1.8 0 00-.47-1l-1.61-2.36c-2.26-3.37-4-6.17-3.85-6.26s2.08 2.57 4.34 5.94l1.58 2.38a2.07 2.07 0 01.49 1.3.88.88 0 01-.45.63 2.61 2.61 0 01-.56.21 9.23 9.23 0 01-2.19.56z" fill="#263238"/><path d="M324 273a26.3 26.3 0 01-14.1-.37s4.85 6 14.65 2.78zM319.25 260.82a2.47 2.47 0 00-2.37-.39 2.24 2.24 0 00-1.32 1.17 1.41 1.41 0 00.26 1.61 1.68 1.68 0 001.85 0 5.23 5.23 0 001.47-1.42 1.44 1.44 0 00.29-.49.46.46 0 00-.12-.49" fill="#eb996e"/><path d="M315.35 259.31c.21-.06.55 1.38 2 2.12s3 .22 3.05.42-.28.36-.93.53a3.65 3.65 0 01-2.52-.26 3.23 3.23 0 01-1.62-1.81c-.16-.59-.08-.98.02-1zM311.32 244.86c-.05.4-1.42.54-2.94 1.09s-2.69 1.28-3 1c-.13-.13 0-.52.44-1a5.13 5.13 0 012.06-1.32 5.4 5.4 0 012.44-.28c.68.11 1.02.33 1 .51zM323.85 240.82c-.16.36-1.16.26-2.26.5s-2 .68-2.29.42c-.13-.14-.05-.47.29-.86a3.21 3.21 0 011.72-.92 3.11 3.11 0 011.95.19c.46.22.66.5.59.67z" fill="#263238"/><path d="M310.88 233.19a10.57 10.57 0 01-5.18 10.54c-1.46.81-3.34 1.57-3.53 3.22s1.59 2.88 2.61 4.28a5.4 5.4 0 01.16 6c-.65 1-1.64 1.78-2.24 2.82a5.34 5.34 0 00-.21 4.62 7.66 7.66 0 003.13 3.51c-3.64 1-8.05-.11-9.95-3.35-1.14-1.93-1.22-4.28-1.37-6.51a83.65 83.65 0 00-2.41-15.1 4.06 4.06 0 01-.09-2.55 3.85 3.85 0 011.87-1.66 124.24 124.24 0 0115.08-7" fill="#263238"/><path d="M308.41 232.21a20.71 20.71 0 004.67 4.49 7.06 7.06 0 006.2.89l-1.51-1.67a31.37 31.37 0 0011.91 4.93c-2.68-3.26-5.44-6.59-9.1-8.7s-8.46-2.76-12-.52" fill="#263238"/><path d="M319.47 249.94a4.25 4.25 0 01-.21-1.37 5.55 5.55 0 011.22-3.57 5.65 5.65 0 012.07-1.64 5.74 5.74 0 013-.49 5.08 5.08 0 011.6.4 5.16 5.16 0 011.48.9 5.71 5.71 0 011.64 6.63 5.59 5.59 0 01-.9 1.48 5.34 5.34 0 01-1.23 1.1 5.65 5.65 0 01-5.48.47 5.54 5.54 0 01-2.74-2.59 4.28 4.28 0 01-.45-1.32 12.42 12.42 0 00.56 1.26 5.55 5.55 0 002.71 2.45 5.45 5.45 0 002.5.43 5.55 5.55 0 002.74-.93 5.09 5.09 0 001.17-1.06 5.38 5.38 0 00.84-1.41 5.43 5.43 0 00-1.55-6.28 5.08 5.08 0 00-1.4-.86 5.16 5.16 0 00-1.52-.39 5.53 5.53 0 00-2.86.44 5.31 5.31 0 00-2 1.55 5.52 5.52 0 00-1.27 3.43 13.14 13.14 0 00.08 1.37zM305 253.5a4.42 4.42 0 01-.22-1.38 5.66 5.66 0 011.22-3.56 5.78 5.78 0 012.08-1.64 5.69 5.69 0 013-.49 5.62 5.62 0 013.09 1.3 5.75 5.75 0 011.91 3 5.84 5.84 0 01-.27 3.59 5.76 5.76 0 01-2.13 2.58 5.66 5.66 0 01-5.48.47 5.54 5.54 0 01-2.74-2.59 4.28 4.28 0 01-.45-1.32 13.51 13.51 0 00.55 1.26 5.63 5.63 0 002.72 2.45 5.45 5.45 0 002.5.43 5.55 5.55 0 002.74-.93 5.3 5.3 0 001.17-1.06 5.38 5.38 0 00.84-1.41A5.43 5.43 0 00314 248a5.37 5.37 0 00-2.93-1.25 5.49 5.49 0 00-2.85.44 5.42 5.42 0 00-2 1.55 5.64 5.64 0 00-1.27 3.43c-.03.83.12 1.32.05 1.33z" fill="#455a64"/><path d="M315.59 249.61s.06-.27.35-.59a2.67 2.67 0 011.47-.77 2.61 2.61 0 011.63.28c.38.21.54.43.52.45s-.24-.11-.61-.25a2.86 2.86 0 00-1.49-.18 3 3 0 00-1.37.63c-.31.25-.46.46-.5.43z" fill="#455a64"/><path d="M327.08 252.58a5.85 5.85 0 002.28-4.42s.12.29.11.78a4.39 4.39 0 01-1.7 3.28c-.39.29-.68.4-.69.36zM312.76 256.45a5.95 5.95 0 002.29-4.42 1.56 1.56 0 01.1.77 4.22 4.22 0 01-.49 1.83 4.27 4.27 0 01-1.21 1.46c-.39.29-.67.39-.69.36z" fill="#fff"/><path d="M320.66 271.77s-2.11-2-3.48-1.49a10 10 0 00-1.8 1 5 5 0 00-2.19 3.2l-2.1 10.37s-1.49 10.44-2.11 14.91-1.32 14-1.32 14L323.34 324l-3.8-30.89s3.73-4.72 4.47-7.33 1.12-3.73 1.12-3.73l.38-1.85 1.52.1a1 1 0 001.67-.86.32.32 0 00-.09-.22c-.33-.27-2.4-2.05-2.4-2.05s-.09-1.95-1-2.57a4.18 4.18 0 00-1.34-.58 2.82 2.82 0 00-2.36.39l-1.14.77.54-.89a2.11 2.11 0 00-.29-2.55z" fill="#ffbe9d"/><path d="M320.66 271.77a1 1 0 01.17.17 2 2 0 01.36.64 2.05 2.05 0 01.05 1.2 6.27 6.27 0 01-.76 1.47l-.12-.11c.41-.28.84-.59 1.35-.92a2.93 2.93 0 011.9-.36 5 5 0 011 .31 2.26 2.26 0 011 .64 4.67 4.67 0 01.73 2.38l-.05-.1 2.11 1.79.28.24a.63.63 0 01.18.46 1 1 0 01-.31.81 1.22 1.22 0 01-1.66.07h.11l-1.52-.08.19-.15c-.12.57-.24 1.2-.37 1.85l-.82 2.77c-.14.47-.27.95-.45 1.45a12.34 12.34 0 01-.66 1.43 42.93 42.93 0 01-3.66 5.49v-.17c1.13 9 2.44 19.61 3.84 30.89l.07.56-.47-.31-1.51-1-14.12-9.19-.13-.08v-.15c.28-3.57.57-7 .91-10.32s.85-6.45 1.26-9.42.84-5.77 1.22-8.38 1-5 1.42-7.13c.23-1.09.44-2.11.64-3.08.11-.49.18-1 .32-1.42a4.94 4.94 0 01.58-1.25 5.07 5.07 0 011.77-1.69 7 7 0 011.84-.88 2.65 2.65 0 011.59.34 7.45 7.45 0 011 .64c.25.19.43.35.55.46a.86.86 0 01.17.18s-.07 0-.2-.14-.31-.25-.57-.43a7.57 7.57 0 00-1-.59 2.52 2.52 0 00-1.5-.29 7.11 7.11 0 00-1.76.89 5.11 5.11 0 00-1.67 1.64 4.66 4.66 0 00-.53 1.2c-.12.43-.2.91-.3 1.39l-.6 3.09c-.41 2.17-.95 4.54-1.37 7.14l-1.16 8.33c-.39 3-.9 6.1-1.21 9.4s-.62 6.74-.88 10.31l-.12-.23 14.21 9.29 1.51 1-.4.25c-1.37-11.28-2.66-21.86-3.76-30.89v-.1l.06-.07a40.8 40.8 0 003.65-5.41 13.11 13.11 0 00.65-1.37c.16-.46.3-1 .45-1.43l.84-2.8c.14-.64.27-1.28.39-1.84V280h.16l1.52.1h.06a.85.85 0 001.18 0 .72.72 0 00.22-.56c0-.11 0-.23-.06-.23l-.28-.24-2.1-1.82v-.07a4.41 4.41 0 00-.64-2.22 2 2 0 00-.87-.58 5.29 5.29 0 00-1-.31 2.8 2.8 0 00-1.76.31c-.49.3-.94.62-1.35.88l-.3.19.18-.31a7 7 0 00.78-1.41 2.07 2.07 0 000-1.14 2.74 2.74 0 00-.47-.82z" fill="#eb996e"/><path d="M321.78 278.87s.06-.35.32-.8a3.72 3.72 0 011.5-1.48 2.18 2.18 0 012.14.07c.45.32.63.6.59.65s-1.14-.95-2.5-.25a4.65 4.65 0 00-1.43 1.22c-.33.39-.55.63-.62.59zM321.2 274.56c.06.12-.32.54-.79 1.11s-.92 1-1 .92.13-.67.64-1.26 1.08-.91 1.15-.77zM320.58 271.68a2.88 2.88 0 00-2.8.79c-1.12 1.33-1.82 2.66-1.94 2.59a5.83 5.83 0 011.57-2.95 3.61 3.61 0 011.12-.78 2 2 0 011.15-.11c.64.13.94.4.9.46z" fill="#eb996e"/><path d="M335.26 349.94a187.06 187.06 0 0127.34-6c20.53-3 46.83-4.68 51.12-4.15 7.59.92 11.11 6.84 14.81 11.47s25.55 49 25.55 49l-21 8.4-1.63-34.45s-6.61-13.49-22.53-9.23c0 0-28.55 18-35.95 19.81s-26.47 9.07-39.42-.74-13.79-32.54-13.79-32.54z" fill="#263238"/><path d="M378.35 382.24l25.36 2.83a10.37 10.37 0 012.57 6.35l1.2 54.91h26.73l-2-70s.13-15.33-16.21-13.14-25.58 10.62-25.58 10.62z" fill="#263238"/><path d="M433.12 408.6a1 1 0 010-.25v-.74c0-.7-.07-1.65-.13-2.86-.08-2.53-.21-6.11-.36-10.51s-.3-9.73-.48-15.59a17.24 17.24 0 00-2.71-8.55 16.72 16.72 0 00-3.15-3.59A17.26 17.26 0 00422 364a15.45 15.45 0 00-4.78-1.1 12.43 12.43 0 00-4.68.68 81.08 81.08 0 00-8.32 3.89c-5.19 2.72-9.75 5.39-13.57 7.66s-6.87 4.15-9 5.45l-2.43 1.5-.64.38-.23.12a.69.69 0 01.2-.16l.61-.43 2.39-1.58c2.08-1.35 5.11-3.28 8.9-5.6s8.34-5 13.54-7.77a80.85 80.85 0 018.35-3.94 13 13 0 014.9-.72 16.18 16.18 0 014.95 1.13 17.89 17.89 0 014.35 2.63 16.45 16.45 0 013.24 3.7 17.6 17.6 0 012.77 8.81c.14 5.86.27 11.14.37 15.6s.15 8 .2 10.51v3.61c.01.15 0 .23 0 .23z" fill="#455a64"/><path d="M300 341.81a194.22 194.22 0 0043.36 11.4c24.45 3.44 36.85.67 39.45 8 1.95 5.49 4.18 34 4.18 34s-40.06 8.18-54-.45-20.47-21.38-25.33-33.76C302 346.75 300 341.81 300 341.81" fill="#f5f5f5"/><path d="M385 392.65a3.72 3.72 0 01-.11-.55l-.25-1.6c-.21-1.45-.5-3.49-.87-6.08-.73-5.26-1.76-12.71-3-21.58v.05a7.77 7.77 0 00-3.92-4.15 16 16 0 00-6.11-1.48l-6.74-.38c-2.3-.15-4.65-.32-7-.55a230.21 230.21 0 01-39.2-7.13c-4.92-1.35-8.85-2.63-11.56-3.52l-3.09-1.09-.8-.3-.27-.12.28.07.82.25 3.13 1c2.72.84 6.66 2.06 11.59 3.36a241.8 241.8 0 0039.14 7c2.37.23 4.71.4 7 .56s4.54.23 6.75.38a16.24 16.24 0 016.29 1.56 8.21 8.21 0 014.13 4.42c1.15 8.88 2.11 16.33 2.8 21.61.31 2.59.57 4.64.75 6.09.07.68.13 1.21.18 1.61a3.85 3.85 0 01.06.57z" fill="#263238"/><path fill="#e0e0e0" d="M407.5 342.54l-34.47-1.36-35.56 5.75 41.91 1.38 28.12-5.77z"/><path d="M407.5 342.54l-28.08 6h-.05l-41.84-1.33h-.07v-.52L373 341l34.46 1.58-34.46-1.17h.05l-35.56 5.79v-.52h.06l41.84 1.43z" fill="#263238"/><path fill="#e0e0e0" d="M337.47 346.93h42.07l11.14-44.14h30.6l-11.09 40.83-30.81 6.13-41.91-1v-1.82z"/><path d="M337.47 346.93v1.82c4.68 0 20 .35 41.91.83l30.8-6.17-.19.17c3.42-12.58 7.16-26.39 11.08-40.83l.25.33h-30.6l.25-.19c-4.21 16.58-8 31.61-11.19 44.13v.15h-.16l-30.75-.17H337.47h2.9l8.37-.05 30.8-.11-.19.15c3.14-12.52 6.92-27.56 11.09-44.16l.05-.19h31.13l-.09.33c-3.93 14.44-7.69 28.25-11.11 40.83v.15h-.15l-30.81 6.09h-.05c-21.87-.56-37.22-1-41.9-1.16v-1.4c0-.32-.04-.55-.04-.55z" fill="#263238"/><path d="M400.36 323.44c-.36 1.81.25 3.46 1.38 3.69s2.33-1.06 2.7-2.87-.26-3.47-1.39-3.7-2.33 1.07-2.69 2.88z" fill="#fff"/></g><g><path d="M146.79 383.15s18.57 8.47 36.62 8.47c16.73 0 35.43-8.42 35.43-8.42z" fill="#e0e0e0"/><path fill="#e0e0e0" d="M178.14 383.96h7.16v75.02h-7.16z"/><path fill="#e0e0e0" d="M150.27 455.86h63.56v4.4h-63.56z"/><circle cx="152.87" cy="462.16" r="4.85" fill="#263238"/><path d="M186 462.16a4.86 4.86 0 11-4.86-4.85 4.86 4.86 0 014.86 4.85z" fill="#263238"/><circle cx="213.83" cy="462.16" r="4.85" fill="#263238"/><path fill="#e0e0e0" d="M173.67 410.96h9.74v4.03h-9.74z"/><path fill="#e0e0e0" d="M171.9 408.13h3.55v9.68h-3.55z"/><path d="M220.45 383.15h-79.53a5.39 5.39 0 01-5.39-5.39 5.39 5.39 0 015.39-5.38h86.5v3.79a7 7 0 01-6.97 6.98z" fill="#455a64"/><path d="M165.48 267.56l56.12.7a5.08 5.08 0 015 5.05l.79 99.07-75.61 1 8.53-101.18a5.1 5.1 0 015.17-4.64z" fill="#455a64"/><path d="M138.2 375c0 .11 17.34.2 38.72.2s38.72-.09 38.72-.2-17.34-.21-38.72-.21-38.72.06-38.72.21zM215.9 332.78c-.11 0-.2 9.35-.2 20.89s.09 20.89.2 20.89.21-9.35.21-20.89-.11-20.89-.21-20.89z" fill="#263238"/><path d="M106.2 437l.31 19.13s-19.34 6.74-19.63 10.28l37.12.73.74-29.83z" fill="#f26322"/><path d="M118 454.78a1.51 1.51 0 011 1.75 1.45 1.45 0 01-1.72 1 1.6 1.6 0 01-1.07-1.86 1.51 1.51 0 011.92-.86M124 467.17l.12-3-35.74.43s-1.66.68-1.5 1.85z" fill="#e0e0e0"/><path d="M105.91 456c0 .18.91.28 1.79.88s1.34 1.37 1.51 1.3-.08-1.12-1.16-1.83-2.17-.56-2.14-.35zM102 457.49c0 .18.73.5 1.33 1.28s.76 1.59.94 1.59.32-1-.44-2-1.83-1.04-1.83-.87zM99.68 462.11c.17 0 .44-.86 0-1.86s-1.28-1.42-1.36-1.27.43.69.78 1.52.4 1.59.58 1.61zM106.33 451.59c.07.17.9-.07 1.93 0s1.81.43 1.91.28-.66-.82-1.86-.91-2.07.49-1.98.63zM162 338.67s-11 1.65-22.32 3.76c-13.57 2.52-28 5.67-30 7.19-3.55 2.79-4.32 10.41-5.84 19.8S102 448.67 102 448.67l25.21.73 5-73.29s36.81 0 44.39-.06c6.11-.05 22.54.64 28.78-2.65 9.82-5.17 8-24.87 8-24.87.46-9.14-43.24-17.41-44.43-14.54z" fill="#263238"/><path d="M99.88 391.07l-3.62 19.29s-20.83 2.79-21.84 6.29l37.14 8.35 6.88-29.81z" fill="#f26322"/><path d="M108.1 411.34a1.55 1.55 0 01.66 2 1.49 1.49 0 01-1.94.67 1.65 1.65 0 01-.69-2.09 1.55 1.55 0 012.1-.47M111.41 425.81l.67-2.89-35.77-7.83s-1.82.35-1.89 1.56z" fill="#e0e0e0"/><path d="M95.7 410c0 .19.85.47 1.61 1.26s1.07 1.65 1.25 1.62.15-1.15-.79-2.08-2.08-.94-2.07-.8zM91.44 410.77c-.08.16.63.65 1.07 1.55s.44 1.76.63 1.79.52-1 0-2.08-1.66-1.44-1.7-1.26zM88.17 414.93c.16.08.62-.77.37-1.87s-1-1.69-1.11-1.55.3.78.48 1.68.09 1.68.26 1.74zM97 405.73c0 .18.93.12 1.94.42s1.73.8 1.86.67-.49-.95-1.68-1.29-2.12.04-2.12.2zM117.94 324.37s-8.69-.61-10.55 6.82c-2.59 10.31-14 71.89-14 71.89l25.67 5 13.54-60.11 24.31-4 10-4s-5.66-6-17.39-9.78c-7.95-2.53-31.58-5.82-31.58-5.82z" fill="#263238"/><path d="M132.52 349.5a18.6 18.6 0 00-3.05-3.73 19.87 19.87 0 00-4.11-2.51 8.68 8.68 0 014.38 2.2 10.44 10.44 0 012.22 2.7 3.34 3.34 0 01.56 1.34z" fill="#455a64"/><path d="M126.93 337.3s.19.09.48.32a10.24 10.24 0 011.15 1.05 14.61 14.61 0 012.84 4.33 14.81 14.81 0 011.21 5 10.81 10.81 0 010 1.56c0 .37-.06.57-.09.57s0-.82-.18-2.1a16.75 16.75 0 00-4-9.11c-.84-1.04-1.46-1.56-1.41-1.62z" fill="#455a64"/><path d="M106.22 337.3l-.08.32c0 .22-.11.53-.2.93-.17.85-.42 2.07-.74 3.64-.64 3.2-1.56 7.83-2.72 13.66-2.29 11.68-5.52 28.11-9.27 47.2v.19h.19l25.67 5h.2v-.2c.14-.59.28-1.24.43-1.89 5-22.17 9.54-42.53 13.06-58.22l-.13.12 25.53-4.23 7-1.18 1.82-.32.62-.12-.63.08-1.83.27-7 1.1-25.55 4.08h-.11v.11c-3.55 15.69-8.14 36-13.15 58.2-.15.65-.29 1.3-.43 1.89l.24-.15-25.67-5 .16.23c3.69-19.09 6.86-35.54 9.12-47.23 1.11-5.83 2-10.47 2.61-13.67.29-1.58.52-2.81.68-3.65.07-.41.13-.72.17-.95s.01-.21.01-.21z" fill="#455a64"/><path d="M175.91 197.67a4.11 4.11 0 00-4.41-1.74 5.6 5.6 0 00-6.87.68 5 5 0 00-7.18 4.66 4.17 4.17 0 00-3.07 7.29 4 4 0 002.3 7.63l18.86-13.79a4.1 4.1 0 00.37-4.73z" fill="#263238"/><path d="M156.15 216.8a17 17 0 0115.64-16.93l.88-.07c9.5-.2 15 7.76 14.92 17.26l1.14 31.6-1 4.07L175 263.29l-6.43-5.69-1.84-9.32s-9.21-.68-10.05-9.76c-.44-4.39-.54-13.52-.53-21.72z" fill="#ffbe9d"/><path d="M166.61 248.28a22.17 22.17 0 0011.63-4.44s-2.28 6.77-11.41 6.67z" fill="#eb996e"/><path d="M159.45 225a1.3 1.3 0 001.36 1.21 1.25 1.25 0 001.25-1.27 1.31 1.31 0 00-1.36-1.21 1.24 1.24 0 00-1.25 1.27zM158.39 221.56c.18.15 1.1-.65 2.5-.76s2.48.51 2.61.33-.12-.38-.59-.67a3.58 3.58 0 00-2.11-.47 3.43 3.43 0 00-2 .82c-.37.36-.49.68-.41.75zM171.47 224.65a1.32 1.32 0 001.36 1.21 1.24 1.24 0 001.24-1.28 1.29 1.29 0 00-1.35-1.21 1.25 1.25 0 00-1.25 1.28zM171.74 220.3c.18.15 1.1-.65 2.5-.76s2.47.51 2.61.32-.12-.37-.59-.66a3.6 3.6 0 00-2.11-.47 3.33 3.33 0 00-2 .82c-.37.36-.49.68-.41.75zM168 231a8.82 8.82 0 00-2.31-.23c-.35 0-.7-.06-.78-.29a1.88 1.88 0 01.16-1.08c.26-.89.54-1.82.83-2.8 1.16-4 2-7.25 1.81-7.29s-1.23 3.14-2.39 7.13c-.28 1-.54 1.92-.79 2.81a2.07 2.07 0 00-.07 1.42.89.89 0 00.62.47 2.79 2.79 0 00.62 0 9.34 9.34 0 002.3-.14zM172.15 231.65c-.22 0-.11 1.52-1.32 2.7s-2.83 1.15-2.83 1.36.38.27 1.07.23a3.74 3.74 0 002.37-1.05 3.27 3.27 0 001-2.25c.02-.64-.18-1-.29-.99zM171.4 216.31c.2.35 1.38-.07 2.84-.17s2.71.12 2.83-.26c.05-.17-.22-.48-.76-.75a4.43 4.43 0 00-4.31.32c-.48.34-.68.69-.6.86zM158.4 217.7c.25.32 1.22 0 2.38 0s2.14.22 2.37-.11c.1-.17-.06-.48-.49-.79a3.22 3.22 0 00-1.92-.52 3.32 3.32 0 00-1.9.63c-.41.31-.54.64-.44.79z" fill="#263238"/><path d="M156.69 212.56s1.94-5.89 4.58-7.43c3.2-1.88 4.92 1.66 8 .52s6.14-2.94 9.57-.75c3.76 2.4 2.25 4.41 2.79 8.43 2.19 16.28 5.55 20.67 5.78 12.9 0-.86 2.31-1.71 2.38-5.31.08-4.66-.19-10.28-1.48-13.48-1.1-2.7-2.82-4.48-5.82-6.36-4.73-3-10.86-2.55-15-1.8s-11.75 6.18-10.8 13.28z" fill="#263238"/><path d="M186.83 226a2.49 2.49 0 012.48-2.59c1.7 0 3.67.84 3.83 4.35.3 6.23-6 5.25-6 5.07s-.21-4.2-.31-6.83z" fill="#ffbe9d"/><path d="M188.35 230.44s.11.07.3.15a1.09 1.09 0 00.81 0 2.67 2.67 0 001.13-2.46 3.57 3.57 0 00-.38-1.54 1.27 1.27 0 00-.85-.8.56.56 0 00-.63.33c-.08.18 0 .3-.06.31s-.14-.09-.1-.35a.7.7 0 01.22-.41.85.85 0 01.6-.18 1.54 1.54 0 011.18.91 3.66 3.66 0 01.45 1.72 2.81 2.81 0 01-1.45 2.76 1.18 1.18 0 01-1-.11c-.2-.18-.24-.32-.22-.33z" fill="#eb996e"/><path d="M185.75 214a5.81 5.81 0 01-2.54 1.43 2 2 0 01-2.36-1.25c-.11-.42 0-.93-.35-1.25s-1-.19-1.51-.1a4 4 0 01-4.34-2.51 1.67 1.67 0 01-2.22.39 9.09 9.09 0 01-1.83-1.71 2.55 2.55 0 00-2.22-.89 6.35 6.35 0 01-1.33.4c-.82 0-1.29-.93-1.48-1.73s-.36-1.74-1.09-2.12a3.26 3.26 0 00-2.23.11c-.74.17-1.72.07-2-.65a1.49 1.49 0 01.18-1.14 4.05 4.05 0 014.63-1.91 5.48 5.48 0 019.94-1.85 5.54 5.54 0 019 1.31 4 4 0 015 5.47 3.82 3.82 0 012.34 2.87 2.18 2.18 0 01-2.29 2.43 2.23 2.23 0 01-3.67 2.52" fill="#263238"/><path d="M189.53 211.27a1.47 1.47 0 01-.29 1.22 2 2 0 01-1.18.85 2.21 2.21 0 01-1.82-.38l.26-.06a6.06 6.06 0 01-1.11 1.65 3.58 3.58 0 01-1.08.79 2.39 2.39 0 01-1.24.22 2.45 2.45 0 01-1.88-.88 3.65 3.65 0 01-.6-1.26 1.24 1.24 0 01-.09-.5s.09.16.22.46a4.32 4.32 0 00.67 1.13 2.53 2.53 0 003.74-.21 6.2 6.2 0 001.06-1.55l.1-.19.16.13a1.89 1.89 0 001.54.36 1.86 1.86 0 001.08-.68 2.93 2.93 0 00.46-1.1zM176.66 198s-.16.06-.43.2a2.12 2.12 0 00-.9.9l-.06.12-.1-.11a7.66 7.66 0 00-3.2-2.19 6 6 0 00-2.49-.34 5 5 0 00-2.57 1 5.28 5.28 0 00-1.45 1.61 4.28 4.28 0 00-.53 1.93v.2h-.2a3.44 3.44 0 00-3.85 2.15 4.87 4.87 0 00-.24 1.87 1.33 1.33 0 01-.11-.5 3.46 3.46 0 01.16-1.44 3.59 3.59 0 011.33-1.79 3.78 3.78 0 012.78-.62l-.2.16a4.42 4.42 0 01.56-2.09 5.39 5.39 0 011.54-1.73 5.28 5.28 0 012.76-1 6.36 6.36 0 012.62.39 7.53 7.53 0 013.24 2.37h-.16a2.17 2.17 0 011-.9 1.07 1.07 0 01.5-.19z" fill="#455a64"/><path d="M125.12 305.79h-4.59s-10.35-3.74-12.48-3.38c-1.91.32-8.93 5-10.31 5.91a.86.86 0 00-.33.42 1.5 1.5 0 00.84 1.91l.14.06-.06.21a2.59 2.59 0 00-.11.84 1 1 0 001.88.44l-.26.47a1.14 1.14 0 00-.15.62v.43a1.14 1.14 0 00.79 1 1.14 1.14 0 001.2-.31 9.72 9.72 0 014.22-2.63 29.85 29.85 0 014.15-.74 1.42 1.42 0 011.33.92 39.54 39.54 0 00-6.65 2.87 2 2 0 00-1.11 1.53c-.07.6.23 1.22 1.41.94 2.53-.59 5.68-1.69 5.68-1.69s2.35-.67 3.87.41c2.14 1.5 3.12 2.06 5 1.45a15.89 15.89 0 003.19-1.48l3.62-.36s3.41-8.53-1.27-9.84z" fill="#ffbe9d"/><path d="M124.14 313.84l-.24.17a1.8 1.8 0 01-.32.19 2.5 2.5 0 01-.46.21 5 5 0 01-3.15.1 4.82 4.82 0 01-1.94-1.05l-.22-.2-.21-.24a3.81 3.81 0 01-.37-.5c-.23-.36-.4-.76-.65-1.12a1.64 1.64 0 00-1-.71 4.92 4.92 0 00-1.38 0 8 8 0 01-3-.29 8.61 8.61 0 01-2.57-1.23 9 9 0 01-1-.87.65.65 0 01-.17-.7.68.68 0 01.55-.44l6.73-.28 1.93-.06h.69-.69l-1.93.11-6.72.35a.49.49 0 00-.4.32.47.47 0 00.13.5 8.46 8.46 0 001 .85 8.32 8.32 0 002.51 1.2 8.12 8.12 0 002.92.29 5 5 0 011.44 0 1.56 1.56 0 01.66.28 1.78 1.78 0 01.48.51c.27.38.43.78.65 1.13a5.6 5.6 0 00.36.49l.2.22.21.2a4.86 4.86 0 001.87 1 5 5 0 003.09 0 8.12 8.12 0 001-.43z" fill="#eb996e"/><path d="M239.46 286.6c-4-5.55-14.57-15.51-20.19-22.17a54.18 54.18 0 00-7-6.43c-.28-.09-1.84-.94-2.1-1.06h-.1l-.22-.09-19.62-7.29L175 263.29 167.15 251l-2.72 3c-.28.1-4.61 2.49-7 3.41-3.32 1.32-8.29 8.24-9.58 16.06-1.24 7.56-4.28 28.29-4.28 28.29l-20.51 4 .4 12 18.32 2.87c4.42-.16 12.59-2.68 14.31-5.75l-.09 17.85c3.72 2.2 8.84 7.89 14 6.93 16.6-3.05 36 .54 42.85 8a305.41 305.41 0 01-1.68-31.36c4.79-1.83 11.55-3.57 16.42-5.94 16.26-7.9 16.79-16.9 11.87-23.76zm-28.12 11.67v-10.94l6.51 6.29z" fill="#f26322"/><path d="M189.7 250.2a3.43 3.43 0 00-1.58.79 76.72 76.72 0 00-12.47 11.49l-.63 1.17c1.4-.93 3-1.9 4.66-1.56a6.51 6.51 0 013.34 2.59 117.26 117.26 0 009.22-13.42 3.69 3.69 0 00-2.54-1.06z" opacity=".3"/><path fill="#fff" d="M174.96 263.29l5.62-7.11 8.45-10.1 4.5 4.22-7.88 12.19-5.59-3.36-5.1 4.16z"/><path d="M164.82 254.09c.74 4 2.6 7.34 3.35 11.34.89-1.16.68-1.66 1.57-2.83a3.28 3.28 0 011.31-1.17 3.47 3.47 0 012.89.73 32.52 32.52 0 00-4.49-4.12 3 3 0 00-.07.32c-1.51-1.87-3-3.71-4.64-5.53" opacity=".3"/><path fill="#fff" d="M174.87 263.24l-7.9-13.45-2.82 2.59 2.67 12.05 3.79-4.88 4.26 3.69z"/><path d="M174.56 262.7a1.77 1.77 0 01-.15-.22l-.4-.66-1.52-2.56-5.58-9.44h.11l-2.84 2.49v-.07c.81 3.65 1.73 7.74 2.71 12.15h-.16l3.79-4.88.06-.08.07.06 4.27 3.7h-.09l.46-.09h-.05c1.37-1.21 2.89-2.42 4.36-3.7l.38-.33h.11c2 1 3.73 2.35 5.59 3.36h-.13l7.88-12.19v.11l-4.43-4.21h.12l-9.93 12.07-2.78 3.36-.73.87-.26.3.24-.31.71-.9 2.74-3.38L189 246l.06.06 4.5 4.21v.11l-7.86 12.2-.05.08h-.08c-1.88-1-3.65-2.33-5.59-3.37h.11l-.38.33c-1.48 1.29-3 2.49-4.36 3.7l-.46.09-4.26-3.7h.14l-3.79 4.87-.12.16v-.19c-1-4.42-1.88-8.51-2.69-12.16l2.86-2.49h.06v.07l5.53 9.47c.64 1.12 1.14 2 1.49 2.58l.38.67zM228.87 310l-.44.21-1.32.52-5 1.93-17.54 6.62-.21.08-.09-.21-5.14-12.05-.09-.19.17-.12 3.19-2.29 15.22-10.89v.35c-5.13-5-9.47-9.24-12.55-12.26l-3.53-3.5-.92-.94a1.78 1.78 0 01-.3-.35 1.9 1.9 0 01.35.29l1 .89 3.62 3.41 12.68 12.13.21.19-.23.17L202.72 305l-3.18 2.29.08-.31 5.11 12.02-.3-.13 17.6-6.44 5-1.8 1.34-.46a2.15 2.15 0 01.5-.17z" fill="#263238"/><path d="M223.88 294.35a24.52 24.52 0 00-3.35-.62 26.54 26.54 0 00-3.39.32 5.06 5.06 0 013.41-.85 5 5 0 013.33 1.15zM211.6 258.5c0 .09-.93.1-2.36.5a11.39 11.39 0 00-7.9 7.63c-.45 1.41-.5 2.34-.59 2.34a5.84 5.84 0 01.24-2.44 10.82 10.82 0 013-5.11 11 11 0 015.21-2.78 5.59 5.59 0 012.4-.14zM152.09 274.4c.14 0 1.21 9.51 2.39 21.26s2 21.31 1.86 21.32-1.21-9.5-2.38-21.26-1.96-21.31-1.87-21.32z" fill="#263238"/><path d="M186.58 307.66a3.49 3.49 0 00-1.25.46c-.92.62-1.13 1.87-1.25 3 0 .35-.05.77.23 1a1 1 0 00.85 0 26.28 26.28 0 005.42-2.41 4.31 4.31 0 002.16-2.21l.06-.43a26.09 26.09 0 00-6.22.59z" fill="#ffbe9d"/><path d="M194.73 298.69c-3.37 4.05-15.91 19-15.91 19l-.48 2.15a.17.17 0 00.23.19l2-.79 16.2-18.83a1.36 1.36 0 00-.2-1.95 1.34 1.34 0 00-1.84.23z" fill="#263238"/><path fill="#455a64" d="M193.52 300.14l2.05 1.71.57-.66-2.06-1.73-.56.68zM191.07 305.66a.71.71 0 01-.46-.17.72.72 0 01-.24-.48.74.74 0 01.17-.52l2.35-2.77a.69.69 0 01.5-.25.66.66 0 01.52.17.73.73 0 01.09 1l-2.35 2.76a.74.74 0 01-.5.26zm-.39-.23a.63.63 0 00.88-.08l2.35-2.77a.64.64 0 00-.07-.9.67.67 0 00-.47-.15.66.66 0 00-.43.23l-2.35 2.76a.67.67 0 00-.15.47.6.6 0 00.22.43z"/><path d="M192.77 304s-.28-.14-.56-.39-.46-.49-.43-.53.28.14.56.4.46.52.43.52z" fill="#455a64"/><path d="M199.61 307.43l-1.9.67s-2.9-.73-4.11-1a3.16 3.16 0 00-2.45.43c-1.49 1-4.05 2.62-5 3.23s-3.26 2.55-3.26 2.55-1.7 1.94-1.14 3.06 2.09.95 2.09.95a2.32 2.32 0 001.84 1.73s-.39.61 1.06 1a19 19 0 004.83 0s6.18.26 6.78 0l5.3-2.41z" fill="#ffbe9d"/><path d="M188.63 309.14a7.64 7.64 0 01-.94.69c-.6.41-1.43 1-2.32 1.6a23.43 23.43 0 00-2.17 1.78c-.53.49-.83.82-.85.8s.06-.1.19-.25a7.86 7.86 0 01.57-.64 16.61 16.61 0 012.16-1.83c.89-.65 1.74-1.18 2.35-1.57a7.4 7.4 0 011.01-.58zM191.52 312a1.13 1.13 0 01-.31.19l-.88.48c-.74.4-1.77 1-2.84 1.67a21.12 21.12 0 00-2.61 2c-.62.57-1 .95-1 .93a1.28 1.28 0 01.23-.29 8.1 8.1 0 01.69-.73 16.53 16.53 0 012.59-2.07 26.16 26.16 0 012.88-1.63c.38-.19.69-.33.91-.43zM194.66 314.3s-.09.11-.29.28-.48.4-.85.66c-.74.55-1.82 1.2-3 1.91a16.4 16.4 0 01-3.28 1.43c-.43.14-.79.24-1 .31a1.43 1.43 0 01-.39.08 1.7 1.7 0 01.36-.15l1-.36a19.45 19.45 0 003.23-1.47c1.2-.7 2.28-1.34 3-1.85.37-.25.67-.47.88-.62a1.82 1.82 0 01.34-.22zM196 317.06a2.38 2.38 0 01-.53.55 12.75 12.75 0 01-1.46 1.1 11.83 11.83 0 01-1.62.85 2.67 2.67 0 01-.71.25c0-.05 1-.49 2.23-1.26S196 317 196 317.06z" fill="#eb996e"/><path fill="#455a64" d="M242.54 326.73h-6.38v1.44l14.06 139.01h6.56l-14.24-140.45zM49.53 326.73h6.39v1.44L42.01 467l-7.2.18 14.72-140.45z"/><path fill="#455a64" d="M26.16 328.34l241.32.25.08-6.14H26.16v5.89z"/><path d="M26.82 328.59c0-.12 53.89-.22 120.35-.22s120.36.1 120.36.22-53.88.21-120.36.21-120.35-.09-120.35-.21zM216.31 322.45h-51.1a3.29 3.29 0 013.29-3.29H213a3.29 3.29 0 013.29 3.29z" fill="#263238"/><path d="M154.55 319.64l-23.64-.11-8-37.94a3.36 3.36 0 00-3.3-2.69h-49.4a3.37 3.37 0 00-3.3 4.09l8.14 37.32a2.72 2.72 0 002.66 2.14H158c0-1.92-1.53-2.81-3.45-2.81z" fill="#e0e0e0"/><path d="M129.36 322.45c-.05 0-2.28-9.73-5-21.75s-4.83-21.79-4.78-21.8 2.28 9.73 5 21.75 4.83 21.79 4.78 21.8z" fill="#263238"/><path d="M100.16 300.12a3.18 3.18 0 11-4.65-1 3.37 3.37 0 014.65 1z" fill="#fff"/><path d="M142.8 321.72h-1.86a.78.78 0 01-.78-.79.78.78 0 01.78-.78h1.86a.78.78 0 01.78.78.78.78 0 01-.78.79z" fill="#263238"/><path d="M176.61 320.78l.1.11a1 1 0 01.17.4 1.62 1.62 0 01-.62 1.49 2.41 2.41 0 01-1.14.43 6.33 6.33 0 01-1.43 0 8.6 8.6 0 00-1.63-.1 2.51 2.51 0 00-.85.2 1.24 1.24 0 00-.67.56.81.81 0 00.18.85 2.18 2.18 0 00.82.56 7.72 7.72 0 011 .43 1.39 1.39 0 01.69.92 1.85 1.85 0 01-1.23 1.87 7 7 0 01-2.5.32 39.9 39.9 0 01-5.35-.35c-1.85-.21-3.75-.49-5.71-.66a29.67 29.67 0 00-5.73 0c-1.85.18-3.63.43-5.34.46a9.07 9.07 0 01-2.51-.22 3.49 3.49 0 01-2-1.27 2.49 2.49 0 01-.47-2.14 1.52 1.52 0 011.6-1.13.88.88 0 01.74.63 1.06 1.06 0 01-.19.9 1.14 1.14 0 01-.73.48 1.49 1.49 0 01-.81-.11 2 2 0 01-1-1 3.85 3.85 0 01-.25-1.18v-2.1-.15.15a4.26 4.26 0 010 .43v1.66a3.59 3.59 0 00.26 1.15 1.82 1.82 0 00.95 1 1.33 1.33 0 00.74.09 1 1 0 00.65-.43.94.94 0 00.16-.8.72.72 0 00-.63-.52 1.37 1.37 0 00-1.43 1 2.36 2.36 0 00.45 2 3.35 3.35 0 001.91 1.19 9 9 0 002.45.21c1.7 0 3.48-.29 5.33-.47a30.9 30.9 0 015.77 0c2 .18 3.87.45 5.71.67a41.5 41.5 0 005.33.36 6.88 6.88 0 002.43-.3 1.8 1.8 0 00.89-.68 1.52 1.52 0 00.27-1 1.18 1.18 0 00-.61-.81 6.07 6.07 0 00-1-.43 2.15 2.15 0 01-.87-.61 1.24 1.24 0 01-.24-.47.77.77 0 010-.52 1.35 1.35 0 01.75-.63 2.6 2.6 0 01.89-.2 7.93 7.93 0 011.65.11 6.2 6.2 0 001.41.05 2.19 2.19 0 001.1-.39 1.6 1.6 0 00.63-1.43 1.22 1.22 0 00-.09-.58z" fill="#263238"/><path d="M215.71 320.79c0 .06-11.22.1-25.05.1s-25 0-25-.1 11.22-.1 25-.1 25.05.05 25.05.1z" fill="#455a64"/></g></svg>