<svg xmlns="http://www.w3.org/2000/svg" viewBox="0 0 300 233.19"><path d="M196.5,232h-92A30.46,30.46,0,0,1,74,201.57V80.85c-.22-15.45,5-27.29,15.38-35.16A47.3,47.3,0,0,1,111.33,37a.71.71,0,0,0,.6-.7V26.7H189v9.56a.71.71,0,0,0,.6.7,47.3,47.3,0,0,1,21.92,8.73c10.42,7.87,15.6,19.71,15.39,35.18v120.7A30.46,30.46,0,0,1,196.5,232Z" fill="none" stroke="#2f2e41" stroke-miterlimit="10"/><rect x="120.2" y="51.36" width="37.32" height="74.3" rx="2.77" transform="translate(19.86 202.33) rotate(-76.24)" fill="#1ebc61" stroke="#8ec969" stroke-miterlimit="10"/><path d="M164.43,111.57a4,4,0,0,1-.84-.1L96.8,95.11a3.48,3.48,0,0,1-2.56-4.22L101.8,60A3.48,3.48,0,0,1,106,57.45l66.8,16.35A3.5,3.5,0,0,1,175.38,78l-7.57,30.88a3.45,3.45,0,0,1-1.58,2.15A3.41,3.41,0,0,1,164.43,111.57Zm-.49-1.52a2,2,0,0,0,2.46-1.49L174,77.68a2,2,0,0,0-1.49-2.46l-66.8-16.36a2,2,0,0,0-1.54.24,2,2,0,0,0-.92,1.25L95.65,91.23a2,2,0,0,0,1.49,2.47Z" fill="#3f3d56"/><rect x="141.13" y="109.74" width="74.3" height="37.32" rx="2.77" transform="translate(-30.38 59.62) rotate(-17.52)" fill="#1ebc61" stroke="#8ec969" stroke-miterlimit="10"/><path d="M212.11,134.83a3.57,3.57,0,0,1-.77.35l-65.58,20.7a3.49,3.49,0,0,1-4.38-2.28l-9.57-30.31a3.48,3.48,0,0,1,2.28-4.38L199.66,98.2a3.45,3.45,0,0,1,2.67.24,3.51,3.51,0,0,1,1.72,2l9.57,30.32a3.47,3.47,0,0,1-.24,2.66A3.43,3.43,0,0,1,212.11,134.83Zm-1.21-1a2,2,0,0,0,1.33-2.55l-9.57-30.32a2,2,0,0,0-2.56-1.33l-65.58,20.7a2,2,0,0,0-1.33,2.56l9.58,30.32a2,2,0,0,0,2.55,1.33Z" fill="#3f3d56"/><circle cx="156.54" cy="89.78" r="3.2" fill="#1ebc61"/><circle cx="163.06" cy="136.02" r="2.89" fill="#1ebc61"/><rect x="111.08" y="134.61" width="33.67" height="67.04" rx="2.5" transform="translate(-79.45 208.5) rotate(-63.75)" fill="#1ebc61" stroke="#8ec969" stroke-miterlimit="10"/><path d="M147.37,192.8a3.09,3.09,0,0,1-1.39-.33h0L90.33,165a3.16,3.16,0,0,1-1.44-4.22l12.69-25.73a3.16,3.16,0,0,1,4.22-1.43l55.65,27.44a3.15,3.15,0,0,1,1.43,4.22L150.19,191a3.12,3.12,0,0,1-1.81,1.59A3.2,3.2,0,0,1,147.37,192.8Zm-.81-1.51a1.82,1.82,0,0,0,2.46-.83l12.68-25.73a1.83,1.83,0,0,0-.83-2.46l-55.65-27.44a1.83,1.83,0,0,0-2.46.83L90.07,161.39a1.84,1.84,0,0,0,.84,2.46l55.65,27.44Z" fill="#2f2e41"/><circle cx="107.01" cy="153.75" r="2.89" fill="#1ebc61"/><circle cx="143.99" cy="171.99" r="2.89" fill="#1ebc61"/><g opacity="0.6"><path d="M150.48,28.45h-36.8v7.81a2.44,2.44,0,0,1-2.12,2.43c-4.88.64-17.13,3.17-25.94,12.8-4.94,5.39-8.79,13-9.66,23.77-.15,1.78-.21,3.64-.19,5.59V201.57a28.68,28.68,0,0,0,18.09,26.65,28.65,28.65,0,0,1-13.42-24.28V83.22a55.45,55.45,0,0,1,.62-9.31,19.11,19.11,0,0,0,5.67-8.45A20.37,20.37,0,0,0,88,56.62c8.83-11.92,22.9-14.86,28.22-15.56a2.45,2.45,0,0,0,2.12-2.43V30.82h68.92V28.45Z" fill="#fff"/></g><g opacity="0.3"><path d="M83,221.19l3.33,0Z" fill="#2f2e41"/></g><g opacity="0.25"><path d="M194,231a28.54,28.54,0,0,0,14.85-5.53L210,225l0-.46a28.61,28.61,0,0,0,10.41-22.1V81.68c.48-34.89-27.73-41.09-35.79-42.15a2.45,2.45,0,0,1-2.12-2.43V29.28H112.85v4l56.83,2.44a6.08,6.08,0,0,1,5.82,6.14v1.45s27.87,5,32.33,42.37v71.18c.55,30.49-24.75,63.8-123.84,63.31-1.09,0,.12,1-1,1l0,0L93,229.06H196.78a30.35,30.35,0,0,1-3,2Z" fill="#cbccce"/></g><rect width="300" height="233" fill="none"/><rect x="109.98" y="7.08" width="80" height="24.3" rx="2.03" fill="#f26322"/><path d="M105.42,1a1,1,0,0,0-1,1V22.27a1,1,0,0,0,1,1h76a1,1,0,0,0,1-1V2a1,1,0,0,0-1-1Z" fill="none" stroke="#3f3d56" stroke-miterlimit="10"/><circle cx="147.28" cy="66.6" r="16.2" fill="#f26322"/><path d="M137.24,54.85a17.21,17.21,0,1,1,11.1,21.67A17.2,17.2,0,0,1,137.24,54.85Z" fill="none" stroke="#3f3d56" stroke-miterlimit="10"/><circle cx="103.74" cy="127.36" r="16.2" fill="#f26322"/><path d="M85.59,129.79a17.21,17.21,0,1,1,11.1,21.67A17.23,17.23,0,0,1,85.59,129.79Z" fill="none" stroke="#3f3d56" stroke-miterlimit="10"/><circle cx="191.84" cy="170.91" r="16.2" fill="#f26322"/><path d="M175.72,169.28A17.21,17.21,0,1,1,186.82,191,17.2,17.2,0,0,1,175.72,169.28Z" fill="none" stroke="#3f3d56" stroke-miterlimit="10"/><circle cx="203.99" cy="202.3" r="16.2" fill="#f26322"/><path d="M187.87,200.68A17.21,17.21,0,1,1,199,222.34,17.22,17.22,0,0,1,187.87,200.68Z" fill="none" stroke="#3f3d56" stroke-miterlimit="10"/><circle cx="119.94" cy="189.13" r="16.2" fill="#f26322"/><path d="M101.79,188.52a17.21,17.21,0,1,1,11.11,21.67A17.21,17.21,0,0,1,101.79,188.52Z" fill="none" stroke="#3f3d56" stroke-miterlimit="10"/><circle cx="161.46" cy="141.54" r="16.2" fill="#f26322"/><path d="M143.31,144a17.21,17.21,0,1,1,11.11,21.66A17.22,17.22,0,0,1,143.31,144Z" fill="none" stroke="#3f3d56" stroke-miterlimit="10"/></svg>