<svg xmlns="http://www.w3.org/2000/svg" viewBox="0 0 500 500"><path fill="#ebebeb" d="M293.52 394.97v33.19h-11.4l24.57 28.62 23.05-28.03h-11.65v-33.78h-24.57zM336.99 145v11.68h-4.01l8.65 10.08 8.12-9.87h-4.11V145h-8.65zM440.7 253.36v23.99h-8.24l17.76 20.69 16.66-20.27h-8.42v-24.41H440.7zM60.84 350.3v23.99H52.6l17.76 20.68 16.67-20.26H78.6V350.3H60.84zM208.34 389.51v17.9h-6.15l13.26 15.44 12.43-15.12h-6.28v-18.22h-13.26z"/><path d="M168.29 96.7c.84-6.09-7.76-11.1-14.22-11.62-3.07-.25-6.27.23-9.19-.79-6.32-2.2-8.85-10.37-15-13-4.61-1.95-9.91-.22-14.39 2s-8.88 5.09-13.88 5.41c-4.34.27-9.06-1.34-12.86.78-2.83 1.59-4.32 4.85-6.93 6.77s-5.88 2.29-9 2.46-6.45.2-9.34 1.52-5.27 4.38-4.67 7.49zM468.52 210.32c.73-5.3-6.75-9.66-12.37-10.11-2.68-.22-5.46.19-8-.69-5.49-1.92-7.69-9-13.06-11.28-4-1.7-8.63-.19-12.51 1.77s-7.74 4.42-12.08 4.7c-3.78.24-7.88-1.16-11.19.68-2.46 1.38-3.75 4.22-6 5.89s-5.12 2-7.87 2.14-5.61.18-8.12 1.32-4.59 3.81-4.07 6.52z" fill="#f5f5f5"/><path d="M223.72 49c.36-2.59-3.3-4.72-6.05-4.94a15.87 15.87 0 01-3.91-.34c-2.69-.94-3.76-4.41-6.39-5.52-2-.82-4.22-.09-6.12.87s-3.78 2.16-5.9 2.3c-1.85.12-3.86-.57-5.48.33-1.2.68-1.83 2.06-2.94 2.88a7.12 7.12 0 01-3.85 1 10.58 10.58 0 00-4 .65 3.13 3.13 0 00-2 3.18zM463.71 432.69c.66-4.77-6.07-8.68-11.12-9.09-2.41-.2-4.91.17-7.19-.62-4.94-1.73-6.92-8.11-11.74-10.15-3.61-1.52-7.76-.16-11.26 1.6s-6.95 4-10.86 4.22c-3.39.22-7.08-1-10.06.62-2.21 1.23-3.37 3.79-5.41 5.29s-4.61 1.79-7.09 1.92-5 .16-7.3 1.2-4.12 3.42-3.65 5.85z" fill="#e0e0e0"/><g><path d="M212.58 143.23l-7.71-13.59a36.4 36.4 0 10-8.72 9.7z" fill="#fafafa"/><path d="M212.58 143.23l-16.48-3.75h-.19l.12-.16.19.18a36.43 36.43 0 01-17.46 7.37 32.16 32.16 0 01-5.77.29c-1 0-2-.08-3-.16l-3.07-.47a36.46 36.46 0 01-28.48-44.85 35.88 35.88 0 017.81-15 36.43 36.43 0 0114-10 37.16 37.16 0 0116.32-2.51 35.91 35.91 0 0115 4.43 36.9 36.9 0 0117.28 21.26 39.69 39.69 0 011.58 11.84 36.3 36.3 0 01-5.44 18v-.13l7.6 13.66-7.82-13.53v-.13a36.17 36.17 0 005.3-17.93 39.49 39.49 0 00-1.61-11.71 36.56 36.56 0 00-17.12-21 35.37 35.37 0 00-14.78-4.35 36.55 36.55 0 00-16.09 2.49A35.91 35.91 0 00146.63 87a35.43 35.43 0 00-7.7 14.76 36.58 36.58 0 00-.43 16 35.75 35.75 0 006.05 13.89A36.33 36.33 0 00167 146.07l3 .47c1 .09 2 .12 3 .17a32.46 32.46 0 005.71-.26 36.25 36.25 0 0017.35-7.21l.8-.62-.62.8-.08-.2z" fill="#263238"/><rect x="158.91" y="91.68" width="27.68" height="38.94" rx="2.06" fill="#263238"/><path fill="#fafafa" d="M160.19 94.02h24.98v29.1h-24.98z"/><circle cx="172.75" cy="126.85" r="2.1" fill="#455a64"/><path fill="#f26322" d="M176.25 102.89l9.22 10.88 8.63-10.88h-4.48V87.92l-8.96-.11.11 15.1-4.52-.02z"/><path d="M176.82 107a35.06 35.06 0 01-3.93 4.49 34.87 34.87 0 01-4.29 4.13 33.56 33.56 0 013.92-4.49 33.72 33.72 0 014.3-4.13zM175 105.67a11 11 0 01-2.18 2.5 10.54 10.54 0 01-2.52 2.11 10.69 10.69 0 012.18-2.5 10.39 10.39 0 012.52-2.11z" fill="#263238"/></g><g><path fill="#f26322" d="M402.39 102.21v16.91h-5.81l12.53 14.59 11.75-14.29h-5.94v-17.21h-12.53z"/><path opacity=".3" d="M402.39 102.21v16.91h-5.81l12.53 14.59 11.75-14.29h-5.94v-17.21h-12.53z"/><path d="M443.23 64.48a33.63 33.63 0 00-58.85-12.61 26.59 26.59 0 00-3.24-.2 28 28 0 100 55.94h60.91a21.58 21.58 0 001.18-43.13z" fill="#f26322"/><path d="M449.67 100.07c-.05-.08 1.16-.83 2.76-2.44a20 20 0 005.82-16.09c-.21-2.26-.65-3.62-.56-3.64a3.45 3.45 0 01.36.93 17.7 17.7 0 01.57 2.67 19 19 0 01-5.93 16.39 16.11 16.11 0 01-2.14 1.7 3.08 3.08 0 01-.88.48zM385.16 60.05c0 .09-1.55-.3-4.05-.35a22.22 22.22 0 00-17.3 7.56c-1.66 1.88-2.4 3.27-2.49 3.21a4 4 0 01.49-1 19.51 19.51 0 011.72-2.47 21.22 21.22 0 0117.59-7.69 18.91 18.91 0 013 .4 4.25 4.25 0 011.04.34zM404.05 46.23c0 .1-1.11.17-2.83.62a19.3 19.3 0 00-6.24 3 19 19 0 00-4.74 5c-1 1.49-1.38 2.53-1.47 2.5a2.55 2.55 0 01.22-.76 11.88 11.88 0 01.93-1.94 17.07 17.07 0 011.86-2.65 19.17 19.17 0 012.9-2.64 18.82 18.82 0 013.4-1.94 17.27 17.27 0 013.05-1 12.7 12.7 0 012.13-.28 2.56 2.56 0 01.79.09zM430.24 107.37c0 .15-8.22.26-18.36.26s-18.37-.11-18.37-.26 8.22-.26 18.37-.26 18.36.12 18.36.26zM432.3 157.76c-.14 0-.26-6.74-.26-15s.12-15 .26-15 .27 6.73.27 15-.12 15-.27 15zM438.18 170.9c-.14 0-.26-8.67-.26-19.37s.12-19.37.26-19.37.27 8.67.27 19.37-.12 19.37-.27 19.37z" fill="#263238"/></g><g><path fill="#f26322" d="M62.21 188.09v10.36h-3.56l7.67 8.94 7.2-8.75h-3.64v-10.55h-7.67z"/><path opacity=".3" d="M62.21 188.09v10.36h-3.56l7.67 8.94 7.2-8.75h-3.64v-10.55h-7.67z"/><path d="M87.23 165a20.61 20.61 0 00-36.06-7.73 18.46 18.46 0 00-2-.12 17.14 17.14 0 100 34.27H86.5a13.22 13.22 0 00.73-26.42z" fill="#f26322"/><path d="M91.17 186.78c0-.07.68-.55 1.64-1.54a12.79 12.79 0 002.85-4.51 13 13 0 00.7-5.29c-.11-1.38-.36-2.22-.28-2.24a5.46 5.46 0 01.64 2.2 11.48 11.48 0 01-3.65 10.1 5.49 5.49 0 01-1.9 1.28zM51.65 162.26c0 .09-1-.12-2.49-.14a13.77 13.77 0 00-10.54 4.61c-1 1.13-1.5 2-1.57 1.92a6.33 6.33 0 011.29-2.16 12.86 12.86 0 0110.84-4.74 6.46 6.46 0 012.47.51zM63.22 153.8a15.06 15.06 0 01-1.72.45 12 12 0 00-3.77 1.83 12.26 12.26 0 00-2.91 3 13.36 13.36 0 01-1 1.5 4.06 4.06 0 01.65-1.69 10.13 10.13 0 012.91-3.25 10.24 10.24 0 014-1.77 4 4 0 011.84-.07zM79.27 191.26c0 .14-5 .26-11.25.26s-11.26-.12-11.26-.26S61.8 191 68 191s11.27.11 11.27.26zM80.53 222.12a82.77 82.77 0 01-.26-9.21 82.88 82.88 0 01.26-9.22 80.07 80.07 0 01.26 9.22 80 80 0 01-.26 9.21zM84.13 230.18c-.14 0-.26-5.32-.26-11.87s.12-11.87.26-11.87.26 5.32.26 11.87-.11 11.87-.26 11.87z" fill="#263238"/></g><g><path fill="#f26322" d="M243.28 362.71v48.47h-16.65l35.89 41.8 33.67-40.95h-17.02v-49.32h-35.89z"/><path opacity=".3" d="M243.28 362.71v48.47h-16.65l35.89 41.8 33.67-40.95h-17.02v-49.32h-35.89z"/><path d="M360.32 254.58a96.4 96.4 0 00-168.66-36.15 81.11 81.11 0 00-9.28-.58 80.17 80.17 0 000 160.34h174.56a61.85 61.85 0 003.38-123.61z" fill="#f26322"/><path d="M202.15 269.17a1.74 1.74 0 01-.08-.53c0-.4-.06-.9-.1-1.51 0-.34 0-.7-.06-1.1s-.1-.83-.15-1.29c-.13-.93-.21-2-.47-3.14-.11-.58-.23-1.19-.36-1.82s-.33-1.26-.5-1.93c-.31-1.35-.83-2.74-1.33-4.21a53 53 0 00-4.47-9 53.68 53.68 0 00-6.25-7.93c-1.11-1.08-2.15-2.14-3.23-3-.53-.44-1-.89-1.53-1.28l-1.49-1.1c-.92-.73-1.85-1.26-2.63-1.77l-1.1-.7-1-.52-1.32-.75a1.77 1.77 0 01-.45-.29 2.85 2.85 0 01.49.2l1.38.66 1 .49c.35.19.72.42 1.13.66a30 30 0 012.7 1.72l1.51 1.08c.53.38 1 .84 1.57 1.27a42.43 42.43 0 013.29 3 47.18 47.18 0 0110.83 17.15 42.31 42.31 0 011.3 4.26c.16.68.36 1.32.48 2s.22 1.25.32 1.83a31 31 0 01.4 3.18c0 .47.09.9.11 1.31s0 .76 0 1.1v1.52a3.6 3.6 0 01.01.44zM169.35 253.67c-.07.07-1.12-1-3-2.39a33.22 33.22 0 00-17.09-6.44c-2.37-.2-3.85-.11-3.85-.2a3.47 3.47 0 011-.14 21 21 0 012.84 0 30.08 30.08 0 0117.3 6.5 20.61 20.61 0 012.11 1.9 4.48 4.48 0 01.69.77zM206.07 322.1a7.79 7.79 0 01-1.58 0c-1 0-2.5 0-4.32-.09-3.64-.13-8.67-.43-14.21-1s-10.53-1.23-14.13-1.82c-1.8-.29-3.25-.54-4.25-.74a9.29 9.29 0 01-1.55-.36 11.12 11.12 0 011.58.16l4.28.58c3.6.49 8.59 1.12 14.12 1.66s10.55.9 14.18 1.12l4.3.26a11.41 11.41 0 011.58.23zM357.7 254.09a2.91 2.91 0 01-.56.07l-1.61.11c-.69 0-1.55.08-2.53.21s-2.12.19-3.35.41l-1.94.31c-.67.11-1.36.28-2.08.42-1.44.27-2.95.7-4.55 1.12a67.13 67.13 0 00-19.37 9.05c-1.35.95-2.65 1.83-3.78 2.77-.58.46-1.15.88-1.66 1.32l-1.48 1.29c-1 .8-1.75 1.62-2.47 2.3s-1.31 1.3-1.79 1.82l-1.11 1.16a2.53 2.53 0 01-.42.38 2.61 2.61 0 01.34-.45c.27-.33.62-.73 1-1.23s1-1.18 1.74-1.88 1.47-1.55 2.42-2.37l1.47-1.32c.51-.46 1.08-.89 1.65-1.36 1.13-1 2.43-1.86 3.78-2.83a64.75 64.75 0 0119.6-9.11c1.61-.41 3.14-.83 4.59-1.08.73-.14 1.43-.3 2.11-.4l2-.27c1.24-.2 2.38-.25 3.37-.34a25.07 25.07 0 012.56-.12h1.61a2.2 2.2 0 01.46.02zM352.76 378.73c0 .15-38.65.26-86.31.26s-86.32-.11-86.32-.26 38.64-.26 86.32-.26 86.31.12 86.31.26zM144.31 413.42c-.14 0-.26-7.23-.26-16.14s.12-16.15.26-16.15.26 7.22.26 16.15-.12 16.14-.26 16.14zM150.87 443.2c-.14 0-.26-10.17-.26-22.71s.12-22.71.26-22.71.26 10.16.26 22.71-.13 22.71-.26 22.71z" fill="#263238"/><path d="M382.46 286.7c-2-11.41-17.13-23-30.17-20.39-11.36 2.26-23.59 4.9-34.82 7.74-4.64 1.17-9.44-4.46-13.32-7.25-2-1.46-3.24-3.8-4.51-6-7.23-12.29-19.13-21.51-32.42-26.66s-27.91-6.38-42.08-4.83c-11 1.21-23 5-28.15 14.8-2.06 3.95-2.88 8.69-6.07 11.79-4.26 4.12-11 3.79-16.55 5.88-11.1 4.18-16.72 20.05-15.32 31.82s11.87 26.94 33.88 29.36c0 0 79.73.7 119.1 2.61 13.65.66 17.77-1.22 31.42-1.58 24.09-.58 42.61-16.36 39.01-37.29z" opacity=".3"/><path d="M236 344.05c1.34-.34 2.84-1.72 4-2.46q4.26-2.74 8.43-5.63c-10-2.9-18.45-5.19-28.43-8a33.82 33.82 0 001.1 11.9c.92 3.09 2.68 6.38 5.8 7.2 2.83.74 5.71-.82 8.21-2.36l.69-.43" fill="#e0e0e0"/><path d="M237.71 338.53c-.15 0-.09-1.31-.44-2.84s-1-2.67-.82-2.75a6.08 6.08 0 011.26 5.59zM239.86 338a16.93 16.93 0 01-.16-2.24 16 16 0 01-.31-2.22 4.5 4.5 0 01.47 4.46z" fill="#263238"/><path d="M226.68 329.82c.09 0-.2 1-.22 2.71a12.35 12.35 0 001.57 6.21 16.32 16.32 0 004.08 5 15.26 15.26 0 002.37 1.29 1.74 1.74 0 01-.74-.12 6.76 6.76 0 01-1.84-.87 15 15 0 01-4.33-5.05 11.73 11.73 0 01-1.47-6.48 9.56 9.56 0 01.31-2 1.94 1.94 0 01.27-.69zM234.48 332.13a17.66 17.66 0 011.62 5.87 17.47 17.47 0 010 6.06c-.16 0-.05-2.71-.5-6s-1.28-5.88-1.12-5.93z" fill="#455a64"/><path d="M232.22 342.77a6.44 6.44 0 01-1.59-1.28 14.31 14.31 0 01-3-3.92 8.68 8.68 0 01-.91-4.84 3.63 3.63 0 01.66-1.94c.08 0-.22.75-.29 2a9.41 9.41 0 001 4.58 17.81 17.81 0 002.78 3.9 10.36 10.36 0 011.35 1.5zM246.2 337.35a16.71 16.71 0 01-3.52 2.19 17.19 17.19 0 01-3.76 1.74 16 16 0 013.52-2.2 16.75 16.75 0 013.76-1.73z" fill="#f26322"/><path d="M230.28 342.91a7.23 7.23 0 01-6.65 2.22c0-.15 1.61-.12 3.45-.75s3.11-1.59 3.2-1.47zM226.89 337.79c0 .15-1.35.34-2.85 1s-2.55 1.58-2.66 1.47a4.9 4.9 0 012.44-1.94 4.79 4.79 0 013.07-.53zM226.23 333.24a28.88 28.88 0 00-3.29-.92 33 33 0 00-3.42 0 5.17 5.17 0 013.49-.49 5 5 0 013.22 1.41z" fill="#455a64"/><path d="M302.79 318.78c.06.09-37.51 9.15-37.51 9.15L259.76 315l2.53-3.91s15.88-3.59 28.8-10.9z" fill="#ffbe9d"/><path d="M214.63 281.94s-1.72-2.51-9-6.08c-6.05-3-21.58-5.44-27.87 6.71s-1.46 30.79 9 34.77 27.87 9.43 35 11.73 30.58 8.17 30.58 8.17l9.64-5.65 1.14-18s-13.29-13.65-24.6-17.42-23.89-14.23-23.89-14.23z" fill="#263238"/><path d="M192.93 273.46c.1-.15 10.66.15 18.37 3.06 2.9 1.09 5.74 2.26 5.74 2.26l4.26-12.14L253.23 256h35.35l11.5 22.78v1.15s13.81.23 19.79-2.53 24.61-10.82 29.44-12.43 26.46-4.7 31.29 8.46 1.41 26.89-6.67 31.91c-3.81 2.36-68.09 19-68.09 19l-15.19-24.16s-23.14 11.47-30.89 10.22-66.83-36.94-66.83-36.94z" fill="#263238"/><path d="M258.13 261.87a2.62 2.62 0 01.16.47c.09.36.21.81.35 1.35.29 1.18.66 2.91 1 5.05.78 4.28 1.56 10.25 2.16 16.86s.92 12.61 1.05 17c.07 2.17.09 3.93.09 5.15v1.4a1.47 1.47 0 010 .49 3.26 3.26 0 01-.06-.49c0-.38 0-.84-.07-1.4-.07-1.29-.15-3-.26-5.13-.22-4.34-.61-10.33-1.2-16.94s-1.32-12.55-2-16.84c-.33-2.14-.65-3.87-.88-5.06-.1-.55-.19-1-.26-1.38a1.64 1.64 0 01-.08-.53zM299.73 280.49c0 .14-8 1.15-17.91 2.25s-17.94 1.88-18 1.73 8-1.15 17.91-2.25 17.98-1.87 18-1.73zM294.45 280.54a4.65 4.65 0 01-1.14-.09c-.73-.1-1.78-.23-3.09-.36a81.81 81.81 0 00-10.23-.47 84.1 84.1 0 00-10.2.82l-3.07.47a5.63 5.63 0 01-1.14.14 4.48 4.48 0 011.1-.33c.71-.19 1.75-.41 3.05-.64a66.34 66.34 0 0120.54-.36c1.3.19 2.35.37 3.07.53a5.74 5.74 0 011.11.29zM299.34 279.16a36.12 36.12 0 00-6.85-2.54 35.43 35.43 0 00-7.29-.57 6.44 6.44 0 012.15-.36 19.22 19.22 0 0110.19 2.25 6.86 6.86 0 011.8 1.22zM269.9 298.93a8.22 8.22 0 01-3.24 2 8 8 0 01-3.71.79c0-.15 1.61-.51 3.51-1.28s3.35-1.63 3.44-1.51z" fill="#455a64"/><path d="M268.2 303.41a8 8 0 01-5.41.78 12.21 12.21 0 012.7-.43 12.71 12.71 0 012.71-.35zM322.53 278.28a2.83 2.83 0 01-.47.32l-1.39.83-5.18 3-17.18 9.66-17.26 9.53-5.26 2.84-1.45.75a3.21 3.21 0 01-.52.23 2.5 2.5 0 01.47-.32l1.4-.84 5.18-3 17.18-9.66 17.26-9.53 5.26-2.83 1.44-.75a1.87 1.87 0 01.52-.23zM349.5 273.19a4.53 4.53 0 01-.65.16l-1.86.38c-1.62.34-3.95.88-6.79 1.68a122.14 122.14 0 00-21.4 8.49c-8.06 4-15 8.3-20.08 11.37l-6 3.66-1.64 1a4.21 4.21 0 01-.59.31 3.26 3.26 0 01.54-.4l1.58-1.06c1.38-.91 3.38-2.22 5.88-3.8 5-3.16 12-7.47 20.05-11.53a114.19 114.19 0 0121.53-8.38c2.87-.76 5.22-1.24 6.85-1.51.81-.16 1.45-.23 1.88-.29a2.8 2.8 0 01.7-.08z" fill="#455a64"/><path d="M365.33 268.64c0 .09-1.16 0-3 0a30.34 30.34 0 00-7.17 1.08 30.75 30.75 0 00-6.7 2.76c-1.63.92-2.57 1.6-2.62 1.53s.19-.23.6-.56a17.66 17.66 0 011.83-1.28 25.69 25.69 0 016.75-2.95 26.19 26.19 0 017.3-.95 18 18 0 012.23.16 2.8 2.8 0 01.78.21z" fill="#455a64"/><path d="M359.77 272.87c0 .15-2.68-.2-6-.08s-5.9.64-5.93.49a17 17 0 015.91-1 17.18 17.18 0 016.02.59zM348.17 268.79c.07.14-2.23 1.36-4.79 3.27s-4.41 3.75-4.52 3.64a16.68 16.68 0 014.21-4.06 17 17 0 015.1-2.85zM382 280.2a2.35 2.35 0 01-.11.21l-.33.59c-.31.53-.77 1.28-1.44 2.21a32.2 32.2 0 01-6.73 7 64.54 64.54 0 01-12.4 7.27c-4.92 2.27-10.53 4.27-16.41 6.33l-30.14 10.55-9.16 3.13-2.49.83-.66.21a.76.76 0 01-.23.05l.21-.1.64-.26 2.47-.92 9.1-3.29 30.09-10.69c5.88-2.06 11.48-4 16.39-6.28a66.29 66.29 0 0012.37-7.12 34.27 34.27 0 006.83-6.82c.68-.91 1.18-1.65 1.51-2.15l.38-.57q.11-.19.11-.18zM260.91 332.23a6.25 6.25 0 01-.73-.26l-2.06-.83c-1.78-.73-4.35-1.82-7.5-3.21-6.31-2.77-15-6.73-24.4-11.34s-17.87-9-23.84-12.5c-3-1.72-5.36-3.18-7-4.23l-1.85-1.23a3.84 3.84 0 01-.62-.46 4.8 4.8 0 01.68.37l1.89 1.15c1.65 1 4.05 2.41 7.06 4.07 6 3.37 14.46 7.73 23.89 12.36s18.06 8.62 24.32 11.47l7.45 3.41 2 .91a3.84 3.84 0 01.71.32zM195.41 279.77a3.51 3.51 0 01.89-.57 18.29 18.29 0 012.62-1.14 21 21 0 019.36-1 26 26 0 019.06 2.58 12.33 12.33 0 012.36 1.62 3.52 3.52 0 01.73.75 29.74 29.74 0 00-3.26-2.05 28.43 28.43 0 00-9-2.38 22.22 22.22 0 00-9.17.8c-2.25.73-3.55 1.48-3.59 1.39z" fill="#455a64"/><path d="M263.11 313.6a2 2 0 01-.47-.36l-1.28-1.09c-1.11-1-2.75-2.3-4.79-3.94-4.08-3.27-9.84-7.65-16.19-12.5l-4.62-3.55c-1.51-1.12-3-2.08-4.52-3-3-1.77-5.7-3.28-7.87-4.77a31.31 31.31 0 01-4.83-3.92 16.13 16.13 0 01-1.14-1.24 2.32 2.32 0 01-.36-.47s.57.58 1.64 1.57a35.09 35.09 0 004.89 3.75c2.18 1.44 4.93 2.91 7.92 4.67 1.49.89 3 1.85 4.57 3s3 2.34 4.63 3.55c6.35 4.85 12.08 9.27 16.11 12.63 2 1.67 3.63 3.06 4.69 4.06.55.5.95.9 1.22 1.18a3.15 3.15 0 01.4.43zM236.74 288.67a33.69 33.69 0 013.56 1.33c2.19.85 5.22 2 8.63 3.05s6.53 1.91 8.8 2.47a36.55 36.55 0 013.68 1 3.54 3.54 0 01-1-.1c-.65-.09-1.59-.26-2.74-.5a88.62 88.62 0 01-8.88-2.34 90.53 90.53 0 01-8.61-3.2c-1.07-.47-1.94-.87-2.53-1.16a4.63 4.63 0 01-.91-.55z" fill="#455a64"/><path d="M247.8 279.81a30.71 30.71 0 01-3.59.62c-2.22.33-5.29.8-8.66 1.4s-6.41 1.23-8.61 1.69a28 28 0 01-3.58.66 3.81 3.81 0 01.92-.33c.6-.18 1.48-.42 2.57-.69 2.19-.55 5.22-1.23 8.61-1.84s6.46-1 8.7-1.26c1.12-.12 2-.2 2.66-.24a3.36 3.36 0 01.98-.01zM243.06 273.94c0 .08-1.38.2-3.58.53a56.51 56.51 0 00-16.58 5.14c-2 1-3.21 1.67-3.25 1.59a3.47 3.47 0 01.79-.57c.52-.35 1.3-.81 2.29-1.35a46.4 46.4 0 018.11-3.38 47.31 47.31 0 018.59-1.8c1.12-.12 2-.18 2.65-.19a3.13 3.13 0 01.98.03z" fill="#455a64"/><path d="M283.24 324.43l-6 14c2.21 2 10.61 3.28 13.57 3.13s7.24-.12 10.19-.45a64.52 64.52 0 0111.29.08 50 50 0 0011.28-.21 18.2 18.2 0 0010-4.78 10.37 10.37 0 00-3.09-17.43 18.37 18.37 0 00-9.57-1.31 53.08 53.08 0 00-9.52 2.16c-3.33 1-6.74 2-10.2 1.7-.7-.06-1.4 0-2.09-.16-4.52-.84-9.23-.88-13.3 1.68-.8.51-1.71.96-2.56 1.59z" fill="#e0e0e0"/><path d="M284.11 326a3.78 3.78 0 01.53-.5 12.33 12.33 0 011.72-1.19 12.52 12.52 0 017.45-1.61c1.62.16 3.36.49 5.24.77a23.51 23.51 0 006 .29 36 36 0 006.48-1.49 32.7 32.7 0 017.08-1.5 20 20 0 017.22.62 16.94 16.94 0 013.22 1.3 9.54 9.54 0 012.66 2 12.09 12.09 0 012.87 5.41 6.53 6.53 0 01.09 2.81 7.47 7.47 0 01-1 2.41 9.86 9.86 0 01-3.11 3.1 17.63 17.63 0 01-2.95 1.51c-.84.35-1.5.58-1.95.74a3.19 3.19 0 01-.7.2 4.21 4.21 0 01.66-.3c.44-.19 1.09-.45 1.91-.82a20.35 20.35 0 002.87-1.57 9.6 9.6 0 002.95-3.05 6.3 6.3 0 00.77-4.94 11.81 11.81 0 00-2.8-5.17 12.27 12.27 0 00-5.67-3.17 19.81 19.81 0 00-7-.6c-4.88.36-9.21 2.59-13.55 3a23.76 23.76 0 01-6.1-.34c-1.88-.31-3.61-.66-5.21-.84a12.84 12.84 0 00-7.32 1.42 26.37 26.37 0 00-2.36 1.51z" fill="#455a64"/><path d="M325 340.93s-.22-.19-.54-.61a6.76 6.76 0 01-.55-.78 9.78 9.78 0 01-.63-1.1 17.94 17.94 0 01-1.25-3.05 21.84 21.84 0 01-.8-4 22.94 22.94 0 010-4.05 18.19 18.19 0 01.61-3.24 10.09 10.09 0 01.4-1.21 7.09 7.09 0 01.37-.88c.24-.47.38-.72.41-.7s-.4 1.08-.82 2.88a19.55 19.55 0 00-.49 3.19 26.4 26.4 0 00.06 3.95 25.93 25.93 0 00.75 3.88 20.32 20.32 0 001.12 3c.73 1.79 1.42 2.67 1.36 2.72z" fill="#263238"/><path d="M286.93 322.47c.13.07 0 .59-.29 1.19s-.52 1.08-.66 1-.08-.6.18-1.23.65-1.03.77-.96zM291.2 320.81c.13.06 0 .57-.17 1.17s-.42 1.08-.56 1-.14-.58.06-1.21.54-1.02.67-.96zM296.69 320.7c.13.05.06.64-.16 1.32s-.52 1.2-.65 1.15-.07-.63.15-1.31.52-1.2.66-1.16zM301.84 321.35c.14 0 .09.63-.11 1.32s-.48 1.22-.61 1.18-.09-.63.11-1.33.47-1.21.61-1.17zM306.18 324.07c-.14 0-.26-.7-.25-1.56s.12-1.55.27-1.55.25.7.25 1.55-.13 1.56-.27 1.56zM311 322.84c-.15 0-.35-.6-.46-1.38s-.08-1.43.06-1.45.35.6.46 1.38.1 1.43-.06 1.45zM315.46 318.47c.14 0 .37.56.51 1.31s.14 1.38 0 1.4-.37-.56-.51-1.31-.14-1.38 0-1.4zM321.22 317.41c.14 0 .08.85-.12 1.83s-.5 1.76-.64 1.73-.08-.85.13-1.83.49-1.76.63-1.73zM326.16 317.55c.13.06-.22 1-.79 2s-1.13 1.86-1.25 1.79a4.82 4.82 0 01.79-2c.56-1.05 1.09-1.85 1.25-1.79zM331.19 318.87c.12.08-.34 1-1 2.06s-1.35 1.86-1.47 1.78.34-1 1-2.06 1.35-1.86 1.47-1.78zM334.43 321.91c.11.08-.33.91-1 1.86s-1.29 1.65-1.4 1.57.32-.92 1-1.87 1.28-1.65 1.4-1.56zM336.69 325.77c.12.08-.33.89-1.09 1.73s-1.52 1.36-1.61 1.26.49-.79 1.23-1.61 1.35-1.47 1.47-1.38zM336.36 331.66c.11.08-.14.57-.73.83s-1.13.12-1.11 0 .43-.25.9-.46.83-.47.94-.37zM333.16 336.7c0 .13-.09.3-.31.27s-.29-.25-.2-.36a.36.36 0 01.29-.16.35.35 0 01.22.25z" fill="#455a64"/><path d="M298.29 338.69a23 23 0 001.63-4.68 23.23 23.23 0 00.1-5 9.84 9.84 0 01-1.73 9.64zM302.41 338.22a20.64 20.64 0 001.5-4.32 19.91 19.91 0 000-4.58 8.58 8.58 0 01-1.49 8.9zM307.6 338.25a13.27 13.27 0 001.78-9.63 3.18 3.18 0 01.52 1.42 9.64 9.64 0 010 3.66 9.4 9.4 0 01-1.33 3.41c-.49.79-.92 1.18-.97 1.14zM313.46 337.9a26.56 26.56 0 001.35-4.81 27.61 27.61 0 00-.1-5 10.46 10.46 0 01-1.25 9.82zM297.24 333.51a1.6 1.6 0 01-.85.12 4.7 4.7 0 01-2.23-.73 9.93 9.93 0 01-2.48-2.4 6.05 6.05 0 01-1.08-1.79 2.42 2.42 0 01-.09-1.17 1.86 1.86 0 01.62-1.08 2.47 2.47 0 012.28-.43 4.36 4.36 0 011.79 1.13 8.21 8.21 0 011.87 2.92 7.68 7.68 0 01.49 2.27 2 2 0 01-.05.85 14.68 14.68 0 00-.78-3 8.33 8.33 0 00-1.87-2.71 3.84 3.84 0 00-1.59-1 2 2 0 00-1.8.34 1.54 1.54 0 00-.38 1.7 5.64 5.64 0 001 1.65 10.1 10.1 0 002.3 2.38 5.35 5.35 0 002.85.95z" fill="#263238"/><path d="M297 333.36a2.26 2.26 0 01-.19.76 11.76 11.76 0 01-.86 2 5.84 5.84 0 01-2.22 2.34 4 4 0 01-1.9.52 2.26 2.26 0 01-2-.95 2 2 0 01.22-2.16 4 4 0 011.5-1.26 11.51 11.51 0 013.08-.88 15.28 15.28 0 012.88-.43 16.92 16.92 0 01-2.8.79 12.79 12.79 0 00-2.94.95 3.57 3.57 0 00-1.3 1.12 1.52 1.52 0 00-.19 1.6 1.79 1.79 0 001.5.71 3.51 3.51 0 001.67-.43 5.85 5.85 0 002.14-2.11c.91-1.54 1.28-2.62 1.41-2.57z" fill="#263238"/><path d="M296.59 337.62c-.12-.1.46-.87.63-2s-.11-2 0-2.08a2.34 2.34 0 01.48 2.17c-.17 1.29-1.03 2.02-1.11 1.91zM298.82 330.63c.13 0 0 .8-.43 1.62s-1 1.34-1.11 1.26.24-.73.65-1.5.75-1.43.89-1.38z" fill="#263238"/><path d="M314.83 323.19a8.54 8.54 0 01-2.22 1.05A28.69 28.69 0 01300.9 326a8.88 8.88 0 01-2.43-.35 65 65 0 008.3-.43 63.69 63.69 0 008.06-2.03zM312.35 339.4a28.88 28.88 0 01-5.49.64 29.76 29.76 0 01-5.52.12 28.88 28.88 0 015.49-.64 29.76 29.76 0 015.52-.12zM325.62 339.79a8.84 8.84 0 003.52-1.3 7.76 7.76 0 002.62-3.05 8 8 0 00.54-4.84 9 9 0 00-2.22-4.39 10.48 10.48 0 00-3.3-2.36 18.81 18.81 0 00-3.66-1.07 2.94 2.94 0 011.05 0 10.46 10.46 0 012.75.71 10.22 10.22 0 013.51 2.37 9.22 9.22 0 012.38 4.62 8.23 8.23 0 01-.62 5.15 7.89 7.89 0 01-2.85 3.15 7 7 0 01-2.68 1 2.79 2.79 0 01-1.04.01z" fill="#f26322"/><path d="M262.36 315.21l26 11.55a20.58 20.58 0 01-1.6 9.67c-1.9 3.9-7.67 3.12-7.67 3.12l-22.88-5.32 5.1-3z" fill="#ffbe9d"/><path d="M285.6 338.48a15.9 15.9 0 01-2.8-2.5 5.36 5.36 0 01-1.32-3.43 7.15 7.15 0 011.12-3.19 5.54 5.54 0 012.59-2.66c1.44-.54 3 .08 4.41.77l.27 5.8z" fill="#e0e0e0"/><path d="M288.4 326.76c-.06.13-5.93-2.35-13.12-5.54s-13-5.88-12.92-6 5.94 2.34 13.13 5.53 12.97 5.87 12.91 6.01z" fill="#eb996e"/><path d="M318 221.91a1.9 1.9 0 002-1.81c.29-8.22-5.13-26.84-7.73-34.57-1.59-4.72-7-8.17-10.72-10.71-4.54-3.07-20.59-6.83-25.88-8.29h-1.78l-24.59-1.83-13.51 6.47s-18.73 7.1-24.16 17-9.56 38.83-9.56 38.83-2.49 8.27 0 12c1.55 2.33 7.32 4.35 12.51 5.34-2.81 9.36-.59 16.31-.69 17.5-.21 2.46-2.1 8.19 2.33 7.84s39.07-9.5 49.36-9.91a48.54 48.54 0 0124.94 6.12c5.19 2.91 5.15 3.12 7-2S293.46 253 293.46 253s5.3-19.15 7.77-31.67z" fill="#455a64"/><path d="M235.51 210.79s-.31-.27-.78-.83-1.21-1.43-2-2.37a68.88 68.88 0 00-7-7.33 33.28 33.28 0 00-4.48-3.32 25 25 0 00-4.07-2c-2.43-.92-4-1.15-4-1.25a4.51 4.51 0 011.13.12 9.78 9.78 0 011.31.28 13.68 13.68 0 011.7.51 23.17 23.17 0 014.2 1.95 31.77 31.77 0 014.57 3.33 56.16 56.16 0 017 7.5c.81 1 1.45 1.88 1.87 2.48a5.85 5.85 0 01.55.93zM231 238.44a5.59 5.59 0 01-1.21.09c-.78 0-1.91.05-3.31 0a79.86 79.86 0 01-10.87-.81 48.08 48.08 0 01-10.53-2.72 29.55 29.55 0 01-3-1.35 4.94 4.94 0 01-1.05-.61c0-.08 1.58.68 4.2 1.62a56.73 56.73 0 0010.51 2.58 106.47 106.47 0 0010.8.95l3.3.13a5.39 5.39 0 011.16.12zM283 247.82a2.69 2.69 0 01-.36.75 20.4 20.4 0 01-1.23 1.87 27.21 27.21 0 01-11.53 9 17.31 17.31 0 01-2.12.74 2.77 2.77 0 01-.8.17c0-.09 1.07-.46 2.77-1.24a33.19 33.19 0 006.21-3.79 32.58 32.58 0 005.18-5.11c1.13-1.45 1.76-2.43 1.88-2.39zM283.4 255.5a5.93 5.93 0 01-1.63 1.29 21.41 21.41 0 01-4.5 2.21 22.19 22.19 0 01-4.89 1.12 6.1 6.1 0 01-2.08 0 50.86 50.86 0 006.79-1.63 50.46 50.46 0 006.31-2.99zM312.2 185.53a3 3 0 01-.12.85 21.49 21.49 0 01-.59 2.25 34.14 34.14 0 01-3.09 7 35.09 35.09 0 01-4.58 6.16c-.67.71-1.24 1.26-1.66 1.62s-.65.55-.68.52.8-.91 2.07-2.39a42.61 42.61 0 004.4-6.17 42.18 42.18 0 003.19-6.88c.66-1.81.98-2.98 1.06-2.96zM318.5 217.51a10.63 10.63 0 01-2.42.19h-5.85c-2.28 0-4.35-.24-5.84-.4a10.67 10.67 0 01-2.4-.38 12.48 12.48 0 012.42 0l5.84.25 5.83.2a11.92 11.92 0 012.42.14z" fill="#263238"/><path d="M299 188.84a7.65 7.65 0 01.34 1.32c.2 1 .46 2.17.76 3.63.62 3.07 1.51 7.32 2 12.09a52 52 0 01-.06 12.27c-.23 1.55-.46 2.8-.68 3.65a7.81 7.81 0 01-.37 1.32 6.73 6.73 0 01.17-1.36c.16-.85.34-2.11.51-3.66a57.8 57.8 0 00-.09-12.17c-.53-4.73-1.36-9-1.88-12.07-.27-1.54-.48-2.8-.6-3.66a6 6 0 01-.1-1.36zM235.51 214.25a5.32 5.32 0 01-.07 1.16c-.08.74-.21 1.8-.38 3.11-.35 2.63-.88 6.26-1.61 10.24a89.76 89.76 0 01-2.36 10.1 27.28 27.28 0 01-1.08 2.95 5 5 0 01-.55 1c-.08 0 .62-1.52 1.28-4.08s1.47-6.12 2.2-10.09 1.31-7.58 1.76-10.19q.31-1.83.54-3.09a4.84 4.84 0 01.27-1.11zM232.14 198.32a7.84 7.84 0 011 2 37.05 37.05 0 012.6 10.29 7.55 7.55 0 010 2.2c-.16 0-.47-3.32-1.49-7.31s-2.25-7.12-2.11-7.18z" fill="#263238"/><path d="M260.44 233.78a4 4 0 01.28-.57c.22-.4.52-.93.89-1.61l3.36-5.95c2.93-5.1 7-12.18 11.68-20.32l.33.35c-3 1.44-6.14 2.86-9.48 4.18-4 1.6-8 2.95-11.69 4l-.78.23.52-.63 14-17 4.1-4.9 1.11-1.3a3.43 3.43 0 01.41-.43 3.49 3.49 0 01-.34.49l-1.05 1.34-4 5-13.88 17.15-.27-.4c3.68-1.1 7.63-2.45 11.64-4 3.32-1.32 6.5-2.73 9.45-4.15l.75-.36-.42.71-11.84 20.23-3.49 5.88-1 1.57a3.14 3.14 0 01-.28.49z" fill="#fff"/><path d="M278.38 261.15c1.18.31 3.44-3.26 4.75-5.45-4 2.22-7.86 4.88-12.34 3.91a15.7 15.7 0 0010.8-10.09 25.85 25.85 0 01-13.14 10.25s8.06.89 9.93 1.38z" opacity=".3"/><path d="M232.14 155s.68.28 2 .56a8.29 8.29 0 005.39-.53 6.44 6.44 0 002.72-2.53 4.83 4.83 0 00.44-4.1 4.43 4.43 0 00-3.31-3 3.88 3.88 0 00-4 2.32 3 3 0 00.09 2.4 4 4 0 001.7 1.71 4.51 4.51 0 002.28.59 5.61 5.61 0 002.23-.52 9.21 9.21 0 003.34-2.73 12.9 12.9 0 001.92-3.29 14.29 14.29 0 001-5.44c0-1.31-.17-2-.12-2.05a1.88 1.88 0 01.14.52 11.51 11.51 0 01.18 1.53 13.51 13.51 0 01-.91 5.57 13.17 13.17 0 01-1.92 3.43 9.51 9.51 0 01-3.48 2.89 6.12 6.12 0 01-2.42.59 5.08 5.08 0 01-2.54-.64 4.48 4.48 0 01-1.91-1.94 3.44 3.44 0 01-.11-2.81 4.36 4.36 0 014.54-2.63 4.85 4.85 0 013.68 3.3 5.3 5.3 0 01-.51 4.48 6.87 6.87 0 01-2.93 2.64 8.28 8.28 0 01-5.61.4 8.5 8.5 0 01-1.45-.51 2.26 2.26 0 01-.43-.21zM310.54 132.93a14.31 14.31 0 00-3.77-11.23 12.09 12.09 0 00-11.18-3.44 14.54 14.54 0 00-7.61 4 7.71 7.71 0 00-1.54 2.21c-.07.12-.13.25-.2.38s-.15.33-.22.5v.08a14.61 14.61 0 00-.88 9 13.77 13.77 0 009 9.89A12.81 12.81 0 00307 141a13.68 13.68 0 003.54-8.07z" fill="#263238"/><path d="M308.75 139.61c-.09 0-.27-1.14-1-2.85a15.71 15.71 0 00-10.37-9.24c-1.78-.5-3-.54-2.94-.64a2.5 2.5 0 01.82 0 12.36 12.36 0 012.21.32 14.8 14.8 0 0110.62 9.46 12.77 12.77 0 01.57 2.16 2.44 2.44 0 01.09.79z" fill="#455a64"/><path d="M304.84 131.71a8.32 8.32 0 01-.91 2.35 20.45 20.45 0 01-3.56 4.95 20.24 20.24 0 01-4.89 3.63 8.51 8.51 0 01-2.33 1c-.1-.17 3.56-1.59 6.85-5s4.68-7.03 4.84-6.93z" fill="#455a64"/><path d="M294.05 127.41c-.15-.09 1.05-2 2-4.56a21.56 21.56 0 001.05-4.83 3.23 3.23 0 01.18 1.48 11.09 11.09 0 01-.74 3.53 13.28 13.28 0 01-2.49 4.38z" fill="#f26322"/><path d="M294.2 123.93a22.58 22.58 0 00-20-23.4 21.93 21.93 0 00-24.3 20.17l-2 49.36a4.28 4.28 0 00.81 2.67 20.1 20.1 0 0013 8 21.07 21.07 0 0012.95-2.94 4.2 4.2 0 002.06-3.65v-11a.07.07 0 01.07-.07 15.14 15.14 0 003.09-.14c2.91-.77 10.3-3.77 12.59-14.74.67-3.72 1.32-14.02 1.73-24.26z" fill="#ffbe9d"/><path d="M278.29 140.35a13.33 13.33 0 013.19-.4c.5 0 1-.1 1.08-.43a2.52 2.52 0 00-.27-1.46c-.41-1.21-.85-2.48-1.3-3.8-1.8-5.41-3.08-9.84-2.86-9.91s1.86 4.26 3.66 9.66c.43 1.34.85 2.61 1.24 3.82a2.79 2.79 0 01.17 1.93 1.25 1.25 0 01-.85.68 3.28 3.28 0 01-.85.07 13.08 13.08 0 01-3.21-.16zM289.45 131.29a1.8 1.8 0 01-1.83 1.71 1.73 1.73 0 01-1.79-1.7 1.78 1.78 0 011.83-1.71 1.73 1.73 0 011.79 1.7zM291.25 125.86c-.18.19-1.63.1-3.47.72s-3.06 1.59-3.3 1.54 0-.32.57-.76a8.44 8.44 0 012.59-1.38 7.4 7.4 0 012.81-.42c.63.05.89.2.8.3zM270.69 130.06a1.8 1.8 0 01-1.83 1.71 1.74 1.74 0 01-1.79-1.7 1.79 1.79 0 011.83-1.71 1.73 1.73 0 011.79 1.7zM271.33 127.46c-.29 0-1.35-1.14-3.25-2s-3.56-1.08-3.7-1.3.27-.21 1-.14a9.24 9.24 0 013 .9 8.13 8.13 0 012.5 1.77c.5.46.58.76.45.77z" fill="#263238"/><path d="M276.63 163s-7.55.22-16.71-5.82c0 0 2.52 9.93 16.71 9.35zM277.26 144.92a3.6 3.6 0 00-3.09-1.44 3.25 3.25 0 00-2.27 1.06 2 2 0 00-.26 2.27 2.4 2.4 0 002.53.77 7.44 7.44 0 002.55-1.34 2.17 2.17 0 00.59-.54.64.64 0 000-.71" fill="#eb996e"/><path d="M272.5 141.38c.31 0 .22 2.08 2 3.65s4 1.45 4 1.74c0 .13-.52.38-1.47.36a5.39 5.39 0 01-3.35-1.34 4.56 4.56 0 01-1.52-3c-.07-.92.19-1.43.34-1.41zM272.64 119.72c-.27.48-2.15-.09-4.45-.22s-4.23.17-4.45-.35c-.09-.24.3-.67 1.12-1a7.48 7.48 0 013.44-.55 7.38 7.38 0 013.34 1c.78.4 1.13.89 1 1.12zM291.21 120c-.36.42-1.68-.1-3.29-.2s-3 .14-3.29-.33c-.13-.23.11-.66.72-1a4.9 4.9 0 015.31.43c.55.46.71.92.55 1.1z" fill="#263238"/><path d="M275.84 98c-1-1.71-3-2.46-5.08-2.75-8.66-1.14-18.2 4.24-22.9 11.6s-4.76 18.25-1.07 26.15l3.25.51c6.74-.53 17.74-19.54 27-30.1 1.15-1.3-.28-3.89-1.2-5.41z" fill="#263238"/><path d="M292.48 103.39c-3.68-4-9.65-8.94-17.09-6-1.07 2.12 1.21 4.81 3.09 6.36 2.77 2.29 5.18 3.82 7 5.45 3.67 3.31 8.25 8.81 8.72 15 0 .39.33.44.72.37s1.61-2.63 2.15-6c1.12-7.16-.9-11.14-4.59-15.18zM250.57 122.22a10.89 10.89 0 00-2.28-4.49 10.46 10.46 0 00-2.52-2.17 12.1 12.1 0 00-11.7-.17 14.29 14.29 0 00-7 9.52 13.69 13.69 0 00.87 8.79 12.79 12.79 0 0011.24 7.07 13.78 13.78 0 0011.63-6.63c1.66-2.82 1.19-7.8-.24-11.92z" fill="#263238"/><path d="M252.11 129.54c-.2-.1-8.24-3.11-8.59 5.29s8.16 7 8.18 6.78.41-12.07.41-12.07z" fill="#ffbe9d"/><path d="M249.27 138.32s-.15.1-.4.2a1.49 1.49 0 01-1.1 0c-.87-.37-1.56-1.81-1.54-3.32a4.76 4.76 0 01.5-2.08 1.7 1.7 0 011.15-1.08.74.74 0 01.84.44c.11.24.05.4.09.42s.19-.13.13-.48a.85.85 0 00-.31-.54 1.1 1.1 0 00-.8-.25 2.07 2.07 0 00-1.58 1.24 5 5 0 00-.6 2.32c0 1.69.78 3.31 2 3.72a1.57 1.57 0 001.35-.17c.25-.22.3-.4.27-.42z" fill="#eb996e"/><path d="M294.21 105.07a8.94 8.94 0 01-2.45.32 33.17 33.17 0 01-5.95-.2A34.37 34.37 0 01280 104a8.89 8.89 0 01-2.3-.9 16.43 16.43 0 012.4.55 53.07 53.07 0 005.8 1.06 53.74 53.74 0 005.88.35 15.17 15.17 0 012.43.01zM297 111.1a4.84 4.84 0 01-1.82.43 14.06 14.06 0 01-4.54-.24 14.23 14.23 0 01-4.22-1.67 4.66 4.66 0 01-1.48-1.16 25.26 25.26 0 005.81 2.32 26.24 26.24 0 006.25.32zM246.79 109.75c0-.11 1.82.21 4.75.13a34.77 34.77 0 005.12-.52 46.53 46.53 0 006.09-1.58 49.76 49.76 0 005.82-2.43 45.35 45.35 0 004.46-2.57c2.46-1.6 3.83-2.81 3.9-2.74a6.71 6.71 0 01-.93.9c-.3.28-.69.6-1.16 1s-1 .78-1.6 1.19a40.51 40.51 0 01-4.46 2.69 45.88 45.88 0 01-5.86 2.49 41.76 41.76 0 01-6.18 1.56 32 32 0 01-5.19.42 17.35 17.35 0 01-2-.08 11 11 0 01-1.5-.16 7 7 0 01-1.26-.3zM276.37 103a6.48 6.48 0 01-.67 1.17c-.23.37-.52.82-.89 1.31s-.76 1.08-1.28 1.66a34.41 34.41 0 01-3.77 3.94 37.73 37.73 0 01-5.39 3.94 36.36 36.36 0 01-6.07 2.83 32.19 32.19 0 01-5.28 1.36c-.76.16-1.46.21-2.07.28a12.7 12.7 0 01-1.58.12 8.27 8.27 0 01-1.35 0c0-.11 1.92-.15 4.93-.75a36 36 0 005.19-1.45 35.66 35.66 0 0011.3-6.69 36.87 36.87 0 003.81-3.81c2.02-2.36 3.03-3.98 3.12-3.91z" fill="#455a64"/><path d="M270.76 95.28a3.24 3.24 0 011.69.12 7.29 7.29 0 013.45 2.17 6.43 6.43 0 01.7 1 5.08 5.08 0 01.42 1 11.66 11.66 0 01.47 1.76 2.61 2.61 0 01-.12 1.69c-.09 0 0-.65-.24-1.61a15.21 15.21 0 00-.57-1.68 4.92 4.92 0 00-.4-.94 5.79 5.79 0 00-.65-.87 8 8 0 00-3.17-2.17c-.94-.33-1.58-.38-1.58-.47z" fill="#455a64"/><path d="M248.59 128.81c-.08 0 .17-.87.35-2.25a14.92 14.92 0 00-.31-5.39 11.27 11.27 0 00-2.54-4.71c-1-1-1.7-1.49-1.64-1.58s.21.07.56.28a7.44 7.44 0 011.34 1 10.39 10.39 0 012.78 4.84 12.84 12.84 0 01.17 5.57 6.41 6.41 0 01-.71 2.24z" fill="#f26322"/><path d="M249.22 127c-.05.07-1.08-.59-2.85-1.47a32.05 32.05 0 00-14.86-3.31c-2 0-3.18.2-3.2.12a2.71 2.71 0 01.84-.21 19.71 19.71 0 012.35-.28 27.86 27.86 0 0115 3.36 18.27 18.27 0 012 1.24c.5.29.74.48.72.55z" fill="#455a64"/><path d="M241.57 123.62a8.64 8.64 0 01-.63 2.47 23.71 23.71 0 01-2.81 5.46 23.39 23.39 0 01-4.14 4.54 8.38 8.38 0 01-2.09 1.45 39.85 39.85 0 005.8-6.29 40.28 40.28 0 003.87-7.63zM247.1 139.94c.06-.16.36-.26.86-.13a3.22 3.22 0 011.76 1.32 3.91 3.91 0 01-.91 5.3 4.13 4.13 0 01-4.63.12 4.34 4.34 0 01-1.46-1.6 4 4 0 01-.48-1.91 4.12 4.12 0 01.37-1.56 3 3 0 011.54-1.63c.53-.2.85-.06.89.1.06.36-.57.84-.67 2.07a3 3 0 000 .9 2.48 2.48 0 00.39.81 2 2 0 001.65.87 1.64 1.64 0 001.49-.9 2.32 2.32 0 00.17-1.72c-.3-1.11-1.07-1.7-.97-2.04z" fill="#455a64"/><path d="M255.61 126.65a24.94 24.94 0 005.06-.89 21.39 21.39 0 0010-7 33.52 33.52 0 005.6-11c.48-1.53.81-2.78 1-3.64a7.44 7.44 0 01.38-1.34 7.29 7.29 0 01-.19 1.38c-.15.88-.43 2.15-.86 3.7a31.66 31.66 0 01-5.56 11.23 20.93 20.93 0 01-10.28 7 15.47 15.47 0 01-3.77.61 10.36 10.36 0 01-1 0c-.25-.02-.38-.03-.38-.05zM276.35 170.39a1.58 1.58 0 01.51.25 5 5 0 011.19 1.11 6.09 6.09 0 011.1 2.33 6.42 6.42 0 01-.09 3.41 10 10 0 01-6.13 6.13 21.1 21.1 0 01-5.08 1.24 30.42 30.42 0 01-5.6.22 20.15 20.15 0 01-10.25-3.23 14.94 14.94 0 01-5.62-6.74 8.46 8.46 0 01-.67-3.34 5.14 5.14 0 01.68-2.49 4 4 0 011.08-1.22 1.66 1.66 0 01.49-.27 4.8 4.8 0 00-1.39 1.59 5 5 0 00-.57 2.39 8.61 8.61 0 00.72 3.21 14.79 14.79 0 005.55 6.47 20 20 0 0010 3.11 30.37 30.37 0 005.51-.21 20.34 20.34 0 005-1.18 9.64 9.64 0 006-5.78 6.38 6.38 0 00-.82-5.52 6.73 6.73 0 00-1.61-1.48z" fill="#263238"/><path d="M254.35 183.35a3.24 3.24 0 01.49-2.39c.64-1.24 1.61-1.87 1.69-1.76s-.65.87-1.23 2-.8 2.17-.95 2.15zM263.73 185.13a4.49 4.49 0 01-.17-2.1c0-1.15.19-2.08.34-2.08a4.57 4.57 0 01.18 2.1c-.08 1.15-.2 2.08-.35 2.08zM273.15 183.74a10.92 10.92 0 01-.95-4.65 5.61 5.61 0 01.73 2.27 5.71 5.71 0 01.22 2.38zM278.65 177.74c-.13.07-.52-.45-1.17-.87s-1.27-.6-1.26-.75.78-.2 1.55.31 1.01 1.26.88 1.31zM249.38 174c0 .14-.53.33-1.06.77s-.86.91-1 .86 0-.75.67-1.27 1.38-.49 1.39-.36zM265.83 240.92A2.1 2.1 0 01264 238c2.7-6.08 10.07-17.78 10.55-18.54.7-1.06 1.07-2.37 3.31-2.64.86-.1 14.36-.41 17.53-.48a1.94 1.94 0 011.4.52c.63.6 1.29 1.74.29 3.53-1.12 2-9.28 14.67-12.59 19.55a3.41 3.41 0 01-2.93 1.49z" fill="#263238"/><path d="M286.66 220.7a1 1 0 00-1.08-.3 2.25 2.25 0 00-.95.61.84.84 0 00-.2 1.06 1 1 0 00.91.31 1.74 1.74 0 001.13-.51 1.06 1.06 0 00.19-1.17z" fill="#fff"/><path d="M293.6 223.45a6.32 6.32 0 01.53-1.17c.2-.39.42-.84.68-1.33.14-.26.28-.54.43-.83a2 2 0 00.34-.89 1 1 0 00-.41-.84 1.39 1.39 0 00-1.06-.18l-2.76.11-6.31.22-6.32.19h-.7a1 1 0 00-.52.2 5.64 5.64 0 00-.72 1c-.46.72-.89 1.4-1.3 2l-1.9 2.91a6.06 6.06 0 01-.76 1 5.79 5.79 0 01.59-1.14l1.76-3 1.24-2.06.34-.56a2.16 2.16 0 01.46-.59 1.4 1.4 0 01.76-.32h.74L285 218l6.32-.18 2.75-.06a1.84 1.84 0 011.33.29 1.42 1.42 0 01.53 1.17 1.31 1.31 0 01-.17.59l-.25.45-.47.81c-.28.48-.53.91-.76 1.29a5.72 5.72 0 01-.68 1.09z" fill="#455a64"/><path d="M316.2 221.93s-1.37 9.52-2.77 15.64c-1.25 5.45-3.24 23.87-8.3 26.19s-11.37.87-13.7-3.62-4.83-16.44-4.83-16.44l-10.6-4.46s-2.44-8.89-1.05-9.89 15.07.5 15.07.5l3.67-.83s-5.84-.84-7.09-1.17a2.12 2.12 0 01-1.78-2.5c.29-1.17.53-2.34 3.69-2.34s8.12-.47 9-.16c1.12.38 2.38 1 2.63 3.83s-1.08 8-1.08 8l.29.44 1.87-13.78z" fill="#ffbe9d"/><path d="M298.4 238.37a2.67 2.67 0 01-.86.34 21.41 21.41 0 01-2.43.66 30.09 30.09 0 01-8.27.63 27.62 27.62 0 01-8.11-1.77 19.14 19.14 0 01-2.3-1 3.19 3.19 0 01-.79-.48c0-.08 1.22.48 3.22 1.16a32.17 32.17 0 008 1.59 35 35 0 008.14-.5c2.12-.36 3.38-.71 3.4-.63zM296.39 234.55a3 3 0 01-.86.27c-.56.14-1.38.32-2.4.49a31.48 31.48 0 01-8.1.3 21.74 21.74 0 01-7.78-2.26 15 15 0 01-2.09-1.3c-.46-.35-.7-.57-.68-.6s1.08.7 2.93 1.57a24.2 24.2 0 007.68 2.07 36.47 36.47 0 008-.15c2.03-.24 3.29-.47 3.3-.39zM299.7 224.72c.06 0 .25.47.2 1.28a3.08 3.08 0 01-.39 1.41 1.76 1.76 0 01-.68.62 4.55 4.55 0 01-.84.37 11.75 11.75 0 01-3.05.52 10.34 10.34 0 01-1.25.1c0-.07.42-.32 1.2-.46a22.78 22.78 0 002.94-.65 2.65 2.65 0 001.28-.76 3.24 3.24 0 00.43-1.19 9.62 9.62 0 01.16-1.24zM294.66 240.74a2 2 0 010 1.73 3.69 3.69 0 01-1.07 1.61 4.32 4.32 0 01-2.14 1 5.51 5.51 0 01-2.34-.1 8.56 8.56 0 01-1.74-.71 7.7 7.7 0 01-1.48-.85 4.39 4.39 0 011.63.51 6.61 6.61 0 003.84.64 4.16 4.16 0 001.92-.84 3.7 3.7 0 001-1.37 6 6 0 00.38-1.62z" fill="#eb996e"/><path d="M299.07 223.76s.07 0 .19.11a1.75 1.75 0 01.42.5 5.26 5.26 0 01.6 2.31 28.28 28.28 0 01-1 8.08v-.14a25.17 25.17 0 001.89 3.94 43.49 43.49 0 003.44 5 22.63 22.63 0 013 4.07 4.63 4.63 0 01.29 3.39 2.79 2.79 0 01-.45.83c-.13.16-.22.23-.23.22a6.75 6.75 0 00.48-1.11 4.56 4.56 0 00-.42-3.17 24.91 24.91 0 00-3-3.93 40.23 40.23 0 01-3.52-5 24.92 24.92 0 01-1.91-4V234.71a32 32 0 001.14-7.95 5.85 5.85 0 00-.43-2.24 7.44 7.44 0 00-.49-.76z" fill="#eb996e"/><path d="M205.49 241.55s-1.55 21.26 8.34 24.82c13.63 4.92 29.17-8.66 29.23-8.88S259.6 244 259.6 244l-5.13-14.13s-2.06 0-5.39 2.38c-1.21.86-20.31 10.93-20.31 10.93s-8.34-.07-23.28-1.63z" fill="#ffbe9d"/><path d="M229.46 242.86c.07.16-3.53 1.62-7.88 3.57-2.17 1-4.08 2-5.45 2.72a16 16 0 01-2.24 1.18 9.89 9.89 0 012.05-1.5 47.83 47.83 0 015.43-2.87c2.18-1 4.2-1.78 5.67-2.32a13.2 13.2 0 012.42-.78z" fill="#eb996e"/><path d="M272.74 222.17s-2.58-3.65-3.6-3.64-7.17 1-7.17 1l-8.69 9.47s-.6 3.07 1.28 4.18c0 0-.63 4.83 1.69 6.22 0 0 1.73 4.54 3.35 4.63a11.56 11.56 0 002.06 0s-.35 2.73 2.12 2.9a43.42 43.42 0 007.3-.73 2.73 2.73 0 001.78-1.12l2.12-3a2.73 2.73 0 000-3.19 7.19 7.19 0 001.28-2.23 9.73 9.73 0 000-2.85s3.67-3.11 3.76-3.92-.09-1.59-1.71-1.5c0 0-.34-2.51-2.39-2.45s-11.76 0-11.76 0l1.85-1.8s4.83 1.84 5.34.62z" fill="#ffbe9d"/><path d="M258.8 233.05a10.56 10.56 0 011.58-.11c1-.06 2.48-.15 4.3-.36a56.29 56.29 0 006.37-1.13c1.19-.29 2.43-.63 3.71-1a9.22 9.22 0 003.36-2.24l.06-.05h.07a2.17 2.17 0 011.42.14 1.19 1.19 0 01.5.65 2.36 2.36 0 01.09.73 1.27 1.27 0 010 .33 1 1 0 01-.15.37 4.62 4.62 0 01-.37.5c-.25.3-.53.58-.8.86-.55.55-1.1 1.06-1.66 1.55a66.25 66.25 0 01-6 4.26 15.13 15.13 0 01-5.54 2 11.13 11.13 0 01-3.9-.1 6.67 6.67 0 01-1-.29 1.06 1.06 0 01-.33-.15 12.46 12.46 0 005.19.21 15.42 15.42 0 005.37-2c1.89-1.13 3.8-2.7 5.91-4.29.55-.49 1.1-1 1.63-1.54.27-.27.53-.54.77-.83s.23-.29.33-.43.08-.16.08-.17a1.1 1.1 0 000-.26c0-.42-.07-.79-.34-.93a1.69 1.69 0 00-1.06-.08l.14-.06a16.4 16.4 0 01-1.67 1.37 5.68 5.68 0 01-1.9 1c-1.29.4-2.55.73-3.76 1a49.2 49.2 0 01-6.43 1c-1.84.18-3.32.21-4.34.21h-1.17a1.65 1.65 0 01-.46-.16z" fill="#eb996e"/><path d="M276.25 233.79a4.57 4.57 0 01.21 1.52v1.27a1.35 1.35 0 01-.15.52 8.69 8.69 0 01-.5 1l-.3.5-.16.25a1.5 1.5 0 01-.1.16l-.07.06c-.05 0 0 .07-.24 0a.23.23 0 01-.09-.28.12.12 0 010-.05l.05-.07.4.24a11.23 11.23 0 01-2.55 3.13 10.68 10.68 0 01-6.2 2.56 9.65 9.65 0 01-2-.06 2.3 2.3 0 01-.73-.17c0-.1 1.06.08 2.74-.13a11.24 11.24 0 005.9-2.6 11.75 11.75 0 002.47-3l.41.24a13.52 13.52 0 00.91-5.09zM266.23 224.2c0 .12-1-.25-1.49-1.41a2.6 2.6 0 01-.08-1.49c.1-.37.24-.57.3-.55s-.08.93.27 1.86 1.1 1.46 1 1.59zM261.88 244.09a1.55 1.55 0 01-.77.18 4.2 4.2 0 01-2.12-.4 4.44 4.44 0 01-2.21-2.33 5 5 0 01-.36-1.88.84.84 0 00-.33-.67 3.89 3.89 0 01-1.75-3.23 12.92 12.92 0 01.09-2.37l.11.22a3.64 3.64 0 01-1.68-3.17 2 2 0 01.39-1.32 10.33 10.33 0 00-.12 1.31 3.44 3.44 0 001.64 2.79l.12.07v.14a13.33 13.33 0 000 2.29 4 4 0 00.86 2.24 4.11 4.11 0 00.72.63 1.36 1.36 0 01.51 1 4.74 4.74 0 00.29 1.74 4.19 4.19 0 001.93 2.18 5.88 5.88 0 002.68.58z" fill="#eb996e"/><path d="M235.32 215.51c-1.17 10.61-2.82 18.71-5.31 26a19 19 0 006.5-11.61c.66-4.47-.39-9.9-1.19-14.39zM303.44 209.68a38.56 38.56 0 00-2.8-10.94 62.6 62.6 0 01.53 22.79l.36-.81a20.82 20.82 0 001.91-11.04z" opacity=".3"/></g></svg>