<svg xmlns="http://www.w3.org/2000/svg" viewBox="0 0 54.11 60"><path d="M24.11,47.67V27.06a3,3,0,0,1,2.95-2.95H41.78V9.39a3,3,0,0,0-3-2.95H30v3a3,3,0,0,1-2.94,2.94H15.28a3,3,0,0,1-2.95-2.94V6.44H3.5a3,3,0,0,0-2.95,3V44.72a3,3,0,0,0,3,3Z" fill="#f26322"/><path d="M27.06,12.33H15.28a3,3,0,0,1-2.95-2.94V3.5A3,3,0,0,1,15.28.55H27.06A3,3,0,0,1,30,3.5V9.39A3,3,0,0,1,27.06,12.33Z" fill="#aa5239"/><path d="M15.28,11.78H27.06a2.4,2.4,0,0,0,2.39-2.39V3.5a2.4,2.4,0,0,0-2.39-2.39H15.28A2.39,2.39,0,0,0,12.89,3.5V9.39A2.39,2.39,0,0,0,15.28,11.78Z" fill="none"/><path d="M38.83,7H30.55V9.39a3.5,3.5,0,0,1-3.49,3.5H15.28a3.5,3.5,0,0,1-3.5-3.5V7H3.5A2.39,2.39,0,0,0,1.11,9.39V44.72A2.39,2.39,0,0,0,3.5,47.11H23.56v-20a3.5,3.5,0,0,1,3.5-3.5H41.23V9.39A2.4,2.4,0,0,0,38.83,7Z" fill="none"/><path d="M27.06,24.11H50.61a3,3,0,0,1,3,2.95V56.5a3,3,0,0,1-3,3H27.06a3,3,0,0,1-2.95-3V27.06A3,3,0,0,1,27.06,24.11Z" fill="#aa5239"/><path d="M41.23,23.56V9.39A2.4,2.4,0,0,0,38.83,7H30.55V9.39a3.5,3.5,0,0,1-3.49,3.5H15.28a3.5,3.5,0,0,1-3.5-3.5V7H3.5A2.39,2.39,0,0,0,1.11,9.39V44.72A2.39,2.39,0,0,0,3.5,47.11H23.56v-20a3.5,3.5,0,0,1,3.5-3.5Z" fill="none"/><path d="M15.28,11.78H27.06a2.4,2.4,0,0,0,2.39-2.39V3.5a2.4,2.4,0,0,0-2.39-2.39H15.28A2.39,2.39,0,0,0,12.89,3.5V9.39A2.39,2.39,0,0,0,15.28,11.78Z" fill="none"/><path d="M50.61,24.66H27.06a2.41,2.41,0,0,0-2.4,2.4V56.5a2.4,2.4,0,0,0,2.4,2.39H50.61A2.39,2.39,0,0,0,53,56.5V27.06A2.4,2.4,0,0,0,50.61,24.66Z" fill="none"/><path d="M50.61,23.56H42.33V9.39a3.5,3.5,0,0,0-3.5-3.5H30.55V3.5A3.5,3.5,0,0,0,27.06,0H15.28a3.5,3.5,0,0,0-3.5,3.5V5.89H3.5A3.5,3.5,0,0,0,0,9.39V44.72a3.5,3.5,0,0,0,3.5,3.5H23.56V56.5a3.5,3.5,0,0,0,3.5,3.5H50.61a3.5,3.5,0,0,0,3.5-3.5V27.06A3.5,3.5,0,0,0,50.61,23.56ZM12.89,6.44V3.5a2.39,2.39,0,0,1,2.39-2.39H27.06A2.4,2.4,0,0,1,29.45,3.5V9.39a2.4,2.4,0,0,1-2.39,2.39H15.28a2.39,2.39,0,0,1-2.39-2.39ZM23.56,27.06V47.11H3.5a2.39,2.39,0,0,1-2.39-2.39V9.39A2.39,2.39,0,0,1,3.5,7h8.28V9.39a3.5,3.5,0,0,0,3.5,3.5H27.06a3.5,3.5,0,0,0,3.49-3.5V7h8.28a2.4,2.4,0,0,1,2.4,2.39V23.56H27.06A3.5,3.5,0,0,0,23.56,27.06ZM53,56.5a2.39,2.39,0,0,1-2.39,2.39H27.06a2.4,2.4,0,0,1-2.4-2.39V27.06a2.41,2.41,0,0,1,2.4-2.4H50.61A2.4,2.4,0,0,1,53,27.06Z" fill="#221b38"/><path d="M44.72,36.44H32.94a.55.55,0,0,1-.55-.55.55.55,0,0,1,.55-.55H44.72a.55.55,0,0,1,.56.55A.56.56,0,0,1,44.72,36.44Z" fill="#221b38"/><path d="M44.72,48.22H32.94a.56.56,0,0,1,0-1.11H44.72a.56.56,0,1,1,0,1.11Z" fill="#221b38"/></svg>