<svg xmlns="http://www.w3.org/2000/svg" xml:space="preserve" id="Layer_1" x="0" y="0" style="enable-background:new 0 0 750 500" version="1.1" viewBox="0 0 750 500"><style>.st0{fill:#e0e0e0}.st1{fill:#ebebeb}.st2{fill:#263238}.st3{fill:#455a64}.st4{fill:#f26935}.st5{opacity:.5}.st7{fill:#fff}.st8{fill:#fafafa}.st9{fill:none}.st10{fill:#ffbe9d}.st13{fill:#eb996e}</style><g id="freepik--background-complete--inject-63"><path d="M122.2 353.1c.2-.7.4-1.5.5-2.2.3-1.5.7-3.6 1.1-6.2.8-5.2 1.7-12.5 2.7-20.5s2-15.2 2.9-20.4c.5-2.6.9-4.7 1.1-6.2.2-.7.3-1.5.4-2.3-.3.7-.5 1.5-.7 2.2-.4 1.4-.9 3.5-1.4 6.1-1.1 5.2-2.2 12.4-3.2 20.5s-1.8 15.1-2.4 20.5c-.3 2.5-.6 4.6-.8 6.2-.2.8-.2 1.5-.2 2.3zm28.7 75.6c.2-.3.3-.5.5-.8l1.2-2.4c1-2.1 2.4-5.2 4.1-9.1 3.4-7.7 7.8-18.5 12.5-30.5s9-22.8 12.3-30.5c1.6-3.8 3-6.9 3.9-9.2.4-1 .8-1.9 1.1-2.5l.3-.9c-.2.3-.3.5-.5.8l-1.2 2.4c-1 2.1-2.4 5.2-4.1 9.1-3.4 7.7-7.8 18.5-12.5 30.5s-9 22.8-12.3 30.5l-3.9 9.2c-.4 1-.8 1.8-1.1 2.5-.2.3-.3.6-.3.9z" class="st0"/><path d="m555.735 328.6 32.427-82.451 122.281 48.092-32.428 82.451z" class="st1"/><path d="M710.3 295.4c-.5.3-1 .5-1.6.6l-4.6 1.6-16.9 5.8-56.1 18.9-.5.1-.2-.4-.6-1c-11.6-20.3-22.1-38.6-29.8-52.1-3.7-6.6-6.7-12-8.9-15.9-1-1.8-1.8-3.2-2.4-4.3-.3-.5-.5-1-.8-1.6.4.4.7.9 1 1.4.6 1.1 1.5 2.5 2.6 4.2l9.2 15.7 30.1 51.9.6 1-.7-.3 56.2-18.6 17-5.5 4.7-1.4c.6.1 1.2 0 1.7-.1z" class="st0"/><path d="M555.7 329.7c-.2-.3 13.5-8 30.5-17.1s30.9-16.4 31-16.1-13.5 8-30.5 17.2-30.9 16.3-31 16zm102.5-18.3c.3-.1 5 14.7 10.4 33s9.6 33.3 9.3 33.4-5-14.7-10.4-33-9.6-33.3-9.3-33.4z" class="st0"/><path d="m607.019 171.003 72.068-31.377 21.158 48.595-72.069 31.377z" class="st1"/><path d="M679.5 140c-.1.3-.2.6-.4.9l-1.2 2.6-4.7 9.6-15.8 31.9-.1.3-.3-.1-.7-.2-34.6-9.4-10.5-2.9-2.8-.8c-.3-.1-.7-.2-1-.3.3 0 .7.1 1 .2l2.9.7 10.6 2.6 34.7 9.2.7.2-.4.2c6.2-12.4 11.8-23.5 15.9-31.6 2-4 3.7-7.2 4.9-9.5l1.4-2.6c0-.4.2-.7.4-1z" class="st0"/><path d="M628.6 220c-.2 0 2.3-9.1 5.6-20.1s6.1-20 6.3-19.9-2.3 9.1-5.6 20.1-6.1 19.9-6.3 19.9zm35.6-51.1c.1-.2 8.3 4.1 18.4 9.6s18.1 10 18 10.2-8.3-4.1-18.4-9.6-18.1-10.1-18-10.2z" class="st0"/></g><g id="freepik--Device--inject-63"><path d="M168.3 153.8h413.4c8 0 14.6 6.5 14.6 14.6v263.5c0 8-6.5 14.6-14.6 14.6H168.3c-8 0-14.6-6.5-14.6-14.6V168.4c.1-8.1 6.6-14.6 14.6-14.6z" class="st2"/><path d="M135.2 424.8h479.5v7.8c0 9.8-8 17.8-17.8 17.8H153c-9.8 0-17.8-8-17.8-17.8v-7.8z" class="st2"/><path d="M165.6 165.4h417.6v247.2H165.6zm165.8 259.4 6 9.5h83.7l5.5-9.5z" class="st3"/><path d="M177.5 173.8h394.7c1.8 0 3.3 1.5 3.3 3.3v231.5c0 1.8-1.5 3.3-3.3 3.3H177.5c-1.8 0-3.3-1.5-3.3-3.3V177.1c0-1.9 1.5-3.3 3.3-3.3z" class="st1"/><path d="M174.2 191.2h401.2v220.6H174.2z" class="st1"/><path d="M207.1 183c0 1.8-1.4 3.2-3.2 3.2-1.8 0-3.2-1.4-3.2-3.2 0-1.8 1.4-3.2 3.2-3.2 1.8 0 3.2 1.4 3.2 3.2zm-19.4 0c0 1.8-1.4 3.2-3.2 3.2-1.8 0-3.2-1.4-3.2-3.2 0-1.8 1.4-3.2 3.2-3.2 1.8 0 3.2 1.4 3.2 3.2zm9.3 0c0 1.8-1.4 3.2-3.2 3.2-1.8 0-3.2-1.4-3.2-3.2 0-1.8 1.4-3.2 3.2-3.2 1.8 0 3.2 1.4 3.2 3.2zm395.5 241.8c0 .2-98.2.3-219.4.3s-219.4-.1-219.4-.3 98.2-.3 219.4-.3 219.4.2 219.4.3z" class="st3"/></g><g id="freepik--paper-plane--inject-63"><path d="M153.7 428c-.1-.1-.2-.1-.3-.2l-1-.6-1.6-1.1c-.6-.4-1.4-.9-2.2-1.6l-2.7-2.1c-1-.8-2-1.8-3.1-2.7-2.5-2.3-4.8-4.8-7-7.5-5.8-7.4-10.3-15.7-13.2-24.7-3.7-11.9-5.1-24.4-4.2-36.8.5-7.2 1.8-14.3 3.7-21.3 2.1-7.6 5.2-14.8 9.2-21.5 1.1-1.7 2.2-3.4 3.5-5.1l3.9-4.9c1.4-1.6 2.8-3.1 4.3-4.7s3.1-3 4.6-4.5c6.6-6 13.6-11.4 21.1-16.2 15.3-9.9 32.6-18.1 50.4-26.6 17.8-8.7 36.5-17.1 55.7-25.5 76.9-33.7 147.3-62.4 198.5-82.3 25.6-10 46.5-17.6 61-22.9 7.2-2.6 12.9-4.5 16.7-5.8l4.4-1.5 1.1-.4c.1 0 .3-.1.4-.1l-.4.2-1.1.4-4.3 1.6-16.7 6c-14.4 5.3-35.3 13.1-60.9 23.2-51.1 20.1-121.5 48.9-198.3 82.6-19.2 8.4-37.9 16.8-55.7 25.5-17.8 8.5-35.1 16.7-50.4 26.5-7.4 4.7-14.5 10.1-21 16-1.5 1.5-3.1 2.9-4.6 4.5s-2.9 3.1-4.3 4.6l-3.9 4.8c-1.2 1.6-2.4 3.3-3.4 5-4 6.7-7.1 13.8-9.2 21.3-2 6.9-3.2 14-3.8 21.1-1 12.3.4 24.7 4 36.5 2.8 8.9 7.1 17.3 12.9 24.7 2.1 2.7 4.4 5.2 6.9 7.5 1.1 1 2.1 2 3 2.8l2.6 2.1c.8.7 1.5 1.1 2.1 1.6l1.6 1.1.9.7c.5.2.7.2.8.3z" class="st2"/><path d="M540.3 74.7 558.9 90l-1.7 17.6 15.1-8.4 16.2 11.4L648.7 72z" class="st4"/><path d="m558.9 90 88.2-18-79.3 24-10.6 11.6z" class="st5"/><path d="m567.8 96 4.5 3.2-15.1 8.4z" style="opacity:.8"/></g><g id="freepik--Letters--inject-63"><path d="m194.232 314.9 96.165-9.125 6.15 64.807-96.166 9.125z" class="st7"/><path d="M296.6 370.7s-.1-.4-.1-1.2-.2-2-.4-3.4c-.3-3-.8-7.4-1.3-13.1-1.1-11.3-2.7-27.4-4.7-47.1l.4.3-96.2 9.2c-.1.1.8-.9.4-.5v.5l.1.5.1 1.1.2 2.2c.1 1.4.3 2.9.4 4.3.3 2.9.5 5.7.8 8.5.5 5.6 1.1 11.1 1.6 16.6 1 10.9 2 21.3 2.9 31.2l-.4-.4 69.3-6.4 19.8-1.8 5.3-.5 1.4-.1c.1.1.2.1.4.1-.1 0-.3.1-.4.1l-1.3.1-5.2.5-19.7 2-69.5 6.8h-.5v-.4c-.9-9.9-1.9-20.3-3-31.2-.5-5.4-1-11-1.6-16.6-.3-2.8-.5-5.6-.8-8.5-.1-1.4-.3-2.9-.4-4.3l-.2-2.2-.1-1.1v-.9l.4-.5 96.2-9h.4v.4c1.8 19.8 3.3 36 4.3 47.4.5 5.6.9 10 1.1 13 .1 1.5.2 2.6.3 3.4s0 1 0 1z" class="st3"/><path d="M290.4 305.8c-.2.4-.5.7-.8 1l-2.3 2.6-8.5 9.6-28.5 31.8-.2.3-.3-.2-2.6-1.6-37.7-24.1-11.4-7.4c-1.3-.9-2.3-1.5-3.1-2-.4-.2-.7-.5-1-.8.4.2.8.4 1.1.6l3.1 1.9 11.5 7.1 37.8 23.9 2.6 1.6-.6.1 28.7-31.6 8.7-9.4 2.4-2.5c.5-.4.8-.6 1.1-.9z" class="st3"/><path d="m480.74 258.13 12.997-45.998 68.227 19.278-12.996 45.998z" class="st7"/><path d="M549 277.4s.1-.3.2-.9.4-1.4.7-2.5c.6-2.2 1.5-5.3 2.5-9.3l9.3-33.5.2.3-68.2-19.2.4-.2v.4l-.1.4-.2.8-.4 1.5-.9 3-1.7 6c-1.1 4-2.2 7.9-3.3 11.8-2.2 7.7-4.3 15.1-6.3 22.1l-.2-.4 49.1 14 14 4 3.8 1.1 1 .3.3.1-.3-.1-1-.2-3.7-1-14-3.9-49.3-13.8-.3-.1.1-.3c2-7 4.1-14.4 6.2-22.1 1.1-3.8 2.2-7.8 3.3-11.8l1.7-6 .9-3 .4-1.5.2-.8.1-.4.1-.2v-.1.1l.4-.2 68.2 19.3.3.1-.1.2c-4 14-7.3 25.5-9.6 33.5l-2.6 9.2c-.3 1-.5 1.8-.7 2.4s-.5.9-.5.9z" class="st3"/><path d="M562 231.4c-.2.2-.5.3-.8.5l-2.2 1.2-8.4 4.3-27.9 14.2-.2.1-.2-.2-1.3-1.8-19.4-26.5-5.8-8.1-1.5-2.2c-.2-.2-.4-.5-.5-.8.2.2.4.5.6.7l1.6 2.1 6 7.9 19.5 26.4 1.3 1.8-.4-.1 28-14 8.5-4.1 2.3-1.1c.3 0 .5-.1.8-.3z" class="st3"/></g><g id="freepik--Newletter--inject-63"><path d="M254.4 114.1h252.7v277.1H254.4z" class="st8"/><path d="M507.2 391.2c0-2-.1-111.5-.2-277.1l.2.2H254.5l.3-.3v277.1l-.2-.2 252.6.3-252.7.2h-.2V113.8h253.2v.2c-.2 165.7-.3 275.2-.3 277.2z" class="st2"/><path d="M342.2 333.9h96.6c8 0 14.5 6.5 14.5 14.5v2.9c0 8-6.5 14.5-14.5 14.5h-96.6c-8 0-14.5-6.5-14.5-14.5v-2.9c0-8 6.5-14.5 14.5-14.5z" class="st4"/><path d="M342.2 333.9h96.6c8 0 14.5 6.5 14.5 14.5v2.9c0 8-6.5 14.5-14.5 14.5h-96.6c-8 0-14.5-6.5-14.5-14.5v-2.9c0-8 6.5-14.5 14.5-14.5z" class="st5"/><path d="M331.7 333.9h96.6c8 0 14.5 6.5 14.5 14.5v2.9c0 8-6.5 14.5-14.5 14.5h-96.6c-8 0-14.5-6.5-14.5-14.5v-2.9c0-8 6.5-14.5 14.5-14.5z" class="st4"/><path d="m351.8 351.9.4-1c.6.5 1.4.7 2.2.7 1 0 1.5-.4 1.5-.9 0-1.4-3.9-.5-3.9-3 0-1.1.9-2 2.7-2 .8 0 1.5.2 2.2.6l-.4 1c-.6-.3-1.2-.5-1.8-.5-1 0-1.4.4-1.4.9 0 1.4 3.9.5 3.9 2.9 0 1.1-.9 2-2.7 2-1 .1-1.9-.1-2.7-.7z" class="st8"/><path d="M354.5 352.7c-.9 0-1.9-.2-2.6-.8l.4-1c.6.5 1.4.7 2.2.7.9 0 1.4-.3 1.4-.8s-.7-.8-1.5-1c-1.1-.3-2.4-.6-2.4-2 0-1 .7-2 2.7-2 .8 0 1.5.2 2.2.6l-.4 1c-.6-.3-1.2-.5-1.8-.5-.9 0-1.4.3-1.4.9s.7.8 1.5 1c1.1.3 2.4.6 2.4 2 0 .5-.2 1.1-.7 1.4-.6.4-1.3.6-2 .5zm-2.6-.8c.8.5 1.7.8 2.6.8 1.6 0 2.7-.8 2.7-1.9 0-1.4-1.2-1.7-2.3-1.9-.9-.2-1.6-.4-1.6-1s.5-.9 1.5-.9c.6 0 1.3.2 1.8.5l.4-.9c-.7-.4-1.4-.6-2.2-.6-2 0-2.6 1-2.6 2 0 1.4 1.2 1.7 2.3 1.9.9.2 1.6.4 1.6 1s-.5.9-1.5.9c-.8 0-1.5-.3-2.2-.7l-.5.8z" class="st9"/><path d="M358.3 349.7V346h1.2v3.7c0 1.4.6 2 1.7 2s1.7-.6 1.7-2V346h1.2v3.7c0 1.6-1.3 2.9-2.9 2.9s-2.9-1.2-2.9-2.9z" class="st8"/><path d="M361.2 352.7c-1.5.1-2.8-1-2.9-2.4V346h1.3v3.7c0 1.3.5 1.9 1.7 1.9s1.6-.6 1.6-1.9V346h1.3v3.8c.2 1.5-.9 2.8-2.4 3-.2-.1-.4-.1-.6-.1zm-2.9-6.7v3.7c-.1 1.6 1.1 3 2.7 3 1.6.1 3-1.1 3-2.7v-4h-1.2v3.7c0 1.3-.6 2-1.7 2s-1.7-.7-1.7-2V346h-1.1z" class="st9"/><path d="M371.7 350.8c0 1.1-.9 1.8-2.6 1.8h-3.3V346h3.1c1.6 0 2.4.7 2.4 1.7 0 .6-.3 1.2-.9 1.5.8.2 1.3.9 1.3 1.6zM367 347v1.8h1.7c.9 0 1.3-.3 1.3-.9s-.5-.9-1.3-.9H367zm3.5 3.7c0-.7-.5-1-1.4-1h-2v1.9h2c.9 0 1.4-.2 1.4-.9z" class="st8"/><path d="M369.1 352.6h-3.3V346h3.1c1.5 0 2.5.7 2.5 1.8 0 .6-.3 1.2-.8 1.5.7.2 1.2.9 1.1 1.6 0 1.1-.9 1.7-2.6 1.7zm-3.2 0h3.3c1.6 0 2.6-.6 2.6-1.8 0-.7-.5-1.4-1.2-1.6h-.1c.5-.3.9-.8.8-1.4 0-1.1-.9-1.7-2.4-1.7h-3.1l.1 6.5zm3.1-.9h-2v-2h2c1 0 1.5.3 1.5 1s-.5 1-1.5 1zm-2-.1h2c.9 0 1.4-.3 1.4-.9s-.5-.9-1.4-.9h-2v1.8zm1.8-2.8H367v-1.9h1.8c.9 0 1.4.3 1.4.9s-.5 1-1.4 1zm-1.8 0h1.7c.6 0 1.3-.2 1.3-.9s-.7-.9-1.3-.9H367v1.8z" class="st9"/><path d="m372.5 351.9.4-1c.6.5 1.4.7 2.2.7 1 0 1.5-.4 1.5-.9 0-1.4-3.9-.5-3.9-3 0-1.1.9-2 2.7-2 .8 0 1.5.2 2.2.6l-.4 1c-.6-.3-1.2-.5-1.8-.5-1 0-1.4.4-1.4.9 0 1.4 3.9.5 3.9 2.9 0 1.1-.9 2-2.7 2-1.1.1-2-.1-2.7-.7z" class="st8"/><path d="M375.1 352.7c-.9 0-1.9-.3-2.6-.8l.4-1c.6.5 1.4.7 2.2.7.9 0 1.4-.3 1.4-.8s-.7-.8-1.5-1c-1.1-.3-2.4-.6-2.4-2 0-1 .7-2 2.7-2 .8 0 1.5.2 2.2.6l-.4 1c-.5-.3-1.2-.5-1.8-.5-.9 0-1.4.3-1.4.9s.7.8 1.5 1c1.1.3 2.4.6 2.4 2 0 1.2-1.1 1.9-2.7 1.9zm-2.6-.8c.8.5 1.7.8 2.6.8 1.6 0 2.6-.8 2.6-1.9 0-1.4-1.2-1.7-2.3-1.9-.9-.2-1.6-.4-1.6-1s.5-.9 1.5-.9c.6 0 1.3.2 1.8.5l.4-.9c-.7-.4-1.4-.6-2.2-.6-2 0-2.6 1-2.6 2 0 1.4 1.2 1.7 2.3 1.9.9.2 1.6.4 1.6 1s-.5.9-1.5.9c-.8 0-1.5-.3-2.2-.7l-.4.8z" class="st9"/><path d="M378.5 349.3c.1-2 1.8-3.5 3.7-3.4.9 0 1.8.4 2.4 1.1l-.8.8c-.4-.5-1.1-.8-1.8-.8-1.3 0-2.3 1-2.3 2.3 0 1.3 1 2.3 2.3 2.3.7 0 1.3-.3 1.8-.8l.8.8c-1.4 1.4-3.6 1.5-5.1.1-.5-.6-.9-1.5-1-2.4z" class="st8"/><path d="M382 352.7c-1.9-.1-3.4-1.7-3.3-3.5.1-1.9 1.7-3.4 3.5-3.3.9 0 1.8.4 2.4 1.1l-.8.8c-.4-.5-1.1-.8-1.8-.8-1.3 0-2.3 1-2.3 2.3 0 1.3 1 2.3 2.3 2.3.7 0 1.3-.3 1.8-.8l.8.8c-.6.8-1.5 1.2-2.6 1.1zm0-6.8c-1.9.1-3.3 1.6-3.3 3.5s1.6 3.3 3.5 3.3c.9 0 1.8-.4 2.4-1.1l-.8-.7c-.5.5-1.1.8-1.8.8-1.3 0-2.4-1.1-2.4-2.4s1.1-2.4 2.4-2.4c.7 0 1.3.3 1.8.8l.8-.7c-.6-.7-1.6-1.1-2.6-1.1z" class="st9"/><path d="m390.2 352.6-1.4-1.9H387v1.9h-1.2V346h2.7c1.7 0 2.8.9 2.8 2.4 0 .9-.5 1.8-1.4 2.1l1.5 2.2-1.2-.1zm-1.7-5.6h-1.4v2.6h1.4c1.1 0 1.6-.5 1.6-1.3s-.5-1.3-1.6-1.3z" class="st8"/><path d="M391.6 352.6h-1.4l-1.4-1.9h-1.7v1.9h-1.3V346h2.8c1.8 0 2.8.9 2.8 2.4 0 .9-.5 1.8-1.4 2.1l1.6 2.1zm-1.4 0h1.3l-1.5-2.2c.9-.3 1.4-1.1 1.4-2.1 0-1.4-1.1-2.3-2.8-2.3h-2.7v6.6h1.2v-1.9h1.8l1.3 1.9zm-1.7-2.9H387V347h1.5c1.1 0 1.7.5 1.7 1.4s-.6 1.3-1.7 1.3zm-1.4-.1h1.4c1 0 1.6-.5 1.6-1.3s-.6-1.3-1.6-1.3h-1.4v2.6z" class="st9"/><path d="M392.8 346h1.2v6.6h-1.2V346z" class="st8"/><path d="M394 352.6h-1.3V346h1.3v6.6zm-1.2 0h1.2V346h-1.2v6.6z" class="st9"/><path d="M401.7 350.8c0 1.1-.9 1.8-2.6 1.8h-3.3V346h3.1c1.6 0 2.5.7 2.5 1.7 0 .6-.3 1.2-.9 1.5.7.2 1.2.9 1.2 1.6zM397 347v1.8h1.7c.9 0 1.3-.3 1.3-.9s-.5-.9-1.3-.9H397zm3.4 3.7c0-.7-.5-1-1.4-1h-2v1.9h2c1 0 1.5-.2 1.4-.9z" class="st8"/><path d="M399.1 352.6h-3.3V346h3.1c1.5 0 2.5.7 2.5 1.8 0 .6-.3 1.2-.8 1.5.7.2 1.2.9 1.1 1.6 0 1.1-.9 1.7-2.6 1.7zm-3.3 0h3.3c1.7 0 2.6-.6 2.6-1.8 0-.7-.5-1.4-1.2-1.6h-.1c.5-.3.9-.8.8-1.4 0-1.1-.9-1.7-2.4-1.7h-3.1l.1 6.5zm3.2-.9h-2v-2h2c1 0 1.5.3 1.5 1s-.5 1-1.5 1zm-2-.1h2c.9 0 1.4-.3 1.4-.9s-.5-.9-1.4-.9h-2v1.8zm1.7-2.8H397v-1.9h1.8c.9 0 1.4.3 1.4.9s-.5 1-1.5 1zm-1.7 0h1.7c.6 0 1.3-.2 1.3-.9s-.7-.9-1.3-.9H397v1.8z" class="st9"/><path d="M408 351.6v1h-5V346h4.8v1h-3.6v1.7h3.2v1h-3.2v1.8l3.8.1z" class="st8"/><path d="M408 352.6h-5V346h4.9v1.1h-3.6v1.7h3.2v1.1h-3.2v1.8h3.7v.9zm-5 0h5v-1h-3.7v-1.9h3.2v-1h-3.2V347h3.6v-1H403v6.6z" class="st9"/><path d="M454.4 312.5c0 .1-32.1.3-71.8.3s-71.8-.1-71.8-.3 32.1-.3 71.8-.3 71.8.2 71.8.3zm22.4 8.7c0 .1-42.2.3-94.2.3s-94.2-.1-94.2-.3 42.2-.3 94.2-.3 94.2.2 94.2.3z" class="st2"/><path d="M266.3 124.8c0 1.2-1 2.1-2.1 2.1-1.2 0-2.1-1-2.1-2.1 0-1.2 1-2.1 2.1-2.1s2.1.9 2.1 2.1z" class="st0"/><circle cx="271.3" cy="124.8" r="2.1" class="st0"/><path d="M280.6 124.8c0 1.2-1 2.1-2.1 2.1-1.2 0-2.1-1-2.1-2.1 0-1.2 1-2.1 2.1-2.1s2.1.9 2.1 2.1z" class="st0"/></g><g id="freepik--Character--inject-63"><path d="m488.4 169.6 4.2-15s1.5-6.1 1.9-7.5c.5-1.9-.9-2.5-1.6-1.2-.3.5-3.6 6.7-3.6 6.7s2.6-10.1 2.7-10.5c.9-3.3-1.2-3-1.8-1.8s-4.3 11.2-4.3 11.2c3.5-13.1 2.4-14.2 1.4-14.4s-4 11.7-4 11.7c-.8-1.4-1.9-2.5-3.1-3.4-3.1-2.2-8.4 0-8.7 1.5s1.6 1.9 1.6 1.9c4-2.6 8 .5 7.6 4.3s-5.2 3.2-5.8.6c-1.3-5.9-3.3-4-3.3-4l2 13-2.1 6.5" class="st10"/><path d="m338.7 230.7 89.8-.6 2.5 61.1-93-.9z" class="st3"/><path d="m338.7 230.7 45.6-36.8 44.2 36.2M338 290.3c-.1-.1 7.1-8 16.1-17.5s16.4-17.2 16.5-17.1-7.1 8-16.1 17.5-16.4 17.2-16.5 17.1zm93 .9c-.1.1-7.1-7.6-15.6-17.2s-15.4-17.5-15.2-17.6 7.1 7.6 15.6 17.2 15.3 17.5 15.2 17.6z" class="st2"/><path d="m428.5 230.1-45.1 36.1-44.7-35.5" class="st2"/><path d="M278.6 161.9h.3l-1.2-4-3.9-15.4c-.4-1.4.4-2.9 1.8-3.4l2.8-.1 9.5-4.4c1.6-.6 3.3.2 3.9 1.8.1.2.1.3.1.5.4 2.8 2.3 10.4 4.3 7.8l.1-.2c2.9-3.9 6.5-6.1 7.9-6 .9.1 1.6.9 1.5 1.8 0 .4-.2.8-.5 1.1-.1.2-.3.4-.5.5-.1.1-.2.1-.3.2-1.3 1.1-2.4 2.4-3.4 3.7-.9 1.2-1.6 2.6-2.1 4-.5 1.6-.9 3-1.2 4.2l.7 7.8" class="st10"/><path d="M303.9 92.3s-11.1-2.1-27-16.6-23.8-34.1-25.7-33.9-10.2-3.5-25.1 31.3-8.4 42.5-5.2 42.4 24.3-6.7 37.6-5.6 30.6 7.6 30.6 7.6l14.8-25.2z" class="st3"/><path d="m327.9 110.3-3.6 7.2-1.6 3.2c-2.2 4.4-7.4 6.4-12 4.5l-23.9-7.6L299.7 86l24 11.9c4.5 2.3 6.4 7.8 4.2 12.4z" class="st2"/><path d="m314.6 122.2-7.1 15-3.8-.9-24 20.7-7.2-13.2s14.4-6.7 16.9-11.9-.6-6.3-.6-6.3l6.6-8 19.2 4.6zm-87.1-48.5c-7.9 18.8-10.9 35.5-6.8 37.2s13.9-12.1 21.7-30.9 10.9-35.5 6.8-37.2-13.9 12-21.7 30.9z" class="st2"/><path d="m330.2 120.6-6.5-1.8 3.8-7.7 4.9 2.9zm-37.1-.5 17.5 10.5 2-4.3z" class="st3"/><path d="m327.5 111.1-3.8 7.7 1.4.4 3-7.7zm-4.4 1.9c-.1.2-3.3-1-7.2-2.6s-7-3.1-6.9-3.3 3.3 1 7.2 2.6 7 3.1 6.9 3.3zm1.9-4.6c-.1.2-3-.9-6.5-2.5s-6.3-3.1-6.2-3.3 3 .9 6.5 2.5 6.3 3.1 6.2 3.3zm-4.2 9.4c0 .1-.8 0-2-.4-.6-.2-1.3-.4-2.1-.6s-1.6-.7-2.5-1c-3.5-1.5-6.3-3-6.2-3.2s3 1 6.5 2.5c.9.4 1.7.8 2.5 1.1l2 .8c1.1.3 1.8.7 1.8.8zm-76.4-48.7s-9.8-5.7-14.6 7.4 5.3 14.9 5.3 14.9c4.1-7 7.3-14.5 9.3-22.3z" class="st3"/><path d="M254.2 53.3c0 .8-.1 1.7-.3 2.5-.3 1.6-.6 3.9-1.2 6.7-.4 1.4-.8 2.9-1.2 4.6-.2.8-.4 1.7-.7 2.5l-.4 1.3c-.1.4-.3.9-.4 1.3l-2 5.6c-.2.5-.4 1-.5 1.5s-.4 1-.6 1.5l-1.3 3c-.4 1-.9 2-1.4 3-.2.5-.4 1-.7 1.4s-.5.9-.8 1.4c-1 1.8-2 3.6-2.9 5.2-.2.4-.4.8-.7 1.2l-.8 1.2-1.5 2.2-2.6 3.9c-1.8 2.3-3.3 4.1-4.3 5.3-.5.7-1.1 1.3-1.7 1.9.4-.7.9-1.4 1.4-2.1l4.1-5.5 2.5-4c.4-.7.9-1.4 1.4-2.2l.8-1.2c.2-.4.4-.8.7-1.2l2.8-5.2.7-1.3c.2-.5.4-1 .7-1.4l1.3-3c.4-1 .9-2 1.3-3 .2-.5.5-1 .6-1.4l.5-1.5c.7-1.9 1.4-3.8 2-5.6.1-.4.3-.9.5-1.3s.2-.9.4-1.3c.2-.9.5-1.7.7-2.5.5-1.6.9-3.1 1.3-4.5.6-2.8 1.1-5 1.4-6.7.4-.7.6-1.5.9-2.3z" class="st2"/><path d="m311.8 196.3-9.9-37.7-24.8.7 7.7 52.6c1 11.4 7.7 18.9 19 20.7 6.8 1.1 14.2-5.4 19.6-9.6 3.6-2.7 4.2-2.2 7.9-5.5l16-11.5.4 1.9h-.1l2.7 32.1 33.1 26 39.4-31.6-.9-13.7c.1 0 .2-.2 0-.2l-1-15.5 20.2 23.2c7.2 10.5 21.6 13.2 32.1 6 3.8-2.6 6.8-6.4 8.5-10.7l10.4-53-22.8-4.9-10.7 38.2-25.6-29.4c-14.7-19.2-31.9-17.6-31.9-17.6l-31.7-.6h-.1c-.9 0-18.6.6-30.6 13.4l-26.9 26.7z" class="st4"/><path d="M434.2 176.4s-.3-.2-1-.4c-1-.3-2-.4-3.1-.3-1.6.2-3.2.6-4.7 1.3-1.8.8-3.6 2-5.7 3.2-2.3 1.5-4.9 2.3-7.6 2.4-1.5-.1-3-.4-4.4-1-1.4-.6-2.8-1.2-4.3-1.8-3.1-1.3-6.5-1.6-9.7-.9-3.4.6-6.5 2.6-9.7 4.4-1.6.9-3.2 1.8-4.9 2.5-1.7.7-3.4 1.1-5.2 1.3-3.4.4-6.8-.1-10-1.4-2.8-1.2-5.4-2.8-7.9-4.7-2.3-1.7-4.4-3.3-6.5-4.5-1.9-1.1-3.9-1.9-6-2.5-1.6-.4-3.2-.5-4.9-.4-1.4.2-2.7.5-4 1.1l.2-.1c.2-.1.4-.2.7-.4 1-.4 2-.7 3-.8 1.7-.2 3.3-.1 5 .3 2.1.5 4.2 1.3 6.1 2.4 2.1 1.2 4.3 2.8 6.6 4.4 2.4 1.8 5 3.4 7.8 4.6 4.8 1.9 10.1 1.9 14.8.1 1.7-.7 3.3-1.5 4.9-2.4 3.2-1.8 6.4-3.8 9.9-4.4 3.4-.7 6.8-.3 10 1 3 1.2 5.7 2.8 8.5 2.9s5.3-1.1 7.4-2.3 3.9-2.4 5.7-3.2c1.5-.7 3.1-1.1 4.8-1.3 1.1-.1 2.1.1 3.1.4.5.2.8.4 1.1.5zm18.4 18.8c-.1.5-.3 1-.5 1.4-.7 1.3-1.7 2.4-2.9 3.2-1.9 1.3-4.1 2.1-6.4 2.3-3 .2-6 .1-9-.4-3.3-.3-7-.7-10.7.5-1.9.7-3.7 1.6-5.3 2.8-1.8 1.2-3.6 2.3-5.6 3.2-4.3 1.9-9 2.4-13.6 1.6-2.4-.4-4.8-1.2-6.9-2.4-2.2-1.2-4.2-2.6-6.4-4-2-1.4-4.3-2.5-6.6-3.3-2.3-.7-4.7-.8-7.1-.4-4.7.7-9 2.6-13.2 3.7-2.1.6-4.2 1-6.4 1.1-2 .1-4.1-.3-6-1-3.7-1.5-6.4-4.1-8.8-6.4-2.1-2.1-4.4-4-6.9-5.7-1.9-1.2-4.1-1.9-6.3-2.1-1.4-.1-2.8 0-4.2.5-.9.3-1.3.6-1.4.6.4-.3.9-.5 1.3-.7 1.4-.5 2.8-.7 4.2-.6 2.3.2 4.5.9 6.4 2.1 2.5 1.6 4.9 3.5 7 5.6 2.4 2.2 5.1 4.8 8.7 6.2 1.9.7 3.8 1.1 5.8 1 2.1-.1 4.2-.5 6.2-1.1 2.1-.6 4.2-1.3 6.4-2 2.2-.8 4.5-1.4 6.8-1.8 2.4-.4 4.9-.2 7.3.4 2.4.8 4.7 1.9 6.8 3.4 2.1 1.4 4.2 2.8 6.3 4 2.1 1.2 4.4 2 6.8 2.4 4.5.8 9.1.3 13.4-1.5 4-1.7 7.1-4.8 10.9-6 1.8-.6 3.7-.8 5.6-.8 1.7 0 3.5.2 5.2.4 2.9.5 5.9.6 8.9.5 2.2-.2 4.4-.9 6.3-2.1 1.2-.8 2.2-1.8 2.9-3.1.8-1 1-1.5 1-1.5zm28.9 25.5c-.4-.4-.9-.8-1.4-1.1-1.4-.8-3.1-1-4.7-.7-2.3.6-4.5 1.8-6.3 3.4-1.1.9-2.2 1.8-3.5 2.6-2.6 1.9-5.9 2.5-9.1 1.7-1.4-.3-2.8-.7-4.2-1.2-1.3-.4-2.5-.9-3.7-1.2-1.1-.3-2.2-.5-3.3-.6-1.6-.2-3.3.1-4.8.8-1 .5-1.5 1-1.5.9l.3-.3c.1-.1.3-.3.5-.4.2-.2.4-.3.7-.4 1.5-.8 3.2-1.1 4.9-1 1.2.1 2.3.2 3.4.5 1.2.3 2.5.7 3.8 1.2 2.6.8 5.6 1.9 8.7 1.3 1.5-.3 2.9-.9 4.2-1.8 1.2-.8 2.4-1.7 3.5-2.6 1.9-1.6 4.1-2.8 6.5-3.4 1.7-.3 3.4 0 4.9.9.4.3.7.6 1 .9-.1.2 0 .3.1.5zm5-28.8c-.3.2-.5.4-.9.5-.8.4-1.8.6-2.7.7-1.4.1-2.8 0-4.1-.4-1.6-.4-3.2-1-4.7-1.6-1.5-.6-3.1-1.1-4.7-1.4-1.3-.2-2.7-.2-4 0-1.2.3-2.4.7-3.4 1.4.2-.3.5-.5.7-.7.8-.5 1.6-.9 2.5-1.1 1.4-.3 2.7-.3 4.1-.1 1.6.3 3.3.8 4.8 1.4 1.5.6 3.1 1.1 4.7 1.6 1.3.3 2.6.5 4 .5s2.6-.3 3.7-.8zm-66.3 37.8c-.8-.5-1.7-.9-2.6-1.2-2.5-.8-5.1-1.1-7.7-.8-3.8.5-7.6 1.7-11 3.5-4 1.9-8.2 4.4-13.1 6-2.4.8-4.9 1.2-7.4 1.3-2.3 0-4.6-.4-6.9-1.2-2-.7-3.9-1.4-5.8-2.3-1.8-.8-3.5-1.6-5-2.2-2.4-1-5-1.7-7.6-2l-1.2-.1h-1.7c.2-.1.5-.1.8-.1l.9-.1h1.2c2.6.2 5.2.8 7.7 1.8 1.6.6 3.2 1.3 5 2.1 1.9.9 3.8 1.6 5.8 2.3 2.2.7 4.4 1.1 6.7 1.1 2.5-.1 4.9-.5 7.2-1.3 4.8-1.6 9-4 13-5.9 3.5-1.8 7.3-3 11.2-3.4 2.7-.3 5.3.1 7.8 1 1.1.5 1.9.9 2.7 1.5zm-136.6-25.5c.1-.1.3-.2.5-.2.5-.1 1-.1 1.5.1.8.3 1.5.7 2 1.4.6.9 1.2 1.8 1.6 2.7.5 1.1 1.3 2.1 2.2 2.9 1.1.9 2.3 1.6 3.7 2 3.2.9 6.5 1.1 9.7.5 3.3-.6 6.6-1 9.9-1.2 2.8-.1 5.5.7 7.8 2.2 1.6 1 2.8 2.4 3.6 4.2.3.6.4 1.3.4 2-.2-.6-.4-1.3-.6-1.9-.8-1.6-2-3-3.6-3.9-2.3-1.4-5-2.1-7.6-2-3.3.2-6.6.6-9.8 1.2-3.3.6-6.8.4-10-.5-1.4-.5-2.7-1.2-3.8-2.2-1-.9-1.7-1.9-2.3-3.1-.4-1-.9-1.9-1.5-2.7-.5-.6-1.1-1.1-1.8-1.4-.6-.3-1.2-.3-1.9-.1zm21.7-30.6c-1-.8-2.2-1.4-3.5-1.8-1.4-.4-2.8-.5-4.2-.3-1.7.2-3.4.7-5 1.4-1.7.7-3.3 1.6-4.8 2.3-1.3.7-2.6 1.2-4 1.8-.9.3-1.9.6-2.9.7-.4.1-.7.1-1.1.1 1.3-.3 2.6-.7 3.8-1.1 1.3-.5 2.7-1.2 3.9-1.8 1.5-.7 3-1.6 4.8-2.4 1.6-.7 3.4-1.2 5.2-1.4 1.5-.2 3 0 4.4.4 1 .3 1.8.8 2.6 1.4.4.2.6.4.8.7z" class="st8"/><path d="M377.7 261.5c12.8-7.4 27.7-16.2 35.1-29 4.7-8.2 7.1-18.1 8-27.5l1.9 29.4-39.4 31.6-5.6-4.5z" style="opacity:.3"/><path d="M344.5 164.4c-2.8 11.1-9 21.1-17.6 28.6-2.1 1.9-4.5 3.5-7.1 4.5-2.7 1-5.6.8-8.1-.5l.2-.7 20-19.8 12.6-12.1z" style="opacity:.2"/><path d="M314.3 212c-.1 0 .2-.9.5-2.4.3-1.9.4-3.9 0-5.8-.3-1.9-1-3.8-1.9-5.4-.7-1.3-1.3-2-1.2-2.1.6.5 1.2 1.2 1.6 1.9 1.1 1.7 1.8 3.6 2.1 5.6.3 2 .3 4-.2 5.9-.2.8-.5 1.6-.9 2.3zm-5.7-5c2.2-2.9 3.2-6.5 2.8-10.2.3.5.4 1 .4 1.6.3 2.7-.5 5.3-2.1 7.4-.6.8-1.1 1.2-1.1 1.2zm37.2-20.7c.1 0 1 8 1.8 17.8s1.5 17.8 1.3 17.9-1-8-1.8-17.8-1.5-17.9-1.3-17.9zm53.4-30.6c.1.2.2.4.2.5.2.5.3 1.1.4 1.6.4 2 .4 4.1-.1 6.1-.7 3-2.2 5.8-4.4 7.9-5.8 5.3-14.6 5.5-20.6.4-2.3-2.1-3.9-4.7-4.7-7.7-.5-2-.7-4.1-.4-6.1.1-.5.2-1.1.4-1.6 0-.2.1-.4.2-.6.1 0-.2.8-.4 2.2-.2 2 0 4.1.5 6 .8 2.9 2.4 5.5 4.7 7.4 5.8 4.8 14.3 4.6 19.9-.4 3.6-3.5 5.3-8.6 4.6-13.6-.1-1.4-.4-2.1-.3-2.1zm58.1 60.2c-.3-2.1-.4-4.2-.2-6.3 0-2.1.3-4.2.9-6.2.1 0-.2 2.8-.4 6.2s-.2 6.3-.3 6.3zm4 1.8c-.4-.6-.7-1.3-.9-2-.6-1.7-1-3.4-1.4-5.1-.4-1.7-.6-3.5-.8-5.3-.1-.7-.1-1.5 0-2.2.1 0 .5 3.3 1.3 7.4s1.9 7.2 1.8 7.2zm-40.4.6c-.1 0-.5-5.6-.7-12.6s-.4-12.6-.2-12.6.5 5.6.7 12.6.3 12.6.2 12.6z" class="st2"/><path d="M385 174.4c-7.5-.1-13.6-6.1-13.9-13.6-.2-5.5-.4-10.5-.4-10.5s-11.5-1.2-12.2-12.6 0-37.6 0-37.6c12.9-6.3 28.2-5.1 40 3.1l1.8 1.2-.8 56c-.2 7.8-6.6 14.1-14.5 14 .1 0 0 0 0 0z" class="st10"/><path d="M370.7 150.1c5.3-.2 10.4-1.9 14.6-4.9 0 0-3.1 8.4-14.5 7.9l-.1-3z" class="st13"/><path d="M399.5 116.2c.2-.1 7.7-2.7 7.8 5.1s-7.7 6.3-7.7 6.1-.1-11.2-.1-11.2z" class="st10"/><path d="M401.9 124.4s.1.1.4.2c.3.1.7.1 1 0 .8-.3 1.5-1.6 1.5-3 0-.7-.1-1.3-.4-1.9-.2-.5-.5-.8-1-1-.3-.1-.7.1-.8.4-.1.2 0 .4-.1.4s-.2-.1-.1-.5c0-.2.1-.4.3-.5.2-.2.5-.2.8-.2.7.1 1.2.6 1.4 1.2.3.7.5 1.4.5 2.2 0 1.6-.8 3.1-1.9 3.4-.4.1-.9.1-1.2-.2-.4-.3-.4-.5-.4-.5z" class="st13"/><path d="M364 117.3c0 .9.7 1.6 1.6 1.6.9.1 1.6-.6 1.7-1.4 0-.9-.7-1.6-1.6-1.7-.9-.1-1.6.6-1.7 1.5 0-.1 0 0 0 0zm-2-1.7c.2.2 1.4-.7 3.2-.7s3 .9 3.2.7-.1-.5-.7-.9c-.8-.5-1.7-.8-2.6-.8-.9 0-1.8.3-2.5.8-.5.5-.7.9-.6.9zm18.8 1.9c0 .9.7 1.6 1.6 1.6.9.1 1.6-.6 1.7-1.4 0-.9-.7-1.6-1.6-1.7-.9-.1-1.6.6-1.7 1.5 0-.1 0 0 0 0z" class="st2"/><path d="M379.2 116c.2.2 1.4-.7 3.2-.7s3 .9 3.2.7-.1-.5-.7-.9c-.8-.5-1.7-.8-2.6-.8-.9 0-1.8.3-2.5.8-.5.4-.7.8-.6.9zm-6.3 13c-.9-.3-1.9-.5-2.9-.5-.5 0-.9-.1-.9-.4 0-.5.1-.9.3-1.3.4-1.1.9-2.2 1.3-3.4 1.8-4.8 3.2-8.8 3-8.9s-1.9 3.8-3.7 8.6c-.4 1.2-.9 2.3-1.3 3.4-.3.5-.4 1.2-.2 1.7.1.3.4.6.7.7.2.1.5.1.8.1 1 .1 1.9.1 2.9 0zm5.1 1.2c-.3 0-.3 1.9-1.9 3.2s-3.6 1.1-3.7 1.4c0 .1.5.4 1.3.4 1.1 0 2.2-.4 3.1-1.1.8-.7 1.4-1.6 1.5-2.7.1-.8-.2-1.2-.3-1.2zm.8-21.1c.2.5 1.9.2 4 .5s3.7.8 4 .4c.1-.2-.2-.7-.8-1.1-1.8-1.1-4.1-1.4-6.1-.7-.8.3-1.2.7-1.1.9zm-16.2 1.5c.3.4 1.5 0 3 0s2.7.3 3-.2c.1-.2-.1-.6-.6-1-.7-.5-1.6-.7-2.4-.7-.9 0-1.7.3-2.4.8-.5.5-.7.9-.6 1.1z" class="st2"/><path d="M352.7 92.5c-.2-1.4.4-2.9 1.6-3.8 1.2-.9 2.8-.7 3.9.3-.4-1.9.8-3.7 2.7-4.2.1 0 .2 0 .3-.1 1.9-.1 3.5 1.3 5.2 1.8 1.8.4 3.7.1 5.3-.6 1.7-.7 3.3-1.6 5-2.2 7.5-2.7 15.8 1.1 18.6 8.6 2.6-.6 5.3.4 6.9 2.6 1.5 2.2 2 4.9 1.6 7.5-.2 1.7-.7 3.5-1.3 5.1v.4c-.1 6.3-.8 13.6-3.5 13.7-4.7.1-3.5-8.7-3.5-8.7-5.7-2.2-3.6-10.8-5-12.1s-4.4-4.3-16.4 1.8c-4.6 2.4-10.8 2.3-14.2 1.5-.1 0-.2 0-.3-.1h-.2c-1.1-.3-2.1-.7-3.1-1.3-1.1-.6-2-1.6-2.5-2.8-.5-1.2-.3-2.6.6-3.6-.9-1-1.5-2.3-1.7-3.8z" class="st2"/></g></svg>
