<svg xmlns="http://www.w3.org/2000/svg" viewBox="0 0 60 60"><path d="M38.79,10a.55.55,0,0,1-.54-.55V.69a.55.55,0,1,1,1.09,0V9.48A.55.55,0,0,1,38.79,10Z" fill="#221b38"/><path d="M44.66,50.52H15.34a5.88,5.88,0,0,1-5.86-5.86V15.34a5.88,5.88,0,0,1,5.86-5.86H44.66a5.88,5.88,0,0,1,5.86,5.86V44.66A5.88,5.88,0,0,1,44.66,50.52Z" fill="#f26322"/><path d="M59.31,38.25H51.06V21.75h8.25a.55.55,0,1,0,0-1.09H51.06V15.34a6.41,6.41,0,0,0-6.4-6.4H21.75V.69a.55.55,0,1,0-1.09,0V8.94H15.34a6.41,6.41,0,0,0-6.4,6.4v5.32H.69a.55.55,0,1,0,0,1.09H8.94v16.5H.69a.55.55,0,1,0,0,1.09H8.94v5.32a6.41,6.41,0,0,0,6.4,6.4h5.32v8.25a.55.55,0,1,0,1.09,0V51.06h16.5v8.25a.55.55,0,1,0,1.09,0V51.06h5.32a6.41,6.41,0,0,0,6.4-6.4V39.34h8.25a.55.55,0,1,0,0-1.09ZM50,44.66A5.31,5.31,0,0,1,44.66,50H15.34A5.31,5.31,0,0,1,10,44.66V15.34A5.31,5.31,0,0,1,15.34,10H44.66A5.31,5.31,0,0,1,50,15.34Z" fill="#221b38"/><path d="M37.33,22.67H22.67V37.33H37.33Z" fill="#aa5239"/><path d="M37.33,37.87H22.67a.54.54,0,0,1-.54-.54V22.67a.54.54,0,0,1,.54-.54H37.33a.54.54,0,0,1,.54.54V37.33A.54.54,0,0,1,37.33,37.87ZM23.22,36.78H36.78V23.22H23.22Z" fill="#221b38"/><rect width="60" height="60" fill="none"/></svg>