<svg xmlns="http://www.w3.org/2000/svg" viewBox="0 0 300 233.12"><path d="M87.67,0,39.9,25.88a12.16,12.16,0,0,1-21,12.21,6.37,6.37,0,0,1-.35-.63L2.24,46.28l42.2,77.9,85.43-46.27Z" fill="#f2f2f2"/><circle cx="28.66" cy="31.99" r="9.86" fill="#f26322"/><path d="M207.65,208.56l51.66-16.85a12.16,12.16,0,0,1,22.88-8.22c.08.23.15.46.22.69L300,178.43,272.55,94.2l-92.38,30.13Z" fill="#f2f2f2"/><circle cx="271.45" cy="187.73" r="9.86" fill="#f26322"/><rect x="34.98" y="46.22" width="238.5" height="108.35" fill="#3f3d56"/><rect x="38.92" y="50.15" width="230.63" height="98.37" fill="#fff"/><rect x="223.7" y="143.83" width="22.4" height="7.57" fill="#3f3d56"/><rect x="206.14" y="149.58" width="16.34" height="2.12" fill="#f26322"/><polyline points="124.66 79.49 158.38 79.49 174.74 87.45 200.8 100.15 217.84 68.25 266.07 68.25" fill="none" stroke="#3f3d56" stroke-miterlimit="10" stroke-width="2.4"/><polyline points="123.68 79.49 150.4 64.98 169.25 64.98" fill="none" stroke="#3f3d56" stroke-miterlimit="10" stroke-width="2.4"/><circle cx="124.66" cy="79.49" r="3.26" fill="#f26322"/><polyline points="174.7 87.46 176.87 119.73 195.73 119.73" fill="none" stroke="#3f3d56" stroke-miterlimit="10" stroke-width="2.4"/><polyline points="211.01 81.04 190.29 64.98 209.87 64.98" fill="none" stroke="#3f3d56" stroke-miterlimit="10" stroke-width="2.4"/><circle cx="174.7" cy="87.46" r="3.26" fill="#f26322"/><circle cx="245.04" cy="68.25" r="3.26" fill="#f26322"/><circle cx="210.95" cy="80.94" r="3.26" fill="#f26322"/><ellipse cx="46.03" cy="224.64" rx="46.01" ry="8.47" fill="#f2f2f2"/><polygon points="77.63 149.42 69.42 153.56 69.95 154.62 78.16 150.48 77.63 149.42" fill="#f26322"/><path d="M76.3,141.72l-.37,2.21s.55,15.3-3.5,10.51-1.3-11.25-1.3-11.25l1.11-1.84Z" fill="#fbbebe"/><path d="M52.69,70.92S52,78.67,51.58,79s5.53,7.37,5.53,7.37l5.17-4.79s-.37-7,.73-8.48S52.69,70.92,52.69,70.92Z" fill="#fbbebe"/><path d="M52.69,70.92S52,78.67,51.58,79s5.53,7.37,5.53,7.37l5.17-4.79s-.37-7,.73-8.48S52.69,70.92,52.69,70.92Z" opacity="0.1" style="isolation:isolate"/><polygon points="39.05 212.14 39.05 218.78 36.47 219.15 32.78 218.04 33.89 211.04 39.05 212.14" fill="#3f3d56"/><path d="M35.74,215.46s-1.11-3-3-2.58-2.21,2.58-2.21,2.58-1.47,5.53-3.69,7.37-4.42,6.64,0,7.38S35,229.1,35,228.73a4.48,4.48,0,0,1,3-2.94c1.85-.37,3.33-.74,3.33-2.22a5.83,5.83,0,0,0-1.11-2.95s-.36-7-1.1-6.08a7.39,7.39,0,0,0-1.11,2.4Z" fill="#2f2e41"/><polygon points="54.9 208.82 53.43 214.35 57.12 215.09 58.96 213.25 59.33 208.46 54.9 208.82" fill="#3f3d56"/><path d="M54.54,213.62a6,6,0,0,1,2.21-1.11h1.11s0-2.58,1.84-2.58,1.47,1.85,1.47,1.85,4.06,6.26,5.17,7.37,7,4.42,2.21,5.9-8.11,1.47-10.33-1.11a10.82,10.82,0,0,0-3.68-1.11c-1.48,0-3.33-.73-3.33-1.84a11.25,11.25,0,0,1,1.1-3.33s.74-6.64,1.11-5.9S54.54,213.62,54.54,213.62Z" fill="#2f2e41"/><path d="M38.68,124v12.17s-4,23.61-4,31.34-6.27,44.61-3.33,45.35,10,1.84,10.32.74,3-36.14,3.33-36.51,8.11-29.49,8.11-29.49l1.48.37.73,33.18S51.59,211,53.43,211s9.59-.37,9.59-2.58,4-43.14,4-43.14,4.8-32.44,3-35.77-1.84-5.15-1.84-5.15Z" fill="#2f2e41"/><circle cx="58.78" cy="69.27" r="7.37" fill="#fbbebe"/><path d="M57.12,82s-4.61-3.87-5-5.35a18.86,18.86,0,0,0-2.4,2.76c0,.37-10.32,1.48-12.9,4.44S32,93.06,32,93.06l6.27,11.8s.37,6.64.37,7.38-1.84,12.53-1.1,12.9,8.11,4.06,14.38,3.33,12.53-1.84,14.38-1.84,3.33.74,3.33,0-1.11-2.21-1.11-2.95-.37-2.58-.37-3.69-.74-2.95-.74-4.42,8.11-21.39,8.11-21.39A11.73,11.73,0,0,0,69.3,85c-5.91-2.95-6.64-4-6.64-4s-.11-2.21-.42-2.21S60.82,82,57.87,82.39Z" fill="#d0cde1"/><polygon points="37.21 131.02 39.79 135.08 46.42 133.61 41.63 128.08 37.21 131.02" fill="#fbbebe"/><path d="M73.34,91.2l2.21,3s4.43,21.39,3.69,29.13-1.48,13.64-1.48,13.64,1.48,5.54.37,5.54-7.74.37-7.74-.74.74-8.11.74-8.11l-1.85-16.23-4-5.53Z" fill="#d0cde1"/><path d="M53.77,65.68c.45-.19,1,0,1.46-.11s1.07-.52,1.65-.47a3.11,3.11,0,0,1,.78.26,1,1,0,0,0,.81,0,.47.47,0,0,0,.22-.61s0,0,0-.08a2.25,2.25,0,0,0,1.3-.56A1.1,1.1,0,0,1,60.2,64a.82.82,0,0,1,.65.1l.84.39a1.05,1.05,0,0,1,.48.35c.1.15.12.36.26.48s.46.08.69.09a.89.89,0,0,1,.8.86c0,.25-.09.55.1.71s.28.07.41.13c.34.13.35.6.3,1s0,.86.33,1,.5-.09.76-.13a1.93,1.93,0,0,1,1.11.38,1,1,0,0,0,1.11.06,1,1,0,0,0,.18-1,5.72,5.72,0,0,0-.54-1.48.9.9,0,0,1-.15-.46.85.85,0,0,1,.38-.56A2.54,2.54,0,0,0,69,64.57a4.74,4.74,0,0,0,0-1.19,7.14,7.14,0,0,0,.11-1.45c-.16-.86-1.12-1.28-1.74-1.91-.86-.85-1.14-2.22-2.14-2.89-.81-.54-1.86-.47-2.78-.78s-1.82-1.11-2.82-1.49a4,4,0,0,0-3.33.31,3.24,3.24,0,0,1-1,.5,3.32,3.32,0,0,1-.89,0,3.36,3.36,0,0,0-1.71.33,1,1,0,0,0-.48.42c-.17.39.08,1-.3,1.21-.18.09-.4,0-.61,0a1.14,1.14,0,0,0-.88.69,3.2,3.2,0,0,1-.61,1c-.48.42-1.35.49-1.48,1.12a7,7,0,0,0,.05.79c0,.56-.63,1-.61,1.53s.85,1,1.07,1.56a2.22,2.22,0,0,1-.2,1.42,1.23,1.23,0,0,0,.19,1.36c.15.12.35.16.5.28a1.47,1.47,0,0,1,.35,1.37.67.67,0,0,0,.15.59.59.59,0,0,0,.45.06,1.87,1.87,0,0,0,1.15-.87c.13-.22.15-.4.39-.52s.35,0,.51-.1C53.09,67.44,52.82,66.08,53.77,65.68Z" fill="#2f2e41"/><path d="M33.15,91.94,32,93.05S25.41,113,27.62,117.38s6.64,15.5,8.12,15.12,6.64-3.69,6.64-4.06-6.28-10.7-6.28-10.7-.74-2.21-.37-2.58.37,0,0-.74-.37,0,.37-.73.74-.74.74-1.11S39.05,103,39.05,103Z" fill="#d0cde1"/><polygon points="38.87 135.26 46.98 132.69 48.08 135.26 39.23 137.11 38.87 135.26" fill="#2f2e41"/><polygon points="38.87 135.26 46.98 132.69 48.08 135.26 39.23 137.11 38.87 135.26" opacity="0.1" style="isolation:isolate"/><polygon points="49.93 79.59 56.2 84.75 56.93 83.64 49.93 79.59" opacity="0.1" style="isolation:isolate"/><polygon points="62.47 81.06 58.04 83.64 58.41 84.75 62.47 81.06" opacity="0.1" style="isolation:isolate"/><path d="M88.82,86.35l-1,.34a.57.57,0,0,1-.18,0,.36.36,0,0,1-.37-.36.4.4,0,0,1,.3-.37l1.23-.43a1.87,1.87,0,0,1,.46-.09h0a.42.42,0,0,1,.43.4v6.81a.43.43,0,0,1-.43.43h0a.42.42,0,0,1-.41-.43Z"/><path d="M92.06,91.88a.49.49,0,0,1,.5.47v.25a.49.49,0,0,1-.48.51h0a.5.5,0,0,1-.52-.49v-.24a.49.49,0,0,1,.48-.5Z"/><path d="M99,92.63V86a.43.43,0,0,1,.41-.43h4.67a.4.4,0,0,1,.39.4.39.39,0,0,1-.39.39H99.84V88.9h3.75a.4.4,0,0,1,0,.79H99.84v2.63h4.28a.39.39,0,1,1,0,.78H99.4a.43.43,0,0,1-.42-.43S99,92.64,99,92.63Z"/><path d="M105.86,92.47l1.81-2.23L106,88.16a.42.42,0,0,1-.13-.3.4.4,0,0,1,.39-.39.44.44,0,0,1,.37.19l1.6,2,1.57-2a.47.47,0,0,1,.35-.21.38.38,0,0,1,.4.34v0a.39.39,0,0,1-.11.27l-1.73,2.11,1.81,2.22a.44.44,0,0,1,.11.29.39.39,0,0,1-.39.4.46.46,0,0,1-.36-.19l-1.68-2.14-1.68,2.12a.47.47,0,0,1-.35.21.4.4,0,0,1-.39-.38A.34.34,0,0,1,105.86,92.47Z"/><path d="M112.16,87.88a.41.41,0,0,1,.82,0v.75a2.5,2.5,0,0,1,2.13-1.23,2.7,2.7,0,0,1,2.64,2.87v0a2.71,2.71,0,0,1-2.64,2.88A2.49,2.49,0,0,1,113,92v2.42a.39.39,0,0,1-.37.41h0a.39.39,0,0,1-.42-.36V87.88Zm4.75,2.42v0a2,2,0,0,0-2-2.14,2.07,2.07,0,0,0-2,2.12h0v0a2.06,2.06,0,0,0,2,2.14h0a2,2,0,0,0,2-2.14Z"/><path d="M119.35,85.6a.42.42,0,0,1,.83,0v7.08a.41.41,0,0,1-.37.42h0a.4.4,0,0,1-.41-.37,0,0,0,0,1,0,0Z"/><path d="M121.75,90.31v0a2.89,2.89,0,0,1,5.78,0v0a2.88,2.88,0,0,1-2.86,2.9h0a2.84,2.84,0,0,1-2.88-2.8Zm4.94,0v0a2.1,2.1,0,0,0-2-2.16h0a2,2,0,0,0-2,2.06v.1a2.09,2.09,0,0,0,2,2.16h.05a2.05,2.05,0,0,0,2-2Z"/><path d="M129,87.88a.41.41,0,0,1,.42-.41.41.41,0,0,1,.41.41v1a2.28,2.28,0,0,1,1.91-1.48.38.38,0,0,1,.39.39v0a.4.4,0,0,1-.36.42,2.27,2.27,0,0,0-2,2.53V92.7a.41.41,0,0,1-.82,0Z"/><path d="M135.57,93.19a2.75,2.75,0,0,1-2.75-2.75v-.16a2.73,2.73,0,0,1,2.66-2.88,2.6,2.6,0,0,1,2.57,2.8.39.39,0,0,1-.39.4h-4a1.93,1.93,0,0,0,2,1.87,2.31,2.31,0,0,0,1.6-.64.34.34,0,0,1,.23-.1.36.36,0,0,1,.24.63A2.86,2.86,0,0,1,135.57,93.19ZM137.21,90a1.81,1.81,0,0,0-1.76-1.88,1.88,1.88,0,0,0-1.8,1.88Z"/><path d="M87.58,106.36l2.56-2.26c1.16-1,1.57-1.61,1.57-2.36a1.42,1.42,0,0,0-1.42-1.44H90.2a2.25,2.25,0,0,0-1.86,1.09.39.39,0,0,1-.31.15.39.39,0,0,1-.38-.41.4.4,0,0,1,.07-.21,2.84,2.84,0,0,1,2.55-1.38,2.16,2.16,0,0,1,2.32,2.12v0c0,1.09-.58,1.77-1.9,2.92l-2,1.78H92.3a.39.39,0,0,1,0,.78H87.8a.39.39,0,0,1-.43-.35v0A.48.48,0,0,1,87.58,106.36Z"/><path d="M94.66,106a.49.49,0,0,1,.5.48v.24a.51.51,0,0,1-.46.56.53.53,0,0,1-.56-.47v-.3a.51.51,0,0,1,.49-.51Z"/><path d="M100.23,100a.41.41,0,0,1,.38-.46.42.42,0,0,1,.46.38v3h4.33v-3a.43.43,0,0,1,.85,0v6.76a.43.43,0,0,1-.85,0v-3h-4.33v3a.42.42,0,0,1-.38.46.42.42,0,0,1-.46-.38.11.11,0,0,1,0-.08Z"/><path d="M108.13,108.74a.41.41,0,0,1-.26-.36.35.35,0,0,1,.35-.35.78.78,0,0,1,.21,0,1.55,1.55,0,0,0,.6.1c.52,0,.82-.31,1.11-1l0-.08-2.32-4.91a.59.59,0,0,1-.05-.23.39.39,0,0,1,.39-.39h0a.43.43,0,0,1,.41.32l1.93,4.36,1.72-4.37a.41.41,0,0,1,.39-.31.4.4,0,0,1,.4.39,1.55,1.55,0,0,1,0,.21l-2.17,5.16c-.48,1.15-1,1.58-1.85,1.58A2.76,2.76,0,0,1,108.13,108.74Z"/><path d="M114.53,102a.42.42,0,1,1,.83,0v.74a2.49,2.49,0,0,1,2.12-1.23,2.7,2.7,0,0,1,2.65,2.87v0a2.72,2.72,0,0,1-2.65,2.89,2.49,2.49,0,0,1-2.12-1.18v2.41a.4.4,0,0,1-.37.42h0a.41.41,0,0,1-.41-.41h0Zm4.75,2.42v0a2,2,0,0,0-2-2.15,2.07,2.07,0,0,0-2,2.13h0v0a2.06,2.06,0,0,0,2,2.14h0a2,2,0,0,0,2-2.13Z"/><path d="M121.31,104.41v0a2.89,2.89,0,0,1,5.78,0v0a2.87,2.87,0,0,1-2.87,2.89h0a2.84,2.84,0,0,1-2.86-2.82Zm4.93,0v0a2.1,2.1,0,0,0-2-2.17h0a2,2,0,0,0-2,2.06v.11a2.08,2.08,0,0,0,2,2.15h0a2,2,0,0,0,2-2.05Z"/><path d="M128.89,105.69v-3.36h-.45a.41.41,0,0,1-.37-.37.37.37,0,0,1,.37-.36h.45v-1.31a.39.39,0,0,1,.36-.42h0a.44.44,0,0,1,.42.42v1.31h1.43a.37.37,0,1,1,0,.73H129.7v3.23a.82.82,0,0,0,.7.93.89.89,0,0,0,.23,0,2.09,2.09,0,0,0,.5-.08.37.37,0,0,1,.36.36.37.37,0,0,1-.24.32,2.24,2.24,0,0,1-.81.15A1.38,1.38,0,0,1,128.89,105.69Z"/><path d="M132.91,99.69a.42.42,0,0,1,.39-.42.43.43,0,0,1,.43.42v2.88a2.1,2.1,0,0,1,1.89-1.08,2,2,0,0,1,2.12,2.22v3.08a.41.41,0,1,1-.82,0V103.9a1.48,1.48,0,0,0-1.53-1.67,1.63,1.63,0,0,0-1.67,1.59.61.61,0,0,0,0,.14v2.81a.39.39,0,0,1-.37.42h0a.42.42,0,0,1-.42-.41h0Z"/><path d="M141.94,107.28a2.76,2.76,0,0,1-2.76-2.75.57.57,0,0,1,0-.13v0a2.73,2.73,0,0,1,2.65-2.89,2.61,2.61,0,0,1,2.57,2.81.38.38,0,0,1-.39.39h-4a1.93,1.93,0,0,0,2,1.88,2.31,2.31,0,0,0,1.6-.64.35.35,0,0,1,.51,0,.34.34,0,0,1,.09.24.3.3,0,0,1-.13.26A2.79,2.79,0,0,1,141.94,107.28Zm1.64-3.2a1.83,1.83,0,0,0-1.77-1.89,1.91,1.91,0,0,0-1.8,1.89Z"/><path d="M145.56,106.56a.38.38,0,0,1-.15-.3.34.34,0,0,1,.36-.35h0a.32.32,0,0,1,.21.06,3.14,3.14,0,0,0,1.75.59c.67,0,1.15-.34,1.15-.88v0c0-.56-.65-.79-1.38-1s-1.83-.54-1.83-1.57h0c0-1,.78-1.58,1.88-1.58a4,4,0,0,1,1.77.47.38.38,0,0,1,.2.35.34.34,0,0,1-.36.35h0a.39.39,0,0,1-.18,0,3.1,3.1,0,0,0-1.45-.43c-.65,0-1.07.34-1.07.79v0c0,.52.68.73,1.42.95s1.79.59,1.79,1.58v0a1.74,1.74,0,0,1-2,1.66A3.81,3.81,0,0,1,145.56,106.56Z"/><path d="M151.2,99.87a.46.46,0,0,1,.45-.44h0a.47.47,0,0,1,.5.4V100a.45.45,0,0,1-.48.44h0a.45.45,0,0,1-.48-.42v-.16Zm.08,2.11a.41.41,0,1,1,.82,0v4.81a.4.4,0,0,1-.36.42h0a.41.41,0,0,1-.42-.41h0Z"/><path d="M153.7,106.82v0a.56.56,0,0,1,.17-.37l3.51-4.1h-3.24a.35.35,0,0,1-.35-.34h0a.35.35,0,0,1,.35-.35h4a.36.36,0,0,1,.39.33v0a.54.54,0,0,1-.17.38l-3.51,4.12h3.38a.34.34,0,0,1,.38.31.35.35,0,0,1-.31.38.09.09,0,0,1-.07,0H154.1a.37.37,0,0,1-.4-.34Z"/><path d="M162.26,107.28a2.76,2.76,0,0,1-2.76-2.75.57.57,0,0,1,0-.13v0a2.73,2.73,0,0,1,2.65-2.89,2.61,2.61,0,0,1,2.58,2.81.39.39,0,0,1-.4.39h-4a1.93,1.93,0,0,0,2,1.88,2.31,2.31,0,0,0,1.6-.64.37.37,0,0,1,.24-.1.36.36,0,0,1,.36.36.33.33,0,0,1-.13.26A2.79,2.79,0,0,1,162.26,107.28Zm1.64-3.2a1.83,1.83,0,0,0-1.77-1.89,1.91,1.91,0,0,0-1.8,1.89Z"/><path d="M87.62,120.24a.49.49,0,0,1-.14-.3.42.42,0,0,1,.42-.42.48.48,0,0,1,.31.13,2.58,2.58,0,0,0,2,.95,1.5,1.5,0,0,0,1.63-1.46v0c0-.93-.86-1.44-2.1-1.44h-.27a.38.38,0,0,1-.37-.37h0a.47.47,0,0,1,.17-.33l2.2-2.46H88.19a.39.39,0,0,1-.39-.37.39.39,0,0,1,.39-.4h4.1a.38.38,0,0,1,.39.35v0a.62.62,0,0,1-.2.42L90.27,117c1.31.11,2.47.74,2.47,2.11v0a2.33,2.33,0,0,1-2.5,2.27A3.4,3.4,0,0,1,87.62,120.24Z"/><path d="M94.79,120.06a.49.49,0,0,1,.5.48v.24a.49.49,0,0,1-.47.52h0a.5.5,0,0,1-.52-.49v-.24a.51.51,0,0,1,.49-.51Z"/><path d="M102.36,114.52h-2.19a.39.39,0,0,1-.4-.39.4.4,0,0,1,.4-.4h5.21a.39.39,0,0,1,.39.4.38.38,0,0,1-.39.39H103.2v6.35a.43.43,0,0,1-.86,0h0Z"/><path d="M108.26,121.37a2.74,2.74,0,0,1-2.76-2.75v-.16a2.74,2.74,0,0,1,2.66-2.89,2.61,2.61,0,0,1,2.57,2.81.38.38,0,0,1-.39.39h-4a1.94,1.94,0,0,0,2,1.88,2.31,2.31,0,0,0,1.59-.64.37.37,0,0,1,.24-.1.36.36,0,0,1,.36.36.3.3,0,0,1-.13.26A2.76,2.76,0,0,1,108.26,121.37Zm1.64-3.2a1.83,1.83,0,0,0-1.77-1.89,1.9,1.9,0,0,0-1.8,1.89Z"/><path d="M111.88,120.65a.36.36,0,0,1-.15-.29.37.37,0,0,1,.37-.36h0a.36.36,0,0,1,.2.06,3,3,0,0,0,1.76.59c.66,0,1.15-.34,1.15-.87v0c0-.55-.66-.78-1.39-1s-1.83-.55-1.83-1.58v0c0-1,.79-1.57,1.89-1.57a3.73,3.73,0,0,1,1.76.47.39.39,0,0,1,.21.34.36.36,0,0,1-.36.36h0a.59.59,0,0,1-.19,0,3.06,3.06,0,0,0-1.45-.43c-.65,0-1.07.35-1.07.79v0c0,.53.69.73,1.43,1s1.78.59,1.78,1.57v0a1.74,1.74,0,0,1-2,1.66A3.82,3.82,0,0,1,111.88,120.65Z"/><path d="M117.72,119.78v-3.35h-.46a.39.39,0,0,1-.36-.36.37.37,0,0,1,.36-.37h.46v-1.3a.39.39,0,0,1,.37-.42h0a.43.43,0,0,1,.42.42v1.3H120a.39.39,0,0,1,.37.37.38.38,0,0,1-.37.36h-1.43v3.24a.82.82,0,0,0,.71.92h.22a3,3,0,0,0,.51-.07.35.35,0,0,1,.35.35.34.34,0,0,1-.23.32,1.93,1.93,0,0,1-.82.15A1.41,1.41,0,0,1,117.72,119.78Z"/><path d="M130.33,121.21l-1-1a3.3,3.3,0,0,1-2.46,1.18,2.15,2.15,0,0,1-2.36-2.1h0a2.37,2.37,0,0,1,1.81-2.17,2.36,2.36,0,0,1-.75-1.65v0a1.82,1.82,0,0,1,2-1.78,1.73,1.73,0,0,1,1.82,1.65v.07c0,.95-.68,1.57-1.77,2l1.71,1.75a9.87,9.87,0,0,0,.79-1.42.38.38,0,0,1,.34-.23.39.39,0,0,1,.4.39.66.66,0,0,1-.06.2,10.25,10.25,0,0,1-.93,1.6l1,1a.46.46,0,0,1,.16.34.39.39,0,0,1-.39.39A.48.48,0,0,1,130.33,121.21Zm-1.48-1.57-2-2.06c-1,.36-1.44,1-1.44,1.61v0a1.46,1.46,0,0,0,1.48,1.42h.1A2.58,2.58,0,0,0,128.85,119.64Zm-.24-4.28v0a1,1,0,0,0-1-1h0a1.07,1.07,0,0,0-1.14,1v.09c0,.44.18.79.75,1.38.94-.29,1.45-.76,1.45-1.41Z"/><path d="M135.53,120.34a.38.38,0,0,1-.16-.31.38.38,0,0,1,.36-.42h0a.42.42,0,0,1,.26.1,3.38,3.38,0,0,0,2.36.89c1,0,1.67-.53,1.67-1.27v0c0-.69-.37-1.09-2-1.42s-2.51-.93-2.51-2.17h0a2.21,2.21,0,0,1,2.46-2,3.79,3.79,0,0,1,2.39.74.48.48,0,0,1,.19.35.39.39,0,0,1-.4.39.45.45,0,0,1-.25-.07,3.13,3.13,0,0,0-1.93-.66c-1,0-1.6.54-1.6,1.22h0c0,.71.39,1.11,2,1.46s2.44,1,2.44,2.12v0c0,1.29-1.07,2.12-2.56,2.12A4.35,4.35,0,0,1,135.53,120.34Z"/><path d="M142.52,113.78a.41.41,0,1,1,.81,0v2.89a2.1,2.1,0,0,1,1.9-1.09,2,2,0,0,1,2.12,2.22v3.08a.41.41,0,1,1-.82,0V118a1.49,1.49,0,0,0-1.54-1.68,1.64,1.64,0,0,0-1.66,1.61v2.94a.39.39,0,0,1-.37.42h0a.4.4,0,0,1-.42-.37v-7.15Z"/><path d="M148.71,119.64h0c0-1.18,1-1.79,2.36-1.79a5.76,5.76,0,0,1,1.7.23v-.19c0-1-.61-1.51-1.65-1.51a3.39,3.39,0,0,0-1.44.31.4.4,0,0,1-.15,0,.36.36,0,0,1-.36-.36.38.38,0,0,1,.22-.34,4.37,4.37,0,0,1,1.81-.39,2.42,2.42,0,0,1,1.79.61,2.16,2.16,0,0,1,.57,1.62v3a.39.39,0,1,1-.78,0v-.47a2.41,2.41,0,0,1-2,1A1.87,1.87,0,0,1,148.71,119.64Zm4.08-.43v-.54a6,6,0,0,0-1.63-.23c-1,0-1.62.45-1.62,1.14v0c0,.7.65,1.11,1.39,1.11A1.68,1.68,0,0,0,152.79,119.21Z"/><path d="M155.33,116.07a.42.42,0,1,1,.83,0v1a2.28,2.28,0,0,1,1.91-1.48.39.39,0,0,1,.39.39v0a.39.39,0,0,1-.36.42,2.27,2.27,0,0,0-2,2.53v1.89a.42.42,0,1,1-.83,0Z"/><path d="M161.86,121.37a2.76,2.76,0,0,1-2.76-2.75s0-.08,0-.13v0a2.73,2.73,0,0,1,2.65-2.89,2.62,2.62,0,0,1,2.58,2.81.39.39,0,0,1-.4.39h-4a1.94,1.94,0,0,0,2,1.88,2.2,2.2,0,0,0,1.59-.64.37.37,0,0,1,.24-.1.37.37,0,0,1,.37.36.36.36,0,0,1-.13.26A2.8,2.8,0,0,1,161.86,121.37Zm1.64-3.2a1.82,1.82,0,0,0-1.77-1.89,1.91,1.91,0,0,0-1.8,1.89Z"/><path d="M91.53,133.56H87.8a.39.39,0,0,1-.43-.36v0a.65.65,0,0,1,.16-.4l3.9-4.76a.58.58,0,0,1,.48-.26.44.44,0,0,1,.44.43h0v4.69h.85a.36.36,0,1,1,0,.71h-.85V135a.41.41,0,0,1-.41.41.41.41,0,0,1-.41-.41Zm0-.71V129l-3.15,3.87Z"/><path d="M95.41,134.16a.48.48,0,0,1,.5.48v.24a.48.48,0,0,1-.47.51h0a.49.49,0,0,1-.51-.49v-.24a.48.48,0,0,1,.48-.5Z"/><path d="M101.07,128.21a.43.43,0,1,1,.85,0V135a.43.43,0,0,1-.85,0Z"/><path d="M104,130.16a.42.42,0,0,1,.39-.42.39.39,0,0,1,.42.37v.62a2,2,0,0,1,1.79-1,1.89,1.89,0,0,1,1.78,1.1,2.2,2.2,0,0,1,2-1.1,2,2,0,0,1,2.06,2.23V135a.42.42,0,0,1-.83,0V132.1c0-1.07-.53-1.67-1.44-1.67a1.55,1.55,0,0,0-1.52,1.72V135a.42.42,0,0,1-.42.42h0a.39.39,0,0,1-.39-.4v-2.92c0-1-.55-1.65-1.43-1.65a1.6,1.6,0,0,0-1.54,1.75V135a.38.38,0,0,1-.37.41h0A.4.4,0,0,1,104,135V135Z"/><path d="M114.18,130.16a.41.41,0,0,1,.82,0v.75a2.5,2.5,0,0,1,2.12-1.23,2.7,2.7,0,0,1,2.65,2.87v0a2.71,2.71,0,0,1-2.65,2.88,2.49,2.49,0,0,1-2.12-1.18v2.42a.39.39,0,0,1-.37.42h0a.4.4,0,0,1-.42-.37v-6.58Zm4.75,2.42v0a2,2,0,0,0-2-2.14,2.06,2.06,0,0,0-2,2.13h0v0a2,2,0,0,0,2,2.14h0A2,2,0,0,0,118.93,132.58Z"/><path d="M121.3,130.16a.41.41,0,0,1,.82,0v1a2.3,2.3,0,0,1,1.91-1.48.39.39,0,0,1,.4.39,0,0,0,0,1,0,0,.39.39,0,0,1-.36.42,2.26,2.26,0,0,0-2,2.53V135a.41.41,0,0,1-.42.41.41.41,0,0,1-.41-.41Z"/><path d="M125.06,132.59v0a2.89,2.89,0,1,1,5.78,0h0v0a2.88,2.88,0,0,1-2.86,2.9h0a2.84,2.84,0,0,1-2.87-2.8Zm4.93,0v0a2.09,2.09,0,0,0-2-2.16h0a2,2,0,0,0-2,2.06v.1a2.08,2.08,0,0,0,2,2.16h0a2,2,0,0,0,2-2Z"/><path d="M134.27,135.42h0a.48.48,0,0,1-.47-.35l-2.08-4.7a.9.9,0,0,1-.06-.22.42.42,0,0,1,.45-.4.43.43,0,0,1,.39.31l1.79,4.33,1.82-4.35a.4.4,0,0,1,.4-.3.39.39,0,0,1,.39.39.78.78,0,0,1,0,.21l-2.09,4.72A.5.5,0,0,1,134.27,135.42Z"/><path d="M140.45,135.47a2.76,2.76,0,0,1-2.76-2.75v-.16a2.73,2.73,0,0,1,2.66-2.88,2.6,2.6,0,0,1,2.57,2.8.39.39,0,0,1-.39.4h-4a1.92,1.92,0,0,0,2,1.87,2.23,2.23,0,0,0,1.6-.64.43.43,0,0,1,.24-.1.36.36,0,0,1,.36.36.37.37,0,0,1-.13.27A2.79,2.79,0,0,1,140.45,135.47Zm1.64-3.21a1.83,1.83,0,0,0-1.77-1.89,1.89,1.89,0,0,0-1.8,1.89Z"/></svg>