<svg xmlns="http://www.w3.org/2000/svg" viewBox="0 0 186 253.77"><path d="M180.18,99.26C184.31,76.7,165,58.7,135.61,48.63,127.7,20.65,109.81,4,83.63,4,68.44,4,54.92,10,46.25,19.26,26.77,20.45,26.63,43.38,9.63,76.16c-13.3,25.66-2.84,52.24,29.28,56.38-5,11.6-7.63,25-7.87,38.62-16.29-18.66-11.83-37.94-20.93-37.44-11.4.63,3.19,41.06,23.44,63.64a99.74,99.74,0,0,0,3,10.92c-7.07,2.44-14.47,9.77-14.47,18.26,0,9.66,6.62,10.56,15.2,10.64a15.31,15.31,0,0,0-.44,3.39,7.89,7.89,0,0,0,3,6.54c2.16,1.64,5.22,2.47,9.51,2.63l1.84,0h0c9.05,0,15.28-2.53,19.21-6.11A16.12,16.12,0,0,0,76,231.89a11.69,11.69,0,0,0-.32-2.77,12.26,12.26,0,0,1-.27-1.55,127.85,127.85,0,0,1,22-.13,15.22,15.22,0,0,1-.29,1.68,10.54,10.54,0,0,0-.3,2.55,16.31,16.31,0,0,0,5.79,11.9c4.08,3.61,10.48,6.2,19.66,6.2h0l1.84,0c4.17-.16,7.17-1,9.29-2.52a7.57,7.57,0,0,0,3-6.34,14.91,14.91,0,0,0-.54-3.7c8.74-.06,15.54-.86,15.54-10.64,0-8.49-7.4-15.82-14.47-18.26,7.5-23.28,6.88-50.37-1.3-71.88l-.49-.32a75.87,75.87,0,0,0,22.77-8.23c2.86,4.61,5.66,9.1,12.26,8.15,9.94-1.42,14.13-16.3,5.61-25A36,36,0,0,0,180.18,99.26Z" style="fill:#fff;stroke:#231f20;stroke-width:8px"/><path d="M181.7,97.74c4.14-22.56-15.19-40.56-44.57-50.63-7.91-28-25.8-44.61-52-44.61-15.2,0-28.72,6-37.39,15.24C28.29,18.93,28.15,41.86,11.16,74.63-2.15,100.3,8.32,126.88,40.43,131a103,103,0,0,0-7.87,38.61C16.27,151,20.73,131.7,11.63,132.2c-11.4.63,3.19,41.06,23.44,63.63a99.3,99.3,0,0,0,3,10.93C31,209.2,23.61,216.53,23.61,225c0,9.65,6.62,10.56,15.2,10.64a15.92,15.92,0,0,0-.44,3.39,7.89,7.89,0,0,0,3.05,6.54c2.16,1.64,5.23,2.47,9.51,2.63l1.84,0h0c9,0,15.28-2.53,19.21-6.11a16.14,16.14,0,0,0,5.49-11.77,11.69,11.69,0,0,0-.32-2.77,14.44,14.44,0,0,1-.27-1.55,127.85,127.85,0,0,1,22-.13,15.22,15.22,0,0,1-.29,1.68,10.42,10.42,0,0,0-.3,2.55,16.31,16.31,0,0,0,5.79,11.9c4.08,3.61,10.48,6.2,19.66,6.2h0l1.84,0c4.17-.16,7.17-.95,9.29-2.52a7.57,7.57,0,0,0,3-6.34,14.91,14.91,0,0,0-.54-3.7c8.75-.06,15.54-.86,15.54-10.64,0-8.49-7.4-15.82-14.46-18.26,7.49-23.29,6.87-50.37-1.31-71.88l-.49-.32a75.87,75.87,0,0,0,22.77-8.23c2.86,4.61,5.66,9.09,12.26,8.15,9.94-1.42,14.13-16.3,5.61-25A35.7,35.7,0,0,0,181.7,97.74Z" style="fill:#fff;stroke:#231f20;stroke-width:5px"/><path d="M138.47,206.76c3-1.52,15.23,4.56,14.47,18.26s-17.5,10.65-17.5,10.65l-7.6-17.5s-3-33.48-2.29-51-11.41-29.67-11.41-29.67a95.94,95.94,0,0,1,12.18-.76,27.44,27.44,0,0,0,10.84-1.89s5.89,7.21,6.65,31.56S135.44,208.28,138.47,206.76Z" style="fill:#a97f2c"/><path d="M121.75,18.08c6.85,6.85,16.58,30.78,16.58,30.78s-17.1-1.74-24.44-8.65C109.68,36.23,90,3.73,90,3.73,96.08,3.73,114.9,11.23,121.75,18.08Z" style="fill:#a97f2c"/><path d="M85.15,2.5S108.76,38.13,108.49,51c-.38,18.79-33.12,14.39-11.85,66,5.33,12.94-6.84,23.59-24.34,20.55-8-1.39-22.82,2.28-22.82,25.86S48,218.17,48,218.17l-6.84,17.5S24.37,238,24.37,228.06s4.56-12.93,11.41-18.26-.71-14-.71-14-23.63-34-24.39-39.28S19,144.37,19,144.37s11.06,23.14,13.52,25.26,1.7-29.82,6.26-34.39S45.67,20.36,45.67,20.36,49.32,7.46,85.15,2.5Z" style="fill:#a97f2c"/><path d="M79.15,97.23c-30.69,5.47-46,38.56-46.59,72.4C16.27,151,20.73,131.7,11.63,132.2c-11.4.63,3.19,41.06,23.44,63.63a99.3,99.3,0,0,0,3,10.93C31,209.2,23.61,216.53,23.61,225c0,10.5,7.83,10.65,17.5,10.65a16.71,16.71,0,0,0,12-5.25,128,128,0,0,1,70.23,0,16.72,16.72,0,0,0,12.06,5.25c9.66,0,17.49-.15,17.49-10.65,0-8.49-7.4-15.82-14.46-18.26,7.49-23.29,6.87-50.37-1.31-71.88" style="fill:none;stroke:#231f20;stroke-width:5px"/><path d="M50.24,160.35S49.48,209.8,48,218.17s-18.25,27.39,3,28.15,25.86-12.17,24.34-18.26-3-51.73-3-51.73" style="fill:#fff"/><path d="M52.77,248.25l-1.84,0h0c-4.28-.16-7.35-1-9.51-2.63h0a7.89,7.89,0,0,1-3.05-6.54h0c0-3.88,1.86-7.92,3.67-11.75h0c1.83-3.78,3.7-7.42,4-9.47h0c.35-1.85.69-6.55,1-12.32h0c.29-5.79.53-12.75.72-19.44h0c.37-13.4.57-9.77.57-15.39a30.8,30.8,0,0,1,1.9-10.33,25.23,25.23,0,0,1,1.9,10.39c0,4.8-.43,17.46-1.29,35h0c-.29,5.85-.61,10.48-1,12.81h0c-.6,3.12-2.58,6.68-4.36,10.43h0c-1.79,3.7-3.33,7.52-3.3,10.11h0a4,4,0,0,0,1.57,3.52h0c1.16.92,3.46,1.72,7.32,1.85h0l1.71,0h0c8.4,0,13.58-2.3,16.69-5.13h0a12.35,12.35,0,0,0,4.25-8.95h0a7.73,7.73,0,0,0-.21-1.85h0a87.59,87.59,0,0,1-1.17-11h0c-.36-5.16-.69-11.45-1-17.54h0c-.57-12.19-.41-9.36-.41-14.29a36.1,36.1,0,0,1,1.36-9.38A28.83,28.83,0,0,1,74.74,187c0,5.42-.33-4.3,0,4h0c.35,8.33.83,18.6,1.36,26.26h0a91.27,91.27,0,0,0,1.07,10.33h0a11.69,11.69,0,0,1,.32,2.77h0A16.14,16.14,0,0,1,72,242.14h0c-3.93,3.58-10.16,6.11-19.21,6.11h0Z" style="fill:#231f20"/><path d="M125.56,160.35s.76,49.45,2.28,57.82,19,27.39-2.28,28.15-26.63-12.17-25.11-18.26,3-51.73,3-51.73" style="fill:#fff"/><path d="M104.09,242.05a16.31,16.31,0,0,1-5.79-11.9h0a10.42,10.42,0,0,1,.3-2.55h0a88.85,88.85,0,0,0,1.07-10.33h0c.35-5.1.69-11.37,1-17.45h0c.57-12.16,1-10.25,1-14.72a21.65,21.65,0,0,1,2.33-8.84,29.34,29.34,0,0,1,1.47,9c0,4.92-.85,16.84-1.93,32.31h0a87.59,87.59,0,0,1-1.17,11h0a7.12,7.12,0,0,0-.18,1.63h0a12.51,12.51,0,0,0,4.5,9h0c3.28,2.89,8.66,5.24,17.17,5.25h0l1.71,0h0c3.76-.13,6-.9,7.14-1.76h0a3.76,3.76,0,0,0,1.51-3.3h0c0-2.56-1.62-6.44-3.54-10.2h0c-1.9-3.83-4-7.45-4.63-10.65h0a128.23,128.23,0,0,1-1-12.81h0c-.29-5.84-.52-12.81-.72-19.53h0c-.38-13.42-.57-14.89-.57-19.65a72.48,72.48,0,0,1,.73-9.54s3.08,5.42,3.08,9.54.1.74.32,9.87h0c.21,9.13.53,20.43,1,29.12h0c.28,5.77.63,10.46,1,12.32h0c.34,2,2.32,5.77,4.28,9.61h0c1.94,3.9,3.91,8,3.95,11.92h0a7.57,7.57,0,0,1-3,6.34h0c-2.12,1.57-5.12,2.36-9.29,2.52h0l-1.84,0h0c-9.18,0-15.58-2.59-19.66-6.2Z" style="fill:#231f20"/><path d="M97.6,134.55c41.33,7.58,79-8.91,84.1-36.81,4.14-22.56-15.19-40.56-44.57-50.63-7.91-28-25.8-44.61-52-44.61S37.76,20.18,37.76,42" style="fill:none;stroke:#231f20;stroke-width:5px"/><path d="M183.84,76.51c1.27,7.43-5.23,14.73-14.5,16.32s-17.83-3.16-19.1-10.59,5.22-14.73,14.5-16.32S182.57,69.08,183.84,76.51Z" style="fill:#231f20;stroke:#231f20;stroke-width:4px"/><path d="M79.33,74.22C96,118.29,70.52,131.59,49.4,131.59c-39.08,0-52.73-29-38.25-57C28.61,41,28.27,17.68,49.4,17.68S68.23,44.79,79.33,74.22Z" style="fill:#a97f2c"/><path d="M79.33,74.22C96,118.29,70.52,131.59,49.4,131.59c-39.08,0-52.73-29-38.25-57C28.61,41,28.27,17.68,49.4,17.68S68.23,44.79,79.33,74.22Z" style="fill:none;stroke:#000;stroke-width:5px"/><path d="M176.9,68.43c.71,1.88-3.65,5.28-9.74,7.58s-11.6,2.66-12.32.77,3.65-5.28,9.74-7.58S176.18,66.54,176.9,68.43Z" style="fill:#fff"/><ellipse cx="87.72" cy="44.41" rx="8.91" ry="6.07" style="fill:#231f20;stroke:#231f20;stroke-width:4px"/><path d="M135.27,38.3c0,3.56-2,6.45-6.91,6.45s-8.83-2.89-8.83-6.45,4-6.45,8.83-6.45S135.27,34.73,135.27,38.3Z" style="fill:#231f20"/><path d="M87.13,41.72a2.88,2.88,0,0,1-5.63,0,2.88,2.88,0,0,1,5.63,0Z" style="fill:#fff"/><path d="M127.13,36.68a2.42,2.42,0,1,1-2.39-2.07A2.24,2.24,0,0,1,127.13,36.68Z" style="fill:#fff"/><path d="M123.84,127.67c25.16,7.78,56.47-.09,57.57-31.76,0,0,.61-6.78-1.08-3.52-7.61,14.7-25.37,21.35-53.6,24.92-4,.51-12.47.57-13,4.32C113.45,123.63,116,125.26,123.84,127.67Z" style="fill:#231f20"/><path d="M173.59,106.41c11.55,7.69,8.45,24.86-2.1,27-11.79,2.36-12.21-13.61-22.2-15.52,0,0,10-2.09,15.47-4.93A35.8,35.8,0,0,0,173.59,106.41Z" style="fill:#f26322;stroke:#231f20;stroke-width:5px"/><path d="M166,114.19s8.2,4.49,9,15.84c0,0-2.21-6.81-4-9.22S166,114.19,166,114.19Z" style="fill:#a74624"/><path d="M77.7,89.66s8,39.94-41.08,33.09c0,0,18.26-9.13,25.11-14.83S77.7,89.66,77.7,89.66Z" style="fill:#886327"/><path d="M170.47,204.3a6.91,6.91,0,0,1,3.31.87,6.2,6.2,0,0,1,2.51,2.49,6.84,6.84,0,0,1,.9,3.37,6.72,6.72,0,0,1-.89,3.34,6.34,6.34,0,0,1-2.48,2.5,6.82,6.82,0,0,1-6.7,0,6.3,6.3,0,0,1-2.49-2.5,6.74,6.74,0,0,1,0-6.71,6.29,6.29,0,0,1,2.52-2.49A6.91,6.91,0,0,1,170.47,204.3Zm0,1.11a5.76,5.76,0,0,0-2.76.73,5.32,5.32,0,0,0-2.1,2.08,5.73,5.73,0,0,0-.76,2.81,5.62,5.62,0,0,0,.75,2.79,5.18,5.18,0,0,0,2.08,2.07,5.56,5.56,0,0,0,5.58,0,5.24,5.24,0,0,0,2.08-2.07,5.71,5.71,0,0,0,.74-2.79,5.63,5.63,0,0,0-.76-2.81,5.19,5.19,0,0,0-2.1-2.08A5.75,5.75,0,0,0,170.47,205.41Zm-2.95,9.34v-7.24H170a6.16,6.16,0,0,1,1.84.2,1.8,1.8,0,0,1,.91.7,1.83,1.83,0,0,1,.34,1.06,1.91,1.91,0,0,1-.57,1.38,2.23,2.23,0,0,1-1.5.66,2.06,2.06,0,0,1,.62.39,8.53,8.53,0,0,1,1.07,1.43l.88,1.42h-1.43l-.64-1.14a5.79,5.79,0,0,0-1.22-1.69,1.55,1.55,0,0,0-.94-.25h-.68v3.08Zm1.17-4.08h1.41a2.32,2.32,0,0,0,1.39-.3,1,1,0,0,0,.19-1.38,1.1,1.1,0,0,0-.49-.38,3.82,3.82,0,0,0-1.18-.12h-1.32Z" style="fill:#231f20"/></svg>