<svg xmlns="http://www.w3.org/2000/svg" viewBox="0 0 750 500"><path fill="#ebebeb" d="M53.19 75.47h119.58v214.82H53.19z"/><path fill="#fafafa" d="M57.97 81.7h108.79v202.19H57.97z"/><path fill="#f5f5f5" d="M166.76 84.08L57.97 222.47V81.7h108.79v2.38z"/><path fill="#ebebeb" d="M57.97 139.86h111.15v2.15H57.97zM57.97 188.01h111.15v2.15H57.97zM57.97 236.16h111.15v2.15H57.97z"/><path fill="#ebebeb" d="M109.62 289.61V140.93h5.5v148.68zM78.92 81.7h2.49v59.24h-2.49zM100.4 81.7h2.49v59.24h-2.49zM121.87 81.7h2.49v59.24h-2.49zM143.35 81.7h2.49v59.24h-2.49z"/><path fill="#f5f5f5" d="M48.14 71.82h5.06v219.79h-5.06z"/><path fill="#e0e0e0" d="M177.83 292.22l-5.06-1.93V71.82h5.06v220.4z"/><path fill="#e0e0e0" d="M48.14 69.61h129.7v5.86H48.14zM44.55 292.94h136.71v5.46H44.55z"/><path fill="#ebebeb" d="M172.77 290.29l8.48 2.65H44.55l8.64-2.65h119.58zM687.16 209.38s-8.46-.61-7.68 18.35 2.72 29.06 2.72 29.06-.25 4.21-3.51 3.38-9.38-4.92-12.41-1.86-2 8 2.14 13.77 12.82 18.62 13.6 19.79 1.07 3.3-1.24 3.09-17.88-5.49-19.95 2.05 12.16 21.61 13.68 23.17 1.61 2.56 1 3.51-5.69-1.32-10.18-2.64-9.93-2.07-10.76 2.38 5.44 17.48 28.89 31.17l11.28 5.63 10.68-6.81c22-16 26.88-29.55 25.62-33.9s-6.61-3.06-10.95-1.3-9.15 4.53-9.86 3.65-.73-1.88.63-3.59 14.1-17.12 11.29-24.42-17.77-.48-20-.05-2.19-1.73-1.54-2.95 8-14.93 11.55-21.05 4.19-11.07.75-13.91-9 1.94-12.16 3.09-3.82-3-3.82-3 .91-10.24-.21-29.19-9.72-17.42-9.72-17.42"/><path d="M687.82 226.36a3 3 0 010 .4l.09 1.16c.07 1 .17 2.55.3 4.48.26 3.89.6 9.52 1 16.47.77 13.92 1.68 33.15 2.6 54.39s1.79 40.49 2.48 54.4c.36 6.95.64 12.57.84 16.48.1 1.94.17 3.44.22 4.49v1.16a4 4 0 010 .4v-.4c0-.27 0-.66-.09-1.16-.07-1-.18-2.55-.31-4.48-.26-3.88-.59-9.51-1-16.47-.78-13.92-1.68-33.15-2.61-54.4s-1.78-40.47-2.48-54.39c-.35-6.94-.64-12.57-.83-16.48-.1-1.93-.18-3.44-.23-4.48v-1.17c0-.28.02-.4.02-.4z" fill="#e0e0e0"/><path d="M674.62 264.38a4 4 0 01.7.58c.44.4 1 1 1.79 1.72 1.49 1.48 3.5 3.57 5.66 5.92s4 4.41 5.52 6l1.68 1.82a4 4 0 01.59.69s-.28-.18-.71-.57-1-1-1.78-1.73c-1.48-1.49-3.45-3.61-5.62-6l-5.55-6c-.67-.71-1.23-1.32-1.69-1.82a3.8 3.8 0 01-.59-.61zM691.67 280.78c-.08-.08 4.05-4.4 9.22-9.65s9.44-9.43 9.52-9.34-4 4.4-9.21 9.65-9.44 9.43-9.53 9.34zM691.63 313.47a4.37 4.37 0 01.78-.5l2.21-1.24c1.86-1 4.43-2.5 7.2-4.2s5.24-3.32 7-4.51l2.1-1.41a3.22 3.22 0 01.81-.47 4.8 4.8 0 01-.71.61c-.47.37-1.16.89-2 1.52-1.73 1.25-4.17 2.92-7 4.63s-5.38 3.12-7.28 4.1c-1 .49-1.73.87-2.28 1.12a3.72 3.72 0 01-.83.35zM672.94 302a4.05 4.05 0 01.78.37c.49.26 1.19.65 2 1.13 1.72 1 4.08 2.35 6.67 3.89s4.92 3 6.6 4c.84.53 1.51.95 2 1.26a3.09 3.09 0 01.69.51 3.76 3.76 0 01-.78-.37c-.49-.26-1.19-.65-2-1.13-1.71-1-4.07-2.35-6.66-3.89s-4.92-3-6.6-4c-.84-.52-1.51-.95-2-1.26s-.72-.45-.7-.51zM669.23 330.89a4.4 4.4 0 011 .48l2.63 1.45c2.21 1.23 5.24 3 8.58 4.91s6.35 3.73 8.52 5l2.55 1.57a4.84 4.84 0 01.91.63 6.39 6.39 0 01-1-.48l-2.63-1.45c-2.2-1.24-5.24-3-8.58-4.92s-6.35-3.72-8.51-5l-2.56-1.57a6.77 6.77 0 01-.91-.62zM692.93 344.46a5.31 5.31 0 011-.66l2.74-1.67c2.32-1.41 5.51-3.37 9-5.63s6.55-4.37 8.77-5.92l2.64-1.83a5.2 5.2 0 011-.63 8.27 8.27 0 01-.9.76c-.6.47-1.47 1.14-2.56 1.95-2.18 1.61-5.24 3.78-8.72 6s-6.69 4.18-9 5.52c-1.18.67-2.14 1.2-2.82 1.56a7.51 7.51 0 01-1.15.55zM709.88 363.93h-31.21l10.19 77.1h10.84l10.18-77.1z" fill="#e0e0e0"/><path d="M680.29 373.4s0 .11.17.28a2 2 0 00.75.54 3.78 3.78 0 003.3-.41c1.26-.69 2.36-2.06 4-2.66a8.82 8.82 0 015.73.11 24.16 24.16 0 015.35 2.59 36 36 0 004.34 2.33 12 12 0 003.21.93 5.65 5.65 0 00.91.06h.31a16 16 0 01-4.28-1.29 41.4 41.4 0 01-4.25-2.4 23.68 23.68 0 00-5.43-2.67 9.2 9.2 0 00-6.06-.07 7.94 7.94 0 00-2.28 1.41 17.35 17.35 0 01-1.79 1.38 3.66 3.66 0 01-3 .53 3 3 0 01-.98-.66zM681.43 387.61s.25-.32.74-.83a6.71 6.71 0 012.49-1.58 11.17 11.17 0 014.34-.66 47.35 47.35 0 015.43.74 18.5 18.5 0 005.56.23 15.27 15.27 0 004.38-1.25 13.41 13.41 0 002.63-1.56 3.84 3.84 0 00.83-.75 27.38 27.38 0 01-3.61 2 15.76 15.76 0 01-4.28 1.12 19.5 19.5 0 01-5.43-.27 42.12 42.12 0 00-5.5-.71 11.15 11.15 0 00-4.48.79 6.61 6.61 0 00-2.51 1.78 4.23 4.23 0 00-.47.7.77.77 0 00-.12.25zM706.35 395.21a2.55 2.55 0 00-.86-.45 9.24 9.24 0 00-2.59-.55 16.43 16.43 0 00-3.91.22c-1.45.24-3 .64-4.65 1a20.07 20.07 0 01-4.65.52 10.06 10.06 0 01-3.69-.8 8.55 8.55 0 01-2.8-2.08 2.36 2.36 0 00.53.81 6.51 6.51 0 002.12 1.6 9.92 9.92 0 003.82.94 18.72 18.72 0 004.77-.5c1.66-.35 3.21-.76 4.63-1a17.92 17.92 0 013.81-.32 14.06 14.06 0 013.47.61zM684.19 405.9a5 5 0 013-.3 14.46 14.46 0 013.17 1.18 11.85 11.85 0 004.12 1.13 12.25 12.25 0 007.46-1.73 10.54 10.54 0 001.86-1.43c.38-.4.57-.63.55-.66a26.35 26.35 0 01-2.59 1.78 12.69 12.69 0 01-7.24 1.53c-2.95-.16-5.22-1.93-7.27-2.16a4.63 4.63 0 00-2.35.2c-.5.21-.73.44-.71.46zM685.93 420.7a6 6 0 002.6-.52c1.57-.52 3.51-1.72 5.78-2.62a9.42 9.42 0 013.31-.7 6.19 6.19 0 012.67.61 5.89 5.89 0 011.93 1.66 1.41 1.41 0 00-.3-.65 4.19 4.19 0 00-1.46-1.33 6.3 6.3 0 00-2.83-.76 9.31 9.31 0 00-3.5.69c-2.35.94-4.23 2.18-5.73 2.77s-2.48.77-2.47.85zM687.46 427.59a7.47 7.47 0 002 .64 35.38 35.38 0 004.94.83 36.11 36.11 0 005 .15 6.87 6.87 0 002.06-.25c0-.15-3.16 0-7-.41s-6.96-1.11-7-.96z" fill="#f5f5f5"/><path fill="#e0e0e0" d="M595.81 84.3h96.36v63.36h-96.36z"/><path fill="#fafafa" d="M599.16 86.89h89.61v57.93h-89.61z"/><path fill="#e0e0e0" d="M629.35 108.01h29.23v15.94h-29.23z"/><g><path d="M719.25 442.05c0 .15-154.14.26-344.23.26s-344.27-.11-344.27-.26 154.11-.26 344.27-.26 344.23.12 344.23.26z" fill="#263238"/></g><g><path d="M290.1 38.25h206.35v196.53A16.22 16.22 0 01480.23 251H290.1V38.25z" fill="#ebebeb"/><path d="M479.41 101.57c0 .43-37.29.78-83.29.78s-83.31-.35-83.31-.78 37.29-.78 83.31-.78 83.29.35 83.29.78zM397.1 116c0 .43-18.42.78-41.15.78s-41.16-.35-41.16-.78 18.43-.78 41.16-.78 41.15.33 41.15.78zM430 114.65c0 .43-4.88.78-10.9.78s-10.9-.35-10.9-.78 4.88-.78 10.9-.78 10.9.35 10.9.78zM483.86 113.76c0 .43-9.66.78-21.58.78s-21.58-.35-21.58-.78 9.66-.78 21.58-.78 21.58.35 21.58.78zM390.23 129.77c0 .44-17.33.79-38.71.79s-38.71-.35-38.71-.79 17.33-.78 38.71-.78 38.71.35 38.71.78zM483.86 129.38c0 .43-18.92.78-42.26.78s-42.27-.35-42.27-.78 18.92-.78 42.27-.78 42.26.34 42.26.78zM483.86 143.26c0 .43-8.42.78-18.82.78s-18.82-.35-18.82-.78 8.43-.79 18.82-.79 18.82.35 18.82.79z" fill="#455a64"/><path d="M406 86.12c0 .43-20.42.78-45.6.78s-45.61-.35-45.61-.78 20.42-.78 45.61-.78 45.6.35 45.6.78z" fill="#f26322"/><rect x="118.77" y="157.42" width="428.67" height="283.47" rx="14.57" fill="#263238"/><path d="M101.44 419.92h464.42v7a17.8 17.8 0 01-17.8 17.8H119.24a17.8 17.8 0 01-17.8-17.8v-7z" fill="#263238"/><path fill="#455a64" d="M130.87 168.68h404.45v239.39H130.87zM291.44 419.92h7.09l19.59-.08 65.53-.14h.48l-.24.42-2.6 4.46-2.75 4.71-.08.14h-.16l-81.1-.15h-.07v-.06l-4.25-6.91-1.07-1.75-.34-.58s.15.21.4.61l1.14 1.75c1 1.55 2.44 3.81 4.33 6.74l-.11-.06 81.1-.15-.24.14 2.75-4.71 2.6-4.46.24.42-65.26-.14-19.72-.12H291.93z"/><path d="M547.43 419.92c0 .15-96 .26-214.32.26s-214.34-.11-214.34-.26 95.94-.26 214.34-.26 214.32.12 214.32.26z" fill="#455a64"/><path d="M438 120.87a12 12 0 0112 12v24.57h-35.8v-22.69a13.87 13.87 0 0113.88-13.88z" fill="#263238"/><path d="M438 120.87c0 .15-33.78.23-75.45.2s-75.45-.19-75.45-.33 33.77-.23 75.45-.2 75.45.19 75.45.33z" fill="#263238"/><path d="M437.72 120.84l-14.94-.1-21.69.13H241.75a24.5 24.5 0 00-24.5 24.5v263.27h206.36V134.3c.61-13.43 14.11-13.46 14.11-13.46z" fill="#fafafa"/><path d="M437.72 120.84l-124.43.27H243.3c-1.3 0-2.58 0-3.86.11a25.5 25.5 0 00-3.77.69 24.06 24.06 0 00-16.5 14.8c-.2.61-.48 1.19-.62 1.81l-.47 1.86a25.88 25.88 0 00-.45 3.81c-.11 5.15 0 10.36 0 15.54l.17 248.85-.5-.5 206.36.14-.36.36.1-148 .12-74 .07-37V135.7a14.88 14.88 0 01.09-2.31 12.6 12.6 0 01.37-2.28 12.23 12.23 0 015-7.53 14.49 14.49 0 014.15-2 17.58 17.58 0 014.52-.74zm0 0a17.46 17.46 0 00-4.54.81 14.47 14.47 0 00-4.14 2 12.13 12.13 0 00-4.94 7.52 12.34 12.34 0 00-.36 2.27 16.17 16.17 0 00-.08 2.31v13.87l.08 37 .12 74 .09 148v.38h-.37l-206.36.13h-.49v-.5l.16-248.85c0-5.19 0-10.36.07-15.57a27.08 27.08 0 01.46-3.91l.5-1.9c.14-.64.43-1.24.63-1.86a24.68 24.68 0 0116.94-15.16 26.6 26.6 0 013.87-.7c1.31-.07 2.62-.14 3.91-.11h69.99z" fill="#263238"/><path d="M248.34 168.24h36l.06 12.06h-1.73q-.84-6.47-4.84-8.76a15 15 0 00-6.72-1.37v31.5c0 2.21.38 3.67 1.15 4.39s2.37 1.08 4.81 1.08v1.52h-21.31v-1.52c2.33 0 3.89-.37 4.65-1.1s1.16-2.18 1.16-4.37v-31.5a15.37 15.37 0 00-6.72 1.37c-2.86 1.57-4.48 4.48-4.85 8.76h-1.72zM395.29 171c0 .43-19.86.78-44.36.78s-44.36-.35-44.36-.78 19.86-.78 44.36-.78 44.36.31 44.36.78z" fill="#f26322"/><path d="M342.65 185.14c0 .43-7.68.78-17.15.78s-17.15-.35-17.15-.78 7.68-.79 17.15-.79 17.15.35 17.15.79zM299.41 228.38c0 .43-14.58.78-32.57.78s-32.58-.35-32.58-.78 14.58-.78 32.58-.78 32.57.4 32.57.78z" fill="#455a64"/><path d="M373.19 228.38c0 .43-14.59.78-32.57.78s-32.58-.35-32.58-.78 14.58-.78 32.58-.78 32.57.4 32.57.78z" fill="#f26322"/><path d="M299.41 239.93c0 .43-14.58.78-32.57.78s-32.58-.35-32.58-.78 14.58-.78 32.58-.78 32.57.35 32.57.78z" fill="#455a64"/><path d="M299.41 251.48c0 .43-14.58.78-32.57.78s-32.58-.35-32.58-.78 14.58-.79 32.58-.79 32.57.31 32.57.79z" fill="#f26322"/><path d="M342.65 208.66c0 .43-7.68.78-17.15.78s-17.15-.35-17.15-.78 7.68-.78 17.15-.78 17.15.35 17.15.78zM402.15 228.38c0 .43-5.12.78-11.43.78s-11.44-.35-11.44-.78 5.12-.78 11.44-.78 11.43.4 11.43.78zM408.27 185.14c0 .43-13.18.78-29.43.78s-29.43-.35-29.43-.78 13.17-.79 29.43-.79 29.43.35 29.43.79zM405.61 196.4c0 .43-21.77.78-48.63.78s-48.63-.35-48.63-.78 21.77-.78 48.63-.78 48.63.38 48.63.78zM402.15 239.93c0 .43-21.07.78-47 .78s-47.06-.35-47.06-.78 21.06-.78 47.06-.78 47 .35 47 .78z" fill="#455a64"/><path d="M402.15 273.36c0 .43-19.77.78-44.15.78s-44.16-.35-44.16-.78 19.77-.78 44.16-.78 44.15.35 44.15.78z" fill="#f26322"/><path d="M402.15 284.6c0 .43-19.77.78-44.15.78s-44.16-.35-44.16-.78 19.77-.78 44.16-.78 44.15.35 44.15.78zM402.15 295.84c0 .43-19.77.78-44.15.78s-44.16-.35-44.16-.78 19.77-.78 44.16-.78 44.15.35 44.15.78zM402.15 307.08c0 .43-19.77.78-44.15.78s-44.16-.35-44.16-.78 19.77-.78 44.16-.78 44.15.35 44.15.78zM364.68 318.32c0 .21-2.85.41-7.45.55s-11 .23-18 .23-13.38-.09-18-.23-7.44-.34-7.44-.55 2.84-.41 7.44-.55 11-.23 18-.23 13.37.09 18 .23 7.45.33 7.45.55zM386.15 252.08c0 .43-17 .78-38 .78s-38-.35-38-.78 17-.78 38-.78 38 .35 38 .78z" fill="#455a64"/><path fill="#e0e0e0" d="M297.87 274.63l4.69 86.76-84.83 10.62-.07-98.12 80.21.74z"/><path fill="#f5f5f5" d="M187.441 360.657l.595-92.038 115.117.743-.594 92.038z"/><path fill="#f26322" d="M191.448 354.893l.52-80.448 107.028.69-.52 80.449z"/><path d="M191.44 354.88l37.71-49.76 22.95 31.43 15.82-16.62 30.56 35.64-107.04-.69zM262.17 299.2a8.43 8.43 0 11-8.37-8.48 8.42 8.42 0 018.37 8.48z" opacity=".2"/><path d="M313.64 383.1a1.78 1.78 0 11-1.78-1.78 1.77 1.77 0 011.78 1.78zM324.21 383.1a1.78 1.78 0 11-1.78-1.78 1.78 1.78 0 011.78 1.78zM334.77 383.1a1.78 1.78 0 11-1.78-1.78 1.78 1.78 0 011.78 1.78z" fill="#263238"/><path d="M373.69 341.74c0 .43-14.59.78-32.58.78s-32.58-.35-32.58-.78 14.59-.78 32.58-.78 32.58.35 32.58.78z" fill="#f26322"/><path d="M402.65 353.29c0 .43-21.07.78-47.06.78s-47.06-.35-47.06-.78 21.07-.78 47.06-.78 47.06.35 47.06.78z" fill="#455a64"/></g><g><path fill="#f5f5f5" d="M611.555 429.268l.554-55.44 69.34.693-.554 55.44z"/><path fill="#f26322" d="M611.765 424.51l.313-48.458 64.47.416-.314 48.46z"/><path opacity=".2" d="M611.75 424.49l22.71-29.97 13.83 18.93 9.53-10.01 18.4 21.47-64.47-.42zM654.36 391a5.08 5.08 0 11-5.05-5.1 5.08 5.08 0 015.05 5.1z"/><path fill="#f5f5f5" d="M599.188 422.187l.358-55.438 69.338.447-.358 55.44z"/><path fill="#f26322" d="M601.61 418.713l.313-48.459 64.469.417-.313 48.459z"/><path opacity=".2" d="M601.58 418.7l22.71-29.97 13.83 18.93 9.53-10.01 18.4 21.47-64.47-.42zM644.19 385.17a5.08 5.08 0 11-5-5.11 5.08 5.08 0 015 5.11z"/><path fill="#f5f5f5" d="M590.14 417.416l.357-55.438 69.339.447-.358 55.44z"/><path fill="#f26322" d="M592.552 413.932l.313-48.459 64.468.417-.313 48.459z"/><path opacity=".2" d="M592.53 413.92l22.71-29.98 13.83 18.94 9.52-10.02L657 414.33l-64.47-.41zM635.13 380.38a5.08 5.08 0 11-5-5.11 5.08 5.08 0 015 5.11z"/><path fill="#f5f5f5" d="M582.05 424.622l.555-55.44 69.34.693-.554 55.44z"/><path fill="#455a64" d="M582.386 419.89l.313-48.459 64.468.417-.313 48.459z"/><path opacity=".2" d="M582.36 419.88l22.71-29.98 13.83 18.93 9.52-10.01 18.41 21.47-64.47-.41zM625 386.34a5.08 5.08 0 11-5-5.11 5.06 5.06 0 015 5.11z"/><path fill="#263238" d="M649.64 388.53h40.03v53.53h-40.03z"/><path d="M573 388.53v53.52h80v-53.52zm48.55 12.66h-17a3.68 3.68 0 010-7.36h17a3.68 3.68 0 110 7.36z" fill="#f26322"/></g><g><path d="M521.05 436.46l-74.45-4.56c-.47-1.07-.78-1.69-.78-1.69l-20.18.41-6.57-.41-.26.54-67.74 1.35c-13.51 0-27.71 8.24-27.71 18.77-.17 10 4.69 20.9 16.79 20.65l92.29-.31 92.3.31c12.1.25 15.3-7 15.32-15.71 1.41-16.12-8.69-19.22-19.01-19.35z" fill="#455a64"/><path d="M348.62 471.53h1.75l5-.05 18.58-.08 62-.08-.26.27c-.13-2-.26-4.19-.4-6.37-.28-4.46-.55-8.86-.81-13l.23.24-57.1-6.46-16.92-1.93-4.56-.55-1.18-.15a2.13 2.13 0 01-.39-.07h.4l1.18.11 4.57.45 16.94 1.78 57.11 6.18h.21v.21c.27 4.18.54 8.57.82 13 .14 2.18.27 4.35.4 6.37v.28h-.27l-62-.09-18.58-.08H349.03z" fill="#263238"/><path d="M367.65 445.05c-.06.07-1-.68-2.61-1.67a28.59 28.59 0 00-6.78-3 28.28 28.28 0 00-7.33-1.08c-1.9 0-3.08.12-3.09 0a2.75 2.75 0 01.82-.19 17.43 17.43 0 012.27-.2 24.49 24.49 0 0114.31 4.11 17.37 17.37 0 011.82 1.38c.4.41.61.6.59.65zM515.27 441.09c0 .14-14.65 3.69-32.79 7.93s-32.89 7.56-32.92 7.42 14.65-3.69 32.8-7.93 32.88-7.51 32.91-7.42z" fill="#263238"/><path d="M502.86 439.65a30.25 30.25 0 00-5.76 2.76 28.58 28.58 0 00-4.67 4.34 4.89 4.89 0 011-1.63A15.31 15.31 0 01501 440a5.32 5.32 0 011.86-.35z" fill="#263238"/><path d="M475.14 355.12l23.59 41.06a17.43 17.43 0 01.47 16.49 17.45 17.45 0 01-16.09 9.63l-36.22-1-.95-13.17 31.89-6.13-21.5-37.22zM387.24 425.38l33.3 8.82.73-10-30.69-17.82 22.42-41.6-18.81-9.66-23.59 41.06a19.22 19.22 0 0011.1 27.43z" fill="#ffbe9d"/><path d="M465.13 381.48l22.76-12a115.94 115.94 0 00-9.75-16.26c-7.05-9.75-18-16.56-30.4-19.16l-26.18.31a34.8 34.8 0 00-9.34 2.15v-.1c-14.21 3.13-30 34.12-30 34.12L403 381.45l.46 3.26a22 22 0 005.4 11.61l-6 39.67 67.14 1.39-8.53-28.38z" fill="#f26322"/><path d="M409.45 396.54a4.71 4.71 0 01-1-.76 14.4 14.4 0 01-2.29-2.56 16.59 16.59 0 01-2.81-10.81 35.82 35.82 0 011.54-6c.6-1.81 1.22-3.41 1.75-4.75s1-2.41 1.32-3.14a5 5 0 01.58-1.11 6.57 6.57 0 01-.39 1.19c-.31.85-.7 1.92-1.17 3.19s-1.06 3-1.63 4.77a36.58 36.58 0 00-1.48 5.94 17.09 17.09 0 00.57 6 16.16 16.16 0 002 4.53 27.71 27.71 0 003.01 3.51zM399.37 445.57l-3.8-44.25h81.89l-5.43 44.8-72.66-.55z" fill="#263238"/><path d="M441.73 424.92a5.22 5.22 0 11-5.21-5.21 5.21 5.21 0 015.21 5.21z" fill="#fafafa"/><path fill="#ffbe9d" d="M435.08 454.21l13.91 1.94v15.12l-12.79-.33-1.12-16.73z"/><path d="M449 456.15h6.25a6.9 6.9 0 013.46.93L462 459a51.42 51.42 0 005.76 2.74c3.8 1.22 10.19 2.87 11.54 3.91 3.84 3 2.67 6.47.56 6.83-1.85.33-30.87-1.2-30.87-1.2z" fill="#f26322"/><path d="M459.25 470a10 10 0 01-.67-3.93 9.73 9.73 0 01.44-4 35 35 0 01.08 3.94 33.81 33.81 0 01.15 3.99zM462.22 469.93a25.13 25.13 0 01.06-7.21 13.21 13.21 0 01.23 3.61 13 13 0 01-.29 3.6zM465.72 470.53a26.79 26.79 0 01-.58-7.43 13.57 13.57 0 01.55 3.69 13.73 13.73 0 01.03 3.74zM456.55 466a3.94 3.94 0 01-1.28-.4 11.88 11.88 0 01-3.13-1.93c-.29-.25-.59-.53-.89-.84a3.53 3.53 0 01-.8-1.12 1.58 1.58 0 01.18-1.56 1.17 1.17 0 01.77-.42 2 2 0 01.85.09 6.23 6.23 0 011.31 11.07 4 4 0 01-1.44.65 1.72 1.72 0 01-.81 0 1.06 1.06 0 01-.63-.56 1.56 1.56 0 01.18-1.44 4.53 4.53 0 01.8-1 9.66 9.66 0 013.08-2 3.79 3.79 0 011.29-.36s-.44.18-1.21.55a10.3 10.3 0 00-2.9 2.09 3.92 3.92 0 00-.71.9 1.22 1.22 0 00-.15 1.05.83.83 0 001 .34 3.64 3.64 0 001.25-.59 5.78 5.78 0 00-1.19-10.22 1 1 0 00-1.12.16 1.13 1.13 0 00-.12 1.11 6 6 0 001.53 1.84 16.32 16.32 0 004.14 2.59zM479.86 472.47a3.2 3.2 0 00.76-1 3.53 3.53 0 00-.41-3.15 7 7 0 00-3.86-2.91c-1.77-.64-3.87-.94-6-1.61a42 42 0 01-10.33-4.7 31.29 31.29 0 01-2.81-2 5.34 5.34 0 01-.95-.84 6.64 6.64 0 011.07.67c.67.45 1.64 1.1 2.89 1.84a46.57 46.57 0 0010.28 4.52c2.09.65 4.18 1 6 1.65a7.27 7.27 0 014 3.19 3.7 3.7 0 01.26 3.42 2.17 2.17 0 01-.64.71c-.12.18-.25.23-.26.21z" fill="#263238"/><path d="M470.39 344.93a.65.65 0 010 .22v.62c-.05.58-.13 1.39-.22 2.42-.22 2.15-.53 5.22-.91 9.08v.23l-.21-.11-12.14-6.39.29-.08-6.56 11.08-.14.23-.22-.16-11-8.47h.32l-4.81 3.77-6.56 5.13-.24.19-.14-.27-6.25-11.55.31.1-13.24 5.9-.25.11v-.26l-2-11.78.2.12L399 348l-2 .74-.52.19-.18.05s.05 0 .16-.09l.51-.22 2-.82 7.53-3 .17-.06v.18c.59 3.28 1.29 7.23 2.1 11.76l-.28-.15 13.21-6 .21-.09.11.19c2 3.66 4.08 7.52 6.27 11.55l-.39-.08 6.56-5.14 4.81-3.77.16-.12.16.12 11 8.49-.36.07 6.61-11 .1-.17.18.09 12 6.46-.23.12 1.06-9.06c.13-1 .23-1.83.3-2.41 0-.25.07-.45.09-.62a1.76 1.76 0 01.05-.28z" fill="#f5f5f5"/><path d="M480.11 356.07a1.28 1.28 0 01-.05.29c-.06.22-.13.5-.21.85-.21.77-.49 1.87-.86 3.27-.77 2.88-1.89 7-3.27 12.17l-.06.2-.18-.09-14.11-6.76.28-.08c-3.61 5.14-7.61 10.85-11.88 16.95l-.18.25-.21-.22L438 371.32l-2.4-2.43h.32l-15.38 9.65-.22.14-.13-.22-8.3-14.66.26.1-15.82 5.45-.15.05-.05-.15c-1.5-4.34-2.69-7.79-3.51-10.18-.39-1.16-.7-2.07-.91-2.71-.1-.29-.17-.52-.23-.7a.78.78 0 01-.06-.24.88.88 0 01.1.23l.27.68c.23.64.56 1.53 1 2.68.85 2.38 2.09 5.81 3.65 10.14l-.2-.1 15.76-5.53.17-.06.09.16 8.35 14.62-.35-.09 15.38-9.67.17-.11.15.15q1.19 1.22 2.4 2.43l11.41 11.59h-.39l11.94-16.91.1-.15.17.08 14.06 6.86-.23.11 3.42-12.13.94-3.25c.11-.34.19-.62.26-.83a1.08 1.08 0 01.07-.25z" fill="#f5f5f5"/><path d="M470 286.31a14.7 14.7 0 01-11.18-3.53c3.64 1.84 8.49-.69 9.78-4.56s.23-11.08-2.95-13.64a12.65 12.65 0 00-11-2.36c-3.75 1-7.72 6.71-8.95 10.39l.07.11c-.57-.23-1.16-.44-1.74-.64a30 30 0 00-12.95-1.57 21.08 21.08 0 00-11.83 5.21l25.43 40.87c4.62-.4 8.71-3.52 11.13-7.47s3.35-8.66 3.58-13.29c.06-1.17.05-2.34 0-3.51l8.17 1.31a18.29 18.29 0 00-5.43-4.86 6.84 6.84 0 007.87-2.46z" fill="#263238"/><path d="M437.88 349.74a12.79 12.79 0 0012.52-12.64l.59-50.85a4 4 0 00-3.62-4.1l-21.48-5.43c-6.89-.72-11.45 7.74-11.89 14.64-.48 7.67-.77 17.05.14 22.78 1.83 11.5 10.65 13 10.65 13v9.9a12.79 12.79 0 0013.06 12.73z" fill="#ffbe9d"/><path d="M418.46 298.81a1.48 1.48 0 001.43 1.49 1.41 1.41 0 001.52-1.33 1.47 1.47 0 00-1.42-1.49 1.42 1.42 0 00-1.53 1.33zM416 296.24c.18.2 1.3-.63 2.89-.63s2.75.8 2.92.61-.1-.44-.61-.81a4.14 4.14 0 00-2.34-.72 3.87 3.87 0 00-2.3.75c-.45.37-.56.72-.56.8zM433.57 298.81a1.47 1.47 0 001.43 1.49 1.42 1.42 0 001.53-1.33 1.48 1.48 0 00-1.43-1.49 1.41 1.41 0 00-1.53 1.33zM431.65 296.54c.18.19 1.3-.63 2.89-.63s2.75.8 2.92.6-.1-.43-.61-.8a4.06 4.06 0 00-2.34-.72 3.87 3.87 0 00-2.3.74c-.49.38-.65.72-.56.81zM425.88 308.32a10.66 10.66 0 00-2.58-.47c-.4 0-.78-.12-.85-.4a2 2 0 01.27-1.2l1.2-3.09c1.66-4.39 2.87-8 2.69-8.07s-1.67 3.44-3.34 7.84l-1.15 3.1a2.41 2.41 0 00-.21 1.59 1 1 0 00.67.6 2.62 2.62 0 00.69.09 10.31 10.31 0 002.61.01z" fill="#263238"/><path d="M424.79 327.11A29.27 29.27 0 00440.2 323s-3.74 7.9-15.26 6.82zM426.56 312.14a2.86 2.86 0 012.56-1.06 2.61 2.61 0 011.8 1 1.65 1.65 0 01.13 1.89 1.93 1.93 0 01-2.08.53 6.19 6.19 0 01-2-1.21 1.67 1.67 0 01-.45-.47.53.53 0 010-.59" fill="#eb996e"/><path d="M430.56 309.41c-.26 0-.26 1.71-1.74 2.94s-3.31 1-3.32 1.27.41.34 1.18.36a4.35 4.35 0 002.78-1 3.73 3.73 0 001.34-2.46c.07-.69-.13-1.11-.24-1.11zM430.93 293.76c.16.43 1.74.23 3.61.45s3.37.73 3.61.35c.11-.19-.15-.59-.75-1a6.34 6.34 0 00-5.51-.61c-.68.27-1.03.61-.96.81zM416.26 293.31c.28.36 1.37 0 2.69 0s2.43.25 2.68-.13c.12-.19-.06-.55-.55-.89a3.69 3.69 0 00-2.18-.59 3.73 3.73 0 00-2.15.73c-.46.34-.61.71-.49.88z" fill="#263238"/><path d="M449.71 300.55a2.9 2.9 0 013 .15 5.34 5.34 0 01-3.36 9.91" fill="#ffbe9d"/><path d="M450.52 307.18c0-.08.44.09 1-.16a2 2 0 001-2 2 2 0 00-1.23-1.84c-.58-.24-1-.12-1-.21s.39-.36 1.15-.19a2.07 2.07 0 011.12.7 2.56 2.56 0 01.57 1.51 2.28 2.28 0 01-1.44 2.4c-.81.23-1.23-.17-1.17-.21z" fill="#eb996e"/><path d="M453.66 309.51s.2.11.53.37l1.41 1.12 5 4.22.17.14-.14.17c-1.85 2.22-3.91 5-6.22 7.9-.53.66-1.05 1.3-1.56 1.9l-.43.5v-.66c-.2-4.68-.37-8.83-.46-11.81 0-1.41-.06-2.59-.08-3.5a7 7 0 010-1.28 5.81 5.81 0 01.16 1.27c.06.91.14 2.08.24 3.5.18 3 .4 7.11.63 11.8l-.45-.16 1.54-1.88c2.31-2.9 4.39-5.66 6.29-7.87v.31l-4.85-4.36-1.34-1.19a3 3 0 01-.44-.49z" fill="#455a64"/><path d="M430.39 271.69a42.19 42.19 0 00-8.39.92 14 14 0 00-7.25 4.08 8.52 8.52 0 00-2 7.85 6.17 6.17 0 006.37 4.44c2.12-.28 4.15-1.85 6.2-1.23s3 2.95 5 3.32 3.71-1.4 5.69-1.58c2.2-.19 4.1 1.61 5.08 3.59s1.35 4.2 2.33 6.17a5 5 0 003 2.82 4.08 4.08 0 003.59-1 8.41 8.41 0 002.1-3.22 17.88 17.88 0 00-14.52-24.5" fill="#263238"/><path d="M458.43 283.91c-.09 0-.36-.93-1.06-2.34a16.7 16.7 0 00-8.91-8c-1.47-.56-2.44-.73-2.43-.82s.26 0 .7 0a10.56 10.56 0 011.86.43 15.12 15.12 0 015.42 3.16 15 15 0 013.69 5.08 9.91 9.91 0 01.62 1.8 2.09 2.09 0 01.11.69z" fill="#f26322"/><path d="M467.23 267.06a17.4 17.4 0 00-2.77-.86 11 11 0 00-6.75 1 14.82 14.82 0 00-5.21 4.54c-1.07 1.45-1.57 2.46-1.65 2.42a2.25 2.25 0 01.28-.75 14.48 14.48 0 011.06-1.88 13.94 13.94 0 015.29-4.79 10.62 10.62 0 017-.91 7.59 7.59 0 012.05.76c.47.26.72.41.7.47zM456.17 280.57a7.34 7.34 0 010 2.37 19.18 19.18 0 01-1.44 5.53 18.92 18.92 0 01-3 4.85 7.07 7.07 0 01-1.73 1.61 30.1 30.1 0 004.29-6.66 30.83 30.83 0 001.88-7.7z" fill="#455a64"/><path d="M456.5 280.82a2 2 0 01.28.66 10.55 10.55 0 01.45 1.89 16.25 16.25 0 01-3.08 12.21 10.84 10.84 0 01-1.3 1.45c-.34.32-.53.48-.56.45s.65-.78 1.56-2.12a18.32 18.32 0 002.57-5.7 18.55 18.55 0 00.45-6.24c-.17-1.6-.46-2.58-.37-2.6z" fill="#455a64"/></g><g><path d="M486.76 283.44a4.71 4.71 0 102.15-.16M500.28 263.79a5.41 5.41 0 102.47-.18" fill="#ebebeb"/><path d="M529.15 177.19c-9-.76-18.19 1.26-24.4 7.88a30.67 30.67 0 00-7.8 25.14c-9.62 4-14.86 16.24-11.13 26s15.83 15.3 25.65 11.83a34.8 34.8 0 0059.17 9.42c9.43 2.13 20 2 28-3.56s11.52-17.74 5.48-25.3c10.87-2.65 16.39-16.22 13.17-26.94s-12.88-18.4-23.18-22.75c-6.81-2.88-15.31-4.38-21.12.19a26.91 26.91 0 00-43.79-1.87" fill="#f5f5f5"/><path d="M529.15 177.19s.18-.24.55-.7a24.28 24.28 0 011.75-1.93 27.18 27.18 0 018.36-5.61 27.72 27.72 0 017.06-2 26 26 0 018.75.27A27.57 27.57 0 01565 171a27.23 27.23 0 018.11 8h-.26a14.61 14.61 0 018.56-2.94 27.78 27.78 0 019.64 1.54 50.59 50.59 0 019.45 4.33 44.44 44.44 0 018.75 6.61 32.83 32.83 0 016.77 9.3 28 28 0 011.92 5.66 23.71 23.71 0 01.41 6.08 24.08 24.08 0 01-3.91 11.79A18.85 18.85 0 01610 226a17.35 17.35 0 01-5.89 2.82l.13-.39a14.22 14.22 0 012.69 5.7 17.31 17.31 0 01.16 6.42 21.14 21.14 0 01-6 11.53 24.35 24.35 0 01-11.9 6.08 40.16 40.16 0 01-13.71.41c-1.67-.21-3.32-.54-4.94-.88l.26-.09a34.81 34.81 0 01-49.65 4.23 35.32 35.32 0 01-9.94-13.72l.3.13a20.91 20.91 0 01-16.78-1.75A19.68 19.68 0 01485 234a21.09 21.09 0 012-14.67 20.37 20.37 0 019.9-9.3l-.1.19a30.63 30.63 0 01.62-11.88 30.42 30.42 0 017.3-13.42 24.31 24.31 0 013.35-2.91 24.64 24.64 0 016.89-3.47 35.53 35.53 0 0114.21-1.37h-.94c-.62 0-1.54-.07-2.76-.07a34.14 34.14 0 00-10.47 1.65 24.49 24.49 0 00-6.82 3.48 23.72 23.72 0 00-3.3 2.89 30.23 30.23 0 00-2.94 3.73 31.17 31.17 0 00-4.24 9.59 30.58 30.58 0 00-.58 11.75v.13l-.13.06a20.08 20.08 0 00-9.69 9.15 20.73 20.73 0 00-2 14.39 19.24 19.24 0 009.7 12.15 20.48 20.48 0 0016.41 1.7l.21-.07.09.21a35.33 35.33 0 0025.45 21.18 35.23 35.23 0 0033.29-11.84l.1-.12h.15c1.61.34 3.24.67 4.9.87a39.78 39.78 0 0013.52-.4 23.78 23.78 0 0011.66-5.94 20.56 20.56 0 005.83-11.24 15 15 0 00-2.73-11.73l-.24-.3.38-.1a17.17 17.17 0 005.72-2.73A18.57 18.57 0 00614 221a23.53 23.53 0 003.84-11.55 22.79 22.79 0 00-.39-6 27.08 27.08 0 00-1.88-5.55 32.39 32.39 0 00-6.66-9.19 43.76 43.76 0 00-8.66-6.55 50 50 0 00-9.35-4.32 27.59 27.59 0 00-9.5-1.54 14.24 14.24 0 00-8.36 2.84l-.15.12-.11-.16a27.25 27.25 0 00-17.23-11.67 25.83 25.83 0 00-8.66-.31 28 28 0 00-15.38 7.45c-.81.8-1.41 1.44-1.78 1.89s-.58.73-.58.73z" fill="#263238"/><path d="M591 208.36c0 .43-17.74.78-39.61.78s-39.6-.35-39.6-.78 17.73-.78 39.6-.78 39.61.35 39.61.78zM591 217c0 .43-17.74.78-39.61.78s-39.6-.35-39.6-.78 17.73-.79 39.6-.79 39.61.31 39.61.79zM591 225.55c0 .43-17.74.78-39.61.78s-39.6-.35-39.6-.78 17.73-.78 39.6-.78 39.61.35 39.61.78zM591 234.14c0 .43-17.74.78-39.61.78s-39.6-.35-39.6-.78 17.73-.78 39.6-.78 39.61.35 39.61.78z" fill="#455a64"/></g></svg>