<svg xmlns="http://www.w3.org/2000/svg" viewBox="0 0 429.09 356.25">
  <path d="M62.84 323.41c83.79 43.77 219.63 43.78 303.42 0s83.78-114.74 0-158.51-219.63-43.77-303.42 0-83.78 114.75 0 158.51z" fill="#f0f0f0"/>
  <path d="M384.05 237.7s1.05-5.28 9.57-9.36c8.29-4 13.07-3.07 18.76-5.36s1.6-13.05-14-8.27c-14.29 4.38-15.74 16.75-15.74 16.75z" fill="#f26322"/>
  <path d="M384.05 237.7s1.05-5.28 9.57-9.36c8.29-4 13.07-3.07 18.76-5.36s1.6-13.05-14-8.27c-14.29 4.38-15.74 16.75-15.74 16.75z" opacity=".2"/>
  <path d="M382.55 235.72a.51.51 0 01-.17 0 .55.55 0 01-.34-.7c2-5.72 7-11 13.52-14.22 8.36-4.09 14.31-2.79 14.56-2.73a.543.543 0 11-.24 1.06c-.06 0-5.85-1.26-13.84 2.65-6.25 3.06-11.1 8.14-13 13.6a.56.56 0 01-.49.34z" fill="#fafafa"/>
  <path d="M382.82 231.12s1-3 4.85-8.87c6.64-10.18 17.47-14.63 22.21-20.45 5.1-6.28-3.72-10.16-11.65-8-4.54 1.26-8.68 5.4-10.85 8.19a37.36 37.36 0 00-7.55 21z" fill="#f26322"/>
  <path d="M381.33 231.36a.55.55 0 01-.53-.56 46.17 46.17 0 015.51-18.85c6-10.77 14.9-14.6 15.28-14.76a.55.55 0 01.42 1 34.18 34.18 0 00-14.75 14.28 44.93 44.93 0 00-5.37 18.35.55.55 0 01-.56.54z" fill="#fafafa"/>
  <path d="M90.55 240.12c-7.19-4.83-7.51-17.83-6.47-26 1.65-13-5-16-8.39-10.26-1.64 2.79-3.7 8.85-3.47 15.91.37 11.06 5.16 24.29 16.76 29.09z" fill="#f26322"/>
  <path d="M90.55 240.12c-7.19-4.83-7.51-17.83-6.47-26 1.65-13-5-16-8.39-10.26-1.64 2.79-3.7 8.85-3.47 15.91.37 11.06 5.16 24.29 16.76 29.09z" opacity=".2"/>
  <path d="M89.07 248.12a.49.49 0 01-.32-.12c-12.17-10.41-14.08-29-10.7-41.89a.515.515 0 111 .25c-3.3 12.59-1.47 30.75 10.38 40.88a.49.49 0 01.05.7.48.48 0 01-.41.18z" fill="#fafafa"/>
  <path d="M101.36 264.12c-6.26 4.5-20.65 8.39-25.33.68-4.35-7.17-1.44-10.3-10.27-9.06s-10.86-5.62-8.77-11.42-6.61-14.19-.26-20.73 10 7.06 13.68 8.53 5.93-1.7 10.17.61 4.65 11.76 8.78 11.94c6.76.31 18.14.26 19 6.29s-7 13.16-7 13.16z" fill="#f26322"/>
  <path d="M103.95 261.48h-.05c-32.75-3.42-45.42-32-46.2-36.16a.508.508 0 111-.18c.76 4.09 13.17 32 45.32 35.35a.5.5 0 01.45.55.51.51 0 01-.52.44z" fill="#fafafa"/>
  <path d="M68.14 248.68a38.35 38.35 0 01-6.17-.5.5.5 0 01-.4-.58.49.49 0 01.58-.4 34.71 34.71 0 0011.28 0 .51.51 0 01.6.39.5.5 0 01-.39.59 26.85 26.85 0 01-5.5.5zM77.91 251.67h-.11a.5.5 0 01-.38-.59 40 40 0 00.71-13.58.506.506 0 011-.16 40.31 40.31 0 01-.72 14 .5.5 0 01-.5.33z" fill="#fafafa"/>
  <g>
    <path d="M16.62 212.54l15.7-9.06a5.42 5.42 0 014.87 0l2 1.15a5.37 5.37 0 012.44 4.22v18.12a5.39 5.39 0 01-2.44 4.22l-15.69 9.06a5.42 5.42 0 01-4.87 0l-2-1.15a5.37 5.37 0 01-2.43-4.22v-18.12a5.4 5.4 0 012.42-4.22z" fill="#f26322"/>
    <path d="M16.62 212.54l15.7-9.06a5.42 5.42 0 014.87 0l2 1.15a5.37 5.37 0 012.44 4.22v18.12a5.39 5.39 0 01-2.44 4.22l-15.69 9.06a5.42 5.42 0 01-4.87 0l-2-1.15a5.37 5.37 0 01-2.43-4.22v-18.12a5.4 5.4 0 012.42-4.22z" fill="#fafafa" opacity=".5"/>
    <path d="M41.61 208.85c0-1.56-1.09-2.19-2.44-1.41l-15.69 9.06a5.39 5.39 0 00-2.44 4.22v18.12c0 1.55 1.09 2.18 2.44 1.41l15.69-9.06a5.39 5.39 0 002.44-4.22z" fill="#f26322"/>
    <path d="M14.19 234.88a5.37 5.37 0 002.43 4.24l2 1.15a5.43 5.43 0 004.45.19c-1.15.44-2-.21-2-1.6v-18.14a4.87 4.87 0 01.72-2.4l-6.86-4a5 5 0 00-.71 2.4z" fill="#f26322"/>
    <path d="M14.19 234.88a5.37 5.37 0 002.43 4.24l2 1.15a5.43 5.43 0 004.45.19c-1.15.44-2-.21-2-1.6v-18.14a4.87 4.87 0 01.72-2.4l-6.86-4a5 5 0 00-.71 2.4z" opacity=".1"/>
    <path d="M24.68 221.96l13.35-7.73c.35-.21.64 0 .64.37v9a1.45 1.45 0 01-.64 1.13l-13.35 7.79c-.36.21-.65 0-.65-.38v-9a1.45 1.45 0 01.65-1.18z" fill="#fafafa"/>
    <path fill="#e0e0e0" d="M24.03 222.34l7.97 2.59 6.67-11.08-6.45 12.01-8.19-3.52z"/>
    <path d="M16.62 166.81l15.7-9.06a5.36 5.36 0 014.87 0l2 1.15a5.36 5.36 0 012.42 4.22v18.12a5.35 5.35 0 01-2.44 4.21l-15.69 9.06a5.36 5.36 0 01-4.87 0l-2-1.14a5.4 5.4 0 01-2.42-4.25v-18.09a5.4 5.4 0 012.43-4.22z" fill="#f26322"/>
    <path d="M16.62 166.81l15.7-9.06a5.36 5.36 0 014.87 0l2 1.15a5.36 5.36 0 012.42 4.22v18.12a5.35 5.35 0 01-2.44 4.21l-15.69 9.06a5.36 5.36 0 01-4.87 0l-2-1.14a5.4 5.4 0 01-2.42-4.25v-18.09a5.4 5.4 0 012.43-4.22z" fill="#fafafa" opacity=".5"/>
    <path d="M41.61 163.12c0-1.56-1.09-2.19-2.44-1.41l-15.69 9.06a5.37 5.37 0 00-2.44 4.22v18.13c0 1.55 1.09 2.18 2.44 1.4l15.69-9.06a5.35 5.35 0 002.44-4.21z" fill="#f26322"/>
    <path d="M14.19 189.12a5.4 5.4 0 002.43 4.22l2 1.14a5.39 5.39 0 004.45.2c-1.15.43-2-.21-2-1.6v-18.09a4.87 4.87 0 01.72-2.4l-6.86-4a5 5 0 00-.71 2.4z" fill="#f26322"/>
    <path d="M14.19 189.12a5.4 5.4 0 002.43 4.22l2 1.14a5.39 5.39 0 004.45.2c-1.15.43-2-.21-2-1.6v-18.09a4.87 4.87 0 01.72-2.4l-6.86-4a5 5 0 00-.71 2.4z" opacity=".1"/>
    <path d="M31.17 185.12l-1.62-.18c-2.2-.18-4.82-1-4.82-4.19a7.38 7.38 0 013.34-5.78c1.44-.83 2.66-.49 3.13.71a7.47 7.47 0 013.13-4.33c1.85-1.06 3.34-.2 3.34 1.93 0 3.08-2.6 7-4.79 9.71z" fill="#fafafa"/>
    <path d="M16.62 121.12l15.7-9.06a5.36 5.36 0 014.87 0l2 1.15a5.35 5.35 0 012.44 4.21v18.12a5.36 5.36 0 01-2.44 4.22l-15.69 9.06a5.36 5.36 0 01-4.87 0l-2-1.14a5.4 5.4 0 01-2.43-4.22v-18.15a5.4 5.4 0 012.42-4.19z" fill="#f26322"/>
    <path d="M16.62 121.12l15.7-9.06a5.36 5.36 0 014.87 0l2 1.15a5.35 5.35 0 012.44 4.21v18.12a5.36 5.36 0 01-2.44 4.22l-15.69 9.06a5.36 5.36 0 01-4.87 0l-2-1.14a5.4 5.4 0 01-2.43-4.22v-18.15a5.4 5.4 0 012.42-4.19z" fill="#fafafa" opacity=".5"/>
    <path d="M23.48 148.79c-1.35.78-2.44.15-2.44-1.4v-18.12a5.36 5.36 0 012.44-4.22l15.69-9.06c1.35-.78 2.44-.15 2.44 1.4v18.12a5.36 5.36 0 01-2.44 4.22" fill="#f26322"/>
    <path d="M14.19 143.43a5.4 5.4 0 002.43 4.22l2 1.14a5.39 5.39 0 004.45.2c-1.15.43-2-.21-2-1.6v-18.12a4.87 4.87 0 01.72-2.4l-6.86-4a5 5 0 00-.71 2.4z" fill="#f26322"/>
    <path d="M14.19 143.43a5.4 5.4 0 002.43 4.22l2 1.14a5.39 5.39 0 004.45.2c-1.15.43-2-.21-2-1.6v-18.12a4.87 4.87 0 01.72-2.4l-6.86-4a5 5 0 00-.71 2.4z" opacity=".1"/>
    <path d="M28.46 132.12s1.83-4.22 2-4.83a18.12 18.12 0 000-3.14c0-.4 1.67-1.53 2.21-.37a6.09 6.09 0 01.28 3.9l4.07-2.37c.86-.5 1.21.2 1.22.76a3 3 0 01-.66 1.75s.82-.24.82.85a2.87 2.87 0 01-1 2s.26.2.27 1a3.22 3.22 0 01-1.14 2 2.26 2.26 0 01.18 1 3.11 3.11 0 01-1.49 2.34l-6.67 3.91zM24.6 144.38l2.93-1.71-.04-10.2-2.94 1.71.05 10.2z" fill="#fafafa"/>
    <path d="M8.03 67.58l24.06-13.89a8.24 8.24 0 017.46 0l3 1.75a8.24 8.24 0 013.74 6.47v27.78a8.23 8.23 0 01-3.74 6.43l-24 13.92a8.26 8.26 0 01-7.47 0l-3-1.75a8.26 8.26 0 01-3.73-6.47V74.04a8.24 8.24 0 013.68-6.46z" fill="#f26322"/>
    <path d="M8.03 67.58l24.06-13.89a8.24 8.24 0 017.46 0l3 1.75a8.24 8.24 0 013.74 6.47v27.78a8.23 8.23 0 01-3.74 6.43l-24 13.92a8.26 8.26 0 01-7.47 0l-3-1.75a8.26 8.26 0 01-3.73-6.47V74.04a8.24 8.24 0 013.68-6.46z" opacity=".1"/>
    <path d="M46.33 61.74c0-1.39-.68-4.85-4.25-2.66s-21.11 12.1-23.53 13.54a8.65 8.65 0 00-3.77 4.13l1.91 1.92z" fill="#f26322"/>
    <path d="M46.33 61.74c0-1.39-.68-4.85-4.25-2.66s-21.11 12.1-23.53 13.54a8.65 8.65 0 00-3.77 4.13l1.91 1.92z" opacity=".2"/>
    <path d="M18.55 110.04c-2.07 1.19-3.74.23-3.74-2.15V80.12a8.24 8.24 0 013.74-6.48l24-13.89c2.07-1.19 3.74-.22 3.74 2.16v27.78a8.23 8.23 0 01-3.74 6.43" fill="#f26322"/>
    <path d="M18.55 110.04c-2.07 1.19-3.74.23-3.74-2.15V80.12a8.24 8.24 0 013.74-6.48l24-13.89c2.07-1.19 3.74-.22 3.74 2.16v27.78a8.23 8.23 0 01-3.74 6.43" opacity=".1"/>
    <path d="M4.3 101.82a8.26 8.26 0 003.73 6.47l3 1.75a8.33 8.33 0 006.83.3c-1.76.67-3.1-.32-3.1-2.45V80.12a7.6 7.6 0 011.1-3.68L5.35 70.37a7.58 7.58 0 00-1.09 3.68z" fill="#f26322"/>
    <path d="M4.3 101.82a8.26 8.26 0 003.73 6.47l3 1.75a8.33 8.33 0 006.83.3c-1.76.67-3.1-.32-3.1-2.45V80.12a7.6 7.6 0 011.1-3.68L5.35 70.37a7.58 7.58 0 00-1.09 3.68z" opacity=".2"/>
    <path d="M31.29 70.4l3.12 5.5 7-2.86c.66-.27.93.51.45 1.33l-5.05 8.6L38 90.31c.11.7-.58 1.67-1.17 1.66l-6.28-.19-6.25 7.4c-.59.7-1.28.52-1.17-.31l1.21-8.75-5-2.77c-.48-.26-.21-1.35.45-1.84l7-5.2 3.12-9.11c.23-.83 1.08-1.32 1.38-.8z" fill="#fafafa"/>
  </g>
  <g>
    <path d="M369.55 197.3c-12 5.71-31.4 5.71-43.38 0s-12-15 0-20.67 31.4-5.71 43.38 0 11.94 14.96 0 20.67z" fill="#e0e0e0"/>
  </g>
  <g>
    <path d="M96.75 263.59a9.29 9.29 0 004.33 7.19l121.33 70a9.57 9.57 0 008.66 0l166-95.85a8.13 8.13 0 000-14.38l-121.32-70a9.57 9.57 0 00-8.66 0l-166 95.85a9.29 9.29 0 00-4.34 7.19z" fill="#37474f"/>
    <path d="M146.81 230l-45.73 26.4a8.13 8.13 0 000 14.38l121.33 70a8.83 8.83 0 004.33 1V230z" fill="#263238"/>
    <path d="M92.69 256.55a9.25 9.25 0 01-4.06-7.34V104.42a9.55 9.55 0 014.33-7.5l166-95.8a8.14 8.14 0 0112.46 7.19v144.74a9.56 9.56 0 01-4.33 7.5l-166 95.85a9.27 9.27 0 01-8.4.15z" fill="#455a64"/>
    <path d="M108.94 111.12l-19-11a8.83 8.83 0 00-1.26 4.26v144.83a8.14 8.14 0 0012.45 7.19l18.93-10.93z" fill="#263238"/>
    <path d="M96.75 109.12V253.9c0 2.76 1.94 3.88 4.33 2.5l166-95.85a9.56 9.56 0 004.33-7.5V8.27c0-2.76-1.94-3.88-4.33-2.5l-166 95.84a9.59 9.59 0 00-4.33 7.51z" fill="#37474f"/>
    <path d="M101.08 261.4l121.33 70.05a9.57 9.57 0 008.66 0l166-95.85c2.4-1.38 2.4-3.62 0-5l-121.32-70.05a9.57 9.57 0 00-8.66 0l-166 95.85c-2.4 1.38-2.4 3.62-.01 5z" fill="#455a64"/>
    <path d="M103.41 109.65L264.76 16.5c1.43-.83 2.6-.16 2.6 1.5v125.33a5.76 5.76 0 01-2.6 4.5l-161.35 93.15c-1.44.83-2.6.16-2.6-1.5V114.12a5.73 5.73 0 012.6-4.47z" fill="#fafafa"/>
    <path d="M115.16 257.65l154.09-89a4.79 4.79 0 014.33 0l7.89 4.55a1.32 1.32 0 010 2.5l-154.12 88.99a4.79 4.79 0 01-4.33 0l-7.86-4.57a1.32 1.32 0 010-2.47zM135.47 269.38l154.09-89a4.79 4.79 0 014.33 0l48.48 28a1.32 1.32 0 010 2.5l-153.91 88.86a4.81 4.81 0 01-4.34 0l-48.64-27.88a1.31 1.31 0 01-.01-2.48z" fill="#263238"/>
    <path d="M273.6 220.44l4.83-2.79c.2-.12.19-.32 0-.44l-5.58-3.22a.84.84 0 00-.77 0l-4.82 2.79c-.21.11-.2.31 0 .44l5.58 3.22a.84.84 0 00.76 0zm-9.52-11.07l-4.82 2.75c-.21.12-.2.32 0 .45l5.58 3.22a.87.87 0 00.77 0l4.83-2.79c.2-.12.19-.32 0-.44l-5.58-3.23a.87.87 0 00-.78.04zm-15.59 9l-8.16 4.75c-.21.12-.19.32 0 .45l5.58 3.22a.87.87 0 00.77 0l8.16-4.71c.2-.12.19-.32 0-.44l-5.58-3.23a.87.87 0 00-.77-.04zm8.54-4.93l-4.83 2.79c-.2.11-.19.31 0 .44l5.58 3.22a.84.84 0 00.77 0l4.82-2.79c.21-.12.2-.32 0-.44l-5.58-3.22a.84.84 0 00-.76 0zm-18.93 10.93l-4.82 2.75c-.21.12-.19.32 0 .45l5.58 3.22a.84.84 0 00.77 0l4.83-2.78c.2-.12.19-.32 0-.44l-5.58-3.23a.87.87 0 00-.78.03zm-7.05 4.07l-4.82 2.78c-.21.12-.2.32 0 .45l5.58 3.22a.87.87 0 00.77 0l4.83-2.79c.2-.12.19-.32 0-.44l-5.58-3.23a.87.87 0 00-.78.01zm21.95 13.1l4.82-2.79c.2-.12.19-.32 0-.44l-5.61-3.19a.84.84 0 00-.77 0l-4.82 2.79c-.21.11-.19.31 0 .44l5.58 3.22a.84.84 0 00.8-.03zm-7.06 4.07l4.83-2.79c.2-.12.19-.31 0-.44l-5.61-3.26a.84.84 0 00-.77 0l-4.84 2.81c-.21.11-.19.31 0 .44l5.58 3.22a.84.84 0 00.81.02zm-7.05 4.07l4.83-2.79c.2-.11.19-.31 0-.44l-5.58-3.22a.84.84 0 00-.77 0l-4.82 2.77c-.21.12-.2.32 0 .44l5.58 3.22a.84.84 0 00.76.02zm-7 4.07l4.83-2.79c.2-.11.19-.31 0-.44l-5.58-3.22a.84.84 0 00-.77 0l-4.9 2.82c-.21.12-.2.32 0 .44l5.58 3.22a.84.84 0 00.79-.03zm34.66-29.24l4.82-2.79c.21-.12.2-.31 0-.44l-5.58-3.22a.84.84 0 00-.77 0l-4.82 2.79c-.21.12-.2.31 0 .44l5.58 3.22a.84.84 0 00.77 0zm-6.5 13l10.76-6.22c.2-.12.19-.32 0-.44l-13.55-7.82a.84.84 0 00-.77 0l-5.56 3.21c-.21.12-.2.32 0 .45l7.18 4.14c.22.13.23.33 0 .44l-4.45 2.58c-.2.11-.19.31 0 .44l5.58 3.22a.87.87 0 00.81-.04zm-36.05-5l-4.82 2.79c-.21.11-.2.31 0 .44l5.58 3.22a.87.87 0 00.77 0l4.83-2.79c.2-.12.19-.32 0-.44l-5.58-3.22a.84.84 0 00-.78 0zm-7 4.07l-4.83 2.79c-.2.12-.19.31 0 .44l5.58 3.22a.84.84 0 00.77 0l4.82-2.79c.21-.12.2-.32 0-.44l-5.58-3.22a.84.84 0 00-.81 0zm-35.24 45.65a.84.84 0 00.77 0l4.83-2.79c.2-.12.19-.32 0-.44l-5.58-3.22a.84.84 0 00-.77 0l-4.82 2.79c-.21.12-.2.31 0 .44zm-21.21-13.11l-4.83 2.79c-.2.11-.19.31 0 .44l5.58 3.22a.87.87 0 00.77 0l4.82-2.79c.21-.12.2-.32 0-.44l-5.58-3.22a.84.84 0 00-.76 0zm11.35 9.55a.84.84 0 00.77 0l4.82-2.79c.21-.12.19-.31 0-.44l-5.57-3.22a.84.84 0 00-.77 0l-4.83 2.79c-.2.12-.19.31 0 .44zm22.27 6l4.83-2.79c.2-.12.19-.32 0-.44l-5.58-3.23a.87.87 0 00-.77 0l-4.82 2.79c-.21.11-.2.31 0 .44l5.58 3.22a.84.84 0 00.75.05zm-7.82 4.05a.84.84 0 00.77 0l4.83-2.79c.2-.12.19-.32 0-.44l-5.58-3.22a.84.84 0 00-.77 0l-4.86 2.85c-.21.11-.2.31 0 .44zm-18.8-23.6l-4.83 2.78c-.2.12-.19.32 0 .45l5.58 3.22a.87.87 0 00.77 0l4.82-2.79c.21-.12.2-.32 0-.44l-5.53-3.22a.87.87 0 00-.81 0zm35.3-20.4l-4.83 2.79c-.2.12-.19.32 0 .44l5.58 3.22a.84.84 0 00.77 0l4.82-2.79c.21-.11.19-.31 0-.44l-5.57-3.22a.87.87 0 00-.77 0zm-28.21 16.29l-4.82 2.78c-.21.12-.2.32 0 .45l5.58 3.22a.87.87 0 00.77 0l4.83-2.78c.2-.12.19-.32 0-.45l-5.58-3.22a.87.87 0 00-.78 0zm35.26-20.36l-4.83 2.79c-.2.12-.19.31 0 .44l5.58 3.22a.84.84 0 00.77 0l4.82-2.79c.21-.12.2-.31 0-.44l-5.58-3.22a.84.84 0 00-.76 0zm-14.11 8.14l-4.82 2.79c-.21.12-.19.32 0 .44l5.58 3.23a.87.87 0 00.77 0l4.82-2.78c.21-.12.19-.32 0-.45l-5.59-3.21a.87.87 0 00-.76-.02zm-7.05 4.08l-4.82 2.78c-.21.12-.19.32 0 .44l5.63 3.23a.85.85 0 00.76 0l4.83-2.78c.2-.12.19-.32 0-.45l-5.59-3.21a.84.84 0 00-.81-.01zm-7.05 4.07l-4.82 2.78c-.21.12-.19.32 0 .45l5.58 3.22a.87.87 0 00.77 0l4.83-2.78c.2-.12.19-.32 0-.45l-5.58-3.22a.87.87 0 00-.78 0zm36.05 4.95l4.81-2.77c.21-.12.2-.32 0-.45l-5.58-3.22a.84.84 0 00-.77 0l-4.83 2.78c-.2.12-.19.32 0 .45l5.58 3.22a.87.87 0 00.79-.01zm61.93-61.52l-4.83 2.75c-.2.11-.19.31 0 .44l5.58 3.22a.87.87 0 00.77 0l4.82-2.79c.21-.12.2-.32 0-.44l-5.58-3.22a.84.84 0 00-.76.04zm-8.54 4.93l-4.82 2.82c-.21.12-.2.32 0 .45l5.57 3.22a.84.84 0 00.77 0l4.83-2.78c.2-.12.19-.32 0-.44l-5.58-3.23a.87.87 0 00-.77-.04zm15.59-9l-4.83 2.82c-.2.12-.19.32 0 .45l5.58 3.22a.87.87 0 00.77 0l4.82-2.79c.21-.12.2-.32 0-.44l-5.58-3.23a.87.87 0 00-.76-.03zm-36.5 37.64l4.83-2.82c.2-.12.19-.32 0-.44l-5.58-3.22a.84.84 0 00-.77 0l-4.83 2.78c-.2.12-.19.32 0 .45l5.58 3.22a.87.87 0 00.77.03zm44.33-41.7a.87.87 0 00-.77 0l-4.82 2.78c-.21.12-.2.32 0 .45l5.58 3.22a.84.84 0 00.77 0l4.83-2.78c.2-.12.19-.32 0-.45zm-69.76 65.58l4.82-2.78c.21-.12.2-.32 0-.45l-5.58-3.22a.87.87 0 00-.77 0l-4.85 2.75c-.2.12-.19.32 0 .44l5.58 3.23a.87.87 0 00.8.03zm86.47-49.92l4.83-2.79c.2-.12.19-.32 0-.44l-5.58-3.22a.84.84 0 00-.77 0l-4.83 2.79c-.2.11-.19.31 0 .44l5.58 3.22a.84.84 0 00.77 0zm-15-.53l4.82-2.79c.21-.12.2-.32 0-.44l-5.58-3.22a.84.84 0 00-.77 0l-4.83 2.79c-.2.11-.19.31 0 .44l5.58 3.22a.84.84 0 00.76 0zm6.29-10.53a.87.87 0 00-.77 0l-4.82 2.79c-.21.11-.2.31 0 .44l5.58 3.22a.87.87 0 00.77 0l4.83-2.79c.2-.12.19-.32 0-.44zm1.48-.85l13.52 7.82a.87.87 0 00.77 0l4.83-2.79c.2-.12.19-.32 0-.44l-13.6-7.81a.87.87 0 00-.77 0l-4.82 2.78c-.2.11-.19.31.03.44zm-16.35 9l-4.83 2.79c-.2.11-.19.31 0 .44l5.58 3.22a.84.84 0 00.77 0l4.82-2.79c.21-.12.2-.32 0-.44l-5.58-3.22a.84.84 0 00-.8-.02zm-53.13 30.62l-4.83 2.79c-.2.12-.19.31 0 .44l5.58 3.22a.84.84 0 00.77 0l4.82-2.79c.21-.12.2-.31 0-.44l-5.58-3.22a.84.84 0 00-.76 0zm68.87-23.66a.84.84 0 00.77 0l4.82-2.79c.21-.12.2-.31 0-.44l-5.58-3.22a.84.84 0 00-.77 0l-4.83 2.79c-.2.12-.19.31 0 .44zm-61.82 19.59l-4.83 2.79c-.2.11-.19.31 0 .44l5.58 3.22a.84.84 0 00.77 0l4.82-2.79c.21-.12.2-.32 0-.44l-5.58-3.22a.84.84 0 00-.74 0zm-52.84 46.58a.87.87 0 00.77 0l4.83-2.79c.2-.12.19-.32 0-.44l-5.58-3.22a.84.84 0 00-.77 0l-4.82 2.79c-.21.11-.2.31 0 .44zm-10.6-10l-4.83 2.79c-.2.11-.19.31 0 .44l5.58 3.22a.87.87 0 00.77 0l4.82-2.79c.21-.12.2-.32 0-.44l-5.58-3.22a.84.84 0 00-.76.06zm18.39 6l4.83-2.79c.2-.12.19-.32 0-.44l-5.58-3.22a.84.84 0 00-.77 0l-4.82 2.78c-.21.12-.19.32 0 .45l5.58 3.22a.85.85 0 00.76 0zm7.06-4.07l4.82-2.79c.21-.12.19-.32 0-.45l-5.58-3.22a.87.87 0 00-.77 0l-4.82 2.78c-.2.12-.19.32 0 .45l5.58 3.22a.87.87 0 00.8 0zm7-4.08l4.82-2.78c.21-.12.19-.32 0-.45l-5.57-3.22a.87.87 0 00-.77 0l-4.83 2.78c-.2.12-.19.32 0 .45l5.58 3.22a.87.87 0 00.85-.01zm-25.4-1.85l-4.83 2.78c-.2.12-.19.32 0 .45l5.58 3.22a.87.87 0 00.77 0l4.82-2.79c.21-.12.2-.32 0-.44l-5.57-3.22a.87.87 0 00-.77 0zm7.05-4.07l-4.83 2.78c-.2.12-.19.32 0 .45l5.58 3.22a.84.84 0 00.77 0l4.83-2.78c.2-.12.19-.32 0-.45l-5.58-3.22a.87.87 0 00-.77-.01zm28.21-16.29l-4.83 2.79c-.21.12-.19.32 0 .44l5.58 3.22a.84.84 0 00.77 0l4.82-2.79c.21-.11.19-.31 0-.44l-5.58-3.22a.85.85 0 00-.76-.01zm-7.06 4.08l-4.86 2.77c-.21.12-.19.32 0 .44l5.57 3.23a.87.87 0 00.77 0l4.83-2.78c.2-.12.19-.32 0-.45l-5.58-3.22a.84.84 0 00-.73 0zm14.14-8.16l-4.83 2.79c-.2.12-.19.32 0 .44l5.58 3.22a.84.84 0 00.77 0l4.82-2.79c.21-.11.19-.31 0-.44l-5.57-3.22a.84.84 0 00-.77 0zm-28.21 16.29l-4.82 2.78c-.21.12-.2.32 0 .45l5.58 3.22a.87.87 0 00.77 0l4.83-2.78c.2-.12.19-.32 0-.45l-5.58-3.22a.87.87 0 00-.81 0zm7.05-4.07l-4.84 2.78c-.21.12-.2.32 0 .45l5.58 3.22a.87.87 0 00.77 0l4.83-2.78c.2-.12.19-.32 0-.45l-5.58-3.22a.84.84 0 00-.79 0zm-5.15 28.74l4.83-2.79c.2-.12.19-.32 0-.44l-5.58-3.23a.87.87 0 00-.77 0l-4.82 2.78c-.21.12-.19.32 0 .45l5.57 3.22a.87.87 0 00.74.01zm-41.37-4.18l-5.58-3.22a.84.84 0 00-.77 0l-4.83 2.79c-.2.11-.19.31 0 .44l5.58 3.22a.84.84 0 00.77 0l4.82-2.79c.21-.12.19-.32-.02-.44zm10.56 3.1l-5.58-3.22a.84.84 0 00-.77 0l-7.42 4.29c-.2.12-.19.31 0 .44l5.58 3.22a.84.84 0 00.77 0l7.42-4.29c.21-.12.19-.31-.03-.44zm-19.12-9.33l-5.58-3.22a.84.84 0 00-.77 0l-5.94 3.43c-.21.12-.19.32 0 .45l5.58 3.22a.87.87 0 00.77 0l5.93-3.43c.25-.12.25-.32-.02-.45zm4.55-2.63a.84.84 0 00.77 0l4.82-2.79c.21-.12.2-.31 0-.44l-5.58-3.22a.84.84 0 00-.77 0l-4.83 2.79c-.2.12-.19.31 0 .44zm24.37 15.52l-5.58-3.22a.84.84 0 00-.77 0l-9.28 5.36c-.2.12-.19.32 0 .44l5.58 3.22a.84.84 0 00.77 0l9.28-5.36c.23-.15.22-.34 0-.44zm4.63 6.53l-5.58-3.22a.84.84 0 00-.77 0l-5.96 3.38c-.2.12-.19.32 0 .44l5.58 3.23a.87.87 0 00.77 0l5.94-3.43c.25-.11.24-.3.02-.43zm23.4-52.29a.82.82 0 00.76 0l4.83-2.79c.2-.11.19-.31 0-.44l-5.58-3.22a.84.84 0 00-.77 0l-4.82 2.79c-.21.12-.19.32 0 .44zm-14.11 8.15a.87.87 0 00.77 0l4.83-2.79c.2-.11.19-.31 0-.44l-5.58-3.22a.87.87 0 00-.77 0l-4.85 2.75c-.21.12-.2.32 0 .44zm-31.27 18.05a.87.87 0 00.77 0l4.82-2.79c.21-.12.2-.32 0-.44l-5.6-3.21a.84.84 0 00-.77 0l-4.83 2.79c-.2.11-.19.31 0 .44zm38.32-22.13a.84.84 0 00.77 0l4.83-2.79c.2-.11.19-.31 0-.44l-5.58-3.22a.84.84 0 00-.77 0l-4.82 2.79c-.21.12-.19.32 0 .44zm-14.1 8.15a.87.87 0 00.77 0l4.83-2.78c.2-.12.19-.32 0-.45l-5.61-3.23a.84.84 0 00-.77 0l-4.77 2.76c-.21.12-.2.32 0 .45zm1.63 40.54a.84.84 0 00-.77 0l-7.41 4.29c-.2.12-.19.32 0 .45l5.6 3.26a.87.87 0 00.77 0l7.42-4.28c.2-.12.19-.32 0-.45zm-11.75-34.75a.84.84 0 00.77 0l4.8-2.75c.2-.12.19-.32 0-.45l-5.58-3.22a.87.87 0 00-.77 0l-4.82 2.78c-.21.12-.2.32 0 .45zm-7.05 4.07a.87.87 0 00.77 0l4.83-2.79c.2-.12.19-.32 0-.44l-5.58-3.22a.84.84 0 00-.77 0l-4.83 2.78c-.2.12-.19.32 0 .45zm149.44-44.72a.87.87 0 00-.77 0l-11.88 6.86c-.2.12-.19.32 0 .44l5.58 3.23a.87.87 0 00.77 0l11.87-6.86c.21-.11.2-.31 0-.44zm-15.59 9a.84.84 0 00-.77 0l-4.82 2.79c-.21.12-.2.32 0 .44l5.58 3.22a.84.84 0 00.77 0l4.83-2.79c.2-.11.19-.31 0-.44zm-95.51 52.84l4.82-2.78c.2-.12.19-.32 0-.45l-5.61-3.21a.87.87 0 00-.77 0l-4.82 2.78c-.21.12-.19.32 0 .45l5.58 3.22a.84.84 0 00.8-.01zm81.41-44.7a.84.84 0 00-.77 0l-4.83 2.78c-.2.12-.19.32 0 .45l5.58 3.22a.87.87 0 00.77 0l4.82-2.78c.21-.12.2-.32 0-.45zm36.74-21.21a.84.84 0 00-.77 0l-4.83 2.79c-.2.12-.19.32 0 .44l5.58 3.22a.84.84 0 00.77 0l4.82-2.79c.21-.11.2-.31 0-.44zm12.63-.85l-13.5-7.82a.84.84 0 00-.77 0l-4.82 2.79c-.21.11-.2.31 0 .44l13.55 7.82a.84.84 0 00.77 0l4.83-2.79c.17-.12.16-.31-.06-.44zm-75.72 37.32a.87.87 0 00-.77 0l-5.94 3.43c-.2.11-.19.31 0 .44l5.58 3.22a.84.84 0 00.77 0l5.93-3.43c.21-.12.2-.32 0-.45zm17.81-10.28a.87.87 0 00-.77 0l-7.42 4.29c-.2.12-.19.32 0 .44l5.6 3.15a.84.84 0 00.77 0l7.42-4.29c.2-.11.19-.31 0-.44zM247 256.55a.84.84 0 00-.77 0l-39.68 22.86c-.21.12-.19.32 0 .45l5.58 3.22a.87.87 0 00.77 0l39.7-22.92c.21-.12.2-.32 0-.45zm-41.94 24.21a.87.87 0 00-.77 0l-5.94 3.36c-.2.12-.19.31 0 .44l5.58 3.22a.84.84 0 00.77 0l5.94-3.43c.2-.12.19-.32 0-.44zm50.1-28.92a.84.84 0 00-.77 0l-5.93 3.43c-.21.12-.2.32 0 .45l5.58 3.22a.87.87 0 00.77 0l5.94-3.43c.2-.12.19-.31 0-.44zm-58.26 33.64a.84.84 0 00-.77 0l-5.94 3.43c-.21.12-.19.32 0 .45l5.58 3.22a.87.87 0 00.77 0l6.01-3.46c.21-.12.2-.31 0-.44zm74.59-43.07a.87.87 0 00-.77 0l-5.94 3.43c-.2.12-.19.32 0 .45l5.58 3.22a.84.84 0 00.77 0l5.94-3.42c.2-.12.19-.32 0-.45zm25.24-14.57a.87.87 0 00-.77 0l-4.83 2.79c-.2.12-.19.32 0 .44l5.58 3.23a.87.87 0 00.77 0l4.83-2.78c.2-.12.19-.32 0-.45zm15.45-11.22l4.82-2.79c.21-.12.2-.31 0-.44l-5.6-3.27a.84.84 0 00-.77 0l-4.83 2.79c-.2.12-.19.32 0 .44l5.58 3.22a.84.84 0 00.8 0zm-31.53-.2l4.83-2.79c.2-.12.19-.32 0-.44l-5.58-3.22a.84.84 0 00-.77 0l-4.82 2.79c-.21.11-.2.31 0 .44l5.58 3.22a.87.87 0 00.76-.05zm-16 27.63l14.1-8.15c.2-.11.19-.31 0-.44l-5.58-3.22a.84.84 0 00-.77 0l-14.1 8.14c-.21.12-.19.32 0 .45l5.58 3.22a.87.87 0 00.8-.05zm39.68-23.38a.84.84 0 00.77 0l4.82-2.78c.21-.12.19-.32 0-.45l-5.58-3.22a.87.87 0 00-.77 0l-4.83 2.79c-.2.12-.19.32 0 .44zm-7.2-4.58l4.82-2.79c.21-.11.2-.31 0-.44l-5.58-3.22a.84.84 0 00-.77 0l-4.83 2.79c-.2.12-.19.32 0 .44l5.58 3.22a.84.84 0 00.81-.05zm-39.54 32l4.83-2.79c.2-.12.19-.32 0-.44l-5.58-3.22a.84.84 0 00-.77 0l-4.82 2.79c-.21.11-.19.31 0 .44l5.57 3.22a.87.87 0 00.8.03zm31.15-18.45a.84.84 0 00.77 0l4.83-2.79c.2-.11.19-.31 0-.44l-5.58-3.22a.84.84 0 00-.77 0l-4.82 2.79c-.21.12-.2.32 0 .44zm-66.4 38.8l4.82-2.78c.21-.12.19-.32 0-.45l-5.61-3.24a.87.87 0 00-.77 0l-4.83 2.79c-.2.12-.19.32 0 .45l5.58 3.22a.87.87 0 00.84-.01zm7.05-4.07l4.82-2.78c.21-.12.2-.32 0-.45l-5.58-3.22a.87.87 0 00-.77 0l-4.83 2.79c-.2.12-.19.32 0 .44l5.58 3.22a.84.84 0 00.81-.02zm-14.1 8.14l4.82-2.78c.21-.12.19-.32 0-.45l-5.56-3.24a.84.84 0 00-.77 0l-4.83 2.78c-.2.12-.19.32 0 .45l5.58 3.22a.87.87 0 00.79 0zm28.26-16.3l4.83-2.79c.2-.12.19-.31 0-.44l-5.58-3.22a.84.84 0 00-.77 0l-4.82 2.79c-.21.12-.2.31 0 .44l5.58 3.22a.84.84 0 00.76 0zm-7.05 4.07l4.83-2.79c.2-.11.19-.31 0-.44l-5.58-3.22a.84.84 0 00-.77 0l-4.83 2.79c-.2.12-.19.32 0 .44l5.58 3.22a.84.84 0 00.74 0zm14.05-8.16l4.83-2.79c.2-.12.19-.31 0-.44l-5.58-3.22a.84.84 0 00-.77 0l-4.82 2.79c-.21.12-.19.31 0 .44l5.58 3.22a.84.84 0 00.76 0zm32.26-60.23a.84.84 0 00.77 0l4.83-2.79c.2-.12.19-.31 0-.44l-1.49-.86a.84.84 0 00-.77 0l-4.82 2.78c-.2.12-.19.32 0 .45zm-34.69 22.4a.87.87 0 00.77 0l4.82-2.78c.21-.12.2-.32 0-.45l-5.58-3.22a.84.84 0 00-.77 0l-4.81 2.8c-.2.12-.19.32 0 .45zm14.1-8.15a.84.84 0 00.77 0l4.83-2.78c.2-.12.19-.32 0-.45l-5.58-3.22a.87.87 0 00-.77 0l-4.83 2.79c-.2.12-.19.32 0 .44zm-22.67 13.14a.84.84 0 00.77 0l4.82-2.78c.21-.12.2-.32 0-.45l-5.59-3.21a.87.87 0 00-.77 0l-4.83 2.78c-.2.12-.19.32 0 .45zm15.66-9a.87.87 0 00.77 0l4.82-2.78c.21-.12.2-.32 0-.45l-5.58-3.22a.84.84 0 00-.77 0l-4.9 2.74c-.2.12-.19.32 0 .44zm-29.78 17.14a.87.87 0 00.77 0l4.82-2.79c.2-.12.19-.32 0-.44l-5.58-3.22a.84.84 0 00-.77 0l-4.82 2.78c-.21.12-.19.32 0 .45zm7.05-4.07a.84.84 0 00.77 0l4.82-2.78c.21-.12.19-.32 0-.45l-5.57-3.22a.87.87 0 00-.77 0l-4.83 2.78c-.2.12-.19.32 0 .45zm36.25-23.3a.84.84 0 00.77 0l4.82-2.78c.21-.12.2-.32 0-.45l-1.49-.86a.87.87 0 00-.77 0l-4.82 2.78c-.21.12-.2.32 0 .45zm21.15-12.21a.84.84 0 00.77 0l4.83-2.79c.2-.12.19-.32 0-.44l-1.48-.86a.87.87 0 00-.77 0l-4.83 2.79c-.2.12-.19.32 0 .44zm11.72 6.77a.87.87 0 00.77 0l4.83-2.78c.2-.12.19-.32 0-.45l-5.65-3.21a.87.87 0 00-.77 0l-4.82 2.78c-.21.12-.2.32 0 .45zm17.63 17.89l4.82-2.79c.21-.12.2-.31 0-.44l-5.58-3.22a.84.84 0 00-.77 0l-4.83 2.79c-.2.12-.19.31 0 .44l5.58 3.22a.84.84 0 00.78 0zm-43.45-16.52a.84.84 0 00.77 0l4.83-2.79c.2-.11.19-.31 0-.44l-1.49-.86a.87.87 0 00-.77 0l-4.82 2.78c-.21.12-.19.32 0 .45zm-57.41 35.51a.87.87 0 00.77 0l4.83-2.79c.2-.12.19-.32 0-.44l-5.58-3.22a.84.84 0 00-.77 0l-4.82 2.79c-.21.11-.19.31 0 .44z" fill="#e0e0e0"/>
    <path fill="#263238" d="M247.04 275.32l52.81-30.49 32.5 18.76-52.81 30.49-32.5-18.76z"/>
  </g>
  <g>
    <path d="M140.97 94.51L298.32 3.66c3.08-1.78 5.6-.32 5.6 3.23v121.88a5.79 5.79 0 01-2.6 4.5l-161.35 93.15c-1.43.82-2.6.15-2.6-1.5V100.74a8 8 0 013.6-6.23z" fill="#f5f5f5"/>
    <path d="M303.92 9.81V6.89c0-3.55-2.52-5-5.6-3.23L140.97 94.51a8 8 0 00-3.6 6.23v5.23z" fill="#263238"/>
    <path d="M280.45 16.46a4.29 4.29 0 00-1.9 3.34c0 1.23.87 1.73 1.93 1.11a4.22 4.22 0 001.93-3.33c-.03-1.23-.86-1.73-1.96-1.12zM288.1 12.05a4.24 4.24 0 00-1.93 3.34c0 1.23.86 1.72 1.93 1.11a4.27 4.27 0 001.93-3.38c0-1.19-.87-1.69-1.93-1.07zM295.75 7.63a4.26 4.26 0 00-1.93 3.34c0 1.23.86 1.73 1.93 1.11a4.24 4.24 0 001.92-3.33c0-1.23-.86-1.73-1.92-1.12z" fill="#e0e0e0"/>
    <path fill="#f26322" d="M137.37 105.97v23.45l166.54-96.15V9.81l-166.54 96.16z"/>
    <path opacity=".1" d="M137.37 105.97v23.45l166.54-96.15V9.81l-166.54 96.16z"/>
    <path d="M148.28 117.2a3.51 3.51 0 01-1.73.09V105.8a1.36 1.36 0 01.14-.63 1.31 1.31 0 01.48-.45l.86-.49c.22-.13.38-.17.48-.11s.15.21.15.46v3.78a6.66 6.66 0 011.14-1.34 8.51 8.51 0 011.52-1.1c1.26-.73 2.23-.9 2.92-.49s1 1.34 1 2.78a9.09 9.09 0 01-1.2 4.61 9.43 9.43 0 01-3.55 3.45 8.69 8.69 0 01-2.21.93zm4.18-4.69a6.23 6.23 0 00.67-3c0-1-.18-1.6-.53-1.85s-.94-.15-1.77.33a5 5 0 00-1.51 1.37 3 3 0 00-.66 1.82v3.94a1.69 1.69 0 00.78-.1 5.51 5.51 0 001-.44 5.18 5.18 0 002.02-2.07zM157.05 112.03c-.1-.07-.15-.21-.15-.45V99.82a1.25 1.25 0 01.15-.63 1.17 1.17 0 01.48-.45l.89-.51c.22-.13.38-.16.48-.11s.15.21.15.46v11.76a1.17 1.17 0 01-.14.61 1.22 1.22 0 01-.49.46l-.89.51c-.23.13-.39.2-.48.11zM161.88 108.37c-.79-.43-1.18-1.4-1.18-2.93a8.34 8.34 0 011.18-4.3 9.06 9.06 0 013.37-3.27c1.45-.84 2.58-1 3.37-.62s1.19 1.4 1.19 2.93a8.25 8.25 0 01-1.19 4.3 9.08 9.08 0 01-3.37 3.28c-1.46.84-2.58 1.04-3.37.61zm5.18-4.28a5.58 5.58 0 00.62-2.68c0-1-.21-1.65-.62-1.94s-1-.2-1.81.26a4.68 4.68 0 00-1.81 1.83 5.45 5.45 0 00-.63 2.66q0 1.52.63 2c.42.3 1 .22 1.81-.23a4.66 4.66 0 001.81-1.87zM173.84 105.59a3.41 3.41 0 01-1.41.25c-.18 0-.22-.13-.13-.35l.48-1.23a.7.7 0 01.2-.31.33.33 0 01.17 0 5 5 0 002.4-.83 4.4 4.4 0 001.65-1.57 4.82 4.82 0 00.52-2.4 6.75 6.75 0 01-1.1 1.5 7 7 0 01-1.52 1.16c-1.25.72-2.23.89-2.93.51s-1.05-1.3-1.05-2.73a8.37 8.37 0 011.25-4.47 10 10 0 013.62-3.4 8.19 8.19 0 012.14-.89 3.83 3.83 0 011.7-.11v6.65a9.16 9.16 0 01-1 4.26 7.76 7.76 0 01-3.1 3.13 11.84 11.84 0 01-1.89.83zm3.29-7.4a3.47 3.47 0 00.59-1.92v-3.45a2.62 2.62 0 00-.81.2 6.69 6.69 0 00-1 .49 5 5 0 00-2.65 4.65c0 1 .19 1.56.58 1.81s1 .13 1.78-.32a4.46 4.46 0 001.51-1.46z" fill="#fafafa"/>
    <path d="M165.8 123.38v82.43c0 .55.29.83.64.62a1.79 1.79 0 00.64-1.39v-82.43c0-.55-.29-.82-.64-.61a1.75 1.75 0 00-.64 1.38z" fill="#f26322"/>
    <path d="M117.06 155.36l36.29-21c1.2-.69 2.17-.13 2.17 1.25v25.53a4.78 4.78 0 01-2.17 3.75l-36.29 20.95c-1.19.69-2.16.13-2.16-1.25v-25.47a4.8 4.8 0 012.16-3.76z" fill="#e0e0e0"/>
    <path d="M155.55 135.65c0-1.38-1-1.94-2.17-1.25l-36.29 21a4.8 4.8 0 00-2.16 3.75v2.17l40.62-23.49z" fill="#f26322"/>
    <path fill="#fafafa" d="M118.95 163.63l16.25-9.38v16.42l-16.25 9.38v-16.42z"/>
    <path d="M118.96 177.66l6.09-10.82a.68.68 0 011.17-.13l2.13 2.34 3.67-8.47c.22-.51.65-.56 1-.1l2.22 3.15v7l-16.25 9.38z" fill="#f26322"/>
    <path d="M139.27 153.32c0 .78.58 1.08 1.3.66l9.58-5.53a2.81 2.81 0 001.3-2.17c0-.78-.58-1.08-1.29-.66l-9.61 5.5a2.78 2.78 0 00-1.28 2.2zM139.27 160.12c0 .78.58 1.08 1.3.67l9.58-5.54a2.79 2.79 0 001.3-2.17c0-.78-.58-1.07-1.29-.66l-9.61 5.48a2.81 2.81 0 00-1.28 2.22zM139.27 166.82c0 .79.58 1.08 1.3.67l9.58-5.54a2.77 2.77 0 001.3-2.16c0-.78-.58-1.08-1.29-.67l-9.61 5.54a2.77 2.77 0 00-1.28 2.16z" fill="#fafafa"/>
    <path d="M117.06 194.88l36.29-20.95c1.2-.69 2.17-.13 2.17 1.25v25.53a4.78 4.78 0 01-2.17 3.75l-36.29 21c-1.19.69-2.16.13-2.16-1.25v-25.58a4.8 4.8 0 012.16-3.75z" fill="#e0e0e0"/>
    <path d="M155.55 175.18c0-1.38-1-1.94-2.17-1.25l-36.29 20.95a4.8 4.8 0 00-2.16 3.75v2.18l40.62-23.46z" fill="#f26322"/>
    <path fill="#fafafa" d="M118.95 203.15l16.25-9.38v16.42l-16.25 9.38v-16.42z"/>
    <path d="M118.96 217.19l6.09-10.82a.68.68 0 011.17-.13l2.13 2.33 3.67-8.47c.22-.51.65-.55 1-.1l2.22 3.15v7l-16.25 9.38z" fill="#f26322"/>
    <path d="M139.27 192.84c0 .78.58 1.08 1.3.67l9.58-5.54a2.77 2.77 0 001.3-2.16c0-.79-.58-1.08-1.29-.67l-9.61 5.54a2.77 2.77 0 00-1.28 2.16zM139.27 199.59c0 .79.58 1.08 1.3.67l9.58-5.54a2.77 2.77 0 001.3-2.16c0-.78-.58-1.08-1.29-.67l-9.61 5.54a2.77 2.77 0 00-1.28 2.16zM139.27 206.35c0 .78.58 1.08 1.3.66l9.58-5.53a2.81 2.81 0 001.3-2.17c0-.78-.58-1.08-1.29-.66l-9.61 5.53a2.81 2.81 0 00-1.28 2.17z" fill="#fafafa"/>
    <path d="M180.16 156.31L291.73 91.9c1.19-.69 2.16-.13 2.16 1.25v32.53a4.8 4.8 0 01-2.16 3.75l-111.57 64.41c-1.2.69-2.17.13-2.17-1.25v-32.53a4.78 4.78 0 012.17-3.75z" fill="#e0e0e0"/>
    <path d="M293.89 93.12c0-1.38-1-1.94-2.16-1.25l-111.57 64.44a4.78 4.78 0 00-2.17 3.75v2.17l115.9-66.91z" fill="#f26322"/>
    <path d="M205.55 149.55l-22.54 13a3.86 3.86 0 00-1.73 3v22.28c0 1.1.78 1.55 1.73 1l22.54-13a3.85 3.85 0 001.73-3v-22.28c-.04-1.1-.82-1.55-1.73-1z" fill="#fafafa"/>
    <path d="M189.19 169.12l-7.95 17v1.76c0 1.1.78 1.55 1.73 1l22.54-13a3.85 3.85 0 001.73-3v-7.76l-4.26-8c-.52-1-1.29-.95-1.72.07l-6.71 15.75-3.26-4.06a1.14 1.14 0 00-2.1.24zM183.85 168.92a8.6 8.6 0 003.89-6.74 3.25 3.25 0 00-.59-2l-4.18 2.41a3.86 3.86 0 00-1.73 3v3.71a2.84 2.84 0 002.61-.38z" fill="#f26322"/>
    <path d="M217.42 144.65l69.66-40.21c1-.56 1.73-.18 1.73.84a3.69 3.69 0 01-1.73 2.84l-69.66 40.22c-1 .55-1.73.17-1.73-.85a3.69 3.69 0 011.73-2.84zM217.42 154.03l69.66-40.21c1-.56 1.73-.18 1.73.84a3.69 3.69 0 01-1.73 2.84l-69.66 40.22c-1 .55-1.73.17-1.73-.85a3.7 3.7 0 011.73-2.84zM217.42 163.41l69.66-40.21c1-.56 1.73-.18 1.73.84a3.72 3.72 0 01-1.73 2.85l-69.66 40.23c-1 .55-1.73.17-1.73-.85a3.7 3.7 0 011.73-2.86z" fill="#fafafa"/>
  </g>
  <g>
    <path d="M331.39 53.43l-10.22-.31c-.69-.58-11.43-12.7-11.43-12.7s-3.86 6.09-3.93 6.48 10.53 11.72 11.58 12.86a3.15 3.15 0 002.5 1.23c2.77.16 13.14.89 13.14.89z" fill="#f28f8f"/>
    <path fill="#f26322" d="M345.92 65.18l-15.76-1.17 1.22-10.58 16.27.36-1.73 11.39z"/>
    <path opacity=".2" d="M345.92 65.18l-15.76-1.17 1.22-10.58 16.27.36-1.73 11.39z"/>
    <path d="M200.47 99.98l111.57-64.41c1.19-.69 2.16-.13 2.16 1.25v32.54a4.81 4.81 0 01-2.16 3.75l-111.57 64.41c-1.2.69-2.17.13-2.17-1.25v-32.54a4.78 4.78 0 012.17-3.75z" fill="#e0e0e0"/>
    <path d="M314.2 36.82c0-1.38-1-1.94-2.16-1.25L200.47 99.98a4.78 4.78 0 00-2.17 3.75v2.17l115.9-66.91z" fill="#f26322"/>
    <path d="M225.82 93.23l-22.54 13a3.83 3.83 0 00-1.73 3v22.27c0 1.1.78 1.55 1.73 1l22.54-13a3.83 3.83 0 001.73-3V94.23c0-1.11-.78-1.55-1.73-1z" fill="#fafafa"/>
    <path d="M209.55 112.8l-8 16.95v1.76c0 1.1.78 1.55 1.73 1l22.54-13a3.83 3.83 0 001.73-3v-7.69l-4.26-8c-.52-1-1.29-.94-1.72.07l-6.71 15.78-3.26-4.07a1.15 1.15 0 00-2.05.2zM204.16 112.6a8.63 8.63 0 003.89-6.75 3.27 3.27 0 00-.59-2l-4.18 2.42a3.83 3.83 0 00-1.73 3v3.7a2.84 2.84 0 002.61-.37z" fill="#f26322"/>
    <path d="M237.73 88.32l69.66-40.2c1-.55 1.73-.18 1.73.84a3.71 3.71 0 01-1.73 2.85l-69.66 40.21c-.95.55-1.73.18-1.73-.84a3.72 3.72 0 011.73-2.86zM237.73 97.7l69.66-40.21c1-.55 1.73-.17 1.73.84a3.71 3.71 0 01-1.73 2.85l-69.66 40.21c-.95.56-1.73.18-1.73-.84a3.72 3.72 0 011.73-2.85zM237.73 107.12l69.66-40.21c1-.55 1.73-.17 1.73.84a3.71 3.71 0 01-1.73 2.85l-69.66 40.21c-.95.56-1.73.18-1.73-.84a3.72 3.72 0 011.73-2.85z" fill="#fafafa"/>
    <path fill="#ffa8a7" d="M360.14 177.04h5.9v8.6h-5.9zM339.393 166.579l5.896-.203.296 8.595-5.897.203z"/>
    <path d="M365.66 93.12c0 5.64.73 42.11.73 42.11.14 1.62 1.66 4.61 1.33 10.85-.44 8.46-1.18 32-1.18 32s-2.76 2.75-6.67 0c0 0-5.35-31.95-6.41-40.33-.92-7.32-2.49-27.21-2.49-27.21l-5.42 23.36s1 5.5 1.18 9.39-1 26.31-1 26.31a6.44 6.44 0 01-6.42.25s-4.76-32.73-5.41-36.29 4.15-40.44 4.15-40.44z" fill="#455a64"/>
    <path d="M356.78 54.05h.08a11.7 11.7 0 018.8 11.39v27.68c-4.14 4.5-18.57 6.6-27.61 0v-28.8c0-4.6 2.55-10.13 9.61-10.54z" fill="#f26322"/>
    <path d="M358.76 30.51a3.15 3.15 0 012.61.92c1.12 1.14.88 3.26 0 8.12l-3.46.4zM338.62 29.12a5.46 5.46 0 01-2.17-.44c-1.06-.61-1.33.59-.75 1.64a4.92 4.92 0 004 2.67c0-.15 1-2.7 1-2.7z" fill="#263238"/>
    <path d="M357.14 39.95c.52.31 1.25-.68 1.88-1.34a2.23 2.23 0 013.73.61c1.05 2.21-1.33 5.15-2.73 6.12a2.46 2.46 0 01-2.88.25l-.36 8.46a9 9 0 01-6.81 5.16c-5 .68-3.94-3.42-2.31-5.43v-3.07a11.93 11.93 0 01-3.78.19c-.65-.17-2.19-2-3.19-4.13-1.12-2.35-3-6.52-1.33-13.57 1.79-7.57 9.92-7.8 14.77-4.75s3.01 11.5 3.01 11.5z" fill="#ffa8a7"/>
    <path d="M357.14 40.82c.26 0 1.24-1.63 1.88-2.21.89-.8-.26-8.1-.26-8.1s.9-2.76-.85-4.6-5.14-1.52-7.62-1.61a22.27 22.27 0 01-8.86-1.78c-3.51-1.53-3.78-1.71-4.21-.16s-.61 5.08 1.5 7.46l1.74.64s.95.84 4.23 1.24a47.87 47.87 0 009.09-.18c.95-.13 1.16.8 1.67 3.32.45 2.21.83 5.96 1.69 5.98z" fill="#263238"/>
    <path d="M358.76 31.12l3.1-1.66a1.71 1.71 0 00-2.35-.78 1.85 1.85 0 00-.75 2.44z" fill="#263238"/>
    <path d="M347.67 50.71a35.73 35.73 0 006.21-1.78 5.4 5.4 0 002.22-2.2 7.24 7.24 0 01-1.26 2.59c-1.18 1.5-7.17 2.61-7.17 2.61z" fill="#f28f8f"/>
    <path d="M348.77 38.8a.93.93 0 10.92-1 .95.95 0 00-.92 1zM349.75 35.32l2 1.09a1.18 1.18 0 00-.46-1.57 1.09 1.09 0 00-1.54.48z" fill="#263238"/>
    <path d="M348.84 45.05l-2.1.79a1.1 1.1 0 001.43.7 1.18 1.18 0 00.67-1.49z" fill="#f28f8f"/>
    <path d="M340.55 36.12l1.8-1.39a1.09 1.09 0 00-1.56-.24 1.2 1.2 0 00-.24 1.63zM341.11 38.54a.92.92 0 00.92 1 1 1 0 10-.92-1z" fill="#263238"/>
    <path fill="#f28f8f" d="M345.8 37.67l-.3 5.54-2.9-.98 3.2-4.56z"/>
    <path d="M360.15 182.72v-.84c-.57.24-1.88 5.25-4.22 7.39-1.87 1.7-4.41 3.66-5.05 5.55s3.54 3.06 5.28 2.75c2-.36 5.52-1.78 6.4-3.1s1.29-3.27 2-4.23 2.36-2.05 2.75-3.17a7.16 7.16 0 00-.34-3.1c-.27-1-.57-2.19-.93-2.09v.64a4.62 4.62 0 01-2.95 1c-.85.03-2.95-.14-2.94-.8zM339.62 173.37c-.31 0-.56.44-1.24 1.18a12.85 12.85 0 01-3.47 2.5c-2.21 1.1-6.51 2.8-8.45 3.68-1.22.55-1.16 2 .09 2.85s4.29 1.44 7.94.62c2-.44 4.56-2.27 6.2-2.17s4.69.07 5.9-.76.72-2.61.38-4.13c-.37-1.67-.91-4.22-1.46-4.1v.52c-.71 1.07-4.32 1.51-5.88.72z" fill="#263238"/>
    <path d="M358.55 57.89l-18.24 18.86s-16-2.86-21.46-4.43c-1.72-.49-2.92-3.06-3.3-5a3.85 3.85 0 00-1.37-2.59s0 1.41-.36 3.72c-.14 1-1.72 1.13-3.13 1.44-5 1.08-6.7 0-8.77 1.44-1.6 1.14.41 4.1 4.06 5.1 5.13 1.41 8 .71 11.08 1.48 2.41.6 19.75 6 23.05 6.76 1.74.38 3.07.26 5-1.61s16.29-14.43 16.29-14.43z" fill="#ffa8a7"/>
    <path d="M359.36 57.24c-2-.51-14.2 14-14.2 14l6.72 5.64s8.7-5.7 10.24-8 3.29-10.13-2.76-11.64z" fill="#f26322"/>
    <path d="M352.32 77.26s9.18-8.22 9.61-9.12c.83-1.73.6-4.93.6-4.93s1 2.78 0 4.93-8 8.26-9.11 9.31l-1.13 1.06-1.09-1 .65-.57z" fill="#f26322"/>
    <path d="M352.32 77.26s9.18-8.22 9.61-9.12c.83-1.73.6-4.93.6-4.93s1 2.78 0 4.93-8 8.26-9.11 9.31l-1.13 1.06-1.09-1 .65-.57z" opacity=".2"/>
    <path d="M306.2 36.56c2-.22 3.33-1.7 3.78-1.29a1.11 1.11 0 01.06 1.45 13.72 13.72 0 01-3 1.73 22.85 22.85 0 00-.54 3.09c-.17 1.53-.11 4.59-1.42 5.63-3.91 3.14-4.91-1.84-4.76-5.18.23-4.15 3.79-5.2 5.88-5.43z" fill="#f28f8f"/>
  </g>
</svg>
