<svg xmlns="http://www.w3.org/2000/svg" xmlns:xlink="http://www.w3.org/1999/xlink" viewBox="0 0 387 244.6"><defs><linearGradient id="bc39fc79-25af-48f3-a57a-226967dc6565" x1="32.15" y1="163.52" x2="50.37" y2="121.7" gradientTransform="matrix(1, 0, 0, -1, 0, 246)" gradientUnits="userSpaceOnUse"><stop offset="0" stop-color="#3d4451"/><stop offset="1" stop-color="#3d4451"/></linearGradient><linearGradient id="b32cdafd-0630-459d-b82f-863fc3627827" x1="38.84" y1="161.67" x2="39.19" y2="161.67" xlink:href="#bc39fc79-25af-48f3-a57a-226967dc6565"/><linearGradient id="bbac9505-a222-4317-9428-ec05fd9a29aa" x1="45.4" y1="157.74" x2="49.6" y2="157.74" xlink:href="#bc39fc79-25af-48f3-a57a-226967dc6565"/><linearGradient id="ae14b349-4957-48dc-852f-223b6ce9896e" x1="47.9" y1="150.55" x2="54.4" y2="150.55" xlink:href="#bc39fc79-25af-48f3-a57a-226967dc6565"/><linearGradient id="e12bacdb-706a-486f-8726-88b2cf858416" x1="23.46" y1="152.19" x2="28.42" y2="152.19" xlink:href="#bc39fc79-25af-48f3-a57a-226967dc6565"/><linearGradient id="b2e9196c-7997-4b35-b324-445facac59a0" x1="28.59" y1="159.2" x2="31.6" y2="159.2" xlink:href="#bc39fc79-25af-48f3-a57a-226967dc6565"/></defs><g style="isolation:isolate"><g id="e61a20ff-48e1-49b3-9ebe-3e1f8b140dd5" data-name="Layer 2"><g id="bde95601-1968-4232-b18c-1320d2c75ffc" data-name="Layer 1"><rect width="387" height="244.6" style="fill:none"/><path d="M226.89,89.22A20.12,20.12,0,0,1,244,90.93c2.42,1.42-.15,4.94-2.54,3.53a15.38,15.38,0,0,0-12.8-1.28C226.08,94.08,224.24,90.13,226.89,89.22Z" style="fill:#382f25;opacity:0.35000000000000003;mix-blend-mode:multiply"/><path d="M189,152.18h0c6-1.21,12.37,3,13.88,9.24l5.56,33.29a75.14,75.14,0,0,1-18.85,4.09L182,164.5C180.34,158.77,183.43,153.31,189,152.18Z" style="fill:#5f878c"/><path d="M210,204.22l37.9,21.58s13.92-11.75,26.67,0,1.51,12.3,1.51,12.3H248.87l-40.54-14.27a22.76,22.76,0,0,1-16.75-16l-2-9a75.14,75.14,0,0,0,18.85-4.09Z" style="fill:#725441"/><path d="M207.54,238.1H141.66l-6.09-75.61c-1.4-17.41,12.92-32.28,31.1-32.28h0c15.82,0,29.14,11.39,31,26.49Z" style="fill:#32444b"/><path d="M149.08,152.18h0a10.74,10.74,0,0,1,12.62,8.46q.08.39.12.78l1.47,33.29A81.09,81.09,0,0,1,144,198.8l-3.37-34.3A10.74,10.74,0,0,1,149.08,152.18Z" style="fill:#5f878c"/><path d="M171.53,209,199,225.8s15.36-11.75,26.67,0,0,12.3,0,12.3H198.41l-26.62-9.8A21.41,21.41,0,0,1,171.53,209Z" style="fill:#825f4b"/><path d="M163.29,194.71l.42,9.51,7.82,4.79a21.42,21.42,0,0,0,.26,19.29l-12.16-4.47a19.33,19.33,0,0,1-14.8-16l-.88-9A81,81,0,0,0,163.29,194.71Z" style="fill:#725441"/><path d="M167.81,118.69l-7.38,12.13,5.53,11a11.14,11.14,0,0,0,20.56-1.6l3.83-11.95Z" style="fill:#faa285"/><rect x="146.76" y="49.01" width="108.46" height="77.6" rx="37.23" transform="translate(90.93 277.53) rotate(-83.48)" style="fill:#725441"/><path d="M210.48,126.12c3.21,4.45,5.24,5.68,10,6.67" style="fill:none;stroke:#de7d68;stroke-linecap:round;stroke-linejoin:round;stroke-width:1.39522858604354px"/><path d="M211.17,84.85a24.67,24.67,0,0,1,17.15,1.36c2.42,1.12-.15,3.92-2.55,2.8A18.86,18.86,0,0,0,213,88C210.36,88.71,208.52,85.57,211.17,84.85Z" style="fill:#382f25;opacity:0.35000000000000003;mix-blend-mode:multiply"/><rect x="175.39" y="230.36" width="99.46" height="7.74" rx="3.71" style="fill:#848689"/><path d="M224.11,233l15.29-68.21a4,4,0,0,1,3.8-3.19h67.47a4.1,4.1,0,0,1,3.92,4.27,3.78,3.78,0,0,1-.12.82l-15,68.21a4,4,0,0,1-3.8,3.21H227.91a4.09,4.09,0,0,1-3.93-4.25A4.16,4.16,0,0,1,224.11,233Z" style="fill:#848689"/><path d="M223.84,238.1l17.46-73.32a4.15,4.15,0,0,1,4-3.19h65.08a4.14,4.14,0,0,1,4.11,4.17,4.06,4.06,0,0,1-.11.92l-15.91,68.21a4.16,4.16,0,0,1-4,3.21Z" style="fill:#9b9da0"/><path d="M229,116.72l1.31-6,1.31-6c.38-1.56,1.57-2.39,2.66-1.85a2.64,2.64,0,0,1,1.23,1.63l1.63,5.79,1.63,5.78c1.07,3.8-.21,8.14-2.87,9.67a3.76,3.76,0,0,1-1.75.54h0c-2.87.15-5.28-3-5.39-7.15a10.48,10.48,0,0,1,.24-2.51Z" style="fill:#825f4b"/><path d="M165.23,82.7a11.44,11.44,0,0,1,7.6,2.89c-.52,1.48-8.92,20.81-8.92,20.81-5.5-.86-10.16-6.48-10.16-12.22A11.48,11.48,0,0,1,165.23,82.7Z" style="fill:#faa285"/><ellipse cx="219.16" cy="106" rx="9.35" ry="8.87" style="fill:#fff"/><path d="M215.22,110.56a5.19,5.19,0,1,0,5.19-5.19,5.19,5.19,0,0,0-5.19,5.19Z" style="fill:#382f25"/><path d="M279.41,203.79c-1,4.45-3.89,7.58-6.51,7s-3.95-4.64-3-9.09,3.88-7.58,6.5-7S280.38,199.35,279.41,203.79Z" style="fill:none;stroke:#f26322;stroke-miterlimit:10;stroke-width:1.57302284240723px"/><path d="M72.36,17.42a16.16,16.16,0,0,0-2.4.36c-1.52-4.24-5.37-7.13-9.67-6.84a8.94,8.94,0,0,0-4.12,1.38A11.48,11.48,0,0,0,45.43,6.08c-6,.41-10.59,5.85-10.67,12.41A15.51,15.51,0,0,0,32,18.41C23,19,16.28,27.59,17,37.54S25.44,55.06,34.4,54.45a7.9,7.9,0,0,0,1.09-.12c3,7.29,9.83,12.16,17.41,11.65,6.47-.45,11.86-4.71,14.53-10.69a16.16,16.16,0,0,0,7.64,1.28c9.74-.67,17-10,16.29-20.78S82.07,16.76,72.36,17.42Z" style="fill:none;stroke:#5a5b5d;stroke-miterlimit:10;stroke-width:2px"/><g id="f3534ffc-1c39-4737-b896-5ade177d8b66" data-name="e02e4fed-0812-4f68-8cee-0d1bd16f3023"><g id="f13b6f9d-904b-41f7-974b-d4c176cb5c5e" data-name="fb6a014d-521f-4464-a692-ae544cdb44f4"><path id="b376e277-dada-4e8b-94ff-1c8857403f65" data-name="a3af84de-35f7-4ddc-8773-0970d0b91c82" d="M316,62.65a5.15,5.15,0,0,0-.53,2.28c-.07,3.92.17,3.31,0,5.11a7.74,7.74,0,0,1-.83,2.61,19.53,19.53,0,0,1-1.71,2.61A32.24,32.24,0,0,0,310.57,79a8.84,8.84,0,0,0-.74,2.51,11.26,11.26,0,0,0-.07,1.74,15,15,0,0,0-1.14,1.54,2.72,2.72,0,0,1-1.5.55,2.11,2.11,0,0,0-1.33.65l-.06.11c-.46.88.1,2.4-.17,3.53a6.09,6.09,0,0,0-.32,1.34,1.31,1.31,0,0,0,.19.69,1.71,1.71,0,0,0,1,.66,18.34,18.34,0,0,0,1.8.48h.24c.32.08.64.16,1,.22l.43.09a7.43,7.43,0,0,1,1.84.58c.33.13.66.24,1,.34a4.62,4.62,0,0,0,2.15.24,2.2,2.2,0,0,0,1-.44,3.7,3.7,0,0,0,.82-.9,2.57,2.57,0,0,0,.27-.52,1.09,1.09,0,0,1,.07-.24,6.73,6.73,0,0,1,2.67-.37,9.45,9.45,0,0,1,4.22.89h0L324,93a1.77,1.77,0,0,0,.54.83,2.45,2.45,0,0,0,.53.38,3,3,0,0,0,.65.25,4.07,4.07,0,0,0,.7.1,2.89,2.89,0,0,0,.72,0,2.58,2.58,0,0,0,1-.37,4.6,4.6,0,0,0,.73-.59h0c.15-.14.31-.28.48-.41l.32-.24.31-.25.77-.59c.26-.2.55-.4.86-.6l.75-.48.79-.53a3.83,3.83,0,0,0,1.33-1.2.88.88,0,0,0,.11-.5c0-.58-.71-1.1-1.32-1.61a3.81,3.81,0,0,1-.74-.76,2.53,2.53,0,0,1-.31-.74,3.59,3.59,0,0,0-.42-1.5,1.14,1.14,0,0,0-.93-.54h-.17a6.93,6.93,0,0,0,.3-2.48c-.12-1.92-1.32-4-2.9-6.26-.53-.78-1.15-1.59-1.59-2.28a9.14,9.14,0,0,1-1.25-2.57,20.33,20.33,0,0,1-.24-3.82c.08-3-.87-4.46-2-5.33a5.39,5.39,0,0,0-3.43-.82h0A5,5,0,0,0,316,62.65Z" style="fill:#282828;fill-rule:evenodd"/><path id="bde46a36-4fff-48e0-8a3b-8ebe7d40da01" data-name="fb26584f-24ad-4ea2-bb9e-5da6fb47c79a" d="M308.37,85.34c-.6.29-2,.28-2.32.86a4.63,4.63,0,0,0-.13,2.14,5.5,5.5,0,0,1-.25,1.89c-.19.55-.26.75,0,1.24s1.51.73,3.17,1.13a11.63,11.63,0,0,1,3,.83c1.15.45,2.78,1,3.83.18A2.73,2.73,0,0,0,316.76,92a2.59,2.59,0,0,0-.11-1c-.3-.83-.91-1.18-1.49-2-1.05-1.6-2.18-3.12-3.08-4.46-.63-1-1.14-1.18-1.57-1.1-1.32.23-.9,1.44-2.14,2Z" style="fill:#fcc624;fill-rule:evenodd"/><path id="a97d61cf-1959-4849-a16c-df4c12aebef8" data-name="a9c738cf-8948-44dc-931c-cb4a931e4bad" d="M325.22,84c-.59.42-.46,1.65-.49,2.3-.06,1-.06,2.11-.1,2.55a28.18,28.18,0,0,0-.54,3.16,2.19,2.19,0,0,0,.61,1.68,2.91,2.91,0,0,0,2.39.63c1.05-.15,1.45-.81,2.14-1.32s1.38-1.12,2.28-1.7a23.1,23.1,0,0,0,2.57-1.79.7.7,0,0,0,.2-.81A5.21,5.21,0,0,0,333,87.33c-1.5-1.24-.86-2.39-1.48-3A1,1,0,0,0,331,84c-1.19-.25-1.52.22-2.23.15a14.81,14.81,0,0,1-2-.11c-.54-.06-1.15-.28-1.52,0Z" style="fill:#fcc624;fill-rule:evenodd"/><path id="b7d71212-649c-445f-9e0c-6cd52d3e7212" data-name="a4e8a34c-6349-45e0-8e04-5c163c54a101" d="M316.29,70.23v.06c.18.18.38.35.56.55s.4.49.57.65a1.77,1.77,0,0,0,1.07.51,3.05,3.05,0,0,0,2.24-.61c.34-.23.81-.64,1.09-.85.45-.34.58-.32.72-.49a1.38,1.38,0,0,0,.16-.87.52.52,0,0,0-.27-.4,6.35,6.35,0,0,0-1.18-.48h0c-.32-.12-.65-.23-.92-.34a3.35,3.35,0,0,0-1.61-.38,2.72,2.72,0,0,0-.74.16h0a7.4,7.4,0,0,0-1.15.68,2.71,2.71,0,0,0-.76.75c-.11.16-.27.5-.12.7,0,0,.39.2.78.43a3.53,3.53,0,0,0,2,.52,4.48,4.48,0,0,0,1.49-.38,8,8,0,0,0,1.41-.9,2.34,2.34,0,0,1,.31-.24c.08,0,.34,0,.33.07s-.31.19-.42.28a10.32,10.32,0,0,1-1.53,1,5.18,5.18,0,0,1-1.55.43,2.76,2.76,0,0,1-1.14-.15,4.4,4.4,0,0,1-.93-.44c-.12-.07-.24-.12-.4-.23Z" style="fill:#fcc624;fill-rule:evenodd"/><path id="fcfbcb97-347e-4f81-9e78-33b5d411560b" data-name="be9acb16-06a5-49c3-9295-cc811faa8c3a" d="M321.4,65a1.7,1.7,0,0,0-1.57,1.24,3.38,3.38,0,0,0-.15,1.34h0c.21.06.42.14.66.23a1.28,1.28,0,0,1,.06-1.13.84.84,0,0,1,1.08-.46l.16.09a1.2,1.2,0,0,1,.22,1.5,1.05,1.05,0,0,1-.39.42l.66.24a4.37,4.37,0,0,0,.65-1.13,1.92,1.92,0,0,0-.81-2.2,1.26,1.26,0,0,0-.57-.14Zm-4.5.3a.84.84,0,0,0-.35.07h0c-.54.19-.75,1.1-.56,1.93a2.36,2.36,0,0,0,.57,1.15l.18-.12.13-.1a1.22,1.22,0,0,1-.52-1.22c.06-.54.42-.85.8-.71a1.21,1.21,0,0,1,.57,1.24v.2l.3-.14h.07a2.48,2.48,0,0,0,0-.86c-.16-.81-.53-1.42-1.12-1.42Zm5.7,5a3.79,3.79,0,0,0-.69.43c-.25.19-.72.6-1.07.84a4.1,4.1,0,0,1-.74.41,2.64,2.64,0,0,1-1,.26,2,2,0,0,1-1.83-.64c-.18-.18-.31-.39-.54-.64a2.64,2.64,0,0,0-.39-.36,18.89,18.89,0,0,1-.93,3.93,8.66,8.66,0,0,0-.87,2,7.89,7.89,0,0,0-1.41,2.71,12.06,12.06,0,0,0-.67,3.56,3.91,3.91,0,0,1-.38-1.2A5.94,5.94,0,0,1,313.5,77c.06-.06.05-.08,0-.08h-.08a6.29,6.29,0,0,0-1.7,4.92,4.13,4.13,0,0,0,.74,2h0a3.51,3.51,0,0,0,.37.4h0a8.67,8.67,0,0,0,1.18,1c1.14.87,2,1.33,2.11,1.9a1.32,1.32,0,0,1-.85,1.56,5.81,5.81,0,0,0,4.31,1.2,6,6,0,0,0,4.77-2.37,14.83,14.83,0,0,1,.06-1.49,9.45,9.45,0,0,1,.11-1.59,1.4,1.4,0,0,1,.09-.29,1.07,1.07,0,0,1,.9-.61,3,3,0,0,1,.6,0c0-.28.06-.55.08-.81a6.4,6.4,0,0,1,3.56.2,2.06,2.06,0,0,0-.4-.25,5.72,5.72,0,0,0-2.2-.4,6.21,6.21,0,0,0,.42-2,4.91,4.91,0,0,0-2-3.77h-.06a5,5,0,0,1,1.68,4.12,4.45,4.45,0,0,1-.55,1.67h-.41A10.26,10.26,0,0,0,325,77.1a5.15,5.15,0,0,0-.79-1.12,6.13,6.13,0,0,0-.64-1.86,18.37,18.37,0,0,1-1-3.94Z" style="fill:#f5f5f5;fill-rule:evenodd"/><path id="f2892990-bdd6-40e1-8e8d-fee4d13fb0e0" data-name="a8c074f4-2a08-4b40-9725-e3e17db2454c" d="M330.08,83.8a1.87,1.87,0,0,0,.07-.22c.08-.79-1.45-1-2.64-.92a5,5,0,0,0-1.22.15.92.92,0,0,0-.7.8c-.1.75.13,2.34.87,2.68a2.56,2.56,0,0,0,2.63-.92,8,8,0,0,0,1-1.57Z" style="fill:#282828;fill-rule:evenodd"/><path id="aa653630-2f6d-419f-ae6e-a2f2bbfe301a" data-name="fa5a5386-e568-4af0-86ac-da57dcb4cd4b" d="M318.37,68c-.05-.07-.26,0-.36,0a.17.17,0,0,0-.14.22.09.09,0,0,0,.1,0,.76.76,0,0,0,.19-.12l.21-.15Z" style="fill:#282828;fill-rule:evenodd"/><path id="b2b0fbae-832c-4348-9f62-f657d8d2144f" data-name="ed3d1070-9dfe-477d-9aa6-957bf8281913" d="M319,68a.6.6,0,0,1,.49,0c.15.12.14.21.1.26S319.13,68,319,68Z" style="fill:#282828;fill-rule:evenodd"/></g></g><path d="M65.21,31.71a3.08,3.08,0,0,0-3-3,3.21,3.21,0,0,0-1.29.3,6.6,6.6,0,0,0-13,1.82c0,.28,0,.55,0,.82h0a4.74,4.74,0,0,0-5,4.44,4.72,4.72,0,0,0,5,4.43H64.32a4.71,4.71,0,0,0,5-4.44A4.61,4.61,0,0,0,65.21,31.71Z" style="fill:#c7ddeb"/><path d="M65.19,30.08a3.73,3.73,0,0,0-3.69-3.66,3.62,3.62,0,0,0-1.58.36A8,8,0,0,0,44.16,29a8.26,8.26,0,0,0,.07,1h-.07c-3.32,0-6,2.43-6,5.4s2.7,5.4,6,5.4h20c3.33,0,6-2.43,6-5.4A5.6,5.6,0,0,0,65.19,30.08Z" style="fill:none;stroke:#3d4451;stroke-miterlimit:10;stroke-width:1.26183807849884px"/><line x1="51.41" y1="40.31" x2="51.41" y2="47.57" style="fill:none;stroke:#3d4451;stroke-miterlimit:10;stroke-width:1.26183807849884px"/><polyline points="60.94 41.15 60.94 44.81 67.83 44.81 67.83 47.32" style="fill:none;stroke:#3d4451;stroke-miterlimit:10;stroke-width:1.05152940750122px"/><polyline points="47.2 41.36 47.2 45.02 40.75 45.02 40.75 48.17" style="fill:none;stroke:#3d4451;stroke-miterlimit:10;stroke-width:1.05152940750122px"/><path d="M39.42,49.44a1.36,1.36,0,1,1,1.37,1.35h0A1.36,1.36,0,0,1,39.42,49.44Z" style="fill:#7eb9c7;stroke:#3d4451;stroke-miterlimit:10;stroke-width:0.823830127716065px"/><path d="M49.91,49.08a1.58,1.58,0,0,1,3.16,0,1.57,1.57,0,0,1-1.57,1.59h0A1.58,1.58,0,0,1,49.91,49.08Z" style="fill:#f04f4c;stroke:#3d4451;stroke-miterlimit:10;stroke-width:0.946378588676453px"/><path d="M66.41,49.08a1.46,1.46,0,1,1,2.92,0,1.45,1.45,0,0,1-1.45,1.47h0A1.45,1.45,0,0,1,66.41,49.08Z" style="fill:#fdc345;stroke:#3d4451;stroke-miterlimit:10;stroke-width:0.756682515144348px"/><path d="M60.64,49.59A1.4,1.4,0,1,1,62,51a1.4,1.4,0,0,1-1.4-1.4Z" style="fill:#7eb9c7;stroke:#3d4451;stroke-miterlimit:10;stroke-width:0.788902819156647px"/><polyline points="56.72 41.36 56.72 49.56 60.97 49.56" style="fill:none;stroke:#3d4451;stroke-miterlimit:10;stroke-width:1.05152940750122px"/><path d="M56.18,81.5a15.05,15.05,0,0,0-2.11.28,8.59,8.59,0,0,0-8.44-5.93A8,8,0,0,0,42,77a10.11,10.11,0,0,0-9.38-5.47c-5.3.3-9.39,4.93-9.54,10.54A14.54,14.54,0,0,0,20.59,82c-7.9.45-13.91,7.73-13.42,16.25s7.28,15.07,15.18,14.62a5.55,5.55,0,0,0,1-.09c2.56,6.26,8.52,10.49,15.2,10.11a15.37,15.37,0,0,0,12.92-9,14.69,14.69,0,0,0,6.6,1.22c8.58-.49,15.11-8.39,14.58-17.65S64.76,81,56.18,81.5Z" style="fill:none;stroke:#5a5b5d;stroke-miterlimit:10;stroke-width:1.87361884117126px"/><path d="M98.34,98.08a2.78,2.78,0,0,0,.1-.76,3,3,0,0,0-4.55-2.49,4,4,0,0,0-7.53.89H86a4.89,4.89,0,1,0,1.67,9.48,4.71,4.71,0,0,0,9.22-1.39h.43a3,3,0,0,0,1.06-5.72Z" style="fill:none;stroke:#5a5b5d;stroke-miterlimit:10;stroke-width:1.5px"/><path d="M118.18,91.75a2.17,2.17,0,0,0,.07-.57A2.24,2.24,0,0,0,116,88.94a2.32,2.32,0,0,0-1.2.34,3.06,3.06,0,0,0-5.71.68h-.31a3.71,3.71,0,0,0,0,7.42h0a3.4,3.4,0,0,0,1.27-.22,3.58,3.58,0,0,0,7-1h0a1.71,1.71,0,0,0,.32,0,2.25,2.25,0,0,0,.81-4.35Z" style="fill:none;stroke:#5a5b5d;stroke-miterlimit:10;stroke-width:1.5px"/><path d="M64.94,130.51a12.92,12.92,0,0,0-1.38,1.57c-3.75-2.41-8.18-2.53-10.86,0a6.84,6.84,0,0,0-1.87,3.29c-4-1.88-8.43-1.65-11.23,1-3.75,3.57-3.29,10.21.89,15.26a11.33,11.33,0,0,0-1.93,1.45C33,158.41,34,168.58,40.9,175.8s17,8.77,22.57,3.45a8.43,8.43,0,0,0,.65-.69c6.71,3.94,14.42,4,19.15-.54,4-3.85,4.88-10,2.8-16a12.24,12.24,0,0,0,5.93-3.1c6.07-5.78,4.93-16.82-2.54-24.67S71,124.73,64.94,130.51Z" style="fill:none;stroke:#5a5b5d;stroke-miterlimit:10;stroke-width:2px"/><rect x="66.83" y="156.24" width="11.21" height="7.8" style="fill:#c7ddeb"/><rect x="61.01" y="164.6" width="20.42" height="3.85" style="fill:#7eb9c7;stroke:#3d4451;stroke-miterlimit:10;stroke-width:0.941496849060059px"/><polyline points="67.88 154.18 64.4 154.18 64.4 164.46 77.49 164.46 77.49 154.18 73.63 154.18" style="fill:none;stroke:#3d4451;stroke-miterlimit:10;stroke-width:1.0633031129837px"/><path d="M71,160.18h0a2.57,2.57,0,0,1-2.57-2.57V149.9A2.57,2.57,0,0,1,71,147.33h0a2.57,2.57,0,0,1,2.57,2.57v7.71A2.57,2.57,0,0,1,71,160.18Z" style="fill:#c7ddeb;stroke:#3d4451;stroke-miterlimit:10;stroke-width:0.812523186206818px"/><circle cx="71.02" cy="149.9" r="1.28" style="fill:#f04f4c;stroke:#3d4451;stroke-miterlimit:10;stroke-width:0.650020599365234px"/><circle cx="70.97" cy="157.56" r="1.28" style="fill:#fdc345;stroke:#3d4451;stroke-miterlimit:10;stroke-width:0.683556318283081px"/><path d="M70.53,145.68l-4.08-4.08a2,2,0,0,0-2.82.09h0a2,2,0,0,0-.09,2.81l4.09,4.08" style="fill:none;stroke:#3d4451;stroke-linecap:round;stroke-miterlimit:10;stroke-width:0.840341866016388px"/><circle cx="65.05" cy="143.15" r="1.03" style="fill:#6b968b;stroke:#3d4451;stroke-miterlimit:10;stroke-width:0.487515270709991px"/><path d="M61.18,142.45l-4.11,2.39a1.66,1.66,0,0,0-.54,2.27h0a1.65,1.65,0,0,0,2.23.67l4.16-2.39" style="fill:none;stroke:#3d4451;stroke-linecap:round;stroke-miterlimit:10;stroke-width:0.840341866016388px"/><path d="M51.46,147.76l1.77.66.21.3.26-.18-.27-.39,1.39-.94a.33.33,0,0,1,.45.08h0l.12.17,1.1-.69.44.65-1.11.69.18.26a.25.25,0,0,1-.06.35h0l-1.45,1-.3-.45-.26.18.2.3-.06,1.87L53,152.74l-2.14-.23a.12.12,0,0,1-.11-.14.17.17,0,0,1,.06-.1l1.55-.66a.37.37,0,0,0,.24-.32l.17-1.25a.41.41,0,0,0-.31-.45l-1.23-.31a.42.42,0,0,0-.37.1l-1.19,1.21a.12.12,0,0,1-.18,0,.14.14,0,0,1,0-.13l.58-2.06Z" style="fill:#3d4451"/><path d="M112.72,120.24a2.52,2.52,0,0,0-.35-.67,3,3,0,0,0-5.15.62,4,4,0,0,0-5.59,5.12l-.34.22a4.89,4.89,0,1,0,5.71,7.95,5.06,5.06,0,0,0,1.18-1.22,4.72,4.72,0,0,0,6.68-6.51h0l.36-.22a3,3,0,0,0-2.48-5.27Z" style="fill:none;stroke:#5a5b5d;stroke-miterlimit:10;stroke-width:1.5px"/><path d="M125.15,103.53a1.79,1.79,0,0,0-.27-.51,2.24,2.24,0,0,0-3.12-.52h0a2.17,2.17,0,0,0-.77,1,3.05,3.05,0,0,0-4.24,3.88l-.26.17a3.71,3.71,0,0,0,4.35,6,3.59,3.59,0,0,0,.88-.9,3.58,3.58,0,0,0,5.07-4.94h0l.27-.17a2.25,2.25,0,0,0-1.88-4Z" style="fill:none;stroke:#5a5b5d;stroke-miterlimit:10;stroke-width:1.5px"/><path d="M132.94,89.16a1.72,1.72,0,0,0,.21-.43A1.86,1.86,0,0,0,132,86.36a2,2,0,0,0-1,0,2.54,2.54,0,0,0-4.66-1l-.24-.1a3.1,3.1,0,1,0-2,5.87,2.93,2.93,0,0,0,1.05.17,3,3,0,0,0,5.77,1h0l.25.11a1.86,1.86,0,0,0,1.8-3.18Z" style="fill:none;stroke:#5a5b5d;stroke-miterlimit:10;stroke-width:1.24258136749268px"/><path d="M99.72,67.41a3,3,0,0,0,.64-.41,3,3,0,0,0,.39-4.17,3,3,0,0,0-1.38-.92,4,4,0,0,0-5.49-5.22,3.92,3.92,0,0,0-.25-.32,4.9,4.9,0,0,0-7.56,6.25,5,5,0,0,0,1.29,1.1,4.72,4.72,0,0,0,7,6.2h0c.08.12.16.24.25.35a3,3,0,0,0,5.08-2.84Z" style="fill:none;stroke:#5a5b5d;stroke-miterlimit:10;stroke-width:1.5px"/><path d="M115.26,76.62a2.22,2.22,0,0,0,.8-3.45l0,0a2.28,2.28,0,0,0-1-.7,3.06,3.06,0,0,0-4.17-4l-.19-.24A3.71,3.71,0,0,0,105,73a4,4,0,0,0,1,.83,3.58,3.58,0,0,0,5.29,4.71h0a2.48,2.48,0,0,0,.19.26,2.24,2.24,0,0,0,3.85-2.16Z" style="fill:none;stroke:#5a5b5d;stroke-miterlimit:10;stroke-width:1.5px"/><path d="M44.71,108.9c-1.32,1.57-3.25-1.36-1.77-2.5.31-.24-.13-.68-.44-.44-2.1,1.62.79,5.6,2.65,3.38C45.41,109,45,108.59,44.71,108.9Z" style="fill:url(#bc39fc79-25af-48f3-a57a-226967dc6565)"/><path d="M38.48,89.08c-6.72,0-10.21,7.64-6.31,11.9C34.8,103.85,34,106.4,34,106.4h8.11c-.94-3,.61-3.9,1.09-4.68C48.24,96.08,44.75,89.08,38.48,89.08Z" style="fill:#fff"/><path d="M41.22,101.8c-.41.52-2,1.34-1.39,3.75h-4.3a6.22,6.22,0,0,0-1.36-4.34,6.5,6.5,0,0,1,.44-8,4.88,4.88,0,0,1,3.63-1.53,5.41,5.41,0,0,1,2.45.69A5,5,0,0,1,43,95.69a7.42,7.42,0,0,1-.61,4.5,9.23,9.23,0,0,1-1.15,1.61" style="fill:#fdc345"/><path d="M38.48,89.08c-7.42,0-10.21,7.64-6.31,11.9C34.8,103.85,34,106.4,34,106.4h8.11c-.94-3,.61-3.9,1.09-4.68C48.24,96.08,43.56,89.08,38.48,89.08Z" style="fill:none;stroke:#3d4451;stroke-miterlimit:10;stroke-width:1.11451923847198px"/><path d="M36.4,106.23v-5.57c0-.73.18-2.15-.49-2.74-1-.87-2,.29-1.47,1.31.67,1.43,2.88,1.37,3.86.34.65-.69,1.18-2.94-.51-2.46-1.51.41-1.14,2.24-.1,2.9s3.62.65,4-.84c.37-1.28-1.31-1.74-2.16-1.09s-.72,1.78-.72,2.69c0,1.88.12,3.76.2,5.63a.32.32,0,0,0,.37.26.31.31,0,0,0,.26-.26c-.07-1.52-.15-3-.18-4.57,0-.18-.17-2.59.51-2.11l-.79.09c-1.08.14-1.47-.2-1.14-1-.88,1-1.7,1.18-2.46.4-1-.61-.93-.6.1,0,.25.38,0,1.58.06,2.09v4.87a.31.31,0,1,0,.62,0Z" style="fill:#3d4451"/><rect x="32.8" y="106.52" width="10.69" height="1.89" rx="0.73" style="fill:#7eb9c7;stroke:#3d4451;stroke-miterlimit:10;stroke-width:0.941456198692322px"/><rect x="32.8" y="108.41" width="10.69" height="1.89" rx="0.73" style="fill:#7eb9c7;stroke:#3d4451;stroke-miterlimit:10;stroke-width:0.941456198692322px"/><path d="M39.38,86.73l.23-4.8a.48.48,0,0,0-1,0l-.23,4.8c0,.61.92.61,1,0Z" style="fill:url(#b32cdafd-0630-459d-b82f-863fc3627827)"/><path d="M45.7,90.08l4.12-2.77c.54-.37,0-1.25-.52-.88l-4.12,2.76C44.64,89.56,45.18,90.44,45.7,90.08Z" style="fill:url(#bbac9505-a222-4317-9428-ec05fd9a29aa)"/><path d="M48.07,96.74l6.47-1.41c.77-.17.44-1.35-.33-1.18l-6.47,1.41C47,95.72,47.3,96.9,48.07,96.74Z" style="fill:url(#ae14b349-4957-48dc-852f-223b6ce9896e)"/><path d="M28.54,94,23.62,92.6A.52.52,0,0,0,23,93a.51.51,0,0,0,.36.63h0L28.26,95a.52.52,0,0,0,.28-1Z" style="fill:url(#e12bacdb-706a-486f-8726-88b2cf858416)"/><path d="M31.92,88,29,84.88c-.46-.49-1.19.25-.74.74l2.92,3.1C31.65,89.2,32.38,88.47,31.92,88Z" style="fill:url(#b2e9196c-7997-4b35-b324-445facac59a0)"/><path d="M258.71,125.32H285.9c2.26,0,4.1,2.14,4.1,4.74v12.18c0,2.61-1.84,4.74-4.1,4.74h-3.21l.21,7.25L276.74,147h-18c-2.25,0-4.09-2.13-4.09-4.74v-12.2C254.62,127.46,256.46,125.32,258.71,125.32Z" style="fill:#7eb9c7"/><path d="M266.61,131.89H242.83a3.36,3.36,0,0,0-3.59,3.06v7.86a3.36,3.36,0,0,0,3.59,3.06h2.8l-.64,6,5.85-6h15.77a3.35,3.35,0,0,0,3.58-3.06V135A3.35,3.35,0,0,0,266.61,131.89Z" style="fill:#fdc345"/><path d="M266.72,130.22H253.28v9.64c0,2.9,1.51,5.27,3.36,5.27h11.49a3.36,3.36,0,0,0,1.84-3v-8.57A3.3,3.3,0,0,0,266.72,130.22Z" style="fill:#f04f4c"/><path d="M266.36,138.75a4.63,4.63,0,0,0,.16-1.28l1.37-.61-.54-1.94-1.46.19a4.7,4.7,0,0,0-.82-1.06l.52-1.36-1.75-1-.87,1.13a4.59,4.59,0,0,0-1.38-.18l-.57-1.29-1.94.55.18,1.38a4.91,4.91,0,0,0-1.1.87l-1.31-.5-1,1.75,1.11.87a5.28,5.28,0,0,0-.15,1.37l-1.3.58.55,1.94,1.44-.19a4.75,4.75,0,0,0,.84,1l-.53,1.37,1.76,1,.91-1.18a5.1,5.1,0,0,0,1.29.14l.62,1.38,1.93-.54-.19-1.52a4.25,4.25,0,0,0,1-.79l1.43.55,1-1.75Zm-5.1,1.16a2.46,2.46,0,1,1,2.87-2,2.46,2.46,0,0,1-2.87,2Z" style="fill:#fdc345;stroke:#3d4451;stroke-linecap:round;stroke-linejoin:round;stroke-width:1.04162514209747px"/><path d="M266.21,129.66h-25.8a3.71,3.71,0,0,0-3.89,3.5v9a3.71,3.71,0,0,0,3.89,3.5h3.05l-.47,7.05,6.12-7.05h17.1a3.71,3.71,0,0,0,3.89-3.5v-9A3.71,3.71,0,0,0,266.21,129.66Z" style="fill:none;stroke:#3d4451;stroke-miterlimit:10;stroke-width:1.32305634021759px"/><path d="M256.62,122.16H283.2c2.2,0,4,2.32,4,5.16v13.24c0,2.84-1.81,5.16-4,5.16h-3.14l.78,8.36-6.6-8.36H256.62c-2.2,0-4-2.32-4-5.16V127.32C252.61,124.48,254.42,122.16,256.62,122.16Z" style="fill:none;stroke:#3d4451;stroke-miterlimit:10;stroke-width:1.76407516002655px"/><path d="M358.25,75.42a11.93,11.93,0,0,0-14.87-18A11.93,11.93,0,0,0,322,54.37a16.43,16.43,0,0,0-31.1,10.37,16.43,16.43,0,1,0,5.66,31A20.44,20.44,0,0,0,325,100.93l.12-.08a11.93,11.93,0,0,0,23.55-3.75c.34.1.68.19,1,.26a11.93,11.93,0,0,0,8.55-21.89Z" style="fill:none;stroke:#5a5b5d;stroke-miterlimit:10;stroke-width:1.78439056873322px"/><path d="M318.49,123.58a2.27,2.27,0,0,0,.27.71,3,3,0,0,0,5.18,0,4,4,0,0,0,5.59-.89,4.05,4.05,0,0,0,.59-3.49l.36-.18a4.89,4.89,0,0,0-4.67-8.59,5.22,5.22,0,0,0-1.33,1,4.71,4.71,0,0,0-7.43,5.63h0a3.29,3.29,0,0,0-.39.17,3,3,0,0,0,1.81,5.54Z" style="fill:none;stroke:#5a5b5d;stroke-miterlimit:10;stroke-width:1.5px"/><path d="M308.07,142.61a2.52,2.52,0,0,0,.21.54,2.24,2.24,0,0,0,3.94,0,3,3,0,0,0,4.69-3.32l.28-.14a3.71,3.71,0,1,0-3.55-6.52,3.53,3.53,0,0,0-1,.8,3.58,3.58,0,0,0-5.65,4.27h0a1.55,1.55,0,0,0-.29.14,2.25,2.25,0,0,0,1.36,4.2Z" style="fill:none;stroke:#5a5b5d;stroke-miterlimit:10;stroke-width:1.5px"/><path d="M296.35,153.94a1.93,1.93,0,0,0,0,.48,1.86,1.86,0,0,0,3.09,1.07A2.52,2.52,0,0,0,303,156a2.48,2.48,0,0,0,1-1.89h.25a3.08,3.08,0,0,0-1-6.07,3.52,3.52,0,0,0-1,.36,3,3,0,0,0-5.57,1.83h-.26a1.86,1.86,0,0,0-.06,3.66Z" style="fill:none;stroke:#5a5b5d;stroke-miterlimit:10;stroke-width:1.24258136749268px"/><path d="M144.36,192.57a1.47,1.47,0,0,0,1.47,2c9.8-1.11,16.37-2.82,16.11-7.23-.52-8.51,3.95-11,8.17-12.58s7.93,0,13.4-7.33c2.89-3.86-1.84-12.71.11-17.18,2-4.62,6.42-7.4,10.17-10.57s7.28-7.84,6.35-12.84c-.8-4.36-4.8-7.51-5.43-11.9-.64-4.58,2.56-8.7,5.78-11.83s6.58-5,7.37-9.57c.68-4-.06-8.19-2.92-11-2.6-2.54-.34-5.61-1.9-9,4.16,3.23,9.23,5.49,14.26,4.64,5.8-1,5.09-3.88,9.25-5a21.69,21.69,0,0,1,11.2-.43c4.73.76,6.41-3.47,7.7-5.56,2.05-3.32,7.68-5.38,9.17-13.37a3,3,0,0,0-1-2.88,87.05,87.05,0,0,0-21.05-12.31s-14-18.43-44.84-13.9c-27.22,4-35.1,22.94-35.1,22.94a24.12,24.12,0,0,0-10.88,9.52,23.75,23.75,0,0,0-3.45,16c.6,4.33,2.4,8.65,1.49,12.91-1,4.56-4.72,7.72-8.08,10.73s-6.79,6.82-6.7,11.49c.07,3.68,2.33,6.84,4.33,9.85s3.92,6.56,3.2,10.16c-.9,4.55-5.74,7.52-6.09,12.15-.34,4.46,3.6,7.87,7.33,9.93s8,4,9.61,8.2c1.08,2.87.54,6.11-.17,9.1s-4.56,9.8-1.13,13.33C145.73,184.75,145.45,189.27,144.36,192.57Z" style="fill:#382f25"/><g style="opacity:0.35000000000000003;mix-blend-mode:multiply"><path d="M250.18,59.93c-1.85.61-3.81.61-5.68,1.06a6.45,6.45,0,0,0-2.83,1.34,8.7,8.7,0,0,0-1.81,2.51,4.86,4.86,0,0,1-4.33,2.87,8.13,8.13,0,0,1-3.19-.84,12.67,12.67,0,0,0-3.6-1A13.76,13.76,0,0,0,222.53,67a21.59,21.59,0,0,1-5.36,1.54,8,8,0,0,1-5.06-1.24c-1.76-1.1-3.31-2.54-5.05-3.67a7.17,7.17,0,0,0-2.67-1.21,2.73,2.73,0,0,0-2.52.83,4.58,4.58,0,0,1-2.44,1.27c-1.22.21-2.46-.07-3.68,0a3.62,3.62,0,0,0-3,2.09,5.27,5.27,0,0,0,0,3.17c.55,2.4,1.78,4.55,2.46,6.91a9.35,9.35,0,0,1-.25,6.43c-1.84,4.3-5.9,6.66-8.57,10.27a12.25,12.25,0,0,0-2.45,6.76,25.31,25.31,0,0,0,.86,6.59,30.87,30.87,0,0,1,.94,6.2,14.2,14.2,0,0,1-1.56,6.57,15.79,15.79,0,0,1-9.4,8.13c-3.7,1.19-9.22,2.07-10.86,6.44-.91,2.43-.26,5.11-.69,7.62a6,6,0,0,1-3.16,4.45,6,6,0,0,1-5.08.28,6.74,6.74,0,0,1-3-3c-1.47-2.65-1.6-5.9-1.76-8.9s-.16-6.27-1.66-8.87a6.67,6.67,0,0,0-3.35-2.88c-2-.82-4.13,0-6.21-.43-3.75-.7-2.62-6.19-3.84-8.91-.85-1.9-2.56-3.32-3.88-4.84a9.08,9.08,0,0,1-2.47-5.13,10.16,10.16,0,0,1,.8-4.73c-2.53,2.63-4.63,5.77-4.56,9.43s2.33,6.84,4.33,9.85,3.92,6.56,3.2,10.16c-.9,4.55-5.74,7.52-6.09,12.15-.34,4.46,3.6,7.87,7.33,9.93s8,4,9.61,8.2c1.08,2.87.54,6.11-.17,9.1s-4.56,9.8-1.13,13.33c3.68,3.79,3.4,8.31,2.31,11.61a1.47,1.47,0,0,0,1.47,2c9.8-1.11,16.37-2.82,16.11-7.23-.52-8.51,3.95-11,8.17-12.59s7.93,0,13.4-7.32c2.89-3.86-1.84-12.71.11-17.18,2-4.62,6.42-7.4,10.17-10.57s7.28-7.84,6.35-12.84c-.8-4.36-4.8-7.51-5.43-11.9-.64-4.59,2.56-8.71,5.78-11.83s6.58-5,7.37-9.57c.68-4-.06-8.19-2.92-11-2.6-2.54-.34-5.61-1.9-9,4.16,3.23,9.23,5.49,14.26,4.64,5.8-1,5.09-3.88,9.25-5a21.69,21.69,0,0,1,11.2-.43c4.73.76,6.41-3.47,7.7-5.56,1.67-2.7,5.71-4.57,8-9.48A7.58,7.58,0,0,1,250.18,59.93Z" style="fill:#382f25"/></g><g style="opacity:0.30000000000000004;mix-blend-mode:overlay"><path d="M178.26,37c-3.16,5,3.52,8.19,7.65,7.68,5.26-.64,10.35-4.48,13.59,2.19,1.22,2.52,2.82,5,5.79,5.47s6.79-3,9.11-1.5c1,.66,1.68,2.93,2.61,3.88A10,10,0,0,0,220.53,57c5.81,2.17,14.25-2.36,12.31-9.23a2.66,2.66,0,0,0-4.4-1.16c-2.38,2.18-3.62,5.9-7.38,3.42-1.87-1.24-2.55-3.59-4.65-4.65-4.19-2.1-7.09,2.78-10.55,1.75-2.27-.67-2.82-3.84-4.27-5.61a7.89,7.89,0,0,0-4.82-2.88c-5.62-1-15.15,7.22-17.88-1.55a.35.35,0,0,0-.63-.08Z" style="fill:#fff"/></g><path d="M210.5,116.26a6.11,6.11,0,1,1-6.11-6.11A6.12,6.12,0,0,1,210.5,116.26Z" style="fill:#a2626f;opacity:0.25;mix-blend-mode:multiply"/><path d="M202.36,75.45l-2.7,1.35a.61.61,0,0,1-.88-.64l.45-3L197.12,71a.61.61,0,0,1,.33-1l3-.49,1.38-2.68a.62.62,0,0,1,1.1,0l1.38,2.68,3,.49a.61.61,0,0,1,.33,1l-2.12,2.14.46,3a.61.61,0,0,1-.89.64Z" style="fill:#cfcfc3"/><path d="M205.89,75.88A14,14,0,0,1,204,73.7a14.42,14.42,0,0,1-2.51-6.24l-1.06,2.05-3,.49a.61.61,0,0,0-.33,1l2.11,2.14-.45,3a.61.61,0,0,0,.88.64l2.7-1.35,2.69,1.35a.61.61,0,0,0,.89-.64Z" style="fill:#cfcfc3;opacity:0.5;mix-blend-mode:multiply"/></g></g></g></svg>