<svg xmlns="http://www.w3.org/2000/svg" xmlns:xlink="http://www.w3.org/1999/xlink" viewBox="0 0 300 233.19"><defs><linearGradient id="a" x1="-78.24" y1="499.6" x2="-63.31" y2="472.03" gradientTransform="matrix(0.85, 0.53, 0.53, -0.85, -91.61, 518.8)" gradientUnits="userSpaceOnUse"><stop offset="0" stop-color="#3d4451"/><stop offset="1" stop-color="#3d4451"/></linearGradient><linearGradient id="b" x1="-3044.1" y1="-3056.87" x2="-3029.18" y2="-3084.44" gradientTransform="matrix(-0.85, -0.53, -0.53, 0.85, -4103.16, 1043.02)" xlink:href="#a"/><linearGradient id="c" x1="-3045.81" y1="-3057.8" x2="-3030.89" y2="-3085.36" gradientTransform="matrix(-0.85, -0.53, -0.53, 0.85, -4103.16, 1043.02)" xlink:href="#a"/><linearGradient id="d" x1="-3047.43" y1="-3058.67" x2="-3032.51" y2="-3086.24" gradientTransform="matrix(-0.85, -0.53, -0.53, 0.85, -4103.16, 1043.02)" xlink:href="#a"/><linearGradient id="e" x1="-3039.91" y1="-3054.6" x2="-3024.99" y2="-3082.17" gradientTransform="matrix(-0.85, -0.53, -0.53, 0.85, -4103.16, 1043.02)" xlink:href="#a"/><linearGradient id="f" x1="-91.46" y1="513.02" x2="-77.53" y2="487.28" xlink:href="#a"/><linearGradient id="g" x1="-3042.57" y1="-3056.24" x2="-3028.64" y2="-3081.98" gradientTransform="matrix(-0.85, -0.53, -0.53, 0.85, -4103.16, 1043.02)" xlink:href="#a"/><linearGradient id="h" x1="-3040.99" y1="-3055.38" x2="-3027.06" y2="-3081.12" gradientTransform="matrix(-0.85, -0.53, -0.53, 0.85, -4103.16, 1043.02)" xlink:href="#a"/><linearGradient id="i" x1="-3039.48" y1="-3054.56" x2="-3025.54" y2="-3080.3" gradientTransform="matrix(-0.85, -0.53, -0.53, 0.85, -4103.16, 1043.02)" xlink:href="#a"/><linearGradient id="j" x1="-3046.51" y1="-3058.37" x2="-3032.57" y2="-3084.1" gradientTransform="matrix(-0.85, -0.53, -0.53, 0.85, -4103.16, 1043.02)" xlink:href="#a"/></defs><polygon points="119.81 203.71 146.74 203.71 146.74 186.31 148.61 186.31 148.61 181.46 118.69 181.46 118.69 185.87 119.81 203.71" fill="#ebebeb"/><path d="M202.87,223a1.13,1.13,0,0,1-.21-.35c-.13-.28-.3-.62-.53-1.06-.43-.91-1-2.24-1.73-3.88-1.44-3.3-3.27-7.92-5.22-13s-3.73-9.72-5.08-13.06l-1.62-3.94-.43-1.06a1.71,1.71,0,0,1-.13-.38,1.33,1.33,0,0,1,.2.35l.53,1.06c.43.9,1,2.23,1.74,3.88,1.43,3.3,3.26,7.92,5.22,13.05s3.74,9.75,5.09,13.07l1.62,3.93.44,1.07A2.15,2.15,0,0,1,202.87,223Z" fill="#e0e0e0"/><path d="M159.69,39.81c.08,0-.26,2.85-.74,6.36s-.95,6.31-1,6.3.26-2.85.75-6.36S159.62,39.8,159.69,39.81Z" fill="#f26935"/><path d="M212.78,36.13a2.6,2.6,0,0,1-.36.3c-.25.22-.6.5-1.06.85l-3.87,3.07-12.82,10-12.86,10-3.93,3-1.06.8a1.7,1.7,0,0,1-.38.26,3.27,3.27,0,0,1,.35-.3l1.06-.85,3.87-3.06,12.83-10,12.88-10,3.92-3,1.06-.8A2,2,0,0,1,212.78,36.13Z" fill="#f26935"/><path d="M238.42,71c0,.08-13,1.16-29,2.41s-29,2.21-29,2.12,13-1.15,29-2.41S238.42,71,238.42,71Z" fill="#f26935"/><path d="M202.54,102.93c0,.07-5.54-2.68-12.3-6.13s-12.19-6.3-12.19-6.36,5.54,2.65,12.3,6.13S202.58,102.86,202.54,102.93Z" fill="#f26935"/><path d="M136.86,58.83a2.16,2.16,0,0,1-.27-.33l-.74-1-2.65-3.6c-2.22-3.06-5.24-7.31-8.48-12.06s-6.12-9.11-8.17-12.29c-1-1.59-1.84-2.88-2.4-3.77l-.64-1a1.65,1.65,0,0,1-.2-.37,2.7,2.7,0,0,1,.25.34l.68,1,2.47,3.71c2.09,3.15,5,7.48,8.24,12.24s6.25,9,8.43,12.1L136,57.46l.69,1A1.36,1.36,0,0,1,136.86,58.83Z" fill="#f26935"/><path d="M129.85,68.85c0,.06-3.64-1.59-8.06-3.65s-8-3.82-8-3.89,3.64,1.56,8.06,3.64S129.88,68.79,129.85,68.85Z" fill="#f26935"/><path d="M127.79,78.69c0,.08-12.19-1-27.17-2.3S73.45,73.9,73.46,73.82s12.19,1,27.18,2.3S127.8,78.61,127.79,78.69Z" fill="#f26935"/><path d="M132.14,93.23c0,.07-7.19,3.21-16.14,7S99.79,107.1,99.76,107s7.19-3.22,16.14-7S132.09,93.16,132.14,93.23Z" fill="#f26935"/><circle cx="154.28" cy="78.69" r="26.49" fill="#f26935"/><g opacity="0.8"><circle cx="154.28" cy="78.69" r="26.49" fill="#fff"/></g><path d="M163.18,72A10.52,10.52,0,1,0,151.7,85.5l.79,2.53,8.79-2.75s-.39-1.44-.76-2.72A10.51,10.51,0,0,0,163.18,72Z" fill="#f26935"/><path d="M158.09,86.24l0-.13a2.81,2.81,0,0,0-.07-.37c-.07-.34-.16-.82-.25-1.45s-.21-1.4-.28-2.31a15.09,15.09,0,0,1,0-3.08,9.48,9.48,0,0,1,.36-1.76,2,2,0,0,1,.49-.83,1.1,1.1,0,0,1,1-.27.77.77,0,0,1,.45.3.78.78,0,0,1,.11.54,1.54,1.54,0,0,1-.56.91,2.87,2.87,0,0,1-2.12.5,2.91,2.91,0,0,1-1.94-1.23,2.18,2.18,0,0,1-.42-1.14.94.94,0,0,1,.69-1,.65.65,0,0,1,.62.19,1,1,0,0,1,.28.59,2,2,0,0,1-.4,1.22,3.11,3.11,0,0,1-2.12,1.41,2.74,2.74,0,0,1-2.39-.84,1.61,1.61,0,0,1-.45-1.2.78.78,0,0,1,.8-.74l.14,0a1.13,1.13,0,0,1,.56.32,1.53,1.53,0,0,1,.33.53,3,3,0,0,1,.21,1.19,3.18,3.18,0,0,1-.89,2.12,3.22,3.22,0,0,1-2,.93,1.57,1.57,0,0,1-1.06-.2.79.79,0,0,1-.36-.94.64.64,0,0,1,.38-.36.82.82,0,0,1,.53-.06,1.44,1.44,0,0,1,.83.5c.42.46.79.93,1.16,1.37,1.43,1.77,2.52,3.26,3.26,4.3.37.53.65.92.84,1.21l.22.31.06.11-.07-.1-.23-.31-.9-1.19c-.75-1-1.85-2.51-3.3-4.27-.36-.44-.73-.91-1.15-1.37a1.46,1.46,0,0,0-.77-.46.63.63,0,0,0-.46,1.17,1.62,1.62,0,0,0,1,.18,3.1,3.1,0,0,0,1.91-.91,3,3,0,0,0,.85-2,2.94,2.94,0,0,0-.19-1.14,1.16,1.16,0,0,0-.81-.77.64.64,0,0,0-.53.12.67.67,0,0,0-.25.49,1.5,1.5,0,0,0,.41,1.1,2.64,2.64,0,0,0,2.28.8,3,3,0,0,0,2-1.36,1.83,1.83,0,0,0,.38-1.13.77.77,0,0,0-.24-.53.52.52,0,0,0-.5-.16.69.69,0,0,0-.45.31,1,1,0,0,0-.15.53,2.12,2.12,0,0,0,.4,1.06,2.77,2.77,0,0,0,3.85.75l.05,0a1.37,1.37,0,0,0,.53-.83.64.64,0,0,0-.48-.71,1,1,0,0,0-.86.24,1.8,1.8,0,0,0-.47.78,8.78,8.78,0,0,0-.36,1.75,15.64,15.64,0,0,0-.07,3.06c.07.9.17,1.67.26,2.3s.18,1.12.23,1.45a1.59,1.59,0,0,0,.06.38Z" fill="#263238"/><path d="M161.11,87.13l-7.55,2.35a.6.6,0,0,1-.75-.39h0a.59.59,0,0,1,.39-.74L160.76,86a.59.59,0,0,1,.74.38h0a.59.59,0,0,1-.38.75Z" fill="#263238"/><path d="M161.27,87.62,153.71,90a.59.59,0,0,0-.39.74.57.57,0,0,0,.73.39h0l.83-.25,1.76,1.75a.76.76,0,0,0,.76.19l2.7-.85a.75.75,0,0,0,.53-.59l.42-2.43.57-.17A.6.6,0,0,0,162,88h0a.6.6,0,0,0-.75-.4Z" fill="#263238"/><g opacity="0.2"><path d="M144.69,70.68a8.1,8.1,0,0,1,1.59-2,5.75,5.75,0,0,1,1.41-.93c.37-.16.6-.19.64-.11s-.58.67-1.39,1.68a8.66,8.66,0,0,0-1.24,9.28c.53,1.18,1.06,1.85.9,2s-.27,0-.59-.28a5.63,5.63,0,0,1-1.11-1.27,7.58,7.58,0,0,1-1-2.31,8,8,0,0,1-.2-3.12" fill="#fff"/></g><g opacity="0.2"><path d="M150.89,67.36c-.64.19-1.26.19-1.43-.13-.08-.16,0-.37.17-.58a2,2,0,0,1,.88-.53,1.86,1.86,0,0,1,1-.05c.27.07.45.21.47.39" fill="#fff"/></g><path d="M160.55,91.58H160a4.65,4.65,0,0,0-1.34.23,4.59,4.59,0,0,0-1.2.63,3.87,3.87,0,0,1-.45.35,1.77,1.77,0,0,1,.4-.42,3.81,3.81,0,0,1,1.21-.68,4,4,0,0,1,1.38-.21A1.54,1.54,0,0,1,160.55,91.58Z" fill="#455a64"/><path d="M161.08,89s-1.35.49-3,1-3.06.92-3.07.89,1.34-.49,3-1S161.07,88.92,161.08,89Z" fill="#455a64"/><path d="M160.89,90a4.6,4.6,0,0,1-.72.31c-.45.17-1.06.39-1.78.62s-1.35.43-1.81.53a5.06,5.06,0,0,1-.77.18,5.05,5.05,0,0,1,.74-.27l1.79-.58,1.79-.59A6.53,6.53,0,0,1,160.89,90Z" fill="#455a64"/><path d="M118.93,14.1a.67.67,0,0,1,0-.2,5.62,5.62,0,0,0-.05-.62l0-.46a3.8,3.8,0,0,0-.08-.53,10.29,10.29,0,0,0-.28-1.34A12.7,12.7,0,0,0,117,7.51,12.89,12.89,0,0,0,101.53,2a14,14,0,0,0-1.68.74,12,12,0,0,0-1.59,1A13.28,13.28,0,0,0,96.8,5a13.86,13.86,0,0,0-1.28,1.48A12.62,12.62,0,0,0,93.68,10a12.85,12.85,0,0,0,0,8.13,12.62,12.62,0,0,0,1.84,3.55,16.27,16.27,0,0,0,1.26,1.49,15.78,15.78,0,0,0,1.46,1.25,14.7,14.7,0,0,0,1.59,1,15.59,15.59,0,0,0,1.68.74A12.9,12.9,0,0,0,117,20.71a12.37,12.37,0,0,0,1.44-3.44,8.87,8.87,0,0,0,.28-1.34c0-.19.06-.37.08-.53l0-.45c0-.26,0-.46.05-.62a.74.74,0,0,1,0-.21v1.29a3.4,3.4,0,0,1-.08.53,7.65,7.65,0,0,1-.25,1.35,12.15,12.15,0,0,1-1.42,3.5,13.12,13.12,0,0,1-15.71,5.68,13.64,13.64,0,0,1-1.71-.75,12,12,0,0,1-1.59-1,14,14,0,0,1-1.5-1.27,13.45,13.45,0,0,1-1.29-1.52,12.49,12.49,0,0,1-1.88-3.62,13,13,0,0,1,0-8.31,12.49,12.49,0,0,1,1.88-3.62,15.47,15.47,0,0,1,1.29-1.52,12.83,12.83,0,0,1,1.5-1.26,13.18,13.18,0,0,1,1.59-1,13.64,13.64,0,0,1,1.71-.75,13.08,13.08,0,0,1,15.72,5.66,12.65,12.65,0,0,1,1.43,3.49,9,9,0,0,1,.24,1.36c0,.2.06.38.08.53s0,.32,0,.46v.62A1.5,1.5,0,0,1,118.93,14.1Z" fill="#f26935"/><path d="M73.46,71.72v-.28c0-.18,0-.47-.06-.82a3.28,3.28,0,0,0,0-.61c0-.23-.07-.47-.11-.73a11,11,0,0,0-.36-1.8A16.82,16.82,0,0,0,71,62.87a17.41,17.41,0,0,0-11.69-8.13,14.56,14.56,0,0,0-2.18-.25c-.38,0-.75-.06-1.13-.05l-1.15.06a2.88,2.88,0,0,0-.58,0l-.57.08c-.38.07-.78.12-1.16.2a19.3,19.3,0,0,0-4.56,1.66c-.36.2-.71.43-1.06.65a7.6,7.6,0,0,0-1.06.72,18.29,18.29,0,0,0-2,1.66,18.82,18.82,0,0,0-1.69,2,16.58,16.58,0,0,0-2.47,4.78,17.09,17.09,0,0,0,0,10.9A16.65,16.65,0,0,0,42.17,82a18.82,18.82,0,0,0,1.69,2,18.38,18.38,0,0,0,2,1.67,9.86,9.86,0,0,0,1.06.72c.36.21.71.44,1.06.64a18.19,18.19,0,0,0,2.26,1,20.24,20.24,0,0,0,2.3.68c.38.08.78.12,1.16.18l.57.09c.2,0,.39,0,.58,0L56,89c.38,0,.76,0,1.13,0a17.74,17.74,0,0,0,2.18-.25A17.37,17.37,0,0,0,71,80.6,16.17,16.17,0,0,0,72.89,76a10.71,10.71,0,0,0,.36-1.79c0-.26.09-.5.11-.73a5.16,5.16,0,0,1,0-.6,7.19,7.19,0,0,1,.06-.83,1.87,1.87,0,0,0,0-.28v1.72a5.29,5.29,0,0,1-.1.73A12.29,12.29,0,0,1,73,76a16.51,16.51,0,0,1-1.9,4.67,17.49,17.49,0,0,1-11.83,8.25,16.81,16.81,0,0,1-2.22.27c-.38,0-.76,0-1.14,0l-1.16,0a2.78,2.78,0,0,1-.58,0l-.59-.09c-.39-.06-.79-.11-1.18-.19a17.38,17.38,0,0,1-2.34-.68,18.25,18.25,0,0,1-2.26-1c-.37-.2-.73-.44-1.1-.65a9.5,9.5,0,0,1-1.06-.73,20,20,0,0,1-2-1.69,19.7,19.7,0,0,1-1.74-2,16.53,16.53,0,0,1-2.51-4.84,17.33,17.33,0,0,1,0-11.07,16.59,16.59,0,0,1,2.51-4.83,21,21,0,0,1,1.71-2.06,21.42,21.42,0,0,1,2-1.68,8.66,8.66,0,0,1,1.06-.73c.36-.22.72-.45,1.09-.65a19.16,19.16,0,0,1,4.63-1.68c.39-.08.79-.13,1.18-.19l.58-.09a5.85,5.85,0,0,1,.59,0l1.16-.06c.38,0,.76,0,1.14,0a16.81,16.81,0,0,1,2.22.27,17.52,17.52,0,0,1,11.78,8.28A17.06,17.06,0,0,1,73,67.44a12.54,12.54,0,0,1,.34,1.81c0,.27.08.53.1.73s0,.43,0,.61v.84A.65.65,0,0,0,73.46,71.72Z" fill="#f26935"/><path d="M116.38,52.35a.67.67,0,0,1,0-.2c0-.15,0-.35-.06-.59a4.24,4.24,0,0,0-.11-.94,8.21,8.21,0,0,0-.26-1.31,11.69,11.69,0,0,0-1.39-3.25,12.26,12.26,0,0,0-14.73-5.22,11.82,11.82,0,0,0-3.11,1.67,14.56,14.56,0,0,0-1.42,1.18,14.77,14.77,0,0,0-1.2,1.42,12.18,12.18,0,0,0,0,14.46A14.89,14.89,0,0,0,95.3,61a13,13,0,0,0,1.39,1.17,11.36,11.36,0,0,0,3.1,1.68,12.3,12.3,0,0,0,14.73-5.21,11.75,11.75,0,0,0,1.39-3.26,8.31,8.31,0,0,0,.26-1.3,4.49,4.49,0,0,0,.11-1,3.84,3.84,0,0,1,.06-.58.67.67,0,0,1,0-.2v.79a7.77,7.77,0,0,1-.08,1,9.59,9.59,0,0,1-.24,1.3,11.72,11.72,0,0,1-1.35,3.34,12.49,12.49,0,0,1-15,5.42,11.49,11.49,0,0,1-3.18-1.71,11.8,11.8,0,0,1-1.43-1.2,14.28,14.28,0,0,1-1.24-1.46,12.51,12.51,0,0,1,0-14.86,14.28,14.28,0,0,1,1.24-1.46,14.89,14.89,0,0,1,1.43-1.2,11.2,11.2,0,0,1,3.18-1.7,12.46,12.46,0,0,1,15,5.41A11.83,11.83,0,0,1,116,49.31a9.31,9.31,0,0,1,.24,1.3,7.77,7.77,0,0,1,.08,1v.59A1.06,1.06,0,0,1,116.38,52.35Z" fill="#f26935"/><path d="M101,113.43s0-.1,0-.29,0-.47-.06-.83a3.44,3.44,0,0,0,0-.62c0-.23-.07-.46-.11-.73a12.36,12.36,0,0,0-.37-1.81,16.88,16.88,0,0,0-2-4.66,17.43,17.43,0,0,0-4.45-5,17.23,17.23,0,0,0-7.36-3.26A17.85,17.85,0,0,0,84.4,96c-.38,0-.76,0-1.14,0L82.1,96a2.83,2.83,0,0,0-.58,0l-.58.09c-.39.06-.79.11-1.18.19a18.83,18.83,0,0,0-2.33.68,21.73,21.73,0,0,0-2.27,1c-.37.21-.72.44-1.06.66a8.24,8.24,0,0,0-1.06.72,18.69,18.69,0,0,0-2,1.68,20.85,20.85,0,0,0-1.71,2,16.87,16.87,0,0,0-2.49,4.8,17.29,17.29,0,0,0,0,11,16.83,16.83,0,0,0,2.5,4.81,15.74,15.74,0,0,0,3.71,3.71,8.66,8.66,0,0,0,1.06.73c.36.21.71.45,1.06.64a15.8,15.8,0,0,0,2.27,1,17.29,17.29,0,0,0,2.33.69c.39.08.79.13,1.17.19l.59.09a5.46,5.46,0,0,0,.58,0l1.16.06c.38,0,.76,0,1.14,0a16.49,16.49,0,0,0,2.2-.26,17.55,17.55,0,0,0,11.78-8.21,16.88,16.88,0,0,0,2-4.66,12.63,12.63,0,0,0,.37-1.81c0-.27.09-.53.11-.74s0-.43,0-.62a7.38,7.38,0,0,1,.06-.83c0-.19,0-.28,0-.28v.28c0,.19,0,.48,0,.84a4.36,4.36,0,0,1,0,.61c0,.23-.06.48-.1.75a12.83,12.83,0,0,1-.35,1.83,16.9,16.9,0,0,1-1.91,4.71,17.71,17.71,0,0,1-11.9,8.36,16.91,16.91,0,0,1-2.24.27c-.38,0-.76,0-1.15,0l-1.17,0a3,3,0,0,1-.6,0l-.58-.09c-.4-.07-.8-.11-1.2-.19a19.32,19.32,0,0,1-2.36-.69,17.56,17.56,0,0,1-2.31-1c-.38-.21-.74-.44-1.11-.66a9.5,9.5,0,0,1-1.06-.73,16.32,16.32,0,0,1-3.75-3.76A17.33,17.33,0,0,1,66.58,119a17.7,17.7,0,0,1,0-11.19A17.33,17.33,0,0,1,69.12,103a22.69,22.69,0,0,1,1.74-2,19.32,19.32,0,0,1,2-1.7,8,8,0,0,1,1.06-.74c.37-.21.73-.45,1.1-.65a19,19,0,0,1,4.68-1.7c.39-.08.79-.13,1.19-.2l.59-.09a3.89,3.89,0,0,0,.59,0l1.17-.06c.39,0,.77,0,1.15.05a16.71,16.71,0,0,1,2.24.27,17.66,17.66,0,0,1,11.9,8.36,16.68,16.68,0,0,1,1.92,4.71,11.34,11.34,0,0,1,.34,1.83c0,.27.08.53.1.74s0,.43,0,.62a6.64,6.64,0,0,0,0,.84A.63.63,0,0,1,101,113.43Z" fill="#f26935"/><path d="M237.08,112.89a2.28,2.28,0,0,0,0-.3c0-.19,0-.49-.05-.86l0-.64a5.93,5.93,0,0,0-.12-.76,13.46,13.46,0,0,0-.38-1.89,17.45,17.45,0,0,0-2-4.84,18.21,18.21,0,0,0-12.27-8.54,17.45,17.45,0,0,0-2.29-.27c-.39,0-.78-.05-1.18,0l-1.21.06a3,3,0,0,0-.6,0l-.6.09c-.41.07-.82.12-1.22.2a18.76,18.76,0,0,0-2.43.71,18.49,18.49,0,0,0-2.36,1.06c-.38.21-.75.45-1.13.68a8.9,8.9,0,0,0-1.1.75,22.8,22.8,0,0,0-2,1.75,20,20,0,0,0-1.78,2.12,18.06,18.06,0,0,0-2.59,16.44,17.47,17.47,0,0,0,2.59,4.95,16.81,16.81,0,0,0,3.83,3.88,10.16,10.16,0,0,0,1.1.75c.38.22.75.47,1.13.67a18.49,18.49,0,0,0,2.36,1.06,20.53,20.53,0,0,0,2.43.72c.4.08.81.13,1.22.2l.6.09c.2,0,.41,0,.61,0l1.2.06c.4,0,.79,0,1.18,0a15.89,15.89,0,0,0,2.29-.26,18.17,18.17,0,0,0,12.27-8.55,17.39,17.39,0,0,0,2-4.83,13.46,13.46,0,0,0,.38-1.89c0-.28.1-.53.12-.76s0-.45,0-.64c0-.37,0-.66.05-.86a2,2,0,0,1,0-.3v.3c0,.19,0,.49,0,.86,0,.2,0,.41,0,.65s-.07.48-.1.76a14.82,14.82,0,0,1-.36,1.9,17.43,17.43,0,0,1-2,4.89,18,18,0,0,1-14.68,9c-.4,0-.8.06-1.2.05l-1.22-.06a3.28,3.28,0,0,1-.62,0l-.61-.09c-.41-.07-.82-.12-1.24-.2a20.79,20.79,0,0,1-2.45-.71,19,19,0,0,1-2.4-1.06c-.39-.21-.76-.45-1.15-.68a10.86,10.86,0,0,1-1.11-.76A16.79,16.79,0,0,1,204,123.8a17.54,17.54,0,0,1-2.65-5.07,18.06,18.06,0,0,1,0-11.62A17.54,17.54,0,0,1,204,102a16.94,16.94,0,0,1,3.89-3.9,8.38,8.38,0,0,1,1.11-.76c.39-.23.76-.47,1.15-.69A20.41,20.41,0,0,1,215,94.93c.42-.09.83-.13,1.24-.2l.61-.09a3.18,3.18,0,0,0,.62,0l1.22-.06c.4,0,.8,0,1.2,0a16.69,16.69,0,0,1,2.32.28,18.32,18.32,0,0,1,12.36,8.68,17.62,17.62,0,0,1,2,4.9,15.16,15.16,0,0,1,.36,1.9c0,.27.08.53.1.77s0,.45,0,.64a7,7,0,0,0,0,.87C237.12,112.83,237.08,112.89,237.08,112.89Z" fill="#f26935"/><path d="M266,70.61a.83.83,0,0,1,0-.22,4.44,4.44,0,0,0-.05-.65,2.86,2.86,0,0,0,0-.49q0-.25-.09-.57a9.9,9.9,0,0,0-.28-1.42A13.4,13.4,0,0,0,264,63.62a13.66,13.66,0,0,0-16.4-5.83,14.77,14.77,0,0,0-1.78.78,13.84,13.84,0,0,0-1.67,1.06,16,16,0,0,0-1.55,1.31,17,17,0,0,0-1.33,1.59,13.59,13.59,0,0,0-2,12.36,13.14,13.14,0,0,0,2,3.75,15.55,15.55,0,0,0,1.33,1.59,16,16,0,0,0,1.55,1.31,12.71,12.71,0,0,0,1.67,1.06,14.77,14.77,0,0,0,1.78.78A13.68,13.68,0,0,0,264,77.55a13.27,13.27,0,0,0,1.53-3.64,9.51,9.51,0,0,0,.28-1.41c0-.21.08-.4.09-.58s0-.33,0-.48,0-.49.05-.65a.83.83,0,0,1,0-.22.81.81,0,0,1,0,.22v1.14a4.7,4.7,0,0,1-.08.58,8.79,8.79,0,0,1-.27,1.43,12.47,12.47,0,0,1-1.5,3.71,13.79,13.79,0,0,1-16.61,6,14.57,14.57,0,0,1-1.81-.79,15,15,0,0,1-1.71-1.09,15.75,15.75,0,0,1-1.59-1.35,14.89,14.89,0,0,1-1.37-1.59,13.8,13.8,0,0,1,0-16.43,14.64,14.64,0,0,1,1.36-1.59,15.55,15.55,0,0,1,1.59-1.33,14.43,14.43,0,0,1,1.7-1.09,13.81,13.81,0,0,1,18.4,5.17,13.2,13.2,0,0,1,1.5,3.72,11.62,11.62,0,0,1,.27,1.43c0,.21.06.4.07.58a3.83,3.83,0,0,1,0,.48v.66A1.18,1.18,0,0,1,266,70.61Z" fill="#f26935"/><path d="M252.7,63.25,254.55,67a.47.47,0,0,0,.35.26l4.12.6a.49.49,0,0,1,.41.54.57.57,0,0,1-.14.28l-3,2.9a.48.48,0,0,0-.14.42l.7,4.1a.47.47,0,0,1-.35.58.46.46,0,0,1-.34,0l-3.68-1.91a.45.45,0,0,0-.45,0l-3.68,1.93a.47.47,0,0,1-.64-.19.45.45,0,0,1,0-.34l.7-4.1a.46.46,0,0,0-.13-.42l-3-2.91a.47.47,0,0,1,.26-.81l4.12-.6A.48.48,0,0,0,250,67l1.84-3.71a.47.47,0,0,1,.63-.23A.41.41,0,0,1,252.7,63.25Z" fill="#fafafa"/><path d="M238,24.69a.73.73,0,0,1,0-.25,3.31,3.31,0,0,0-.06-.71,6.65,6.65,0,0,0-.13-1.17,9.77,9.77,0,0,0-.33-1.59,14,14,0,0,0-1.68-4,15,15,0,0,0-18-6.36,13.94,13.94,0,0,0-3.78,2,17.34,17.34,0,0,0-1.73,1.46,17.34,17.34,0,0,0-1.46,1.73,14.87,14.87,0,0,0,0,17.65,18.67,18.67,0,0,0,1.46,1.74,19.58,19.58,0,0,0,1.7,1.44,14,14,0,0,0,3.78,2,15,15,0,0,0,18-6.36,14.27,14.27,0,0,0,1.68-4,10.68,10.68,0,0,0,.33-1.59,7.49,7.49,0,0,0,.13-1.16c0-.29,0-.53.06-.71a.69.69,0,0,1,0-.25,1,1,0,0,1,0,.25v.72a6.62,6.62,0,0,1-.11,1.17,10.81,10.81,0,0,1-.28,1.59,14.45,14.45,0,0,1-1.65,4.08,15.23,15.23,0,0,1-18.32,6.6A14.38,14.38,0,0,1,213.73,37,16.11,16.11,0,0,1,212,35.54a17.11,17.11,0,0,1-1.51-1.78,15.26,15.26,0,0,1,0-18.13,14.12,14.12,0,0,1,3.25-3.25,14.38,14.38,0,0,1,3.88-2.08,15.23,15.23,0,0,1,18.32,6.6A14.45,14.45,0,0,1,237.58,21a10.81,10.81,0,0,1,.28,1.59,6.62,6.62,0,0,1,.11,1.17v.72A.91.91,0,0,1,238,24.69Z" fill="#f26935"/><path d="M180.26,22.2a2.08,2.08,0,0,0,0-.29c0-.19,0-.48-.06-.84a4.58,4.58,0,0,0,0-.62q-.06-.35-.12-.75a12.62,12.62,0,0,0-.37-1.83,16.66,16.66,0,0,0-2-4.73,17.75,17.75,0,0,0-12-8.33,16.89,16.89,0,0,0-2.24-.26c-.38,0-.77,0-1.15,0l-1.17.06a3,3,0,0,0-.6,0L160,4.7c-.39.06-.79.11-1.18.19a17.74,17.74,0,0,0-2.36.7,17.56,17.56,0,0,0-2.31,1c-.37.21-.73.44-1.1.66A9.5,9.5,0,0,0,152,8a21.73,21.73,0,0,0-2,1.71,20,20,0,0,0-1.74,2.05,17,17,0,0,0-2.52,4.87,18.91,18.91,0,0,0-.93,5.58,18.85,18.85,0,0,0,.92,5.58,17,17,0,0,0,2.52,4.88,16.5,16.5,0,0,0,3.71,3.75,9.59,9.59,0,0,0,1.06.74c.37.22.74.46,1.11.66a17,17,0,0,0,2.31,1,19.32,19.32,0,0,0,2.36.69c.39.09.79.14,1.18.2l.6.09a2.83,2.83,0,0,1,.58,0l1.18.06c.38,0,.77,0,1.15,0a16.87,16.87,0,0,0,2.24-.25,17.85,17.85,0,0,0,12-8.34,16.87,16.87,0,0,0,2-4.72A12.78,12.78,0,0,0,180,24.7c0-.27.09-.53.11-.74s0-.44,0-.62a7.42,7.42,0,0,1,.06-.85c0-.2,0-.29,0-.29v.29c0,.19,0,.49,0,.85a4.58,4.58,0,0,1,0,.62c0,.23-.06.48-.1.75a12.59,12.59,0,0,1-.35,1.85,17.28,17.28,0,0,1-1.94,4.78,18,18,0,0,1-12.06,8.48,17.35,17.35,0,0,1-2.27.27c-.39,0-.78,0-1.17,0l-1.18-.05a2.93,2.93,0,0,1-.6,0l-.6-.09c-.41-.07-.81-.11-1.21-.2a20.47,20.47,0,0,1-2.4-.69A18.68,18.68,0,0,1,154,38c-.38-.2-.74-.44-1.12-.66a11.25,11.25,0,0,1-1.06-.75,20.84,20.84,0,0,1-2-1.73A19.82,19.82,0,0,1,148,32.8a17.24,17.24,0,0,1-2.57-4.94,19.11,19.11,0,0,1-.93-5.66,18.8,18.8,0,0,1,.93-5.66A17.24,17.24,0,0,1,148,11.6a21.74,21.74,0,0,1,1.76-2.08,19.83,19.83,0,0,1,2-1.73,9.59,9.59,0,0,1,1.06-.74c.38-.22.74-.46,1.12-.67a20.2,20.2,0,0,1,2.34-1,20.52,20.52,0,0,1,2.4-.7c.4-.08.8-.13,1.21-.19l.6-.09a5.65,5.65,0,0,1,.59,0l1.19-.06c.39,0,.78,0,1.17,0a17.35,17.35,0,0,1,2.27.27,17.86,17.86,0,0,1,12,8.48,16.82,16.82,0,0,1,2,4.77,13.1,13.1,0,0,1,.35,1.85c0,.27.08.53.1.75s0,.44,0,.62c0,.37,0,.65,0,.85A1.19,1.19,0,0,1,180.26,22.2Z" fill="#f26935"/><path d="M140.72,154.28l-.74.25c-3.3,1.11-13.15,4.37-16.12,5.59,0,0,5.27,46.59,5.88,50.92s.76,21.66.76,21.66h56.06s-.15-46.7,0-53.94c.21-9.37,1.37-18.64,1.37-18.64l-9.77-3.82-11.45-6Z" fill="#f26935"/><g opacity="0.3"><path d="M153.19,164.36q-6.85,25.48-14.46,50.77c-.6,2-1.19,4.17-.38,6.08a5.45,5.45,0,0,0,4.33,3.08,8.76,8.76,0,0,0,5.31-1.21c3.79-2.12,6.25-6.1,7.46-10.26s1.32-8.56,1.41-12.9l.8-34.7Z"/></g><path d="M123.86,160.12s-8.22,3.64-7.58,18.24a181.37,181.37,0,0,0,1.94,19l23.11-6.65-5.87-25.37Z" fill="#f26935"/><path d="M178.67,183.62l-1.23,16.86L200.68,193s-5-29.76-12.88-32.87l-8.51,14.54Z" fill="#f26935"/><path d="M181.32,178.76a1.86,1.86,0,0,1,0,.34c0,.25,0,.58.07,1,0,.89.12,2.12.2,3.62.15,3.07.31,7.31.47,12s.28,8.89.38,12c.05,1.5.09,2.74.11,3.63v1a1.93,1.93,0,0,1,0,.34,2,2,0,0,1-.05-.34c0-.26,0-.59-.07-1,0-.89-.11-2.12-.2-3.63-.14-3.06-.31-7.3-.46-12s-.28-8.89-.38-12c-.05-1.51-.09-2.74-.12-3.63v-1A1.29,1.29,0,0,1,181.32,178.76Z" fill="#263238"/><path d="M135.36,171.67a3.5,3.5,0,0,1-.31-.53l-.74-1.5a25.67,25.67,0,0,0-2.9-4.65,11.34,11.34,0,0,0-4.3-3.28,13.66,13.66,0,0,0-2.19-.61,2.15,2.15,0,0,1,.62,0,7.7,7.7,0,0,1,1.64.4,10.89,10.89,0,0,1,4.44,3.29,22.19,22.19,0,0,1,2.86,4.77c.3.65.53,1.17.67,1.54A2.78,2.78,0,0,1,135.36,171.67Z" fill="#263238"/><path d="M184,159.41a35.06,35.06,0,0,0-1.46,3.9,35.6,35.6,0,0,0-.69,4.11,4.29,4.29,0,0,1,0-1.24,14,14,0,0,1,.47-2.94,13,13,0,0,1,1.06-2.78A4.23,4.23,0,0,1,184,159.41Z" fill="#263238"/><path d="M132.35,166.67l-.23,0a1,1,0,0,0-.53.37,2.23,2.23,0,0,0-.35,1,3.55,3.55,0,0,1-.17.66,1.19,1.19,0,0,1-.47.63,1.57,1.57,0,0,1-1.72-.18,6.42,6.42,0,0,1-1.23-1.56,2.67,2.67,0,0,0-.68-.74,1.58,1.58,0,0,0-1-.32,1,1,0,0,0-.8.53,2.71,2.71,0,0,0-.25,1.08c0,.4,0,.79-.08,1.19a2.6,2.6,0,0,1-.37,1.14,2.2,2.2,0,0,1-.2.23,1.05,1.05,0,0,1-.25.18,1.6,1.6,0,0,1-.57.19,2.07,2.07,0,0,1-1.09-.21,4.45,4.45,0,0,1-1.47-1.36,5.08,5.08,0,0,0-1.17-1.19,1.73,1.73,0,0,0-1.26-.33,1.38,1.38,0,0,0-.82.53,1,1,0,0,0-.18.61,1,1,0,0,0,0,.23.47.47,0,0,1-.09-.22,1,1,0,0,1,.13-.67,1.44,1.44,0,0,1,.88-.65,1.9,1.9,0,0,1,1.41.32,5.48,5.48,0,0,1,1.24,1.21,4.11,4.11,0,0,0,1.43,1.29,1.78,1.78,0,0,0,1,.18,1.12,1.12,0,0,0,.82-.49,4.5,4.5,0,0,0,.4-2.19,2.93,2.93,0,0,1,.28-1.2,1.31,1.31,0,0,1,1.06-.66,2.29,2.29,0,0,1,1.85,1.19,6.61,6.61,0,0,0,1.15,1.52,1.36,1.36,0,0,0,1.48.21,1.76,1.76,0,0,0,.6-1.16,2.17,2.17,0,0,1,.42-1,.92.92,0,0,1,.58-.36A.44.44,0,0,1,132.35,166.67Z" fill="#fafafa"/><path d="M137.05,174.48a.81.81,0,0,1,0,.31,1.88,1.88,0,0,1-.29.82,2.37,2.37,0,0,1-1.06.92,2.08,2.08,0,0,1-1.82,0,11.35,11.35,0,0,0-1.86-1.09,1.93,1.93,0,0,0-2,1c-.46.7-.68,1.64-1.17,2.51a2.94,2.94,0,0,1-1.06,1.1,1.72,1.72,0,0,1-1.59.13,2.91,2.91,0,0,1-1.1-1.13c-.26-.43-.48-.87-.74-1.26a2,2,0,0,0-1-.82,1.45,1.45,0,0,0-1.19.24,4.49,4.49,0,0,0-1.43,2,16.36,16.36,0,0,1-1,2,3.35,3.35,0,0,1-2.56,1.72,1.8,1.8,0,0,1-.86-.15.78.78,0,0,1-.2-.11l-.07,0a2.28,2.28,0,0,0,1.12.2,3.3,3.3,0,0,0,2.45-1.71,16.08,16.08,0,0,0,1-2,4.76,4.76,0,0,1,1.5-2.07,1.69,1.69,0,0,1,1.4-.27,2.15,2.15,0,0,1,1.16.92c.28.4.5.85.76,1.27a2.44,2.44,0,0,0,1,1,1.41,1.41,0,0,0,1.32-.11,2.63,2.63,0,0,0,1-1c.47-.81.66-1.75,1.19-2.51a2.87,2.87,0,0,1,1-.92,1.75,1.75,0,0,1,1.27-.16,3.06,3.06,0,0,1,1,.57,7.12,7.12,0,0,0,.86.57,1.85,1.85,0,0,0,1.67.06A2.22,2.22,0,0,0,137.05,174.48Z" fill="#fafafa"/><path d="M134.35,185.81a.67.67,0,0,1-.19,0,.78.78,0,0,0-.53.17,1.55,1.55,0,0,0-.49.72,2.66,2.66,0,0,0,0,1.19,3.06,3.06,0,0,1-.11,1.53,1.65,1.65,0,0,1-1.55.89,2.42,2.42,0,0,1-1.81-.85,7.28,7.28,0,0,1-1.16-1.85l.1.07a1.56,1.56,0,0,0-1.45.72,3.87,3.87,0,0,0-.61,1.74,11.72,11.72,0,0,1-.25,1.44,3.09,3.09,0,0,1-.69,1.27,1.75,1.75,0,0,1-1.29.6,2,2,0,0,1-1.25-.53,12.18,12.18,0,0,1-1.48-1.91,2.22,2.22,0,0,0-1.67-1,2.14,2.14,0,0,0-1.53.53,2.3,2.3,0,0,0-.65,1.06,2.71,2.71,0,0,0,0,1.06l0-.06a.83.83,0,0,1-.06-.21,2.31,2.31,0,0,1,0-.83,2.2,2.2,0,0,1,2.29-1.74,2.17,2.17,0,0,1,1,.27,2.88,2.88,0,0,1,.85.74,12.69,12.69,0,0,0,1.46,1.86,1.82,1.82,0,0,0,1.09.46,1.45,1.45,0,0,0,1.08-.53,2.93,2.93,0,0,0,.63-1.16c.1-.47.19-.94.25-1.41a3.83,3.83,0,0,1,.66-1.87,1.8,1.8,0,0,1,1.7-.81h.07l0,.06a7.37,7.37,0,0,0,1.1,1.8,2.23,2.23,0,0,0,1.64.79,1.44,1.44,0,0,0,1.36-.74,3.06,3.06,0,0,0,.13-1.44,2.6,2.6,0,0,1,.09-1.24,1.63,1.63,0,0,1,.56-.76.76.76,0,0,1,.57-.13A.43.43,0,0,1,134.35,185.81Z" fill="#fafafa"/><path d="M198.69,183.56a.7.7,0,0,0-.26.08,1.19,1.19,0,0,0-.6.48,3.21,3.21,0,0,0-.47,1.15,6.77,6.77,0,0,1-.45,1.64,1.66,1.66,0,0,1-.69.77,1.2,1.2,0,0,1-1.12,0,2.23,2.23,0,0,1-.85-.82,6.33,6.33,0,0,1-.56-1.06,3.44,3.44,0,0,0-.69-1,1.16,1.16,0,0,0-1.06-.41,1,1,0,0,0-.72.88,8,8,0,0,0-.07,1.39,3.85,3.85,0,0,1-1,2.65,2.33,2.33,0,0,1-2.52.6,8.62,8.62,0,0,1-1.84-1.5,1.87,1.87,0,0,0-1.75-.61,2.21,2.21,0,0,0-1.27.95,4.27,4.27,0,0,0-.49,1.14c-.18.67-.24,1.06-.27,1.06a1.31,1.31,0,0,1,0-.28c0-.18.06-.45.14-.8a4.22,4.22,0,0,1,.47-1.19,2.34,2.34,0,0,1,1.35-1.06,1.69,1.69,0,0,1,1,0,2.91,2.91,0,0,1,.93.58,7.55,7.55,0,0,0,1.78,1.44,2.09,2.09,0,0,0,2.23-.55,3.61,3.61,0,0,0,.88-2.47,7.58,7.58,0,0,1,.08-1.43,1.77,1.77,0,0,1,.3-.69,1.13,1.13,0,0,1,.63-.41,1.46,1.46,0,0,1,1.31.49,3.86,3.86,0,0,1,.73,1.06,6.17,6.17,0,0,0,.53,1.06,2,2,0,0,0,.74.75,1,1,0,0,0,.93,0,1.5,1.5,0,0,0,.6-.67,6.76,6.76,0,0,0,.47-1.59,3.35,3.35,0,0,1,.53-1.17,1.19,1.19,0,0,1,.67-.47A.59.59,0,0,1,198.69,183.56Z" fill="#fafafa"/><path d="M195.94,171.11a.69.69,0,0,1-.1.19,5.93,5.93,0,0,1-.34.53,4.61,4.61,0,0,1-.63.77,2.64,2.64,0,0,1-1.13.69,2,2,0,0,1-1.59-.14c-.53-.32-.79-1-1.26-1.28a.8.8,0,0,0-.8-.08,1.42,1.42,0,0,0-.62.66,2.73,2.73,0,0,0-.25,1v1.09a3.23,3.23,0,0,1-.22,1.11,1.52,1.52,0,0,1-.76.82,2.5,2.5,0,0,1-2-.12,8.76,8.76,0,0,1-1.53-1,4.38,4.38,0,0,0-1.34-.73,1.77,1.77,0,0,0-2,.62,1.15,1.15,0,0,0-.18.77,1.26,1.26,0,0,1-.06-.21,1,1,0,0,1,.15-.62,1.61,1.61,0,0,1,.77-.64,1.88,1.88,0,0,1,1.32-.12,5.06,5.06,0,0,1,1.42.74,9.09,9.09,0,0,0,1.5,1,2.26,2.26,0,0,0,1.82.11,1.39,1.39,0,0,0,.64-.69,2.87,2.87,0,0,0,.18-1V173.4a3,3,0,0,1,.29-1.06,1.64,1.64,0,0,1,.75-.79,1.06,1.06,0,0,1,1.06.12c.56.41.79,1,1.24,1.29a1.79,1.79,0,0,0,1.43.15,2.59,2.59,0,0,0,1.06-.62,5.42,5.42,0,0,0,.65-.71A5.7,5.7,0,0,1,195.94,171.11Z" fill="#fafafa"/><path d="M182.39,201.61a.8.8,0,0,1-.27.31,1.55,1.55,0,0,1-1.17.19,3.46,3.46,0,0,1-.82-.28,9.29,9.29,0,0,1-.85-.53,4.89,4.89,0,0,0-1-.57,1.68,1.68,0,0,0-1.21,0,2.1,2.1,0,0,0-1,.92,11.1,11.1,0,0,0-.69,1.38,7.1,7.1,0,0,1-.81,1.48,2.21,2.21,0,0,1-.68.58,1.23,1.23,0,0,1-.45.17,1.89,1.89,0,0,0-.23.05H173a1.79,1.79,0,0,1-.92-.32,3.76,3.76,0,0,1-.7-.68c-.41-.51-.74-1.06-1.14-1.59a3,3,0,0,0-1.49-1.16,2.41,2.41,0,0,0-1.86.39,4.32,4.32,0,0,0-1.37,1.45c-.37.56-.66,1.16-1,1.74a5.73,5.73,0,0,1-1.22,1.55,3.15,3.15,0,0,1-1.71.82,2.41,2.41,0,0,1-1.75-.53,5.85,5.85,0,0,1-1.12-1.26,7.77,7.77,0,0,0-1.92-2.23,2.16,2.16,0,0,0-1.18-.36,2.75,2.75,0,0,0-1.09.25,3,3,0,0,0-1.35,1.19,2.46,2.46,0,0,0-.35,1.09,2.81,2.81,0,0,1,0,.41v-.1a1.63,1.63,0,0,1,0-.31,2.45,2.45,0,0,1,.32-1.15,3.06,3.06,0,0,1,1.37-1.27,2.91,2.91,0,0,1,1.16-.28,2.38,2.38,0,0,1,1.29.36,8.17,8.17,0,0,1,2,2.27,5.64,5.64,0,0,0,1.09,1.2,2.06,2.06,0,0,0,1.56.46,2.89,2.89,0,0,0,1.59-.76,5.59,5.59,0,0,0,1.16-1.49c.32-.57.62-1.17,1-1.76a4.68,4.68,0,0,1,1.45-1.52,2.67,2.67,0,0,1,2.09-.43,3.33,3.33,0,0,1,1.64,1.25c.4.53.73,1.09,1.12,1.59A2,2,0,0,0,173,205a1.65,1.65,0,0,0,1.41-.71,7.74,7.74,0,0,0,.79-1.44,9.75,9.75,0,0,1,.72-1.4,2.28,2.28,0,0,1,1.1-1,1.88,1.88,0,0,1,1.34.05,4.9,4.9,0,0,1,1,.6,7.64,7.64,0,0,0,.83.57,2.54,2.54,0,0,0,.78.29,1.46,1.46,0,0,0,1.12-.13A3.07,3.07,0,0,0,182.39,201.61Z" fill="#fafafa"/><path d="M181.38,184a.19.19,0,0,1,0,.09.65.65,0,0,1-.22.18,1.24,1.24,0,0,1-1.06-.1c-.43-.2-.78-.7-1.36-.93a.85.85,0,0,0-.89.15,2.14,2.14,0,0,0-.49,1,6.64,6.64,0,0,1-.43,1.23,1.81,1.81,0,0,1-.46.57,1.55,1.55,0,0,1-.71.27A3.32,3.32,0,0,1,173,185a7.81,7.81,0,0,0-1.15-1.15,2.37,2.37,0,0,0-1.54-.49,4.26,4.26,0,0,0-3,1.74c-.76,1-1.26,2.12-1.93,3.1a5.14,5.14,0,0,1-2.65,2.19,2.93,2.93,0,0,1-1.63.1,2.66,2.66,0,0,1-1.32-.8,12.33,12.33,0,0,0-1.82-1.94,1.77,1.77,0,0,0-1.06-.27,1.83,1.83,0,0,0-.92.35,4,4,0,0,0-1.1,1.21c-.49.77-.66,1.26-.69,1.25a1.8,1.8,0,0,1,.12-.35,10.66,10.66,0,0,1,.47-1,4.39,4.39,0,0,1,1.11-1.28,1.9,1.9,0,0,1,1-.39,1.86,1.86,0,0,1,1.17.28,12,12,0,0,1,1.88,1.94,2.39,2.39,0,0,0,1.21.72,2.74,2.74,0,0,0,1.5-.1,4.88,4.88,0,0,0,2.49-2.12c.65-1,1.16-2.12,1.94-3.12a4.47,4.47,0,0,1,3.18-1.84,2.65,2.65,0,0,1,1.71.53,8.37,8.37,0,0,1,1.19,1.19,4.7,4.7,0,0,0,1.16,1,2.41,2.41,0,0,0,1.36.35,1.27,1.27,0,0,0,1-.71,7.51,7.51,0,0,0,.44-1.2,2.4,2.4,0,0,1,.55-1.06,1.07,1.07,0,0,1,1.06-.17c.64.29,1,.8,1.37,1a1.17,1.17,0,0,0,1,.14A.74.74,0,0,0,181.38,184Z" fill="#fafafa"/><path d="M181.65,165.68a1.2,1.2,0,0,0-.27-.18,1.25,1.25,0,0,0-.89-.07,1.71,1.71,0,0,0-1.09.89,9.61,9.61,0,0,0-.67,1.86,3.68,3.68,0,0,1-.5,1.06,2,2,0,0,1-1.06.79,2.53,2.53,0,0,1-1.39,0,5.34,5.34,0,0,1-1.32-.63,7.08,7.08,0,0,0-2.65-1.42,2.36,2.36,0,0,0-1.48.24,4.22,4.22,0,0,0-1.26,1c-.76.81-1.27,1.81-2,2.62a5,5,0,0,1-1.18,1.06,2.87,2.87,0,0,1-1.47.47,4.08,4.08,0,0,1-2.59-1.06c-.68-.53-1.25-1.11-1.86-1.52a3.16,3.16,0,0,0-1.8-.65,2.21,2.21,0,0,0-1.36.44,1.47,1.47,0,0,0-.53.72c-.08.2-.07.32-.09.32a1,1,0,0,1,0-.34,1.59,1.59,0,0,1,.53-.79,2.42,2.42,0,0,1,1.43-.53,3.43,3.43,0,0,1,1.91.65c.63.41,1.22,1,1.9,1.51a3.92,3.92,0,0,0,2.43,1,3.56,3.56,0,0,0,2.46-1.47c.68-.79,1.19-1.79,2-2.65a4.63,4.63,0,0,1,1.35-1.06,2.61,2.61,0,0,1,1.65-.27,7.46,7.46,0,0,1,2.71,1.48,3.26,3.26,0,0,0,2.51.66,1.74,1.74,0,0,0,.93-.69,3.81,3.81,0,0,0,.5-1,8.79,8.79,0,0,1,.71-1.87,2.09,2.09,0,0,1,.55-.63,1.81,1.81,0,0,1,.65-.29,1.26,1.26,0,0,1,.95.12A.66.66,0,0,1,181.65,165.68Z" fill="#fafafa"/><path d="M178.93,157.08a.58.58,0,0,1,0,.19,2.39,2.39,0,0,1-.19.53,1.78,1.78,0,0,1-.56.74,1,1,0,0,1-1.21-.08,5.88,5.88,0,0,1-.81-1.22,1.68,1.68,0,0,0-.51-.55,1.41,1.41,0,0,0-.74-.24,2.18,2.18,0,0,0-1.59.59,5.32,5.32,0,0,0-1.1,1.56,3.76,3.76,0,0,1-.55.87,1.18,1.18,0,0,1-1,.43,1.28,1.28,0,0,1-.87-.53,2.37,2.37,0,0,1-.44-.83,3.33,3.33,0,0,0-.68-1.43,1,1,0,0,0-.6-.31.69.69,0,0,0-.56.17,2.36,2.36,0,0,0-.55,1,2.2,2.2,0,0,1-.46.8.91.91,0,0,1-.5.29.38.38,0,0,1-.21,0,.92.92,0,0,0,.63-.35,2.29,2.29,0,0,0,.39-.78,2.45,2.45,0,0,1,.57-1.08.87.87,0,0,1,.72-.24,1.35,1.35,0,0,1,.73.35,3.64,3.64,0,0,1,.76,1.52,2.31,2.31,0,0,0,.4.74,1,1,0,0,0,.7.41.9.9,0,0,0,.73-.34,3.9,3.9,0,0,0,.53-.81,5.29,5.29,0,0,1,1.17-1.64,2.36,2.36,0,0,1,1.77-.64,1.75,1.75,0,0,1,.86.28,2.06,2.06,0,0,1,.57.64,5.43,5.43,0,0,0,.75,1.19.78.78,0,0,0,1,.1,1.75,1.75,0,0,0,.53-.65A7.13,7.13,0,0,0,178.93,157.08Z" fill="#fafafa"/><path d="M144.37,157.12a.7.7,0,0,1,0,.25,6,6,0,0,1,.07.73,3.49,3.49,0,0,1-.14,1.16,2,2,0,0,1-1,1.19,1.35,1.35,0,0,1-.93.12,1.53,1.53,0,0,1-.83-.6,9.77,9.77,0,0,1-.53-.88,1.58,1.58,0,0,0-.73-.67,1.6,1.6,0,0,0-1.83.81,3.15,3.15,0,0,0-.33,1.12c0,.42,0,.85,0,1.27a3.62,3.62,0,0,1-.09,1.31,1.82,1.82,0,0,1-.74,1.06,1.43,1.43,0,0,1-1.27.1,2.81,2.81,0,0,1-1-.66c-.53-.56-.87-1.19-1.33-1.64a2,2,0,0,0-1.59-.65,2,2,0,0,0-1.32.57,1.94,1.94,0,0,0-.53,1,2.81,2.81,0,0,0-.06,1,.72.72,0,0,1-.07-.25,1.84,1.84,0,0,1,0-.74,2.13,2.13,0,0,1,1.95-1.7,2.27,2.27,0,0,1,1.76.68c.5.47.85,1.12,1.36,1.63a2.62,2.62,0,0,0,.91.6,1.17,1.17,0,0,0,1.06-.09,1.54,1.54,0,0,0,.62-.93,3.34,3.34,0,0,0,.08-1.22,4.52,4.52,0,0,1,.35-2.54,1.82,1.82,0,0,1,2.15-.91,1.79,1.79,0,0,1,.85.78c.19.31.34.62.53.87a1.21,1.21,0,0,0,.69.53,1.16,1.16,0,0,0,.8-.08,1.76,1.76,0,0,0,.94-1.06,3.53,3.53,0,0,0,.18-1.11C144.38,157.47,144.34,157.12,144.37,157.12Z" fill="#fafafa"/><path d="M172.76,96.09c-3.58-.78-7,2.65-10.6,2.27-2.21-.25-4-1.85-6-2.77a11.24,11.24,0,0,0-10,.47c-2.83,1.75-4.6,3.52-4.73,6.85-2.83-1.32-7,2.46-8.29,5.86s-.58,6.75.58,10.19A47.89,47.89,0,0,0,143,135.1c.36.42.93.86,1.41.59a1.21,1.21,0,0,0,.43-1c.25-3.24-.44-6.49-1-9.7s-1-6.54-.21-9.72,2.94-6.19,6.07-7.08a10.32,10.32,0,0,1,7,.89c2.19,1,4.16,2.42,6.27,3.58a13.15,13.15,0,0,0,6.84,2c2.41-.11,4.89-1.45,5.72-3.71s-.56-5.25-3-5.55a4.73,4.73,0,0,0,.16-9.29Z" fill="#263238"/><path d="M166.74,153.26l-.93-6.89s9-2.53,8-11.71c-.47-4.44-2.2-13.5-3.85-21.67A17.22,17.22,0,0,0,151,99.31l-.89.11c-9.47,1.7-13.32,10.7-11.35,20.14l5.33,36.89A11.42,11.42,0,0,0,157,166.08h0A11.42,11.42,0,0,0,166.74,153.26Z" fill="#ffbe9d"/><path d="M165.82,146.34a21.46,21.46,0,0,1-12.37-2s3.62,6.27,12.68,4.34Z" fill="#eb996e"/><path d="M167.14,118.54a1.34,1.34,0,0,1-1.09,1.52,1.29,1.29,0,0,1-1.5-1v0a1.35,1.35,0,0,1,1.09-1.53,1.28,1.28,0,0,1,1.5,1Z" fill="#263238"/><path d="M168.53,118.3c-.14.18-1.22-.43-2.65-.26s-2.36,1-2.53.85,0-.4.45-.78a3.72,3.72,0,0,1,2-.89,3.56,3.56,0,0,1,2.12.41C168.42,117.92,168.6,118.21,168.53,118.3Z" fill="#263238"/><path d="M153.73,119.66a1.36,1.36,0,0,1-1.1,1.55,1.28,1.28,0,0,1-1.49-1v0a1.35,1.35,0,0,1,1.09-1.55,1.3,1.3,0,0,1,1.5,1.06Z" fill="#263238"/><path d="M155,119.39c-.14.19-1.23-.42-2.65-.25s-2.36,1-2.54.85.05-.39.46-.78a3.72,3.72,0,0,1,2-.89,3.49,3.49,0,0,1,2.12.42C154.88,119,155.07,119.31,155,119.39Z" fill="#263238"/><path d="M161.08,129.45a9.48,9.48,0,0,1,2.24-.69c.35-.08.68-.19.72-.45a1.92,1.92,0,0,0-.37-1l-1.37-2.61c-2-3.71-3.4-6.81-3.25-6.89s1.85,2.88,3.8,6.6L164.2,127a2.09,2.09,0,0,1,.35,1.4.91.91,0,0,1-.53.59,2.46,2.46,0,0,1-.59.16A9.56,9.56,0,0,1,161.08,129.45Z" fill="#263238"/><path d="M157,130.92c.23,0,.42,1.49,1.86,2.42s3,.57,3.08.78-.32.34-1,.44a3.84,3.84,0,0,1-2.56-.56,3.33,3.33,0,0,1-1.46-2C156.82,131.32,156.94,130.93,157,130.92Z" fill="#263238"/><path d="M154.29,112.94c-.09.41-1.52.4-3.15.79s-2.92,1-3.18.69c-.12-.15.07-.53.57-1a5.64,5.64,0,0,1,4.81-1.13C154,112.49,154.35,112.76,154.29,112.94Z" fill="#263238"/><path d="M167.52,113.66c-.21.35-1.22.14-2.39.26s-2.12.48-2.39.17c-.13-.15,0-.49.39-.84a3.47,3.47,0,0,1,3.86-.35C167.44,113.18,167.6,113.49,167.52,113.66Z" fill="#263238"/><path d="M140.36,126.23c-.17,0-6.53-1.11-5.58,5.14s7,4,7,3.81Z" fill="#ffbe9d"/><path d="M139.51,133.11s-.09.09-.26.21a1.18,1.18,0,0,1-.82.14,2.75,2.75,0,0,1-1.61-2.23,3.71,3.71,0,0,1,.07-1.59,1.25,1.25,0,0,1,.69-1,.57.57,0,0,1,.69.2c.11.17.09.29.12.3s.12-.12,0-.38a.71.71,0,0,0-.31-.35.84.84,0,0,0-.62-.07,1.54,1.54,0,0,0-1,1.15,3.63,3.63,0,0,0-.12,1.79,2.87,2.87,0,0,0,2,2.46,1.15,1.15,0,0,0,1-.32C139.54,133.26,139.55,133.12,139.51,133.11Z" fill="#eb996e"/><path d="M171.67,110.81a13.33,13.33,0,0,1-12.08-1.24c-2.46-1.62-4.51-4.14-7.42-4.66a7.44,7.44,0,0,0-5.6,1.46,14.56,14.56,0,0,0-3.85,4.49c2.34,4.45,1.77,9.8,1.14,14.78a2.49,2.49,0,0,1-.53,1.53,2,2,0,0,1-2.56-.25,7.75,7.75,0,0,1-2.19-3.88,26.13,26.13,0,0,1-1.19-10.2,17.68,17.68,0,0,1,3.76-9.45,16.81,16.81,0,0,1,11.13-5.83,20.58,20.58,0,0,1,12.36,2.82,12.05,12.05,0,0,1,4.39,4" fill="#263238"/><path d="M175.66,98a1.19,1.19,0,0,1,0,.53,2.46,2.46,0,0,1-.72,1.4A4,4,0,0,1,172.7,101a7.08,7.08,0,0,1-1.59.09,3.37,3.37,0,0,1-1.69-.53,2.26,2.26,0,0,1-1-1.68,2,2,0,0,1,1.14-1.76,2.37,2.37,0,0,1,1.11-.28,2.11,2.11,0,0,1,1.14.36A2.84,2.84,0,0,1,173,99.27a3.31,3.31,0,0,1-.71,2.42,5.15,5.15,0,0,1-2.12,1.56,8.28,8.28,0,0,1-5.43.06,23.14,23.14,0,0,1-5-2.24,30.43,30.43,0,0,0-4.53-2.18,9.41,9.41,0,0,0-4.43-.53,8.84,8.84,0,0,0-3.64,1.42,11.17,11.17,0,0,0-3.71,4.27c-.31.61-.5,1.1-.64,1.44a3.39,3.39,0,0,1-.2.53.32.32,0,0,1,0-.14c0-.09.06-.22.12-.39a11.5,11.5,0,0,1,.58-1.47,11.18,11.18,0,0,1,3.71-4.41,9.31,9.31,0,0,1,3.71-1.49,9.73,9.73,0,0,1,4.57.53,29.61,29.61,0,0,1,4.58,2.19,24.4,24.4,0,0,0,4.92,2.2,8,8,0,0,0,5.22-.05,4.72,4.72,0,0,0,2-1.45,3,3,0,0,0,.67-2.21,2.58,2.58,0,0,0-1.06-1.88,1.93,1.93,0,0,0-2-.08,1.73,1.73,0,0,0-1,1.52,2,2,0,0,0,.89,1.51,3.11,3.11,0,0,0,1.59.53,6,6,0,0,0,1.52-.07,3.88,3.88,0,0,0,2.19-1,2.57,2.57,0,0,0,.75-1.33A4.08,4.08,0,0,0,175.66,98Z" fill="#455a64"/><path d="M132.62,114.31a11,11,0,0,0,2,.27,5.79,5.79,0,0,0,2.08-.48,9.32,9.32,0,0,0,2.21-1.41,7.45,7.45,0,0,0,2.34-4.07,14.88,14.88,0,0,0,.19-2,1.55,1.55,0,0,1,.09.53,6.2,6.2,0,0,1-.06,1.49,7.14,7.14,0,0,1-2.36,4.27,8.89,8.89,0,0,1-2.3,1.44,5.32,5.32,0,0,1-2.19.43,5,5,0,0,1-1.48-.26A2.45,2.45,0,0,1,132.62,114.31Z" fill="#455a64"/><path d="M133.44,118.81c0-.06.75,0,1.93-.19a8.64,8.64,0,0,0,6.73-5.72c.4-1.12.45-1.88.53-1.87a1.57,1.57,0,0,1,0,.53,7,7,0,0,1-.29,1.42,8.37,8.37,0,0,1-6.89,5.86,7.72,7.72,0,0,1-1.44.06A1.37,1.37,0,0,1,133.44,118.81Z" fill="#455a64"/><path d="M150.74,126.17a.16.16,0,0,1-.2-.12h0a.16.16,0,0,1,.09-.21h0a.17.17,0,0,1,.2.12.16.16,0,0,1-.1.21Z" fill="#eb996e"/><path d="M153.36,125.23a.19.19,0,0,1-.21-.19.19.19,0,0,1,.09-.18.18.18,0,0,1,.21.14A.17.17,0,0,1,153.36,125.23Z" fill="#eb996e"/><path d="M155.17,125a.24.24,0,0,1-.21-.21c0-.14,0-.27.09-.29s.18.08.21.21S155.25,125,155.17,125Z" fill="#eb996e"/><path d="M152.27,127.68c-.09,0-.16,0-.17-.09s.06-.1.15-.11.16,0,.16.08S152.35,127.68,152.27,127.68Z" fill="#eb996e"/><path d="M154.67,126.83a.18.18,0,1,1,.11-.23v0A.18.18,0,0,1,154.67,126.83Z" fill="#eb996e"/><path d="M167.34,123.75a.16.16,0,0,1-.2-.12h0a.16.16,0,0,1,.08-.22h0a.16.16,0,0,1,.2.12h0A.16.16,0,0,1,167.34,123.75Z" fill="#eb996e"/><path d="M169.16,123.36a.2.2,0,0,1-.2-.16.18.18,0,0,1,.11-.22.2.2,0,0,1,.2.2A.21.21,0,0,1,169.16,123.36Z" fill="#eb996e"/><path d="M165.73,124a.15.15,0,0,1-.19-.08.14.14,0,0,1,.09-.18h0a.15.15,0,0,1,.19.06.15.15,0,0,1-.07.19Z" fill="#eb996e"/><path d="M167.31,125.66a.17.17,0,0,1-.23-.08.16.16,0,0,1,.24-.2l0,.05A.17.17,0,0,1,167.31,125.66Z" fill="#eb996e"/><path d="M168.84,125.16a.15.15,0,0,1-.14-.15.14.14,0,0,1,.17-.11h0a.13.13,0,1,1,0,.26Z" fill="#eb996e"/><path d="M134.45,129.53s-.35,0-.63-.38a1.1,1.1,0,0,1-.16-.81,1.41,1.41,0,0,1,1.55-1.09,1.65,1.65,0,0,1,.77.29c.38.28.44.59.41.59a2.19,2.19,0,0,0-.53-.43,1.41,1.41,0,0,0-1.48,0,1.25,1.25,0,0,0-.48.67,1,1,0,0,0,.09.67C134.18,129.42,134.47,129.49,134.45,129.53Z" fill="#263238"/><path d="M181.91,198l.47,13.69s-39.69,7.86-44.8,10.49-7.19,3-6.89,10.6l63.41-.11s7.81-2.92,7.66-11.43-2.28-29-2.28-29Z" fill="#ffbe9d"/><path d="M137.26,233l5.27-.48,5-12c-.81-.14-17.78-2.65-18.78-2.37l-4.07,14.46S136.9,233,137.26,233Z" fill="#ffbe9d"/><path d="M125.66,232.82a.71.71,0,0,0,.28.06c1.41.16,7.88-.24,7.88-.24.3-.83-.27-3.34-1.06-3.49s-7.69.31-7.69.31-1.06.15-1.36,2C123.53,232.55,125.66,232.82,125.66,232.82Z" fill="#ffbe9d"/><path d="M123.48,229.14a.67.67,0,0,0,.28.06c1.4.16,7.52.09,7.78-.66s-.17-2.92-1-3.07-7.69.32-7.69.32-1.06.14-1.36,2C121.35,228.88,123.48,229.14,123.48,229.14Z" fill="#ffbe9d"/><path d="M122.39,225.55a.67.67,0,0,0,.28.06c1.41.16,7.52.09,7.79-.66s-.18-2.93-1-3.08-7.7.32-7.7.32-1.06.15-1.35,2C120.26,225.28,122.39,225.55,122.39,225.55Z" fill="#ffbe9d"/><path d="M121.37,222s.11.05.28.06c1.4.16,7.53.09,7.79-.65s-.17-2.93-1-3.08-7.7.32-7.7.32-1.06.14-1.35,2C119.24,221.71,121.37,222,121.37,222Z" fill="#ffbe9d"/><path d="M131,229.11a11.74,11.74,0,0,1-3,.28,10.84,10.84,0,0,1-2.94-.11,12.07,12.07,0,0,1,3-.27A12.29,12.29,0,0,1,131,229.11Z" fill="#eb996e"/><path d="M131,225.51a24.23,24.23,0,0,1-4.24.32,24,24,0,0,1-4.24-.05,22.69,22.69,0,0,1,4.24-.33A22.28,22.28,0,0,1,131,225.51Z" fill="#eb996e"/><g opacity="0.78"><path d="M130.7,221.84a24.78,24.78,0,0,1-4.24.33,24.46,24.46,0,0,1-4.24-.06,22.57,22.57,0,0,1,4.24-.33A24.46,24.46,0,0,1,130.7,221.84Z" fill="#eb996e"/></g><path d="M140.52,219.57s-11.55-5.13-12.27-4.39a17,17,0,0,0-1.83,3.13Z" fill="#ffbe9d"/><path d="M191.23,223.61s-.28-.82-.83-2.12a20.52,20.52,0,0,0-1.1-2.2,22.07,22.07,0,0,0-1.67-2.49,23.19,23.19,0,0,0-2-2.2,22.07,22.07,0,0,0-1.87-1.59c-1.11-.85-1.87-1.28-1.85-1.32a2.4,2.4,0,0,1,.53.27,14.58,14.58,0,0,1,1.41.89,19.64,19.64,0,0,1,1.93,1.59,20.89,20.89,0,0,1,2.06,2.25,20.33,20.33,0,0,1,1.67,2.55,17,17,0,0,1,1.06,2.24,12.89,12.89,0,0,1,.53,1.59A2.15,2.15,0,0,1,191.23,223.61Z" fill="#eb996e"/><path d="M144.78,159.19l-11.95,34-13.43,3.87s4.87,20.61,9.84,24.32a11.7,11.7,0,0,0,7.29,2.42c5.37-.38,11.39-4.16,13.68-9.45,2-4.7,7.49-53.28,7.49-53.28Z" fill="#ffbe9d"/><path d="M157.53,162.53l.7-8.28-1.92-6.65-.74-2.55,1.45,1.49,2.65-2.82s-.86-5-1.59-5a13.38,13.38,0,0,0-2.69.79l-.95.35L152.23,141l2.25-3.44s2.31,1.92,3.49.25c.9-1.28-2.46-4.14-3.71-5.15a1.23,1.23,0,0,0-1-.24l-1.31.26a1.9,1.9,0,0,0-1.91-1.75,3,3,0,0,0-2.55,1.53l-1.38.25a2.29,2.29,0,0,0-2.15,1.5l-3,8.24,3.89,16.77" fill="#ffbe9d"/><path d="M144.78,159.19l-.09-.3c-.05-.19-.12-.5-.21-.88-.19-.78-.47-1.91-.81-3.36-.7-2.92-1.68-7.11-2.89-12.19v-.06q.9-2.46,1.9-5.19l1-2.78a2.66,2.66,0,0,1,.85-1.33,2.46,2.46,0,0,1,1.52-.53h0l1.38-.25-.09.06a3.4,3.4,0,0,1,1-1.06,2.78,2.78,0,0,1,1.44-.48,2.12,2.12,0,0,1,1.49.47,1.82,1.82,0,0,1,.74,1.41l-.17-.14,1-.2a4.89,4.89,0,0,1,.53-.09,1.52,1.52,0,0,1,.56.08,1.75,1.75,0,0,1,.47.29l.4.33c.27.22.53.45.79.68a17.46,17.46,0,0,1,1.49,1.49,4.88,4.88,0,0,1,1.13,1.86,1.27,1.27,0,0,1,0,.67,1.55,1.55,0,0,1-.39.53,1.59,1.59,0,0,1-1.19.44,4.06,4.06,0,0,1-2.23-1l.2,0-2.25,3.44-.17-.19,2.24-1.15h0c.76-.28,1.51-.57,2.26-.81a9.3,9.3,0,0,1,1.15-.31.91.91,0,0,1,.33,0,.53.53,0,0,1,.3.23,3,3,0,0,1,.28.53,27.06,27.06,0,0,1,1.06,4.35v.06l0,0-2.65,2.82-.08.09-.09-.09-1.44-1.48.18-.11c1,3.56,1.91,6.65,2.65,9.2v0c-.24,2.61-.42,4.68-.53,6.1l-.16,1.62a3.75,3.75,0,0,1,0,.42.35.35,0,0,1,0,.14V162q0-.57.12-1.62c.11-1.43.27-3.5.48-6.11v0c-.75-2.54-1.65-5.63-2.69-9.18l-.13-.43.31.32,1.46,1.48H157l2.65-2.83,0,.11a26.47,26.47,0,0,0-1.06-4.3,2.73,2.73,0,0,0-.25-.48.29.29,0,0,0-.14-.13h-.24a8.72,8.72,0,0,0-1.11.31c-.75.23-1.49.53-2.24.81h0l-2.24,1.14-.46.23.28-.42,2.24-3.45.08-.12.12.1a4.07,4.07,0,0,0,2.07.9,1.36,1.36,0,0,0,1.31-.8,1,1,0,0,0,0-.53,4.55,4.55,0,0,0-1.06-1.73,15.91,15.91,0,0,0-1.47-1.49c-.25-.23-.53-.46-.78-.68a3.15,3.15,0,0,0-.79-.56,1.48,1.48,0,0,0-.93,0l-1,.19-.17,0v-.18a1.54,1.54,0,0,0-.63-1.18,1.82,1.82,0,0,0-1.31-.41,2.76,2.76,0,0,0-2.23,1.42l0,.06h-.06l-1.39.25h0a2.19,2.19,0,0,0-1.36.48,2.43,2.43,0,0,0-.78,1.21c-.35.95-.69,1.88-1,2.79L141,142.43v-.05c1.17,5.1,2.12,9.29,2.79,12.22l.75,3.37c.09.38.15.67.19.89A1.84,1.84,0,0,1,144.78,159.19Z" fill="#eb996e"/><path d="M154.35,144a15.71,15.71,0,0,1,2.32-1.25l.87-.42-.72.64a2.26,2.26,0,0,0-.43,2.83,6.51,6.51,0,0,0,.63.76s-.41-.12-.79-.66a2.29,2.29,0,0,1-.4-1.06,2.36,2.36,0,0,1,.27-1.38,2.54,2.54,0,0,1,.53-.68l.14.22A14.67,14.67,0,0,1,154.35,144Z" fill="#eb996e"/><path d="M148,139.5a6.75,6.75,0,0,1,.65-1.25c.43-.76,1.06-1.78,1.73-2.91.35-.57.67-1.11,1-1.59a3.27,3.27,0,0,1,1.1-1.12,1.75,1.75,0,0,1,1-.22.61.61,0,0,1,.37.12h-.37a1.92,1.92,0,0,0-.93.29c-.73.43-1.25,1.57-1.95,2.68s-1.33,2.12-1.8,2.87A7.57,7.57,0,0,1,148,139.5Z" fill="#eb996e"/><path d="M143.89,139.47a4.82,4.82,0,0,1,.4-1.12c.28-.69.69-1.59,1.19-2.62s1-1.9,1.36-2.53a5.09,5.09,0,0,1,.66-1,5.67,5.67,0,0,1-.49,1.06c-.38.76-.81,1.59-1.28,2.56l-1.27,2.58A5.22,5.22,0,0,1,143.89,139.47Z" fill="#eb996e"/><path d="M134.3,189.87a3.45,3.45,0,0,1-.2.62l-.61,1.64c-.53,1.39-1.24,3.31-2,5.43s-1.41,4.07-1.87,5.48l-.57,1.66a3.13,3.13,0,0,1-.24.6,3.38,3.38,0,0,1,.14-.63c.1-.4.27-1,.47-1.69.43-1.42,1.06-3.38,1.81-5.51s1.51-4,2.07-5.41l.7-1.62A3.1,3.1,0,0,1,134.3,189.87Z" fill="#eb996e"/><path d="M152,205.55a.38.38,0,0,1,0,.15c0,.13,0,.27-.06.46-.06.42-.15,1-.25,1.75s-.26,1.69-.48,2.77a22.35,22.35,0,0,1-1,3.58,11.88,11.88,0,0,1-2.34,3.85,17.33,17.33,0,0,1-4,3.25,22,22,0,0,1-5.3,2.2,11.75,11.75,0,0,1-3,.42,9.29,9.29,0,0,1-3.09-.53,11.4,11.4,0,0,1-4.92-3.64,19.27,19.27,0,0,1-2.85-5c-.69-1.69-1.11-3.38-1.59-4.92s-.93-3-1.33-4.29c-.82-2.62-1.45-4.77-1.84-6.24-.19-.75-.34-1.33-.43-1.72l-.1-.45a.43.43,0,0,1,0-.16.44.44,0,0,1,0,.15c0,.11.08.26.13.44.11.41.27,1,.48,1.7.42,1.48,1.06,3.61,1.92,6.22.41,1.32.87,2.75,1.35,4.29s.91,3.22,1.59,4.89a19.37,19.37,0,0,0,2.83,4.88,11.12,11.12,0,0,0,4.8,3.55,8.78,8.78,0,0,0,3,.53,11.27,11.27,0,0,0,2.94-.41,21.28,21.28,0,0,0,5.22-2.15,17.51,17.51,0,0,0,4-3.18,12,12,0,0,0,2.33-3.77,22.87,22.87,0,0,0,1-3.55c.23-1.06.39-2,.53-2.74s.24-1.33.31-1.74l.09-.46A1,1,0,0,1,152,205.55Z" fill="#eb996e"/><path d="M265.66,232.7c0,.07-51.66.14-115.37.14S34.9,232.77,34.9,232.7s51.65-.15,115.39-.15S265.66,232.62,265.66,232.7Z" fill="#263238"/><path d="M250.2,62.05a2.82,2.82,0,0,0-.28,1.21c0,2.08.09,1.76,0,2.71a4,4,0,0,1-.44,1.38,9.77,9.77,0,0,1-.91,1.39,16.92,16.92,0,0,0-1.25,2,5.09,5.09,0,0,0-.39,1.33,7.08,7.08,0,0,0,0,.92,8.77,8.77,0,0,0-.6.82,1.53,1.53,0,0,1-.8.29,1.19,1.19,0,0,0-.7.34l0,.06c-.25.47.05,1.28-.09,1.87a3.5,3.5,0,0,0-.17.71.69.69,0,0,0,.1.37.91.91,0,0,0,.53.35,7.81,7.81,0,0,0,1,.25h.13a4.12,4.12,0,0,0,.53.12l.23,0a3.78,3.78,0,0,1,1,.31,5.52,5.52,0,0,0,.53.18,2.47,2.47,0,0,0,1.14.12,1.1,1.1,0,0,0,.53-.23,1.84,1.84,0,0,0,.44-.48,2.29,2.29,0,0,0,.14-.27.65.65,0,0,1,0-.13,3.55,3.55,0,0,1,1.41-.2,5.1,5.1,0,0,1,2.24.48h0l0,.16a.92.92,0,0,0,.29.44,1.1,1.1,0,0,0,.28.2,1.4,1.4,0,0,0,.34.13,2.38,2.38,0,0,0,.37.06,2.54,2.54,0,0,0,.39,0,1.56,1.56,0,0,0,.53-.2,2.72,2.72,0,0,0,.38-.31h0a2.75,2.75,0,0,1,.26-.22l.17-.13.16-.13.41-.31c.14-.11.29-.21.46-.32l.39-.25.42-.28a2.08,2.08,0,0,0,.71-.64.49.49,0,0,0,.05-.27c0-.3-.37-.58-.7-.85a2.11,2.11,0,0,1-.39-.4,1.46,1.46,0,0,1-.16-.39,2,2,0,0,0-.22-.8.64.64,0,0,0-.5-.29H258a3.63,3.63,0,0,0,.16-1.31,7.12,7.12,0,0,0-1.54-3.32c-.28-.41-.6-.84-.84-1.21a4.76,4.76,0,0,1-.66-1.36,11.43,11.43,0,0,1-.13-2,3.09,3.09,0,0,0-1.06-2.83,2.84,2.84,0,0,0-1.82-.43h0A2.64,2.64,0,0,0,250.2,62.05Z" fill="#282828" fill-rule="evenodd"/><path d="M246.16,74.08c-.32.15-1.06.15-1.23.46a2.42,2.42,0,0,0-.07,1.13,3.06,3.06,0,0,1-.13,1c-.1.29-.14.4,0,.66s.8.39,1.68.6a6,6,0,0,1,1.59.44c.61.24,1.47.53,2,.09a1.4,1.4,0,0,0,.57-.85,1.35,1.35,0,0,0,0-.53c-.16-.44-.49-.63-.79-1.06-.56-.85-1.16-1.65-1.64-2.36-.33-.53-.6-.63-.83-.59-.7.13-.48.77-1.13,1.06Z" fill="#fcc624" fill-rule="evenodd"/><path d="M255.09,73.37c-.31.22-.25.87-.26,1.22,0,.53,0,1.12-.05,1.35a13.4,13.4,0,0,0-.29,1.68,1.14,1.14,0,0,0,.32.89,1.57,1.57,0,0,0,1.27.33c.56-.08.77-.43,1.13-.7s.74-.59,1.21-.9a11.8,11.8,0,0,0,1.36-.95.37.37,0,0,0,.11-.43,2.59,2.59,0,0,0-.68-.72c-.79-.66-.45-1.27-.78-1.59a.53.53,0,0,0-.28-.18c-.63-.13-.8.12-1.18.08a7.54,7.54,0,0,1-1.06-.06c-.29,0-.61-.15-.81,0Z" fill="#fcc624" fill-rule="evenodd"/><path d="M250.35,66.07v0c.1.1.21.19.3.29s.21.26.3.35a1,1,0,0,0,.57.27,1.64,1.64,0,0,0,1.19-.32l.58-.45c.23-.18.3-.17.38-.26a.68.68,0,0,0,.08-.46.3.3,0,0,0-.14-.22,3.45,3.45,0,0,0-.63-.25h0l-.48-.18a1.73,1.73,0,0,0-.86-.2,1.8,1.8,0,0,0-.39.08h0a3.76,3.76,0,0,0-.61.36,1.52,1.52,0,0,0-.4.4c-.06.08-.14.26-.07.37l.42.23a1.89,1.89,0,0,0,1.06.27,2.19,2.19,0,0,0,.79-.2,4.94,4.94,0,0,0,.75-.47l.16-.13s.18,0,.17,0-.16.1-.22.14a4.91,4.91,0,0,1-.81.53,2.64,2.64,0,0,1-.82.23,1.35,1.35,0,0,1-.6-.08,2.27,2.27,0,0,1-.5-.23l-.21-.12Z" fill="#fcc624" fill-rule="evenodd"/><path d="M253.06,63.3a.91.91,0,0,0-.83.66,1.9,1.9,0,0,0-.08.71h0l.35.12a.7.7,0,0,1,0-.6.45.45,0,0,1,.58-.24l.08,0a.65.65,0,0,1,.12.8.56.56,0,0,1-.21.22l.35.13a2,2,0,0,0,.34-.6,1,1,0,0,0-.42-1.17.67.67,0,0,0-.31-.07Zm-2.38.16a.41.41,0,0,0-.19,0h0c-.28.1-.39.58-.29,1a1.17,1.17,0,0,0,.3.61l.09-.07.07,0a.63.63,0,0,1-.27-.65c0-.28.22-.45.42-.37a.63.63,0,0,1,.3.66v.1l.16-.07h0a1.19,1.19,0,0,0,0-.46c-.09-.43-.28-.75-.59-.75Zm3,2.65a2.06,2.06,0,0,0-.37.23c-.13.1-.38.31-.56.44a2.24,2.24,0,0,1-.4.22,1.34,1.34,0,0,1-.53.14,1.08,1.08,0,0,1-1-.34c-.09-.1-.16-.21-.28-.34a1,1,0,0,0-.21-.19,9.84,9.84,0,0,1-.49,2.08,4.54,4.54,0,0,0-.46,1.06,4.13,4.13,0,0,0-.75,1.44,6.66,6.66,0,0,0-.36,1.88,1.94,1.94,0,0,1-.2-.63,3.15,3.15,0,0,1,.76-2.46s0,0,0,0h0a3.34,3.34,0,0,0-.9,2.6,2.31,2.31,0,0,0,.39,1.06h0a2.09,2.09,0,0,0,.2.22h0a4.65,4.65,0,0,0,.63.53c.6.46,1.06.7,1.11,1a.69.69,0,0,1-.45.83,3.09,3.09,0,0,0,2.29.64,3.22,3.22,0,0,0,2.53-1.26c0-.17,0-.47,0-.79a4,4,0,0,1,.06-.84s0-.11,0-.16a.59.59,0,0,1,.48-.32,1.71,1.71,0,0,1,.32,0c0-.15,0-.29,0-.43a2.48,2.48,0,0,1,.66-.08,2.37,2.37,0,0,1,1.23.19,1.28,1.28,0,0,0-.21-.14,3.11,3.11,0,0,0-1.17-.21,3.18,3.18,0,0,0,.22-1.06,2.61,2.61,0,0,0-1.06-2h0a2.67,2.67,0,0,1,.89,2.19,2.29,2.29,0,0,1-.29.88h-.22a5.46,5.46,0,0,0-.65-2.74,2.65,2.65,0,0,0-.42-.59,3.14,3.14,0,0,0-.34-1,9.92,9.92,0,0,1-.53-2.08Z" fill="#f5f5f5" fill-rule="evenodd"/><path d="M257.66,73.26a.36.36,0,0,0,0-.11c0-.42-.77-.53-1.4-.49a2.74,2.74,0,0,0-.64.08.51.51,0,0,0-.38.42c-.05.4.07,1.24.47,1.42a1.35,1.35,0,0,0,1.39-.48,4.1,4.1,0,0,0,.53-.84Z" fill="#282828" fill-rule="evenodd"/><path d="M251.46,64.89s-.14,0-.19,0a.09.09,0,0,0-.08.12h.06l.1-.07.11-.08Z" fill="#282828" fill-rule="evenodd"/><path d="M251.79,64.89a.3.3,0,0,1,.26,0c.08.06.08.11,0,.14S251.86,64.89,251.79,64.89Z" fill="#282828" fill-rule="evenodd"/><path d="M59.08,69.43a2.28,2.28,0,1,0,2.27,2.27,2.28,2.28,0,0,0-2.27-2.27Z" fill="none"/><path d="M63.73,68.59a1.92,1.92,0,0,0-1.88-1.88,1.88,1.88,0,0,0-.81.18A4.14,4.14,0,0,0,52.88,68v.51h0a2.8,2.8,0,1,0,0,5.57H63.17a3,3,0,0,0,3.11-2.78A2.88,2.88,0,0,0,63.73,68.59Z" fill="#e0e0e0"/><path d="M63.72,67.57a2.34,2.34,0,0,0-2.32-2.3,2.42,2.42,0,0,0-1,.22,5,5,0,0,0-9.88,1.39,4.44,4.44,0,0,0,0,.63h0a3.4,3.4,0,1,0,0,6.77H63.07a3.59,3.59,0,0,0,3.77-3.38A3.51,3.51,0,0,0,63.72,67.57Z" fill="none" stroke="#2f2e41" stroke-miterlimit="10" stroke-width="0.5"/><line x1="55.07" y1="73.98" x2="55.07" y2="78.54" fill="none" stroke="#2f2e41" stroke-miterlimit="10" stroke-width="0.5"/><polyline points="61.05 74.51 61.05 76.81 65.38 76.81 65.38 78.38" fill="none" stroke="#2f2e41" stroke-miterlimit="10" stroke-width="0.5"/><polyline points="52.43 74.64 52.43 76.94 48.39 76.94 48.39 78.91" fill="none" stroke="#2f2e41" stroke-miterlimit="10" stroke-width="0.5"/><path d="M47.55,79.71a.86.86,0,1,1,.86.85h0A.86.86,0,0,1,47.55,79.71Z" fill="#e0e0e0" stroke="#2f2e41" stroke-miterlimit="10" stroke-width="0.5"/><path d="M54.13,79.49a1,1,0,1,1,1,1h0A1,1,0,0,1,54.13,79.49Z" fill="#f26935" stroke="#2f2e41" stroke-miterlimit="10" stroke-width="0.5"/><path d="M64.48,79.49a.92.92,0,0,1,1.84,0,.92.92,0,0,1-.91.92h0A.9.9,0,0,1,64.48,79.49Z" fill="#f26935" stroke="#2f2e41" stroke-miterlimit="10" stroke-width="0.5"/><path d="M60.86,79.8a.88.88,0,1,1,.88.88.88.88,0,0,1-.88-.88Z" fill="#e0e0e0" stroke="#2f2e41" stroke-miterlimit="10" stroke-width="0.5"/><polyline points="58.41 74.64 58.41 79.79 61.07 79.79" fill="none" stroke="#2f2e41" stroke-miterlimit="10" stroke-width="0.5"/><rect x="82.69" y="114.21" width="5.94" height="4.13" fill="#e0e0e0"/><rect x="79.61" y="118.64" width="10.82" height="2.04" fill="#f26935" stroke="#2f2e41" stroke-miterlimit="10" stroke-width="0.5"/><polyline points="83.25 113.11 81.41 113.11 81.41 118.56 88.34 118.56 88.34 113.11 86.3 113.11" fill="none" stroke="#2f2e41" stroke-miterlimit="10" stroke-width="0.5"/><path d="M84.91,116.3h0a1.36,1.36,0,0,1-1.36-1.37v-4.08a1.36,1.36,0,0,1,1.36-1.37h0a1.37,1.37,0,0,1,1.37,1.37v4.08A1.37,1.37,0,0,1,84.91,116.3Z" fill="#e0e0e0" stroke="#2f2e41" stroke-miterlimit="10" stroke-width="0.5"/><circle cx="84.91" cy="110.85" r="0.68" fill="#f04f4c" stroke="#2f2e41" stroke-miterlimit="10" stroke-width="0.5"/><circle cx="84.89" cy="114.91" r="0.68" fill="#fdc345" stroke="#2f2e41" stroke-miterlimit="10" stroke-width="0.5"/><path d="M84.65,108.61l-2.16-2.16a1,1,0,0,0-1.49,0h0A1,1,0,0,0,81,108l2.17,2.17" fill="none" stroke="#2f2e41" stroke-linecap="round" stroke-miterlimit="10" stroke-width="0.5"/><circle cx="81.75" cy="107.27" r="0.55" fill="#e0e0e0" stroke="#2f2e41" stroke-miterlimit="10" stroke-width="0.5"/><path d="M79.7,106.9l-2.18,1.26a.89.89,0,0,0-.29,1.21h0a.88.88,0,0,0,1.19.35l2.2-1.26" fill="none" stroke="#2f2e41" stroke-linecap="round" stroke-miterlimit="10" stroke-width="0.5"/><path d="M74.55,109.71l.93.35.12.16.13-.09-.14-.21.74-.5a.17.17,0,0,1,.23,0h0l.06.09.58-.37.24.35-.59.36L77,110a.14.14,0,0,1,0,.19h0l-.77.53-.16-.24-.13.09.1.16,0,1-.58.59-1.14-.12a.08.08,0,0,1-.06-.08.1.1,0,0,1,0-.05l.82-.35a.18.18,0,0,0,.12-.17l.09-.66a.21.21,0,0,0-.16-.24l-.65-.16a.21.21,0,0,0-.2,0l-.63.64a.07.07,0,0,1-.1,0,.09.09,0,0,1,0-.07l.31-1.09Z" fill="#3d4451"/><rect x="156.39" y="17.79" width="11.92" height="5.18" rx="1.76" transform="translate(-1.04 11.66) rotate(-4.1)" fill="#23b0e6"/><path d="M167.61,17.29l-10.85.79a1.37,1.37,0,0,0-1.23,1.51l.18,2.5a1.39,1.39,0,0,0,1.44,1.33h0l3.38-.25A1.37,1.37,0,0,1,161.75,22l2.27-.16a1.35,1.35,0,0,1,1.36.95l2.65-.19a1.39,1.39,0,0,0,1.24-1.51l-.18-2.5a1.39,1.39,0,0,0-1.44-1.33Z" fill="none" stroke="#2f2e41" stroke-linecap="round" stroke-miterlimit="10" stroke-width="0.5"/><path d="M168.42,15.79l-12.66.91a1.78,1.78,0,0,0-1.51,2l.29,4a1.78,1.78,0,0,0,1.77,1.76l3.71-.27a.52.52,0,0,0,.48-.57.13.13,0,0,0,0-.06h0A1.44,1.44,0,0,1,161.72,22l2.27-.17a1.44,1.44,0,0,1,1.44,1.43h0a.53.53,0,0,0,.51.55h0l3-.22a1.78,1.78,0,0,0,1.54-2v0l-.29-4A1.78,1.78,0,0,0,168.42,15.79Z" fill="none" stroke="#2f2e41" stroke-linecap="round" stroke-miterlimit="10" stroke-width="0.5"/><path d="M166.86,10.32l-2.09-.25c-2.54-2.19-7.91,1-7.91,1a7.09,7.09,0,0,1,10-.76Z" fill="#f26935"/><path d="M166.88,10.33l-2.12-.15h0l0,0a3.51,3.51,0,0,0-1.88-.62,9.19,9.19,0,0,0-2,.17,9.85,9.85,0,0,0-3.87,1.49l-.61.39.45-.59a6.83,6.83,0,0,1,4.92-2.62,6.74,6.74,0,0,1,2.82.41A6,6,0,0,1,166.88,10.33Zm0,0a9,9,0,0,0-2.45-1.16,7.47,7.47,0,0,0-7.43,2L156.8,11c.64-.32,1.28-.6,1.92-.89a17,17,0,0,1,2-.75,5.37,5.37,0,0,1,2.15-.21,3.22,3.22,0,0,1,2,.86l-.05,0C165.44,10.06,166.1,10.21,166.84,10.31Z" fill="#3d4451"/><path d="M165.54,11.88l-.7.25c-1.68-1.45-6.43.28-6.43.28A5.06,5.06,0,0,1,165.54,11.88Z" fill="#f26935"/><path d="M165.56,11.89c-.18.09-.41.25-.67.36l-.06,0-.07,0a2.88,2.88,0,0,0-1.48-.44c-.53,0-1.07,0-1.62,0a9,9,0,0,0-3.2.73l-.43.19.28-.39a4.82,4.82,0,0,1,3.54-1.91,4.54,4.54,0,0,1,2,.31A4.14,4.14,0,0,1,165.56,11.89Zm-.05,0a6.69,6.69,0,0,0-1.75-.78,5.69,5.69,0,0,0-1.88-.17,5.44,5.44,0,0,0-3.37,1.57l-.14-.21,1.62-.43c.54-.14,1.07-.3,1.63-.41a5.38,5.38,0,0,1,1.7-.09,2.71,2.71,0,0,1,1.61.66l-.13,0C165,12,165.23,12,165.51,11.88Z" fill="#3d4451"/><path d="M164.22,13.44l-.67.78a2,2,0,0,0-2.81.2l-.8-.67A3,3,0,0,1,164.22,13.44Z" fill="#f26935"/><path d="M164.24,13.44a8.71,8.71,0,0,1-.55.89l-.1.13-.15-.11a2.5,2.5,0,0,0-1.32-.41,1.6,1.6,0,0,0-1.32.53l-.05.06-.06,0a10.13,10.13,0,0,0-.85-.61l-.12-.08.1-.15A2.92,2.92,0,0,1,162,12.45,2.69,2.69,0,0,1,164.24,13.44Zm-.05,0a4.7,4.7,0,0,0-1.06-.4A3.1,3.1,0,0,0,162,13a3.28,3.28,0,0,0-2,.87v-.22a10,10,0,0,0,.74.72h-.11a2.58,2.58,0,0,1,1.41-.81,1.86,1.86,0,0,1,1.58.54l-.25,0C163.64,13.9,163.89,13.7,164.19,13.44Z" fill="#3d4451"/><line x1="157.79" y1="20.59" x2="167.35" y2="19.9" fill="none" stroke="#2f2e41" stroke-linecap="round" stroke-miterlimit="10" stroke-width="0.5"/><polygon points="163.12 25.79 161.29 29.56 165.47 29.27 163.12 25.79" fill="#23b0e6"/><polygon points="162.93 24.38 160.07 30.29 166.62 29.82 162.93 24.38" fill="none" stroke="#282828" stroke-miterlimit="10" stroke-width="0.5"/><polygon points="229.88 29.41 229.88 29.41 214.63 27.39 214.63 27.39 215.92 17.67 215.92 17.67 231.17 19.7 231.17 19.7 229.88 29.41" fill="#e0e0e0"/><path d="M216.13,18.44l-1,7.62,14.19,1.88,1-7.61Z" fill="#f5fafc"/><rect x="219.3" y="17.27" width="6.73" height="12.77" transform="translate(169.93 241.28) rotate(-82.44)" fill="#e0e0e0"/><rect x="220.85" y="25.98" width="2.71" height="13.99" transform="translate(160.28 248.91) rotate(-82.44)" fill="#e0e0e0"/><rect x="220.29" y="25.41" width="2.71" height="13.99" transform="matrix(0.13, -0.99, 0.99, 0.13, 160.36, 247.86)" fill="none" stroke="#2f2e41" stroke-miterlimit="10" stroke-width="0.5"/><polygon points="230.49 30.07 230.49 30.07 213.73 27.85 213.73 27.85 215.2 16.82 215.2 16.82 231.95 19.04 231.95 19.04 230.49 30.07" fill="none" stroke="#2f2e41" stroke-miterlimit="10" stroke-width="0.5"/><polygon points="229.7 36 229.7 36 212.94 33.78 212.94 33.78 213.62 28.67 213.62 28.67 230.38 30.9 230.38 30.9 229.7 36" fill="none" stroke="#2f2e41" stroke-miterlimit="10" stroke-width="0.5"/><path d="M216,18.33l-1.06,8,14.43,1.91,1.06-7.94Z" fill="none" stroke="#2f2e41" stroke-miterlimit="10" stroke-width="0.5"/><line x1="214.67" y1="31.43" x2="227.25" y2="33.11" fill="none" stroke="#2f2e41" stroke-miterlimit="10" stroke-width="0.5"/><line x1="216.54" y1="30.37" x2="216.17" y2="33.21" fill="none" stroke="#2f2e41" stroke-miterlimit="10" stroke-width="0.5"/><line x1="218.3" y1="30.61" x2="217.92" y2="33.44" fill="none" stroke="#2f2e41" stroke-miterlimit="10" stroke-width="0.5"/><line x1="220.02" y1="30.83" x2="219.82" y2="32.33" fill="none" stroke="#2f2e41" stroke-miterlimit="10" stroke-width="0.5"/><line x1="221.78" y1="31.07" x2="221.58" y2="32.56" fill="none" stroke="#2f2e41" stroke-miterlimit="10" stroke-width="0.5"/><line x1="223.6" y1="31.31" x2="223.23" y2="34.14" fill="none" stroke="#2f2e41" stroke-miterlimit="10" stroke-width="0.5"/><line x1="225.36" y1="31.54" x2="224.98" y2="34.38" fill="none" stroke="#2f2e41" stroke-miterlimit="10" stroke-width="0.5"/><line x1="227.11" y1="31.78" x2="226.93" y2="33.17" fill="none" stroke="#2f2e41" stroke-miterlimit="10" stroke-width="0.5"/><rect x="228.09" y="27.84" width="0.42" height="1.77" transform="translate(169.79 251.26) rotate(-82.44)" fill="#3d4451"/><circle cx="223.75" cy="24.45" r="0.49" fill="#f26322" stroke="#2f2e41" stroke-linecap="round" stroke-linejoin="round" stroke-width="0.5"/><circle cx="221.21" cy="22.48" r="0.71" fill="#8ec969" stroke="#2f2e41" stroke-miterlimit="10" stroke-width="0.5"/><circle cx="227.57" cy="22.56" r="0.71" fill="#8ec969" stroke="#2f2e41" stroke-miterlimit="10" stroke-width="0.5"/><line x1="218.4" y1="24.23" x2="220.59" y2="22.82" fill="none" stroke="#2f2e41" stroke-miterlimit="10" stroke-width="0.5"/><line x1="221.85" y1="22.9" x2="223.32" y2="24.21" fill="none" stroke="#2f2e41" stroke-miterlimit="10" stroke-width="0.5"/><line x1="224.19" y1="24.28" x2="226.9" y2="22.9" fill="none" stroke="#2f2e41" stroke-miterlimit="10" stroke-width="0.5"/><circle cx="218.02" cy="24.56" r="0.65" fill="#f26322" stroke="#2f2e41" stroke-miterlimit="10" stroke-width="0.5"/><circle cx="231.93" cy="19.29" r="1.16" fill="#f5fafc"/><path d="M234.22,20.08a2.6,2.6,0,0,0,.12-.63l.69-.26-.21-1-.72.05a2.34,2.34,0,0,0-.38-.55l.3-.65-.83-.54-.46.53a2.28,2.28,0,0,0-.68-.13l-.24-.65-1,.21,0,.69a2.27,2.27,0,0,0-.58.39l-.63-.28-.54.83.53.46a2.2,2.2,0,0,0-.12.67l-.66.25.21,1,.72,0a2.29,2.29,0,0,0,.38.54l-.3.66.84.54.48-.56a2.32,2.32,0,0,0,.63.11l.27.7,1-.21-.06-.75a2.07,2.07,0,0,0,.53-.36l.68.31.55-.83Zm-2.55.41a1.22,1.22,0,1,1,1.47-.89,1.22,1.22,0,0,1-1.47.89h0Z" fill="#fdc345" stroke="#2f2e41" stroke-linecap="round" stroke-linejoin="round" stroke-width="0.5"/><polygon points="219.29 16.42 213.94 15.71 213.46 19.31 216.25 19.68 217.64 21.2 217.48 19.85 218.81 20.02 219.29 16.42" fill="#e0e0e0"/><polygon points="219.38 15.83 213.12 15 212.59 19.04 215.85 19.47 217.48 21.17 217.29 19.66 218.84 19.86 219.38 15.83" fill="none" stroke="#2f2e41" stroke-miterlimit="10" stroke-width="0.5"/><path d="M213.87,17.09l1.5-.47,0,.32-1.14.32h0l1,.61,0,.31-1.33-.84Z" fill="#3d4451"/><path d="M215.36,18.34l.92-2.05.29,0-.91,2Z" fill="#3d4451"/><path d="M218,17.9l-1.5.46,0-.31,1.16-.32h0l-1-.58,0-.32,1.33.84Z" fill="#3d4451"/><path d="M104.81,14a2.15,2.15,0,1,1,2.76,1.29h0A2.17,2.17,0,0,1,104.81,14Z" fill="#c7ddeb"/><path d="M100.2,22.34a1.2,1.2,0,1,1,1.53.72,1.2,1.2,0,0,1-1.53-.72Z" fill="#c7ddeb" stroke="#8ec969" stroke-miterlimit="10"/><path d="M103.79,6.86a.92.92,0,0,1,.57-1.17.93.93,0,1,1-.57,1.18Z" fill="#c7ddeb"/><path d="M114.54,14.3a1,1,0,1,1,1.31.61h0a1,1,0,0,1-1.31-.6Z" fill="#e0e0e0"/><path d="M104.68,14.2a2.66,2.66,0,1,1,3.43,1.59,2.66,2.66,0,0,1-3.43-1.59Z" fill="none" stroke="#2f2e41" stroke-miterlimit="10" stroke-width="0.5"/><path d="M114.83,14.38a1.18,1.18,0,1,1,1.51.7h0A1.18,1.18,0,0,1,114.83,14.38Z" fill="none" stroke="#2f2e41" stroke-miterlimit="10" stroke-width="0.5"/><path d="M110.17,20a1,1,0,0,1,.61-1.31,1,1,0,0,1,.7,1.91h0a1,1,0,0,1-1.3-.61Z" fill="#8ec969" stroke="#2f2e41" stroke-miterlimit="10" stroke-width="0.5"/><path d="M103.62,6.87a1.35,1.35,0,1,1,1.74.8h0A1.34,1.34,0,0,1,103.62,6.87Z" fill="none" stroke="#2f2e41" stroke-miterlimit="10" stroke-width="0.5"/><path d="M100,22.67a1.61,1.61,0,0,1,1-2.06,1.61,1.61,0,1,1,1.1,3h0a1.61,1.61,0,0,1-2.06-1Z" fill="none" stroke="#2f2e41" stroke-miterlimit="10" stroke-width="0.5"/><path d="M110.65,6.82a1.14,1.14,0,1,1,1.48.69,1.14,1.14,0,0,1-1.48-.69Z" fill="#f26322" stroke="#2f2e41" stroke-miterlimit="10" stroke-width="0.5"/><path d="M96.63,10.69a1.53,1.53,0,1,1,2,.91h0A1.54,1.54,0,0,1,96.63,10.69Z" fill="#23b0e6" stroke="#2f2e41" stroke-miterlimit="10" stroke-width="0.5"/><path d="M105.67,13.84a1.61,1.61,0,1,1,2.06,1,1.6,1.6,0,0,1-2.06-1Z" fill="#2f2e41"/><line x1="105.75" y1="15.78" x2="102.27" y2="21.03" fill="none" stroke="#2f2e41" stroke-miterlimit="10" stroke-width="0.5"/><line x1="99.29" y1="10.59" x2="104.48" y2="12.22" fill="none" stroke="#2f2e41" stroke-miterlimit="10" stroke-width="0.5"/><line x1="109.81" y1="13.68" x2="114.87" y2="13.97" fill="none" stroke="#2f2e41" stroke-miterlimit="10" stroke-width="0.5"/><line x1="108.14" y1="10.93" x2="111.1" y2="7.28" fill="none" stroke="#2f2e41" stroke-miterlimit="10" stroke-width="0.5"/><line x1="106.28" y1="10.8" x2="105.3" y2="7.53" fill="none" stroke="#2f2e41" stroke-miterlimit="10" stroke-width="0.5"/><line x1="110.55" y1="18.85" x2="108.26" y2="15.73" fill="none" stroke="#2f2e41" stroke-miterlimit="10" stroke-width="0.5"/><polyline points="104.99 49.57 101.31 51.63 97.9 49.5 98.35 45.42 101.82 43.23 105.5 45.53" fill="#e0e0e0"/><polyline points="110.32 59.28 106.25 61.47 102.46 59.1 102.74 54.91 106.38 52.83 110.5 55.35" fill="#e0e0e0"/><polygon points="109.38 58.91 107.11 60.08 105.05 58.84 105.09 56.27 107.36 55.09 109.41 56.32 109.38 58.91" fill="#23b0e6"/><polygon points="103.86 48.78 101.55 49.92 99.49 48.68 99.53 46.11 101.8 44.94 103.89 46.19 103.86 48.78" fill="#23b0e6"/><path d="M110.46,54.59a.28.28,0,0,1,.14.27l-.2,4.47a.33.33,0,0,1-.16.25l-3.89,2.2a.34.34,0,0,1-.31,0l-3.69-2.27a.3.3,0,0,1-.14-.27l.21-4.47a.29.29,0,0,1,.15-.25l3.89-2.2a.29.29,0,0,1,.31,0l3.69,2.27Zm-.67,4.55L110,55l-3.39-2.09L103,55l-.19,4.12,3.39,2.09Z" fill="url(#a)"/><path d="M106.68,56.77a.3.3,0,0,1,0,.42.3.3,0,0,1-.37.09L102.56,55h0a.31.31,0,0,1,.32-.52h0l3.8,2.34Z" fill="url(#b)"/><path d="M106.65,56.86a.29.29,0,0,1,.14.27l-.31,4.43a.3.3,0,0,1-.32.28.3.3,0,0,1-.28-.32h0l.31-4.43a.32.32,0,0,1,.32-.28A.24.24,0,0,1,106.65,56.86Z" fill="url(#c)"/><path d="M110.45,54.61a.52.52,0,0,1,.1.11.3.3,0,0,1-.11.39l-3.81,2.26a.29.29,0,0,1-.39-.11.28.28,0,0,1,.1-.39l3.8-2.24A.29.29,0,0,1,110.45,54.61Z" fill="url(#d)"/><path d="M97.7,50.67l-.12,2.69,5.22,3.37-.33.5-5.36-3.46a.29.29,0,0,1-.14-.26l.13-2.86Z" fill="url(#e)"/><path d="M105.54,45.27a.33.33,0,0,1,.15.29l-.19,4.17a.32.32,0,0,1-.17.27l-3.64,2.06a.32.32,0,0,1-.33,0l-3.44-2.12h0a.32.32,0,0,1-.15-.29L98,45.47a.31.31,0,0,1,.16-.26l3.64-2.06a.32.32,0,0,1,.33,0l3.45,2.11Zm-.69,4.25.18-3.8-3.12-1.92L98.6,45.68l-.18,3.8,3.12,1.91Z" fill="url(#f)"/><path d="M105.32,49.58a.28.28,0,0,1,.07.39.28.28,0,0,1-.37.08l-3.55-2.18h0a.28.28,0,0,1,.29-.47h0l3.56,2.18Z" fill="url(#g)"/><path d="M102.08,43.16a.28.28,0,0,1,.13.26l-.29,4.14a.28.28,0,0,1-.3.26.29.29,0,0,1-.26-.3l.29-4.13a.29.29,0,0,1,.3-.27h0Z" fill="url(#h)"/><path d="M101.79,47.3a.28.28,0,0,1,.09.1.27.27,0,0,1-.07.38h0l-3.56,2.09a.28.28,0,0,1-.39-.07.28.28,0,0,1,.07-.39.05.05,0,0,0,0,0l3.55-2.09A.28.28,0,0,1,101.79,47.3Z" fill="url(#i)"/><path d="M105.4,47.43l5,3.23a.3.3,0,0,1,.13.25l-.13,2.67-.56,0L110,51l-4.88-3.16Z" fill="url(#j)"/><circle cx="97.43" cy="50.93" r="0.68" fill="#f26322" stroke="#2f2e41" stroke-miterlimit="10" stroke-width="0.5"/><circle cx="110.28" cy="53.02" r="0.7" fill="#8ec969" stroke="#2f2e41" stroke-miterlimit="10" stroke-width="0.5"/><path d="M250.39,98.22a8.83,8.83,0,0,1,2-.89l.42-2,3.42-.06.49,2a8.66,8.66,0,0,1,2.08.82l1.72-1.13L263,99.32,262,101.08a8.11,8.11,0,0,1,.89,2l2,.42.06,3.41-2,.5a8.42,8.42,0,0,1-.82,2.08l1.14,1.72-2.36,2.46-1.77-1.06a8.59,8.59,0,0,1-2,.89l-.43,2-3.42.06-.49-2a8.59,8.59,0,0,1-2.07-.82l-1.73,1.13-2.46-2.37,1.06-1.77a8.11,8.11,0,0,1-.89-2l-2-.41-.06-3.42,2-.5a8.17,8.17,0,0,1,.81-2.07l-1.15-1.76,2.38-2.46,1.77,1.06Zm1.82,4.56a3.67,3.67,0,1,0,5.18-.1,3.65,3.65,0,0,0-5.18.1h0Z" fill="#e0e0e0"/><path d="M70,23.26a4,4,0,0,0,3.77-.81c.65.94,1.48,2.06,2.42,3.26.52.65,1,1.27,1.5,1.84a4.07,4.07,0,0,0-2.12,4.81c-.89.27-1.89.61-3,1s-1.82.69-2.6,1a4.1,4.1,0,1,0,0,2.41,3.91,3.91,0,0,0,.17-1.4c.86-.27,1.81-.59,2.84-1s2.12-.81,3-1.18A4.1,4.1,0,1,0,78.7,27.2c-.5-.68-1.06-1.42-1.67-2.19-1-1.24-1.89-2.34-2.65-3.21a4.84,4.84,0,0,0,.83-1.55,4.11,4.11,0,1,0-7.81-2.47A4.28,4.28,0,0,0,70,23.26Z" fill="#e0e0e0"/><path d="M45.8,119.49l4.14,5.1a.72.72,0,0,0,.64.28l6.54-.53a.75.75,0,0,1,.81.7.79.79,0,0,1-.12.47L54.25,131a.76.76,0,0,0-.07.7l2.51,6.06a.76.76,0,0,1-.38,1,.79.79,0,0,1-.5,0l-6.36-1.7a.78.78,0,0,0-.69.16l-5,4.24a.76.76,0,0,1-1.06-.08.75.75,0,0,1-.18-.45l-.35-6.55a.74.74,0,0,0-.36-.6l-5.6-3.43a.76.76,0,0,1-.24-1,.71.71,0,0,1,.37-.31l6.17-2.34a.77.77,0,0,0,.46-.53l1.53-6.36a.76.76,0,0,1,.92-.55A.87.87,0,0,1,45.8,119.49Z" fill="#e0e0e0"/><polygon points="211.69 108.62 211.3 115.98 217.63 120.01 224.35 116.68 224.74 109.32 218.41 105.29 211.69 108.62" fill="#e0e0e0"/><polygon points="209.68 107.34 209.16 117.05 217.5 122.36 226.36 117.96 226.88 108.26 218.53 102.95 209.68 107.34" fill="none" stroke="#2f2e41" stroke-miterlimit="10" stroke-width="0.5"/><polygon points="206.62 105.73 205.94 118.41 217.26 125.37 229.24 119.66 229.92 106.97 218.61 100.01 206.62 105.73" fill="none" stroke="#2f2e41" stroke-miterlimit="10" stroke-width="0.5"/><path d="M219.94,115.11l.34-6.42-4-.21-.34,6.41-5.21,7.59a2.32,2.32,0,0,0-.4,1.2l-.09,1.52,14.26.77.08-1.53a2.42,2.42,0,0,0-.27-1.24Z" fill="#f5fafc"/><path d="M221.94,118c-.05-.09-.43,0-.51,0-.29,0-.57,0-.86,0-1.62-.08-3-.12-4.64-.21a.91.91,0,0,0-.81.4c-.36.55-.69,1.13-1,1.7s-.57,1-.86,1.47l-.76,1.26a2.44,2.44,0,0,0-.34,1.2h0a1.5,1.5,0,0,0,1.38,1.61h0l9.49.51a1.48,1.48,0,0,0,1.56-1.43h0a2.52,2.52,0,0,0-.23-1.24Z" fill="#23b0e6"/><path d="M219.94,115.11l.34-6.42-4-.21-.34,6.41-5.21,7.59a2.32,2.32,0,0,0-.4,1.2l-.09,1.52,14.26.77.08-1.53a2.42,2.42,0,0,0-.27-1.24Z" fill="none" stroke="#2f2e41" stroke-linecap="round" stroke-miterlimit="10" stroke-width="0.5"/><rect x="217.35" y="104.38" width="1.87" height="6.54" rx="0.93" transform="matrix(0.05, -1, 1, 0.05, 99.16, 319.89)" fill="#f5fafc" stroke="#2f2e41" stroke-miterlimit="10" stroke-width="0.5"/><line x1="216.46" y1="109.89" x2="217.98" y2="109.97" fill="none" stroke="#2f2e41" stroke-miterlimit="10" stroke-width="0.5"/><line x1="216.43" y1="111.55" x2="217.95" y2="111.64" fill="none" stroke="#2f2e41" stroke-miterlimit="10" stroke-width="0.5"/><line x1="216.39" y1="113.22" x2="217.91" y2="113.29" fill="none" stroke="#2f2e41" stroke-miterlimit="10" stroke-width="0.5"/><line x1="216.14" y1="114.86" x2="217.82" y2="114.96" fill="none" stroke="#2f2e41" stroke-miterlimit="10" stroke-width="0.5"/><path d="M219.94,115.11l.34-6.42-4-.21-.34,6.41-5.21,7.59a2.32,2.32,0,0,0-.4,1.2l-.09,1.52,14.26.77.08-1.53a2.42,2.42,0,0,0-.27-1.24Z" fill="none" stroke="#2f2e41" stroke-linecap="round" stroke-miterlimit="10" stroke-width="0.5"/><ellipse cx="222.33" cy="101.39" rx="2.22" ry="2.27" transform="translate(109.25 318.01) rotate(-86.95)" fill="#8ec969" stroke="#2f2e41" stroke-miterlimit="10" stroke-width="0.5"/><ellipse cx="215.52" cy="104.26" rx="1.38" ry="1.41" transform="translate(99.94 313.92) rotate(-86.95)" fill="#f26322" stroke="#2f2e41" stroke-miterlimit="10" stroke-width="0.5"/><line x1="222.34" y1="122.82" x2="220.13" y2="119.08" fill="none" stroke="#fff" stroke-linecap="round" stroke-miterlimit="10" stroke-width="0.94"/><ellipse cx="222.87" cy="123.91" rx="0.4" ry="0.41" transform="translate(87.26 339.86) rotate(-86.95)" fill="#fff"/></svg>