<svg xmlns="http://www.w3.org/2000/svg" viewBox="0 0 500 500">
  <ellipse cx="250" cy="358.74" rx="219.14" ry="126.52" fill="#f5f5f5"/>
  <g fill="#e0e0e0">
    <path d="M163.45 441.91l51.4-29.68a2.8 2.8 0 000-4.84l-51.4-29.68a7.79 7.79 0 00-7.76 0l-51.4 29.68a2.8 2.8 0 000 4.84l51.4 29.68a7.79 7.79 0 007.76 0zM235.1 400.57L341.73 339a3.83 3.83 0 000-6.63l-85.25-49.72a8.93 8.93 0 00-9 0l-106.6 61.55a3.83 3.83 0 000 6.63l85.26 49.72a8.93 8.93 0 008.96.02z"/>
    <ellipse cx="320.58" cy="399.62" rx="47.85" ry="27.62"/>
  </g>
  <path fill="#fafafa" d="M114.65 138.14v47.4L73.6 209.25v-47.41l41.05-23.7z"/>
  <path d="M110.21 140.7V183L73.6 204.11v-42.27l36.61-21.14m2.22-3.85l-41.06 23.71V208l2.23 1.28 41.05-23.7v-47.4l-2.22-1.29z" fill="#e0e0e0"/>
  <path d="M112.43 142v42.27L75.82 205.4v-42.28L112.43 142m2.22-3.85L73.6 161.84v47.4l41.05-23.7v-47.4z" fill="#ebebeb"/>
  <path fill="#e0e0e0" d="M108.63 174.7l-31.06 17.93 9.17-23.88 6.36 7.55 6.49-9.25 9.04 7.65z"/>
  <ellipse cx="95.02" cy="161.44" rx="4.01" ry="2.31" transform="rotate(-60 95.02 161.44)" fill="#e0e0e0"/>
  <path fill="#fafafa" d="M128.35 79.11v37.77l-32.71 18.88V98l32.71-18.89z"/>
  <path d="M124.81 81.16v33.68l-29.17 16.83V98l29.17-16.84m1.77-3.07L93.87 97v37.76l1.77 1 32.71-18.88V79.12l-1.77-1z" fill="#e0e0e0"/>
  <path d="M126.58 82.18v33.68L97.41 132.7V99l29.17-16.84m1.77-3.06L95.64 98v37.76l32.71-18.88V79.12z" fill="#ebebeb"/>
  <path fill="#e0e0e0" d="M123.55 108.24l-24.74 14.29 7.3-19.02 5.07 6.01 5.17-7.37 7.2 6.09zM115 96.38a5 5 0 01-2.26 3.91c-1.25.72-2.26.13-2.26-1.31a5 5 0 012.26-3.91c1.26-.72 2.26-.13 2.26 1.31z"/>
  <g>
    <path d="M226.71 388.33v7.15a2 2 0 001.19 1.66 6.31 6.31 0 005.74 0 2 2 0 001.19-1.66v-7.15zM326.05 331v7.15a2 2 0 001.19 1.66 6.38 6.38 0 005.74 0 2 2 0 001.19-1.66V331zM166.49 353.41v7.16a2 2 0 001.19 1.66 6.38 6.38 0 005.74 0 2 2 0 001.19-1.66v-7.16z" fill="#ebebeb"/>
    <path fill="#455a64" d="M248.98 202.85l-82.08 44.74v77.85l101.8-54.59-19.72-68z"/>
    <path d="M316.7 270.85l-5.13-2.95-49.75-28.44a2.83 2.83 0 01-.18-4.81l3.22-2.16-4-27.51a12.66 12.66 0 00-6-9l-7.33-4.4a2.33 2.33 0 00-3.52 2v100.21a9.72 9.72 0 005 8.48l69.21 38.65a3.79 3.79 0 003.68 0l.27-.15a3.84 3.84 0 001.82-3.28v-54.06a14.53 14.53 0 00-7.29-12.58z" fill="#455a64"/>
    <path d="M156.05 245.19v-.69a9.38 9.38 0 014.67-8.11L240 190.33a5.67 5.67 0 015.78 0l8.58 5.17a3.74 3.74 0 010 6.43l-83.45 49.35z" fill="#37474f"/>
    <path d="M260.35 236.8v78.64l55.28 25.29a7.93 7.93 0 007.19-.3l8.34-4.71v-66.16z" fill="#263238"/>
    <path d="M259.15 376.35l43.73-24.52a13.87 13.87 0 00.4-24l-43.52-26.34a.78.78 0 00-.77 0l-67.64 37.39a.77.77 0 000 1.33l60 36a7.87 7.87 0 007.8.14z" fill="#263238"/>
    <path d="M254.57 373a3.46 3.46 0 005.16 3l54-30.1a10.14 10.14 0 005.19-8.85v-5.31L257 369a4.64 4.64 0 00-2.4 4.06z" fill="#455a64"/>
    <path d="M258.7 368l57.21-31.46a5.84 5.84 0 00.29-10.06L261 291.84l-69.2 38.24L254.82 368a3.85 3.85 0 003.88 0z" fill="#37474f"/>
    <path d="M256.36 365.43l57.77-32.77-54.75-43.84-69.2 38.25L254 365.4a2.35 2.35 0 002.36.03z" fill="#263238"/>
    <path d="M254.57 345.6v14.95a3.46 3.46 0 005.16 3l54.4-30.89a9.52 9.52 0 004.83-8.3v-21.17L258.32 339a7.64 7.64 0 00-3.75 6.6z" fill="#455a64"/>
    <path d="M258.76 340.37L316.54 308a4.74 4.74 0 00.13-8.2l-57.29-34.68-69.2 38.25 61.47 36.91a7.06 7.06 0 007.11.09z" fill="#37474f"/>
    <path d="M277.05 230.11a8.65 8.65 0 00-9.16.29l-3.07 2.06-3.22 2.16a2.83 2.83 0 00.18 4.81l49.75 28.44 5 2.84c.08 0 .15.11.24.15a14.79 14.79 0 017.23 13.05v53.63a3.84 3.84 0 01-1.82 3.28l12.29-6.94a9.29 9.29 0 004.73-8.09v-52a13.06 13.06 0 00-6.48-11.28z" fill="#455a64"/>
    <path d="M332.67 262.53l-55.62-32.42a8.65 8.65 0 00-9.16.29l-3.07 2.06-3.22 2.16a2.83 2.83 0 00.18 4.81l49.75 28.44 5 2.84c.08 0 .15.11.24.15a13.55 13.55 0 015.58 6l15.05-9.63a13.15 13.15 0 00-4.73-4.7z" fill="#37474f"/>
    <path d="M204.12 177.73s-2.18-16.65 25.22-16.65c22.84 0 22 24.63 7.4 31.71z" fill="#263238"/>
    <circle cx="206.38" cy="183.96" r="9.57" fill="#263238"/>
    <path d="M248.36 183.94a7.7 7.7 0 11-7.69-7.69 7.69 7.69 0 017.69 7.69z" fill="#263238"/>
    <circle cx="208.13" cy="196.88" r="9.57" fill="#263238"/>
    <circle cx="218.78" cy="202.85" r="9.57" fill="#263238"/>
    <path d="M291.77 352.9l19.37 25.73-5.38 4.25S298 381.26 295.27 371a122.32 122.32 0 01-3.5-18.1z" fill="#ffa8a7"/>
    <path d="M290 351.15s-5.37 4.87-3 9.24 6.5 7.87 6.63 13.62 3 16 9.37 17.62 12.61-.6 12.49-2.86-4.37-10.14-4.37-10.14-5.86 3.63-10.18.13-5.32-18.24-5.32-18.24z" fill="#f26322"/>
    <path d="M290 351.15s-5.37 4.87-3 9.24 6.5 7.87 6.63 13.62 3 16 9.37 17.62 12.61-.6 12.49-2.86-4.37-10.14-4.37-10.14-5.86 3.63-10.18.13-5.32-18.24-5.32-18.24z" opacity=".2"/>
    <path d="M257 271.48s43.13 18.25 46.63 20 9.62 5 9 19-4.13 48.89-4.13 48.89l-23.65-45.48-61.07-29.06z" fill="#f26322"/>
    <path d="M257 271.48s43.13 18.25 46.63 20 9.62 5 9 19-4.13 48.89-4.13 48.89l-23.65-45.48-61.07-29.06z" opacity=".5"/>
    <path d="M310.23 341.37c-.92 9.94-1.73 18-1.73 18l-23.65-45.48-43.54-20.69 9.89-7.74c13.92 7 34.13 17.13 40.16 20.22 7.69 3.93 10.06 15.07 16.68 30.54.7 1.64 1.44 3.37 2.19 5.15z" fill="#f26322"/>
    <path d="M310.23 341.37c-.92 9.94-1.73 18-1.73 18l-23.65-45.48-43.54-20.69 9.89-7.74c13.92 7 34.13 17.13 40.16 20.22 7.69 3.93 10.06 15.07 16.68 30.54.7 1.64 1.44 3.37 2.19 5.15z" opacity=".7"/>
    <path fill="#f26322" d="M253.43 280.78l-4.45 6.73 3.48.53.97-7.26z"/>
    <path opacity=".7" d="M253.43 280.78l-4.45 6.73 3.48.53.97-7.26z"/>
    <path d="M310.88 388.77s-.62 1-.62 6.24 2 6.23 4.65 7.17 10.22 6.47 12.33 8.9 10.54 5 18.87 3.47 10.11-7 6.09-10.49-15.44-10-15.44-10zM211 282.25l18.56-4.25s51.53 25.84 59.21 29.78 10.06 15.07 16.68 30.54c5 11.64 11.48 27.61 15.77 37.2 0 0-3.05 8.1-12.72 6.07-3.28-7.15-9.07-13.55-17.48-24.9-7.29-9.84-10.13-18.53-11.24-23.74a8.34 8.34 0 00-6.17-6.39c-8.51-2.07-25.84-6.55-44.14-12.86-25.77-8.92-18.47-31.45-18.47-31.45z" fill="#f26322"/>
    <path d="M211 282.25l18.56-4.25s51.53 25.84 59.21 29.78 10.06 15.07 16.68 30.54c5 11.64 11.48 27.61 15.77 37.2 0 0-3.05 8.1-12.72 6.07-3.28-7.15-9.07-13.55-17.48-24.9-7.29-9.84-10.13-18.53-11.24-23.74a8.34 8.34 0 00-6.17-6.39c-8.51-2.07-25.84-6.55-44.14-12.86-25.77-8.92-18.47-31.45-18.47-31.45z" opacity=".5"/>
    <path d="M321.22 375.48c1.41 3.16 2.59 5.63 3.39 7 3.23 5.62 12.67 11.71 16 14.58s4 4 .86 6.4c-8 6.16-15-.56-19.5-4.87a56.08 56.08 0 00-9.87-7.22 2 2 0 01-1-1.41 33.4 33.4 0 00-2.61-8.44c9.68 2.06 12.73-6.04 12.73-6.04z" fill="#ffa8a7"/>
    <path fill="#ebebeb" d="M230.68 299.87l32.45 18.73 53.94-31.19-32.44-19.11-53.95 31.57z"/>
    <path fill="#e0e0e0" d="M259.64 294.54l12.17-7.03-7.63-4.4-12.17 7.03 7.63 4.4zM264.51 313.92l-16.4-9.65 32.04-19.39-15.64 29.04z"/>
    <path d="M263.55 256.05l13 6.08a115.59 115.59 0 0111.45 3.54s9 3.7 9.44 6.12-6.78 8.25-13.09 5.41a20.86 20.86 0 00-5.27-1.91c-1.69-.18-6.73-1-10.37-4.44L258.2 268s-5.4-10.45 5.35-11.95z" fill="#ffa8a7"/>
    <path d="M272 274.15c1.51 1.61 5.79 5.67 6.73 6.85s3.14-1.85-.73-6.35a36.28 36.28 0 01-9.35-5.09 37.66 37.66 0 003.35 4.59zM237 210.92a12.76 12.76 0 0114.1 8.55 56.18 56.18 0 012.63 12.75c1.13 13.37 1.44 20.05 1.44 20.05l13.43 6.09s-7.25.35-6.76 10.59l-16.73-4.22z" fill="#ffa8a7"/>
    <path d="M254.12 236.93q-.18-2.19-.39-4.71a56.18 56.18 0 00-2.63-12.75 12.76 12.76 0 00-14.1-8.55l4.91 32.61z" fill="#f26322"/>
    <path d="M254.12 236.93q-.18-2.19-.39-4.71a56.18 56.18 0 00-2.63-12.75 12.76 12.76 0 00-14.1-8.55l4.91 32.61z" opacity=".2"/>
    <path d="M255.17 252.27a9.32 9.32 0 00-4 2.44s1.62-3.08 3.89-4z" fill="#f28f8f"/>
    <path d="M215.81 216.23l-9.43 4v27.63a61.2 61.2 0 014.72 22.3v13.68s19.26 6.86 34.2-.56c7.24-3.6 11.71-11.81 11.71-11.81s-8-4.68-8-10.4a79.5 79.5 0 011.59-13.3 16 16 0 004.59-13.4c-1.06-9.12-18.23-23.46-18.23-23.46l-6.4.88z" fill="#f26322"/>
    <path fill="#ffa8a7" d="M215.81 216.23l14.79-4.43v-17.9h-14.79v22.33z"/>
    <path d="M230.6 211.8a23.81 23.81 0 01-13.6-12.93v-5h13.6z" fill="#f28f8f"/>
    <path d="M234.05 169.65s13.53.79 11.85 23.92c-.77 10.7-3.27 16.24-11.51 15.83-9.33-.46-22.58-6.87-21.71-25.17s21.37-14.58 21.37-14.58z" fill="#ffa8a7"/>
    <path d="M215.81 193.9s3.71 1 3.71-4.34c0 0 16.48-1.12 20.12-17.47 0 0-1.63-4.9-11.92-4.9s-18.94 9.1-16.25 21.61z" fill="#263238"/>
    <path fill="#f28f8f" d="M235.99 188.93v7.95l4.65-1.43-4.65-6.52z"/>
    <path d="M229 189.77a1.62 1.62 0 101.62-1.62 1.62 1.62 0 00-1.62 1.62zM239.64 188.65a1.62 1.62 0 101.62-1.62 1.62 1.62 0 00-1.62 1.62zM243.23 185.27l-3.17-1.88s1.22-1.26 2.43-.5a2.2 2.2 0 01.74 2.38z" fill="#263238"/>
    <path d="M235.58 199.52a8.24 8.24 0 01-5.21-1.4s-.36 2.75 1.94 3.27 3.27-1.87 3.27-1.87z" fill="#f28f8f"/>
    <path d="M217.12 194.5a9 9 0 00-.73-3.93 4.15 4.15 0 00-3.6-2.81c-4.16-.12-4.72 3.88-4.66 5.31.15 3.74 3.17 7.78 8.81 7.93zM230.6 211.8l4.36 5.67a5.51 5.51 0 01-1.81 8.25 9.42 9.42 0 01-11.72-2.46l-5.62-7zM230.68 280l12.37 6.73a36.7 36.7 0 015.69 0c2.18.26 8 1.32 9.49 1.39s.06 2.87-3.87 2.62c0 0 8.87 4.06 9.18 6.5s-7.11 8-13.31 4.87a20.08 20.08 0 00-5.18-2.13c-1.69-.25-6.68-1.25-10.18-4.87l-10.37-3.31s-4.62-10.73 6.18-11.8z" fill="#ffa8a7"/>
    <path d="M206.38 220.24s7.51 5.19 6.26 21.14a187.66 187.66 0 000 29.07l18.04 9.55a13.78 13.78 0 00-6.18 11.8s-25.94-5.34-27.49-11.38-2.12-34.94-2.12-40 2.11-16.16 11.49-20.18z" fill="#ffa8a7"/>
    <path d="M194.89 240.47c0 2.13.11 8.54.34 15.68a24.14 24.14 0 0016.85.5c0-4.45.12-9.69.56-15.27 1.25-15.95-6.26-21.14-6.26-21.14-9.38 4.02-11.49 15.2-11.49 20.23z" fill="#f26322"/>
    <path d="M194.89 240.47c0 2.13.11 8.54.34 15.68a24.14 24.14 0 0016.85.5c0-4.45.12-9.69.56-15.27 1.25-15.95-6.26-21.14-6.26-21.14-9.38 4.02-11.49 15.2-11.49 20.23z" opacity=".2"/>
    <path d="M212.62 270.45a14.51 14.51 0 00-5.8 1.06 12.46 12.46 0 015.69-2.5z" fill="#f28f8f"/>
    <path d="M324.59 251.67L319 288.59v.06l-56 32.49a.09.09 0 01-.13-.09l5.47-35.8a5.35 5.35 0 012.48-3.72L322.09 250a1.66 1.66 0 012.5 1.67z" fill="#fafafa"/>
    <path d="M262.88 321.14L233 303.81a4.58 4.58 0 01-2.27-3.94l32.45 18.73zM292.16 287.25c0 2.63 1.86 3.7 4.14 2.38a9.14 9.14 0 004.13-7.16c0-2.64-1.85-3.7-4.13-2.39a9.17 9.17 0 00-4.14 7.17z" fill="#e0e0e0"/>
    <path d="M237 249.76s-11.31 3.08-17.31-5.42c0 0 3.88 10.97 17.31 5.42z" opacity=".2"/>
    <path d="M205.63 173.78s-2.75-7-4.4-6.15 1.7 5.29 1.7 5.29-5.62-2.2-6.09-.9 7.18 4.23 7.18 4.23z" fill="#263238"/>
    <path d="M228.76 322.51c-.08 0-.14-.1-.22-.14l-5-2.84 5.13 3z" fill="none"/>
    <path d="M228.76 322.51l-5.13-3-49.75-28.44a2.83 2.83 0 01-.17-4.81l3.21-2.16-4-27.5a12.62 12.62 0 00-6-9l-7.33-4.39a2.32 2.32 0 00-3.52 2v100.24a9.73 9.73 0 005 8.48l69.21 38.65a3.8 3.8 0 003.67.05l.27-.15a3.83 3.83 0 001.78-3.28v-54.11a14.54 14.54 0 00-7.24-12.58z" fill="#263238"/>
    <path d="M189.11 281.78a8.63 8.63 0 00-9.16.28l-3.08 2.06-3.21 2.16a2.83 2.83 0 00.17 4.81l49.75 28.44 5 2.84.24.16a14.76 14.76 0 017.22 13v53.67a3.83 3.83 0 01-1.82 3.28l12.3-6.93a9.29 9.29 0 004.72-8.1v-52a13 13 0 00-6.47-11.27z" fill="#455a64"/>
    <path d="M244.73 314.2l-55.62-32.42a8.63 8.63 0 00-9.16.28l-3.08 2.06-3.21 2.16a2.83 2.83 0 00.17 4.81l49.75 28.44 5 2.84.24.16a13.6 13.6 0 015.59 6l15-9.62a13 13 0 00-4.68-4.71z" fill="#37474f"/>
  </g>
  <g>
    <path fill="#f26322" d="M206.3 347.92v65.14l-47.49-27.42V320.5l47.49 27.42z"/>
    <path opacity=".4" d="M206.3 347.92v65.14l-47.49-27.42V320.5l47.49 27.42z"/>
    <path fill="#f26322" d="M210.05 345.83v65.15l-3.75 2.08v-65.14l3.75-2.09zM162.56 373.25v65.14l-47.48-27.41v-65.15l47.48 27.42z"/>
    <path opacity=".4" d="M162.56 373.25v65.14l-47.48-27.41v-65.15l47.48 27.42z"/>
    <path fill="#f26322" d="M166.32 371.17v65.14l-3.76 2.08v-65.14l3.76-2.08z"/>
    <path fill="#f26322" d="M162.56 378.44l47.49-27.41v-5.2l-47.49 27.42v5.19zM162.56 438.39l47.49-27.41v-37.42l-47.49 27.42v37.41z"/>
    <path fill="#f26322" d="M162.56 373.25l47.49-27.42-47.49-27.41-47.48 27.41 47.48 27.42z"/>
    <path opacity=".2" d="M162.56 373.25l47.49-27.42-47.49-27.41-47.48 27.41 47.48 27.42z"/>
    <path fill="#f26322" d="M166.32 399.78l39.98-23.08v-23.52l-39.98 23.08v23.52z"/>
    <path fill="#fff" opacity=".6" d="M166.32 399.78l39.98-23.08v-23.52l-39.98 23.08v23.52z"/>
    <path d="M185.9 374.53a2.91 2.91 0 102.91-2.91 2.91 2.91 0 00-2.91 2.91z" fill="#fff"/>
    <path fill="#f26322" d="M166.32 429.05l39.98-23.08v-23.52l-39.98 23.08v23.52z"/>
    <path fill="#fff" opacity=".6" d="M166.32 429.05l39.98-23.08v-23.52l-39.98 23.08v23.52z"/>
    <path d="M185.9 403.8a2.91 2.91 0 102.91-2.91 2.91 2.91 0 00-2.91 2.91z" fill="#fff"/>
  </g>
  <g>
    <path d="M150.12 341.4a7.22 7.22 0 012.88-2.78c4.51-2.6 11.82-2.6 16.33 0a7.22 7.22 0 012.88 2.78h.5v1.94c0 1.71-1.12 3.41-3.38 4.71-4.51 2.61-11.82 2.61-16.33 0-2.26-1.3-3.39-3-3.39-4.71v-1.94z" fill="#263238"/>
    <path d="M153 346.11c4.51 2.61 11.82 2.61 16.33 0s4.51-6.82 0-9.43-11.82-2.6-16.33 0-4.51 6.83 0 9.43z" fill="#37474f"/>
    <path d="M161.41 341.4h-.49a2.26 2.26 0 01-2.26-2.26v-53h5v53a2.26 2.26 0 01-2.26 2.26z" fill="#263238"/>
    <path d="M138.78 307.08c.07-.27.16-.55.26-.82l7.08-22.52h30.09l7.08 22.52c.1.27.19.55.26.82 1 3.94-1.15 8.09-6.39 11.12-8.84 5.09-23.16 5.09-32 0-5.23-3.03-7.36-7.2-6.38-11.12z" fill="#f26322"/>
    <path d="M138.78 307.08c.07-.27.16-.55.26-.82l7.08-22.52h30.09l7.08 22.52c.1.27.19.55.26.82 1 3.94-1.15 8.09-6.39 11.12-8.84 5.09-23.16 5.09-32 0-5.23-3.03-7.36-7.2-6.38-11.12z" fill="#fff" opacity=".4"/>
    <ellipse cx="161.16" cy="285" rx="15.2" ry="8.77" fill="#f26322"/>
    <path d="M161.16 276.22V278a20.08 20.08 0 019.86 2.33c2.29 1.32 3.56 3 3.56 4.66s-1.27 3.33-3.56 4.66a22 22 0 01-19.71 0c-2.29-1.33-3.56-3-3.56-4.66s1.27-3.34 3.56-4.66a20.06 20.06 0 019.85-2.33v-1.79m0 0a22 22 0 00-10.74 2.57c-5.94 3.43-5.94 9 0 12.41a23.75 23.75 0 0021.49 0c5.94-3.42 5.94-9 0-12.41a22 22 0 00-10.75-2.57z" fill="#f26322"/>
    <path d="M161.16 276.22V278a20.08 20.08 0 019.86 2.33c2.29 1.32 3.56 3 3.56 4.66s-1.27 3.33-3.56 4.66a22 22 0 01-19.71 0c-2.29-1.33-3.56-3-3.56-4.66s1.27-3.34 3.56-4.66a20.06 20.06 0 019.85-2.33v-1.79m0 0a22 22 0 00-10.74 2.57c-5.94 3.43-5.94 9 0 12.41a23.75 23.75 0 0021.49 0c5.94-3.42 5.94-9 0-12.41a22 22 0 00-10.75-2.57z" fill="#fff" opacity=".2"/>
  </g>
  <g>
    <path d="M454.32 138.21L320.49 60.94c-1.53-.89-2.92-.82-3.89 0l-4.6 3.19 3.12 3.87v108c0 3.95 2.41 8.54 5.37 10.26L453 262.73l.25 4.2 4.88-3.34a5.06 5.06 0 001.57-4.15v-111c-.01-3.93-2.41-8.52-5.38-10.23z" fill="#f26322"/>
    <path d="M454.32 138.21L320.49 60.94c-1.53-.89-2.92-.82-3.89 0l-4.6 3.19 3.12 3.87v108c0 3.95 2.41 8.54 5.37 10.26L453 262.73l.25 4.2 4.88-3.34a5.06 5.06 0 001.57-4.15v-111c-.01-3.93-2.41-8.52-5.38-10.23z" opacity=".3"/>
    <path d="M449.77 266.63l-133.84-77.27c-3-1.71-5.37-6.3-5.37-10.26v-111c0-3.95 2.41-5.77 5.37-4l133.84 77.26c3 1.72 5.36 6.31 5.36 10.26v111c0 3.91-2.4 5.72-5.36 4.01z" fill="#f26322"/>
    <path fill="#f26322" d="M424.77 252.2l9.33 5.39-66.38-163.61-10.46-6.04 67.51 164.26z"/>
    <path fill="#fff" opacity=".2" d="M424.77 252.2l9.33 5.39-66.38-163.61-10.46-6.04 67.51 164.26z"/>
    <path fill="#f26322" d="M445.78 264.35l3.25 1.79-66.39-163.61-4.36-2.44 67.5 164.26z"/>
    <path fill="#fff" opacity=".2" d="M445.78 264.35l3.25 1.79-66.39-163.61-4.36-2.44 67.5 164.26z"/>
    <path d="M328.74 87.06c0 2.27-1.6 3.19-3.57 2.06a7.9 7.9 0 01-3.56-6.12c0-2.28 1.6-3.2 3.56-2.06a7.87 7.87 0 013.57 6.12zM350.62 99.66a.92.92 0 01-.45-.12l-17.08-9.87a.9.9 0 01.9-1.56L351.07 98a.9.9 0 01.33 1.23.89.89 0 01-.78.43zM444 241.52a1.23 1.23 0 01-.64-.17L321 170.68a1.29 1.29 0 111.29-2.24l122.38 70.67a1.29 1.29 0 01-.65 2.41zM444 150a.66.66 0 01-.33-.09l-3.29-1.91a.67.67 0 01-.24-.92.66.66 0 01.92-.25l3.27 1.89A.67.67 0 01444 150zM444 152.4a.66.66 0 01-.33-.09l-3.28-1.89a.67.67 0 01-.24-.92.66.66 0 01.92-.25l3.27 1.89a.67.67 0 01-.34 1.26zM444 154.81a.66.66 0 01-.33-.09l-3.28-1.89a.67.67 0 01-.24-.92.66.66 0 01.92-.25l3.27 1.89a.67.67 0 01-.34 1.26z" fill="#455a64"/>
    <path d="M370.12 142.91v18.57a1.25 1.25 0 001.39 1.24l16.87-2a1.25 1.25 0 00.73-2.13L372.24 142a1.24 1.24 0 00-2.12.91z" fill="#fafafa"/>
    <path d="M373.68 198.13l-51.42-29.69a1.29 1.29 0 10-1.29 2.24l52.71 30.44z" fill="#ebebeb"/>
    <path d="M377.24 201.38c0 2.27-1.59 3.19-3.56 2.06a7.88 7.88 0 01-3.56-6.18c0-2.27 1.59-3.19 3.56-2a7.86 7.86 0 013.56 6.12zM331.79 184v4.88a.33.33 0 00.37.32l4.43-.51a.33.33 0 00.19-.56l-4.43-4.37a.33.33 0 00-.56.24zM342.71 190.67v4.88a.33.33 0 00.36.32l4.44-.51a.33.33 0 00.19-.56l-4.43-4.37a.33.33 0 00-.56.24z" fill="#fafafa"/>
    <path d="M347.8 198.66a.39.39 0 01-.4-.39v-5.44a.4.4 0 01.8 0v5.44a.39.39 0 01-.4.39zM325.81 184.64v-4.88a.33.33 0 00-.37-.33L321 180a.33.33 0 00-.19.56l4.43 4.36a.33.33 0 00.57-.28z" fill="#fafafa"/>
    <path d="M320.72 182.88a.4.4 0 01-.4-.4V177a.4.4 0 11.8 0v5.44a.4.4 0 01-.4.44zM439.2 246.58a.45.45 0 01-.45-.45v-2a.46.46 0 01.68-.39l1.67 1a.45.45 0 01.17.61.46.46 0 01-.62.17l-1-.58v1.2a.45.45 0 01-.45.44zM440.88 251.6a.49.49 0 01-.23-.06l-1.67-1a.45.45 0 01-.23-.39v-1.8a.45.45 0 11.9 0v1.54l1.45.84a.45.45 0 01.17.61.43.43 0 01-.39.26zM444.43 253.65a.48.48 0 01-.23-.07l-1.73-1a.46.46 0 01-.16-.62.45.45 0 01.61-.16l1.06.61v-1a.45.45 0 01.45-.45.45.45 0 01.45.45v1.76a.44.44 0 01-.23.38.47.47 0 01-.22.1zM444.43 249.58a.45.45 0 01-.45-.45v-1.7l-1-.6a.45.45 0 11.45-.78l1.26.73a.44.44 0 01.23.39v2a.45.45 0 01-.49.41zM432.86 247a.46.46 0 01-.23-.06l-6.35-3.67a.47.47 0 01-.22-.39v-6a.47.47 0 01.22-.39.45.45 0 01.45 0l6.35 3.67a.45.45 0 01.23.39v6a.46.46 0 01-.45.45zm-5.9-4.38l5.45 3.15v-5L427 237.6z" fill="#fafafa"/>
    <path d="M302 49.74l-39.1-22.42a1.68 1.68 0 00-2 0L258.53 29l1.61 2v28.9a6.55 6.55 0 002.75 5.24l38.42 22 .13 2.16 2.49-1.71a2.59 2.59 0 00.81-2.13V55a6.55 6.55 0 00-2.74-5.26z" fill="#f26322"/>
    <path d="M302 49.74l-39.1-22.42a1.68 1.68 0 00-2 0L258.53 29l1.61 2v28.9a6.55 6.55 0 002.75 5.24l38.42 22 .13 2.16 2.49-1.71a2.59 2.59 0 00.81-2.13V55a6.55 6.55 0 00-2.74-5.26z" opacity=".3"/>
    <path d="M299.66 89.11l-39.1-22.42a6.55 6.55 0 01-2.75-5.24V31c0-2 1.23-2.95 2.75-2.07l39.1 22.41a6.59 6.59 0 012.75 5.25V87c0 2.06-1.23 3-2.75 2.11z" fill="#f26322"/>
    <path d="M267.1 40.68c0 1.16-.81 1.63-1.82 1a4 4 0 01-1.82-3.16c0-1.16.81-1.63 1.82-1a4 4 0 011.82 3.16zM278.29 47.12a.46.46 0 01-.23-.06L269.33 42a.46.46 0 11.46-.79l8.73 5a.47.47 0 01.17.63.48.48 0 01-.4.28z" fill="#455a64"/>
    <path d="M275.16 54.27v9.5a.64.64 0 00.71.63l8.62-1a.64.64 0 00.38-1.09l-8.62-8.49a.64.64 0 00-1.09.45z" fill="#fafafa"/>
    <path d="M302 97.05l-39.1-22.42a1.7 1.7 0 00-2 0l-2.36 1.64 1.61 2v28.89a6.55 6.55 0 002.75 5.24l38.42 22 .13 2.15 2.49-1.71a2.59 2.59 0 00.81-2.13v-30.42a6.57 6.57 0 00-2.75-5.24z" fill="#f26322"/>
    <path d="M302 97.05l-39.1-22.42a1.7 1.7 0 00-2 0l-2.36 1.64 1.61 2v28.89a6.55 6.55 0 002.75 5.24l38.42 22 .13 2.15 2.49-1.71a2.59 2.59 0 00.81-2.13v-30.42a6.57 6.57 0 00-2.75-5.24z" opacity=".3"/>
    <path d="M299.66 136.42L260.56 114a6.59 6.59 0 01-2.75-5.25V78.31c0-2 1.23-3 2.75-2.07l39.1 22.42a6.55 6.55 0 012.75 5.24v30.45c0 2.02-1.23 2.95-2.75 2.07z" fill="#f26322"/>
    <path d="M267.1 88c0 1.16-.81 1.63-1.82 1.05a4 4 0 01-1.82-3.16c0-1.16.81-1.63 1.82-1A4 4 0 01267.1 88zM278.29 94.43a.46.46 0 01-.23-.06l-8.73-5.05a.46.46 0 11.46-.79l8.73 5a.47.47 0 01.17.63.46.46 0 01-.4.27z" fill="#455a64"/>
    <path d="M283.68 102l-8.26 1.67-.3 7.31a1.68 1.68 0 10.94 1.5l.48-6.69 6-1.42.06 6.41a1.67 1.67 0 10.11 3 1.69 1.69 0 00.89-1.41z" fill="#fafafa"/>
  </g>
</svg>
