<svg xmlns="http://www.w3.org/2000/svg" viewBox="0 0 633.68 347.13"><rect x="183.76" y="36.28" width="56.7" height="77.59" transform="translate(-11.07 46.48) rotate(-12.19)" fill="#f5f5f5"/><rect x="306.6" width="188.89" height="122.83" fill="#f5f5f5"/><circle cx="401.02" cy="56.22" r="25.7" transform="translate(253.2 433.21) rotate(-76.57)" fill="#e0e0e0"/><polygon points="409.68 56.23 402.97 60.1 396.25 63.98 396.25 56.23 396.25 48.48 402.97 52.35 409.68 56.23" fill="#f5f5f5"/><rect x="306.6" y="100.77" width="188.89" height="22.07" fill="#e0e0e0"/><polygon points="324.95 111.8 322.23 113.38 319.5 114.95 319.5 111.8 319.5 108.66 322.23 110.23 324.95 111.8" fill="#f5f5f5"/><rect x="340.61" y="111.3" width="139.33" height="1" fill="#f5f5f5"/><path d="M343.43,111.8a2.08,2.08,0,1,1-2.09-2.07h0A2.09,2.09,0,0,1,343.43,111.8Z" fill="#f5f5f5"/><rect x="440.3" y="88.47" width="193.38" height="174.28" rx="5.49" fill="#f5f5f5"/><path d="M446.71,88.47H627.27a6.41,6.41,0,0,1,6.41,6.41v13.05H440.3V94.88A6.41,6.41,0,0,1,446.71,88.47Z" fill="#ebebeb"/><path d="M452.1,96.7a1.53,1.53,0,1,1-1.53,1.53A1.54,1.54,0,0,1,452.1,96.7Z" fill="#fafafa"/><path d="M462.78,98.23a1.53,1.53,0,1,1-1.54-1.52h0A1.53,1.53,0,0,1,462.78,98.23Z" fill="#fafafa"/><circle cx="470.4" cy="98.23" r="1.53" fill="#fafafa"/><rect x="537.4" y="123.62" width="73.02" height="2.64" fill="#fafafa"/><rect x="537.4" y="134.49" width="73.02" height="2.64" fill="#fafafa"/><rect x="537.4" y="145.37" width="73.02" height="2.64" fill="#fafafa"/><rect x="537.4" y="156.25" width="73.02" height="2.64" fill="#fafafa"/><rect x="537.4" y="167.12" width="36.51" height="2.64" fill="#fafafa"/><rect x="459.84" y="188.52" width="73.02" height="2.64" fill="#fafafa"/><rect x="459.84" y="199.39" width="73.02" height="2.64" fill="#fafafa"/><rect x="459.84" y="210.27" width="73.02" height="2.64" fill="#fafafa"/><rect x="459.84" y="221.14" width="73.02" height="2.64" fill="#fafafa"/><rect x="496.35" y="232.02" width="36.51" height="2.64" fill="#fafafa"/><rect x="545.48" y="185.59" width="62.49" height="51.99" fill="#fafafa"/><polygon points="545.38 221.88 563.84 208.94 576.73 217.86 596.99 200.71 607.97 211.59 607.97 237.58 545.48 237.58 545.38 221.88" fill="#ebebeb"/><circle cx="577.81" cy="200.71" r="5.23" fill="#ebebeb"/><rect x="459.85" y="122.02" width="62.49" height="51.99" fill="#fafafa"/><polygon points="459.74 158.31 478.2 145.37 491.09 154.28 511.35 137.14 522.33 148.01 522.33 174.01 459.85 174.01 459.74 158.31" fill="#ebebeb"/><circle cx="492.17" cy="137.14" r="5.23" fill="#ebebeb"/><path d="M0,169.69H232.64V291.05A4.65,4.65,0,0,1,228,295.7H4.65A4.65,4.65,0,0,1,0,291.05V169.69Z" fill="#f5f5f5"/><rect y="169.69" width="232.64" height="23.41" fill="#ebebeb"/><circle cx="14.19" cy="181.44" r="1.84" fill="#fafafa"/><circle cx="25.2" cy="181.44" r="1.84" fill="#fafafa"/><circle cx="36.21" cy="181.44" r="1.84" fill="#fafafa"/><rect x="116.82" y="211.98" width="87.85" height="3.18" fill="#ebebeb"/><rect x="116.82" y="225.06" width="87.85" height="3.18" fill="#ebebeb"/><rect x="116.82" y="238.14" width="87.85" height="3.18" fill="#ebebeb"/><rect x="116.82" y="251.23" width="87.85" height="3.18" fill="#ebebeb"/><rect x="116.82" y="264.31" width="43.92" height="3.18" fill="#ebebeb"/><rect x="19.35" y="209.75" width="75.17" height="62.55" fill="#fafafa"/><polygon points="19.22 253.41 41.44 237.84 56.94 248.57 81.31 227.94 94.52 241.02 94.52 272.3 19.35 272.3 19.22 253.41" fill="#ebebeb"/><path d="M64.53,227.94a6.3,6.3,0,1,1-6.3-6.3h0A6.3,6.3,0,0,1,64.53,227.94Z" fill="#ebebeb"/><rect x="176.78" y="49.97" width="56.7" height="77.59" transform="translate(-14.12 45.32) rotate(-12.19)" fill="#fff"/><path d="M241,120.71l-.09-.37c-.06-.25-.14-.61-.24-1.07-.22-1-.53-2.34-.93-4.13-.79-3.63-1.95-8.9-3.42-15.57-2.91-13.34-7-32.26-11.92-54.65l.28.18-55.41,12h0l.2-.31c6.1,28.33,11.75,54.56,16.33,75.85l-.25-.17,40.27-8.58L237,121.52l3-.61,1-.2s-.32.09-1,.24l-2.91.65L226,124.06l-40.35,8.83h-.21v-.2C180.82,111.4,175.14,85.18,169,56.86V56.6h.25l55.42-12h.23l0,.23c4.8,22.48,8.86,41.47,11.72,54.85,1.41,6.66,2.53,11.92,3.29,15.54.38,1.78.66,3.16.86,4.1l.21,1.05C241,120.48,241,120.6,241,120.71Z" fill="#263238"/><path d="M206.36,64.76c0,.15-6,1.56-13.41,3.17s-13.49,2.79-13.52,2.65,6-1.55,13.41-3.16S206.36,64.62,206.36,64.76Z" fill="#263238"/><path d="M222.36,68.21c0,.14-9.24,2.26-20.69,4.73s-20.78,4.37-20.81,4.23,9.24-2.26,20.7-4.73S222.36,68.07,222.36,68.21Z" fill="#263238"/><path d="M223.87,75.08c0,.14-9.23,2.26-20.69,4.74s-20.77,4.33-20.82,4.23,9.23-2.26,20.69-4.74S223.84,74.94,223.87,75.08Z" fill="#263238"/><path d="M225.36,82c0,.14-9.24,2.26-20.69,4.73s-20.78,4.37-20.81,4.23,9.23-2.26,20.7-4.73S225.36,81.82,225.36,82Z" fill="#263238"/><path d="M226.84,88.83c0,.14-9.23,2.26-20.69,4.74s-20.79,4.37-20.79,4.23,9.23-2.26,20.69-4.74S226.81,88.69,226.84,88.83Z" fill="#263238"/><path d="M228.36,95.71c0,.14-9.24,2.26-20.69,4.73s-20.78,4.37-20.81,4.23,9.23-2.26,20.7-4.74S228.3,95.57,228.36,95.71Z" fill="#263238"/><path d="M229.81,102.58c0,.14-9.23,2.26-20.69,4.74s-20.76,4.37-20.76,4.23,9.23-2.26,20.69-4.74S229.78,102.44,229.81,102.58Z" fill="#263238"/><path d="M212.11,113.6c0,.14-4.94,1.34-11.1,2.67s-11.18,2.29-11.21,2.15,4.94-1.33,11.1-2.66S212.08,113.46,212.11,113.6Z" fill="#263238"/><polygon points="483.93 239 498.11 275.41 504.03 265.86 512.22 276.62 521.99 267.33 512.68 258.35 521.27 252.54 483.93 239" fill="#f26322"/><path d="M478.59,244.38A74.7,74.7,0,0,1,468,251.11a39,39,0,0,1,5.17-3.58A38.37,38.37,0,0,1,478.59,244.38Z" fill="#263238"/><path d="M479.69,237a9.47,9.47,0,0,1-2.28-.6c-1.38-.44-3.28-1.11-5.33-2s-3.89-1.65-5.2-2.27a10.89,10.89,0,0,1-2.08-1.1,10.78,10.78,0,0,1,2.22.76l5.25,2.13,5.27,2.09A10.73,10.73,0,0,1,479.69,237Z" fill="#263238"/><path d="M484,220.51a8.07,8.07,0,0,1,.52,2c.24,1.25.53,3,.77,4.93s.4,3.7.47,5a8,8,0,0,1,0,2.08,68.56,68.56,0,0,1-1-7A65.87,65.87,0,0,1,484,220.51Z" fill="#263238"/><path d="M503.6,228.66c.06.14-2.56,1.27-5.52,3.17s-5.3,3.55-5.39,3.42.49-.54,1.41-1.25q1.78-1.4,3.7-2.61A19.27,19.27,0,0,1,503.6,228.66Z" fill="#263238"/><path d="M154,245.2a29.92,29.92,0,0,0-.67-4.41,17.75,17.75,0,0,0-2-4.78,18.14,18.14,0,0,0-4.59-5.09,18,18,0,0,0-17-2.54,17.11,17.11,0,0,0-4.53,2.44,16.28,16.28,0,0,0-3.78,3.81,17.79,17.79,0,0,0,0,21.14,16.43,16.43,0,0,0,3.78,3.8,17,17,0,0,0,4.53,2.44,18,18,0,0,0,17-2.54,18.25,18.25,0,0,0,4.59-5.08,17.68,17.68,0,0,0,2-4.79,29.78,29.78,0,0,0,.67-4.4v1.16a8.18,8.18,0,0,1-.12,1.4,12.08,12.08,0,0,1-.34,1.89,16.91,16.91,0,0,1-2,4.88,18.25,18.25,0,0,1-22,7.93,16.82,16.82,0,0,1-4.65-2.49,17.18,17.18,0,0,1-3.9-3.9,18.26,18.26,0,0,1,0-21.75,21.66,21.66,0,0,1,1.81-2.13,23.54,23.54,0,0,1,2.09-1.77,17.52,17.52,0,0,1,4.65-2.49,18.28,18.28,0,0,1,22,7.93,17.2,17.2,0,0,1,2,4.88,12.08,12.08,0,0,1,.34,1.89A8.39,8.39,0,0,1,154,244v.86A1.83,1.83,0,0,1,154,245.2Z" fill="#263238"/><path d="M135.82,254.31a81.46,81.46,0,0,1-.26-9.11,81.46,81.46,0,0,1,.26-9.11,77,77,0,0,1,.27,9.11A77,77,0,0,1,135.82,254.31Z" fill="#263238"/><path d="M144.93,245.2a81.28,81.28,0,0,1-9.1.26,81.46,81.46,0,0,1-9.11-.26,79.14,79.14,0,0,1,9.11-.26A79,79,0,0,1,144.93,245.2Z" fill="#263238"/><path d="M432.36,303.84c-.12.07-12.68-19.35-28.05-43.39s-27.74-43.6-27.62-43.67,12.67,19.37,28,43.37S432.43,303.76,432.36,303.84Z" fill="#263238"/><circle cx="437.77" cy="317.11" r="29.15" fill="#fff"/><path d="M408.62,317.15v-.47c0-.31,0-.8.05-1.39v-1a10.53,10.53,0,0,1,.16-1.22,22,22,0,0,1,.57-3,27.73,27.73,0,0,1,3.18-7.82,29.37,29.37,0,0,1,19.78-14,27.21,27.21,0,0,1,3.71-.44c.63,0,1.27-.09,1.91-.08l1.95.1a13.43,13.43,0,0,1,2,.21c.65.1,1.32.18,2,.31a32.85,32.85,0,0,1,7.75,2.82c.62.34,1.22.73,1.84,1.09a14.26,14.26,0,0,1,1.77,1.22,26.51,26.51,0,0,1,6.22,6.24,27.86,27.86,0,0,1,4.21,8.09,29.18,29.18,0,0,1,0,18.56,28.6,28.6,0,0,1-4.21,8.11,33.48,33.48,0,0,1-2.89,3.4,32.22,32.22,0,0,1-3.34,2.83,14.26,14.26,0,0,1-1.77,1.22c-.62.37-1.22.76-1.84,1.09a30.25,30.25,0,0,1-3.83,1.68,29.91,29.91,0,0,1-3.93,1.14c-.65.14-1.32.21-2,.32a13.43,13.43,0,0,1-2,.21l-2,.09c-.64,0-1.28-.05-1.91-.08a27.36,27.36,0,0,1-3.72-.44,29.39,29.39,0,0,1-19.73-13.88,28,28,0,0,1-3.18-7.82,22,22,0,0,1-.57-3c-.06-.45-.13-.85-.16-1.23s0-.71,0-1a10.75,10.75,0,0,0-.05-1.39,1.06,1.06,0,0,1,0-.47,3.32,3.32,0,0,0,.05.47c.05.31.05.79.09,1.38l.07,1a10.3,10.3,0,0,0,.18,1.22,23.48,23.48,0,0,0,.62,3,27.85,27.85,0,0,0,3.23,7.72,29.12,29.12,0,0,0,19.56,13.61,28.09,28.09,0,0,0,3.66.42c.63,0,1.25.08,1.89.07l1.91-.1a12.52,12.52,0,0,0,1.93-.21c.65-.11,1.3-.18,1.95-.32a32,32,0,0,0,3.85-1.13,30.81,30.81,0,0,0,3.77-1.66c.61-.33,1.2-.72,1.8-1.08a15,15,0,0,0,1.75-1.2,29.92,29.92,0,0,0,3.27-2.79,32.43,32.43,0,0,0,2.84-3.35,28.15,28.15,0,0,0,4.13-8,28.72,28.72,0,0,0,0-18.23,28.15,28.15,0,0,0-4.13-8,31.14,31.14,0,0,0-2.83-3.35,33.44,33.44,0,0,0-3.27-2.79,15,15,0,0,0-1.75-1.2c-.6-.36-1.19-.74-1.8-1.08a29.29,29.29,0,0,0-3.77-1.65,28.81,28.81,0,0,0-3.85-1.14c-.65-.13-1.3-.21-2-.31a12.54,12.54,0,0,0-1.93-.22l-1.91-.1c-.63,0-1.26.06-1.89.08a24.88,24.88,0,0,0-3.65.42,29,29,0,0,0-19.57,13.61,27.72,27.72,0,0,0-3.23,7.72,21.88,21.88,0,0,0-.62,3c-.06.44-.14.84-.18,1.22s-.05.71-.07,1c0,.59-.07,1-.09,1.39A2.4,2.4,0,0,1,408.62,317.15Z" fill="#263238"/><polygon points="429.82 306.4 425.83 329.2 437.77 327.56 449.71 329.2 444.9 306.4 429.82 306.4" fill="#263238"/><path d="M442.81,306.7c-.09,0-.33-.82-1-2a6.29,6.29,0,0,0-1.43-1.85,4.9,4.9,0,0,0-1.17-.68,4.34,4.34,0,0,0-1.43-.24,5,5,0,0,0-2.72.65,4.36,4.36,0,0,0-1.49,1.75c-.6,1.22-.8,2.07-.89,2.05a5.47,5.47,0,0,1,.56-2.21,4.45,4.45,0,0,1,1.56-2,5.11,5.11,0,0,1,3-.77,4.58,4.58,0,0,1,1.6.29,4.82,4.82,0,0,1,1.3.79,6.28,6.28,0,0,1,1.45,2A5.7,5.7,0,0,1,442.81,306.7Z" fill="#263238"/><path d="M321.45,305.79c-.15,0-.26-20.07-.26-44.83s.11-44.83.26-44.83.26,20.06.26,44.83S321.59,305.79,321.45,305.79Z" fill="#263238"/><circle cx="320.85" cy="317.76" r="29.15" fill="#fff"/><path d="M291.7,317.76V314.9a10.73,10.73,0,0,1,.17-1.22,19.12,19.12,0,0,1,.57-3,27.44,27.44,0,0,1,3.18-7.82A29.27,29.27,0,0,1,315.35,289a27.21,27.21,0,0,1,3.71-.44c.64,0,1.28-.08,1.92-.08l1.94.1a13.43,13.43,0,0,1,2,.21c.66.1,1.32.18,2,.31a29.82,29.82,0,0,1,3.94,1.08,31.16,31.16,0,0,1,3.84,1.67c.62.34,1.22.73,1.83,1.09a16.33,16.33,0,0,1,1.83,1.24A34.68,34.68,0,0,1,341.7,297a33.5,33.5,0,0,1,2.88,3.41,28.54,28.54,0,0,1,4.21,8.1,29,29,0,0,1,0,18.56,27.91,27.91,0,0,1-4.21,8.1,32.15,32.15,0,0,1-2.88,3.4,34.68,34.68,0,0,1-3.34,2.83,14.37,14.37,0,0,1-1.78,1.22c-.61.37-1.21.76-1.83,1.09a32,32,0,0,1-7.76,2.82c-.66.14-1.32.21-2,.32a13.43,13.43,0,0,1-2,.21l-1.94.09c-.65,0-1.28-.05-1.92-.08a27,27,0,0,1-3.71-.44,29.33,29.33,0,0,1-19.73-13.88,27.44,27.44,0,0,1-3.18-7.82,19.12,19.12,0,0,1-.57-3c-.06-.45-.13-.85-.17-1.23a8.3,8.3,0,0,1,0-1v-1.86a3.75,3.75,0,0,1,.05.47c0,.33.06.79.1,1.38a9.05,9.05,0,0,0,.06,1,8.69,8.69,0,0,0,.19,1.22,22.15,22.15,0,0,0,.61,3,28.18,28.18,0,0,0,3.24,7.72,29.15,29.15,0,0,0,19.49,13.54,28.09,28.09,0,0,0,3.66.42c.62,0,1.25.08,1.88.07l1.92-.1a12.52,12.52,0,0,0,1.93-.21c.64-.11,1.3-.18,1.94-.32a30.46,30.46,0,0,0,3.86-1.13,30.81,30.81,0,0,0,3.77-1.66c.61-.33,1.19-.72,1.8-1.07a15,15,0,0,0,1.74-1.21,32.13,32.13,0,0,0,3.28-2.78,33.53,33.53,0,0,0,2.83-3.36,27.9,27.9,0,0,0,4.13-8,28.58,28.58,0,0,0,0-18.23,28.15,28.15,0,0,0-4.13-8,26.45,26.45,0,0,0-6.11-6.14,14.92,14.92,0,0,0-1.74-1.2c-.61-.36-1.19-.74-1.8-1.07a27,27,0,0,0-3.77-1.66,28.94,28.94,0,0,0-3.86-1.14c-.64-.13-1.3-.21-1.94-.31a12.52,12.52,0,0,0-1.93-.21l-1.91-.1c-.64,0-1.27.05-1.89.07a25,25,0,0,0-3.66.42A29.12,29.12,0,0,0,296,302.84a28.18,28.18,0,0,0-3.24,7.72,21.85,21.85,0,0,0-.61,3c-.07.44-.15.84-.19,1.22s0,.71-.06,1a13.3,13.3,0,0,1-.1,1.39A3.92,3.92,0,0,1,291.7,317.76Z" fill="#263238"/><polygon points="320.85 304.7 308.21 316.19 308.21 330.76 318.05 330.76 318.05 322.03 324.32 322.03 324.32 330.76 333.5 330.76 333.5 316.19 320.85 304.7" fill="#263238"/><path d="M208.61,304.85c-.12-.07,12.43-19.92,28-44.31s28.35-44.12,28.47-44-12.43,19.91-28,44.32S208.73,304.93,208.61,304.85Z" fill="#263238"/><circle cx="203.89" cy="317.39" r="29.15" fill="#fff"/><path d="M233,317.39a3.75,3.75,0,0,1,0-.47c0-.34-.06-.8-.1-1.39a5.94,5.94,0,0,0-.06-1c-.06-.36-.12-.78-.19-1.22a20.45,20.45,0,0,0-.61-3,27.45,27.45,0,0,0-3.24-7.72A29.12,29.12,0,0,0,209.23,289a25,25,0,0,0-3.66-.42c-.62,0-1.25-.08-1.88-.07l-1.92.1a12.52,12.52,0,0,0-1.93.21c-.64.1-1.3.18-1.94.31a28.94,28.94,0,0,0-3.86,1.14,29.35,29.35,0,0,0-3.77,1.66c-.61.33-1.19.71-1.8,1.07a14.92,14.92,0,0,0-1.74,1.2,26.45,26.45,0,0,0-6.11,6.14,28.15,28.15,0,0,0-4.13,8,28.58,28.58,0,0,0,0,18.23,27.9,27.9,0,0,0,4.13,8,33.53,33.53,0,0,0,2.83,3.36,32.13,32.13,0,0,0,3.28,2.78,15,15,0,0,0,1.74,1.21c.61.35,1.19.74,1.8,1.07a32.42,32.42,0,0,0,3.77,1.66,28.9,28.9,0,0,0,3.86,1.13c.64.14,1.3.21,1.94.32a12.52,12.52,0,0,0,1.93.21l1.92.1a16.79,16.79,0,0,0,1.88-.07,28.09,28.09,0,0,0,3.66-.42,29.07,29.07,0,0,0,19.56-13.61,27.75,27.75,0,0,0,3.24-7.72,20.45,20.45,0,0,0,.61-3c.07-.44.15-.85.19-1.22l.06-1c0-.59.08-1,.1-1.38a3.75,3.75,0,0,1,0-.47v2.86a10.88,10.88,0,0,1-.17,1.23,20.33,20.33,0,0,1-.56,3,27.64,27.64,0,0,1-3.19,7.82,29.32,29.32,0,0,1-19.76,13.82,27,27,0,0,1-3.71.44c-.63,0-1.27.09-1.92.08l-1.94-.09a13.43,13.43,0,0,1-2-.21c-.66-.11-1.32-.18-2-.32a32,32,0,0,1-7.76-2.82c-.62-.33-1.22-.72-1.83-1.09a14.37,14.37,0,0,1-1.78-1.22,34.68,34.68,0,0,1-3.34-2.83,32.15,32.15,0,0,1-2.88-3.4,28.54,28.54,0,0,1-4.21-8.1,29,29,0,0,1,0-18.56,28.54,28.54,0,0,1,4.21-8.1,33.59,33.59,0,0,1,2.89-3.41,34.56,34.56,0,0,1,3.33-2.83,16.49,16.49,0,0,1,1.78-1.22c.62-.36,1.21-.75,1.83-1.09a31.16,31.16,0,0,1,3.84-1.67,29.77,29.77,0,0,1,3.92-1.14c.66-.14,1.32-.22,2-.32a13.43,13.43,0,0,1,2-.21l1.94-.1c.65,0,1.28.06,1.92.08a27.21,27.21,0,0,1,3.71.44,29.27,29.27,0,0,1,19.73,13.89,27.76,27.76,0,0,1,3.19,7.82,20.33,20.33,0,0,1,.56,3c.06.44.14.85.17,1.22s0,.72,0,1v1.39A3.77,3.77,0,0,0,233,317.39Z" fill="#263238"/><rect x="192.28" y="302.21" width="22.89" height="30.35" fill="#263238"/><path d="M204.83,307.06a27,27,0,0,1-7.51,0A27,27,0,0,1,204.83,307.06Z" fill="#455a64"/><path d="M211.46,311.33a55.55,55.55,0,0,1-7.52.26,55.34,55.34,0,0,1-7.51-.26,55.34,55.34,0,0,1,7.51-.26A55.55,55.55,0,0,1,211.46,311.33Z" fill="#455a64"/><path d="M211.46,313.93a55.55,55.55,0,0,1-7.52.26,55.34,55.34,0,0,1-7.51-.26,52.29,52.29,0,0,1,7.51-.27A52.48,52.48,0,0,1,211.46,313.93Z" fill="#455a64"/><path d="M211.46,316.52a55.55,55.55,0,0,1-7.52.26,55.34,55.34,0,0,1-7.51-.26,55.34,55.34,0,0,1,7.51-.26A55.55,55.55,0,0,1,211.46,316.52Z" fill="#455a64"/><path d="M211.46,319.15a55.55,55.55,0,0,1-7.52.26,55.34,55.34,0,0,1-7.51-.26,52.29,52.29,0,0,1,7.51-.27A52.48,52.48,0,0,1,211.46,319.15Z" fill="#455a64"/><path d="M211.46,321.71a55.55,55.55,0,0,1-7.52.26,55.34,55.34,0,0,1-7.51-.26,55.34,55.34,0,0,1,7.51-.26A55.55,55.55,0,0,1,211.46,321.71Z" fill="#455a64"/><path d="M211.46,324.3a52.48,52.48,0,0,1-7.52.27,52.29,52.29,0,0,1-7.51-.27,55.34,55.34,0,0,1,7.51-.26A55.55,55.55,0,0,1,211.46,324.3Z" fill="#455a64"/><path d="M211.46,326.9a55.55,55.55,0,0,1-7.52.26,55.34,55.34,0,0,1-7.51-.26,55.34,55.34,0,0,1,7.51-.26A55.55,55.55,0,0,1,211.46,326.9Z" fill="#455a64"/><rect x="173.68" y="167.05" width="305.65" height="50.19" rx="23.79" fill="#fff"/><path d="M411.61,166.6v50.64h42.75a25.33,25.33,0,0,0,25.33-25.32h0a25.32,25.32,0,0,0-25.32-25.32H411.61Z" fill="#f26322"/><path d="M451.36,190.51a22.39,22.39,0,0,0-.43-2.58,10.65,10.65,0,0,0-3.9-5.77,10.48,10.48,0,0,0-9.92-1.46,9.64,9.64,0,0,0-2.65,1.45,10.12,10.12,0,0,0-2.21,2.22,10.44,10.44,0,0,0,0,12.34,9.9,9.9,0,0,0,2.21,2.22,9.79,9.79,0,0,0,2.64,1.43A10.58,10.58,0,0,0,450.65,194c.1-.28.19-.57.27-.86a22.56,22.56,0,0,0,.43-2.59,8.37,8.37,0,0,1-.24,2.64,10.66,10.66,0,0,1-3.87,6,10.81,10.81,0,0,1-10.3,1.62,9.79,9.79,0,0,1-2.78-1.48,10.64,10.64,0,0,1-2.32-2.32,10.9,10.9,0,0,1,10.83-17.18,10.76,10.76,0,0,1,8.44,8.08A8.36,8.36,0,0,1,451.36,190.51Z" fill="#fff"/><path d="M461.28,205.47a54.82,54.82,0,0,1-6.16-4.09,53.44,53.44,0,0,1-5.86-4.52,104.38,104.38,0,0,1,12,8.61Z" fill="#fff"/><rect x="202.74" y="187.44" width="186.85" height="10.74" fill="#ebebeb"/><path d="M455.54,217.24s.59,0,1.73-.11a15,15,0,0,0,2.11-.27,21.66,21.66,0,0,0,2.87-.65,24,24,0,0,0,7.32-3.68l1-.74c.32-.28.63-.58.95-.87a19.34,19.34,0,0,0,1.9-1.94c.65-.68,1.16-1.51,1.78-2.3l.78-1.29.4-.67.34-.71a23,23,0,0,0,2.1-6.32c.08-.58.17-1.17.26-1.76a18.16,18.16,0,0,0,.1-1.82v-3.78a23.65,23.65,0,0,0-22.91-23.08c-6.82-.06-14.06,0-21.64,0l-237.15.08a23.67,23.67,0,0,0-15.6,5.94,23.35,23.35,0,0,0-7.73,14.56,18,18,0,0,0-.17,2.08c0,.69,0,1.39,0,2.09a41.52,41.52,0,0,0,.16,4.17,22.91,22.91,0,0,0,2.37,7.88,23.36,23.36,0,0,0,19.43,12.87c1.33.09,2.68.08,4,.08H250.7l106.62.06,71.87.08,19.55.05h0l-19.55.05-71.87.08-106.62.06H199.93c-1.35,0-2.69,0-4.06-.08A23.87,23.87,0,0,1,176,204.15a23.17,23.17,0,0,1-2.42-8.05,39.89,39.89,0,0,1-.17-4.23c0-.7,0-1.4.05-2.11a17,17,0,0,1,.17-2.13,23.82,23.82,0,0,1,7.89-14.88,24.25,24.25,0,0,1,16-6.07l237.15.08c7.59,0,14.81,0,21.65.05a23.92,23.92,0,0,1,23.15,23.4V194c0,.62-.07,1.23-.11,1.83s-.18,1.2-.27,1.78A23.12,23.12,0,0,1,477,204l-.34.72-.41.66c-.27.45-.53.88-.8,1.31a28.46,28.46,0,0,1-1.8,2.3,18.52,18.52,0,0,1-1.91,2c-.33.3-.65.6-1,.87l-1,.75a24,24,0,0,1-7.38,3.65,20.4,20.4,0,0,1-2.89.63,15.12,15.12,0,0,1-2.12.24A17,17,0,0,1,455.54,217.24Z" fill="#263238"/><path d="M323.11,186c-.91-1.06-1-2,1.05-2.14,4.51-.41,7.83-2.38,8.36-3.52s-.91-2.25-2.13-1.57a16.8,16.8,0,0,1-4.39,1.24,10.77,10.77,0,0,1-3.67,0c-1.05-.16-2-.34-2.8-.51,0,0-4.77-1-6.83-2.64l-10.1,10.79,4.74,5.35a7.16,7.16,0,0,0,6.32,3c4.06-.4,9.53-3.31,9.53-3.31.74-1.14,7.28,2.9,9.39,4.41s3.66,1.13,3.58-.32c-.05-1-6.39-5.78-8.51-7.23a26.12,26.12,0,0,1-4.54-3.58" fill="#ffbe9d"/><path d="M317.18,195.41c0,.07-.29.19-.82.18a3.48,3.48,0,0,1-3.06-2.32c-.16-.49-.11-.82-.05-.83a6.73,6.73,0,0,0,1.55,2A6.61,6.61,0,0,0,317.18,195.41Z" fill="#eb996e"/><path d="M321.18,193.84c0,.06-.29.17-.79.14a3.44,3.44,0,0,1-2.91-2.27c-.15-.47-.12-.78-.06-.79a5.8,5.8,0,0,0,1.51,1.94A7.93,7.93,0,0,0,321.18,193.84Z" fill="#eb996e"/><path d="M332.07,81.58c.42,8.86,11.23,21,19.27,23,4.22,1,9.08.55,12.43,3.39,5.75,4.87,2.39,15,6.26,21.5,2.38,4,7.11,6,9.79,9.79,4.45,6.34,1.46,15.92-4.61,20.64s-14.17,5.62-21.78,5.42c-16.75-.43-33.9-5.75-46-17.62-5.69-5.58-27.94-22.79-20.18-63.6" fill="#263238"/><path d="M392.51,145l-63.67-18.9a40.61,40.61,0,0,0-9.27-2.79l-21.5.14a20.89,20.89,0,0,0-8.25,1.73l-57.95,19.25c-4.29,1.36-7.25,5.76-7.25,10.77h0c0,6.17,4.45,11.18,9.94,11.18h26.8l-.11.39,93.08.35h0l35.53.07c5.49,0,9.94-5,9.94-11.29C399.76,150.8,396.8,146.35,392.51,145Z" fill="#f26322"/><path d="M379.75,151.87a2.81,2.81,0,0,1-.58,0l-1.64-.19c-1.42-.18-3.48-.41-6-.65a181.8,181.8,0,0,0-39.94.52c-2.54.31-4.6.59-6,.81l-1.64.23a3.66,3.66,0,0,1-.57,0,1.73,1.73,0,0,1,.55-.15l1.62-.33c1.41-.28,3.46-.62,6-1a163.25,163.25,0,0,1,20-1.51,161,161,0,0,1,20,1c2.55.29,4.61.58,6,.82l1.63.28A1.87,1.87,0,0,1,379.75,151.87Z" fill="#263238"/><g opacity="0.6"><path d="M364.81,136.4a.91.91,0,0,1-.18.21l-.56.59c-.5.51-1.24,1.27-2.25,2.19A37.35,37.35,0,0,1,358,142.5a18.87,18.87,0,0,1-5.95,2.84,15.31,15.31,0,0,1-7.95-.16,39.94,39.94,0,0,1-8.38-3.7,49.64,49.64,0,0,0-9.07-4.25,13.9,13.9,0,0,0-10.37.53c-3.35,1.51-6.2,3.81-9.31,5.47-.77.43-1.59.76-2.38,1.12s-1.62.58-2.45.81a23.28,23.28,0,0,1-4.9.85,25.27,25.27,0,0,1-16.29-4.48,43.41,43.41,0,0,1-4.92-4.37,23.64,23.64,0,0,0-3.81-3.11,10.31,10.31,0,0,0-3.9-1.46,6.61,6.61,0,0,1,1.09.12,9.34,9.34,0,0,1,2.92,1.16,24.13,24.13,0,0,1,3.9,3.08,46.67,46.67,0,0,0,4.93,4.28,25,25,0,0,0,16.05,4.3,23.11,23.11,0,0,0,4.8-.84,24.87,24.87,0,0,0,2.39-.81c.77-.35,1.57-.67,2.32-1.1,3.07-1.63,5.91-3.94,9.35-5.5a14.49,14.49,0,0,1,10.73-.54,50.66,50.66,0,0,1,9.15,4.32,39.5,39.5,0,0,0,8.26,3.7,14.88,14.88,0,0,0,7.75.22,18.86,18.86,0,0,0,5.88-2.72,37.63,37.63,0,0,0,3.89-3c1-.89,1.79-1.62,2.32-2.1l.59-.56C364.73,136.45,364.8,136.39,364.81,136.4Z" fill="#fff"/></g><g opacity="0.2"><polygon points="265.87 151.74 306.12 159.33 301.47 166.9 300.24 166.92 265.87 151.74"/></g><g opacity="0.6"><path d="M387.7,143.79a3.11,3.11,0,0,1,0,.61,13,13,0,0,1-.18,1.76,15.42,15.42,0,0,1-15.69,12.74,26,26,0,0,1-6-1.1c-2-.57-3.95-1.2-5.86-1.58a16.75,16.75,0,0,0-5.56-.29,18,18,0,0,0-13.05,8.22l-.52.87-.33.66a2.9,2.9,0,0,1-.31.54,4,4,0,0,1,.21-.58c.09-.2.18-.43.29-.69l.49-.9a16.54,16.54,0,0,1,4.26-4.9,17.85,17.85,0,0,1,8.91-3.7,17.18,17.18,0,0,1,5.72.27c1.95.38,3.9,1,5.91,1.58a25.77,25.77,0,0,0,5.91,1.09A15.26,15.26,0,0,0,384.84,152a16,16,0,0,0,2.52-5.83C387.65,144.64,387.64,143.78,387.7,143.79Z" fill="#fff"/></g><path d="M231.92,165.07s72.76,32.08,72.44,31.37,11.55-21.78,11.55-21.78l-59-29.14Z" fill="#f26322"/><path d="M265.36,149.68a9.9,9.9,0,0,1,1.5.63l4,1.89c3.38,1.61,8,3.87,13.13,6.4s9.73,4.84,13.06,6.54l3.93,2a9.89,9.89,0,0,1,1.41.81,8.94,8.94,0,0,1-1.5-.62l-4-1.89c-3.37-1.61-8-3.87-13.13-6.4S274,154.2,270.7,152.5l-3.93-2A11,11,0,0,1,265.36,149.68Z" fill="#263238"/><g opacity="0.6"><path d="M281.3,159.42a6.06,6.06,0,0,1-.68,2.16,10.21,10.21,0,0,1-4.34,4.34,13.59,13.59,0,0,1-4,1.44,16.23,16.23,0,0,1-4.92,0,36.78,36.78,0,0,1-10.61-3.56,56,56,0,0,0-10.39-4,18.22,18.22,0,0,0-4.76-.55,14.77,14.77,0,0,0-4.12.7,11.21,11.21,0,0,0-5.08,3.18,20.63,20.63,0,0,0-1.31,1.8,6.66,6.66,0,0,1,1.16-1.93,10.93,10.93,0,0,1,5.12-3.4,15.13,15.13,0,0,1,4.21-.78,18.29,18.29,0,0,1,4.89.52,54.2,54.2,0,0,1,10.43,4.06,37.94,37.94,0,0,0,10.46,3.56,15.33,15.33,0,0,0,4.78,0,13.41,13.41,0,0,0,3.94-1.34,10.25,10.25,0,0,0,4.33-4.1A17.34,17.34,0,0,0,281.3,159.42Z" fill="#fff"/></g><g opacity="0.6"><path d="M312.19,181.43c0,.09-1.61-.17-4.21-.22a38.42,38.42,0,0,0-4.55.24,34.67,34.67,0,0,0-10.69,3,37.8,37.8,0,0,0-4,2.19c-2.19,1.4-3.41,2.47-3.47,2.39a4.71,4.71,0,0,1,.81-.8,25.08,25.08,0,0,1,2.46-1.89,30.61,30.61,0,0,1,4-2.32A31.8,31.8,0,0,1,308,180.85a22.79,22.79,0,0,1,3.09.32A4.34,4.34,0,0,1,312.19,181.43Z" fill="#fff"/></g><g opacity="0.2"><path d="M321.16,123.15c-1.2,3.36.6,7,2.36,10.1a27.18,27.18,0,0,0,4.22,6.13,9.21,9.21,0,0,0,6.61,3c3.27-.11,6.19-2.52,9.46-2.33,2.22.13,4.16,1.44,6,2.68a47.52,47.52,0,0,0,10.08,5.59,18.2,18.2,0,0,0,11.34.71,11.31,11.31,0,0,0,7.85-7.77"/></g><path d="M321.43,122.23c.17-3.92.38-7.46.38-7.46s8.76-1.11,9.13-10-.51-29.51-.51-29.51l-16.07-7.78L297,81.48l2.71,41a10.9,10.9,0,0,0,11.37,10.15h0A10.88,10.88,0,0,0,321.43,122.23Z" fill="#ffbe9d"/><path d="M328.92,91.37a1.11,1.11,0,1,1-1.13-1.12A1.13,1.13,0,0,1,328.92,91.37Z" fill="#263238"/><path d="M330,89c-.14.15-1-.56-2.17-.6s-2.09.56-2.22.4.08-.35.47-.63a2.84,2.84,0,0,1,1.78-.52,3,3,0,0,1,1.73.67C330,88.63,330.07,88.92,330,89Z" fill="#263238"/><path d="M315.64,91.37a1.12,1.12,0,1,1-1.14-1.12,1.14,1.14,0,0,1,1.14,1.12Z" fill="#263238"/><path d="M316.72,89.22c-.14.15-1-.56-2.18-.6s-2.09.56-2.21.4.08-.35.47-.63a2.81,2.81,0,0,1,1.77-.52,2.9,2.9,0,0,1,1.73.68C316.67,88.86,316.79,89.15,316.72,89.22Z" fill="#263238"/><path d="M321.22,99.53a7.51,7.51,0,0,1,2-.3c.3,0,.6-.07.65-.29a1.75,1.75,0,0,0-.19-1c-.27-.81-.56-1.65-.87-2.54a47.75,47.75,0,0,1-1.93-6.62,45.12,45.12,0,0,1,2.42,6.45c.29.89.57,1.74.83,2.55a2,2,0,0,1,.14,1.29.78.78,0,0,1-.51.46,2.24,2.24,0,0,1-.52.06A7.6,7.6,0,0,1,321.22,99.53Z" fill="#263238"/><path d="M317.28,100.76c-1.22-.8,3.39,2,5.83,1.95a3.28,3.28,0,0,1-3.95,1.23C316.58,102.87,317.28,100.76,317.28,100.76Z" fill="#fff"/><path d="M321.81,114.77a21.3,21.3,0,0,1-11.59-3.8s2.73,6.51,11.44,6Z" fill="#eb996e"/><path d="M287.58,90.25h0c0,7.73-2.05,28.18,12,31l-.47-28.1s13.65-6.44,16-19.85l.08.08c.87,2,2.43,6.37,1.48,9.91l12.79,3.15,1.47,1.34a17.56,17.56,0,0,0-4.23-19c-8.78-9-16.29-2.49-21-3-3.13-.38-14-.31-18.41,18.39Z" fill="#263238"/><path d="M299.46,93.42c-1.19-.74-2.82-.13-3.76.9a5.13,5.13,0,0,0,5.11,8.43" fill="#ffbe9d"/><path d="M299.19,100.08c0,.06-.4.13-1,0a2.71,2.71,0,0,1-1.87-1.66,2,2,0,0,1,.06-1.46,2.19,2.19,0,0,1,.76-.89c.56-.36,1-.33,1-.27s-.35.19-.77.57a1.72,1.72,0,0,0-.54,1.88,2.63,2.63,0,0,0,1.5,1.48C298.82,99.93,299.19,100,299.19,100.08Z" fill="#eb996e"/><path d="M298,101.84a1,1,0,1,0,.39,0" fill="#f26322"/><path d="M323.92,167.15V152.46S302.11,157,301.71,167Z" fill="#ffbe9d"/><path d="M321.65,120.68a18.3,18.3,0,0,0,17.9,16.82c3.22.05,6.61-.71,9.55.6,2.56,1.15,4.21,3.62,6.22,5.57a18.43,18.43,0,0,0,18.28,4.14c2.65-.89,6.84-2.79,7.33-5.53.38-2.09-2.18-4.17-3.68-5.66a18.4,18.4,0,0,0-5.37-3.36c-15.54-7.3-32.21-12.6-49.35-13.51" fill="#263238"/></svg>