<svg xmlns="http://www.w3.org/2000/svg" viewBox="0 0 300 154.66"><path d="M299.1,154.11H.9a.4.4,0,0,1-.4-.4.39.39,0,0,1,.4-.39H299.1a.4.4,0,1,1,0,.79Z" fill="#3f3d56"/><circle cx="93.99" cy="17" r="2.16" fill="#f2f2f2"/><circle cx="85.39" cy="17" r="2.16" fill="#f2f2f2"/><circle cx="76.8" cy="17" r="2.16" fill="#f2f2f2"/><circle cx="68.2" cy="17" r="2.16" fill="#f2f2f2"/><circle cx="93.99" cy="26" r="2.16" fill="#f2f2f2"/><circle cx="85.39" cy="26" r="2.16" fill="#f2f2f2"/><circle cx="76.8" cy="26" r="2.16" fill="#f2f2f2"/><circle cx="68.2" cy="26" r="2.16" fill="#f2f2f2"/><circle cx="93.99" cy="35.01" r="2.16" fill="#f2f2f2"/><circle cx="85.39" cy="35.01" r="2.16" fill="#f2f2f2"/><circle cx="76.8" cy="35.01" r="2.16" fill="#f2f2f2"/><circle cx="68.2" cy="35.01" r="2.16" fill="#f2f2f2"/><circle cx="93.99" cy="44.01" r="2.16" fill="#f2f2f2"/><circle cx="85.39" cy="44.01" r="2.16" fill="#f2f2f2"/><circle cx="76.8" cy="44.01" r="2.16" fill="#f2f2f2"/><circle cx="68.2" cy="44.01" r="2.16" fill="#f2f2f2"/><circle cx="93.99" cy="53.01" r="2.16" fill="#f2f2f2"/><circle cx="85.39" cy="53.01" r="2.16" fill="#f2f2f2"/><circle cx="76.8" cy="53.01" r="2.16" fill="#f2f2f2"/><circle cx="68.2" cy="53.01" r="2.16" fill="#f2f2f2"/><circle cx="93.99" cy="62.02" r="2.16" fill="#f2f2f2"/><circle cx="85.39" cy="62.02" r="2.16" fill="#f2f2f2"/><circle cx="76.8" cy="62.02" r="2.16" fill="#f2f2f2"/><circle cx="68.2" cy="62.02" r="2.16" fill="#f2f2f2"/><path d="M75,120.84v.67a4.17,4.17,0,0,0,4.17,4.17h30a4.17,4.17,0,0,0,4.16-4.17v-.67a4.15,4.15,0,0,0-1-2.67,4.45,4.45,0,0,0-.71-.66s-16.5-.38-16.5-.84h-16A4.17,4.17,0,0,0,75,120.84Z" fill="#ccc"/><rect x="92.28" y="125.51" width="4.33" height="28.01" fill="#ccc"/><path d="M109,153.37c0,.47-6.57.18-14.67.18s-14.68.29-14.68-.18,6.57-4.18,14.68-4.18S109,152.9,109,153.37Z" fill="#ccc"/><path d="M103,120.28a3.6,3.6,0,0,0-.73-5,4.86,4.86,0,0,0-.54-.33l-9.19-31.3-7,3.42,11.23,29.7a3.61,3.61,0,0,0,6.23,3.53Z" fill="#a0616a"/><path d="M94.62,88.85,86.79,91a1.59,1.59,0,0,1-2-1.13,1.57,1.57,0,0,1,0-.23l-1-8a4.46,4.46,0,0,1,8.62-2.31l3.22,7.39a1.6,1.6,0,0,1-.83,2.12l-.22.07Z" fill="#f26322"/><polygon points="105.04 150.09 109.13 150.09 111.08 139.48 105.04 139.48 105.04 150.09" fill="#a0616a"/><path d="M104,148.75h8a5.13,5.13,0,0,1,5.13,5.13h0v.17H104Z" fill="#2f2e41"/><path d="M109.79,144.4h-.14L104,144a1.5,1.5,0,0,1-1.36-1.63,1.24,1.24,0,0,1,.09-.38l7.57-17a1.18,1.18,0,0,0-.8-1.52c-3.56-.93-12.7-3.41-20.61-6.31-3.38-1.24-5.52-3-6.34-5.33a7.52,7.52,0,0,1,.59-5.91l.05-.09,7.44.67,8.07.69,17.68,9.48a6.7,6.7,0,0,1,2.94,8.6l-8.15,18.27A1.5,1.5,0,0,1,109.79,144.4Z" fill="#2f2e41"/><circle cx="91.92" cy="64.63" r="8.19" fill="#a0616a"/><polygon points="102.71 149.75 106.8 149.75 108.74 139.15 102.71 139.15 102.71 149.75" fill="#a0616a"/><path d="M101.67,148.42h8a5.13,5.13,0,0,1,5.13,5.13h0v.17H101.67Z" fill="#2f2e41"/><path d="M107.45,145.4h-.14l-5.66-.41a1.49,1.49,0,0,1-1.35-1.63,1.61,1.61,0,0,1,.08-.38L108,126a1.16,1.16,0,0,0-.8-1.52c-3.56-.93-12.69-3.41-20.6-6.31-3.39-1.24-5.52-3-6.34-5.33a7.59,7.59,0,0,1,.58-5.91l.06-.09,7.44.67,8.07.69L114,117.64a6.7,6.7,0,0,1,2.94,8.6l-8.15,18.27A1.49,1.49,0,0,1,107.45,145.4Z" fill="#2f2e41"/><path d="M94.44,77.46l-8.67-3S80.33,78.64,83,89a25.72,25.72,0,0,1-1.14,16.11,15.46,15.46,0,0,1-.87,1.84s9.67,11.67,18.67,3l-3.5-16.84S101.61,82,94.44,77.46Z" fill="#2f2e41"/><path d="M92.93,73.1c-1.16-1.75-2.08-4.17-.8-5.83s3.77-1.39,5.71-2.12a6.46,6.46,0,0,0,3.78-7A8.33,8.33,0,0,0,96.13,52a11.87,11.87,0,0,0-8.45.46,12.9,12.9,0,0,0-7.27,7.36,9.91,9.91,0,0,0,1.9,10c2.62,2.76,6.74,3.49,10.54,3.45" fill="#2f2e41"/><path d="M85.32,58.21c-1.47,1.2-3.71.67-5.29-.38s-2.86-2.54-4.56-3.37c-3-1.45-6.65-.48-9.57,1.12s-5.53,3.83-8.62,5.09-7,1.32-9.38-1.06A8.59,8.59,0,0,0,60.48,69.74c3.39-2.06,5.26-6.39,9.06-7.53,2.1-.63,4.36-.12,6.48.43s4.34,1.14,6.49.67,4.15-2.39,3.88-4.57Z" fill="#2f2e41"/><path d="M112,135.38a55.63,55.63,0,0,1,0-17,1.43,1.43,0,0,1,1.41-1.21h13.29a1.44,1.44,0,0,1,1.39,1.78,34.23,34.23,0,0,0,0,15.85,1.44,1.44,0,0,1-1.39,1.78H113.39A1.44,1.44,0,0,1,112,135.38Z" fill="#f26322"/><path d="M122.59,125.41h-7a1,1,0,0,1-1-1V124a1,1,0,0,1,1-1h7a1,1,0,0,1,1,1v.39A1,1,0,0,1,122.59,125.41Z" fill="#fff"/><path d="M122.59,129.53h-7a1,1,0,0,1-1-1v-.39a1,1,0,0,1,1-1h7a1,1,0,0,1,1,1v.39A1,1,0,0,1,122.59,129.53Z" fill="#fff"/><path d="M115.47,118.78a3.58,3.58,0,0,0-2-4.67,3.22,3.22,0,0,0-.6-.19l-16.72-28L90.27,91l18.3,25.94a3.6,3.6,0,0,0,6.9,1.87Z" fill="#a0616a"/><path d="M99.51,90.44l-7.05,4a1.61,1.61,0,0,1-2.19-.6,2,2,0,0,1-.1-.21L87.25,86.1A4.46,4.46,0,0,1,95,81.71l5,6.35a1.59,1.59,0,0,1-.27,2.25,1.37,1.37,0,0,1-.2.13Z" fill="#2f2e41"/><path d="M174.55,100.29H39.17a2.17,2.17,0,1,0,0,4.33H43V151.8a2.17,2.17,0,1,0,4.33,0v-43l24.3,44.05a2.17,2.17,0,0,0,3.75-2.17l-25.4-46H166.05v0l-25.39,46a2.17,2.17,0,0,0,3.76,2.17l21.63-39.21V151.8a2.17,2.17,0,1,0,4.33,0v-46l.63-1.14h3.54a2.17,2.17,0,1,0,0-4.33Z" fill="#3f3d56"/><path d="M92.19,99h26.34a1.17,1.17,0,0,1,1.17,1.17h0a1.17,1.17,0,0,1-1.17,1.17H92.19A1.17,1.17,0,0,1,91,100.12h0A1.17,1.17,0,0,1,92.19,99Z" fill="#ccc"/><path d="M136.2,101.29H106.53a2.18,2.18,0,0,1-2.17-2.17V82.78a2.17,2.17,0,0,1,2.17-2.17H136.2a2.17,2.17,0,0,1,2.17,2.17V99.12A2.18,2.18,0,0,1,136.2,101.29Z" fill="#ccc"/><circle cx="121.37" cy="90.95" r="2" fill="#fff"/><path d="M158.85,61V2.51A2.51,2.51,0,0,1,161.36,0h46.26a2.51,2.51,0,0,1,2.51,2.51V61a2.52,2.52,0,0,1-2.51,2.51H161.36A2.52,2.52,0,0,1,158.85,61ZM161.36.56a2,2,0,0,0-2,1.95V61a2,2,0,0,0,2,1.95h46.26A2,2,0,0,0,209.57,61V2.51A2,2,0,0,0,207.62.56Z" fill="#e6e6e6"/><path d="M187.08,26.88v-12a1.27,1.27,0,0,1,1.26-1.25h10.18a1.27,1.27,0,0,1,1.26,1.25v12a1.27,1.27,0,0,1-1.26,1.25H188.34A1.27,1.27,0,0,1,187.08,26.88Z" fill="#f26322"/><path d="M167.3,32.45v-12a1.25,1.25,0,0,1,1.25-1.25h10.19A1.25,1.25,0,0,1,180,20.43v12a1.25,1.25,0,0,1-1.25,1.25H168.55A1.25,1.25,0,0,1,167.3,32.45Z" fill="#ccc"/><path d="M183.18,49.45v-12a1.26,1.26,0,0,1,1.26-1.25h10.18a1.25,1.25,0,0,1,1.25,1.25v12a1.25,1.25,0,0,1-1.25,1.25H184.44A1.26,1.26,0,0,1,183.18,49.45Z" fill="#ff6584"/><circle cx="260.84" cy="3.94" r="2.16" fill="#f2f2f2"/><circle cx="260.84" cy="12.54" r="2.16" fill="#f2f2f2"/><circle cx="260.84" cy="21.13" r="2.16" fill="#f2f2f2"/><circle cx="260.84" cy="29.72" r="2.16" fill="#f2f2f2"/><circle cx="251.84" cy="3.94" r="2.16" fill="#f2f2f2"/><circle cx="251.84" cy="12.54" r="2.16" fill="#f2f2f2"/><circle cx="251.84" cy="21.13" r="2.16" fill="#f2f2f2"/><circle cx="251.84" cy="29.72" r="2.16" fill="#f2f2f2"/><circle cx="242.83" cy="3.94" r="2.16" fill="#f2f2f2"/><circle cx="242.83" cy="12.54" r="2.16" fill="#f2f2f2"/><circle cx="242.83" cy="21.13" r="2.16" fill="#f2f2f2"/><circle cx="242.83" cy="29.72" r="2.16" fill="#f2f2f2"/><circle cx="233.83" cy="3.94" r="2.16" fill="#f2f2f2"/><circle cx="233.83" cy="12.54" r="2.16" fill="#f2f2f2"/><circle cx="233.83" cy="21.13" r="2.16" fill="#f2f2f2"/><circle cx="233.83" cy="29.72" r="2.16" fill="#f2f2f2"/><circle cx="224.83" cy="3.94" r="2.16" fill="#f2f2f2"/><circle cx="224.83" cy="12.54" r="2.16" fill="#f2f2f2"/><circle cx="224.83" cy="21.13" r="2.16" fill="#f2f2f2"/><circle cx="224.83" cy="29.72" r="2.16" fill="#f2f2f2"/><circle cx="215.82" cy="3.94" r="2.16" fill="#f2f2f2"/><circle cx="215.82" cy="12.54" r="2.16" fill="#f2f2f2"/><circle cx="215.82" cy="21.13" r="2.16" fill="#f2f2f2"/><circle cx="215.82" cy="29.72" r="2.16" fill="#f2f2f2"/><path d="M224.51,80.45a3.68,3.68,0,0,1,2.19-4.71l.4-.12.49-.08,8.1-14.2-2.05-3.52,5.1-3.93,3.89,5.42a3.71,3.71,0,0,1-.08,4.43L231.42,78c0,.11.08.23.11.34a3.69,3.69,0,0,1-2.72,4.43l-.41.07a3.15,3.15,0,0,1-.44,0A3.7,3.7,0,0,1,224.51,80.45Z" fill="#ffb8b8"/><polygon points="208.7 150.35 204.61 150.35 202.67 134.58 208.7 134.58 208.7 150.35" fill="#ffb8b8"/><path d="M201.69,149.18h7.89v5H196.73A5,5,0,0,1,201.69,149.18Z" fill="#2f2e41"/><polygon points="242.38 150.35 238.29 150.35 236.35 134.58 242.38 134.58 242.38 150.35" fill="#ffb8b8"/><path d="M235.37,149.18h7.89v5H230.41A5,5,0,0,1,235.37,149.18Z" fill="#2f2e41"/><path d="M239.87,54.66l-9.18,3.49-2.24-6.22a3.74,3.74,0,0,1,1.67-4.51h0a3.74,3.74,0,0,1,4.76.93Z" fill="#f26322"/><path d="M209.05,137.58l-7.69-1.76a1.65,1.65,0,0,1-1.27-1.87c3.08-19.58,6.06-31,13.71-45.6.11-.27,1.31-5.78,2.09-9.43a1.66,1.66,0,0,1,1.4-1.68L231.65,75a1.88,1.88,0,0,1,.67-.1l.14,0v.14c0,.15-.15.17-.2.18l-.19,0a2,2,0,0,1,.59.4c6.29,7.56,9.56,32.36,13.71,59.75a1.48,1.48,0,0,1-.43,1.21,1.67,1.67,0,0,1-1.18.54l-9.17.22a1.66,1.66,0,0,1-1.68-1.41l-6.18-35.69a1.32,1.32,0,0,0-1.51-1.11,1.3,1.3,0,0,0-1,.72c-5,10.15-9.63,18.93-14.2,36.44a1.66,1.66,0,0,1-1.6,1.24A1.64,1.64,0,0,1,209.05,137.58Z" fill="#2f2e41"/><path d="M216.53,79.32a1.65,1.65,0,0,1-.7-1.18c-1.17-11-.36-19.56,2.5-26.25a8.34,8.34,0,0,1,5.53-4.73l7.42-.38,0,0a8.7,8.7,0,0,1,4.74,9.2c-2.39,6.29-4.39,12.84-2.86,18.12a1.71,1.71,0,0,1-.16,1.33,1.65,1.65,0,0,1-1,.77l-14.13,3.36A1.63,1.63,0,0,1,216.53,79.32Z" fill="#f26322"/><path d="M213.33,63.58,199.1,52.35l-.34.1a3.67,3.67,0,1,1,2.61-4.81,3,3,0,0,1,.12.4,2.63,2.63,0,0,1,.07.49l14.17,8.17,3.53-2,3.9,5.11-5.47,3.9A3.66,3.66,0,0,1,213.33,63.58Z" fill="#ffb8b8"/><path d="M224.9,61.37l-8.12-5.52,3.81-5.4a3.74,3.74,0,0,1,4.65-1.22h0a3.71,3.71,0,0,1,2,4.43Z" fill="#f26322"/><circle cx="228.8" cy="35.82" r="8.19" fill="#ffb8b8"/><path d="M225.8,34.6c-2.11,1.44-4.87,2.92-7,1.39a3.9,3.9,0,0,1-1.28-4.51c1-2.94,3.85-4.24,6.56-5.23,3.51-1.29,7.34-2.32,11-1.4s6.84,4.44,6.19,8.13c-.53,3-3.33,5.43-2.93,8.42s3.78,4.59,6.76,5.12,6.32.71,8.47,2.86c2.73,2.73,2,7.62-.52,10.5s-6.46,4.2-10.23,5.09c-5,1.18-10.38,1.8-15.11-.16s-8.42-7.22-7-12.16a16.93,16.93,0,0,1,3.26-5.56A15.47,15.47,0,0,0,227,41.47a5.83,5.83,0,0,0-1.05-5.1,1.47,1.47,0,0,1-.2-1.73Z" fill="#2f2e41"/></svg>