<svg xmlns="http://www.w3.org/2000/svg" viewBox="0 0 500 500">
  <path fill="#ebebeb" d="M0 382.4h500v.25H0zM131.47 397.82h33.12v.25h-33.12zM250.15 395.11h8.69v.25h-8.69zM52.46 390.89h19.19v.25H52.46zM389.7 389.21h26.08v.25H389.7zM357.35 389.21h23.44v.25h-23.44zM356.23 401.21h93.68v.25h-93.68zM237 337.8H43.91a5.71 5.71 0 01-5.7-5.71V60.66a5.71 5.71 0 015.7-5.66H237a5.71 5.71 0 015.71 5.71v271.38a5.71 5.71 0 01-5.71 5.71zM43.91 55.2a5.46 5.46 0 00-5.45 5.46v271.43a5.46 5.46 0 005.45 5.46H237a5.47 5.47 0 005.46-5.46V60.66A5.47 5.47 0 00237 55.2zM453.31 337.8h-193.1a5.72 5.72 0 01-5.71-5.71V60.66a5.72 5.72 0 015.71-5.66h193.1a5.71 5.71 0 015.69 5.66v271.43a5.71 5.71 0 01-5.69 5.71zM260.21 55.2a5.47 5.47 0 00-5.46 5.46v271.43a5.47 5.47 0 005.46 5.46h193.1a5.47 5.47 0 005.46-5.46V60.66a5.47 5.47 0 00-5.46-5.46z"/>
  <path fill="#f0f0f0" d="M342.15 379.42H318.6V276.38h23.55z"/>
  <path fill="#f0f0f0" d="M337.64 382.4H233.95v-2.98h103.69z"/>
  <path fill="#f5f5f5" d="M229.42 276.38h89.18v103.04h-89.18z"/>
  <path fill="#f0f0f0" d="M238.68 282.16h70.66v43.44h-70.66zM238.68 330.2h70.66v43.44h-70.66z"/>
  <path d="M292.33 289.73H255.7A8.69 8.69 0 01247 281h54a8.69 8.69 0 01-8.67 8.73zM292.33 337.77H255.7a8.69 8.69 0 01-8.69-8.69h54a8.69 8.69 0 01-8.68 8.69z" fill="#f5f5f5"/>
  <path fill="#f0f0f0" d="M438.33 379.42h-23.55V276.38h23.55z"/>
  <path fill="#f0f0f0" d="M433.81 382.4H330.12v-2.98h103.69z"/>
  <path fill="#f5f5f5" d="M325.6 276.38h89.18v103.04H325.6z"/>
  <path fill="#f0f0f0" d="M334.86 282.16h70.66v43.44h-70.66zM334.86 330.2h70.66v43.44h-70.66z"/>
  <path d="M388.5 289.73h-36.63a8.69 8.69 0 01-8.69-8.69h54a8.69 8.69 0 01-8.68 8.69zM388.5 337.77h-36.63a8.69 8.69 0 01-8.69-8.69h54a8.69 8.69 0 01-8.68 8.69z" fill="#f5f5f5"/>
  <path fill="#e6e6e6" d="M151.76 137.94h-40.34V91.31h40.34z"/>
  <path fill="#f5f5f5" d="M150.68 137.94h-43.86V91.31h43.86z"/>
  <path fill="#fff" d="M147 94.99v39.28h-36.51V94.99z"/>
  <path d="M138.16 124.75v-1.43a18.82 18.82 0 00-18.81-18.81v1.43a18.81 18.81 0 0018.81 18.81z" fill="#f5f5f5"/>
  <path fill="#e6e6e6" d="M438.34 225.95h-151.7V84.05h151.7z"/>
  <path fill="#f0f0f0" d="M436.14 225.95h-154.2V84.05h154.2z"/>
  <path fill="#e6e6e6" d="M438.34 231.01h-151.7v-5.06h151.7z"/>
  <path fill="#f0f0f0" d="M428.3 231.01H274.1v-5.06h154.2z"/>
  <path fill="#fafafa" d="M429.55 91.67v126.66H288.51V91.67z"/>
  <path fill="#fff" d="M389.56 218.34L366.07 91.67h-38.7l23.49 126.67h38.7z"/>
  <path d="M426.51 175.36a.51.51 0 00.47-.54V96.63a.47.47 0 10-.94 0v78.19a.51.51 0 00.47.54z" fill="#f0f0f0"/>
  <path fill="#fff" d="M342.54 218.34L319.06 91.67h-15.09l23.48 126.67h15.09z"/>
  <path fill="#e6e6e6" d="M289.35 91.67v126.66h-.84V91.67z"/>
  <path fill="#e6e6e6" opacity=".4" d="M280.38 101.42h151.69l.61-6.78h-151.7l-.6 6.78zM280.38 109.23h151.69l.61-6.79h-151.7l-.6 6.79zM280.38 117.03h151.69l.61-6.78h-151.7l-.6 6.78zM280.38 124.84h151.69l.61-6.79h-151.7l-.6 6.79zM280.38 132.64h151.69l.61-6.78h-151.7l-.6 6.78zM280.38 140.45h151.69l.61-6.79h-151.7l-.6 6.79zM280.38 148.25h151.69l.61-6.78h-151.7l-.6 6.78zM280.38 156.06h151.69l.61-6.79h-151.7l-.6 6.79zM280.38 163.86h151.69l.61-6.78h-151.7l-.6 6.78z"/>
  <path fill="#e6e6e6" d="M114.29 214.01H82.82V177.9h31.47z"/>
  <path fill="#f5f5f5" d="M113.23 214.01H79.26V177.9h33.97z"/>
  <path fill="#fff" d="M110.39 180.74v30.42H82.11v-30.42z"/>
  <path d="M103.53 196.51v-1.11a7.28 7.28 0 00-7.29-7.28A7.28 7.28 0 0089 195.4v1.11a7.28 7.28 0 007.28 7.28 7.28 7.28 0 007.25-7.28z" fill="#f5f5f5"/>
  <path fill="#e6e6e6" d="M204.52 201.07h-43.21v-49.78h43.21z"/>
  <path fill="#f5f5f5" d="M203.23 201.07h-46.82v-49.78h46.82z"/>
  <path fill="#fff" d="M199.31 155.23v41.93h-38.98v-41.93z"/>
  <path d="M181.45 168.41l7.4 12.82a1.88 1.88 0 01-1.63 2.82h-14.8a1.88 1.88 0 01-1.63-2.82l7.4-12.82a1.89 1.89 0 013.26 0z" fill="#f5f5f5"/>
  <path fill="#e6e6e6" d="M113.77 382.39H90.02v-74.88h23.75z"/>
  <path fill="#f0f0f0" d="M94.53 382.4h-4.51v-12.83h9.24l-4.73 12.83z"/>
  <path fill="#e6e6e6" d="M202.52 382.39h-23.75v-74.88h23.75z"/>
  <path fill="#f0f0f0" d="M182.71 374.52H90.03v-67.01h92.68z"/>
  <path fill="#e6e6e6" d="M93.52 358.49v-46.77h41.33v46.77zM137.88 358.49v-46.77h41.33v46.77z"/>
  <path d="M154.46 315.31h8.17a12.93 12.93 0 009.39-4h-27a12.91 12.91 0 009.44 4zM109.68 315.31h8.18a12.94 12.94 0 009.39-4h-27a12.93 12.93 0 009.43 4zM178.2 382.4h4.51v-12.83h-9.24l4.73 12.83z" fill="#f0f0f0"/>
  <path d="M153.75 297.48a5.15 5.15 0 105.15-5.14 5.16 5.16 0 00-5.15 5.14z" fill="#e0e0e0"/>
  <circle cx="161.23" cy="294.14" r="5.14" fill="#e0e0e0"/>
  <path d="M128 298.31a5.14 5.14 0 105.14-5.14 5.14 5.14 0 00-5.14 5.14z" fill="#e0e0e0"/>
  <circle cx="168.11" cy="294.98" r="6.31" fill="#e0e0e0"/>
  <path d="M149.3 289.17a6.31 6.31 0 106.31-6.3 6.32 6.32 0 00-6.31 6.3z" fill="#e0e0e0"/>
  <path d="M139.3 290.78a6.31 6.31 0 106.31-6.3 6.31 6.31 0 00-6.31 6.3z" fill="#e0e0e0"/>
  <path d="M143.53 295.87a6 6 0 106-6 6 6 0 00-6 6z" fill="#e0e0e0"/>
  <path d="M133.09 295.48a6.48 6.48 0 106.48-6.48 6.48 6.48 0 00-6.48 6.48z" fill="#e0e0e0"/>
  <path d="M178.17 297.48s-.7 10-27.77 10-27.78-10-27.78-10z" fill="#f0f0f0"/>
  <g>
    <ellipse cx="250" cy="416.24" rx="193.89" ry="11.32" fill="#f5f5f5"/>
  </g>
  <g>
    <path d="M307.77 119.9a42.3 42.3 0 00-3.22-7.76l2-6.55-12.93-12.94-6.55 2a42.3 42.3 0 00-7.76-3.22l-3.22-6h-18.3l-3.21 6a42 42 0 00-7.76 3.22l-6.55-2-12.94 12.94 2 6.55a43 43 0 00-3.21 7.76l-6.05 3.22v18.3l6.05 3.21a42.67 42.67 0 003.21 7.76l-2 6.55 12.94 12.94 6.55-2a42.67 42.67 0 007.76 3.21l3.21 6h18.3l3.22-6a43 43 0 007.76-3.21l6.55 2 12.94-12.94-2-6.55a42 42 0 003.22-7.76l6.05-3.21v-18.3zm-40.83 38.36a26 26 0 1126-26 26 26 0 01-26 26z" fill="#f26322"/>
    <path d="M307.77 119.9a42.3 42.3 0 00-3.22-7.76l2-6.55-12.93-12.94-6.55 2a42.3 42.3 0 00-7.76-3.22l-3.22-6h-18.3l-3.21 6a42 42 0 00-7.76 3.22l-6.55-2-12.94 12.94 2 6.55a43 43 0 00-3.21 7.76l-6.05 3.22v18.3l6.05 3.21a42.67 42.67 0 003.21 7.76l-2 6.55 12.94 12.94 6.55-2a42.67 42.67 0 007.76 3.21l3.21 6h18.3l3.22-6a43 43 0 007.76-3.21l6.55 2 12.94-12.94-2-6.55a42 42 0 003.22-7.76l6.05-3.21v-18.3zm-40.83 38.36a26 26 0 1126-26 26 26 0 01-26 26z" fill="#fff" opacity=".2"/>
    <path d="M266.94 123.65a8.62 8.62 0 108.62 8.62 8.62 8.62 0 00-8.62-8.62zM438 148.93a61.16 61.16 0 00-4.59-11.1l2.86-9.36L417.8 110l-9.37 2.87a58.11 58.11 0 00-11.09-4.6l-4.59-8.64H366.6l-4.6 8.64a58.65 58.65 0 00-11.09 4.6l-9.36-2.87-18.49 18.49 2.86 9.36a59.76 59.76 0 00-4.59 11.1l-8.65 4.59v26.15l8.64 4.6a59.39 59.39 0 004.59 11.09l-2.86 9.35 18.49 18.49 9.36-2.86a58.61 58.61 0 0011.1 4.58l4.6 8.65h26.15l4.59-8.64a59.42 59.42 0 0011.09-4.6l9.37 2.86 18.49-18.49-2.86-9.36a60.77 60.77 0 004.57-11.09l8.64-4.6v-26.15zM379.67 214a47.41 47.41 0 1147.41-47.41A47.41 47.41 0 01379.67 214z" fill="#f26322"/>
    <path d="M379.67 125.83a40.77 40.77 0 1040.78 40.77 40.82 40.82 0 00-40.78-40.77zm0 76.11A35.34 35.34 0 11415 166.6a35.38 35.38 0 01-35.33 35.34z" fill="#f26322"/>
    <path d="M379.67 125.83a40.77 40.77 0 1040.78 40.77 40.82 40.82 0 00-40.78-40.77zm0 76.11A35.34 35.34 0 11415 166.6a35.38 35.38 0 01-35.33 35.34z" opacity=".2"/>
    <path d="M286 236.16a1 1 0 01-1-1v-2a1 1 0 112 0v2a1 1 0 01-1 1zM270.43 210.32a5.41 5.41 0 01-2.06-2.45 1 1 0 00-1.84.79 7.55 7.55 0 002.81 3.34 1 1 0 00.54.16 1 1 0 00.55-1.84zM266.94 197.83a1 1 0 001-1V193a1 1 0 00-2 0v3.83a1 1 0 001 1zM277.35 211.2h-3.84a1 1 0 000 2h3.84a1 1 0 000-2zM267.94 204.5v-3.83a1 1 0 00-2 0v3.83a1 1 0 002 0zM286.94 217.7a1 1 0 00-1.12-.86A1 1 0 00285 218a5.36 5.36 0 01.05.7v3a1 1 0 002 0v-3a7.73 7.73 0 00-.11-1zM286 224.49a1 1 0 00-1 1v3.84a1 1 0 102 0v-3.84a1 1 0 00-1-1zM285.13 213.73a7.41 7.41 0 00-3.71-2.29 1 1 0 00-.5 1.94 5.39 5.39 0 012.71 1.67 1 1 0 00.75.34 1 1 0 00.75-1.66zM266.94 190.12a1 1 0 01-1-1v-2a1 1 0 012 0v2a1 1 0 01-1 1z" fill="#f26322"/>
  </g>
  <g>
    <path fill="#f26322" d="M101.83 286.51h231.54v3.71H101.83zM383.61 290.22h-50.24v-3.71h50.24z"/>
    <path opacity=".2" d="M383.61 290.22h-50.24v-3.71h50.24z"/>
    <path fill="#f26322" d="M366.83 294.19H118.61l-8.3-3.97h264.82l-8.3 3.97z"/>
    <path fill="#fff" opacity=".6" d="M366.83 294.19H118.61l-8.3-3.97h264.82l-8.3 3.97z"/>
    <path fill="#f26322" d="M126.11 294.19v118.34h3.18l4-118.34h-7.18zM163.65 294.19v118.34h3.18l4-118.34h-7.18zM366.83 294.19v118.34h-3.17l-4.01-118.34h7.18zM329.3 294.19v118.34h-3.18l-4-118.34h7.18zM253.74 241.59l-10.45 42.57-.29 2.35h72.08l.3-2.35 10.44-42.57h-72.08z"/>
    <path opacity=".3" d="M253.74 241.59l-10.45 42.57-.29 2.35h72.08l.3-2.35 10.44-42.57h-72.08z"/>
    <path fill="#f26322" d="M323.61 241.59h-72.09l-10.44 42.57h72.08l10.45-42.57z"/>
    <path fill="#fff" d="M311.63 282.21l9.5-38.67h-68.08l-9.49 38.67h68.07z"/>
    <path fill="#f26322" d="M294.38 284.16l-.3 2.35h-79.37l.29-2.35h79.38z"/>
    <path fill="#fff" opacity=".6" d="M294.38 284.16l-.3 2.35h-79.37l.29-2.35h79.38z"/>
    <path d="M144.44 278.77a6.35 6.35 0 00-5.63-6.1v-1.15a.5.5 0 00-.52-.49h-10.8a.51.51 0 00-.53.49v15h11.85v-1.64a6.34 6.34 0 005.63-6.11zm-5.63 4.17v-8.33a4.21 4.21 0 010 8.33z" fill="#f26322"/>
    <path fill="#263238" d="M346.56 286.51h10.04l-2.97-21.99h-7.07v21.99z"/>
    <path fill="#f26322" d="M331.84 286.51h19.02l3.53-25.74h-19.01l-3.54 25.74z"/>
    <path opacity=".3" d="M331.84 286.51h19.02l3.53-25.74h-19.01l-3.54 25.74z"/>
    <path fill="#f26322" d="M329.3 286.51h19.79l3.54-25.74h-19.79l-3.54 25.74z"/>
    <path fill="#fff" opacity=".4" d="M347.34 284.48l2.98-21.68h-15.73l-2.98 21.68h15.73z"/>
  </g>
  <g>
    <path d="M197.54 248.51l-.82.88-.88 1c-.59.68-1.18 1.37-1.74 2.08a75.14 75.14 0 00-3.21 4.36 46.61 46.61 0 00-5 9.24 28.59 28.59 0 00-1.42 4.78c-.16.92-.26 1.32-.31 1.71a2.68 2.68 0 000 .94 3.9 3.9 0 002 2.25 14 14 0 002.12 1.07q.58.24 1.2.45c.38.14.86.28 1.16.4v5.51c-.7.1-1.21.18-1.8.22s-1.16.05-1.75 0a17 17 0 01-3.6-.46 13.49 13.49 0 01-3.78-1.52 10.94 10.94 0 01-3.48-3.23 11.67 11.67 0 01-1.82-4.66 9.89 9.89 0 01-.13-1.18 10.94 10.94 0 010-1.14v-.56a3 3 0 010-.45l.08-.88a34.7 34.7 0 011.44-6.73 49.94 49.94 0 015.67-11.92 57.63 57.63 0 013.77-5.25c.67-.84 1.36-1.66 2.08-2.47a36.643 36.643 0 012.35-2.46z" fill="#b55b52"/>
    <path d="M188.65 277.55l4.66-3.42 2.65 9.58s-4.13 1.53-7.28-.53z" fill="#b55b52"/>
    <path fill="#b55b52" d="M199.78 271.83l1.82 8.02-5.64 3.86-2.65-9.58 6.47-2.3z"/>
    <path d="M229.25 211.75c-.21.59-.06 1.18.33 1.31s.87-.23 1.07-.82.06-1.19-.32-1.32-.87.23-1.08.83z" fill="#263238"/>
    <path d="M229.14 212.91a22.54 22.54 0 001.07 6.06 3.63 3.63 0 01-3-.46z" fill="#a02724"/>
    <path d="M228.29 207.73a.36.36 0 00.23 0 2.92 2.92 0 012.63.4.37.37 0 00.48-.56 3.67 3.67 0 00-3.32-.55.37.37 0 000 .7z" fill="#263238"/>
    <path d="M207.32 213.93c1.12 5.69 2.23 16.12-1.75 19.92 0 0 1.56 5.77 12.14 5.77 11.63 0 5.56-5.77 5.56-5.77-6.35-1.52-6.19-6.23-5.08-10.65z" fill="#b55b52"/>
    <path d="M204.05 235.83c-.84-1.83-1.75-3.92.14-4.57 2.09-.72 13.53-1.46 17.47-.11a4.06 4.06 0 012.83 5.06z" fill="#263238"/>
    <path d="M244 245.59c2.45 4.41 5.08 8.95 7.74 13.31s5.45 8.7 8.43 12.66c.74 1 1.51 1.95 2.27 2.9.38.49.78.89 1.17 1.34l.58.66.15.17.07.08.07.09a4.38 4.38 0 001.64 1 15.7 15.7 0 002.91.71 65.22 65.22 0 0014.61-.17l1.52 5.3c-1.35.6-2.61 1-3.95 1.5s-2.66.83-4 1.17a38.86 38.86 0 01-8.68 1.16 21.23 21.23 0 01-4.89-.49 13.49 13.49 0 01-5.44-2.42l-.67-.55-.16-.14-.1-.1-.19-.19-.78-.77c-.51-.51-1.07-1-1.53-1.54-1-1.05-1.94-2.1-2.81-3.18a129.93 129.93 0 01-9.65-13.29q-2.19-3.42-4.22-6.91c-1.36-2.35-2.67-4.65-3.94-7.13z" fill="#b55b52"/>
    <path d="M191.64 235.61c-7.3 1.67-15.66 21.56-15.66 21.56l14.65 10a123.23 123.23 0 009.67-16.45c4.33-9.06-1.2-16.82-8.66-15.11z" fill="#f26322"/>
    <path d="M196.86 248.29l-6.92 18.44.68.48s3-4.21 6.24-9.89z" opacity=".2"/>
    <path d="M235.24 236s8.28 9.36.46 67.26h-41.63c-.28-6.39 3.73-37.55-2.43-67.66a108.85 108.85 0 0113.93-1.76 151.37 151.37 0 0117.7 0 77.87 77.87 0 0111.97 2.16z" fill="#f26322"/>
    <path d="M230.61 252.75a37 37 0 008.22 17.82c.17-3.73.24-7.08.23-10.07z" opacity=".2"/>
    <path d="M227 242.32c-1 7.37 13.5 26.19 13.5 26.19l14.59-10s-4.05-10.37-10.86-17.17c-7.76-7.8-16.09-7.04-17.23.98z" fill="#f26322"/>
    <path d="M282 278.39l5.94-2.44 6.11 4.62s-5.83 5.16-11.13 3.15z" fill="#b55b52"/>
    <path fill="#b55b52" d="M291.86 275.71l4.48 3.2-2.32 1.66-6.11-4.62 3.95-.24zM209.91 203.61c-2.08 7.44-3.68 11.69-1.3 16.7 3.57 7.55 13.72 7.34 18 .68 3.84-6 6.6-17.16.48-22.53a10.54 10.54 0 00-17.18 5.15z"/>
    <path d="M225.75 203.69c-3 8.54-6.53 17.92-15.15 16.14-5.56-1.15-6-10.1-8-14.17-1.77-3.57-1.66-10.75 2-10.84-1.64-2.38 6.65-11.09 12.31-6.49 1.45-2 11.9-7.89 19.64 1.46 7.29 8.84 3.72 16.21-10.8 13.9z" fill="#263238"/>
    <path d="M219 209.15a8.8 8.8 0 001.22 5.47c1.33 2.14 3.28 1.32 4-.87.64-2 .71-5.45-1.14-6.84s-3.8-.06-4.08 2.24z" fill="#b55b52"/>
    <path d="M282.88 406.88c1 0 2-.14 2.29-.59a.71.71 0 000-.81 1 1 0 00-.58-.43c-1.3-.35-4 1.2-4.13 1.27a.17.17 0 00-.09.19.19.19 0 00.14.15 13.6 13.6 0 002.37.22zm1.24-1.51a1.25 1.25 0 01.35 0 .52.52 0 01.36.26c.13.23.09.34 0 .4-.36.51-2.33.52-3.78.31a8.35 8.35 0 013.07-.97z" fill="#f26322"/>
    <path d="M280.53 406.66h.08c.94-.42 2.8-2.1 2.65-3 0-.21-.18-.46-.68-.52a1.36 1.36 0 00-1 .32c-1 .81-1.2 2.91-1.21 3a.19.19 0 00.07.17.23.23 0 00.09.03zm1.9-3.15h.11c.33 0 .35.17.36.21.09.53-1.18 1.85-2.14 2.42a4.3 4.3 0 011-2.39 1 1 0 01.67-.24z" fill="#f26322"/>
    <path fill="#b55b52" d="M271.48 406.48h7.78l1.77-18.03h-7.78l-1.77 18.03z"/>
    <path d="M279.7 405.58h-8.49a.69.69 0 00-.67.54L269 413a1.13 1.13 0 001.12 1.39c3.06-.05 7.49-.23 11.34-.23 4.51 0 8.4.24 13.68.24 3.2 0 4.09-3.23 2.75-3.52-6.09-1.33-11.06-1.47-16.32-4.72a3.61 3.61 0 00-1.87-.58z" fill="#263238"/>
    <path opacity=".2" d="M281.02 388.46l-.9 9.29h-7.79l.91-9.29h7.78z"/>
    <path d="M251.69 406.87a2.51 2.51 0 001.87-.51.74.74 0 000-.87.85.85 0 00-.58-.43c-1.14-.27-3.29 1.2-3.38 1.26a.21.21 0 00-.08.19.18.18 0 00.14.14 9.58 9.58 0 002.03.22zm1-1.48a.78.78 0 01.22 0 .46.46 0 01.34.24c.17.31.07.43 0 .48-.33.43-1.92.44-3.09.25a6 6 0 012.51-.97z" fill="#f26322"/>
    <path d="M249.71 406.66h.08c.81-.44 2.37-2.14 2.2-3a.6.6 0 00-.59-.49 1 1 0 00-.78.24c-.9.74-1.09 3-1.1 3.08a.2.2 0 00.09.17.17.17 0 00.1 0zm1.57-3.15h.08c.24 0 .26.14.27.19.1.51-.9 1.8-1.7 2.41a4.41 4.41 0 01.92-2.44.66.66 0 01.43-.16z" fill="#f26322"/>
    <path fill="#b55b52" d="M240.79 406.48h7.78l3.91-18.03h-7.78l-3.91 18.03z"/>
    <path d="M249.12 405.58h-8.74a.68.68 0 00-.66.54l-1.54 6.88a1.15 1.15 0 001.14 1.39c3.05-.05 4.54-.23 8.38-.23 2.37 0 5.4.24 8.67.24s3.69-3.23 2.35-3.52c-6-1.31-6.41-3.12-8.33-4.85a1.9 1.9 0 00-1.27-.45z" fill="#263238"/>
    <path d="M244.7 388.46h7.78l-2.02 9.29h-7.78l2.02-9.29z" opacity=".2"/>
    <path d="M235.7 303.27s58.3 6.17 57.66 35.91a164.52 164.52 0 01-10.62 54.62h-11.56s.59-18.87.2-49.32c-.12-9.13-18.55-12.14-36.56-13.2a41 41 0 01-35.24-25.07l-1.23-2.94z" fill="#263238"/>
    <path d="M285.57 390.7c.06 0-.75 5.47-.75 5.47h-16l-.44-4.88z" fill="#f26322"/>
    <path d="M223.22 303.27s42.26 14 43.33 31.36c2 31.94-13.71 59.17-13.71 59.17h-11.67s4.43-13.5 6-42.44c2-36.35-65.83-.06-53.12-48.09z" fill="#263238"/>
    <path d="M256.37 390.7c.06 0-1.47 5.47-1.47 5.47h-16l.29-4.88zM253.7 333.89h-65a7.42 7.42 0 017.42-7.42h50.16a7.42 7.42 0 017.42 7.42z" fill="#f26322"/>
    <path fill="#f26322" d="M191.71 333.88l-9.8 82.16h2.1l12.43-82.16h-4.73z"/>
    <path opacity=".4" d="M191.71 333.88l-9.8 82.16h2.1l12.43-82.16h-4.73z"/>
    <path fill="#f26322" d="M204.82 333.88l-.19 82.16h2.09l2.83-82.16h-4.73z"/>
    <path opacity=".4" d="M204.82 333.88l-.19 82.16h2.09l2.83-82.16h-4.73z"/>
    <path fill="#f26322" d="M250.69 333.88l9.8 82.16h-2.1l-12.42-82.16h4.72z"/>
    <path opacity=".4" d="M250.69 333.88l9.8 82.16h-2.1l-12.42-82.16h4.72z"/>
    <path fill="#f26322" d="M237.58 333.88l.19 82.16h-2.09l-2.83-82.16h4.73z"/>
    <path opacity=".4" d="M237.58 333.88l.19 82.16h-2.09l-2.83-82.16h4.73z"/>
  </g>
</svg>
