<svg xmlns="http://www.w3.org/2000/svg" viewBox="0 0 1200 627.44"><g style="isolation:isolate"><g style="mix-blend-mode:overlay"><polygon points="345.88 521.7 345.96 521.61 345.65 521.23 8.44 582.67 6.46 583.54 345.88 521.7" fill="#a97f2c"/><polygon points="293.98 456.96 293.93 456.98 293.95 457 294 456.99 293.98 456.96" fill="#a97f2c"/><polygon points="346.88 521.4 346.85 521.36 346.81 521.4 346.88 521.4" fill="#a97f2c"/><polygon points="293.37 457.23 7.82 582.06 7.01 582.76 293.37 457.23 293.37 457.23" fill="#a97f2c"/><polygon points="5.37 583.51 5.56 583.04 2.97 584.18 5.02 583.8 5.37 583.51" fill="#a97f2c"/><polygon points="6.26 582.74 6.23 582.75 6.22 582.78 6.26 582.74" fill="#a97f2c"/><polygon points="346.53 520.97 294.36 457.42 294.36 457.42 346.29 521.23 346.53 520.97" fill="#a97f2c"/><polygon points="7.82 582.06 185.39 429.16 7 582.76 7.01 582.76 7.82 582.06" fill="#a97f2c"/><polygon points="210.12 407.21 6.26 582.74 6.22 582.78 6.23 582.75 105.81 344.63 105.73 344.57 105.52 344.77 105.47 344.39 105.39 344.35 5.56 583.04 5.37 583.51 210.12 407.21 210.12 407.21" fill="#a97f2c"/><polygon points="4.94 584.54 5.72 583.87 5.68 583.88 5.11 584.13 4.94 584.54" fill="#a97f2c"/><polygon points="210.12 407.21 5.37 583.51 5.02 583.8 4.16 584.55 5.11 584.13 5.68 583.88 5.72 583.87 6.46 583.54 8.44 582.67 293.84 457.57 293.75 457.46 210.79 407.33 293.37 457.23 7.01 582.76 7 582.76 185.39 429.16 210.57 407.48 210.54 407.32 210.03 407.47 210.24 407.22 210.12 407.21" fill="#a97f2c"/><polygon points="293.95 457 293.93 456.98 211.77 407.33 293.95 457 293.95 457" fill="#a97f2c"/><polygon points="106.12 344.2 106.12 344.2 108.7 341.74 106.12 344.2" fill="#a97f2c"/><polygon points="210.4 406.51 161.55 377.32 106.12 344.2 105.97 344.34 106.02 344.72 210.12 406.93 210.12 406.92 209.72 406.68 210.44 406.73 210.4 406.51" fill="#a97f2c"/><polygon points="210.4 406.51 203.79 370.26 210.4 406.51 210.4 406.51" fill="#a97f2c"/><polygon points="203.79 370.26 185.3 268.82 108.7 341.74 185.3 268.82 203.79 370.26" fill="#a97f2c"/><polygon points="185.78 268.67 185.78 268.67 210.89 406.43 185.78 268.67" fill="#a97f2c"/><polygon points="105.3 344.29 105.39 344.35 105.47 344.39 105.47 344.38 105.32 344.26 105.3 344.29" fill="#a97f2c"/><rect x="90.85" y="306.08" width="109.17" transform="translate(-170.94 184.65) rotate(-43.59)" fill="#a97f2c"/><polygon points="185.63 267.82 185.51 267.93 185.58 268.04 185.66 268.01 185.63 267.82" fill="#a97f2c"/><polygon points="432.33 423.64 313.88 414.61 432.33 423.64 432.33 423.64" fill="#a97f2c"/><polygon points="431.88 424.34 431.88 424.34 431.88 424.34 431.88 424.34" fill="#a97f2c"/><polygon points="210.12 406.92 210.45 406.83 210.44 406.73 209.72 406.68 210.12 406.92" fill="#a97f2c"/><polygon points="211.77 407.33 210.85 407.26 210.79 407.33 293.75 457.46 293.72 457.42 293.47 457.12 293.95 457 211.77 407.33" fill="#a97f2c"/><polygon points="431.88 424.34 431.88 424.34 313.22 452.88 431.88 424.34" fill="#a97f2c"/><polygon points="433.14 423.67 433.31 423.48 432.83 423.6 432.84 423.67 433.14 423.67" fill="#a97f2c"/><polygon points="313.22 452.88 431.88 424.34 432.08 424.12 430.99 424.04 294 456.99 293.95 457 293.95 457 293.47 457.12 293.72 457.42 293.91 457.27 293.72 457.42 293.75 457.46 293.84 457.57 345.65 521.23 345.96 521.61 346.29 521.23 294.36 457.42 294.36 457.42 313.22 452.88" fill="#a97f2c"/><polygon points="346.28 522 346.39 521.87 346.27 521.87 346.16 521.86 346.28 522" fill="#a97f2c"/><polygon points="617.5 536.83 618.09 536.86 617.68 536.61 617.44 536.69 617.5 536.83" fill="#a97f2c"/><polygon points="432.65 424.23 432.52 424.16 432.36 424.16 432.36 424.14 432.08 424.12 431.88 424.34 431.88 424.34 346.53 520.97 346.29 521.23 345.96 521.61 345.88 521.7 345.76 521.84 346.16 521.86 346.27 521.87 346.29 521.62 346.27 521.87 346.39 521.87 616.94 536.79 616.91 536.73 616.13 536.25 346.88 521.4 346.81 521.4 346.85 521.36 432.65 424.23" fill="#a97f2c"/><polygon points="617.2 536.79 617.08 536.83 617.65 537.18 617.5 536.83 617.44 536.69 617.2 536.79" fill="#a97f2c"/><polygon points="432.52 424.16 432.65 424.23 616.13 536.25 616.91 536.73 616.57 535.93 486.28 456.39 433.51 424.18 432.86 424.17 432.86 424.18 432.59 424.16 432.52 424.16" fill="#a97f2c"/><polygon points="583.72 460.23 616.57 535.93 616.57 535.93 583.72 460.23" fill="#a97f2c"/><polygon points="786.81 465.82 796.44 467.56 796.45 467.56 786.81 465.82" fill="#a97f2c"/><polygon points="798.12 467.46 798.3 467.39 797.81 467.3 797.78 467.34 798.12 467.46" fill="#a97f2c"/><polygon points="796.89 467.13 610.56 433.51 796.89 467.13 796.89 467.13" fill="#a97f2c"/><polygon points="569.24 426.58 569.13 426.61 569.11 426.56 569.1 426.56 583.72 460.23 616.91 536.73 616.94 536.79 616.98 536.87 617.08 536.83 617.2 536.79 617.44 536.69 617.68 536.61 797.26 467.78 797.21 467.7 796.44 467.56 617.24 536.24 569.8 426.92 569.24 426.58" fill="#a97f2c"/><polygon points="105.88 344.42 105.73 344.57 105.81 344.63 106.03 344.79 106.02 344.72 105.97 344.34 105.88 344.42" fill="#a97f2c"/><path d="M93.2,243.72,11.72,274.45l.36.27.15-.2-.15.2,93.24,69.54.15.12L93.33,244.05,93.1,244l.15-.17Zm.15.48,12,99.49-92.64-69.1Z" fill="#a97f2c"/><path d="M93.64,244.13l-.13.15-.12-.22h-.06l12.14,100.33h0l0,.38.21-.2.15-.15.09-.08,79.33-75.52-.05-.3-.28-.07L105.9,343.72h0L93.85,244.19ZM106,344.21l-.25,0Z" fill="#a97f2c"/><polygon points="94.01 243.71 94.01 243.71 184.9 267.91 94.01 243.71" fill="#a97f2c"/><polygon points="210.88 407.22 210.85 407.26 211.77 407.33 430.99 424.04 432.08 424.12 432.36 424.14 432.33 423.64 313.88 414.61 212.14 406.86 210.88 407.22" fill="#a97f2c"/><polygon points="432.86 424.18 432.86 424.17 432.59 424.16 432.59 424.16 432.86 424.18" fill="#a97f2c"/><polygon points="210.12 406.93 209.35 407.15 210.12 407.21 210.12 407.21 210.24 407.22 210.47 406.94 210.45 406.83 210.12 406.92 210.12 406.93" fill="#a97f2c"/><polygon points="428.36 343.6 229.32 401.35 428.36 343.6 428.36 343.6" fill="#a97f2c"/><polygon points="432.36 424.14 432.36 424.16 432.52 424.16 432.59 424.16 432.59 424.16 432.6 423.91 432.85 423.9 432.85 423.9 432.85 423.9 432.6 423.91 432.59 424.16 432.86 424.17 433.51 424.18 569.1 426.56 569.11 426.56 569.1 426.53 568.21 426.37 568.65 426.24 568.32 426.04 433.14 423.67 432.84 423.67 432.83 423.6 429.01 344.2 428.8 344.08 428.71 344.22 428.61 344.05 428.5 344.08 432.33 423.64 432.33 423.64 432.36 424.14" fill="#a97f2c"/><polygon points="568.71 425.69 429.1 343.68 568.71 425.69 568.71 425.69" fill="#a97f2c"/><polygon points="568.32 426.04 568.65 426.24 568.92 426.16 568.71 425.69 429.1 343.68 429.03 343.77 429.11 343.9 428.89 343.97 428.8 344.08 429.01 344.2 568.32 426.04" fill="#a97f2c"/><polygon points="569.24 426.58 569.8 426.92 569.83 426.93 569.7 426.64 569.28 426.57 569.24 426.58" fill="#a97f2c"/><polygon points="428.76 343.29 428.76 343.29 490.77 257.8 428.76 343.29" fill="#a97f2c"/><polygon points="569.11 426.56 569.13 426.61 569.24 426.58 569.28 426.57 569.23 426.56 569.1 426.53 569.11 426.56" fill="#a97f2c"/><polygon points="569.4 426.01 491.78 258.22 491.25 258.26 497.11 270.93 568.71 425.69 568.71 425.69 568.92 426.16 688.38 389.53 569.4 426.01" fill="#a97f2c"/><polygon points="491.11 257.32 491.13 257.29 490.71 257.1 490.77 257.23 491.11 257.32" fill="#a97f2c"/><polygon points="789.01 453.44 742.93 373.25 742.91 373.25 742.89 373.2 742.38 372.97 688.38 389.53 568.92 426.16 568.65 426.24 568.21 426.37 569.1 426.53 569.23 426.56 569.27 426.31 569.23 426.56 569.28 426.57 569.7 426.64 786.81 465.82 797.21 467.7 797.2 467.68 796.97 467.6 797.07 467.46 796.89 467.13 610.56 433.51 570.33 426.25 742.96 373.31 789.01 453.44" fill="#a97f2c"/><polygon points="743.54 373.31 743.54 373.31 797.4 467.02 743.54 373.31" fill="#a97f2c"/><polygon points="137.44 193.75 81.44 146.33 137.44 193.75 137.44 193.75" fill="#a97f2c"/><polygon points="137.11 194.12 137.11 194.12 105.75 229.66 137.11 194.12" fill="#a97f2c"/><polygon points="137.11 194.12 137.11 194.12 137.11 194.12 137.11 194.12" fill="#a97f2c"/><polygon points="93.64 244.13 93.49 244.09 93.39 244.06 93.51 244.28 93.64 244.13" fill="#a97f2c"/><polygon points="4.52 81.19 4.83 81.75 5.51 82.03 4.52 81.19" fill="#a97f2c"/><polygon points="93.25 243.82 93.6 243.42 6.24 83.3 5.22 82.43 5.18 82.4 93.2 243.72 93.25 243.82" fill="#a97f2c"/><polygon points="185.78 268.67 185.78 268.67 186.03 268.73 185.86 268.48 185.75 268.51 185.78 268.67" fill="#a97f2c"/><path d="M137.11,194.12l-31.37,35.54L93.6,243.42l-.35.4-.15.17.23.06h.06l.1,0,.07-.24-.07.24.15,0,.21.06L185,268.45h0l.28.07,0-.1-47.95-74.15Zm47.79,73.79L94,243.71h0l43.43-49.2Z" fill="#a97f2c"/><polygon points="137.5 193.69 137.44 193.75 137.44 193.75 137.57 193.86 137.62 193.86 137.5 193.69" fill="#a97f2c"/><polygon points="185.58 268.04 185.51 267.93 144.79 204.96 185.58 268.04 185.58 268.04" fill="#a97f2c"/><polygon points="890.76 227.41 889.98 227.47 890.29 227.6 890.53 227.52 890.52 227.59 890.76 227.41" fill="#a97f2c"/><polygon points="490.77 257.8 490.8 257.76 489.69 257.47 488.77 257.54 490.77 257.8" fill="#a97f2c"/><polygon points="888.81 227.56 496.29 256.98 493.94 257.56 889.37 227.78 888.81 227.56" fill="#a97f2c"/><polygon points="892.49 227.28 891.68 227.34 891.26 227.66 892.49 227.28" fill="#a97f2c"/><polygon points="491.65 257.41 492.17 257.48 493.28 257.2 491.7 257.32 491.65 257.41" fill="#a97f2c"/><polygon points="704.25 284.87 887.65 228.41 886.98 228.46 704.25 284.86 704.25 284.87" fill="#a97f2c"/><polygon points="704.05 285.37 493.19 258.11 704.05 285.37 704.05 285.37" fill="#a97f2c"/><polygon points="891.52 228.12 891.57 228.12 890.97 227.88 890.96 227.88 891.52 228.12" fill="#a97f2c"/><polygon points="493.19 258.11 492.82 258.06 492.96 258.13 493.19 258.11" fill="#a97f2c"/><polygon points="491.25 258.26 491.78 258.22 491.93 258.21 491.3 257.92 491.04 258.27 491.25 258.26" fill="#a97f2c"/><path d="M887,228.46l.67-.05,2.39-.74-.11-.2L784.38,185.56,493.28,257.2l-1.11.28,3.49.45ZM496.29,257l288.06-70.89,104.46,41.47.55.22L493.94,257.56Z" fill="#a97f2c"/><polygon points="704.78 285.8 704.78 285.8 743.25 372.78 704.78 285.8" fill="#a97f2c"/><polygon points="491.43 257.74 491.33 257.89 491.32 257.89 491.3 257.92 491.93 258.21 742.38 372.97 742.89 373.2 742.86 373.13 742.62 372.72 742.68 372.72 716.5 313.54 742.59 372.51 684.18 345.75 492.96 258.13 492.82 258.06 493.19 258.11 704.05 285.37 704.02 285.31 703.63 285.06 703.88 284.98 703.81 284.83 495.66 257.93 492.17 257.48 491.65 257.41 491.62 257.45 491.64 257.46 491.43 257.74 491.43 257.74" fill="#a97f2c"/><polygon points="362.88 223.97 363.08 223.91 362.63 223.85 362.59 223.9 362.88 223.97" fill="#a97f2c"/><polygon points="352.42 222.49 137.62 193.86 137.57 193.86 137.57 193.86 352.94 222.7 352.42 222.49" fill="#a97f2c"/><polygon points="144.79 204.96 137.97 194.42 137.36 194.34 137.28 194.27 185.23 268.42 185.22 268.37 185.18 268.13 185.58 268.04 144.79 204.96" fill="#a97f2c"/><polygon points="185.86 268.48 185.75 268.51 204.8 263.73 185.86 268.48" fill="#a97f2c"/><polygon points="361.68 223.73 354.42 222.76 356.29 223.51 360.82 224.12 361.77 223.88 361.68 223.73" fill="#a97f2c"/><polygon points="361.29 224.51 204.8 263.73 361.29 224.51 361.29 224.51" fill="#a97f2c"/><polygon points="362.59 223.9 362.63 223.85 362.82 223.61 362.27 223.75 362.31 223.83 362.59 223.9" fill="#a97f2c"/><polygon points="361.84 224.01 361.77 223.88 360.82 224.12 185.66 268.01 185.58 268.04 185.58 268.04 185.18 268.13 185.22 268.37 185.46 268.32 185.22 268.37 185.23 268.42 185.25 268.52 185.3 268.82 210.44 406.73 210.45 406.83 210.47 406.94 347.09 241.84 210.89 406.43 185.78 268.67 185.75 268.51 361.29 224.51 361.22 224.5 361.52 224.4 361.84 224.01" fill="#a97f2c"/><polygon points="210.57 407.48 210.59 407.58 210.79 407.33 210.85 407.26 210.88 407.22 210.81 407.25 210.54 407.32 210.57 407.48" fill="#a97f2c"/><polygon points="347.09 241.84 210.47 406.94 210.24 407.22 210.03 407.47 210.54 407.32 210.81 407.25 210.88 407.22 212.14 406.86 428.5 344.08 428.61 344.05 362.26 224.76 362.26 224.76 428.36 343.6 229.32 401.35 211.45 406.54 361.94 224.68 361.4 224.54 347.09 241.84" fill="#a97f2c"/><polygon points="428.89 343.97 429.11 343.9 429.03 343.77 428.94 343.9 428.89 343.97" fill="#a97f2c"/><polygon points="362.27 223.75 362.19 223.6 362.05 223.76 362.31 223.83 362.27 223.75" fill="#a97f2c"/><polygon points="361.84 224.01 361.52 224.4 361.98 224.26 361.84 224.01" fill="#a97f2c"/><path d="M428.71,344.22l.09-.14.09-.11.05-.07.09-.13.07-.09L491,258.28l.26-.36,0,0-.52-.13,0,0-62,85.49h0L362.93,224.93l-.67-.17,66.35,119.29Zm.24-.59-.21.12Z" fill="#a97f2c"/><polygon points="491.64 257.46 491.62 257.45 491.43 257.74 491.64 257.46" fill="#a97f2c"/><polygon points="362.31 223.83 362.05 223.76 361.64 223.65 361.68 223.73 361.77 223.88 361.84 224.01 361.98 224.26 362.88 223.97 362.59 223.9 362.31 223.83" fill="#a97f2c"/><polygon points="491.11 257.32 490.77 257.23 363.8 224.21 363.04 224.45 491.11 257.32 491.11 257.32" fill="#a97f2c"/><path d="M5.51,82l-.68-.28L4,81.43l1.15,1,0,0,.16-.19-.09.24.09-.24-.16.19,1,.87L137.11,194.12h0l.17.15.08.07.61.08,218.84,29.3-.52-.21-1.87-.75ZM137.57,193.86l-.13-.11-56-47.42L6.72,83.06l345.7,139.43.52.21Z" fill="#a97f2c"/><polygon points="742.89 373.2 742.91 373.25 742.93 373.25 742.86 373.14 742.86 373.13 742.89 373.2" fill="#a97f2c"/><polygon points="743.25 372.78 704.78 285.8 704.08 285.35 704.02 285.31 704.05 285.37 704.05 285.37 716.5 313.54 742.68 372.72 849.96 383.32 743.25 372.78" fill="#a97f2c"/><polygon points="857.75 384.6 767.7 375.7 857.75 384.6 857.75 384.6" fill="#a97f2c"/><polygon points="704.25 284.86 703.65 284.48 703.81 284.83 703.88 284.98 704.25 284.87 704.25 284.86" fill="#a97f2c"/><path d="M890.37,228.31l-.08-.17L890,228l.18-.14-.11-.2-2.39.74L704.26,284.86l-.38.12-.25.08.39.25.06,0,.14-.21-.14.21.7.45h0L857.11,384l1,.14,0-.06.15.09.22,0ZM858,384l-64.15-41.34L704.8,285.22l185.07-57Z" fill="#a97f2c"/><polygon points="890.52 227.59 890.53 227.52 890.29 227.6 890.43 227.66 890.52 227.59" fill="#a97f2c"/><polygon points="858.3 384.15 858.65 384.2 858.67 384.19 858.51 384.17 858.29 384.15 858.3 384.15" fill="#a97f2c"/><polygon points="797.21 467.7 797.26 467.78 797.35 467.93 797.47 467.77 797.29 467.71 797.2 467.68 797.21 467.7" fill="#a97f2c"/><path d="M857.18,384l-7.22-.71L742.68,372.72h-.06l.24.41h0l.22-.13,0,.25,0-.25-.22.13.07.11L789,453.44l7.88,13.69h0l.18.33,60.78-83ZM743.54,373.31h0l24.16,2.39,90,8.9L797.4,467Z" fill="#a97f2c"/><polygon points="797.81 467.3 823.79 431.82 797.78 467.34 797.78 467.34 797.81 467.3" fill="#a97f2c"/><polygon points="797.07 467.46 796.97 467.6 797.2 467.68 797.29 467.71 797.37 467.47 797.29 467.71 797.47 467.77 1197.56 598.93 1197.15 598.55 1196.21 597.96 798.12 467.46 797.78 467.34 797.78 467.34 823.79 431.82 858.27 384.73 858.38 384.8 1189.97 594.02 857.85 384.46 797.07 467.46" fill="#a97f2c"/><polygon points="1199.9 599.69 1198.31 598.69 1198.44 599.21 1199.9 599.69" fill="#a97f2c"/><rect x="1027.18" y="292.25" height="396.93" transform="translate(64.05 1097.57) rotate(-57.75)" fill="#a97f2c"/><polygon points="858.14 384.06 858.1 384.12 858.3 384.15 858.29 384.15 858.14 384.06" fill="#a97f2c"/><path d="M362.88,224l-.9.29-.46.14-.3.1h.07l.11,0,.54.14.32.08h0l.67.17,126.76,32.54,1.11.29.52.13h0l.1-.15.19-.29,0,0,.05-.09,60.95-92.91-189.57,59.5Zm128.34,33.64.06-.25Zm60.25-92.3-60.34,92,0,0h0L363,224.45l.76-.24Z" fill="#a97f2c"/><polygon points="858.65 384.2 858.3 384.15 858.1 384.12 857.11 383.98 857.08 383.98 857.18 384.04 857.85 384.46 1189.97 594.02 1196.21 597.96 1197.15 598.55 1195.04 596.62 859.34 384.81 981.46 402.52 1129.41 536.84 981.83 402.41 981.77 402.44 981.68 402.27 981.43 402.05 981.49 402.02 858.65 384.2" fill="#a97f2c"/><polygon points="1197.66 598.13 1129.89 536.6 1197.72 598.39 1197.66 598.13" fill="#a97f2c"/><polygon points="891.01 228.45 1007.69 277.86 891.01 228.45 891.01 228.45" fill="#a97f2c"/><polygon points="890.29 228.14 890.37 228.31 981.53 402 981.99 401.79 891.01 228.45 890.37 228.18 890.29 228.14" fill="#a97f2c"/><polygon points="1133.39 330.82 1133.71 330.67 1133.38 330.53 1133.36 330.68 1133.39 330.82" fill="#a97f2c"/><polygon points="1132.49 330.69 1007.69 277.86 1132.49 330.69 1105.4 343.49 1132.49 330.69" fill="#a97f2c"/><polygon points="981.83 402.41 981.68 402.27 981.77 402.44 981.83 402.41" fill="#a97f2c"/><polygon points="891.52 228.12 890.96 227.88 890.96 227.89 1064.45 301.34 891.52 228.12" fill="#a97f2c"/><polygon points="890.29 227.6 889.98 227.47 889.92 227.44 889.93 227.47 890.04 227.68 890.15 227.87 890.43 227.66 890.29 227.6" fill="#a97f2c"/><path d="M890.52,227.59l-.09.07-.28.21L890,228l.32.13.08,0,.1-.23-.1.23,242.12,102.51.5-.23.28-.14.08.36,0-.15L1190.07,2.1,890.76,227.41Zm.44.3h0l.29-.22.42-.32L1189.36,3.25l-56.45,327.08-68.46-29L891,227.89Z" fill="#a97f2c"/><path d="M1133.39,330.82l0-.14-.08-.36-.28.14-.5.23-27.09,12.8L982,401.78l-.46.22,0,0-.06,0,.25.22.15.14,147.58,134.43L1195,596.62h0l2.11,1.93.41.38,1,.94-.16-.66-.13-.52Zm-.29-.14-.24.06Zm-3.21,205.92L982.32,402.18l7.56-3.57L1132.93,331l64.73,267.09.06.26Z" fill="#a97f2c"/></g><g style="mix-blend-mode:overlay"><polygon points="1073.54 447.05 1073.54 447.03 1054.35 454.55 1054.36 454.56 1073.54 447.05" fill="#a97f2c"/><polygon points="1054.34 454.51 1054.35 454.52 1073.53 447 1073.53 446.99 1054.34 454.51" fill="#a97f2c"/><polygon points="1085.47 588.21 1129.41 425.18 1129.31 425.28 1085.45 588.01 1085.47 588.2 1085.47 588.21" fill="#a97f2c"/><polygon points="1129.33 425.12 1073.59 446.97 1073.59 446.98 1129.29 425.17 1129.33 425.12" fill="#a97f2c"/><polygon points="1129.2 425.25 1129.25 425.2 1073.59 447.01 1073.59 447.03 1129.2 425.25" fill="#a97f2c"/><polygon points="1129.42 425.15 1129.44 425.08 1129.37 425.11 1129.36 425.11 1129.38 425.13 1129.4 425.12 1129.39 425.14 1129.42 425.17 1129.42 425.15" fill="#a97f2c"/><polygon points="981.92 482.94 981.92 482.94 975.87 485.31 981.92 482.94" fill="#a97f2c"/><rect x="981.83" y="482.2" width="3.93" transform="translate(-52.82 836.88) rotate(-45)" fill="#a97f2c"/><polygon points="1054.29 454.59 1054.29 454.58 985.66 481.47 985.66 481.47 1054.29 454.59" fill="#a97f2c"/><polygon points="976.42 485.04 981.88 482.9 981.88 482.9 976.42 485.04" fill="#a97f2c"/><rect x="981.8" y="482.16" width="3.93" transform="translate(-52.8 836.85) rotate(-45)" fill="#a97f2c"/><polygon points="1054.28 454.53 985.63 481.44 985.63 481.44 1054.28 454.54 1054.28 454.53" fill="#a97f2c"/><polygon points="1073.59 447.01 1129.25 425.2 1129.29 425.17 1073.59 446.98 1073.59 447.01" fill="#a97f2c"/><polygon points="1129.39 425.14 1129.4 425.12 1129.38 425.13 1129.39 425.14 1129.39 425.14" fill="#a97f2c"/><polygon points="1054.35 454.55 1073.54 447.03 1073.53 447 1054.35 454.52 1054.35 454.55" fill="#a97f2c"/><polygon points="1054.29 454.58 1054.28 454.54 985.63 481.44 985.66 481.47 1054.29 454.58" fill="#a97f2c"/><polygon points="897.54 515.94 897.27 516.11 897.28 516.11 975.87 485.31 981.92 482.94 981.88 482.9 976.42 485.04 897.54 515.94" fill="#a97f2c"/><polygon points="981.93 482.88 981.97 482.92 985.63 481.48 985.6 481.45 981.93 482.88" fill="#a97f2c"/><polygon points="1025.95 527.6 1025.9 527.54 998.35 554.82 998.41 554.85 1025.95 527.6" fill="#a97f2c"/><polygon points="1062.46 491.46 1076.13 477.92 1076.12 477.81 1062.44 491.36 1062.46 491.46" fill="#a97f2c"/><polygon points="1129.38 425.13 1129.36 425.11 1129.35 425.1 1129.33 425.12 1129.29 425.17 1129.25 425.2 1129.2 425.25 1076.18 477.76 1076.18 477.87 1129.31 425.28 1129.41 425.18 1129.42 425.17 1129.42 425.17 1129.39 425.14 1129.38 425.13" fill="#a97f2c"/><polygon points="949.84 602.86 949.86 602.89 949.87 602.9 998.38 554.88 998.32 554.85 949.84 602.86" fill="#a97f2c"/><polygon points="949.78 602.92 856.97 605.12 949.8 602.94 949.78 602.92" fill="#a97f2c"/><polygon points="1027.4 526.16 1027.35 526.11 1025.95 527.49 1026 527.55 1027.4 526.16" fill="#a97f2c"/><polygon points="855.8 605.11 949.73 602.9 949.71 602.88 855.8 605.11" fill="#a97f2c"/><polygon points="1062.39 491.52 1062.37 491.42 1027.38 526.08 1027.43 526.13 1062.39 491.52" fill="#a97f2c"/><polygon points="1085.47 588.28 1085.47 588.21 1085.47 588.2 1085.45 588.01 1076.18 477.87 1076.18 477.76 1073.59 447.03 1073.59 447.01 1073.59 446.98 1073.59 446.97 1071.62 423.63 1071.57 423.69 1073.53 446.99 1073.53 447 1073.54 447.03 1073.54 447.05 1076.12 477.81 1076.13 477.92 1085.4 588.11 1081.41 583.85 1080.67 583.1 1085.44 588.2 1085.45 588.22 1085.39 588.19 1085.41 588.22 1085.47 588.28" fill="#a97f2c"/><polygon points="1080.61 583.04 1079.85 582.27 1085.35 588.15 1085.39 588.17 1085.42 588.18 1080.61 583.04" fill="#a97f2c"/><polygon points="1070.44 409.57 1070.43 409.58 1070.39 409.61 1071.57 423.67 1071.62 423.61 1070.44 409.57" fill="#a97f2c"/><polygon points="1079 581.27 1027.43 526.13 1027.38 526.08 992.34 488.62 1078.29 580.55 1079 581.27" fill="#a97f2c"/><polygon points="1027.35 526.11 1027.4 526.16 1077.47 579.73 1078.21 580.47 988.71 484.77 1027.35 526.11" fill="#a97f2c"/><polygon points="946.32 485.68 970.11 470.96 970.11 470.96 946.32 485.68" fill="#a97f2c"/><polygon points="897.27 516.11 897.26 516.12 897.26 516.12 897.29 516.17 998.32 554.85 998.38 554.88 1085.39 588.19 1085.45 588.22 1085.44 588.2 1080.67 583.1 1080.61 583.04 1085.42 588.18 1085.39 588.17 1085.35 588.15 998.41 554.85 998.35 554.82 897.28 516.11 897.27 516.11" fill="#a97f2c"/><polygon points="985.63 481.48 985.63 481.48 988.71 484.77 1078.21 580.47 1078.29 580.55 992.34 488.62 985.66 481.47 985.66 481.47 985.63 481.44 985.63 481.44 973.77 468.75 973.75 468.77 973.74 468.77 985.6 481.45 985.6 481.45 985.63 481.48" fill="#a97f2c"/><polygon points="970.14 470.99 970.13 470.98 944.94 486.58 970.14 470.99" fill="#a97f2c"/><polygon points="970.15 470.94 970.15 470.94 973.69 468.75 973.69 468.75 973.67 468.75 970.15 470.94" fill="#a97f2c"/><polygon points="970.17 470.96 973.69 468.79 973.69 468.77 970.17 470.96 970.17 470.96" fill="#a97f2c"/><polygon points="1026.57 436.43 1042.47 426.7 1042.44 426.64 1026.49 436.4 1026.57 436.43" fill="#a97f2c"/><polygon points="973.7 468.73 973.7 468.73 973.7 468.73 973.7 468.73" fill="#a97f2c"/><polygon points="1042.53 426.66 1070.38 409.61 1070.38 409.55 1070.38 409.54 1070.36 409.55 1042.5 426.6 1042.53 426.66" fill="#a97f2c"/><polygon points="1070.38 409.53 1008.03 357.01 1008.06 357.06 1070.38 409.53 1070.38 409.53" fill="#a97f2c"/><polygon points="973.69 468.77 973.69 468.79 973.69 468.8 973.74 468.77 973.75 468.77 973.77 468.75 1026.46 436.5 1026.39 436.47 973.78 468.67 981.62 417.93 981.57 417.91 973.7 468.73 973.71 468.73 973.71 468.73 973.71 468.73 973.73 468.74 973.76 468.74 973.75 468.74 973.76 468.74 973.74 468.75 973.69 468.77" fill="#a97f2c"/><polygon points="992.99 344.38 1007.89 356.92 1007.86 356.87 993.01 344.35 992.98 344.35 992.96 344.34 992.96 344.34 981.58 417.84 981.63 417.86 992.99 344.38" fill="#a97f2c"/><polygon points="973.7 468.73 973.71 468.73 973.71 468.73 973.7 468.73" fill="#a97f2c"/><polygon points="973.7 468.73 973.7 468.73 973.71 468.73 973.7 468.73" fill="#a97f2c"/><polygon points="973.76 468.74 973.73 468.74 973.75 468.74 973.76 468.74" fill="#a97f2c"/><polygon points="973.69 468.75 970.15 470.94 970.17 470.96 973.69 468.77 973.74 468.75 973.69 468.75 973.69 468.75" fill="#a97f2c"/><polygon points="897.26 516.12 897.27 516.11 897.54 515.94 944.94 486.58 970.13 470.98 970.11 470.96 946.32 485.68 897.19 516.06 765.94 490.67 765.91 490.67 894.09 515.5 897.14 516.09 897.14 516.09 897.2 516.11 897.26 516.12" fill="#a97f2c"/><polygon points="765.84 490.69 765.86 490.7 897.17 516.14 897.14 516.09 894.09 515.5 765.84 490.69" fill="#a97f2c"/><polygon points="765.83 490.68 765.84 490.69 894.09 515.5 765.91 490.67 765.83 490.68" fill="#a97f2c"/><polygon points="894.09 515.5 897.14 516.09 897.14 516.09 894.09 515.5" fill="#a97f2c"/><polygon points="771.01 493.88 949.71 602.88 949.73 602.9 949.78 602.9 949.8 602.89 771.01 493.88" fill="#a97f2c"/><polygon points="949.8 602.94 949.94 603.02 949.87 602.9 949.86 602.89 949.84 602.86 897.29 516.17 897.26 516.12 897.26 516.12 897.2 516.11 897.14 516.09 897.17 516.14 897.17 516.15 949.71 602.79 771.03 493.86 949.83 602.91 949.85 602.92 949.78 602.92 949.8 602.94 949.8 602.94" fill="#a97f2c"/><polygon points="949.73 602.9 855.8 605.11 651.71 609.91 651.66 609.96 651.66 609.96 856.97 605.12 949.78 602.92 949.85 602.92 949.83 602.91 771.03 493.86 765.86 490.7 765.84 490.69 765.83 490.68 765.77 490.69 771.01 493.88 949.8 602.89 949.78 602.9 949.73 602.9" fill="#a97f2c"/><polygon points="651.57 609.97 651.62 609.97 651.61 609.94 651.61 609.93 651.57 609.97" fill="#a97f2c"/><polygon points="650.12 598.08 651.61 609.93 651.61 609.93 651.61 609.9 650.12 598.08" fill="#a97f2c"/><polygon points="651.61 609.93 651.61 609.94 651.62 609.97 651.62 610 651.66 609.96 651.66 609.96 651.71 609.91 765.75 490.7 765.7 490.7 651.66 609.87 649.96 596.39 651.67 609.95 651.64 609.94 651.61 609.93 651.61 609.93 651.61 609.93" fill="#a97f2c"/><polygon points="424.6 540.86 493.66 561.87 493.7 561.85 424.63 540.83 424.6 540.86" fill="#a97f2c"/><polygon points="637.35 497.15 637.43 497.13 637.42 497.05 637.38 497.05 637.29 497.06 483.46 528.64 637.34 497.07 637.35 497.15" fill="#a97f2c"/><polygon points="637.44 497.17 637.43 497.17 637.36 497.18 637.36 497.2 637.44 497.17" fill="#a97f2c"/><polygon points="637.36 496.99 637.38 496.98 637.37 496.98 637.32 496.99 637.34 497 637.36 496.99" fill="#a97f2c"/><polygon points="473.89 530.56 637.33 497.01 637.33 497.01 637.34 497 637.32 496.99 473.89 530.56" fill="#a97f2c"/><polygon points="424.34 540.78 424.5 540.83 424.55 540.82 424.38 540.77 424.34 540.78 424.34 540.78" fill="#a97f2c"/><polygon points="424.28 540.76 424.28 540.76 424.27 540.76 424.28 540.76" fill="#a97f2c"/><polygon points="424.27 540.75 424.24 540.75 424.27 540.76 424.28 540.76 424.28 540.76 424.27 540.75" fill="#a97f2c"/><polygon points="493.78 561.88 493.74 561.9 648.83 609.08 493.78 561.88" fill="#a97f2c"/><polygon points="651.61 609.93 651.61 609.93 648.83 609.08 651.61 609.93 651.61 609.93" fill="#a97f2c"/><polygon points="651.67 609.95 649.96 596.39 637.44 497.2 637.36 497.24 650.12 598.08 651.61 609.9 651.61 609.93 651.64 609.94 651.67 609.95" fill="#a97f2c"/><polygon points="1138.9 339.01 1078.6 319.69 1078.6 319.69 1138.88 339.03 1138.9 339.01" fill="#a97f2c"/><polygon points="1078.58 319.72 1138.86 339.06 1138.88 339.04 1078.59 319.72 1078.58 319.72" fill="#a97f2c"/><polygon points="1156.03 344.56 1156.03 344.52 1153.67 320.53 1153.62 320.59 1155.97 344.48 1138.95 339.03 1138.93 339.05 1156 344.52 1156.03 344.53 1156 344.55 1156.03 344.56" fill="#a97f2c"/><polygon points="1138.5 166.5 1138.52 166.49 1138.51 166.48 1138.5 166.5" fill="#a97f2c"/><polygon points="1153.33 317.07 1138.52 166.5 1138.5 166.53 1138.52 166.53 1138.5 166.54 1138.5 166.55 1138.5 166.56 1153.27 317.05 1153.33 317.07" fill="#a97f2c"/><polygon points="1155.95 344.53 1155.97 344.51 1138.93 339.05 1138.91 339.07 1155.94 344.53 1155.95 344.53" fill="#a97f2c"/><polygon points="1153.66 320.45 1153.34 317.14 1153.28 317.12 1153.61 320.51 1153.66 320.45" fill="#a97f2c"/><polygon points="1138.88 339.03 1078.6 319.69 1078.59 319.71 1078.59 319.72 1138.88 339.04 1138.88 339.03" fill="#a97f2c"/><polygon points="1078.55 319.72 1070.38 409.53 1070.38 409.53 1070.38 409.54 1070.38 409.55 1070.38 409.61 1070.38 409.62 1070.39 409.61 1070.43 409.58 1070.44 409.57 1101.64 385.86 1101.78 385.68 1070.45 409.49 1078.57 319.75 1078.55 319.72" fill="#a97f2c"/><polygon points="1156.03 344.53 1156 344.52 1138.93 339.05 1138.93 339.05 1155.97 344.51 1155.95 344.53 1155.94 344.53 1101.88 385.61 1101.74 385.78 1156 344.55 1156.03 344.53" fill="#a97f2c"/><polygon points="966.2 466.93 971.58 468.22 966.2 466.93 966.2 466.93" fill="#a97f2c"/><polygon points="973.7 468.73 971.58 468.22 973.7 468.73 973.71 468.73 973.71 468.73 973.7 468.73" fill="#a97f2c"/><polygon points="765.77 490.69 765.83 490.68 765.91 490.67 765.94 490.67 968.48 469.3 968.46 469.28 765.79 490.63 766.8 419.12 966.12 466.91 966.12 466.91 766.78 419.07 766.76 419.07 766.76 419.09 766.77 419.08 766.79 419.08 766.79 419.09 765.76 490.66 765.76 490.69 765.76 490.69 765.77 490.69" fill="#a97f2c"/><polygon points="766.77 419.11 766.76 419.12 765.73 490.62 765.76 490.62 766.77 419.11" fill="#a97f2c"/><polygon points="973.68 468.73 968.51 469.28 968.53 469.3 973.67 468.75 973.69 468.75 973.74 468.75 973.76 468.74 973.75 468.74 973.73 468.74 973.71 468.73 973.7 468.73 973.68 468.73" fill="#a97f2c"/><polygon points="637.33 497.01 637.35 497.01 637.34 497 637.33 497.01" fill="#a97f2c"/><path d="M637.38,497.05h0L765.7,490.7h.06v0l1-71.57h0L637.39,497h0l0,0h0l-.11,0Zm129.38-77.93h0l-1,71.51h0L637.5,497Z" fill="#a97f2c"/><polygon points="424.35 540.77 424.34 540.78 424.38 540.77 424.36 540.76 424.35 540.77" fill="#a97f2c"/><polygon points="483.46 528.64 637.29 497.06 637.4 497.03 637.38 497.02 637.34 497 637.32 496.99 503.92 425.45 503.93 425.45 503.9 425.48 637.32 496.99 637.34 497 637.35 497.01 637.33 497.01 637.33 497.01 473.89 530.56 424.39 540.71 424.37 540.74 424.44 540.76 483.46 528.64" fill="#a97f2c"/><polygon points="424.28 540.76 424.28 540.76 424.29 540.76 424.28 540.76" fill="#a97f2c"/><polygon points="503.91 425.44 503.89 425.44 503.89 425.45 503.88 425.46 503.9 425.45 503.92 425.45 503.91 425.44" fill="#a97f2c"/><polygon points="424.26 540.8 424.31 540.79 424.3 540.78 424.29 540.76 424.28 540.76 424.28 540.76 424.26 540.8" fill="#a97f2c"/><polygon points="142.38 578.04 259.23 502.87 259.22 502.85 142.38 578.04" fill="#a97f2c"/><polygon points="259.25 502.89 144.82 576.54 259.26 502.91 259.25 502.89" fill="#a97f2c"/><polygon points="271.48 494.96 271.51 494.97 328.81 458.11 328.83 458.1 328.83 458.1 328.67 458.15 271.48 494.96" fill="#a97f2c"/><polygon points="129.26 586.55 300.12 560.03 300.11 560.01 129.36 586.48 129.26 586.55" fill="#a97f2c"/><polygon points="424.29 540.76 424.29 540.76 424.29 540.76 424.29 540.76" fill="#a97f2c"/><polygon points="424.29 540.76 424.29 540.76 424.28 540.76 424.29 540.76" fill="#a97f2c"/><polygon points="300.18 560 300.19 560.02 424.27 540.76 424.28 540.76 424.27 540.76 300.18 560" fill="#a97f2c"/><polygon points="329 458.16 328.98 458.15 424.16 540.61 424.1 540.53 329 458.16" fill="#a97f2c"/><polygon points="328.9 458.07 328.89 458.05 328.86 458.03 328.84 458.05 328.87 458.06 328.9 458.07" fill="#a97f2c"/><polygon points="129.25 586.55 129.26 586.55 129.23 586.51 129.13 586.57 129.25 586.55" fill="#a97f2c"/><polygon points="259.3 502.86 259.31 502.88 271.5 495.03 271.47 495.02 259.3 502.86" fill="#a97f2c"/><polygon points="328.68 458.15 328.83 458.1 328.8 458.07 328.68 458.15" fill="#a97f2c"/><polygon points="424.22 540.7 424.24 540.7 424.19 540.65 328.84 458.11 328.84 458.1 271.54 494.98 271.57 494.99 328.86 458.14 424.22 540.7" fill="#a97f2c"/><polygon points="259.27 502.82 259.28 502.84 271.44 495.01 271.41 495 259.27 502.82" fill="#a97f2c"/><polygon points="1138.41 166.61 1039.82 272.23 1039.86 272.24 1138.41 166.61 1138.41 166.61" fill="#a97f2c"/><polygon points="1039.81 272.3 1039.77 272.28 1035.68 276.66 1035.75 276.65 1039.81 272.3" fill="#a97f2c"/><polygon points="1138.5 166.55 1138.5 166.54 1138.48 166.55 1138.48 166.55 1138.46 166.59 1138.46 166.6 1089.44 291.83 1089.49 291.85 1138.5 166.55" fill="#a97f2c"/><polygon points="1078.55 319.72 1078.57 319.75 1078.57 319.75 1078.58 319.72 1078.59 319.72 1078.59 319.71 1078.6 319.69 1078.6 319.69 1089.46 291.91 1089.42 291.89 1078.55 319.65 1035.71 276.72 1035.7 276.73 1035.69 276.75 1078.54 319.72 1078.55 319.72" fill="#a97f2c"/><polygon points="1138.52 166.5 1138.52 166.49 1138.52 166.49 1138.5 166.5 1138.47 166.53 1138.47 166.53 1138.49 166.52 1138.48 166.53 1138.5 166.53 1138.52 166.5" fill="#a97f2c"/><polygon points="1138.46 166.55 1138.46 166.56 1138.46 166.55 1138.46 166.55" fill="#a97f2c"/><polygon points="1138.45 166.56 1138.46 166.56 1138.45 166.56 1138.45 166.56" fill="#a97f2c"/><polygon points="915.63 295.88 825.47 310.32 825.37 310.33 825.46 310.36 899.68 325.42 899.69 325.4 825.57 310.34 915.6 295.95 915.63 295.88" fill="#a97f2c"/><polygon points="899.72 325.4 899.71 325.42 990.22 343.79 899.72 325.4" fill="#a97f2c"/><polygon points="997.92 336.59 1035.69 276.75 1035.7 276.73 1035.71 276.72 1035.75 276.65 1035.75 276.65 1035.68 276.66 1035.66 276.67 973.19 286.67 973.22 286.73 1035.58 276.76 997.88 336.51 997.92 336.59" fill="#a97f2c"/><polygon points="915.67 295.88 915.64 295.94 973.11 286.75 973.08 286.69 915.67 295.88" fill="#a97f2c"/><polygon points="992.93 344.34 990.22 343.79 992.93 344.34 992.93 344.34" fill="#a97f2c"/><polygon points="992.98 344.35 993.01 344.35 993.02 344.36 997.86 336.69 997.82 336.6 992.96 344.3 992.93 344.34 992.96 344.34 992.98 344.35" fill="#a97f2c"/><polygon points="424.26 540.74 424.27 540.75 424.28 540.76 424.29 540.76 424.29 540.76 424.3 540.78 424.31 540.79 424.32 540.81 424.34 540.78 424.34 540.78 424.35 540.77 424.36 540.76 424.32 540.75 424.32 540.76 424.34 540.77 424.31 540.75 424.26 540.74" fill="#a97f2c"/><polygon points="370.45 475.87 424.1 540.53 424.16 540.61 424.28 540.72 424.29 540.72 424.24 540.66 370.45 475.87" fill="#a97f2c"/><polygon points="424.39 540.71 503.9 425.48 503.93 425.45 503.92 425.45 503.9 425.45 503.88 425.46 364.44 468.56 364.44 468.56 364.45 468.56 364.45 468.57 364.47 468.59 503.87 425.46 503.86 425.49 424.32 540.7 367.66 472.44 424.24 540.66 424.29 540.72 424.37 540.74 424.39 540.71" fill="#a97f2c"/><polygon points="424.26 540.71 424.19 540.65 424.24 540.7 424.26 540.71" fill="#a97f2c"/><polygon points="424.31 540.75 424.34 540.77 424.32 540.76 424.32 540.75 424.31 540.75" fill="#a97f2c"/><polygon points="364.42 468.6 370.45 475.87 424.24 540.66 367.66 472.44 364.47 468.59 364.45 468.57 364.45 468.56 364.44 468.56 364.44 468.56 328.9 458.07 328.87 458.06 328.84 458.05 328.74 458.02 328.8 458.07 328.83 458.1 328.86 458.08 328.88 458.08 328.84 458.1 328.84 458.11 424.19 540.65 424.26 540.71 424.28 540.72 424.16 540.61 328.98 458.15 329 458.16 364.42 468.6" fill="#a97f2c"/><polygon points="328.84 458.09 328.83 458.1 328.83 458.1 328.84 458.09" fill="#a97f2c"/><polygon points="328.81 458.11 271.51 494.97 271.54 494.98 328.84 458.1 328.88 458.08 328.86 458.08 328.83 458.1 328.68 458.15 249.18 488.29 249.22 488.3 328.67 458.15 328.83 458.1 328.84 458.09 328.83 458.1 328.81 458.11" fill="#a97f2c"/><polygon points="259.3 502.86 271.47 495.02 271.44 495.01 259.28 502.84 259.3 502.86" fill="#a97f2c"/><polygon points="129.23 586.51 129.26 586.55 129.26 586.55 129.36 586.48 144.82 576.54 259.25 502.89 259.23 502.87 142.38 578.04 129.63 586.25 248.93 488.47 248.92 488.45 129.23 586.5 129.23 586.5 129.23 586.5 129.22 586.5 129.23 586.51" fill="#a97f2c"/><polygon points="249.12 488.34 249.08 488.33 249.07 488.33 249.06 488.33 248.97 488.41 248.98 488.43 249.08 488.35 249.12 488.34" fill="#a97f2c"/><polygon points="154.63 298.88 154.65 298.87 143.73 276.89 171.68 288.42 171.7 288.4 143.67 276.85 143.67 276.86 143.84 277.2 154.63 298.88" fill="#a97f2c"/><polygon points="171.73 288.42 171.71 288.43 323.14 350.87 323.17 350.88 323.19 350.85 171.73 288.42" fill="#a97f2c"/><polygon points="248.78 488.17 248.78 488.17 248.8 488.18 322.9 351.39 248.78 488.16 248.78 488.17" fill="#a97f2c"/><polygon points="323.17 350.88 323.17 350.88 322.9 351.39 323.17 350.88" fill="#a97f2c"/><polygon points="143.65 276.89 154.6 298.9 154.62 298.88 143.84 277.2 143.67 276.86 143.66 276.88 143.65 276.89" fill="#a97f2c"/><polygon points="323.11 350.79 171.78 288.39 171.76 288.4 323.16 350.84 323.15 350.82 323.11 350.79" fill="#a97f2c"/><polygon points="171.72 288.39 171.75 288.37 143.67 276.8 143.67 276.8 143.67 276.82 171.72 288.39" fill="#a97f2c"/><polygon points="143.62 276.83 143.64 276.81 143.64 276.78 143.59 276.76 143.62 276.83" fill="#a97f2c"/><polygon points="323.2 350.82 323.16 350.81 323.19 350.84 323.2 350.82" fill="#a97f2c"/><polygon points="154.64 298.92 154.62 298.93 234.05 458.63 154.64 298.92" fill="#a97f2c"/><polygon points="154.65 298.92 233.77 458 154.67 298.9 154.65 298.92" fill="#a97f2c"/><polygon points="143.64 276.78 143.64 276.81 143.65 276.81 143.66 276.83 143.67 276.85 171.7 288.4 171.72 288.39 143.67 276.82 143.67 276.8 115.63 130.65 115.66 131.09 143.64 276.78" fill="#a97f2c"/><polygon points="140.15 147.12 114.76 118.87 114.77 118.96 140.61 147.71 140.15 147.12" fill="#a97f2c"/><polygon points="114.68 118.78 112.98 116.89 112.92 116.82 112.94 116.91 115.54 130.47 115.51 130.03 113.01 117 114.69 118.87 114.68 118.78" fill="#a97f2c"/><polygon points="323.21 350.86 323.19 350.84 323.16 350.81 240.78 259.12 240.72 259.1 323.11 350.79 323.15 350.82 323.16 350.84 171.76 288.4 171.73 288.42 323.19 350.85 323.21 350.86" fill="#a97f2c"/><polygon points="233.15 250.63 141.22 148.32 141.68 148.9 233.12 250.65 233.15 250.63" fill="#a97f2c"/><polygon points="236.47 254.33 236.43 254.33 240.62 259 240.68 259.01 236.47 254.33" fill="#a97f2c"/><polygon points="233.21 250.7 233.18 250.72 236.3 254.19 236.34 254.18 233.21 250.7" fill="#a97f2c"/><polygon points="127.77 296.69 89.17 345.03 89.37 344.87 127.77 296.77 127.77 296.69" fill="#a97f2c"/><polygon points="157.97 452.41 106.44 432.12 106.41 432.17 157.92 452.45 157.97 452.41" fill="#a97f2c"/><polygon points="43.81 401.83 43.81 401.95 57.96 384.23 57.89 384.2 43.81 401.83" fill="#a97f2c"/><polygon points="89.21 345.08 89 345.24 57.94 384.14 58.01 384.16 89.21 345.08" fill="#a97f2c"/><polygon points="43.8 407.52 106.35 432.15 106.38 432.1 43.8 407.45 43.8 407.52" fill="#a97f2c"/><polygon points="248.78 488.16 233.77 458 154.65 298.92 154.64 298.92 234.05 458.63 248.73 488.15 248.78 488.17 248.78 488.16" fill="#a97f2c"/><polygon points="43.76 401.9 40.38 406.13 40.35 406.17 40.4 406.18 43.75 407.5 43.75 407.43 40.47 406.13 43.76 402.01 43.76 401.9" fill="#a97f2c"/><polygon points="248.7 488.15 157.98 452.42 157.93 452.46 248.74 488.2 248.7 488.15" fill="#a97f2c"/><polygon points="143.66 276.88 143.67 276.86 143.67 276.85 143.66 276.83 143.65 276.81 143.64 276.81 143.62 276.83 127.82 296.63 127.82 296.71 143.65 276.89 143.66 276.88" fill="#a97f2c"/><polygon points="154.63 298.88 143.84 277.2 154.62 298.88 154.63 298.88" fill="#a97f2c"/><polygon points="348.32 627.3 424.56 540.82 424.55 540.82 424.5 540.83 424.5 540.83 348.3 627.27 348.31 627.28 348.32 627.3" fill="#a97f2c"/><path d="M348.26,627.32l-.11.12.17-.08L493.74,561.9l0,0,143.58-64.64.08,0,.16-.07.14-.06-.15,0-.16,0-.08,0L424.6,540.81v0l-76.29,86.5,0,0Zm76.34-86.46,0,0,0,0,212.7-43.62h.08l-.08,0L493.7,561.85l0,0-145.2,65.34Z" fill="#a97f2c"/><path d="M424.37,540.74l-.08,0h-.07L271.57,495h-.09l-22.26-6.66h0l-.38-.12h0l-.05,0h0l0,.06h0l.17.23v0l10.29,14.38v0l0,0v0L300.11,560v0l48.14,67.29,0,0,0,0,76.29-86.5v0h0l-.15,0Zm.19.08L348.32,627.3v0h0L300.19,560v0l-40.87-57.12v0l0,0v0L249,488.43l0,0-.11-.15.23.07h0L271.41,495h.09l152.77,45.71h.11l.17.05Z" fill="#a97f2c"/><polygon points="141.06 148.22 140.61 147.71 224.81 254.61 141.06 148.22" fill="#a97f2c"/><polygon points="154.6 298.9 129.13 314.53 127.82 296.71 127.77 296.77 129.08 314.56 129.07 314.57 129.08 314.57 129.08 314.61 129.09 314.6 129.1 314.59 129.1 314.61 129.12 314.59 129.13 314.6 129.13 314.59 154.62 298.93 154.6 298.9" fill="#a97f2c"/><polygon points="114.36 114.38 114.68 118.78 114.76 118.87 114.44 114.48 140.15 147.12 140.6 147.63 114.44 114.39 114.33 114.33 114.36 114.29 114.35 114.28 114.35 114.28 114.35 114.27 114.35 114.3 114.31 114.31 114.36 114.38" fill="#a97f2c"/><polygon points="154.67 298.9 171.71 288.43 171.68 288.42 154.65 298.87 154.67 298.9" fill="#a97f2c"/><polygon points="225.44 255.43 225.42 255.43 171.75 288.37 171.78 288.39 225.44 255.43" fill="#a97f2c"/><polygon points="114.35 114.24 114.35 114.26 114.36 114.26 114.35 114.24" fill="#a97f2c"/><polygon points="127.82 296.63 115.66 131.09 115.54 130.47 127.77 296.69 127.82 296.63" fill="#a97f2c"/><polygon points="115.63 130.65 114.77 118.96 114.69 118.87 115.51 130.03 115.63 130.65" fill="#a97f2c"/><polygon points="171.68 288.42 171.71 288.43 171.73 288.42 171.7 288.4 171.68 288.42" fill="#a97f2c"/><polygon points="171.78 288.39 171.75 288.37 171.72 288.39 171.76 288.4 171.78 288.39" fill="#a97f2c"/><polygon points="154.67 298.9 154.65 298.87 154.63 298.88 154.65 298.92 154.67 298.9" fill="#a97f2c"/><polygon points="154.6 298.9 154.62 298.93 154.64 298.92 154.62 298.88 154.6 298.9" fill="#a97f2c"/><polygon points="140.61 147.71 141.06 148.22 140.6 147.63 140.15 147.12 140.61 147.71" fill="#a97f2c"/><polygon points="171.73 288.42 171.76 288.4 171.72 288.39 171.7 288.4 171.73 288.42" fill="#a97f2c"/><polygon points="115.54 130.47 115.66 131.09 115.63 130.65 115.51 130.03 115.54 130.47" fill="#a97f2c"/><polygon points="114.69 118.87 114.77 118.96 114.76 118.87 114.68 118.78 114.69 118.87" fill="#a97f2c"/><rect x="154.63" y="298.88" height="0.04" transform="translate(-126.16 113.41) rotate(-29.2)" fill="#a97f2c"/><polygon points="127.77 296.77 127.82 296.71 127.82 296.63 127.77 296.69 127.77 296.77" fill="#a97f2c"/><polygon points="301.72 208.05 301.7 208.02 301.7 208.03 114.49 114.33 114.41 114.23 114.38 114.27 114.36 114.26 114.35 114.26 114.33 114.25 114.35 114.28 114.35 114.28 114.36 114.29 114.33 114.33 114.44 114.39 140.6 147.63 141.22 148.32 114.6 114.47 301.65 208.05 238.14 247.53 301.72 208.05" fill="#a97f2c"/><polygon points="225.44 255.41 225.44 255.41 225.44 255.41 225.44 255.41" fill="#a97f2c"/><polygon points="141.06 148.22 224.81 254.61 225.44 255.41 225.44 255.41 141.68 148.9 141.06 148.22" fill="#a97f2c"/><polygon points="141.06 148.22 141.68 148.9 141.22 148.32 140.6 147.63 141.06 148.22" fill="#a97f2c"/><polygon points="432.7 233.49 301.73 208.06 301.72 208.06 301.72 208.06 301.72 208.05 238.14 247.53 233.15 250.63 233.21 250.7 301.74 208.11 432.7 233.49 432.7 233.49" fill="#a97f2c"/><polygon points="225.45 255.41 225.46 255.41 225.47 255.34 225.65 255.39 236.36 254.25 236.3 254.19 225.82 255.29 233.18 250.72 233.12 250.65 225.6 255.31 225.44 255.33 225.46 255.4 225.44 255.41 225.45 255.41" fill="#a97f2c"/><polygon points="419.51 234.89 236.34 254.18 236.4 254.25 419.51 234.89" fill="#a97f2c"/><polygon points="236.36 254.25 236.4 254.25 236.34 254.18 236.3 254.19 236.36 254.25" fill="#a97f2c"/><polygon points="233.18 250.72 233.21 250.7 233.15 250.63 233.12 250.65 233.18 250.72" fill="#a97f2c"/><polygon points="225.41 255.43 225.42 255.43 225.44 255.43 225.45 255.43 225.45 255.43 225.42 255.42 225.41 255.43" fill="#a97f2c"/><polygon points="225.5 255.49 225.49 255.49 225.49 255.49 225.5 255.49" fill="#a97f2c"/><polygon points="290.85 189.93 279.04 170.37 278.96 170.39 290.75 189.9 290.85 189.93" fill="#a97f2c"/><polygon points="249.36 121.4 278.93 170.33 279.01 170.32 249.53 121.51 316.51 162.45 316.6 162.43 249.43 121.33 249.35 121.2 249.3 121.25 249.28 121.24 249.25 121.22 249.27 121.25 249.28 121.27 249.23 121.32 249.36 121.4" fill="#a97f2c"/><polygon points="301.72 208.05 301.72 208.06 301.72 208.06 301.73 208.06 432.7 233.49 432.69 233.49 301.76 208 290.89 189.99 290.79 189.96 301.7 208.02 301.72 208.05" fill="#a97f2c"/><polygon points="432.72 233.49 316.67 162.48 316.58 162.5 432.71 233.49 432.72 233.49" fill="#a97f2c"/><polygon points="546.4 114.28 546.39 114.23 546.39 114.23 316.6 162.43 316.51 162.45 279.01 170.32 278.93 170.33 248.1 176.8 248.02 176.78 248.01 176.82 248 176.82 247.97 176.83 248 176.84 248.01 176.84 248.01 176.88 248.09 176.87 290.79 189.96 290.89 189.99 432.69 233.49 432.7 233.49 432.7 233.49 432.71 233.49 432.73 233.49 432.72 233.49 432.72 233.49 432.72 233.49 432.71 233.49 290.85 189.93 290.75 189.9 248.22 176.84 278.96 170.39 279.04 170.37 316.58 162.5 316.67 162.48 546.33 114.3 443.95 221.72 546.4 114.28" fill="#a97f2c"/><polygon points="432.87 233.43 546.41 114.36 546.4 114.28 443.95 221.72 432.78 233.44 432.73 233.44 432.74 233.47 432.73 233.49 432.73 233.49 547.98 227.76 432.87 233.43" fill="#a97f2c"/><polygon points="546.48 114.25 546.49 114.28 546.51 114.25 546.48 114.25" fill="#a97f2c"/><polygon points="432.78 233.53 432.77 233.53 432.77 233.54 432.78 233.53" fill="#a97f2c"/><polygon points="772.74 183.31 772.74 183.31 703.97 162.29 703.93 162.3 772.74 183.31" fill="#a97f2c"/><rect x="772.89" y="183.26" height="0.19" transform="translate(205.92 739.7) rotate(-57.8)" fill="#a97f2c"/><polygon points="560.64 227.22 560.63 227.22 560.63 227.22 560.64 227.22" fill="#a97f2c"/><polygon points="773 183.39 773.01 183.4 773.02 183.4 773.01 183.39 773 183.39 773 183.39" fill="#a97f2c"/><polygon points="560.66 227.13 560.68 227.13 560.69 227.13 560.71 227.12 560.71 227.12 560.69 227.12 560.68 227.01 560.6 227.04 560.61 227.09 560.64 227.07 560.66 227.13" fill="#a97f2c"/><polygon points="607.85 217.48 560.85 227.16 560.87 227.17 607.85 217.48" fill="#a97f2c"/><polygon points="703.89 162.26 546.49 114.15 546.38 114.11 546.39 114.23 546.39 114.23 546.4 114.28 546.41 114.36 560.59 226.95 560.67 226.94 546.49 114.28 546.48 114.25 546.48 114.23 703.85 162.28 703.89 162.26" fill="#a97f2c"/><polygon points="560.76 227.11 560.76 227.11 583.83 222.36 560.76 227.11" fill="#a97f2c"/><polygon points="560.7 227.2 560.77 227.19 560.75 227.18 560.7 227.19 560.7 227.15 560.69 227.14 560.69 227.14 560.67 227.15 560.69 227.21 560.7 227.2" fill="#a97f2c"/><polygon points="43.75 407.43 43.8 407.45 43.81 401.95 43.76 402.01 43.75 407.43" fill="#a97f2c"/><polygon points="117.37 411.28 106.38 432.1 106.39 432.1 117.37 411.28" fill="#a97f2c"/><polygon points="120.96 404.46 57.97 384.21 57.96 384.23 120.96 404.46 120.96 404.46" fill="#a97f2c"/><polygon points="106.36 432.15 106.35 432.15 43.68 550.93 43.8 407.52 43.75 407.5 43.6 551.09 43.55 551.19 43.6 551.21 43.6 551.23 43.6 551.22 43.61 551.21 43.56 551.17 43.69 551.06 106.36 432.15" fill="#a97f2c"/><polygon points="43.78 379.63 43.78 379.63 43.78 379.63 43.78 379.63" fill="#a97f2c"/><polygon points="43.81 401.83 43.83 379.69 57.89 384.2 57.9 384.18 43.84 379.66 43.82 379.68 43.82 379.65 43.78 379.64 43.78 379.64 43.78 379.67 43.78 379.67 43.78 379.67 43.76 401.9 43.81 401.83" fill="#a97f2c"/><polygon points="106.36 432.15 106.39 432.1 106.38 432.1 106.35 432.15 106.36 432.15" fill="#a97f2c"/><polygon points="57.96 384.23 57.97 384.21 57.9 384.18 57.89 384.2 57.96 384.23" fill="#a97f2c"/><polygon points="43.75 407.5 43.8 407.52 43.8 407.45 43.75 407.43 43.75 407.5" fill="#a97f2c"/><polygon points="43.81 401.83 43.76 401.9 43.76 402.01 43.81 401.95 43.81 401.83" fill="#a97f2c"/><polygon points="43.6 551.26 43.62 551.23 43.62 551.23 43.6 551.25 43.6 551.26" fill="#a97f2c"/><polygon points="120.97 404.45 120.97 404.45 129.09 314.68 129.13 314.65 129.1 314.63 129.1 314.61 129.1 314.59 129.09 314.6 129.06 314.62 129.03 314.6 129.03 314.64 89.37 344.87 89.21 345.08 129.02 314.74 120.97 404.45 120.97 404.45" fill="#a97f2c"/><polygon points="89.17 345.03 43.83 379.59 43.8 379.58 43.81 379.61 43.78 379.63 43.78 379.63 43.77 379.64 43.78 379.64 43.78 379.64 43.82 379.65 43.82 379.68 43.84 379.66 57.9 384.18 57.94 384.14 43.9 379.62 89 345.24 89.17 345.03" fill="#a97f2c"/><polygon points="120.96 404.46 120.96 404.45 58.01 384.16 57.97 384.21 120.96 404.46 120.96 404.46" fill="#a97f2c"/><polygon points="89.21 345.08 89.37 344.87 89.17 345.03 89 345.24 89.21 345.08" fill="#a97f2c"/><polygon points="57.97 384.21 58.01 384.16 57.94 384.14 57.9 384.18 57.97 384.21" fill="#a97f2c"/><polygon points="225.49 255.49 225.5 255.49 225.65 255.47 240.72 259.1 240.62 259 225.91 255.45 236.43 254.33 236.36 254.25 225.65 255.39 225.47 255.34 225.46 255.41 225.45 255.41 225.44 255.41 225.44 255.41 225.39 255.41 225.42 255.42 225.45 255.43 225.46 255.43 225.46 255.5 225.49 255.49" fill="#a97f2c"/><polygon points="431.71 305.06 432.72 233.5 432.72 233.49 432.73 233.49 432.71 233.49 419.51 234.89 236.4 254.25 236.47 254.33 432.7 233.53 431.71 305.06 240.68 259.01 240.78 259.12 431.71 305.06" fill="#a97f2c"/><polygon points="240.72 259.1 240.78 259.12 240.68 259.01 240.62 259 240.72 259.1" fill="#a97f2c"/><polygon points="236.43 254.33 236.47 254.33 236.4 254.25 236.36 254.25 236.43 254.33" fill="#a97f2c"/><polygon points="431.72 305.07 431.72 305.06 431.71 305.07 431.72 305.07" fill="#a97f2c"/><path d="M560.68,227.14h0v-.06l0,0-.07,0-12.56.63-115.25,5.73h0l-1,71.57h0l128.84-77.84h.13l0-.06h0Zm-129,77.92,0-2,1-69.54h0l127.6-6.3Z" fill="#a97f2c"/><polygon points="773.02 183.4 773.02 183.4 773.01 183.4 773.01 183.4 773 183.39 773 183.39 772.99 183.37 772.98 183.38 772.98 183.39 772.98 183.39 773.02 183.4 773.02 183.4" fill="#a97f2c"/><polygon points="772.99 183.45 772.89 183.42 583.83 222.36 560.76 227.11 560.76 227.11 560.71 227.09 560.71 227.12 560.71 227.12 560.68 227.13 560.66 227.13 560.68 227.14 560.69 227.14 560.7 227.15 560.7 227.19 560.75 227.18 560.77 227.19 693.71 298.7 693.71 298.69 560.87 227.17 560.85 227.16 607.85 217.48 772.92 183.48 702.03 286.61 772.99 183.45" fill="#a97f2c"/><polygon points="832.87 188.95 774.45 183.52 832.87 188.95 832.87 188.95" fill="#a97f2c"/><polygon points="952.47 180.24 910.52 183.32 910.53 183.33 952.47 180.24" fill="#a97f2c"/><polygon points="906.15 177.2 906.2 177.26 1136.79 166.62 906.15 177.2" fill="#a97f2c"/><polygon points="1138.16 166.56 1136.79 166.62 1138.15 166.56 1138.16 166.56" fill="#a97f2c"/><polygon points="774.45 183.52 773.18 183.4 773.18 183.4 774.45 183.52" fill="#a97f2c"/><polygon points="832.87 189.04 832.87 189.02 773.37 183.51 773.43 183.53 832.87 189.04" fill="#a97f2c"/><polygon points="905.5 183.63 833.09 188.95 833.1 188.95 905.5 183.63" fill="#a97f2c"/><polygon points="910.47 183.33 910.46 183.32 833.19 188.99 833.27 189.02 910.47 183.33" fill="#a97f2c"/><polygon points="832.96 189.04 833.09 189.03 833.01 189 832.95 189 832.96 189.04" fill="#a97f2c"/><polygon points="773.05 183.49 773.03 183.48 773.03 183.49 773.05 183.49" fill="#a97f2c"/><polygon points="906.1 177.21 773.03 183.31 773.03 183.39 773.03 183.39 773.03 183.39 773.03 183.39 773.07 183.39 773.09 183.35 773.13 183.4 773.18 183.4 906.14 177.27 906.1 177.21" fill="#a97f2c"/><polygon points="157.98 452.42 163.72 447.45 120.99 404.48 121 404.48 120.99 404.48 120.97 404.45 120.97 404.45 120.97 404.45 120.97 404.45 120.96 404.45 120.96 404.46 120.95 404.48 120.94 404.48 120.95 404.48 117.37 411.28 106.39 432.1 106.44 432.12 120.97 404.51 163.72 447.45 157.97 452.41 157.98 452.42" fill="#a97f2c"/><polygon points="43.6 551.22 43.58 551.26 43.6 551.25 43.62 551.23 43.63 551.22 43.68 551.26 43.75 551.12 157.93 452.46 157.92 452.45 43.86 550.91 106.41 432.17 106.36 432.15 43.69 551.06 43.56 551.17 43.61 551.21 43.6 551.22 43.6 551.22" fill="#a97f2c"/><polygon points="157.93 452.46 157.98 452.42 157.97 452.41 157.92 452.45 157.93 452.46" fill="#a97f2c"/><polygon points="106.41 432.17 106.44 432.12 106.39 432.1 106.36 432.15 106.41 432.17" fill="#a97f2c"/><polygon points="773.02 183.4 773.02 183.41 773.02 183.4 773.02 183.4" fill="#a97f2c"/><polygon points="773.03 183.48 773.05 183.49 832.65 255.49 832.65 255.49 773.09 183.48 773.02 183.48 773.03 183.46 772.99 183.45 702.03 286.61 693.77 298.61 693.7 298.63 693.73 298.67 693.71 298.69 693.71 298.7 693.7 298.72 693.72 298.71 693.75 298.7 693.77 298.74 693.82 298.68 832.65 255.6 832.65 255.59 693.89 298.57 773.03 183.49 773.03 183.48" fill="#a97f2c"/><polygon points="773.03 183.39 773.03 183.39 773.03 183.39 773.03 183.39" fill="#a97f2c"/><polygon points="832.65 255.49 831.53 254.13 832.65 255.49 832.65 255.49" fill="#a97f2c"/><polygon points="773.03 183.46 773.02 183.48 773.09 183.48 832.65 255.49 832.65 255.49 831.53 254.13 773.24 183.53 773.03 183.46" fill="#a97f2c"/><polygon points="832.87 188.97 832.87 188.95 773.13 183.4 773.09 183.35 773.07 183.39 773.03 183.39 773.03 183.39 773.03 183.39 773.01 183.39 773.01 183.39 773.02 183.4 773.02 183.4 773.02 183.41 773.37 183.51 832.87 189.02 832.87 188.97" fill="#a97f2c"/><polygon points="833.01 189 833.09 189.03 872.65 205.18 833.01 189 833.01 189" fill="#a97f2c"/><rect x="947.6" y="235.82" width="0.09" height="0.01" transform="translate(-26.14 162.38) rotate(-9.66)" fill="#a97f2c"/><polygon points="832.65 255.49 832.65 255.49 832.65 255.49 832.65 255.49 832.65 255.57 832.65 255.59 832.65 255.6 832.65 255.66 832.73 255.64 947.44 235.86 947.43 235.86 832.73 255.56 832.91 201.45 832.83 201.43 832.65 255.49" fill="#a97f2c"/><polygon points="832.98 188.9 832.87 188.86 832.87 188.95 832.87 188.95 832.87 188.97 832.87 189.02 832.87 189.04 832.83 201.37 832.91 201.39 832.96 189.04 832.96 189 832.95 189 832.96 188.98 832.95 188.97 832.92 188.96 832.95 188.96 832.96 188.96 832.96 188.93 833.02 188.95 833.1 188.95 833.09 188.95 832.98 188.9" fill="#a97f2c"/><polygon points="833.27 189.02 833.19 188.99 833.11 188.99 939.58 232.49 833.27 189.02" fill="#a97f2c"/><polygon points="1138.47 166.53 1138.46 166.54 1138.45 166.54 1138.44 166.49 1138.27 166.55 1138.16 166.56 1138.15 166.56 910.48 183.27 910.52 183.32 952.47 180.24 1138.03 166.64 947.92 235.73 947.92 235.74 1138.28 166.62 1138.41 166.61 1138.45 166.56 1138.45 166.56 1138.46 166.55 1138.47 166.54 1138.47 166.53" fill="#a97f2c"/><polygon points="1138.46 166.55 1138.46 166.55 1138.46 166.55 1138.46 166.55" fill="#a97f2c"/><polygon points="1138.46 166.55 1138.46 166.55 1138.47 166.54 1138.46 166.55" fill="#a97f2c"/><polygon points="1138.45 166.56 1138.41 166.61 1138.46 166.6 1138.46 166.59 1138.45 166.56" fill="#a97f2c"/><polygon points="1138.48 166.53 1138.47 166.53 1138.47 166.54 1138.46 166.55 1138.48 166.55 1138.48 166.53" fill="#a97f2c"/><polygon points="1138.52 166.53 1138.5 166.53 1138.5 166.54 1138.52 166.53" fill="#a97f2c"/><rect x="1138.46" y="166.54" width="0.02" transform="translate(240.06 885.37) rotate(-46.99)" fill="#a97f2c"/><rect x="1138.49" y="166.53" width="0.01" height="0.02" transform="translate(556.97 1159.37) rotate(-67.96)" fill="#a97f2c"/><rect x="1138.4" y="166.58" width="0.07" fill="#a97f2c"/><polygon points="1138.45 166.6 1138.46 166.6 1138.46 166.59 1138.45 166.6" fill="#a97f2c"/><polygon points="833.01 189 833.01 189 872.65 205.18 947.69 235.81 947.69 235.81 947.7 235.82 947.85 235.76 947.84 235.76 947.7 235.81 939.58 232.49 833.11 188.99 833.19 188.99 910.46 183.32 910.42 183.27 905.5 183.63 833.1 188.95 833.02 188.95 832.96 188.93 832.96 188.96 832.95 188.96 832.92 188.96 832.95 188.97 832.96 188.98 832.95 189 833.01 189" fill="#a97f2c"/><polygon points="899.69 325.4 899.72 325.4 915.64 295.94 915.6 295.95 899.69 325.4" fill="#a97f2c"/><polygon points="1042.52 426.67 1042.47 426.7 1052.63 447.2 1026.57 436.43 1026.52 436.46 1052.75 447.31 1042.52 426.67" fill="#a97f2c"/><polygon points="997.85 336.55 973.16 286.74 973.11 286.75 997.82 336.6 997.85 336.55" fill="#a97f2c"/><polygon points="947.96 236.01 915.63 295.88 915.67 295.88 948 236.07 973.08 286.69 973.13 286.68 948.03 236.04 947.97 236.02 947.97 236.02 947.96 236.01" fill="#a97f2c"/><polygon points="873.82 373.3 981.58 417.87 981.58 417.84 873.83 373.3 899.71 325.42 899.68 325.42 873.82 373.3" fill="#a97f2c"/><polygon points="1026.49 436.4 981.63 417.86 981.63 417.89 1026.44 436.43 1026.49 436.4" fill="#a97f2c"/><polygon points="1042.49 426.61 1007.99 357 1007.89 356.92 1042.44 426.64 1042.49 426.61" fill="#a97f2c"/><polygon points="997.89 336.64 997.86 336.69 1007.86 356.87 1007.96 356.95 997.89 336.64" fill="#a97f2c"/><polygon points="1042.47 426.7 1042.52 426.67 1042.49 426.61 1042.44 426.64 1042.47 426.7" fill="#a97f2c"/><polygon points="1026.52 436.46 1026.57 436.43 1026.49 436.4 1026.44 436.43 1026.52 436.46" fill="#a97f2c"/><polygon points="981.63 417.89 981.63 417.86 981.58 417.84 981.58 417.87 981.63 417.89" fill="#a97f2c"/><polygon points="1007.89 356.92 1007.99 357 1007.96 356.95 1007.86 356.87 1007.89 356.92" fill="#a97f2c"/><polygon points="997.86 336.69 997.89 336.64 997.85 336.55 997.82 336.6 997.86 336.69" fill="#a97f2c"/><polygon points="973.11 286.75 973.16 286.74 973.13 286.68 973.08 286.69 973.11 286.75" fill="#a97f2c"/><polygon points="915.64 295.94 915.67 295.88 915.63 295.88 915.6 295.95 915.64 295.94" fill="#a97f2c"/><polygon points="899.71 325.42 899.72 325.4 899.69 325.4 899.68 325.42 899.71 325.42" fill="#a97f2c"/><polygon points="1052.73 447.25 1044.73 431.1 1052.76 447.32 1052.76 447.32 1052.76 447.32 1052.76 447.3 1052.78 447.27 1052.73 447.25" fill="#a97f2c"/><polygon points="873.83 373.31 873.83 373.3 873.82 373.3 873.83 373.31" fill="#a97f2c"/><rect x="1052.76" y="447.33" width="0.02" transform="translate(202.93 1212.97) rotate(-65.04)" fill="#a97f2c"/><polygon points="968.51 469.28 966.2 466.93 966.12 466.91 968.46 469.28 968.51 469.28" fill="#a97f2c"/><polygon points="981.93 482.88 970.17 470.96 970.14 470.99 981.88 482.9 981.93 482.88" fill="#a97f2c"/><polygon points="970.15 470.94 968.53 469.3 968.48 469.3 970.11 470.96 970.15 470.94" fill="#a97f2c"/><polygon points="981.57 417.91 981.58 417.87 873.83 373.3 873.83 373.31 966.12 466.91 966.2 466.93 873.83 373.3 883.37 377.25 981.57 417.91" fill="#a97f2c"/><polygon points="1083.09 585.42 1062.46 491.46 1062.39 491.52 1082.97 585.29 1079 581.27 1081.41 583.85 1083 585.47 1083.03 585.58 1083.09 585.55 1083.11 585.57 1083.13 585.59 1083.12 585.56 1083.12 585.53 1083.17 585.5 1083.09 585.42" fill="#a97f2c"/><polygon points="1052.77 447.32 1052.77 447.32 1052.77 447.32 1052.76 447.33 1052.75 447.31 1026.52 436.46 1026.46 436.5 1052.71 447.37 1054.28 454.53 1054.34 454.51 1052.77 447.34 1052.77 447.32" fill="#a97f2c"/><polygon points="1062.44 491.36 1054.36 454.56 1054.29 454.59 1062.37 491.42 1062.44 491.36" fill="#a97f2c"/><polygon points="1025.95 527.49 981.97 482.92 981.92 482.94 1025.9 527.54 1025.95 527.49" fill="#a97f2c"/><polygon points="1026.44 436.43 981.63 417.89 981.62 417.93 1026.39 436.47 1026.44 436.43" fill="#a97f2c"/><polygon points="1077.47 579.73 1026 527.55 1025.95 527.6 1079.85 582.27 1077.47 579.73" fill="#a97f2c"/><polygon points="1054.28 454.53 1054.28 454.54 1054.35 454.52 1054.34 454.51 1054.28 454.53" fill="#a97f2c"/><polygon points="1054.36 454.56 1054.35 454.55 1054.29 454.58 1054.29 454.59 1054.36 454.56" fill="#a97f2c"/><rect x="981.88" y="482.89" width="0.05" transform="translate(-77.87 755.27) rotate(-40.6)" fill="#a97f2c"/><rect x="981.92" y="482.93" width="0.05" transform="translate(-28.11 903.91) rotate(-48.81)" fill="#a97f2c"/><polygon points="1054.29 454.58 1054.35 454.55 1054.35 454.52 1054.28 454.54 1054.29 454.58" fill="#a97f2c"/><polygon points="981.92 482.94 981.97 482.92 981.93 482.88 981.88 482.9 981.92 482.94" fill="#a97f2c"/><polygon points="1062.39 491.52 1062.46 491.46 1062.44 491.36 1062.37 491.42 1062.39 491.52" fill="#a97f2c"/><polygon points="1025.95 527.6 1026 527.55 1025.95 527.49 1025.9 527.54 1025.95 527.6" fill="#a97f2c"/><polygon points="1077.47 579.73 1079.85 582.27 1080.61 583.04 1078.21 580.47 1077.47 579.73" fill="#a97f2c"/><polygon points="1081.41 583.85 1079 581.27 1078.29 580.55 1080.67 583.1 1081.41 583.85" fill="#a97f2c"/><rect x="970.13" y="470.97" width="0.05" height="0.01" transform="translate(-56.31 801.72) rotate(-43.75)" fill="#a97f2c"/><polygon points="1080.61 583.04 1080.67 583.1 1078.29 580.55 1078.21 580.47 1080.61 583.04" fill="#a97f2c"/><rect x="970.11" y="470.95" width="0.05" height="0.01" transform="translate(-61.84 783.99) rotate(-42.77)" fill="#a97f2c"/><polygon points="1026.46 436.5 1026.52 436.46 1026.44 436.43 1026.39 436.47 1026.46 436.5" fill="#a97f2c"/><polygon points="981.62 417.93 981.63 417.89 981.58 417.87 981.57 417.91 981.62 417.93" fill="#a97f2c"/><polygon points="970.13 470.98 970.17 470.96 970.15 470.94 970.11 470.96 970.13 470.98" fill="#a97f2c"/><polygon points="968.48 469.3 968.53 469.3 968.51 469.28 968.46 469.28 968.48 469.3" fill="#a97f2c"/><rect x="966.16" y="466.88" height="0.08" transform="translate(286.46 1297.27) rotate(-76.49)" fill="#a97f2c"/><polygon points="1039.82 272.23 948.1 235.99 948.17 236.08 947.98 236.02 947.97 236.02 948.03 236.04 973.13 286.68 973.19 286.67 948.14 236.09 1039.77 272.28 1039.82 272.23" fill="#a97f2c"/><polygon points="1052.76 447.32 1044.73 431.1 1042.53 426.66 1042.52 426.67 1052.75 447.31 1052.76 447.33 1052.77 447.32 1071.57 423.69 1071.57 423.67 1052.76 447.32 1052.76 447.32" fill="#a97f2c"/><polygon points="948.06 235.93 948.06 235.94 948.06 235.93 948.06 235.93" fill="#a97f2c"/><polygon points="997.85 336.55 997.88 336.51 973.22 286.73 973.16 286.74 997.85 336.55" fill="#a97f2c"/><polygon points="1153.62 320.59 1153.61 320.51 1138.9 339.01 1138.95 339.03 1153.62 320.59" fill="#a97f2c"/><polygon points="1155.68 318 1155.67 318 1155.63 317.98 1155.63 317.98 1155.62 317.98 1153.33 317.07 1153.34 317.14 1155.59 318.03 1153.66 320.45 1153.67 320.53 1155.64 318.05 1155.65 318.05 1155.65 318.05 1155.67 318.01 1155.68 318" fill="#a97f2c"/><polygon points="1089.44 291.83 1039.86 272.24 1039.81 272.3 1089.42 291.89 1089.44 291.83" fill="#a97f2c"/><polygon points="1153.27 317.05 1089.49 291.85 1089.46 291.91 1153.28 317.12 1153.27 317.05" fill="#a97f2c"/><polygon points="1138.91 339.07 1138.86 339.06 1101.78 385.68 1101.88 385.61 1138.91 339.07" fill="#a97f2c"/><polygon points="1008.03 357.01 997.92 336.59 997.89 336.64 1007.96 356.95 1008.03 357.01" fill="#a97f2c"/><polygon points="1101.74 385.78 1101.64 385.86 1071.62 423.61 1071.62 423.63 1101.74 385.78" fill="#a97f2c"/><polygon points="1042.5 426.6 1008.06 357.06 1007.99 357 1042.49 426.61 1042.5 426.6" fill="#a97f2c"/><polygon points="1071.57 423.69 1071.62 423.63 1071.62 423.61 1071.57 423.67 1071.57 423.69" fill="#a97f2c"/><polygon points="1007.99 357 1008.06 357.06 1008.03 357.01 1007.96 356.95 1007.99 357" fill="#a97f2c"/><polygon points="1042.52 426.67 1042.53 426.66 1042.5 426.6 1042.49 426.61 1042.52 426.67" fill="#a97f2c"/><polygon points="1153.28 317.12 1153.34 317.14 1153.33 317.07 1153.27 317.05 1153.28 317.12" fill="#a97f2c"/><polygon points="1153.62 320.59 1153.67 320.53 1153.66 320.45 1153.61 320.51 1153.62 320.59" fill="#a97f2c"/><polygon points="1138.95 339.03 1138.9 339.01 1138.88 339.03 1138.93 339.05 1138.95 339.03" fill="#a97f2c"/><polygon points="1138.86 339.06 1138.91 339.07 1138.93 339.05 1138.88 339.04 1138.86 339.06" fill="#a97f2c"/><rect x="1138.9" y="339.01" width="0.01" height="0.05" transform="translate(161.22 1014.46) rotate(-51.22)" fill="#a97f2c"/><polygon points="1101.74 385.78 1101.88 385.61 1101.78 385.68 1101.64 385.86 1101.74 385.78" fill="#a97f2c"/><polygon points="1089.46 291.91 1089.49 291.85 1089.44 291.83 1089.42 291.89 1089.46 291.91" fill="#a97f2c"/><polygon points="1039.81 272.3 1039.86 272.24 1039.82 272.23 1039.77 272.28 1039.81 272.3" fill="#a97f2c"/><polygon points="997.89 336.64 997.92 336.59 997.88 336.51 997.85 336.55 997.89 336.64" fill="#a97f2c"/><polygon points="973.16 286.74 973.22 286.73 973.19 286.67 973.13 286.68 973.16 286.74" fill="#a97f2c"/><polygon points="848.8 96.83 806.5 144.97 848.76 96.89 848.81 96.86 848.8 96.84 848.8 96.84 848.8 96.83" fill="#a97f2c"/><polygon points="848.79 96.82 848.77 96.81 848.73 96.85 703.89 162.26 703.85 162.28 560.69 226.93 560.67 226.94 560.59 226.95 560.46 226.98 560.47 227.03 560.47 227.03 560.4 227.06 560.47 227.05 560.48 227.04 560.5 227.09 560.6 227.04 560.68 227.01 560.71 227 772.69 183.36 772.7 183.35 561 226.87 703.93 162.3 703.97 162.29 848.66 96.93 816.07 134.04 848.8 96.82 848.8 96.83 848.82 96.81 848.79 96.82" fill="#a97f2c"/><path d="M948.06,235.93h0l-.13-.18h0l-37.39-52.4h0l0,0-4.28-6-.05-.06L848.8,96.83h0L816.07,134l-43.33,49.27h0l0,0h0l.07,0,.13,0,.1,0h0l.2.06,59.6,17.91.08,0,114.52,34.41h0l.52.15h0l.19.06-.07-.09,0-.06Zm-.45-.1h0L832.91,201.39l-.08,0-59.4-17.83-.06,0-.35-.11h0l-.19-.06h0L806.5,145l42.3-48.14,57.3,80.38,0,.06,4.28,6,0,0h0l37.37,52.43h0l.13.18Z" fill="#a97f2c"/></g><g style="mix-blend-mode:overlay"><path d="M785.34,151.87a3.64,3.64,0,1,0,5.15,0A3.63,3.63,0,0,0,785.34,151.87Z" fill="#a97f2c"/><path d="M422.55,218.76a3.64,3.64,0,1,0,5.15,0A3.65,3.65,0,0,0,422.55,218.76Z" fill="#a97f2c"/><path d="M186.36,219.28a3.63,3.63,0,1,0,5.14,0A3.63,3.63,0,0,0,186.36,219.28Z" fill="#a97f2c"/><path d="M365.43,398.35a3.64,3.64,0,1,0,5.15,0A3.65,3.65,0,0,0,365.43,398.35Z" fill="#a97f2c"/><circle cx="421.52" cy="541.92" r="3.64" fill="#a97f2c"/><path d="M1038.75,489.75a3.64,3.64,0,1,0,5.11-.6A3.63,3.63,0,0,0,1038.75,489.75Z" fill="#a97f2c"/><path d="M911.13,240.69a3.64,3.64,0,1,0,5.11-.6A3.64,3.64,0,0,0,911.13,240.69Z" fill="#a97f2c"/><path d="M312.17,175.79a1.82,1.82,0,1,0,2.58,0A1.83,1.83,0,0,0,312.17,175.79Z" fill="#a97f2c"/><circle cx="368.52" cy="136.43" r="1.82" fill="#a97f2c"/><circle cx="291.85" cy="375.71" r="1.82" fill="#a97f2c"/><path d="M634.53,608.94a1.82,1.82,0,1,0,2.49-.67A1.83,1.83,0,0,0,634.53,608.94Z" fill="#a97f2c"/><path d="M959.24,417a1.82,1.82,0,0,0,3.15,1.82,1.82,1.82,0,1,0-3.15-1.82Z" fill="#a97f2c"/><path d="M854.78,473.09a1.82,1.82,0,1,0,2.48-.67A1.81,1.81,0,0,0,854.78,473.09Z" fill="#a97f2c"/><path d="M923.22,365.54a1.82,1.82,0,1,0,2.48-.67A1.81,1.81,0,0,0,923.22,365.54Z" fill="#a97f2c"/><path d="M1048.78,351.13a1.82,1.82,0,1,0,2.48-.67A1.83,1.83,0,0,0,1048.78,351.13Z" fill="#a97f2c"/><path d="M1169.42,372.45a3.49,3.49,0,1,0,4.76-1.28A3.49,3.49,0,0,0,1169.42,372.45Z" fill="#a97f2c"/><path d="M1020,290.41a1.82,1.82,0,1,0,2.49-.67A1.82,1.82,0,0,0,1020,290.41Z" fill="#a97f2c"/><path d="M187.13,481a1.82,1.82,0,1,0,2.57,0A1.82,1.82,0,0,0,187.13,481Z" fill="#a97f2c"/><path d="M294.68,529.83a1.82,1.82,0,1,0,2.57,0A1.82,1.82,0,0,0,294.68,529.83Z" fill="#a97f2c"/><path d="M57.45,318.33a1.82,1.82,0,1,0,2.58,0A1.83,1.83,0,0,0,57.45,318.33Z" fill="#a97f2c"/><path d="M359,263.79a1.82,1.82,0,1,0,2.58,0A1.82,1.82,0,0,0,359,263.79Z" fill="#a97f2c"/></g><circle cx="569.5" cy="426.33" r="6" fill="#a97f2c"/><circle cx="859" cy="385.83" r="6" fill="#a97f2c"/><circle cx="797" cy="467.83" r="6" fill="#a97f2c"/><circle cx="429" cy="344.83" r="6" fill="#a97f2c"/><circle cx="362" cy="223.83" r="6" fill="#a97f2c"/><circle cx="890" cy="227.83" r="6" fill="#a97f2c"/><circle cx="1133" cy="330.83" r="6" fill="#a97f2c"/><path d="M1200,604.83v-12a6,6,0,0,0,0,12Z" fill="#a97f2c"/><circle cx="211" cy="406.83" r="6" fill="#a97f2c"/><circle cx="6" cy="583.83" r="6" transform="translate(-93.44 8.5) rotate(-9.22)" fill="#a97f2c"/><circle cx="618" cy="536.83" r="2.83" fill="#a97f2c"/><circle cx="743" cy="372.83" r="2.83" fill="#a97f2c"/><circle cx="982" cy="401.83" r="2.83" fill="#a97f2c"/><circle cx="1190" cy="2.83" r="2.83" fill="#a97f2c"/><circle cx="294" cy="456.83" r="2.83" fill="#a97f2c"/><circle cx="432.86" cy="424.18" r="2.83" fill="#a97f2c"/><circle cx="491" cy="257.83" r="2.83" fill="#a97f2c"/><circle cx="552" cy="164.83" r="2.83" fill="#a97f2c"/><circle cx="705" cy="284.83" r="2.83" fill="#a97f2c"/><circle cx="784" cy="185.83" r="2.83" fill="#a97f2c"/><circle cx="347" cy="521.83" r="2.83" fill="#a97f2c"/><circle cx="106" cy="343.83" r="2.83" fill="#a97f2c"/><circle cx="94" cy="243.83" r="2" fill="#a97f2c"/><circle cx="12" cy="274.83" r="2" fill="#a97f2c"/><circle cx="137" cy="194.83" r="2" fill="#a97f2c"/><circle cx="5" cy="81.83" r="2" fill="#a97f2c"/><circle cx="185" cy="268.83" r="2.83" fill="#a97f2c"/></g></svg>