<svg xmlns="http://www.w3.org/2000/svg" viewBox="0 0 300 156.86"><g style="isolation:isolate"><g opacity="0.6" style="mix-blend-mode:overlay"><polygon points="86.47 130.42 86.49 130.4 86.41 130.31 2.11 145.67 1.61 145.89 86.47 130.42" fill="#fff"/><rect x="73.48" y="114.24" width="0.01" height="0.01" transform="translate(-39.49 38.83) rotate(-23.53)" fill="#fff"/><polygon points="86.72 130.35 86.71 130.34 86.7 130.35 86.72 130.35" fill="#fff"/><polygon points="73.34 114.31 1.96 145.51 1.75 145.69 73.34 114.31 73.34 114.31" fill="#fff"/><polygon points="1.34 145.88 1.39 145.76 0.74 146.04 1.26 145.95 1.34 145.88" fill="#fff"/><polygon points="1.56 145.69 1.56 145.69 1.55 145.69 1.56 145.69" fill="#fff"/><polygon points="86.63 130.24 73.59 114.35 73.59 114.35 86.57 130.31 86.63 130.24" fill="#fff"/><polygon points="1.96 145.51 46.35 107.29 1.75 145.69 1.75 145.69 1.96 145.51" fill="#fff"/><polygon points="52.53 101.8 1.56 145.69 1.55 145.69 1.56 145.69 26.45 86.16 26.43 86.14 26.38 86.19 26.37 86.1 26.35 86.09 1.39 145.76 1.34 145.88 52.53 101.8 52.53 101.8" fill="#fff"/><polygon points="1.24 146.13 1.43 145.97 1.42 145.97 1.28 146.03 1.24 146.13" fill="#fff"/><polygon points="52.53 101.8 1.34 145.88 1.26 145.95 1.04 146.14 1.28 146.03 1.42 145.97 1.43 145.97 1.61 145.89 2.11 145.67 73.46 114.39 73.44 114.36 52.7 101.83 73.34 114.31 1.75 145.69 1.75 145.69 46.35 107.29 52.64 101.87 52.64 101.83 52.51 101.87 52.56 101.8 52.53 101.8" fill="#fff"/><polygon points="73.49 114.25 73.48 114.25 52.94 101.83 73.49 114.25 73.49 114.25" fill="#fff"/><polygon points="26.53 86.05 26.53 86.05 27.18 85.43 26.53 86.05" fill="#fff"/><polygon points="52.6 101.63 40.39 94.33 26.53 86.05 26.49 86.08 26.5 86.18 52.53 101.73 52.53 101.73 52.43 101.67 52.61 101.68 52.6 101.63" fill="#fff"/><polygon points="52.6 101.63 50.95 92.57 52.6 101.63 52.6 101.63" fill="#fff"/><polygon points="50.95 92.57 46.33 67.2 27.18 85.43 46.33 67.2 50.95 92.57" fill="#fff"/><polygon points="46.45 67.17 46.45 67.17 52.72 101.61 46.45 67.17" fill="#fff"/><polygon points="26.32 86.07 26.35 86.09 26.37 86.1 26.37 86.09 26.33 86.07 26.32 86.07" fill="#fff"/><rect x="22.71" y="76.52" width="27.29" transform="translate(-42.74 46.16) rotate(-43.59)" fill="#fff"/><polygon points="46.41 66.95 46.38 66.98 46.39 67.01 46.41 67 46.41 66.95" fill="#fff"/><polygon points="108.08 105.91 78.47 103.65 108.08 105.91 108.08 105.91" fill="#fff"/><polygon points="107.97 106.08 107.97 106.08 107.97 106.08 107.97 106.08" fill="#fff"/><polygon points="52.53 101.73 52.61 101.71 52.61 101.68 52.43 101.67 52.53 101.73" fill="#fff"/><polygon points="52.94 101.83 52.71 101.82 52.7 101.83 73.44 114.36 73.43 114.36 73.37 114.28 73.49 114.25 52.94 101.83" fill="#fff"/><polygon points="107.97 106.08 107.97 106.08 78.31 113.22 107.97 106.08" fill="#fff"/><polygon points="108.29 105.92 108.33 105.87 108.21 105.9 108.21 105.92 108.29 105.92" fill="#fff"/><polygon points="78.31 113.22 107.97 106.08 108.02 106.03 107.75 106.01 73.5 114.25 73.49 114.25 73.49 114.25 73.37 114.28 73.43 114.36 73.48 114.32 73.43 114.36 73.44 114.36 73.46 114.39 86.41 130.31 86.49 130.4 86.57 130.31 73.59 114.35 73.59 114.35 78.31 113.22" fill="#fff"/><polygon points="86.57 130.5 86.6 130.47 86.57 130.47 86.54 130.47 86.57 130.5" fill="#fff"/><polygon points="154.38 134.21 154.52 134.22 154.42 134.15 154.36 134.17 154.38 134.21" fill="#fff"/><polygon points="108.16 106.06 108.13 106.04 108.09 106.04 108.09 106.04 108.02 106.03 107.97 106.08 107.97 106.08 86.63 130.24 86.57 130.31 86.49 130.4 86.47 130.42 86.44 130.46 86.54 130.47 86.57 130.47 86.57 130.4 86.57 130.47 86.6 130.47 154.24 134.2 154.23 134.18 154.03 134.06 86.72 130.35 86.7 130.35 86.71 130.34 108.16 106.06" fill="#fff"/><polygon points="154.3 134.2 154.27 134.21 154.41 134.29 154.38 134.21 154.36 134.17 154.3 134.2" fill="#fff"/><polygon points="108.13 106.04 108.16 106.06 154.03 134.06 154.23 134.18 154.14 133.98 121.57 114.1 108.38 106.04 108.22 106.04 108.22 106.05 108.15 106.04 108.13 106.04" fill="#fff"/><polygon points="145.93 115.06 154.14 133.98 154.14 133.98 145.93 115.06" fill="#fff"/><polygon points="196.7 116.46 199.11 116.89 199.11 116.89 196.7 116.46" fill="#fff"/><polygon points="199.53 116.86 199.57 116.85 199.45 116.82 199.44 116.84 199.53 116.86" fill="#fff"/><polygon points="199.22 116.78 152.64 108.38 199.22 116.78 199.22 116.78" fill="#fff"/><polygon points="142.31 106.65 142.28 106.65 142.28 106.64 142.28 106.64 145.93 115.06 154.23 134.18 154.24 134.2 154.24 134.22 154.27 134.21 154.3 134.2 154.36 134.17 154.42 134.15 199.31 116.95 199.3 116.92 199.11 116.89 154.31 134.06 142.45 106.73 142.31 106.65" fill="#fff"/><polygon points="26.47 86.11 26.43 86.14 26.45 86.16 26.51 86.2 26.5 86.18 26.49 86.08 26.47 86.11" fill="#fff"/><path d="M23.3,60.93,2.93,68.61l.09.07,0-.05,0,.05L26.33,86.07l0,0L23.33,61h0l0,0Zm0,.12,3,24.87L3.19,68.65Z" fill="#fff"/><path d="M23.41,61l0,0,0,0h0l3,25.08h0v.09l.05,0,0,0,0,0L46.33,67.21l0-.08-.07,0L26.47,85.93h0l-3-24.88Zm3.08,25h0Z" fill="#fff"/><polygon points="23.5 60.93 23.5 60.93 46.23 66.98 23.5 60.93" fill="#fff"/><polygon points="52.72 101.81 52.71 101.82 52.94 101.83 107.75 106.01 108.02 106.03 108.09 106.04 108.08 105.91 78.47 103.65 53.03 101.72 52.72 101.81" fill="#fff"/><rect x="108.15" y="106.04" width="0.07" transform="translate(-4.62 4.92) rotate(-2.55)" fill="#fff"/><polygon points="52.53 101.73 52.34 101.79 52.53 101.8 52.53 101.8 52.56 101.8 52.62 101.73 52.61 101.71 52.53 101.73 52.53 101.73" fill="#fff"/><polygon points="107.09 85.9 57.33 100.34 107.09 85.9 107.09 85.9" fill="#fff"/><polygon points="108.09 106.04 108.09 106.04 108.13 106.04 108.15 106.04 108.15 106.04 108.15 105.98 108.21 105.97 108.21 105.97 108.21 105.97 108.15 105.98 108.15 106.04 108.22 106.04 108.38 106.04 142.28 106.64 142.28 106.64 142.27 106.63 142.05 106.59 142.16 106.56 142.08 106.51 108.29 105.92 108.21 105.92 108.21 105.9 107.25 86.05 107.2 86.02 107.18 86.05 107.15 86.01 107.13 86.02 108.08 105.91 108.08 105.91 108.09 106.04" fill="#fff"/><polygon points="142.18 106.42 107.28 85.92 142.18 106.42 142.18 106.42" fill="#fff"/><polygon points="142.08 106.51 142.16 106.56 142.23 106.54 142.18 106.42 107.28 85.92 107.26 85.94 107.28 85.98 107.22 85.99 107.2 86.02 107.25 86.05 142.08 106.51" fill="#fff"/><polygon points="142.31 106.65 142.45 106.73 142.46 106.73 142.42 106.66 142.32 106.64 142.31 106.65" fill="#fff"/><polygon points="107.19 85.82 107.19 85.82 122.69 64.45 107.19 85.82" fill="#fff"/><polygon points="142.28 106.64 142.28 106.65 142.31 106.65 142.32 106.64 142.31 106.64 142.27 106.63 142.28 106.64" fill="#fff"/><polygon points="142.35 106.5 122.94 64.56 122.81 64.56 124.28 67.73 142.18 106.42 142.18 106.42 142.23 106.54 172.09 97.38 142.35 106.5" fill="#fff"/><polygon points="122.78 64.33 122.78 64.32 122.68 64.27 122.69 64.31 122.78 64.33" fill="#fff"/><polygon points="197.25 113.36 185.73 93.31 185.73 93.31 185.72 93.3 185.59 93.24 172.09 97.38 142.23 106.54 142.16 106.56 142.05 106.59 142.27 106.63 142.31 106.64 142.32 106.58 142.31 106.64 142.32 106.64 142.42 106.66 196.7 116.46 199.3 116.92 199.3 116.92 199.24 116.9 199.27 116.86 199.22 116.78 152.64 108.38 142.58 106.56 185.74 93.33 197.25 113.36" fill="#fff"/><polygon points="185.88 93.33 185.88 93.33 199.35 116.75 185.88 93.33" fill="#fff"/><polygon points="34.36 48.44 20.36 36.58 34.36 48.44 34.36 48.44" fill="#fff"/><polygon points="34.28 48.53 34.28 48.53 26.44 57.42 34.28 48.53" fill="#fff"/><polygon points="34.28 48.53 34.28 48.53 34.28 48.53 34.28 48.53" fill="#fff"/><polygon points="23.41 61.03 23.37 61.02 23.35 61.02 23.38 61.07 23.41 61.03" fill="#fff"/><polygon points="1.13 20.3 1.21 20.44 1.38 20.51 1.13 20.3" fill="#fff"/><polygon points="23.31 60.95 23.4 60.85 1.56 20.82 1.3 20.61 1.29 20.6 23.3 60.93 23.31 60.95" fill="#fff"/><polygon points="46.45 67.17 46.45 67.17 46.51 67.18 46.47 67.12 46.44 67.13 46.45 67.17" fill="#fff"/><path d="M34.28,48.53l-7.84,8.89-3,3.43-.09.1,0,0h.09l0-.06,0,.06h0l.05,0,22.78,6.06h0l.07,0v0l-12-18.53ZM46.23,67,23.5,60.93h0l10.86-12.3Z" fill="#fff"/><polygon points="34.38 48.42 34.36 48.44 34.36 48.44 34.39 48.47 34.4 48.47 34.38 48.42" fill="#fff"/><polygon points="46.39 67.01 46.38 66.98 36.2 51.24 46.39 67.01 46.39 67.01" fill="#fff"/><polygon points="222.69 56.85 222.5 56.87 222.57 56.9 222.63 56.88 222.63 56.9 222.69 56.85" fill="#fff"/><polygon points="122.69 64.45 122.7 64.44 122.42 64.37 122.19 64.39 122.69 64.45" fill="#fff"/><polygon points="222.2 56.89 124.07 64.24 123.48 64.39 222.34 56.95 222.2 56.89" fill="#fff"/><polygon points="223.12 56.82 222.92 56.84 222.81 56.92 223.12 56.82" fill="#fff"/><polygon points="122.91 64.35 123.04 64.37 123.32 64.3 122.93 64.33 122.91 64.35" fill="#fff"/><polygon points="176.06 71.22 221.91 57.1 221.75 57.12 176.06 71.22 176.06 71.22" fill="#fff"/><polygon points="176.01 71.34 123.3 64.53 176.01 71.34 176.01 71.34" fill="#fff"/><polygon points="222.88 57.03 222.89 57.03 222.74 56.97 222.74 56.97 222.88 57.03" fill="#fff"/><polygon points="123.3 64.53 123.2 64.52 123.24 64.53 123.3 64.53" fill="#fff"/><polygon points="122.81 64.56 122.94 64.56 122.98 64.55 122.83 64.48 122.76 64.57 122.81 64.56" fill="#fff"/><path d="M221.74,57.12l.17,0,.6-.18,0-.05L196.1,46.39,123.32,64.3l-.28.07.87.11Zm-97.67,7.12,72-17.72L222.2,56.89l.14,0-98.86,7.45Z" fill="#fff"/><polygon points="176.2 71.45 176.2 71.45 185.81 93.19 176.2 71.45" fill="#fff"/><polygon points="122.86 64.44 122.83 64.47 122.83 64.47 122.83 64.48 122.98 64.55 185.59 93.24 185.72 93.3 185.71 93.28 185.66 93.18 185.67 93.18 179.13 78.38 185.65 93.13 171.04 86.44 123.24 64.53 123.2 64.52 123.3 64.53 176.01 71.34 176 71.33 175.91 71.26 175.97 71.25 175.95 71.21 123.91 64.48 123.04 64.37 122.91 64.35 122.91 64.36 122.91 64.36 122.86 64.44 122.86 64.44" fill="#fff"/><polygon points="90.72 55.99 90.77 55.98 90.66 55.96 90.65 55.98 90.72 55.99" fill="#fff"/><polygon points="88.11 55.62 34.4 48.47 34.39 48.47 34.39 48.47 88.23 55.67 88.11 55.62" fill="#fff"/><polygon points="36.2 51.24 34.49 48.6 34.34 48.58 34.32 48.57 46.31 67.1 46.3 67.09 46.29 67.03 46.39 67.01 36.2 51.24" fill="#fff"/><polygon points="46.47 67.12 46.44 67.13 51.2 65.93 46.47 67.12" fill="#fff"/><polygon points="90.42 55.93 88.6 55.69 89.07 55.88 90.2 56.03 90.44 55.97 90.42 55.93" fill="#fff"/><polygon points="90.32 56.13 51.2 65.93 90.32 56.13 90.32 56.13" fill="#fff"/><polygon points="90.65 55.98 90.66 55.96 90.71 55.9 90.57 55.94 90.58 55.96 90.65 55.98" fill="#fff"/><polygon points="90.46 56 90.44 55.97 90.2 56.03 46.41 67 46.39 67.01 46.39 67.01 46.29 67.03 46.3 67.09 46.37 67.08 46.3 67.09 46.31 67.1 46.31 67.13 46.33 67.2 52.61 101.68 52.61 101.71 52.62 101.73 86.77 60.46 52.72 101.61 46.45 67.17 46.44 67.13 90.32 56.13 90.31 56.12 90.38 56.1 90.46 56" fill="#fff"/><polygon points="52.64 101.87 52.65 101.89 52.7 101.83 52.71 101.82 52.72 101.81 52.7 101.81 52.64 101.83 52.64 101.87" fill="#fff"/><polygon points="86.77 60.46 52.62 101.73 52.56 101.8 52.51 101.87 52.64 101.83 52.7 101.81 52.72 101.81 53.03 101.72 107.13 86.02 107.15 86.01 90.56 56.19 90.56 56.19 107.09 85.9 57.33 100.34 52.86 101.63 90.48 56.17 90.35 56.14 86.77 60.46" fill="#fff"/><polygon points="107.22 85.99 107.28 85.98 107.26 85.94 107.23 85.97 107.22 85.99" fill="#fff"/><polygon points="90.57 55.94 90.55 55.9 90.51 55.94 90.58 55.96 90.57 55.94" fill="#fff"/><polygon points="90.46 56 90.38 56.1 90.5 56.06 90.46 56" fill="#fff"/><path d="M107.18,86.05l0,0,0,0v0l0,0v0l15.49-21.35.07-.09h0l-.13,0h0l-15.5,21.37h0L90.73,56.23l-.17,0L107.15,86Zm.06-.14-.06,0Z" fill="#fff"/><polygon points="122.91 64.36 122.91 64.36 122.86 64.44 122.91 64.36" fill="#fff"/><polygon points="90.58 55.96 90.51 55.94 90.41 55.91 90.42 55.93 90.44 55.97 90.46 56 90.5 56.06 90.72 55.99 90.65 55.98 90.58 55.96" fill="#fff"/><polygon points="122.78 64.33 122.69 64.31 90.95 56.05 90.76 56.11 122.78 64.33 122.78 64.33" fill="#fff"/><path d="M1.38,20.51l-.17-.07L1,20.36l.29.24h0l0-.05,0,.06,0-.06,0,.05.26.22,32.72,27.7h0l0,0h0l.15,0L89.2,55.93l-.13,0-.47-.19Zm33,28,0,0-14-11.86L1.68,20.76,88.11,55.62l.12.05Z" fill="#fff"/><polygon points="185.72 93.3 185.73 93.31 185.73 93.31 185.72 93.28 185.71 93.28 185.72 93.3" fill="#fff"/><polygon points="185.81 93.19 176.2 71.45 176.02 71.34 176 71.33 176.01 71.34 176.01 71.34 179.13 78.38 185.67 93.18 212.49 95.83 185.81 93.19" fill="#fff"/><polygon points="214.44 96.15 191.92 93.92 214.44 96.15 214.44 96.15" fill="#fff"/><polygon points="176.06 71.22 175.91 71.12 175.95 71.21 175.97 71.25 176.06 71.22 176.06 71.22" fill="#fff"/><path d="M222.59,57.08l0,0-.08,0,0,0,0,0-.6.18L176.06,71.22l-.09,0h-.06l.09.07h0l0-.06,0,.06.18.11h0L214.28,96l.24,0,0,0,0,0h.06ZM214.51,96l-16-10.34L176.2,71.3l46.27-14.24Z" fill="#fff"/><polygon points="222.63 56.9 222.63 56.88 222.57 56.9 222.61 56.91 222.63 56.9" fill="#fff"/><polygon points="214.57 96.04 214.66 96.05 214.67 96.05 214.63 96.04 214.57 96.04 214.57 96.04" fill="#fff"/><polygon points="199.3 116.92 199.31 116.95 199.34 116.98 199.37 116.94 199.32 116.93 199.3 116.92 199.3 116.92" fill="#fff"/><path d="M214.3,96l-1.81-.18-26.82-2.65h0l.05.1h0l.05,0v0l-.05,0v0l11.52,20,2,3.42h0l.05.08,15.19-20.75Zm-28.42-2.68h0l6,.59,22.52,2.23-15.09,20.6Z" fill="#fff"/><polygon points="199.45 116.82 205.95 107.95 199.44 116.84 199.44 116.84 199.45 116.82" fill="#fff"/><polygon points="199.27 116.86 199.24 116.9 199.3 116.92 199.32 116.93 199.34 116.87 199.32 116.93 199.37 116.94 299.39 149.73 299.29 149.64 299.05 149.49 199.53 116.86 199.44 116.84 199.44 116.84 205.95 107.95 214.57 96.18 214.59 96.2 297.49 148.5 214.46 96.11 199.27 116.86" fill="#fff"/><polygon points="299.98 149.92 299.58 149.67 299.61 149.8 299.98 149.92" fill="#fff"/><rect x="256.8" y="73.06" height="99.23" transform="translate(16.01 274.39) rotate(-57.75)" fill="#fff"/><polygon points="214.54 96.01 214.52 96.03 214.57 96.04 214.57 96.04 214.54 96.01" fill="#fff"/><path d="M90.72,56l-.23.07-.11,0-.07,0h0l.13,0,.08,0h0l.17,0,31.69,8.14.28.07.13,0h0l0,0,0-.08h0l0,0L138.16,41.1,90.77,56ZM122.8,64.4l0-.06Zm15.07-23.07-15.09,23h0l-32-8.22.19-.06Z" fill="#fff"/><polygon points="214.66 96.05 214.57 96.04 214.52 96.03 214.28 96 214.27 95.99 214.29 96.01 214.46 96.11 297.49 148.5 299.05 149.49 299.29 149.64 298.76 149.16 214.83 96.2 245.36 100.63 282.35 134.21 245.46 100.6 245.44 100.61 245.42 100.57 245.36 100.51 245.37 100.5 214.66 96.05" fill="#fff"/><polygon points="299.42 149.53 282.47 134.15 299.43 149.6 299.42 149.53" fill="#fff"/><polygon points="222.75 57.11 251.92 69.46 222.75 57.11 222.75 57.11" fill="#fff"/><polygon points="222.57 57.03 222.59 57.08 245.38 100.5 245.5 100.45 222.75 57.11 222.59 57.04 222.57 57.03" fill="#fff"/><polygon points="283.35 82.7 283.43 82.67 283.35 82.63 283.34 82.67 283.35 82.7" fill="#fff"/><polygon points="283.12 82.67 251.92 69.46 283.12 82.67 276.35 85.87 283.12 82.67" fill="#fff"/><polygon points="245.46 100.6 245.42 100.57 245.44 100.61 245.46 100.6" fill="#fff"/><polygon points="222.88 57.03 222.74 56.97 222.74 56.97 266.11 75.34 222.88 57.03" fill="#fff"/><polygon points="222.57 56.9 222.5 56.87 222.48 56.86 222.48 56.87 222.51 56.92 222.54 56.97 222.61 56.91 222.57 56.9" fill="#fff"/><path d="M222.63,56.9h0l-.07.06,0,0,.08,0h0l0,0,0,0,60.53,25.63.13-.06.07,0,0,.09v0L297.52.52,222.69,56.85Zm.11.07h0l.07,0,.11-.08,74.42-56L283.23,82.58l-17.12-7.24L222.74,57Z" fill="#fff"/><path d="M283.35,82.71v0l0-.09-.07,0-.13.06-6.77,3.2L245.5,100.45l-.12,0h0l.06.06,0,0,36.89,33.61,16.41,14.94h0l.53.48.1.09.26.24,0-.17,0-.13Zm-.08,0-.06,0Zm-.8,51.48-36.89-33.61,1.89-.89,35.76-16.89,16.18,66.77,0,.07Z" fill="#fff"/></g><g opacity="0.6" style="mix-blend-mode:overlay"><rect x="263.41" y="112.7" width="5.15" transform="translate(-8.18 21.7) rotate(-4.6)" fill="#fff"/><rect x="263.41" y="112.69" width="5.15" transform="translate(-18.53 62.7) rotate(-12.99)" fill="#fff"/><polygon points="271.37 147.05 282.35 106.3 282.33 106.32 271.36 147 271.37 147.05 271.37 147.05" fill="#fff"/><polygon points="282.33 106.28 268.4 111.74 268.4 111.75 282.32 106.29 282.33 106.28" fill="#fff"/><polygon points="282.3 106.31 282.31 106.3 268.4 111.75 268.4 111.76 282.3 106.31" fill="#fff"/><polygon points="282.36 106.29 282.36 106.27 282.34 106.28 282.34 106.28 282.35 106.28 282.35 106.28 282.35 106.28 282.35 106.29 282.36 106.29" fill="#fff"/><polygon points="245.48 120.73 245.48 120.73 243.97 121.33 245.48 120.73" fill="#fff"/><rect x="245.46" y="120.55" width="0.98" transform="translate(-13.2 209.22) rotate(-45)" fill="#fff"/><rect x="245.78" y="117.01" width="18.43" transform="translate(-18.73 55.46) rotate(-11.98)" fill="#fff"/><polygon points="244.11 121.26 245.47 120.73 245.47 120.72 244.11 121.26" fill="#fff"/><rect x="245.45" y="120.54" width="0.98" transform="translate(-13.2 209.21) rotate(-45)" fill="#fff"/><rect x="245.77" y="117" width="18.43" transform="translate(-25.11 101.1) rotate(-21.4)" fill="#fff"/><polygon points="268.4 111.75 282.31 106.3 282.32 106.29 268.4 111.75 268.4 111.75" fill="#fff"/><rect x="282.35" y="106.28" transform="translate(7.9 231.56) rotate(-45.16)" fill="#fff"/><rect x="263.41" y="112.69" width="5.15" height="0.01" transform="translate(-22.78 104.81) rotate(-21.4)" fill="#fff"/><polygon points="263.57 113.64 263.57 113.64 246.41 120.36 246.41 120.37 263.57 113.64" fill="#fff"/><polygon points="224.39 128.99 224.32 129.03 224.32 129.03 243.97 121.33 245.48 120.73 245.47 120.73 244.11 121.26 224.39 128.99" fill="#fff"/><polygon points="245.48 120.72 245.49 120.73 246.41 120.37 246.4 120.36 245.48 120.72" fill="#fff"/><polygon points="256.49 131.9 256.47 131.89 249.59 138.71 249.6 138.71 256.49 131.9" fill="#fff"/><polygon points="265.61 122.86 269.03 119.48 269.03 119.45 265.61 122.84 265.61 122.86" fill="#fff"/><polygon points="282.35 106.28 282.34 106.28 282.34 106.28 282.33 106.28 282.32 106.29 282.31 106.3 282.3 106.31 269.04 119.44 269.05 119.47 282.33 106.32 282.35 106.3 282.36 106.29 282.35 106.29 282.35 106.28 282.35 106.28" fill="#fff"/><polygon points="237.46 150.71 237.47 150.72 237.47 150.73 249.6 138.72 249.58 138.71 237.46 150.71" fill="#fff"/><polygon points="237.44 150.73 214.24 151.28 237.45 150.73 237.44 150.73" fill="#fff"/><polygon points="256.85 131.54 256.84 131.53 256.49 131.87 256.5 131.89 256.85 131.54" fill="#fff"/><polygon points="213.95 151.28 237.43 150.72 237.43 150.72 213.95 151.28" fill="#fff"/><polygon points="265.6 122.88 265.59 122.86 256.84 131.52 256.86 131.53 265.6 122.88" fill="#fff"/><polygon points="271.37 147.07 271.37 147.05 271.37 147.05 271.36 147 269.05 119.47 269.04 119.44 268.4 111.76 268.4 111.75 268.4 111.75 268.4 111.74 267.91 105.91 267.89 105.92 268.38 111.75 268.38 111.75 268.38 111.76 268.38 111.76 269.03 119.45 269.03 119.48 271.35 147.03 270.35 145.96 270.17 145.78 271.36 147.05 271.36 147.05 271.35 147.05 271.35 147.06 271.37 147.07" fill="#fff"/><polygon points="270.15 145.76 269.96 145.57 271.34 147.04 271.35 147.04 271.36 147.04 270.15 145.76" fill="#fff"/><polygon points="267.61 102.39 267.61 102.39 267.6 102.4 267.89 105.92 267.9 105.9 267.61 102.39" fill="#fff"/><polygon points="269.75 145.32 256.86 131.53 256.84 131.52 248.09 122.15 269.57 145.14 269.75 145.32" fill="#fff"/><polygon points="256.84 131.53 256.85 131.54 269.37 144.93 269.55 145.12 247.18 121.19 256.84 131.53" fill="#fff"/><polygon points="236.58 121.42 242.53 117.74 242.53 117.74 236.58 121.42" fill="#fff"/><polygon points="224.32 129.03 224.31 129.03 224.31 129.03 224.32 129.04 249.58 138.71 249.6 138.72 271.35 147.05 271.36 147.05 271.36 147.05 270.17 145.78 270.15 145.76 271.36 147.04 271.35 147.04 271.34 147.04 249.6 138.71 249.59 138.71 224.32 129.03 224.32 129.03" fill="#fff"/><polygon points="246.41 120.37 246.41 120.37 247.18 121.19 269.55 145.12 269.57 145.14 248.09 122.15 246.42 120.37 246.41 120.37 246.41 120.36 246.41 120.36 243.44 117.19 243.44 117.19 243.44 117.19 246.4 120.36 246.4 120.36 246.41 120.37" fill="#fff"/><polygon points="242.53 117.75 242.53 117.75 236.24 121.65 242.53 117.75" fill="#fff"/><polygon points="242.54 117.73 242.54 117.73 243.42 117.19 243.42 117.19 243.42 117.19 242.54 117.73" fill="#fff"/><rect x="242.47" y="117.47" width="1.04" transform="translate(-25.45 145.49) rotate(-31.76)" fill="#fff"/><polygon points="256.64 109.11 260.62 106.67 260.61 106.66 256.62 109.1 256.64 109.11" fill="#fff"/><polygon points="243.43 117.18 243.43 117.18 243.43 117.18 243.43 117.18" fill="#fff"/><polygon points="260.63 106.67 267.59 102.4 267.6 102.39 267.6 102.38 267.59 102.39 260.63 106.65 260.63 106.67" fill="#fff"/><polygon points="267.6 102.38 252.01 89.25 252.01 89.27 267.6 102.38 267.6 102.38" fill="#fff"/><polygon points="243.42 117.19 243.42 117.2 243.42 117.2 243.44 117.19 243.44 117.19 243.44 117.19 256.62 109.12 256.6 109.12 243.44 117.17 245.41 104.48 245.39 104.48 243.43 117.18 243.43 117.18 243.43 117.18 243.43 117.18 243.43 117.19 243.44 117.18 243.44 117.19 243.44 117.19 243.44 117.19 243.42 117.19" fill="#fff"/><polygon points="248.25 86.09 251.97 89.23 251.97 89.22 248.25 86.09 248.24 86.09 248.24 86.09 248.24 86.09 245.4 104.46 245.41 104.46 248.25 86.09" fill="#fff"/><polygon points="243.43 117.18 243.43 117.18 243.43 117.18 243.43 117.18" fill="#fff"/><polygon points="243.43 117.18 243.43 117.18 243.43 117.18 243.43 117.18" fill="#fff"/><polygon points="243.44 117.18 243.43 117.19 243.44 117.19 243.44 117.18" fill="#fff"/><polygon points="243.42 117.19 242.54 117.73 242.54 117.74 243.42 117.19 243.44 117.19 243.42 117.19 243.42 117.19" fill="#fff"/><polygon points="224.31 129.03 224.32 129.03 224.39 128.99 236.24 121.65 242.53 117.75 242.53 117.74 236.58 121.42 224.3 129.02 191.48 122.67 191.48 122.67 223.52 128.88 224.28 129.02 224.28 129.02 224.3 129.03 224.31 129.03" fill="#fff"/><polygon points="191.46 122.67 191.47 122.68 224.29 129.03 224.28 129.02 223.52 128.88 191.46 122.67" fill="#fff"/><polygon points="191.46 122.67 191.46 122.67 223.52 128.88 191.48 122.67 191.46 122.67" fill="#fff"/><polygon points="223.52 128.88 224.28 129.02 224.28 129.02 223.52 128.88" fill="#fff"/><polygon points="192.75 123.47 237.43 150.72 237.43 150.72 237.44 150.72 237.45 150.72 192.75 123.47" fill="#fff"/><polygon points="237.45 150.74 237.49 150.76 237.47 150.73 237.47 150.72 237.46 150.71 224.32 129.04 224.31 129.03 224.31 129.03 224.3 129.03 224.28 129.02 224.29 129.03 224.29 129.04 237.43 150.7 192.76 123.47 237.46 150.73 237.46 150.73 237.44 150.73 237.45 150.73 237.45 150.74" fill="#fff"/><polygon points="237.43 150.72 213.95 151.28 162.93 152.48 162.92 152.49 162.91 152.49 214.24 151.28 237.44 150.73 237.46 150.73 237.46 150.73 192.76 123.47 191.47 122.68 191.46 122.67 191.46 122.67 191.44 122.67 192.75 123.47 237.45 150.72 237.44 150.72 237.43 150.72" fill="#fff"/><rect x="162.9" y="152.48" width="0.01" height="0.01" transform="translate(-3.69 4.04) rotate(-1.4)" fill="#fff"/><polygon points="162.53 149.52 162.9 152.48 162.9 152.48 162.9 152.47 162.53 149.52" fill="#fff"/><polygon points="162.9 152.48 162.9 152.49 162.9 152.49 162.91 152.5 162.91 152.49 162.92 152.49 162.93 152.48 191.44 122.67 191.42 122.67 162.92 152.47 162.49 149.1 162.92 152.49 162.91 152.48 162.9 152.48 162.9 152.48 162.9 152.48" fill="#fff"/><polygon points="106.15 135.22 123.41 140.47 123.42 140.46 106.16 135.21 106.15 135.22" fill="#fff"/><polygon points="159.34 124.29 159.36 124.28 159.35 124.26 159.34 124.26 159.32 124.26 120.86 132.16 159.34 124.27 159.34 124.29" fill="#fff"/><rect x="159.34" y="124.29" width="0.02" transform="translate(-16.39 24.51) rotate(-8.37)" fill="#fff"/><polygon points="159.34 124.25 159.35 124.25 159.34 124.25 159.33 124.25 159.34 124.25 159.34 124.25" fill="#fff"/><polygon points="118.47 132.64 159.33 124.25 159.33 124.25 159.34 124.25 159.33 124.25 118.47 132.64" fill="#fff"/><polygon points="106.08 135.2 106.13 135.21 106.14 135.21 106.1 135.19 106.09 135.19 106.08 135.2" fill="#fff"/><polygon points="106.07 135.19 106.07 135.19 106.07 135.19 106.07 135.19" fill="#fff"/><polygon points="106.07 135.19 106.06 135.19 106.07 135.19 106.07 135.19 106.07 135.19 106.07 135.19" fill="#fff"/><polygon points="123.44 140.47 123.44 140.47 162.21 152.27 123.44 140.47" fill="#fff"/><polygon points="162.9 152.48 162.9 152.48 162.21 152.27 162.9 152.48 162.9 152.48" fill="#fff"/><polygon points="162.92 152.49 162.49 149.1 159.36 124.3 159.34 124.31 162.53 149.52 162.9 152.47 162.9 152.48 162.91 152.48 162.92 152.49" fill="#fff"/><rect x="277.18" y="74.42" height="15.83" transform="translate(114.19 321.18) rotate(-72.23)" fill="#fff"/><rect x="277.18" y="74.43" height="15.83" transform="translate(114.12 321.14) rotate(-72.22)" fill="#fff"/><polygon points="289.01 86.14 289.01 86.13 288.42 80.13 288.4 80.15 288.99 86.12 284.74 84.76 284.73 84.76 289 86.13 289.01 86.13 289 86.14 289.01 86.14" fill="#fff"/><polygon points="284.63 41.63 284.63 41.62 284.63 41.62 284.63 41.63" fill="#fff"/><polygon points="288.33 79.27 284.63 41.63 284.63 41.63 284.63 41.63 284.63 41.63 284.62 41.64 284.62 41.64 288.32 79.26 288.33 79.27" fill="#fff"/><polygon points="288.99 86.13 288.99 86.13 284.73 84.76 284.73 84.77 288.99 86.13 288.99 86.13" fill="#fff"/><polygon points="288.42 80.11 288.33 79.28 288.32 79.28 288.4 80.13 288.42 80.11" fill="#fff"/><polygon points="284.72 84.76 269.65 79.92 269.65 79.93 269.65 79.93 284.72 84.76 284.72 84.76" fill="#fff"/><polygon points="269.64 79.93 267.6 102.38 267.6 102.38 267.6 102.38 267.6 102.39 267.59 102.4 267.59 102.41 267.6 102.4 267.61 102.39 267.61 102.39 275.41 96.47 275.44 96.42 267.61 102.37 269.64 79.94 269.64 79.93" fill="#fff"/><polygon points="289.01 86.13 289 86.13 284.73 84.76 284.73 84.76 288.99 86.13 288.99 86.13 288.99 86.13 275.47 96.4 275.44 96.45 289 86.14 289.01 86.13" fill="#fff"/><polygon points="241.55 116.73 242.9 117.06 241.55 116.73 241.55 116.73" fill="#fff"/><polygon points="243.43 117.18 242.9 117.06 243.43 117.18 243.43 117.18 243.43 117.18 243.43 117.18" fill="#fff"/><polygon points="191.44 122.67 191.46 122.67 191.48 122.67 191.48 122.67 242.12 117.33 242.12 117.32 191.45 122.66 191.7 104.78 241.53 116.73 241.53 116.73 191.7 104.77 191.69 104.77 191.69 104.77 191.69 104.77 191.7 104.77 191.7 104.77 191.44 122.67 191.44 122.67 191.44 122.67 191.44 122.67" fill="#fff"/><rect x="191.56" y="104.78" width="0.01" height="17.88" transform="translate(-31.21 113.08) rotate(-30.53)" fill="#fff"/><polygon points="243.42 117.18 242.13 117.32 242.13 117.32 243.42 117.19 243.42 117.19 243.44 117.19 243.44 117.19 243.44 117.19 243.43 117.19 243.43 117.18 243.43 117.18 243.42 117.18" fill="#fff"/><polygon points="159.33 124.25 159.34 124.25 159.34 124.25 159.33 124.25" fill="#fff"/><path d="M159.34,124.26h0l32.06-1.59h0l.26-17.9h0l-32.34,19.47h0Zm32.35-19.48h0l-.25,17.88h0l-32.05,1.59Z" fill="#fff"/><rect x="106.09" y="135.19" height="0.01" transform="matrix(0.58, -0.81, 0.81, 0.58, -65.62, 142.23)" fill="#fff"/><polygon points="120.86 132.16 159.32 124.26 159.35 124.26 159.34 124.25 159.34 124.25 159.33 124.25 125.98 106.36 125.98 106.36 125.98 106.37 159.33 124.25 159.34 124.25 159.34 124.25 159.33 124.25 159.33 124.25 118.47 132.64 106.1 135.18 106.09 135.19 106.11 135.19 120.86 132.16" fill="#fff"/><polygon points="106.07 135.19 106.07 135.19 106.07 135.19 106.07 135.19" fill="#fff"/><polygon points="125.98 106.36 125.97 106.36 125.97 106.36 125.97 106.36 125.97 106.36 125.98 106.36 125.98 106.36" fill="#fff"/><polygon points="106.06 135.2 106.08 135.2 106.07 135.19 106.07 135.19 106.07 135.19 106.07 135.19 106.06 135.2" fill="#fff"/><polygon points="35.6 144.51 64.81 125.72 64.8 125.71 35.6 144.51" fill="#fff"/><polygon points="64.81 125.72 36.2 144.13 64.81 125.73 64.81 125.72" fill="#fff"/><polygon points="67.87 123.74 67.88 123.74 82.2 114.53 82.21 114.52 82.21 114.52 82.17 114.54 67.87 123.74" fill="#fff"/><polygon points="32.31 146.64 75.03 140.01 75.03 140 32.34 146.62 32.31 146.64" fill="#fff"/><polygon points="106.07 135.19 106.07 135.19 106.07 135.19 106.07 135.19" fill="#fff"/><polygon points="106.07 135.19 106.07 135.19 106.07 135.19 106.07 135.19" fill="#fff"/><polygon points="75.04 140 75.05 140 106.07 135.19 106.07 135.19 106.07 135.19 75.04 140" fill="#fff"/><polygon points="82.25 114.54 82.24 114.54 106.04 135.15 106.02 135.13 82.25 114.54" fill="#fff"/><polygon points="82.23 114.52 82.22 114.51 82.22 114.51 82.21 114.51 82.22 114.52 82.23 114.52" fill="#fff"/><polygon points="32.31 146.64 32.31 146.64 32.31 146.63 32.28 146.64 32.31 146.64" fill="#fff"/><rect x="64.54" y="124.73" width="3.62" height="0.01" transform="translate(-60.8 63.14) rotate(-36.14)" fill="#fff"/><polygon points="82.17 114.54 82.21 114.52 82.2 114.52 82.17 114.54" fill="#fff"/><polygon points="106.06 135.18 106.06 135.18 106.05 135.16 82.21 114.53 82.21 114.53 67.88 123.75 67.89 123.75 82.21 114.53 106.06 135.18" fill="#fff"/><rect x="64.53" y="124.73" width="3.61" height="0.01" transform="translate(-60.43 62.38) rotate(-35.8)" fill="#fff"/><polygon points="284.6 41.65 259.95 68.06 259.96 68.06 284.6 41.65 284.6 41.65" fill="#fff"/><polygon points="259.95 68.07 259.94 68.07 258.92 69.17 258.94 69.16 259.95 68.07" fill="#fff"/><polygon points="284.62 41.64 284.63 41.63 284.62 41.64 284.62 41.64 284.62 41.65 284.62 41.65 272.36 72.96 272.37 72.96 284.62 41.64" fill="#fff"/><polygon points="269.64 79.93 269.64 79.94 269.64 79.94 269.65 79.93 269.65 79.93 269.65 79.93 269.65 79.92 269.65 79.92 272.37 72.98 272.35 72.97 269.64 79.91 258.93 69.18 258.93 69.18 258.92 69.19 269.64 79.93 269.64 79.93" fill="#fff"/><polygon points="284.63 41.63 284.63 41.62 284.63 41.62 284.63 41.63 284.62 41.63 284.62 41.63 284.62 41.63 284.62 41.63 284.63 41.63 284.63 41.63" fill="#fff"/><polygon points="284.62 41.64 284.61 41.64 284.62 41.64 284.62 41.64" fill="#fff"/><polygon points="284.61 41.64 284.61 41.64 284.61 41.64 284.61 41.64" fill="#fff"/><polygon points="228.91 73.97 206.37 77.58 206.34 77.58 206.37 77.59 224.92 81.35 224.92 81.35 206.39 77.58 228.9 73.99 228.91 73.97" fill="#fff"/><polygon points="224.93 81.35 224.93 81.36 247.55 85.95 224.93 81.35" fill="#fff"/><polygon points="249.48 84.15 258.92 69.19 258.93 69.18 258.93 69.18 258.94 69.16 258.94 69.16 258.92 69.17 258.92 69.17 243.3 71.67 243.31 71.68 258.9 69.19 249.47 84.13 249.48 84.15" fill="#fff"/><polygon points="228.92 73.97 228.91 73.98 243.28 71.69 243.27 71.67 228.92 73.97" fill="#fff"/><polygon points="248.23 86.08 247.55 85.95 248.23 86.08 248.23 86.08" fill="#fff"/><polygon points="248.24 86.09 248.25 86.09 248.25 86.09 249.47 84.17 249.45 84.15 248.24 86.08 248.23 86.08 248.24 86.09 248.24 86.09" fill="#fff"/><polygon points="106.07 135.18 106.07 135.19 106.07 135.19 106.07 135.19 106.07 135.19 106.07 135.19 106.08 135.2 106.08 135.2 106.08 135.2 106.09 135.19 106.09 135.19 106.09 135.19 106.08 135.19 106.08 135.19 106.08 135.19 106.08 135.19 106.07 135.18" fill="#fff"/><polygon points="92.61 118.97 106.02 135.13 106.04 135.15 106.07 135.18 106.07 135.18 106.06 135.16 92.61 118.97" fill="#fff"/><polygon points="106.1 135.18 125.98 106.37 125.98 106.36 125.98 106.36 125.97 106.36 125.97 106.36 91.11 117.14 91.11 117.14 91.11 117.14 91.11 117.14 91.12 117.15 125.97 106.37 125.97 106.37 106.08 135.18 91.92 118.11 106.06 135.16 106.07 135.18 106.09 135.19 106.1 135.18" fill="#fff"/><polygon points="106.07 135.18 106.05 135.16 106.06 135.18 106.07 135.18" fill="#fff"/><polygon points="106.08 135.19 106.08 135.19 106.08 135.19 106.08 135.19 106.08 135.19" fill="#fff"/><polygon points="91.11 117.15 92.61 118.97 106.06 135.16 91.92 118.11 91.12 117.15 91.11 117.14 91.11 117.14 91.11 117.14 91.11 117.14 82.23 114.52 82.22 114.52 82.21 114.51 82.19 114.5 82.2 114.52 82.21 114.52 82.22 114.52 82.22 114.52 82.21 114.53 82.21 114.53 106.05 135.16 106.07 135.18 106.07 135.18 106.04 135.15 82.24 114.54 82.25 114.54 91.11 117.15" fill="#fff"/><polygon points="82.21 114.52 82.21 114.52 82.21 114.52 82.21 114.52" fill="#fff"/><polygon points="82.2 114.53 67.88 123.74 67.88 123.75 82.21 114.53 82.22 114.52 82.22 114.52 82.21 114.52 82.17 114.54 62.3 122.07 62.3 122.08 82.17 114.54 82.21 114.52 82.21 114.52 82.21 114.52 82.2 114.53" fill="#fff"/><rect x="64.54" y="124.73" width="3.62" height="0.01" transform="translate(-56.95 55.75) rotate(-32.76)" fill="#fff"/><polygon points="32.31 146.63 32.31 146.64 32.31 146.64 32.34 146.62 36.2 144.13 64.81 125.72 64.81 125.72 35.6 144.51 32.41 146.56 62.23 122.12 62.23 122.11 32.31 146.63 32.31 146.63 32.31 146.63 32.31 146.63 32.31 146.63" fill="#fff"/><polygon points="62.28 122.08 62.27 122.08 62.27 122.08 62.27 122.08 62.24 122.1 62.24 122.11 62.27 122.09 62.28 122.08" fill="#fff"/><polygon points="38.66 74.72 38.66 74.72 35.93 69.22 42.92 72.1 42.92 72.1 35.92 69.21 35.92 69.21 35.96 69.3 38.66 74.72" fill="#fff"/><polygon points="42.93 72.11 42.93 72.11 80.78 87.72 80.79 87.72 80.8 87.71 42.93 72.11" fill="#fff"/><polygon points="62.2 122.04 62.2 122.04 62.2 122.04 80.72 87.85 62.19 122.04 62.2 122.04" fill="#fff"/><polygon points="80.79 87.72 80.79 87.72 80.72 87.85 80.79 87.72" fill="#fff"/><polygon points="35.91 69.22 38.65 74.72 38.66 74.72 35.96 69.3 35.92 69.21 35.91 69.22 35.91 69.22" fill="#fff"/><polygon points="80.78 87.7 42.95 72.1 42.94 72.1 80.79 87.71 80.79 87.71 80.78 87.7" fill="#fff"/><polygon points="42.93 72.1 42.94 72.09 35.92 69.2 35.92 69.2 35.92 69.2 42.93 72.1" fill="#fff"/><polygon points="35.91 69.21 35.91 69.2 35.91 69.2 35.9 69.19 35.91 69.21" fill="#fff"/><polygon points="80.8 87.71 80.79 87.7 80.8 87.71 80.8 87.71" fill="#fff"/><polygon points="38.66 74.73 38.65 74.73 58.51 114.66 38.66 74.73" fill="#fff"/><polygon points="38.66 74.73 58.44 114.5 38.67 74.72 38.66 74.73" fill="#fff"/><polygon points="35.91 69.2 35.91 69.2 35.91 69.2 35.91 69.21 35.92 69.21 42.92 72.1 42.93 72.1 35.92 69.2 35.92 69.2 28.91 32.66 28.91 32.77 35.91 69.2" fill="#fff"/><polygon points="35.04 36.78 28.69 29.72 28.69 29.74 35.15 36.93 35.04 36.78" fill="#fff"/><polygon points="28.67 29.7 28.25 29.22 28.23 29.2 28.23 29.23 28.89 32.62 28.88 32.51 28.25 29.25 28.67 29.72 28.67 29.7" fill="#fff"/><polygon points="80.8 87.72 80.8 87.71 80.79 87.7 60.19 64.78 60.18 64.78 80.78 87.7 80.79 87.71 80.79 87.71 42.94 72.1 42.93 72.11 80.8 87.71 80.8 87.72" fill="#fff"/><polygon points="58.29 62.66 35.3 37.08 35.42 37.23 58.28 62.66 58.29 62.66" fill="#fff"/><polygon points="59.12 63.58 59.11 63.58 60.16 64.75 60.17 64.75 59.12 63.58" fill="#fff"/><polygon points="58.3 62.67 58.3 62.68 59.08 63.55 59.09 63.55 58.3 62.67" fill="#fff"/><polygon points="31.94 74.17 22.29 86.26 22.34 86.22 31.94 74.19 31.94 74.17" fill="#fff"/><polygon points="39.49 113.1 26.61 108.03 26.6 108.04 39.48 113.11 39.49 113.1" fill="#fff"/><polygon points="10.95 100.46 10.95 100.49 14.49 96.06 14.47 96.05 10.95 100.46" fill="#fff"/><polygon points="22.3 86.27 22.25 86.31 14.48 96.03 14.5 96.04 22.3 86.27" fill="#fff"/><polygon points="10.95 101.88 26.59 108.04 26.6 108.02 10.95 101.86 10.95 101.88" fill="#fff"/><polygon points="62.19 122.04 58.44 114.5 38.66 74.73 38.66 74.73 58.51 114.66 62.18 122.04 62.2 122.04 62.19 122.04" fill="#fff"/><polygon points="10.94 100.47 10.1 101.53 10.09 101.54 10.1 101.55 10.94 101.88 10.94 101.86 10.12 101.53 10.94 100.5 10.94 100.47" fill="#fff"/><polygon points="62.17 122.04 39.49 113.1 39.48 113.11 62.18 122.05 62.17 122.04" fill="#fff"/><polygon points="35.91 69.22 35.92 69.21 35.92 69.21 35.91 69.21 35.91 69.2 35.91 69.2 35.91 69.21 31.95 74.16 31.95 74.18 35.91 69.22 35.91 69.22" fill="#fff"/><polygon points="38.66 74.72 35.96 69.3 38.66 74.72 38.66 74.72" fill="#fff"/><polygon points="87.08 156.83 106.14 135.21 106.14 135.21 106.13 135.21 106.13 135.21 87.08 156.82 87.08 156.82 87.08 156.83" fill="#fff"/><path d="M87.06,156.83l0,0,0,0,36.36-16.37h0l35.89-16.16h0l0,0h-.06L106.15,135.2h0L87.08,156.83h0Zm19.09-21.61h0l53.18-10.9h0l-35.92,16.16h0L87.12,156.8Z" fill="#fff"/><path d="M106.09,135.19h0L67.89,123.75h0l-5.57-1.67h0l-.1,0h0l0,.06h0l2.57,3.59h0L75,140h0l12,16.82h0l19.07-21.62h-.06Zm0,0L87.08,156.83h0L75.05,140h0L64.83,125.72h0l-2.58-3.59h0l0,0,.06,0h0l5.57,1.67h0l38.19,11.42h0l0,0Z" fill="#fff"/><polygon points="35.27 37.05 35.15 36.93 56.2 63.65 35.27 37.05" fill="#fff"/><polygon points="38.65 74.72 32.28 78.63 31.95 74.18 31.94 74.19 32.27 78.64 32.27 78.64 32.27 78.64 32.27 78.65 32.27 78.65 32.27 78.65 32.27 78.65 32.28 78.65 32.28 78.65 32.28 78.65 38.65 74.73 38.65 74.72" fill="#fff"/><polygon points="28.59 28.59 28.67 29.7 28.69 29.72 28.61 28.62 35.04 36.78 35.15 36.91 28.61 28.6 28.58 28.58 28.59 28.57 28.59 28.57 28.59 28.57 28.59 28.57 28.59 28.57 28.58 28.58 28.59 28.59" fill="#fff"/><polygon points="38.67 74.72 42.93 72.11 42.92 72.1 38.66 74.72 38.67 74.72" fill="#fff"/><rect x="49.65" y="60.1" width="0.01" height="15.74" transform="translate(-6.48 5.24) rotate(-5.67)" fill="#fff"/><polygon points="28.59 28.56 28.59 28.56 28.59 28.57 28.59 28.56" fill="#fff"/><polygon points="31.95 74.16 28.91 32.77 28.89 32.62 31.94 74.17 31.95 74.16" fill="#fff"/><polygon points="28.91 32.66 28.69 29.74 28.67 29.72 28.88 32.51 28.91 32.66" fill="#fff"/><rect x="42.92" y="72.1" width="0.01" height="0.01" transform="translate(-40.06 84.54) rotate(-67.76)" fill="#fff"/><rect x="42.93" y="72.09" width="0.01" height="0.01" transform="translate(-40.06 84.47) rotate(-67.7)" fill="#fff"/><rect x="38.66" y="74.72" width="0.01" height="0.01" transform="translate(-29.28 25.1) rotate(-26.5)" fill="#fff"/><rect x="38.65" y="74.72" width="0.01" height="0.01" transform="translate(-29.17 24.94) rotate(-26.37)" fill="#fff"/><polygon points="35.15 36.93 35.27 37.05 35.15 36.91 35.04 36.78 35.15 36.93" fill="#fff"/><rect x="42.93" y="72.1" width="0.01" height="0.01" transform="translate(-31.48 33.31) rotate(-31.69)" fill="#fff"/><polygon points="28.89 32.62 28.91 32.77 28.91 32.66 28.88 32.51 28.89 32.62" fill="#fff"/><polygon points="28.67 29.72 28.69 29.74 28.69 29.72 28.67 29.7 28.67 29.72" fill="#fff"/><rect x="38.66" y="74.72" height="0.01" transform="translate(-31.54 28.35) rotate(-29.2)" fill="#fff"/><polygon points="31.94 74.19 31.95 74.18 31.95 74.16 31.94 74.17 31.94 74.19" fill="#fff"/><polygon points="75.43 52.01 75.43 52.01 75.42 52.01 28.62 28.58 28.6 28.56 28.59 28.57 28.59 28.57 28.59 28.56 28.58 28.56 28.59 28.57 28.59 28.57 28.59 28.57 28.58 28.58 28.61 28.6 35.15 36.91 35.3 37.08 28.65 28.62 75.41 52.01 59.54 61.88 75.43 52.01" fill="#fff"/><polygon points="56.36 63.85 56.36 63.85 56.36 63.85 56.36 63.85" fill="#fff"/><polygon points="35.27 37.05 56.2 63.65 56.36 63.85 56.36 63.85 35.42 37.23 35.27 37.05" fill="#fff"/><polygon points="35.27 37.05 35.42 37.23 35.3 37.08 35.15 36.91 35.27 37.05" fill="#fff"/><polygon points="108.17 58.37 75.43 52.02 75.43 52.01 75.43 52.01 75.43 52.01 59.54 61.88 58.29 62.66 58.3 62.67 75.44 52.03 108.17 58.37 108.17 58.37" fill="#fff"/><polygon points="56.36 63.85 56.37 63.85 56.37 63.84 56.41 63.85 59.09 63.56 59.08 63.55 56.45 63.82 58.3 62.68 58.28 62.66 56.4 63.83 56.36 63.83 56.37 63.85 56.36 63.85 56.36 63.85" fill="#fff"/><polygon points="104.88 58.72 59.09 63.55 59.1 63.56 104.88 58.72" fill="#fff"/><polygon points="59.09 63.56 59.1 63.56 59.09 63.55 59.08 63.55 59.09 63.56" fill="#fff"/><polygon points="58.3 62.68 58.3 62.67 58.29 62.66 58.28 62.66 58.3 62.68" fill="#fff"/><polygon points="56.35 63.86 56.35 63.86 56.36 63.86 56.36 63.86 56.36 63.86 56.36 63.86 56.35 63.86" fill="#fff"/><polygon points="56.37 63.87 56.37 63.87 56.37 63.87 56.37 63.87" fill="#fff"/><polygon points="72.71 47.48 69.76 42.59 69.74 42.6 72.69 47.47 72.71 47.48" fill="#fff"/><polygon points="62.34 30.35 69.73 42.58 69.75 42.58 62.38 30.38 79.13 40.61 79.15 40.61 62.36 30.33 62.34 30.3 62.33 30.31 62.32 30.31 62.31 30.3 62.32 30.31 62.32 30.32 62.31 30.33 62.34 30.35" fill="#fff"/><polygon points="75.43 52.01 75.43 52.01 75.43 52.01 75.43 52.02 108.17 58.37 108.17 58.37 75.44 52 72.72 47.5 72.7 47.49 75.43 52.01 75.43 52.01" fill="#fff"/><polygon points="108.18 58.37 79.17 40.62 79.15 40.62 108.18 58.37 108.18 58.37" fill="#fff"/><polygon points="136.6 28.57 136.6 28.56 136.6 28.56 79.15 40.61 79.13 40.61 69.75 42.58 69.73 42.58 62.02 44.2 62 44.19 62 44.2 62 44.2 61.99 44.21 62 44.21 62 44.21 62 44.22 62.02 44.22 72.7 47.49 72.72 47.5 108.17 58.37 108.17 58.37 108.17 58.37 108.18 58.37 108.18 58.37 108.18 58.37 108.18 58.37 108.18 58.37 108.18 58.37 72.71 47.48 72.69 47.47 62.05 44.21 69.74 42.6 69.76 42.59 79.15 40.62 79.17 40.62 136.58 28.57 110.99 55.43 136.6 28.57" fill="#fff"/><polygon points="108.22 58.36 136.6 28.59 136.6 28.57 110.99 55.43 108.19 58.36 108.18 58.36 108.19 58.37 108.18 58.37 108.18 58.37 137 56.94 108.22 58.36" fill="#fff"/><polygon points="136.62 28.56 136.62 28.57 136.63 28.56 136.62 28.56" fill="#fff"/><polygon points="108.19 58.38 108.19 58.38 108.19 58.38 108.19 58.38" fill="#fff"/><polygon points="193.18 45.83 193.19 45.83 175.99 40.57 175.98 40.58 193.18 45.83" fill="#fff"/><rect x="193.22" y="45.81" height="0.05" transform="translate(51.48 184.93) rotate(-57.8)" fill="#fff"/><polygon points="140.16 56.8 140.16 56.8 140.16 56.8 140.16 56.8" fill="#fff"/><polygon points="193.25 45.85 193.25 45.85 193.25 45.85 193.25 45.85 193.25 45.85 193.25 45.85" fill="#fff"/><polygon points="140.17 56.78 140.17 56.78 140.17 56.78 140.18 56.78 140.18 56.78 140.17 56.78 140.17 56.75 140.15 56.76 140.15 56.77 140.16 56.77 140.17 56.78" fill="#fff"/><polygon points="151.96 54.37 140.21 56.79 140.22 56.79 151.96 54.37" fill="#fff"/><polygon points="175.97 40.57 136.62 28.54 136.59 28.53 136.6 28.56 136.6 28.56 136.6 28.57 136.6 28.59 140.15 56.74 140.17 56.73 136.62 28.57 136.62 28.56 136.62 28.56 175.96 40.57 175.97 40.57" fill="#fff"/><polygon points="140.19 56.78 140.19 56.78 145.96 55.59 140.19 56.78" fill="#fff"/><polygon points="140.18 56.8 140.19 56.8 140.19 56.8 140.17 56.8 140.18 56.79 140.17 56.79 140.17 56.79 140.17 56.79 140.17 56.8 140.18 56.8" fill="#fff"/><polygon points="10.94 101.86 10.95 101.86 10.95 100.49 10.94 100.5 10.94 101.86" fill="#fff"/><polygon points="29.34 102.82 26.6 108.02 26.6 108.03 29.34 102.82" fill="#fff"/><rect x="22.36" y="90.31" height="16.54" transform="matrix(0.31, -0.95, 0.95, 0.31, -78.33, 89.7)" fill="#fff"/><polygon points="26.59 108.04 26.59 108.04 10.92 137.73 10.95 101.88 10.94 101.88 10.9 137.77 10.89 137.8 10.9 137.8 10.9 137.81 10.9 137.81 10.9 137.8 10.89 137.79 10.92 137.76 26.59 108.04" fill="#fff"/><polygon points="10.95 94.91 10.95 94.91 10.95 94.91 10.95 94.91" fill="#fff"/><polygon points="10.95 100.46 10.96 94.92 14.47 96.05 14.48 96.05 10.96 94.92 10.96 94.92 10.95 94.91 10.95 94.91 10.95 94.91 10.95 94.92 10.94 94.92 10.95 94.92 10.94 100.47 10.95 100.46" fill="#fff"/><rect x="26.59" y="108.03" width="0.02" transform="translate(-81.43 81.39) rotate(-62.32)" fill="#fff"/><rect x="14.48" y="96.04" width="0.01" height="0.02" transform="translate(-69.51 47.26) rotate(-51.27)" fill="#fff"/><polygon points="10.94 101.88 10.95 101.88 10.95 101.86 10.94 101.86 10.94 101.88" fill="#fff"/><polygon points="10.95 100.46 10.94 100.47 10.94 100.5 10.95 100.49 10.95 100.46" fill="#fff"/><rect x="10.9" y="137.81" width="0.01" transform="translate(-115.64 82.15) rotate(-61.73)" fill="#fff"/><polygon points="30.24 101.11 30.24 101.11 32.27 78.67 32.28 78.66 32.27 78.66 32.27 78.65 32.27 78.65 32.27 78.65 32.27 78.65 32.26 78.65 32.26 78.66 22.34 86.22 22.3 86.27 32.26 78.68 30.24 101.11 30.24 101.11" fill="#fff"/><polygon points="22.29 86.26 10.96 94.9 10.95 94.9 10.95 94.9 10.95 94.91 10.95 94.91 10.94 94.91 10.95 94.91 10.95 94.91 10.95 94.91 10.96 94.92 10.96 94.92 14.48 96.05 14.48 96.03 10.98 94.9 22.25 86.31 22.29 86.26" fill="#fff"/><polygon points="30.24 101.11 30.24 101.11 14.5 96.04 14.49 96.05 30.24 101.11 30.24 101.11" fill="#fff"/><polygon points="22.3 86.27 22.34 86.22 22.29 86.26 22.25 86.31 22.3 86.27" fill="#fff"/><polygon points="14.49 96.05 14.5 96.04 14.48 96.03 14.48 96.05 14.49 96.05" fill="#fff"/><polygon points="56.37 63.87 56.37 63.87 56.41 63.87 60.18 64.78 60.16 64.75 56.48 63.86 59.11 63.58 59.09 63.56 56.41 63.85 56.37 63.84 56.37 63.85 56.36 63.85 56.36 63.85 56.36 63.85 56.35 63.85 56.36 63.86 56.36 63.86 56.37 63.86 56.36 63.87 56.37 63.87" fill="#fff"/><polygon points="107.93 76.27 108.18 58.37 108.18 58.37 108.18 58.37 108.18 58.37 104.88 58.72 59.1 63.56 59.12 63.58 108.17 58.38 107.93 76.27 60.17 64.75 60.19 64.78 107.93 76.27" fill="#fff"/><polygon points="60.18 64.78 60.19 64.78 60.17 64.75 60.16 64.75 60.18 64.78" fill="#fff"/><polygon points="59.11 63.58 59.12 63.58 59.1 63.56 59.09 63.56 59.11 63.58" fill="#fff"/><polygon points="107.93 76.27 107.93 76.27 107.93 76.27 107.93 76.27" fill="#fff"/><path d="M140.17,56.79h0l-3.14.16-28.81,1.43h0l-.25,17.9h0L140.14,56.8h0ZM107.93,76.26v-.49l.25-17.39h0l31.91-1.57Z" fill="#fff"/><polygon points="193.26 45.85 193.25 45.85 193.25 45.85 193.25 45.85 193.25 45.85 193.25 45.85 193.25 45.84 193.25 45.85 193.25 45.85 193.24 45.85 193.25 45.85 193.26 45.85" fill="#fff"/><polygon points="193.25 45.86 193.22 45.85 145.96 55.59 140.19 56.78 140.19 56.78 140.18 56.77 140.18 56.78 140.18 56.78 140.17 56.78 140.17 56.78 140.17 56.78 140.17 56.79 140.18 56.79 140.17 56.8 140.19 56.8 140.19 56.8 173.43 74.67 173.43 74.67 140.22 56.79 140.21 56.79 151.96 54.37 193.23 45.87 175.51 71.65 193.25 45.86" fill="#fff"/><polygon points="208.22 47.24 193.61 45.88 208.22 47.24 208.22 47.24" fill="#fff"/><polygon points="238.12 45.06 227.63 45.83 227.63 45.83 238.12 45.06" fill="#fff"/><polygon points="226.54 44.3 226.55 44.32 284.2 41.66 226.54 44.3" fill="#fff"/><polygon points="284.54 41.64 284.2 41.66 284.54 41.64 284.54 41.64" fill="#fff"/><polygon points="193.61 45.88 193.29 45.85 193.29 45.85 193.61 45.88" fill="#fff"/><polygon points="208.22 47.26 208.22 47.25 193.34 45.88 193.36 45.88 208.22 47.26" fill="#fff"/><polygon points="226.37 45.91 208.27 47.24 208.27 47.24 226.37 45.91" fill="#fff"/><polygon points="227.62 45.83 227.62 45.83 208.3 47.25 208.32 47.26 227.62 45.83" fill="#fff"/><polygon points="208.24 47.26 208.27 47.26 208.25 47.25 208.24 47.25 208.24 47.26" fill="#fff"/><polygon points="193.26 45.87 193.26 45.87 193.26 45.87 193.26 45.87" fill="#fff"/><polygon points="226.53 44.3 193.26 45.83 193.26 45.85 193.26 45.85 193.26 45.85 193.26 45.85 193.27 45.85 193.27 45.84 193.28 45.85 193.29 45.85 226.54 44.32 226.53 44.3" fill="#fff"/><polygon points="39.49 113.1 40.93 111.86 30.25 101.12 30.25 101.12 30.25 101.12 30.24 101.11 30.24 101.11 30.24 101.11 30.24 101.11 30.24 101.11 30.24 101.11 30.24 101.12 30.24 101.12 30.24 101.12 29.34 102.82 26.6 108.03 26.61 108.03 30.24 101.13 40.93 111.86 39.49 113.1 39.49 113.1" fill="#fff"/><polygon points="10.9 137.81 10.89 137.82 10.9 137.81 10.9 137.81 10.91 137.81 10.92 137.81 10.94 137.78 39.48 113.11 39.48 113.11 10.96 137.73 26.6 108.04 26.59 108.04 10.92 137.76 10.89 137.79 10.9 137.8 10.9 137.81 10.9 137.81" fill="#fff"/><rect x="39.48" y="113.11" width="0.01" transform="translate(-64.21 53.11) rotate(-40.7)" fill="#fff"/><polygon points="26.6 108.04 26.61 108.03 26.6 108.03 26.59 108.04 26.6 108.04" fill="#fff"/><polygon points="193.25 45.85 193.26 45.85 193.26 45.85 193.25 45.85" fill="#fff"/><polygon points="193.26 45.87 193.26 45.87 208.16 63.87 208.16 63.87 193.27 45.87 193.26 45.87 193.26 45.87 193.25 45.86 175.51 71.65 173.44 74.65 173.42 74.66 173.43 74.67 173.43 74.67 173.43 74.67 173.42 74.68 173.43 74.68 173.44 74.67 173.44 74.69 173.45 74.67 208.16 63.9 208.16 63.9 173.47 74.64 193.26 45.87 193.26 45.87" fill="#fff"/><polygon points="193.26 45.85 193.26 45.85 193.26 45.85 193.26 45.85" fill="#fff"/><polygon points="208.16 63.87 207.88 63.53 208.16 63.87 208.16 63.87" fill="#fff"/><polygon points="193.26 45.87 193.26 45.87 193.27 45.87 208.16 63.87 208.16 63.87 207.88 63.53 193.31 45.88 193.26 45.87" fill="#fff"/><polygon points="208.22 47.24 208.22 47.24 193.28 45.85 193.27 45.84 193.27 45.85 193.26 45.85 193.26 45.85 193.26 45.85 193.25 45.85 193.25 45.85 193.25 45.85 193.26 45.85 193.26 45.85 193.34 45.88 208.22 47.25 208.22 47.24" fill="#fff"/><polygon points="208.25 47.25 208.27 47.26 218.16 51.3 208.25 47.25 208.25 47.25" fill="#fff"/><rect x="236.9" y="58.95" width="0.02" transform="translate(-6.53 40.6) rotate(-9.66)" fill="#fff"/><polygon points="208.16 63.87 208.16 63.87 208.16 63.87 208.16 63.87 208.16 63.89 208.16 63.9 208.16 63.9 208.16 63.91 208.18 63.91 236.86 58.97 236.86 58.96 208.18 63.89 208.23 50.36 208.21 50.36 208.16 63.87" fill="#fff"/><polygon points="208.24 47.23 208.22 47.21 208.22 47.24 208.22 47.24 208.22 47.24 208.22 47.25 208.22 47.26 208.21 50.34 208.23 50.35 208.24 47.26 208.24 47.25 208.24 47.25 208.24 47.24 208.24 47.24 208.23 47.24 208.24 47.24 208.24 47.24 208.24 47.23 208.25 47.24 208.27 47.24 208.27 47.24 208.24 47.23" fill="#fff"/><polygon points="208.32 47.26 208.3 47.25 208.28 47.25 234.89 58.12 208.32 47.26" fill="#fff"/><polygon points="284.62 41.63 284.61 41.63 284.61 41.63 284.61 41.62 284.57 41.64 284.54 41.64 284.54 41.64 227.62 45.82 227.63 45.83 238.12 45.06 284.51 41.66 236.98 58.93 236.98 58.93 284.57 41.65 284.6 41.65 284.61 41.64 284.61 41.64 284.62 41.64 284.62 41.64 284.62 41.63" fill="#fff"/><polygon points="284.62 41.64 284.62 41.64 284.62 41.64 284.62 41.64" fill="#fff"/><polygon points="284.62 41.64 284.62 41.64 284.62 41.64 284.62 41.64" fill="#fff"/><polygon points="284.61 41.64 284.6 41.65 284.62 41.65 284.62 41.65 284.61 41.64" fill="#fff"/><polygon points="284.62 41.63 284.62 41.63 284.62 41.64 284.62 41.64 284.62 41.64 284.62 41.63" fill="#fff"/><polygon points="284.63 41.63 284.63 41.63 284.63 41.63 284.63 41.63" fill="#fff"/><rect x="284.61" y="41.64" width="0.01" transform="translate(60.02 221.34) rotate(-46.99)" fill="#fff"/><rect x="284.62" y="41.63" height="0.01" transform="translate(139.24 289.84) rotate(-67.96)" fill="#fff"/><rect x="284.6" y="41.65" width="0.02" fill="#fff"/><polygon points="284.61 41.65 284.62 41.65 284.62 41.65 284.61 41.65" fill="#fff"/><polygon points="208.25 47.25 208.25 47.25 218.16 51.3 236.92 58.95 236.92 58.95 236.93 58.95 236.96 58.94 236.96 58.94 236.93 58.95 234.89 58.12 208.28 47.25 208.3 47.25 227.62 45.83 227.61 45.82 226.37 45.91 208.27 47.24 208.25 47.24 208.24 47.23 208.24 47.24 208.24 47.24 208.23 47.24 208.24 47.24 208.24 47.24 208.24 47.25 208.25 47.25" fill="#fff"/><rect x="222.73" y="77.66" width="8.37" height="0.01" transform="translate(106.95 285.35) rotate(-78.88)" fill="#fff"/><polygon points="260.63 106.67 260.62 106.67 263.16 111.8 256.64 109.11 256.63 109.11 263.19 111.83 260.63 106.67" fill="#fff"/><polygon points="249.46 84.14 243.29 71.69 243.28 71.69 249.45 84.15 249.46 84.14" fill="#fff"/><polygon points="236.99 59 228.91 73.97 228.92 73.97 237 59.02 243.27 71.67 243.28 71.67 237.01 59.01 236.99 59.01 236.99 59.01 236.99 59" fill="#fff"/><polygon points="218.46 93.33 245.39 104.47 245.4 104.46 218.46 93.33 224.93 81.36 224.92 81.35 218.46 93.33" fill="#fff"/><polygon points="256.62 109.1 245.41 104.46 245.41 104.47 256.61 109.11 256.62 109.1" fill="#fff"/><polygon points="260.62 106.65 252 89.25 251.97 89.23 260.61 106.66 260.62 106.65" fill="#fff"/><polygon points="249.47 84.16 249.47 84.17 251.97 89.22 251.99 89.24 249.47 84.16" fill="#fff"/><polygon points="260.62 106.67 260.63 106.67 260.62 106.65 260.61 106.66 260.62 106.67" fill="#fff"/><polygon points="256.63 109.11 256.64 109.11 256.62 109.1 256.61 109.11 256.63 109.11" fill="#fff"/><polygon points="245.41 104.47 245.41 104.46 245.4 104.46 245.39 104.47 245.41 104.47" fill="#fff"/><polygon points="251.97 89.23 252 89.25 251.99 89.24 251.97 89.22 251.97 89.23" fill="#fff"/><polygon points="249.47 84.17 249.47 84.16 249.46 84.14 249.45 84.15 249.47 84.17" fill="#fff"/><polygon points="243.28 71.69 243.29 71.69 243.28 71.67 243.27 71.67 243.28 71.69" fill="#fff"/><polygon points="228.91 73.98 228.92 73.97 228.91 73.97 228.9 73.99 228.91 73.98" fill="#fff"/><rect x="224.92" y="81.35" width="0.01" height="0.01" transform="translate(47.5 241.75) rotate(-62)" fill="#fff"/><polygon points="263.18 111.81 261.18 107.78 263.19 111.83 263.19 111.83 263.19 111.83 263.19 111.83 263.2 111.82 263.18 111.81" fill="#fff"/><polygon points="218.46 93.33 218.46 93.33 218.46 93.33 218.46 93.33" fill="#fff"/><rect x="263.19" y="111.83" transform="translate(50.73 303.24) rotate(-65.04)" fill="#fff"/><polygon points="242.13 117.32 241.55 116.73 241.53 116.73 242.12 117.32 242.13 117.32" fill="#fff"/><polygon points="245.48 120.72 242.54 117.74 242.53 117.75 245.47 120.72 245.48 120.72" fill="#fff"/><polygon points="242.54 117.73 242.13 117.32 242.12 117.33 242.53 117.74 242.54 117.73" fill="#fff"/><polygon points="245.39 104.48 245.39 104.47 218.46 93.33 218.46 93.33 241.53 116.73 241.55 116.73 218.46 93.33 220.84 94.31 245.39 104.48" fill="#fff"/><polygon points="270.77 146.35 265.61 122.86 265.6 122.88 270.74 146.32 269.75 145.32 270.35 145.96 270.75 146.37 270.76 146.4 270.77 146.39 270.78 146.39 270.78 146.4 270.78 146.39 270.78 146.38 270.79 146.38 270.77 146.35" fill="#fff"/><polygon points="263.19 111.83 263.19 111.83 263.19 111.83 263.19 111.83 263.19 111.83 256.63 109.11 256.62 109.12 263.18 111.84 263.57 113.63 263.59 113.63 263.19 111.83 263.19 111.83" fill="#fff"/><polygon points="265.61 122.84 263.59 113.64 263.57 113.65 265.59 122.86 265.61 122.84" fill="#fff"/><polygon points="256.49 131.87 245.49 120.73 245.48 120.73 256.47 131.89 256.49 131.87" fill="#fff"/><polygon points="256.61 109.11 245.41 104.47 245.41 104.48 256.6 109.12 256.61 109.11" fill="#fff"/><polygon points="269.37 144.93 256.5 131.89 256.49 131.9 269.96 145.57 269.37 144.93" fill="#fff"/><rect x="263.57" y="113.63" width="0.02" transform="translate(-18.5 60.58) rotate(-12.67)" fill="#fff"/><rect x="263.57" y="113.64" width="0.02" transform="translate(-17.99 57.89) rotate(-12.12)" fill="#fff"/><rect x="245.47" y="120.72" width="0.01" transform="translate(-19.47 188.82) rotate(-40.6)" fill="#fff"/><rect x="245.48" y="120.73" width="0.01" transform="translate(-7.03 225.98) rotate(-48.81)" fill="#fff"/><polygon points="263.57 113.64 263.59 113.64 263.59 113.63 263.57 113.64 263.57 113.64" fill="#fff"/><polygon points="245.48 120.73 245.49 120.73 245.48 120.72 245.47 120.73 245.48 120.73" fill="#fff"/><polygon points="265.6 122.88 265.61 122.86 265.61 122.84 265.59 122.86 265.6 122.88" fill="#fff"/><polygon points="256.49 131.9 256.5 131.89 256.49 131.87 256.47 131.89 256.49 131.9" fill="#fff"/><polygon points="269.37 144.93 269.96 145.57 270.15 145.76 269.55 145.12 269.37 144.93" fill="#fff"/><polygon points="270.35 145.96 269.75 145.32 269.57 145.14 270.17 145.78 270.35 145.96" fill="#fff"/><rect x="242.53" y="117.74" width="0.01" transform="translate(-14.08 200.43) rotate(-43.75)" fill="#fff"/><polygon points="270.15 145.76 270.17 145.78 269.57 145.14 269.55 145.12 270.15 145.76" fill="#fff"/><rect x="242.53" y="117.74" width="0.01" transform="translate(-15.46 196) rotate(-42.77)" fill="#fff"/><polygon points="256.62 109.12 256.63 109.11 256.61 109.11 256.6 109.12 256.62 109.12" fill="#fff"/><polygon points="245.41 104.48 245.41 104.47 245.39 104.47 245.39 104.48 245.41 104.48" fill="#fff"/><rect x="242.53" y="117.74" width="0.01" height="0.01" transform="translate(-25.69 144.96) rotate(-31.69)" fill="#fff"/><rect x="242.12" y="117.32" width="0.01" height="0.01" transform="translate(-10.76 25.48) rotate(-5.89)" fill="#fff"/><rect x="241.54" y="116.72" height="0.02" transform="translate(71.61 324.32) rotate(-76.49)" fill="#fff"/><polygon points="259.95 68.06 237.03 59 237.04 59.02 236.99 59.01 236.99 59.01 237.01 59.01 243.28 71.67 243.3 71.67 237.03 59.02 259.94 68.07 259.95 68.06" fill="#fff"/><polygon points="263.19 111.83 261.18 107.78 260.63 106.67 260.63 106.67 263.19 111.83 263.19 111.83 263.19 111.83 267.89 105.92 267.89 105.92 263.19 111.83 263.19 111.83" fill="#fff"/><polygon points="237.01 58.98 237.02 58.98 237.01 58.98 237.01 58.98" fill="#fff"/><polygon points="249.46 84.14 249.47 84.13 243.31 71.68 243.29 71.69 249.46 84.14" fill="#fff"/><polygon points="288.4 80.15 288.4 80.13 284.73 84.75 284.74 84.76 288.4 80.15" fill="#fff"/><polygon points="288.92 79.5 288.92 79.5 288.91 79.5 288.91 79.49 288.91 79.5 288.33 79.27 288.33 79.28 288.9 79.51 288.42 80.11 288.42 80.13 288.91 79.51 288.91 79.51 288.91 79.51 288.92 79.5 288.92 79.5" fill="#fff"/><polygon points="272.36 72.96 259.96 68.06 259.95 68.07 272.35 72.97 272.36 72.96" fill="#fff"/><polygon points="288.32 79.26 272.37 72.96 272.37 72.98 288.32 79.28 288.32 79.26" fill="#fff"/><polygon points="284.73 84.77 284.72 84.76 275.44 96.42 275.47 96.4 284.73 84.77" fill="#fff"/><polygon points="252.01 89.25 249.48 84.15 249.47 84.16 251.99 89.24 252.01 89.25" fill="#fff"/><polygon points="275.44 96.45 275.41 96.47 267.9 105.9 267.91 105.91 275.44 96.45" fill="#fff"/><polygon points="260.63 106.65 252.01 89.27 252 89.25 260.62 106.65 260.63 106.65" fill="#fff"/><rect x="267.89" y="105.91" width="0.02" height="0.01" transform="translate(18.47 250.04) rotate(-51.59)" fill="#fff"/><polygon points="252 89.25 252.01 89.27 252.01 89.25 251.99 89.24 252 89.25" fill="#fff"/><rect x="260.63" y="106.65" height="0.02" transform="translate(-17.33 151.86) rotate(-31.49)" fill="#fff"/><polygon points="288.32 79.28 288.33 79.28 288.33 79.27 288.32 79.26 288.32 79.28" fill="#fff"/><polygon points="288.4 80.15 288.42 80.13 288.42 80.11 288.4 80.13 288.4 80.15" fill="#fff"/><rect x="284.73" y="84.75" width="0.01" height="0.01" transform="translate(116.62 329.7) rotate(-72.11)" fill="#fff"/><rect x="284.72" y="84.76" width="0.01" height="0.01" transform="translate(116.77 329.8) rotate(-72.15)" fill="#fff"/><rect x="284.73" y="84.75" height="0.01" transform="translate(40.31 253.61) rotate(-51.22)" fill="#fff"/><polygon points="275.44 96.45 275.47 96.4 275.44 96.42 275.41 96.47 275.44 96.45" fill="#fff"/><polygon points="272.37 72.98 272.37 72.96 272.36 72.96 272.35 72.97 272.37 72.98" fill="#fff"/><polygon points="259.95 68.07 259.96 68.06 259.95 68.06 259.94 68.07 259.95 68.07" fill="#fff"/><polygon points="249.47 84.16 249.48 84.15 249.47 84.13 249.46 84.14 249.47 84.16" fill="#fff"/><polygon points="243.29 71.69 243.31 71.68 243.3 71.67 243.28 71.67 243.29 71.69" fill="#fff"/><polygon points="212.2 24.21 201.62 36.24 212.19 24.22 212.2 24.21 212.2 24.21 212.2 24.21 212.2 24.21" fill="#fff"/><polygon points="212.2 24.21 212.19 24.2 212.18 24.21 175.97 40.57 175.96 40.57 140.17 56.73 140.17 56.73 140.15 56.74 140.11 56.74 140.12 56.76 140.12 56.76 140.1 56.77 140.12 56.76 140.12 56.76 140.12 56.77 140.15 56.76 140.17 56.75 140.18 56.75 193.17 45.84 193.18 45.84 140.25 56.72 175.98 40.58 175.99 40.57 212.17 24.23 204.02 33.51 212.2 24.21 212.2 24.21 212.21 24.2 212.2 24.21" fill="#fff"/><path d="M237,59h0l0,0h0l-9.35-13.1h0l-1.07-1.5v0L212.2,24.21h0L204,33.51,193.18,45.83h.13l14.9,4.48h0L236.86,59h0l.13,0h0v0Zm-.11,0h0l-28.67-8.61h0l-14.85-4.46h0l-.08,0h0l0,0h0l8.42-9.59,10.58-12L226.52,44.3l0,0,1.07,1.5h0L237,58.94h0l0,.05Z" fill="#fff"/></g><g opacity="0.6" style="mix-blend-mode:overlay"><path d="M196.33,38a.91.91,0,0,0,1.29,1.28.89.89,0,0,0,0-1.28A.91.91,0,0,0,196.33,38Z" fill="#fff"/><path d="M105.64,54.69a.91.91,0,0,0,0,1.29.91.91,0,1,0,0-1.29Z" fill="#fff"/><path d="M46.59,54.82a.91.91,0,0,0,0,1.29.91.91,0,0,0,1.29-1.29A.91.91,0,0,0,46.59,54.82Z" fill="#fff"/><path d="M91.36,99.59a.89.89,0,0,0,0,1.28.91.91,0,1,0,0-1.28Z" fill="#fff"/><circle cx="105.38" cy="135.48" r="0.91" fill="#fff"/><path d="M259.69,122.44a.91.91,0,1,0,1.28-.15A.91.91,0,0,0,259.69,122.44Z" fill="#fff"/><path d="M227.78,60.17a.91.91,0,1,0,1.28-.15A.92.92,0,0,0,227.78,60.17Z" fill="#fff"/><path d="M78,44a.47.47,0,0,0,0,.64.46.46,0,0,0,.65,0,.47.47,0,0,0,0-.64A.46.46,0,0,0,78,44Z" fill="#fff"/><circle cx="92.13" cy="34.11" r="0.45" fill="#fff"/><circle cx="72.96" cy="93.93" r="0.45" fill="#fff"/><path d="M158.63,152.24a.46.46,0,0,0,.17.62.46.46,0,0,0,.62-.17.45.45,0,0,0-.17-.62A.45.45,0,0,0,158.63,152.24Z" fill="#fff"/><path d="M239.81,104.25a.45.45,0,0,0,.17.62.45.45,0,0,0,.62-.17.45.45,0,1,0-.79-.45Z" fill="#fff"/><path d="M213.69,118.27a.46.46,0,1,0,.63-.16A.46.46,0,0,0,213.69,118.27Z" fill="#fff"/><path d="M230.8,91.38A.47.47,0,0,0,231,92a.46.46,0,0,0,.46-.79A.47.47,0,0,0,230.8,91.38Z" fill="#fff"/><path d="M262.19,87.78a.46.46,0,0,0,.17.62.44.44,0,0,0,.62-.16.45.45,0,0,0-.16-.62A.47.47,0,0,0,262.19,87.78Z" fill="#fff"/><path d="M292.35,93.11a.88.88,0,1,0,1.2-.32A.88.88,0,0,0,292.35,93.11Z" fill="#fff"/><path d="M255,72.6a.45.45,0,0,0,.17.62.45.45,0,1,0,.45-.78A.45.45,0,0,0,255,72.6Z" fill="#fff"/><path d="M46.78,120.24a.45.45,0,0,0,0,.64.46.46,0,0,0,.65,0,.47.47,0,0,0,0-.64A.46.46,0,0,0,46.78,120.24Z" fill="#fff"/><path d="M73.67,132.46a.45.45,0,1,0,.64,0A.45.45,0,0,0,73.67,132.46Z" fill="#fff"/><path d="M14.36,79.58a.46.46,0,1,0,.65,0A.48.48,0,0,0,14.36,79.58Z" fill="#fff"/><path d="M89.75,66a.45.45,0,1,0,.64,0A.45.45,0,0,0,89.75,66Z" fill="#fff"/></g><g opacity="0.6"><circle cx="142.38" cy="106.58" r="1.5" fill="#fff"/><circle cx="214.75" cy="96.46" r="1.5" fill="#fff"/><circle cx="199.25" cy="116.96" r="1.5" fill="#fff"/><circle cx="107.25" cy="86.21" r="1.5" fill="#fff"/><circle cx="90.5" cy="55.96" r="1.5" fill="#fff"/><circle cx="222.5" cy="56.96" r="1.5" fill="#fff"/><circle cx="283.25" cy="82.71" r="1.5" fill="#fff"/><path d="M300,151.21v-3a1.5,1.5,0,0,0,0,3Z" fill="#fff"/><circle cx="52.75" cy="101.71" r="1.5" fill="#fff"/><circle cx="1.5" cy="145.96" r="1.5" fill="#fff"/><circle cx="154.5" cy="134.21" r="0.71" fill="#fff"/><circle cx="185.75" cy="93.21" r="0.71" fill="#fff"/><circle cx="245.5" cy="100.46" r="0.71" fill="#fff"/><circle cx="297.5" cy="0.71" r="0.71" fill="#fff"/><circle cx="73.5" cy="114.21" r="0.71" fill="#fff"/><circle cx="108.21" cy="106.05" r="0.71" fill="#fff"/><circle cx="122.75" cy="64.46" r="0.71" fill="#fff"/><circle cx="138" cy="41.21" r="0.71" fill="#fff"/><circle cx="176.25" cy="71.21" r="0.71" fill="#fff"/><circle cx="196" cy="46.46" r="0.71" fill="#fff"/><circle cx="86.75" cy="130.46" r="0.71" fill="#fff"/><circle cx="26.5" cy="85.96" r="0.71" fill="#fff"/><circle cx="23.5" cy="60.96" r="0.5" fill="#fff"/><circle cx="3" cy="68.71" r="0.5" fill="#fff"/><circle cx="34.25" cy="48.71" r="0.5" fill="#fff"/><circle cx="1.25" cy="20.46" r="0.5" fill="#fff"/><circle cx="46.25" cy="67.21" r="0.71" fill="#fff"/></g></g></svg>