<?xml version="1.0" encoding="utf-8"?>
<!-- Generator: Adobe Illustrator 25.2.1, SVG Export Plug-In . SVG Version: 6.00 Build 0)  -->
<svg version="1.1" id="Layer_1" xmlns="http://www.w3.org/2000/svg" xmlns:xlink="http://www.w3.org/1999/xlink" x="0px" y="0px"
	 viewBox="0 0 210 116" style="enable-background:new 0 0 210 116;" xml:space="preserve">
<style type="text/css">
	.st0{clip-path:url(#SVGID_2_);}
</style>
<g>
	<g>
		<defs>
			<rect id="SVGID_1_" y="36.9" width="210" height="42.2"/>
		</defs>
		<clipPath id="SVGID_2_">
			<use xlink:href="#SVGID_1_"  style="overflow:visible;"/>
		</clipPath>
		<g class="st0">
			<path d="M140.5,47.8c-2,0-3.6,1.5-3.6,3.5v20.1h-24.7l-3.1-5.6l-5.3-9.1V41c0-1.9-1.6-3.5-3.6-3.5h-18c-2,0-3.6,1.5-3.6,3.5v30.6
				h-3.5l-8.3-14.8V41c0-1.9-1.6-3.5-3.6-3.5h-18c-2,0-3.6,1.5-3.6,3.5v30.6h-5.7l-8-31.3c-0.4-1.5-1.9-2.6-3.5-2.6h-9.8
				c-1.6,0-3.1,1.1-3.5,2.6L2.4,74.8c-0.5,1.9,0.7,3.7,2.7,4.1c0.1,0,0.2,0,0.4,0c0.1,0,0.4,0,0.5,0c0.2,0,0.5,0,0.6,0
				c1.4-0.2,2.6-1.1,3-2.6l8.1-31.9h4.1l7.8,31.6c0.4,1.5,1.9,2.7,3.5,2.7h12.2c2,0,3.6-1.5,3.6-3.5V44.5h10.8v13.2
				c0,0.6,0.1,1.1,0.5,1.6L70,76.6c0.6,1.1,1.9,1.7,3.2,1.7h9.2c2,0,3.6-1.5,3.6-3.5V44.5h10.8v13.2c0,0.6,0.1,1.1,0.5,1.6l9.8,17.4
				c0.5,0.9,1.2,1.4,2.2,1.6c0.4,0.1,0.6,0.1,1,0.1h30.6c2,0,3.6-1.5,3.6-3.5V51.3C144.3,49.4,142.7,47.8,140.5,47.8z"/>
			<path d="M204,37c-2-0.4-3.9,0.9-4.2,2.7l-6.5,31.8h-1.9l-6.2-31.3c-0.4-1.6-1.7-2.9-3.5-2.9H175c-1.7,0-3.2,1.1-3.5,2.9
				l-6.3,31.2h-1.9l-6.3-31.2c-0.4-1.6-1.7-2.9-3.5-2.9h-3h-31.8c-2,0.1-3.7,1.6-3.7,3.5v23.6c0,1.9,1.6,3.5,3.6,3.5
				s3.6-1.5,3.6-3.5v-20H150v0.1l6.2,31.2c0.4,1.6,1.7,2.9,3.5,2.9h8c1.7,0,3.2-1.1,3.5-2.9l6.3-31.2h1l6.3,31.2
				c0.4,1.6,1.7,2.9,3.5,2.9h8c1.7,0,3.2-1.1,3.5-2.9l6.3-32.3v-5C206,37.7,205.2,37.1,204,37z"/>
		</g>
	</g>
</g>
</svg>
