<?xml version="1.0" encoding="UTF-8"?><svg id="b" xmlns="http://www.w3.org/2000/svg" width="210" height="116" viewBox="0 0 210 116"><g id="c"><g><g><g><path d="M40.4,80.3c-15.4-4.5-29.9-16.6-29.2-26.7,.7-9.2,11.3-13.6,24-12.8-15.9-2.7-27.2,3.6-27.4,13.9-.3,11.6,15.8,26.1,32.6,31.4v-5.8Z"/><path d="M40.5,71.4s-10-5.2-13.9-8.2c2.6,1.4,13.9,6.1,13.9,6.1v-1.9s-9.3-4.6-14.4-8.5c6.7,3.4,14.4,6.3,14.4,6.3v-2s-7.7-3.2-14.6-8.1c8.2,4,14.6,5.6,14.6,5.6v-1.9c-15.4-4.5-24.8-14-25.8-20.8-1.3-9,7.9-10.8,20.6-10.1-15.8-2.7-27.7-.5-27.7,13.2,0,11.6,16.1,26.3,32.9,31.6v-1.3h0Z" fill="#41c363"/><path d="M40.6,35.7c15.4,4.5,29.9,16.6,29.1,26.7-.6,9.2-11.2,13.6-23.9,12.8,15.9,2.7,27.2-3.7,27.5-13.9,.2-11.6-15.8-26.1-32.7-31.4v5.8Z"/><path d="M40.5,44.6s10,5.2,13.9,8.2c-2.6-1.3-13.9-6-13.9-6v1.9s9.3,4.6,14.4,8.5c-6.8-3.4-14.4-6.3-14.4-6.3v2s7.7,3.2,14.6,8.1c-8.2-4-14.6-5.6-14.6-5.6v1.9c15.4,4.5,24.8,14,25.8,20.8,1.3,9-7.9,10.8-20.6,10.1,15.9,2.7,27.7,.4,27.7-13.3,0-11.6-16.1-26.3-32.9-31.6,0,0,0,1.3,0,1.3Z" fill="#41c363"/></g><polygon points="89.5 76.3 89.5 89.2 198.2 89.2 202.4 76.3 89.5 76.3" fill="#41c363"/><g><path d="M101.9,84.6h-2.2l-.5,1.7h-1.4l2.4-7h1.3l2.4,7h-1.4l-.6-1.7Zm-1.8-1.2h1.4l-.7-2.4-.7,2.4Z" fill="#fff"/><path d="M110,79.2v7h-1.4l-2.6-4.6v4.6h-1.3v-7h1.4l2.6,4.6v-4.6h1.3Z" fill="#fff"/><path d="M117.6,84.6h-2.2l-.5,1.7h-1.4l2.4-7h1.3l2.4,7h-1.4l-.6-1.7Zm-1.9-1.2h1.5l-.7-2.4-.8,2.4Z" fill="#fff"/><path d="M121.4,86.2l-2.4-7h1.4l1.6,5.2,1.6-5.2h1.4l-2.4,7h-1.2Z" fill="#fff"/><path d="M131.1,79.2v7h-1.4l-2.6-4.6v4.6h-1.3v-7h1.4l2.6,4.6v-4.6h1.3Z" fill="#fff"/><path d="M136.9,79.2v1.2h-3v1.5h2.4v1.2h-2.4v1.9h3.1v1.2h-4.5v-7h4.4Z" fill="#fff"/><path d="M138,79.2h5.2v1.2h-2v5.8h-1.3v-5.8h-2l.1-1.2h0Z" fill="#fff"/><path d="M151.3,81.5c-.3-.7-.8-1.2-1.7-1.2-1.1,0-2,.8-2,2.4s.9,2.4,2,2.4c1,0,1.5-.5,1.7-1.2l1.2,.3c-.3,1.3-1.4,2.1-2.9,2.1-1.8,0-3.3-1.2-3.3-3.6s1.6-3.6,3.3-3.6c1.5,0,2.6,.8,2.9,2.1l-1.2,.3Z" fill="#fff"/><path d="M160,82.7c0,2.4-1.5,3.6-3.3,3.6s-3.3-1.2-3.3-3.6,1.5-3.6,3.3-3.6,3.3,1.2,3.3,3.6Zm-5.3,0c0,1.7,.9,2.4,2,2.4s2-.7,2-2.4-.9-2.4-2-2.4-2,.8-2,2.4Z" fill="#fff"/><path d="M161.4,79.2h1.5l1.7,4.4,1.7-4.4h1.5v7h-1.3v-4.3l-1.3,3.7h-.9l-1.3-3.7v4.3h-1.3l-.3-7h0Z" fill="#fff"/><path d="M170.4,83.5v2.7h-1.3v-7h2.6c1.5,0,2.2,.9,2.2,2.1s-.7,2.1-2.2,2.1h-1.3v.1Zm2.2-2.2c0-.6-.4-.9-.9-.9h-1.3v1.9h1.3c.6,0,.9-.3,.9-1Z" fill="#fff"/><path d="M177.9,84.6h-2.2l-.5,1.7h-1.4l2.4-7h1.3l2.4,7h-1.4l-.6-1.7Zm-1.9-1.2h1.5l-.7-2.4-.8,2.4Z" fill="#fff"/><path d="M185.9,79.2v7h-1.4l-2.6-4.6v4.6h-1.3v-7h1.4l2.6,4.6v-4.6h1.3Z" fill="#fff"/><path d="M187.9,79.2l1.3,2.7,1.3-2.7h1.4l-2,4v3h-1.4v-3l-2-4h1.4Z" fill="#fff"/></g><g><path d="M93.5,44.7v6.7h7.8v3.8h-7.8v11.4h-4v-25.7h17.4v3.8h-13.4Z"/><path d="M118.9,66.6v-1.9c-1.4,1.3-3.4,2.3-5.5,2.3-3.3,0-7-1.8-7-6.5,0-4.3,3.5-6.2,8.1-6.2,1.9,0,3.4,.3,4.5,.7v-1.4c0-2.1-1.3-3.3-3.8-3.3-2.1,0-3.7,.4-5.3,1.2l-1.5-2.9c1.9-1.1,4.1-1.7,6.9-1.7,4.5,0,7.6,2.1,7.6,6.5v13.2h-4Zm0-8.3c-1.1-.5-2.5-.8-4.6-.8-2.6,0-4.2,1.1-4.2,2.9,0,1.9,1.3,3.2,3.9,3.2,2.1,0,4-1.2,4.9-2.5,0,0,0-2.8,0-2.8Z"/><path d="M139.5,51.3c-.9-.4-1.7-.7-3.1-.7-2.5,0-4,1.7-4,5v11h-4v-19.3h4v1.8c.9-1.3,2.6-2.2,4.6-2.2,1.6,0,2.6,.3,3.4,.8l-.9,3.6Z"/><path d="M157,66.6v-10.9c0-3.9-1.5-5.3-4.2-5.3s-4.2,1.8-4.2,4.9v11.3h-4v-19.3h4v1.8c1-1.4,3-2.2,5.1-2.2,4.7,0,7.2,2.9,7.2,8.6v11c0,.1-3.9,.1-3.9,.1Z"/><path d="M183,58.3h-13.4c.4,3.7,2.6,5.3,5.1,5.3,1.7,0,3.1-.6,4.4-1.5l2.3,2.4c-1.8,1.6-3.9,2.5-7,2.5-4.7,0-8.8-3.6-8.8-10s3.6-10.1,8.9-10.1c5.8,0,8.5,4.4,8.5,9.7,.1,.6,0,1.3,0,1.7Zm-8.7-8c-2.7,0-4.3,1.8-4.6,4.8h9.4c-.2-2.6-1.5-4.8-4.8-4.8Z"/><path d="M188.2,66.6v-24.8l4-2v26.7c0,.1-4,.1-4,.1Z"/><path d="M198.4,66.6v-24.8l4-2v26.7c0,.1-4,.1-4,.1Z"/></g></g><rect width="210" height="116" fill="none"/></g></g></svg>