<svg xmlns="http://www.w3.org/2000/svg" viewBox="0 0 210 116"><polyline points="89.39 77.47 89.39 90.55 198.56 90.55 202.84 77.47 89.39 77.47" fill="#4bb061"/><path d="M99.08,84.78h1.52l-.76-2.45ZM101,86H98.77l-.51,1.69H96.88l2.41-7.11h1.31L103,87.68h-1.49Z" fill="#fffffe"/><polyline points="109.12 80.55 109.12 87.65 107.71 87.65 105.12 82.99 105.12 87.65 103.81 87.65 103.81 80.55 105.19 80.55 107.81 85.24 107.81 80.55 109.12 80.55" fill="#fffffe"/><path d="M114.92,84.78h1.51l-.75-2.45ZM116.78,86h-2.24L114,87.68h-1.38l2.41-7.11h1.32l2.41,7.11H117.4Z" fill="#fffffe"/><polyline points="120.68 87.65 118.3 80.55 119.75 80.55 121.37 85.82 122.95 80.55 124.4 80.55 122.02 87.65 120.68 87.65" fill="#fffffe"/><polyline points="130.51 80.55 130.51 87.65 129.09 87.65 126.51 82.99 126.51 87.65 125.2 87.65 125.2 80.55 126.58 80.55 129.16 85.24 129.16 80.55 130.51 80.55" fill="#fffffe"/><polyline points="136.34 80.55 136.34 81.79 133.27 81.79 133.27 83.27 135.75 83.27 135.75 84.48 133.27 84.48 133.27 86.44 136.44 86.44 136.44 87.65 131.96 87.65 131.96 80.55 136.34 80.55" fill="#fffffe"/><polyline points="137.44 80.55 142.72 80.55 142.72 81.79 140.72 81.79 140.72 87.65 139.41 87.65 139.41 81.79 137.44 81.79 137.44 80.55" fill="#fffffe"/><path d="M150.89,82.92a1.72,1.72,0,0,0-1.76-1.24c-1.1,0-2,.76-2,2.42s.93,2.41,2,2.41a1.71,1.71,0,0,0,1.76-1.24l1.18.31a2.81,2.81,0,0,1-2.94,2.14,3.63,3.63,0,0,1,0-7.24,2.77,2.77,0,0,1,2.94,2.13l-1.18.31" fill="#fffffe"/><path d="M154.38,84.09c0,1.69.93,2.42,2,2.42s2-.73,2-2.42-.93-2.41-2-2.41S154.38,82.44,154.38,84.09Zm5.38,0a3.36,3.36,0,1,1-3.35-3.62,3.26,3.26,0,0,1,3.35,3.62Z" fill="#fffffe"/><polyline points="161.14 80.55 162.62 80.55 164.31 84.99 165.97 80.55 167.45 80.55 167.45 87.65 166.14 87.65 166.14 83.27 164.79 87.03 163.83 87.03 162.48 83.27 162.48 87.65 161.14 87.65 161.14 80.55" fill="#fffffe"/><path d="M172.49,82.71a.83.83,0,0,0-.7-.93.89.89,0,0,0-.23,0h-1.31v1.9h1.31a.85.85,0,0,0,.93-.76A.74.74,0,0,0,172.49,82.71Zm-2.24,2.17v2.76h-1.32V80.58h2.69a2.18,2.18,0,1,1,0,4.35h-1.37Z" fill="#fffffe"/><path d="M175.94,84.78h1.51l-.72-2.44ZM177.8,86h-2.24L175,87.68h-1.41L176,80.57h1.31l2.42,7.11h-1.45Z" fill="#fffffe"/><polyline points="185.94 80.55 185.94 87.65 184.56 87.65 181.97 82.99 181.97 87.65 180.63 87.65 180.63 80.55 182.04 80.55 184.63 85.24 184.63 80.55 185.94 80.55" fill="#fffffe"/><polyline points="187.94 80.55 189.25 83.34 190.53 80.55 191.94 80.55 189.91 84.65 189.91 87.65 188.6 87.65 188.6 84.65 186.53 80.55 187.94 80.55" fill="#fffffe"/><path d="M32.82,76.54C18.09,72.23,4.29,60.63,5,51c.66-8.76,10.73-13,22.87-12.28C12.68,36.19,1.88,42.19,1.64,52,1.36,63.09,16.71,77,32.82,82.06V76.54" fill="#0a0b09"/><path d="M33,68s-9.56-4.93-13.28-7.87C22.13,61.5,33,65.92,33,65.92V64.08S24.13,59.71,19.23,56C25.61,59.19,33,62,33,62V60a79.09,79.09,0,0,1-14-7.76,76.8,76.8,0,0,0,14,5.38V55.81C18.23,51.5,9.26,42.46,8.3,36,7,27.39,15.85,25.66,28,26.39,12.85,23.84,1.5,26,1.5,39.05c0,11,15.35,25.11,31.46,30.18V68" fill="#4bb061"/><path d="M33,33.87C47.72,38.19,61.52,49.78,60.83,59.4c-.62,8.76-10.73,13-22.87,12.27,15.14,2.56,26-3.48,26.22-13.28.27-11-15.11-24.94-31.22-30V33.9" fill="#0a0b09"/><path d="M32.89,42.43s9.55,4.93,13.28,7.86c-2.45-1.38-13.28-5.8-13.28-5.8v1.83s8.83,4.39,13.73,8.11c-6.38-3.21-13.73-6-13.73-6v2a80.51,80.51,0,0,1,14,7.77,76.91,76.91,0,0,0-14-5.41v1.83C47.62,58.92,56.59,68,57.55,74.43,58.83,83,50,84.78,37.86,84c15.17,2.55,26.49.38,26.49-12.66C64.35,60.3,49,46.26,32.89,41.15v1.28" fill="#4bb061"/><polyline points="82.46 40.88 95.12 60.44 95.12 40.88 99.05 40.88 99.05 67.44 95.39 67.44 82.46 48.05 82.46 67.44 78.56 67.44 78.56 40.88 82.46 40.88" fill="#0a0b09"/><path d="M111.78,50a4.46,4.46,0,0,0-3.45,1.52,7.35,7.35,0,0,0-1.69,4.34H117a7.34,7.34,0,0,0-1.69-4.38A4.45,4.45,0,0,0,111.78,50Zm-5.18,8.62a9.23,9.23,0,0,0,.69,2.72,6.46,6.46,0,0,0,1.25,1.9,4.42,4.42,0,0,0,1.69,1.1,5.31,5.31,0,0,0,1.93.38,5,5,0,0,0,2.62-.69,5.79,5.79,0,0,0,1.83-1.69L119,64.36A7.66,7.66,0,0,1,118,65.57a9.11,9.11,0,0,1-1.48,1.14,10.49,10.49,0,0,1-2,.86,8,8,0,0,1-2.48.34,8.68,8.68,0,0,1-3.45-.69,7.6,7.6,0,0,1-2.76-2,10.27,10.27,0,0,1-1.9-3.34,14.93,14.93,0,0,1-.69-4.69,15.32,15.32,0,0,1,.62-4.52,9.44,9.44,0,0,1,1.76-3.31,7.38,7.38,0,0,1,2.69-2,9,9,0,0,1,6.9,0,7.43,7.43,0,0,1,2.73,2,9.42,9.42,0,0,1,1.79,3.31,14.69,14.69,0,0,1,.62,4.52,4,4,0,0,1,0,.69,3.37,3.37,0,0,1-.07.62H106.67Z" fill="#0a0b09"/><polyline points="124.71 47.12 128.23 61.4 132.54 47.12 135.47 47.12 139.72 61.4 143.31 47.12 146.72 47.12 141.62 67.44 138.44 67.44 133.99 52.74 129.44 67.44 126.27 67.44 121.26 47.12 124.71 47.12" fill="#0a0b09"/><path d="M156.45,64.68a11.55,11.55,0,0,0,2.55-.31,9.74,9.74,0,0,0,2.45-.9V57.81a14.09,14.09,0,0,0-2.21-.58A12.05,12.05,0,0,0,157,57a6.93,6.93,0,0,0-3.69.93,3.24,3.24,0,0,0-1.48,3,3.3,3.3,0,0,0,.37,1.69,3.65,3.65,0,0,0,1,1.14,4.06,4.06,0,0,0,1.49.69A4.75,4.75,0,0,0,156.45,64.68Zm-6.59-15.87a10.92,10.92,0,0,1,2.93-1.48,12.36,12.36,0,0,1,4.35-.66,11.32,11.32,0,0,1,3.17.42,6.52,6.52,0,0,1,2.48,1.31,6,6,0,0,1,1.63,2.45,10.64,10.64,0,0,1,.58,3.76v12.9h-3.38V66.06a11.21,11.21,0,0,1-8.86,1.34,6.24,6.24,0,0,1-2.31-1.17,5.79,5.79,0,0,1-1.56-2.07,7.69,7.69,0,0,1,0-5.86,6,6,0,0,1,1.62-2.14A7.19,7.19,0,0,1,153,54.88a10.27,10.27,0,0,1,3.11-.45,14.59,14.59,0,0,1,2.72.28,12.57,12.57,0,0,1,2.62.79v-.69a6.56,6.56,0,0,0-.31-2.24,3.26,3.26,0,0,0-2.41-2.21,8.64,8.64,0,0,0-2-.24,10,10,0,0,0-2.93.41,9.33,9.33,0,0,0-2.45,1.21Z" fill="#0a0b09"/><path d="M181.42,51.09a2.88,2.88,0,0,0-1.28-.76,5.73,5.73,0,0,0-1.65-.24,5.21,5.21,0,0,0-2.83.76,5.63,5.63,0,0,0-2.14,2.89v13.7h-3.65V47.12h3.45V49.6a6.89,6.89,0,0,1,5.82-3,5.57,5.57,0,0,1,2.18.38,4.51,4.51,0,0,1,1.38.86l-1.28,3.24" fill="#0a0b09"/><polyline points="202.01 47.12 194.98 55.12 203.12 67.44 199.15 67.44 192.7 57.71 189.25 61.64 189.25 67.44 185.59 67.44 185.59 40.29 189.25 39.08 189.25 57.19 198.05 47.12 202.01 47.12" fill="#0a0b09"/><path d="M205.7,42.84H206c.31,0,.55-.1.55-.34s-.17-.35-.52-.35a.67.67,0,0,0-.31,0v.65Zm0,1.35h-.55V41.84a6.82,6.82,0,0,1,.9-.07,1.51,1.51,0,0,1,.83.18.6.6,0,0,1,.24.51.71.71,0,0,1-.48.56v0c.24.07.34.24.41.59a1.49,1.49,0,0,0,.17.58h-.58a2,2,0,0,1-.18-.58c0-.25-.17-.38-.48-.38h-.28ZM204.26,43a1.81,1.81,0,0,0,3.62.22V43a1.83,1.83,0,0,0-1.76-1.9h0a1.88,1.88,0,0,0-1.86,1.89h0Zm4.24,0A2.42,2.42,0,1,1,206,40.6h.06a2.36,2.36,0,0,1,2.38,2.33v0Z" fill="#1b1a19"/><rect width="210" height="116" fill="none"/></svg>