<svg xmlns="http://www.w3.org/2000/svg" viewBox="0 0 210 116"><path d="M195.79,40.69V39.54h5.3v1.15h-2V46h-1.42V40.69Z"/><path d="M203.08,39.54,204.61,44h0l1.44-4.47H208V46h-1.35V41.43h0L205.07,46H204l-1.6-4.55h0V46H201V39.54Z"/><path d="M125.63,38.27c-7.63-.25-14.59.45-20.7,4.61a27.3,27.3,0,0,0-11.7,17.4c-2.19,10.3,2.43,22.38,11.7,27.8,16.16,9.37,29.27,4.43,39.84-10,1.25,1.72,2.17,3.07,3.18,4.35a27.1,27.1,0,1,0,40.59-35.91c-.38-.43-.79-.86-1.2-1.27-12.23-10.87-30.08-8.76-40.52,4.8q-8.3,10.8-16.51,21.61c-3,3.91-6.71,6.13-11.7,5.47a11.75,11.75,0,0,1,.66-23.39c4.9-.32,9.76,0,14.75-.18,4.31-.12,7.67-2.48,7.8-6.2.32-8,.1-16,.1-24.22H125.63Zm-69,27.14a27.25,27.25,0,1,0,0,.14Zm22.57,0c5.64-8.33,11.16-16.48,17-25.2H77a4.45,4.45,0,0,0-2.85,1.85Q66.76,52.76,59.61,63.52a3.9,3.9,0,0,0,0,3.49c4.78,7.38,9.76,14.67,14.71,21.91a3.93,3.93,0,0,0,2.56,1.76c6.22.15,12.46.09,19.51.09Zm101.94.1a11.81,11.81,0,1,1-11.79-11.82h.08a11.81,11.81,0,0,1,11.71,11.76Zm-140,0a11.84,11.84,0,1,1,0-.08v.08Z"/><rect width="210" height="116" fill="none"/></svg>