<?xml version="1.0" encoding="UTF-8"?><svg id="b" xmlns="http://www.w3.org/2000/svg" width="118.32" height="96.24" viewBox="0 0 118.32 96.24"><g id="c"><rect id="d" x="2.16" y="2.16" width="114" height="91.92" rx="5.62" ry="5.62" fill="none" stroke="#f1072c" stroke-width="4.32"/><path id="e" d="M102.34,87.78l-55.7-.03c-5.97,0-4.78-26.43-10.87-26.43h-2.27c-1.85,0-3.33-1.49-3.33-3.33v-10.63c0-1.85,1.49-3.33,3.33-3.33h3.58c1.85,0,3.33-1.49,3.33-3.33v-9.5c0-1.85-1.49-3.33-3.33-3.33h-9.26v55.6c0,2.39-1.93,4.32-4.32,4.32h-10.66c-2.39,0-4.32-1.93-4.32-4.32V12.78c0-2.39,1.93-4.32,4.32-4.32h38.24c4.19,0,7.57,3.38,7.57,7.57v28.06c0,4.19-3.38,7.49-7.57,7.49h-1.72v2.8c11.06,0,7.92,14.36,12.8,14.36h25.64c1.85,0,3.33-1.49,3.33-3.33v-4.41c0-1.85-1.49-3.33-3.33-3.33h-13.73c-5.77,0-10.42-4.65-10.42-10.42V15.92c0-4.13,3.32-7.45,7.45-7.45h34.37c2.39,0,4.32,1.93,4.32,4.32v10.47c0,2.39-1.93,4.32-4.32,4.32h-20.24c-1.85,0-3.33,1.49-3.33,3.33v4.41c0,1.85,1.49,3.33,3.33,3.33h14.14c5.77,0,10.42,4.65,10.42,10.42v31.25c0,4.13-3.32,7.45-7.45,7.45Z" fill="#f1072c" stroke-width="0"/></g></svg>